<svg id="etb2b4wnml41" xmlns="http://www.w3.org/2000/svg" xmlns:xlink="http://www.w3.org/1999/xlink" viewBox="0 0 28 28" shape-rendering="geometricPrecision" text-rendering="geometricPrecision"><style><![CDATA[#etb2b4wnml41{pointer-events: all}#etb2b4wnml41:hover #etb2b4wnml45_to {animation: etb2b4wnml45_to__to 1400ms linear infinite normal forwards}@keyframes etb2b4wnml45_to__to { 0% {transform: translate(11.500000px,6.750000px)} 7.142857% {transform: translate(11.500000px,6.750000px);animation-timing-function: cubic-bezier(0.420000,0,0.580000,1)} 42.857143% {transform: translate(11.500000px,3.750000px);animation-timing-function: cubic-bezier(0.420000,0,0.580000,1)} 71.428571% {transform: translate(11.500000px,6.750000px)} 100% {transform: translate(11.500000px,6.750000px)} }#etb2b4wnml41:hover #etb2b4wnml45_tr {animation: etb2b4wnml45_tr__tr 1400ms linear infinite normal forwards}@keyframes etb2b4wnml45_tr__tr { 0% {transform: rotate(0deg)} 7.142857% {transform: rotate(0deg);animation-timing-function: cubic-bezier(0.420000,0,0.580000,1)} 42.857143% {transform: rotate(-5deg);animation-timing-function: cubic-bezier(0.420000,0,0.580000,1)} 64.285714% {transform: rotate(0deg)} 100% {transform: rotate(0deg)} }#etb2b4wnml41:hover #etb2b4wnml48_to {animation: etb2b4wnml48_to__to 1400ms linear infinite normal forwards}@keyframes etb2b4wnml48_to__to { 0% {transform: translate(11.500000px,18.750000px)} 7.142857% {transform: translate(11.500000px,18.750000px);animation-timing-function: cubic-bezier(0.420000,0,0.580000,1)} 28.571429% {transform: translate(11.500000px,17.750000px);animation-timing-function: cubic-bezier(0.420000,0,0.580000,1)} 64.285714% {transform: translate(11.500000px,18.750000px)} 100% {transform: translate(11.500000px,18.750000px)} }#etb2b4wnml41:hover #etb2b4wnml48_tr {animation: etb2b4wnml48_tr__tr 1400ms linear infinite normal forwards}@keyframes etb2b4wnml48_tr__tr { 0% {transform: rotate(0deg)} 7.142857% {transform: rotate(0deg);animation-timing-function: cubic-bezier(0.420000,0,0.580000,1)} 28.571429% {transform: rotate(-5deg);animation-timing-function: cubic-bezier(0.420000,0,0.580000,1)} 57.142857% {transform: rotate(0deg)} 100% {transform: rotate(0deg)} }#etb2b4wnml41:hover #etb2b4wnml414_to {animation: etb2b4wnml414_to__to 1400ms linear infinite normal forwards}@keyframes etb2b4wnml414_to__to { 0% {transform: translate(9.500000px,12.750000px)} 7.142857% {transform: translate(9.500000px,12.750000px);animation-timing-function: cubic-bezier(0.420000,0,0.580000,1)} 35.714286% {transform: translate(9.500000px,10.750000px);animation-timing-function: cubic-bezier(0.420000,0,0.580000,1)} 78.571429% {transform: translate(9.500000px,12.750000px)} 100% {transform: translate(9.500000px,12.750000px)} }#etb2b4wnml41:hover #etb2b4wnml414_tr {animation: etb2b4wnml414_tr__tr 1400ms linear infinite normal forwards}@keyframes etb2b4wnml414_tr__tr { 0% {transform: rotate(0deg)} 7.142857% {transform: rotate(0deg);animation-timing-function: cubic-bezier(0.420000,0,0.580000,1)} 35.714286% {transform: rotate(5deg);animation-timing-function: cubic-bezier(0.420000,0,0.580000,1)} 78.571429% {transform: rotate(0deg)} 100% {transform: rotate(0deg)} }#etb2b4wnml41:hover #etb2b4wnml417_to {animation: etb2b4wnml417_to__to 1400ms linear infinite normal forwards}@keyframes etb2b4wnml417_to__to { 0% {transform: translate(18px,20px);animation-timing-function: cubic-bezier(0.420000,0,0.580000,1)} 28.571429% {transform: translate(20px,20px);animation-timing-function: cubic-bezier(0.420000,0,0.580000,1)} 71.428571% {transform: translate(16.750000px,20px);animation-timing-function: cubic-bezier(0.420000,0,0.580000,1)} 92.857143% {transform: translate(18px,20px)} 100% {transform: translate(18px,20px)} }#etb2b4wnml41:hover #etb2b4wnml417_tr {animation: etb2b4wnml417_tr__tr 1400ms linear infinite normal forwards}@keyframes etb2b4wnml417_tr__tr { 0% {transform: rotate(0deg);animation-timing-function: cubic-bezier(0.420000,0,0.580000,1)} 35.714286% {transform: rotate(20deg)} 78.571429% {transform: rotate(-10deg)} 100% {transform: rotate(0deg)} }]]></style><g id="etb2b4wnml42"><g id="etb2b4wnml43"><rect id="etb2b4wnml44" width="28" height="28" rx="0" ry="0" fill="none" stroke="none" stroke-width="1"/></g><g id="etb2b4wnml45_to" transform="translate(11.500000,6.750000)"><g id="etb2b4wnml45_tr" transform="rotate(0)"><g id="etb2b4wnml45" transform="translate(-11.500000,-6.750000)"><rect id="etb2b4wnml46" width="15" height="6.500000" rx="2" ry="2" transform="matrix(1 0 0 1 4 3.50000000000000)" fill="rgb(255,255,255)" stroke="none" stroke-width="1"/><path id="etb2b4wnml47" d="M17,10L6,10C4.895431,10,4,9.104569,4,8L4,5.500000C4,4.395431,4.895431,3.500000,6,3.500000L17,3.500000C18.104569,3.500000,19,4.395431,19,5.500000L19,8C19,9.104569,18.104569,10,17,10ZM6,5.500000L6,5.500000L6,8L17,8L17,5.500000Z" fill="rgb(112,112,112)" stroke="none" stroke-width="1"/></g></g></g><g id="etb2b4wnml48_to" transform="translate(11.500000,18.750000)"><g id="etb2b4wnml48_tr" transform="rotate(0)"><g id="etb2b4wnml48" transform="translate(-11.500000,-18.750000)"><rect id="etb2b4wnml49" width="15" height="6.500000" rx="2" ry="2" transform="matrix(1 0 0 1 4 15.50000000000000)" fill="rgb(255,255,255)" stroke="none" stroke-width="1"/><path id="etb2b4wnml410" d="M17,22L6,22C4.895431,22,4,21.104569,4,20L4,17.500000C4,16.395431,4.895431,15.500000,6,15.500000L17,15.500000C18.104569,15.500000,19,16.395431,19,17.500000L19,20C19,21.104569,18.104569,22,17,22ZM6,17.500000L6,17.500000L6,20L17,20L17,17.500000Z" fill="rgb(112,112,112)" stroke="none" stroke-width="1"/></g></g></g><g id="etb2b4wnml411"><rect id="etb2b4wnml412" width="15" height="6.500000" rx="2" ry="2" transform="matrix(1 0 0 1 4 21.50000000000000)" fill="rgb(255,255,255)" stroke="none" stroke-width="1"/><path id="etb2b4wnml413" d="M17,28L6,28C4.895431,28,4,27.104569,4,26L4,23.500000C4,22.395431,4.895431,21.500000,6,21.500000L17,21.500000C18.104569,21.500000,19,22.395431,19,23.500000L19,26C19,27.104569,18.104569,28,17,28ZM6,23.500000L6,23.500000L6,26L17,26L17,23.500000Z" fill="rgb(112,112,112)" stroke="none" stroke-width="1"/></g><g id="etb2b4wnml414_to" transform="translate(9.500000,12.750000)"><g id="etb2b4wnml414_tr" transform="rotate(0)"><g id="etb2b4wnml414" transform="translate(-9.500000,-12.750000)"><rect id="etb2b4wnml415" width="15" height="6.500000" rx="2" ry="2" transform="matrix(1 0 0 1 2 9.50000000000000)" fill="rgb(255,255,255)" stroke="none" stroke-width="1"/><path id="etb2b4wnml416" d="M15,16L4,16C2.895431,16,2,15.104569,2,14L2,11.500000C2,10.395431,2.895431,9.500000,4,9.500000L15,9.500000C16.104569,9.500000,17,10.395431,17,11.500000L17,14C17,15.104569,16.104569,16,15,16ZM4,11.500000L4,11.500000L4,14L15,14L15,11.500000Z" fill="rgb(112,112,112)" stroke="none" stroke-width="1"/></g></g></g><g id="etb2b4wnml417_to" transform="translate(18,20)"><g id="etb2b4wnml417_tr" transform="rotate(0)"><g id="etb2b4wnml417" transform="translate(-18,-20)"><circle id="etb2b4wnml418" r="8" transform="matrix(1 0 0 1 18 20)" fill="rgb(255,255,255)" stroke="none" stroke-width="1"/><path id="etb2b4wnml419" d="M18,28C13.581722,28,10,24.418278,10,20C10,15.581722,13.581722,12,18,12C22.418278,12,26,15.581722,26,20C26,24.418278,22.418278,28,18,28ZM18,14C14.686292,14,12,16.686292,12,20C12,23.313708,14.686292,26,18,26C21.313708,26,24,23.313708,24,20C24,16.686292,21.313708,14,18,14Z" fill="rgb(112,112,112)" stroke="none" stroke-width="1"/><g id="etb2b4wnml420"><path id="etb2b4wnml421" d="M17.920000,20.750000C17.920000,20.750000,18.750000,20.750000,18.750000,21.500000C18.766501,21.699657,18.701345,21.897474,18.569421,22.048243C18.437498,22.199013,18.250081,22.289852,18.050000,22.300000C17.795806,22.320396,17.549395,22.206668,17.400000,22C17.239230,21.785641,16.976314,21.673334,16.710289,21.705385C16.444263,21.737436,16.215544,21.908975,16.110289,22.155385C16.005033,22.401795,16.039230,22.685641,16.200000,22.900000L16.200000,22.900000C16.466035,23.254973,16.831477,23.522964,17.250000,23.670000L17.250000,24.170000C17.250000,24.584214,17.585786,24.920000,18,24.920000C18.414214,24.920000,18.750000,24.584214,18.750000,24.170000L18.750000,23.670000C19.757680,23.322033,20.382850,22.314661,20.247345,21.257240C20.111840,20.199819,19.252860,19.382635,18.190000,19.300000C17.127140,19.217365,17.250000,19.390000,17.250000,18.560000C17.260512,18.150220,17.590220,17.820512,18,17.810000C18.236443,17.808400,18.459415,17.919885,18.600000,18.110000C18.846888,18.406668,19.276936,18.471175,19.600000,18.260000C19.900974,18.015553,19.966008,17.581994,19.750000,17.260000L19.750000,17.260000C19.481656,16.905077,19.117297,16.634410,18.700000,16.480000L18.700000,16C18.700000,15.585786,18.364214,15.250000,17.950000,15.250000C17.535786,15.250000,17.200000,15.585786,17.200000,16L17.200000,16L17.200000,16.500000C16.180949,16.858295,15.562756,17.892822,15.730000,18.960000C15.975988,19.980266,16.871188,20.711959,17.920000,20.750000Z" fill="rgb(1,159,222)" stroke="none" stroke-width="1"/></g></g></g></g></g></svg>