<svg id="exwrdyihgbfc1" xmlns="http://www.w3.org/2000/svg" xmlns:xlink="http://www.w3.org/1999/xlink" viewBox="0 0 28 28" shape-rendering="geometricPrecision" text-rendering="geometricPrecision"><style><![CDATA[#exwrdyihgbfc1{pointer-events: all}#exwrdyihgbfc1:hover #exwrdyihgbfc4_to {animation: exwrdyihgbfc4_to__to 1000ms linear infinite normal forwards}@keyframes exwrdyihgbfc4_to__to { 0% {transform: translate(18.500000px,12px)} 20% {transform: translate(18.500000px,12px);animation-timing-function: cubic-bezier(0.445000,0.050000,0.550000,0.950000)} 50% {transform: translate(18.500000px,8px);animation-timing-function: cubic-bezier(0.445000,0.050000,0.550000,0.950000)} 90% {transform: translate(18.500000px,12px)} 100% {transform: translate(18.500000px,12px)} }#exwrdyihgbfc1:hover #exwrdyihgbfc7_to {animation: exwrdyihgbfc7_to__to 1000ms linear infinite normal forwards}@keyframes exwrdyihgbfc7_to__to { 0% {transform: translate(5.500000px,11.996966px);animation-timing-function: cubic-bezier(0.445000,0.050000,0.550000,0.950000)} 30% {transform: translate(5.500000px,7.996966px);animation-timing-function: cubic-bezier(0.445000,0.050000,0.550000,0.950000)} 70% {transform: translate(5.500000px,11.996966px)} 100% {transform: translate(5.500000px,11.996966px)} }]]></style><g id="exwrdyihgbfc2"><rect id="exwrdyihgbfc3" width="24" height="24" rx="0" ry="0" transform="matrix(1 0 0 1 2 4)" fill="none" stroke="none" stroke-width="1"/></g><g id="exwrdyihgbfc4_to" transform="translate(18.500000,12)"><g id="exwrdyihgbfc4" transform="translate(-18.500000,-12)"><rect id="exwrdyihgbfc5" width="8.046584" height="21.946684" rx="0" ry="0" transform="matrix(1 0 0 1 16.49835400000001 4.99999999999999)" fill="rgb(255,255,255)" stroke="none" stroke-width="1"/><path id="exwrdyihgbfc6" d="M23,0L14,0C13.447715,0,13,0.447715,13,1L13,23C13,23.552285,13.447715,24,14,24L23,24C23.552285,24,24,23.552285,24,23L24,1C24,0.447715,23.552285,0,23,0ZM15,22L15,2L22,2L22,3.500000L20,3.500000C19.447715,3.500000,19,3.947715,19,4.500000C19,5.052285,19.447715,5.500000,20,5.500000L22,5.500000L22,6.500000L19,6.500000C18.447715,6.500000,18,6.947715,18,7.500000C18,8.052285,18.447715,8.500000,19,8.500000L22,8.500000L22,9.500000L20,9.500000C19.447715,9.500000,19,9.947715,19,10.500000C19,11.052285,19.447715,11.500000,20,11.500000L22,11.500000L22,12.500000L20,12.500000C19.447715,12.500000,19,12.947715,19,13.500000C19,14.052285,19.447715,14.500000,20,14.500000L22,14.500000L22,15.500000L19,15.500000C18.447715,15.500000,18,15.947715,18,16.500000C18,17.052285,18.447715,17.500000,19,17.500000L22,17.500000L22,18.500000L20,18.500000C19.447715,18.500000,19,18.947715,19,19.500000C19,20.052285,19.447715,20.500000,20,20.500000L22,20.500000L22,22Z" transform="matrix(1 0 0 1 2 4)" fill="rgb(112,112,112)" stroke="none" stroke-width="1"/></g></g><g id="exwrdyihgbfc7_to" transform="translate(5.500000,11.996966)"><g id="exwrdyihgbfc7" transform="translate(-5.500000,-11.996966)"><path id="exwrdyihgbfc8" d="M11,22L11,6C11,5.650000,11,4.940000,7,0.570000C6.587203,0.162861,6.018039,-0.045102,5.440000,0C4.873152,-0.028705,4.316256,0.156928,3.880000,0.520000L3.770000,0.630000C2.360000,2.200000,0,5,0,6L0,22C0,23.104569,0.895431,24,2,24L9,24C10.104569,24,11,23.104569,11,22ZM5.190000,2C5.238295,1.981534,5.291705,1.981534,5.340000,2L5.590000,2C6.792716,3.256083,7.908623,4.592499,8.930000,6L2.060000,6C3.005085,4.592624,4.051172,3.255772,5.190000,2ZM2,22L2,8L9,8L9,22Z" transform="matrix(1 0 0 1 2 4)" fill="rgb(112,112,112)" stroke="none" stroke-width="1"/><path id="exwrdyihgbfc9" d="M4,10C3.447715,10,3,10.447715,3,11L3,19C3,19.552285,3.447715,20,4,20C4.552285,20,5,19.552285,5,19L5,11C5,10.447715,4.552285,10,4,10Z" transform="matrix(1 0 0 1 2 4)" fill="rgb(1,159,222)" stroke="none" stroke-width="1"/></g></g></svg>