<svg id="efpydz6wqk4t1" xmlns="http://www.w3.org/2000/svg" xmlns:xlink="http://www.w3.org/1999/xlink" viewBox="0 0 28 28" shape-rendering="geometricPrecision" text-rendering="geometricPrecision"><style><![CDATA[#efpydz6wqk4t1{pointer-events: all}#efpydz6wqk4t1:hover #efpydz6wqk4t4_to {animation: efpydz6wqk4t4_to__to 1500ms linear infinite normal forwards}@keyframes efpydz6wqk4t4_to__to { 0% {transform: translate(2px,16.001961px);animation-timing-function: cubic-bezier(0.455000,0.030000,0.515000,0.955000)} 26.666667% {transform: translate(2px,17.001961px);animation-timing-function: cubic-bezier(0.455000,0.030000,0.515000,0.955000)} 73.333333% {transform: translate(2px,17.001961px);animation-timing-function: cubic-bezier(0.455000,0.030000,0.515000,0.955000)} 100% {transform: translate(2px,16.001961px)} }#efpydz6wqk4t1:hover #efpydz6wqk4t4_tr {animation: efpydz6wqk4t4_tr__tr 1500ms linear infinite normal forwards}@keyframes efpydz6wqk4t4_tr__tr { 0% {transform: rotate(0deg);animation-timing-function: cubic-bezier(0.455000,0.030000,0.515000,0.955000)} 26.666667% {transform: rotate(-10deg)} 73.333333% {transform: rotate(-10deg)} 100% {transform: rotate(0deg)} }#efpydz6wqk4t1:hover #efpydz6wqk4t7_ts {animation: efpydz6wqk4t7_ts__ts 1500ms linear infinite normal forwards}@keyframes efpydz6wqk4t7_ts__ts { 0% {transform: translate(10.123569px,8.231822px) scale(1,1)} 20% {transform: translate(10.123569px,8.231822px) scale(0,0)} 80% {transform: translate(10.123569px,8.231822px) scale(0,0)} 100% {transform: translate(10.123569px,8.231822px) scale(1,1)} }#efpydz6wqk4t1:hover #efpydz6wqk4t8_ts {animation: efpydz6wqk4t8_ts__ts 1500ms linear infinite normal forwards}@keyframes efpydz6wqk4t8_ts__ts { 0% {transform: translate(10.123552px,8.214955px) scale(0,0)} 20% {transform: translate(10.123552px,8.214955px) scale(0,0)} 40% {transform: translate(10.123552px,8.214955px) scale(1,1)} 66.666667% {transform: translate(10.123552px,8.214955px) scale(1,1)} 86.666667% {transform: translate(10.123552px,8.214955px) scale(0,0)} 100% {transform: translate(10.123552px,8.214955px) scale(0,0)} }#efpydz6wqk4t1:hover #efpydz6wqk4t9_to {animation: efpydz6wqk4t9_to__to 1500ms linear infinite normal forwards}@keyframes efpydz6wqk4t9_to__to { 0% {transform: translate(26px,26px);animation-timing-function: cubic-bezier(0.455000,0.030000,0.515000,0.955000)} 26.666667% {transform: translate(26px,27px);animation-timing-function: cubic-bezier(0.455000,0.030000,0.515000,0.955000)} 73.333333% {transform: translate(26px,27px);animation-timing-function: cubic-bezier(0.455000,0.030000,0.515000,0.955000)} 100% {transform: translate(26px,26px)} }#efpydz6wqk4t1:hover #efpydz6wqk4t9_tr {animation: efpydz6wqk4t9_tr__tr 1500ms linear infinite normal forwards}@keyframes efpydz6wqk4t9_tr__tr { 0% {transform: rotate(0deg);animation-timing-function: cubic-bezier(0.455000,0.030000,0.515000,0.955000)} 26.666667% {transform: rotate(10deg)} 73.333333% {transform: rotate(10deg)} 100% {transform: rotate(0deg)} }#efpydz6wqk4t1:hover #efpydz6wqk4t12_ts {animation: efpydz6wqk4t12_ts__ts 1500ms linear infinite normal forwards}@keyframes efpydz6wqk4t12_ts__ts { 0% {transform: translate(18.430461px,19.005048px) scale(1,1)} 13.333333% {transform: translate(18.430461px,19.005048px) scale(1,1)} 33.333333% {transform: translate(18.430461px,19.005048px) scale(0,0)} 80% {transform: translate(18.430461px,19.005048px) scale(0,0)} 100% {transform: translate(18.430461px,19.005048px) scale(1,1)} }#efpydz6wqk4t1:hover #efpydz6wqk4t13_ts {animation: efpydz6wqk4t13_ts__ts 1500ms linear infinite normal forwards}@keyframes efpydz6wqk4t13_ts__ts { 0% {transform: translate(17.609937px,18.994277px) scale(0,0)} 33.333333% {transform: translate(17.609937px,18.994277px) scale(0,0)} 53.333333% {transform: translate(17.609937px,18.994277px) scale(1,1)} 66.666667% {transform: translate(17.609937px,18.994277px) scale(1,1)} 86.666667% {transform: translate(17.609937px,18.994277px) scale(0,0)} 100% {transform: translate(17.609937px,18.994277px) scale(0,0)} }]]></style><g id="efpydz6wqk4t2"><rect id="efpydz6wqk4t3" width="28" height="28" rx="0" ry="0" fill="none" stroke="none" stroke-width="1"/><g id="efpydz6wqk4t4_to" transform="translate(2,16.001961)"><g id="efpydz6wqk4t4_tr" transform="rotate(0)"><g id="efpydz6wqk4t4" transform="translate(-2,-16.001961)"><path id="efpydz6wqk4t5" d="M3.270000,3.570000L3.270000,14.360000L16.110000,14.360000L16.330000,9.670000L18.610000,7.850000L16.330000,6.140000L16.330000,3.570000Z" fill="rgb(255,255,255)" stroke="none" stroke-width="1"/><path id="efpydz6wqk4t6" d="M17.710000,12L17.710000,10.380000L19.900000,8.660000C20.113728,8.502366,20.255975,8.266189,20.295370,8.003555C20.334765,7.740922,20.268072,7.473405,20.110000,7.260000C20.028137,7.158119,19.930180,7.070296,19.820000,7L17.710000,5.680000L17.710000,4.680000C17.693560,3.195037,16.485054,1.999909,15,2L4.710000,2C3.217843,2.010892,2.010892,3.217843,2,4.710000L2,13.290000C2.010892,14.782157,3.217843,15.989108,4.710000,16L10.290000,16C16.600000,16,17.710000,16.220000,17.710000,12ZM4,13.280000L4,4.710000C4,4.317878,4.317878,4,4.710000,4L15,4C15.188304,4,15.368895,4.074803,15.502046,4.207954C15.635197,4.341105,15.710000,4.521696,15.710000,4.710000L15.710000,4.710000L15.710000,6.220000C15.707144,6.563540,15.880837,6.884494,16.170000,7.070000L17.560000,8L16.090000,9.100000C15.848508,9.290822,15.708342,9.582220,15.710000,9.890000L15.710000,12C15.710000,14.430000,14.890000,14,10.400000,14L4.710000,14C4.521696,14,4.341105,13.925197,4.207954,13.792046C4.074803,13.658895,4,13.478304,4,13.290000Z" fill="rgb(112,112,112)" stroke="none" stroke-width="1"/><g id="efpydz6wqk4t7_ts" transform="translate(10.123569,8.231822) scale(1,1)"><path id="efpydz6wqk4t7" d="M10.430000,11.660000C10.561935,11.659898,10.692035,11.629085,10.810000,11.570000C12.407578,10.731042,13.319364,8.991085,13.100000,7.200000C13.049317,6.797617,12.705550,6.496821,12.300000,6.500000L9.640000,6.500000L10,6.110000C10.241871,5.814156,10.240743,5.388560,9.997307,5.094002C9.753871,4.799445,9.336104,4.718178,9,4.900000C8.929857,4.957924,8.872050,5.029334,8.830000,5.110000L7.300000,6.780000C7.101848,7.018135,7.058995,7.349268,7.190000,7.630000C7.317719,7.918322,7.604671,8.103072,7.920000,8.100000L11.500000,8.100000C11.400087,8.822571,11.019188,9.476567,10.440000,9.920000L9.780000,9.500000C9.406483,9.263796,8.912573,9.370588,8.670000,9.740000C8.441321,10.117033,8.551766,10.607407,8.920000,10.850000L8.920000,10.850000L10,11.540000C10.129477,11.618998,10.278327,11.660538,10.430000,11.660000Z" transform="translate(-10.123569,-8.231822)" fill="rgb(1,159,222)" stroke="none" stroke-width="1"/></g><g id="efpydz6wqk4t8_ts" transform="translate(10.123552,8.214955) scale(0,0)"><path id="efpydz6wqk4t8" d="M15.520000,22.380000C15.626844,22.427937,15.742909,22.451833,15.860000,22.450000C16.169292,22.451677,16.452540,22.277072,16.590000,22L17.070000,21L19.780000,21L20.300000,22C20.511773,22.364403,20.969944,22.502002,21.347445,22.314571C21.724946,22.127141,21.892282,21.678975,21.730000,21.290000L19.080000,16C18.939666,15.731629,18.662838,15.562456,18.360000,15.560000L18.360000,15.560000C18.057086,15.572163,17.784899,15.748509,17.650000,16.020000L15.150000,21.310000C15.057020,21.500932,15.043772,21.720999,15.113175,21.921706C15.182579,22.122413,15.328938,22.287289,15.520000,22.380000ZM18.380000,18.190000L19,19.370000L17.830000,19.370000Z" transform="translate(-18.430461,-19.005048)" fill="rgb(1,159,222)" stroke="none" stroke-width="1"/></g></g></g></g><g id="efpydz6wqk4t9_to" transform="translate(26,26)"><g id="efpydz6wqk4t9_tr" transform="rotate(0)"><g id="efpydz6wqk4t9" transform="translate(-26,-26)"><path id="efpydz6wqk4t10" d="M12.090000,23.930000L11.470000,21.680000L9.470000,20L11.790000,17.680000L11.790000,13.130000L24.570000,13.130000L24.570000,24.320000Z" fill="rgb(255,255,255)" stroke="none" stroke-width="1"/><path id="efpydz6wqk4t11" d="M26,14.710000L26,14.710000C25.989108,13.217843,24.782157,12.010892,23.290000,12L17.710000,12C14.360000,12,12.830000,11.900000,11.830000,12.290000C10.850804,12.660416,10.226660,13.625002,10.290000,14.670000L10.290000,17.670000L8.100000,19.340000C7.886272,19.497634,7.744025,19.733811,7.704630,19.996445C7.665235,20.259078,7.731928,20.526595,7.890000,20.740000C7.971863,20.841881,8.069820,20.929704,8.180000,21L10.290000,22.350000L10.290000,23.350000C10.327859,24.820932,11.528589,25.995078,13,26L23.300000,26C24.790507,25.989050,25.994560,24.780538,26,23.290000L26,23.290000ZM10.440000,20L11.910000,18.850000C12.148737,18.661353,12.288597,18.374272,12.290000,18.070000L12.290000,14.670000C12.311240,14.293580,12.622982,13.999401,13,14L23.290000,14C23.478304,14,23.658895,14.074803,23.792046,14.207954C23.925197,14.341105,24,14.521696,24,14.710000L24,23.290000C24,23.478304,23.925197,23.658895,23.792046,23.792046C23.658895,23.925197,23.478304,24,23.290000,24L13,24C12.811696,24,12.631105,23.925197,12.497954,23.792046C12.364803,23.658895,12.290000,23.478304,12.290000,23.290000L12.290000,21.770000C12.289434,21.430008,12.116160,21.113596,11.830000,20.930000Z" fill="rgb(112,112,112)" stroke="none" stroke-width="1"/><g id="efpydz6wqk4t12_ts" transform="translate(18.430461,19.005048) scale(1,1)"><path id="efpydz6wqk4t12" d="M15.520000,22.380000C15.626844,22.427937,15.742909,22.451833,15.860000,22.450000C16.169292,22.451677,16.452540,22.277072,16.590000,22L17.070000,21L19.780000,21L20.300000,22C20.511773,22.364403,20.969944,22.502002,21.347445,22.314571C21.724946,22.127141,21.892282,21.678975,21.730000,21.290000L19.080000,16C18.939666,15.731629,18.662838,15.562456,18.360000,15.560000L18.360000,15.560000C18.057086,15.572163,17.784899,15.748509,17.650000,16.020000L15.150000,21.310000C15.057020,21.500932,15.043772,21.720999,15.113175,21.921706C15.182579,22.122413,15.328938,22.287289,15.520000,22.380000ZM18.380000,18.190000L19,19.370000L17.830000,19.370000Z" transform="translate(-18.430461,-19.005048)" fill="rgb(1,159,222)" stroke="none" stroke-width="1"/></g><g id="efpydz6wqk4t13_ts" transform="translate(17.609937,18.994277) scale(0,0)"><path id="efpydz6wqk4t13" d="M10.430000,11.660000C10.561935,11.659898,10.692035,11.629085,10.810000,11.570000C12.407578,10.731042,13.319364,8.991085,13.100000,7.200000C13.049317,6.797617,12.705550,6.496821,12.300000,6.500000L9.640000,6.500000L10,6.110000C10.241871,5.814156,10.240743,5.388560,9.997307,5.094002C9.753871,4.799445,9.336104,4.718178,9,4.900000C8.929857,4.957924,8.872050,5.029334,8.830000,5.110000L7.300000,6.780000C7.101848,7.018135,7.058995,7.349268,7.190000,7.630000C7.317719,7.918322,7.604671,8.103072,7.920000,8.100000L11.500000,8.100000C11.400087,8.822571,11.019188,9.476567,10.440000,9.920000L9.780000,9.500000C9.406483,9.263796,8.912573,9.370588,8.670000,9.740000C8.441321,10.117033,8.551766,10.607407,8.920000,10.850000L8.920000,10.850000L10,11.540000C10.129477,11.618998,10.278327,11.660538,10.430000,11.660000Z" transform="translate(-10.123569,-8.231822)" fill="rgb(1,159,222)" stroke="none" stroke-width="1"/></g></g></g></g></g></svg>