<svg id="elokkb58rws1" xmlns="http://www.w3.org/2000/svg" xmlns:xlink="http://www.w3.org/1999/xlink" viewBox="0 0 26 24" shape-rendering="geometricPrecision" text-rendering="geometricPrecision"><style><![CDATA[#elokkb58rws1{pointer-events: all}#elokkb58rws1:hover #elokkb58rws2_ts {animation: elokkb58rws2_ts__ts 1000ms linear infinite normal forwards}@keyframes elokkb58rws2_ts__ts { 0% {transform: translate(13px,23.968014px) scale(1,0.961775)} 100% {transform: translate(13px,23.968014px) scale(1,0.961775)} }#elokkb58rws1:hover #elokkb58rws5_to {animation: elokkb58rws5_to__to 1000ms linear infinite normal forwards}@keyframes elokkb58rws5_to__to { 0% {transform: translate(11.961312px,18px)} 30% {transform: translate(11.961312px,18px)} 70% {transform: translate(11.961312px,17.804729px)} 100% {transform: translate(11.961312px,18px)} }#elokkb58rws1:hover #elokkb58rws5_tr {animation: elokkb58rws5_tr__tr 1000ms linear infinite normal forwards}@keyframes elokkb58rws5_tr__tr { 0% {transform: rotate(0deg);animation-timing-function: cubic-bezier(0.420000,0,0.580000,1)} 30% {transform: rotate(-7deg)} 70% {transform: rotate(7deg)} 100% {transform: rotate(0deg)} }]]></style><g id="elokkb58rws2_ts" transform="translate(13,23.968014) scale(1,0.961775)"><g id="elokkb58rws2" transform="translate(-13,-23.968014)"><path id="elokkb58rws3" d="M10,17L14,17C15.656854,17,17,18.343146,17,20L17,24L7,24L7,20C7,18.343146,8.343146,17,10,17Z" transform="matrix(1 0 0 1 1 0)" fill="none" stroke="none" stroke-width="1"/><path id="elokkb58rws4" d="M10,18L14,18C15.104569,18,16,18.895431,16,20L16,22C16,22.552285,15.552285,23,15,23L9,23C8.447715,23,8,22.552285,8,22L8,20C8,18.895431,8.895431,18,10,18Z" transform="matrix(1 0 0 1 1 0)" fill="none" stroke="rgb(112,112,112)" stroke-width="2"/></g></g><g id="elokkb58rws5_to" transform="translate(11.961312,18)"><g id="elokkb58rws5_tr" transform="rotate(0)"><g id="elokkb58rws5" transform="translate(-11.961312,-18)"><rect id="elokkb58rws6" width="24" height="24" rx="0" ry="0" transform="matrix(1 0 0 1 0.99026806874157 0.13917310096006)" fill="none" stroke="none" stroke-width="1"/><path id="elokkb58rws7" d="M23,8L21.370000,8C20.631205,3.398473,16.660458,0.014394,12,0.014394C7.339542,0.014394,3.368795,3.398473,2.630000,8L1,8C0.447715,8,0,8.447715,0,9C0,9.552285,0.447715,10,1,10L2.530000,10C2.762646,15.061052,6.933604,19.044684,12,19.044684C17.066396,19.044684,21.237354,15.061052,21.470000,10L23,10C23.552285,10,24,9.552285,24,9C24,8.447715,23.552285,8,23,8ZM12,2C14.361052,1.998424,16.584630,3.110213,18,5L6,5C7.415370,3.110213,9.638948,1.998424,12,2ZM4.940000,7L19.060000,7C19.180942,7.325809,19.277868,7.660036,19.350000,8L4.650000,8C4.722132,7.660036,4.819058,7.325809,4.940000,7ZM12,17C8.055133,16.997917,4.788075,13.936417,4.530000,10L19.470000,10C19.211925,13.936417,15.944867,16.997917,12,17Z" transform="matrix(1 0 0 1 0.99026806874157 0.13917310096006)" fill="rgb(112,112,112)" stroke="none" stroke-width="1"/><path id="elokkb58rws8" d="M9,13C9.552285,13,10,12.552285,10,12C10,11.447715,9.552285,11,9,11C8.447715,11,8,11.447715,8,12C8,12.552285,8.447715,13,9,13ZM9,11.500000L9,12L9,12Z" transform="matrix(1 0 0 1 0.99026806874157 0.13917310096006)" fill="rgb(1,159,223)" stroke="none" stroke-width="1"/><path id="elokkb58rws9" d="M15,13C15.552285,13,16,12.552285,16,12C16,11.447715,15.552285,11,15,11C14.447715,11,14,11.447715,14,12C14,12.552285,14.447715,13,15,13ZM15,11.500000L15,12L15,12Z" transform="matrix(1 0 0 1 0.99026806874157 0.13917310096006)" fill="rgb(1,159,223)" stroke="none" stroke-width="1"/><path id="elokkb58rws10" d="M10.390000,15.260000C10.937571,15.482040,11.519562,15.607236,12.110000,15.630000L12.110000,15.630000C12.682009,15.591747,13.238550,15.427857,13.740000,15.150000L13.870000,15.090000C14.155857,14.798367,14.155857,14.331633,13.870000,14.040000C13.671535,13.840311,13.376948,13.770541,13.110000,13.860000C12.812368,14.000753,12.489053,14.079029,12.160000,14.090000C11.737677,14.087127,11.319936,14.002220,10.930000,13.840000L10.810000,13.840000C10.420639,13.712975,10.002025,13.925639,9.875000,14.315000C9.747975,14.704361,9.960639,15.122975,10.350000,15.250000Z" transform="matrix(1 0 0 1 0.99026806874157 0.13917310096006)" fill="rgb(112,112,112)" stroke="none" stroke-width="1"/></g></g></g></svg>