<svg id="ewi3cpb6fzgl1" xmlns="http://www.w3.org/2000/svg" xmlns:xlink="http://www.w3.org/1999/xlink" viewBox="0 0 28 28" shape-rendering="geometricPrecision" text-rendering="geometricPrecision"><style><![CDATA[#ewi3cpb6fzgl1{pointer-events: all}#ewi3cpb6fzgl1:hover #ewi3cpb6fzgl5_ts {animation: ewi3cpb6fzgl5_ts__ts 1200ms linear infinite normal forwards}@keyframes ewi3cpb6fzgl5_ts__ts { 0% {transform: translate(14.419700px,9.737644px) scale(0,0);animation-timing-function: cubic-bezier(0.420000,0,0.580000,1)} 25% {transform: translate(14.419700px,9.737644px) scale(1,1);animation-timing-function: cubic-bezier(0.420000,0,0.580000,1)} 75% {transform: translate(14.419700px,9.737644px) scale(1,1);animation-timing-function: cubic-bezier(0.420000,0,0.580000,1)} 100% {transform: translate(14.419700px,9.737644px) scale(0,0)} }#ewi3cpb6fzgl1:hover #ewi3cpb6fzgl6_to {animation: ewi3cpb6fzgl6_to__to 1200ms linear infinite normal forwards}@keyframes ewi3cpb6fzgl6_to__to { 0% {transform: translate(9.420087px,9.742101px)} 16.666667% {transform: translate(9.420087px,9.742101px);animation-timing-function: cubic-bezier(0.445000,0.050000,0.550000,0.950000)} 33.333333% {transform: translate(7.420087px,9.742101px);animation-timing-function: cubic-bezier(0.445000,0.050000,0.550000,0.950000)} 50% {transform: translate(9.420087px,9.742101px)} 100% {transform: translate(9.420087px,9.742101px)} }#ewi3cpb6fzgl1:hover #ewi3cpb6fzgl8_to {animation: ewi3cpb6fzgl8_to__to 1200ms linear infinite normal forwards}@keyframes ewi3cpb6fzgl8_to__to { 0% {transform: translate(19.419613px,9.772100px)} 41.666667% {transform: translate(19.419613px,9.772100px);animation-timing-function: cubic-bezier(0.445000,0.050000,0.550000,0.950000)} 58.333333% {transform: translate(21.419613px,9.772100px);animation-timing-function: cubic-bezier(0.445000,0.050000,0.550000,0.950000)} 75% {transform: translate(19.419613px,9.772100px)} 100% {transform: translate(19.419613px,9.772100px)} }]]></style><g id="ewi3cpb6fzgl2"><g id="ewi3cpb6fzgl3"><rect id="ewi3cpb6fzgl4" width="28" height="28" rx="0" ry="0" fill="none" stroke="none" stroke-width="1"/></g><g id="ewi3cpb6fzgl5_ts" transform="translate(14.419700,9.737644) scale(0,0)"><g id="ewi3cpb6fzgl5" transform="translate(-14.419700,-9.737644)"><g id="ewi3cpb6fzgl6_to" transform="translate(9.420087,9.742101)"><g id="ewi3cpb6fzgl6" transform="translate(-9.420087,-9.742101)"><path id="ewi3cpb6fzgl7" d="M10.290000,12.480000C10.022754,12.478891,9.767071,12.370856,9.580000,12.180000L7.840000,10.450000C7.657266,10.258366,7.553683,10.004767,7.550000,9.740000C7.540281,9.463862,7.645250,9.196009,7.840000,9L9.580000,7.300000C9.767767,7.110687,10.023362,7.004202,10.290000,7.004202C10.556638,7.004202,10.812233,7.110687,11,7.300000C11.387724,7.690037,11.387724,8.319963,11,8.710000L10,9.710000L11,10.710000C11.387724,11.100037,11.387724,11.729963,11,12.120000C10.823354,12.333088,10.566289,12.463430,10.290000,12.480000Z" fill="rgb(112,112,112)" stroke="none" stroke-width="1"/></g></g><g id="ewi3cpb6fzgl8_to" transform="translate(19.419613,9.772100)"><g id="ewi3cpb6fzgl8" transform="translate(-19.419613,-9.772100)"><path id="ewi3cpb6fzgl9" d="M18.550000,12.480000C18.282754,12.478891,18.027071,12.370856,17.840000,12.180000C17.452276,11.789963,17.452276,11.160037,17.840000,10.770000L18.840000,9.770000L17.840000,8.770000C17.452276,8.379963,17.452276,7.750037,17.840000,7.360000C18.027767,7.170687,18.283362,7.064202,18.550000,7.064202C18.816638,7.064202,19.072233,7.170687,19.260000,7.360000L21,9C21.187187,9.188719,21.291537,9.444197,21.290000,9.710000C21.286317,9.974767,21.182734,10.228366,21,10.420000L19.260000,12.150000C19.078022,12.351927,18.821682,12.471071,18.550000,12.480000Z" fill="rgb(112,112,112)" stroke="none" stroke-width="1"/></g></g><g id="ewi3cpb6fzgl10"><path id="ewi3cpb6fzgl11" d="M13.180000,12.460000C12.822025,12.461424,12.490594,12.271388,12.310990,11.961726C12.131386,11.652064,12.131008,11.270017,12.310000,10.960000L14.310000,7.500000C14.441951,7.268560,14.660799,7.099340,14.917996,7.029878C15.175194,6.960416,15.449476,6.996455,15.680000,7.130000C16.144181,7.421737,16.286917,8.032824,16,8.500000L14,11.960000C13.829827,12.255606,13.520718,12.444087,13.180000,12.460000Z" fill="rgb(112,112,112)" stroke="none" stroke-width="1"/></g></g></g><g id="ewi3cpb6fzgl12"><g id="ewi3cpb6fzgl13"><g id="ewi3cpb6fzgl14"><rect id="ewi3cpb6fzgl15" width="24" height="24" rx="0" ry="0" transform="matrix(1 0 0 1 2 2)" fill="none" stroke="none" stroke-width="1"/></g><g id="ewi3cpb6fzgl16"><path id="ewi3cpb6fzgl17" d="M24,3L4,3C2.895431,3,2,3.895431,2,5L2,19C2,20.104569,2.895431,21,4,21L10,21L10,23L8,23C7.447715,23,7,23.447715,7,24C7,24.552285,7.447715,25,8,25L20,25C20.552285,25,21,24.552285,21,24C21,23.447715,20.552285,23,20,23L18,23L18,21L24,21C25.104569,21,26,20.104569,26,19L26,5C26,3.895431,25.104569,3,24,3ZM4,5L24,5L24,14L4,14ZM16,23L12,23L12,21L16,21ZM24,19L4,19L4,16L24,16Z" fill="rgb(112,112,112)" stroke="none" stroke-width="1"/></g><g id="ewi3cpb6fzgl18"><path id="ewi3cpb6fzgl19" d="M14,18.500000C14.552285,18.500000,15,18.052285,15,17.500000C15,16.947715,14.552285,16.500000,14,16.500000C13.447715,16.500000,13,16.947715,13,17.500000C13,18.052285,13.447715,18.500000,14,18.500000ZM14,17L14,17.500000L14,17.500000Z" fill="rgb(1,159,222)" stroke="none" stroke-width="1"/></g></g></g></g></svg>