<svg id="e1mBLiAYSK41" xmlns="http://www.w3.org/2000/svg" xmlns:xlink="http://www.w3.org/1999/xlink" viewBox="0 0 110 100" shape-rendering="geometricPrecision" text-rendering="geometricPrecision"><style><![CDATA[#e1mBLiAYSK43_tr {animation: e1mBLiAYSK43_tr__tr 3500ms linear infinite normal forwards}@keyframes e1mBLiAYSK43_tr__tr { 0% {transform: translate(68.933861px,82.101492px) rotate(0deg)} 2.857143% {transform: translate(68.933861px,82.101492px) rotate(0deg);animation-timing-function: cubic-bezier(0.42,0,0.58,1)} 17.142857% {transform: translate(68.933861px,82.101492px) rotate(5.5deg)} 80% {transform: translate(68.933861px,82.101492px) rotate(5.5deg)} 97.142857% {transform: translate(68.933861px,82.101492px) rotate(0deg)} 100% {transform: translate(68.933861px,82.101492px) rotate(0deg)}} #e1mBLiAYSK461_tr {animation: e1mBLiAYSK461_tr__tr 3500ms linear infinite normal forwards}@keyframes e1mBLiAYSK461_tr__tr { 0% {transform: translate(68.933861px,77.435669px) rotate(0deg);animation-timing-function: cubic-bezier(0.42,0,0.58,1)} 17.142857% {transform: translate(68.933861px,77.435669px) rotate(6deg)} 77.142857% {transform: translate(68.933861px,77.435669px) rotate(6deg)} 97.142857% {transform: translate(68.933861px,77.435669px) rotate(0deg)} 100% {transform: translate(68.933861px,77.435669px) rotate(0deg)}} #e1mBLiAYSK4177_to {animation: e1mBLiAYSK4177_to__to 3500ms linear infinite normal forwards}@keyframes e1mBLiAYSK4177_to__to { 0% {transform: translate(27.09px,68.74218px)} 5.714286% {transform: translate(27.09px,58.74218px)} 17.142857% {transform: translate(27.09px,68.74218px)} 22.857143% {transform: translate(27.09px,62.74218px)} 34.285714% {transform: translate(27.09px,68.74218px)} 100% {transform: translate(27.09px,68.74218px)}} #e1mBLiAYSK4177_tr {animation: e1mBLiAYSK4177_tr__tr 3500ms linear infinite normal forwards}@keyframes e1mBLiAYSK4177_tr__tr { 0% {transform: rotate(0deg)} 45.714286% {transform: rotate(0deg)} 54.285714% {transform: rotate(-4.589751deg)} 65.714286% {transform: rotate(4.856441deg)} 77.142857% {transform: rotate(-4.589751deg)} 85.714286% {transform: rotate(0deg)} 100% {transform: rotate(0deg)}} #e1mBLiAYSK4225_tr {animation: e1mBLiAYSK4225_tr__tr 3500ms linear infinite normal forwards}@keyframes e1mBLiAYSK4225_tr__tr { 0% {transform: translate(11.042868px,44.220829px) rotate(0deg)} 5.714286% {transform: translate(11.042868px,44.220829px) rotate(-29.460809deg)} 17.142857% {transform: translate(11.042868px,44.220829px) rotate(0deg)} 22.857143% {transform: translate(11.042868px,44.220829px) rotate(-29.460809deg)} 34.285714% {transform: translate(11.042868px,44.220829px) rotate(0deg)} 45.714286% {transform: translate(11.042868px,44.220829px) rotate(-29.460809deg)} 85.714286% {transform: translate(11.042868px,44.220829px) rotate(-29.460809deg)} 97.142857% {transform: translate(11.042868px,44.220829px) rotate(0deg)} 100% {transform: translate(11.042868px,44.220829px) rotate(0deg)}} #e1mBLiAYSK4226_tr {animation: e1mBLiAYSK4226_tr__tr 3500ms linear infinite normal forwards}@keyframes e1mBLiAYSK4226_tr__tr { 0% {transform: translate(43.397457px,44.220829px) rotate(0deg)} 5.714286% {transform: translate(43.397457px,44.220829px) rotate(24.363164deg)} 17.142857% {transform: translate(43.397457px,44.220829px) rotate(0deg)} 22.857143% {transform: translate(43.397457px,44.220829px) rotate(24.363164deg)} 34.285714% {transform: translate(43.397457px,44.220829px) rotate(0deg)} 45.714286% {transform: translate(43.397457px,44.220829px) rotate(24.363164deg)} 85.714286% {transform: translate(43.397457px,44.220829px) rotate(24.363164deg)} 97.142857% {transform: translate(43.397457px,44.220829px) rotate(0deg)} 100% {transform: translate(43.397457px,44.220829px) rotate(0deg)}} #e1mBLiAYSK4227_to {animation: e1mBLiAYSK4227_to__to 3500ms linear infinite normal forwards}@keyframes e1mBLiAYSK4227_to__to { 0% {transform: translate(27.307831px,49.167482px)} 5.714286% {transform: translate(27.307831px,45.167482px)} 17.142857% {transform: translate(27.307831px,49.167482px)} 22.857143% {transform: translate(27.307831px,45.167482px)} 34.285714% {transform: translate(27.307831px,49.167482px)} 45.714286% {transform: translate(27.307831px,45.167482px)} 85.714286% {transform: translate(27.307831px,45.167482px)} 97.142857% {transform: translate(27.307831px,49.167482px)} 100% {transform: translate(27.307831px,49.167482px)}} #e1mBLiAYSK4237_to {animation: e1mBLiAYSK4237_to__to 3500ms linear infinite normal forwards}@keyframes e1mBLiAYSK4237_to__to { 0% {transform: translate(37.413941px,57.19px)} 5.714286% {transform: translate(37.413941px,54.19px)} 17.142857% {transform: translate(37.413941px,57.19px)} 22.857143% {transform: translate(37.413941px,54.19px)} 34.285714% {transform: translate(37.413941px,57.19px)} 45.714286% {transform: translate(37.413941px,54.19px)} 85.714286% {transform: translate(37.413941px,54.19px)} 97.142857% {transform: translate(37.413941px,57.19px)} 100% {transform: translate(37.413941px,57.19px)}} #e1mBLiAYSK4240_to {animation: e1mBLiAYSK4240_to__to 3500ms linear infinite normal forwards}@keyframes e1mBLiAYSK4240_to__to { 0% {transform: translate(18.07px,57.19px)} 5.714286% {transform: translate(18.07px,54.19px)} 17.142857% {transform: translate(18.07px,57.19px)} 22.857143% {transform: translate(18.07px,54.19px)} 34.285714% {transform: translate(18.07px,57.19px)} 45.714286% {transform: translate(18.07px,54.19px)} 85.714286% {transform: translate(18.07px,54.19px)} 97.142857% {transform: translate(18.07px,57.19px)} 100% {transform: translate(18.07px,57.19px)}}]]></style><defs><linearGradient id="e1mBLiAYSK4121-fill" x1="-222.507" y1="826.8064" x2="-222.507" y2="826.4198" spreadMethod="pad" gradientUnits="userSpaceOnUse" gradientTransform="matrix(1 0 0 1 0 0)"><stop id="e1mBLiAYSK4121-fill-0" offset="0%" stop-color="rgb(154,225,211)"/><stop id="e1mBLiAYSK4121-fill-1" offset="100%" stop-color="rgb(128,209,193)"/></linearGradient><linearGradient id="e1mBLiAYSK4122-fill" x1="66.312" y1="719.7182" x2="66.312" y2="719.9115" spreadMethod="pad" gradientUnits="userSpaceOnUse" gradientTransform="matrix(1 0 0 1 0 0)"><stop id="e1mBLiAYSK4122-fill-0" offset="0%" stop-color="rgba(11,121,157,0)"/><stop id="e1mBLiAYSK4122-fill-1" offset="17%" stop-color="rgba(17,125,158,0.17)"/><stop id="e1mBLiAYSK4122-fill-2" offset="41%" stop-color="rgba(35,137,160,0.42)"/><stop id="e1mBLiAYSK4122-fill-3" offset="69%" stop-color="rgba(64,156,163,0.69)"/><stop id="e1mBLiAYSK4122-fill-4" offset="100%" stop-color="rgb(105,132,183)"/><stop id="e1mBLiAYSK4122-fill-5" offset="100%" stop-color="rgb(105,183,168)"/></linearGradient><linearGradient id="e1mBLiAYSK4123-fill" x1="69.6376" y1="553.9652" x2="69.6376" y2="553.373" spreadMethod="pad" gradientUnits="userSpaceOnUse" gradientTransform="matrix(1 0 0 1 0 0)"><stop id="e1mBLiAYSK4123-fill-0" offset="0%" stop-color="rgb(237,245,255)"/><stop id="e1mBLiAYSK4123-fill-1" offset="100%" stop-color="rgb(213,232,254)"/></linearGradient><linearGradient id="e1mBLiAYSK4124-fill" x1="68.3963" y1="616.4573" x2="68.3963" y2="615.7358" spreadMethod="pad" gradientUnits="userSpaceOnUse" gradientTransform="matrix(1 0 0 1 0 0)"><stop id="e1mBLiAYSK4124-fill-0" offset="0%" stop-color="rgba(11,121,157,0)"/><stop id="e1mBLiAYSK4124-fill-1" offset="17%" stop-color="rgba(17,125,158,0.17)"/><stop id="e1mBLiAYSK4124-fill-2" offset="41%" stop-color="rgba(35,137,160,0.42)"/><stop id="e1mBLiAYSK4124-fill-3" offset="69%" stop-color="rgba(64,156,163,0.69)"/><stop id="e1mBLiAYSK4124-fill-4" offset="100%" stop-color="rgb(105,183,168)"/></linearGradient><linearGradient id="e1mBLiAYSK4125-fill" x1="68.3286" y1="703.8925" x2="68.3286" y2="704.4809" spreadMethod="pad" gradientUnits="userSpaceOnUse" gradientTransform="matrix(1 0 0 1 0 0)"><stop id="e1mBLiAYSK4125-fill-0" offset="0%" stop-color="rgba(11,121,157,0)"/><stop id="e1mBLiAYSK4125-fill-1" offset="17%" stop-color="rgba(17,125,158,0.17)"/><stop id="e1mBLiAYSK4125-fill-2" offset="41%" stop-color="rgba(35,137,160,0.27)"/><stop id="e1mBLiAYSK4125-fill-3" offset="69%" stop-color="rgba(64,156,163,0.5)"/><stop id="e1mBLiAYSK4125-fill-4" offset="100%" stop-color="rgba(105,132,183,0.75)"/><stop id="e1mBLiAYSK4125-fill-5" offset="100%" stop-color="rgb(105,183,168)"/></linearGradient><linearGradient id="e1mBLiAYSK4126-fill" x1="68.3286" y1="685.1325" x2="68.3286" y2="685.66" spreadMethod="pad" gradientUnits="userSpaceOnUse" gradientTransform="matrix(1 0 0 1 0 0)"><stop id="e1mBLiAYSK4126-fill-0" offset="0%" stop-color="rgba(11,121,157,0)"/><stop id="e1mBLiAYSK4126-fill-1" offset="17%" stop-color="rgba(17,125,158,0.17)"/><stop id="e1mBLiAYSK4126-fill-2" offset="41%" stop-color="rgba(35,137,160,0.31)"/><stop id="e1mBLiAYSK4126-fill-3" offset="69%" stop-color="rgba(64,156,163,0.49)"/><stop id="e1mBLiAYSK4126-fill-4" offset="100%" stop-color="rgba(105,132,183,0.69)"/><stop id="e1mBLiAYSK4126-fill-5" offset="100%" stop-color="rgb(105,183,168)"/></linearGradient><linearGradient id="e1mBLiAYSK4127-fill" x1="68.42" y1="640.6015" x2="68.42" y2="641.146" spreadMethod="pad" gradientUnits="userSpaceOnUse" gradientTransform="matrix(1 0 0 1 0 0)"><stop id="e1mBLiAYSK4127-fill-0" offset="0%" stop-color="rgba(11,121,157,0)"/><stop id="e1mBLiAYSK4127-fill-1" offset="17%" stop-color="rgba(17,125,158,0.1)"/><stop id="e1mBLiAYSK4127-fill-2" offset="41%" stop-color="rgba(35,137,160,0.3)"/><stop id="e1mBLiAYSK4127-fill-3" offset="69%" stop-color="rgba(64,156,163,0.4)"/><stop id="e1mBLiAYSK4127-fill-4" offset="100%" stop-color="rgba(105,132,183,0.6)"/><stop id="e1mBLiAYSK4127-fill-5" offset="100%" stop-color="rgb(105,183,168)"/></linearGradient><linearGradient id="e1mBLiAYSK4225-fill" x1="-388.3856" y1="634.2" x2="-388.2888" y2="633.99" spreadMethod="pad" gradientUnits="userSpaceOnUse" gradientTransform="matrix(1 0 0 1 0 0)"><stop id="e1mBLiAYSK4225-fill-0" offset="0%" stop-color="rgb(237,245,255)"/><stop id="e1mBLiAYSK4225-fill-1" offset="100%" stop-color="rgb(213,232,254)"/></linearGradient><linearGradient id="e1mBLiAYSK4226-fill" x1="408.4905" y1="693" x2="408.5872" y2="693.21" spreadMethod="pad" gradientUnits="userSpaceOnUse" gradientTransform="matrix(1 0 0 1 0 0)"><stop id="e1mBLiAYSK4226-fill-0" offset="0%" stop-color="rgb(237,245,255)"/><stop id="e1mBLiAYSK4226-fill-1" offset="100%" stop-color="rgb(213,232,254)"/></linearGradient><linearGradient id="e1mBLiAYSK4230-fill" x1="-311.9605" y1="805.582" x2="-311.7522" y2="805.1536" spreadMethod="pad" gradientUnits="userSpaceOnUse" gradientTransform="matrix(1 0 0 1 0 0)"><stop id="e1mBLiAYSK4230-fill-0" offset="0%" stop-color="rgb(154,225,211)"/><stop id="e1mBLiAYSK4230-fill-1" offset="100%" stop-color="rgb(128,209,193)"/></linearGradient><linearGradient id="e1mBLiAYSK4231-fill" x1="28.8183" y1="702.4804" x2="28.8183" y2="702.6232" spreadMethod="pad" gradientUnits="userSpaceOnUse" gradientTransform="matrix(1 0 0 1 0 0)"><stop id="e1mBLiAYSK4231-fill-0" offset="0%" stop-color="rgba(11,121,157,0)"/><stop id="e1mBLiAYSK4231-fill-1" offset="17%" stop-color="rgba(17,125,158,0.17)"/><stop id="e1mBLiAYSK4231-fill-2" offset="41%" stop-color="rgba(35,137,160,0.42)"/><stop id="e1mBLiAYSK4231-fill-3" offset="69%" stop-color="rgba(64,156,163,0.69)"/><stop id="e1mBLiAYSK4231-fill-4" offset="100%" stop-color="rgb(105,183,168)"/></linearGradient><linearGradient id="e1mBLiAYSK4232-fill" x1="26.2702" y1="482.8798" x2="26.2702" y2="482.299" spreadMethod="pad" gradientUnits="userSpaceOnUse" gradientTransform="matrix(1 0 0 1 0 0)"><stop id="e1mBLiAYSK4232-fill-0" offset="0%" stop-color="rgb(237,245,255)"/><stop id="e1mBLiAYSK4232-fill-1" offset="100%" stop-color="rgb(213,232,254)"/></linearGradient><linearGradient id="e1mBLiAYSK4233-fill" x1="27.3488" y1="570.3335" x2="27.3488" y2="569.6235" spreadMethod="pad" gradientUnits="userSpaceOnUse" gradientTransform="matrix(1 0 0 1 0 0)"><stop id="e1mBLiAYSK4233-fill-0" offset="0%" stop-color="rgba(11,121,157,0)"/><stop id="e1mBLiAYSK4233-fill-1" offset="17%" stop-color="rgba(17,125,158,0.17)"/><stop id="e1mBLiAYSK4233-fill-2" offset="41%" stop-color="rgba(35,137,160,0.42)"/><stop id="e1mBLiAYSK4233-fill-3" offset="69%" stop-color="rgba(64,156,163,0.69)"/><stop id="e1mBLiAYSK4233-fill-4" offset="100%" stop-color="rgb(105,183,168)"/></linearGradient><linearGradient id="e1mBLiAYSK4234-fill" x1="26.485" y1="687.856" x2="26.485" y2="688.3985" spreadMethod="pad" gradientUnits="userSpaceOnUse" gradientTransform="matrix(1 0 0 1 0 0)"><stop id="e1mBLiAYSK4234-fill-0" offset="0%" stop-color="rgba(11,121,157,0)"/><stop id="e1mBLiAYSK4234-fill-1" offset="17%" stop-color="rgba(17,125,158,0.17)"/><stop id="e1mBLiAYSK4234-fill-2" offset="41%" stop-color="rgba(35,137,160,0.28)"/><stop id="e1mBLiAYSK4234-fill-3" offset="69%" stop-color="rgba(64,156,163,0.48)"/><stop id="e1mBLiAYSK4234-fill-4" offset="100%" stop-color="rgba(105,183,168,0.67)"/><stop id="e1mBLiAYSK4234-fill-5" offset="100%" stop-color="rgb(105,183,168)"/></linearGradient><linearGradient id="e1mBLiAYSK4235-fill" x1="27.4978" y1="669.3242" x2="27.4978" y2="669.8688" spreadMethod="pad" gradientUnits="userSpaceOnUse" gradientTransform="matrix(1 0 0 1 0 0)"><stop id="e1mBLiAYSK4235-fill-0" offset="0%" stop-color="rgba(11,121,157,0)"/><stop id="e1mBLiAYSK4235-fill-1" offset="17%" stop-color="rgba(17,125,158,0.17)"/><stop id="e1mBLiAYSK4235-fill-2" offset="41%" stop-color="rgba(35,137,160,0.28)"/><stop id="e1mBLiAYSK4235-fill-3" offset="69%" stop-color="rgba(64,156,163,0.48)"/><stop id="e1mBLiAYSK4235-fill-4" offset="100%" stop-color="rgba(105,183,168,0.69)"/><stop id="e1mBLiAYSK4235-fill-5" offset="100%" stop-color="rgb(105,183,168)"/></linearGradient><linearGradient id="e1mBLiAYSK4236-fill" x1="27.309" y1="606.6938" x2="27.309" y2="607.2736" spreadMethod="pad" gradientUnits="userSpaceOnUse" gradientTransform="matrix(1 0 0 1 0 0)"><stop id="e1mBLiAYSK4236-fill-0" offset="0%" stop-color="rgba(11,121,157,0)"/><stop id="e1mBLiAYSK4236-fill-1" offset="17%" stop-color="rgba(17,125,158,0.17)"/><stop id="e1mBLiAYSK4236-fill-2" offset="41%" stop-color="rgba(35,137,160,0.17)"/><stop id="e1mBLiAYSK4236-fill-3" offset="69%" stop-color="rgba(64,156,163,0.37)"/><stop id="e1mBLiAYSK4236-fill-4" offset="100%" stop-color="rgba(105,183,168,0.59)"/><stop id="e1mBLiAYSK4236-fill-5" offset="100%" stop-color="rgb(105,183,168)"/></linearGradient></defs><g id="e1mBLiAYSK42"><g id="e1mBLiAYSK43_tr" transform="translate(68.933861,82.101492) rotate(0)"><g id="e1mBLiAYSK43" transform="translate(-68.933861,-82.249993)"><g id="e1mBLiAYSK44"><g id="e1mBLiAYSK45"><path id="e1mBLiAYSK46" d="M42.73,29.38C39.3,36.38,37.62,48.43,39.42,57.23C41.42,66.83,36.09,69.59,37.42,76.04C39.26,81.67,44.19,85.73,52.28,86.2C60.37,86.67,72.38,85.42,82.09,87.69C91.8,89.96,99.8,83.41,100.54,78C101.28,72.59,98.49,72.69,97.54,64.56C97.11,60.65,98.09,49.31,98.39,44.32C98.668788,40.332673,97.903645,36.341524,96.17,32.74C94.07,28.06,89.27,19,78.34,15.84C64.77,11.24,49.14,16.26,42.73,29.38Z" fill="rgb(76,84,90)" stroke="none" stroke-width="1"/></g></g><g id="e1mBLiAYSK47" clip-path="url(#e1mBLiAYSK418)"><g id="e1mBLiAYSK48"><g id="e1mBLiAYSK49"><g id="e1mBLiAYSK410"><g id="e1mBLiAYSK411"><g id="e1mBLiAYSK412"><g id="e1mBLiAYSK413"><g id="e1mBLiAYSK414" opacity="0.2"><g id="e1mBLiAYSK415"><g id="e1mBLiAYSK416"><path id="e1mBLiAYSK417" d="M48.64,48.31C48.64,48.31,49.28,62.69,46.27,70C43.26,77.31,42.27,83.24,54.43,88C66.59,92.76,85.32,90.65,87.89,89.53C90.46,88.41,98.1,81.24,92.3,73.53C86.5,65.82,89.23,50.08,89.23,50.08Z" fill="rgb(0,0,0)" stroke="none" stroke-width="1"/></g></g></g></g></g></g></g></g></g><clipPath id="e1mBLiAYSK418"><path id="e1mBLiAYSK419" d="M42.73,29.37C39.3,36.37,37.62,48.43,39.42,57.23C41.42,66.83,36.09,69.59,37.42,76.04C39.26,81.68,44.19,85.72,52.28,86.2C60.37,86.68,72.38,85.43,82.09,87.69C91.8,89.95,99.8,83.41,100.54,78C101.28,72.59,98.49,72.69,97.54,64.56C96.82,57.95,98.13,46.16,98.37,41.18C98.61,36.2,93,19.85,78.63,15.66C65.06,11.05,49.14,16.26,42.73,29.37Z" fill="none" stroke="none" stroke-width="1"/></clipPath></g></g></g><g id="e1mBLiAYSK420" transform="matrix(1 0 0 1 0 0.000004)"><g id="e1mBLiAYSK421"><g id="e1mBLiAYSK422"><g id="e1mBLiAYSK423"><path id="e1mBLiAYSK424" d="M64.14,90.68L65.23,90.68C66.886854,90.68,68.23,92.023146,68.23,93.68L68.23,97.55C68.23,98.654569,67.334569,99.55,66.23,99.55L63.14,99.55C62.035431,99.55,61.14,98.654569,61.14,97.55L61.14,93.68C61.14,92.023146,62.483146,90.68,64.14,90.68Z" fill="rgb(1,159,222)" stroke="none" stroke-width="1"/></g><g id="e1mBLiAYSK425"><path id="e1mBLiAYSK426" d="M72.85,90.68L74,90.68C75.656854,90.68,77,92.023146,77,93.68L77,97.55C77,98.654569,76.104569,99.55,75,99.55L71.9,99.55C70.795431,99.55,69.9,98.654569,69.9,97.55L69.9,93.68C69.899773,92.042477,71.212705,90.707292,72.85,90.68Z" fill="rgb(1,159,222)" stroke="none" stroke-width="1"/></g><g id="e1mBLiAYSK427"><g id="e1mBLiAYSK428"><g id="e1mBLiAYSK429"><path id="e1mBLiAYSK430" d="M58.87,89.82L69.2,89.82L69.2,96.73C69.200024,97.361243,68.691219,97.874511,68.06,97.88L60.43,97.88C59.539482,97.93744,58.691136,97.493987,58.23,96.73C57.458682,95.049579,56.901003,93.279116,56.57,91.46C56.57,90.84,58.26,89.88,58.87,89.88Z" fill="rgb(247,247,247)" stroke="none" stroke-width="1"/></g></g></g><g id="e1mBLiAYSK431"><g id="e1mBLiAYSK432"><g id="e1mBLiAYSK433"><path id="e1mBLiAYSK434" d="M79.51,89.82L69.18,89.82L69.18,96.73C69.179976,97.361243,69.688781,97.874511,70.32,97.88L78,97.88C78.890518,97.93744,79.738864,97.493987,80.2,96.73C80.971318,95.049579,81.528997,93.279116,81.86,91.46C81.86,90.84,80.18,89.88,79.56,89.88Z" fill="rgb(247,247,247)" stroke="none" stroke-width="1"/></g></g></g><g id="e1mBLiAYSK435"><g id="e1mBLiAYSK436"><g id="e1mBLiAYSK437"><path id="e1mBLiAYSK438" d="M81.94,74.72C81.94,74.72,88.85,75.48,89.94,78.46C90.353045,79.30992,90.41123,80.289189,90.101733,81.18204C89.792237,82.074891,89.140456,82.808058,88.29,83.22C88.08153,83.320656,87.863861,83.401026,87.64,83.46C86.25,83.77,75.58,83.66,76.11,82.46C76.41,81.71,81.2,74.9,81.94,74.72Z" fill="rgb(247,247,247)" stroke="none" stroke-width="1"/></g></g></g><g id="e1mBLiAYSK439"><g id="e1mBLiAYSK440"><g id="e1mBLiAYSK441"><path id="e1mBLiAYSK442" d="M59.46,70.31L79,70.31C80.774102,70.201076,82.306614,71.53757,82.44,73.31C82.573386,75.08243,84.27,83,83.93,88.23C83.59,93.46,80.77,94.55,79,94.45C79,94.45,76.11,94.82,68.77,95.52C64.77,95.82,55.45,93.88,55.32,92.11C54.626151,89.126133,54.423492,86.049093,54.72,83C55.29,78.5,56,73.31,56,73.31C56.122836,71.532305,57.662118,70.189908,59.44,70.31Z" fill="rgb(247,247,247)" stroke="none" stroke-width="1"/></g></g></g><g id="e1mBLiAYSK443" transform="matrix(1 0 0 1 0.000004 0.000001)"><g id="e1mBLiAYSK444"><g id="e1mBLiAYSK445"><path id="e1mBLiAYSK446" d="M55.05,82.26L52.51,80.88L52.51,80.88L49.59,86.45C48.839544,87.836892,49.348602,89.569478,50.73,90.33L50.73,90.33C52.119517,91.078869,53.85297,90.565088,54.61,89.18L56.24,86.1C56.977429,84.704962,56.450332,82.976263,55.06,82.23Z" fill="rgb(1,159,222)" stroke="none" stroke-width="1"/></g></g><g id="e1mBLiAYSK447"><g id="e1mBLiAYSK448"><g id="e1mBLiAYSK449"><path id="e1mBLiAYSK450" d="M55.11,71C55.11,71,48.33,83.09,48.75,85.81C49.17,88.53,55.75,88.24,58.03,87.54C60.31,86.84,59.4,71.54,58.24,71C57.224365,70.660007,56.125635,70.660007,55.11,71Z" fill="rgb(247,247,247)" stroke="none" stroke-width="1"/></g></g></g></g><g id="e1mBLiAYSK451"><g id="e1mBLiAYSK452"><ellipse id="e1mBLiAYSK453" rx="7.46" ry="3.44" transform="matrix(1 0 0 1 69.18 74.93)" fill="rgb(255,255,255)" stroke="none" stroke-width="1"/></g></g><g id="e1mBLiAYSK454"><g id="e1mBLiAYSK455"><path id="e1mBLiAYSK456" d="M74.36,76.46C74.36,76.46,74,78.76,73.21,79.36C72.42,79.96,75.5,80.5,76.4,80.24C77.3,79.98,76.11,76.11,76.11,76.11Z" fill="rgb(255,255,255)" stroke="none" stroke-width="1"/></g></g><g id="e1mBLiAYSK457"><path id="e1mBLiAYSK458" d="M68.45,93.59C64.034477,93.58995,59.632012,93.110473,55.32,92.16C55.041344,92.12367,54.844581,91.868774,54.88,91.59C54.894843,91.454996,54.963967,91.331839,55.071479,91.248848C55.178991,91.165856,55.315638,91.130172,55.45,91.15L55.52,91.15C60.22092,92.182119,65.028338,92.648761,69.84,92.54C74.307854,92.498867,78.761507,92.030061,83.14,91.14C83.412667,91.090951,83.674622,91.268548,83.73,91.54C83.756549,91.669959,83.730371,91.805141,83.657228,91.915794C83.584084,92.026448,83.469969,92.103503,83.34,92.13L83.34,92.13C78.901097,93.023464,74.387711,93.495562,69.86,93.54Z" fill="rgb(1,159,222)" stroke="none" stroke-width="1"/></g><g id="e1mBLiAYSK459"><path id="e1mBLiAYSK460" d="M68.49,93C68.33,90.53,68.49,78.31,68.49,77.78L69.49,77.78C69.49,77.91,69.33,90.48,69.49,92.9Z" fill="rgb(1,159,222)" stroke="none" stroke-width="1"/></g></g></g><g id="e1mBLiAYSK461_tr" transform="translate(68.933861,77.435669) rotate(0)"><g id="e1mBLiAYSK461" transform="translate(-68.933861,-77.435668)"><g id="e1mBLiAYSK462"><g id="e1mBLiAYSK463"><path id="e1mBLiAYSK464" d="M69,29.75C82.204038,29.821523,92.870194,40.545769,92.87,53.75C92.82,67,82.15,75,69,75C55.85,75,45,67,45,53.76C44.999907,40.540234,55.690327,29.809574,68.91,29.76Z" fill="rgb(253,223,188)" stroke="none" stroke-width="1"/></g></g><g id="e1mBLiAYSK465" opacity="0.6"><g id="e1mBLiAYSK466"><path id="e1mBLiAYSK467" d="M68.85,75C65.946515,75.013995,63.056376,74.606411,60.27,73.79C61.42,73.91,62.58,73.97,63.75,73.98C69.89904,74.137928,75.910738,72.146995,80.75,68.35C82.911367,66.551071,84.649321,64.297535,85.84,61.75C87.110901,58.980848,87.75945,55.966804,87.74,52.92C87.785635,42.423498,81.00486,33.115123,71,29.94C83.328037,31.064374,92.778324,41.380865,92.82,53.76C92.841782,56.809194,92.196725,59.82629,90.93,62.6C89.740529,65.168081,87.999146,67.442121,85.83,69.26C81.015049,73.099486,75.006978,75.130483,68.85,75Z" fill="rgb(255,213,163)" stroke="none" stroke-width="1"/></g></g><g id="e1mBLiAYSK468"><g id="e1mBLiAYSK469"><path id="e1mBLiAYSK470" d="M57.78,53.46L57.78,53.46C58.873465,53.48636,59.75364,54.366535,59.78,55.46L59.78,57.46C59.75364,58.553465,58.873465,59.43364,57.78,59.46L57.78,59.46C56.675431,59.46,55.78,58.564569,55.78,57.46L55.78,55.46C55.78,54.355431,56.675431,53.46,57.78,53.46Z" fill="rgb(76,84,90)" stroke="none" stroke-width="1"/></g></g><g id="e1mBLiAYSK471"><g id="e1mBLiAYSK472"><path id="e1mBLiAYSK473" d="M80.12,53.46L80.12,53.46C81.211321,53.491349,82.088651,54.368679,82.12,55.46L82.12,57.46C82.088651,58.551321,81.211321,59.428651,80.12,59.46L80.12,59.46C79.015431,59.46,78.12,58.564569,78.12,57.46L78.12,55.46C78.12,54.355431,79.015431,53.46,80.12,53.46Z" fill="rgb(76,84,90)" stroke="none" stroke-width="1"/></g></g><g id="e1mBLiAYSK474"><g id="e1mBLiAYSK475"><path id="e1mBLiAYSK476" d="M68.78,67.4C67.915081,67.366403,67.066823,67.151783,66.29,66.77C65.834365,66.554609,65.639609,66.010635,65.855,65.555C66.070391,65.099365,66.614365,64.904609,67.07,65.12C67.608517,65.379181,68.193177,65.528745,68.79,65.56C69.327747,65.518655,69.85158,65.368989,70.33,65.12C70.534098,65.000151,70.777529,64.966535,71.006469,65.026585C71.23541,65.086635,71.431002,65.235404,71.55,65.44L71.55,65.44L71.55,65.5C71.795395,65.914675,71.661666,66.44959,71.25,66.7L71.17,66.7C70.432332,67.101014,69.617453,67.339682,68.78,67.4Z" fill="rgb(76,84,90)" stroke="none" stroke-width="1"/></g></g><g id="e1mBLiAYSK477"><g id="e1mBLiAYSK478"><path id="e1mBLiAYSK479" d="M45.33,49.5C45.33,49.5,55.05,46.73,59.4,41.64C63.75,36.55,66.27,39.21,68.4,40.4C70.53,41.59,75.53,46.09,82,49C85.58043,50.721554,89.497303,51.629914,93.47,51.66C97.4,51.66,93.78,38.09,85.86,33.08C77.94,28.07,61.37,23.8,52.86,33.08C44.35,42.36,45.33,49.5,45.33,49.5Z" fill="rgb(76,84,90)" stroke="none" stroke-width="1"/></g></g><g id="e1mBLiAYSK480"><g id="e1mBLiAYSK481"><g id="e1mBLiAYSK482"><path id="e1mBLiAYSK483" d="M44.51,54C43.752775,53.768726,42.934327,54.071552,42.51,54.74C41.75,55.95,42.09,59.31,44.15,61.17C45.138734,62.264927,46.688183,62.659189,48.08,62.17C49.471817,61.680811,46.08,54.77,45.59,54.56C45.195533,54.449052,44.827976,54.258467,44.51,54Z" fill="rgb(253,223,188)" stroke="none" stroke-width="1"/></g></g><g id="e1mBLiAYSK484"><g id="e1mBLiAYSK485"><path id="e1mBLiAYSK486" d="M93.32,54.62C94.075118,54.379481,94.897367,54.679602,95.32,55.35C96.08,56.57,95.75,59.93,93.68,61.79C92.681444,62.868528,91.142606,63.26009,89.75,62.79C88.357394,62.31991,91.75,55.39,92.25,55.19C92.636633,55.062575,92.998547,54.86978,93.32,54.62Z" fill="rgb(254,217,173)" stroke="none" stroke-width="1"/></g></g></g><g id="e1mBLiAYSK487" transform="matrix(1 0 0 1 0.000001 0)"><g id="e1mBLiAYSK488"><g id="e1mBLiAYSK489" clip-path="url(#e1mBLiAYSK496)"><g id="e1mBLiAYSK490"><g id="e1mBLiAYSK491"><path id="e1mBLiAYSK492" d="M58.47,64.37L58,64.8L43.12,64.8L43.12,51.8L58.47,51.8Z" fill="rgb(237,245,255)" stroke="none" stroke-width="1"/><path id="e1mBLiAYSK493" d="M58.47,64.58L58.25,64.8L58,64.8L58.43,64.37Z" fill="rgb(237,245,255)" stroke="none" stroke-width="1"/><path id="e1mBLiAYSK494" d="M58.47,64.78L58.47,64.78L58.27,64.78L58.49,64.56Z" fill="rgb(236,244,255)" stroke="none" stroke-width="1"/><path id="e1mBLiAYSK495" d="M58.45,64.8L58.45,64.8L58.45,64.8Z" fill="rgb(235,244,255)" stroke="none" stroke-width="1"/></g></g><clipPath id="e1mBLiAYSK496"><path id="e1mBLiAYSK497" d="M57.63,64.27L57.63,64.27C55.12,64.8,50,61.4,48,59.41C46.346723,57.560066,44.800854,55.616878,43.37,53.59C43.131708,53.067392,43.270714,52.450041,43.71,52.08L43.71,52.08C44.15,51.78,44.63,52.08,45.11,52.83C46.371889,54.800888,47.880811,56.602186,49.6,58.19C51.51,59.77,55.35,62.51,57.34,62.1C57.855478,62.097417,58.288458,62.487099,58.34,63L58.34,63C58.446196,63.534312,58.15606,64.068331,57.65,64.27Z" fill="none" stroke="none" stroke-width="1"/></clipPath></g></g><g id="e1mBLiAYSK498"><g id="e1mBLiAYSK499"><g id="e1mBLiAYSK4100" clip-path="url(#e1mBLiAYSK4104)"><g id="e1mBLiAYSK4101"><g id="e1mBLiAYSK4102"><rect id="e1mBLiAYSK4103" width="14.15" height="13.46" rx="0" ry="0" transform="matrix(1 0 0 1 80.84 51.82)" fill="rgb(237,245,255)" stroke="none" stroke-width="1"/></g></g><clipPath id="e1mBLiAYSK4104"><path id="e1mBLiAYSK4105" d="M81.73,65.15L81.73,65.15C84.29,65.29,90.96,58.72,92.8,56.6C93.641511,55.634505,94.31732,54.536314,94.8,53.35C95.007849,52.848348,94.810909,52.270372,94.34,52C93.884419,51.820601,93.369004,52.03832,93.18,52.49L93.18,52.49C92.777799,53.468536,92.216937,54.374024,91.52,55.17C90.04,56.86,83.91,63.17,81.89,63.04C81.337715,63.04,80.89,63.487715,80.89,64.04L80.89,64.04C80.842317,64.571878,81.220951,65.047372,81.75,65.12Z" fill="none" stroke="none" stroke-width="1"/></clipPath></g></g></g></g><g id="e1mBLiAYSK4106" transform="matrix(1 0 0 1 0 0.000001)"><g id="e1mBLiAYSK4107"><g id="e1mBLiAYSK4108"><path id="e1mBLiAYSK4109" d="M43.73,45.9C43.73,45.9,41.88,58.21,46.8,67.22C51.72,76.23,55.59,75.92,55.59,75.92C55.59,75.92,42.96,66.92,47.59,51.23C52.22,35.54,44.72,44,44.72,44Z" fill="rgb(76,84,90)" stroke="none" stroke-width="1"/></g></g><g id="e1mBLiAYSK4110"><g id="e1mBLiAYSK4111"><path id="e1mBLiAYSK4112" d="M94.17,45.89C94.17,45.89,96,58.21,91.1,67.22C86.2,76.23,82.31,75.92,82.31,75.92C82.31,75.92,94.92,66.92,90.31,51.23C85.7,35.54,93.18,44,93.18,44Z" fill="rgb(76,84,90)" stroke="none" stroke-width="1"/></g></g></g><g id="e1mBLiAYSK4113" transform="matrix(1 0 0 1 0.000001 0)"><g id="e1mBLiAYSK4114"><path id="e1mBLiAYSK4115" d="M86.43,39.09C86.331486,38.606062,86.043566,38.181602,85.630349,37.911133C85.217133,37.640664,84.712927,37.546641,84.23,37.65L84.23,37.65L81.03,38.33L80.37,35.14C80.121401,34.154428,79.134469,33.544923,78.141916,33.763988C77.149362,33.983053,76.510664,34.951349,76.7,35.95L77.7,40.84C77.948789,41.94521,79.043312,42.642131,80.15,42.4L85.04,41.4C85.523938,41.301486,85.948398,41.013566,86.218867,40.600349C86.489336,40.187133,86.583359,39.682927,86.48,39.2L86.48,39.2Z" fill="rgb(1,159,223)" stroke="none" stroke-width="1"/></g><g id="e1mBLiAYSK4116"><circle id="e1mBLiAYSK4117" r="1.87" transform="matrix(1 0 0 1 76.94 45.32)" fill="rgb(1,159,223)" stroke="none" stroke-width="1"/></g></g><g id="e1mBLiAYSK4118"><g id="e1mBLiAYSK4119"><g id="e1mBLiAYSK4120"><path id="e1mBLiAYSK4121" d="M81.25,62.34C80.768459,61.266898,79.773391,60.513059,78.61,60.34C71.89956,59.07001,65.01044,59.07001,58.3,60.34C57.136609,60.513059,56.141541,61.266898,55.66,62.34C53.959967,66.655268,53.959967,71.454732,55.66,75.77C56.136967,76.846733,57.134352,77.602327,58.3,77.77C65.01044,79.03999,71.89956,79.03999,78.61,77.77C79.775648,77.602327,80.773033,76.846733,81.25,75.77C82.960068,71.456643,82.960068,66.653357,81.25,62.34Z" fill="url(#e1mBLiAYSK4121-fill)" stroke="none" stroke-width="1"/><path id="e1mBLiAYSK4122" d="M81.25,62.34C80.768459,61.266898,79.773391,60.513059,78.61,60.34C71.89956,59.07001,65.01044,59.07001,58.3,60.34C57.136609,60.513059,56.141541,61.266898,55.66,62.34C53.959967,66.655268,53.959967,71.454732,55.66,75.77C56.136967,76.846733,57.134352,77.602327,58.3,77.77C65.01044,79.03999,71.89956,79.03999,78.61,77.77C79.775648,77.602327,80.773033,76.846733,81.25,75.77C82.960068,71.456643,82.960068,66.653357,81.25,62.34Z" fill="url(#e1mBLiAYSK4122-fill)" stroke="none" stroke-width="1"/><path id="e1mBLiAYSK4123" d="M56.14,62.46C64.278726,60.930089,72.631274,60.930089,80.77,62.46Q81.07,62.52,81.37,62.61C81.55,62.61,81.71,62.52,81.66,62.37L81.66,62.37C81.162534,61.261359,80.132588,60.484184,78.93,60.31C71.991285,59.000044,64.868715,59.000044,57.93,60.31C56.727412,60.484184,55.697466,61.261359,55.2,62.37L55.2,62.37C55.14,62.52,55.31,62.67,55.49,62.61C55.67,62.55,55.92,62.5,56.14,62.46Z" fill="url(#e1mBLiAYSK4123-fill)" stroke="none" stroke-width="1"/><path id="e1mBLiAYSK4124" d="M55,73.91C55.17,74.53,55.38,75.15,55.61,75.77C56.096773,76.847311,57.099886,77.601532,58.27,77.77C65.020787,79.040027,71.949213,79.040027,78.7,77.77C79.870114,77.601532,80.873227,76.847311,81.36,75.77C81.59,75.16,81.8,74.54,81.97,73.91Z" fill="url(#e1mBLiAYSK4124-fill)" stroke="none" stroke-width="1"/><path id="e1mBLiAYSK4125" d="M78.61,77.78C79.775648,77.612327,80.773033,76.856733,81.25,75.78C82.573245,72.439854,82.876015,68.782263,82.12,65.27C73.085611,63.610104,63.824389,63.610104,54.79,65.27C54.038807,68.782574,54.34146,72.438755,55.66,75.78C56.136967,76.856733,57.134352,77.612327,58.3,77.78C65.01044,79.04999,71.89956,79.04999,78.61,77.78Z" fill="url(#e1mBLiAYSK4125-fill)" stroke="none" stroke-width="1"/><path id="e1mBLiAYSK4126" d="M78.61,77.78C79.774892,77.610518,80.771497,76.855515,81.25,75.78C82.029742,73.774812,82.459319,71.650604,82.52,69.5C73.221626,67.749966,63.678374,67.749966,54.38,69.5C54.440681,71.650604,54.870258,73.774812,55.65,75.78C56.130349,76.858239,57.131374,77.613729,58.3,77.78C65.01044,79.04999,71.89956,79.04999,78.61,77.78Z" fill="url(#e1mBLiAYSK4126-fill)" stroke="none" stroke-width="1"/><path id="e1mBLiAYSK4127" d="M78.67,77.78C79.840114,77.611532,80.843227,76.857311,81.33,75.78C81.571085,75.15842,81.778059,74.524143,81.95,73.88C73.020246,72.289762,63.879754,72.289762,54.95,73.88C55.13,74.52,55.34,75.16,55.58,75.78C56.062188,76.860974,57.067641,77.616953,58.24,77.78C64.990787,79.050027,71.919213,79.050027,78.67,77.78Z" fill="url(#e1mBLiAYSK4127-fill)" stroke="none" stroke-width="1"/></g></g></g></g></g><g id="e1mBLiAYSK4128"><g id="e1mBLiAYSK4129"><g id="e1mBLiAYSK4130"><path id="e1mBLiAYSK4131" d="M91.57,70.28L88.05,69L88.33,68.23L92.59,69.78Z" fill="rgb(245,245,245)" stroke="none" stroke-width="1"/></g><g id="e1mBLiAYSK4132"><path id="e1mBLiAYSK4133" d="M85.29,68.93L87.75,69.83L87.23,71.24L84.77,70.34Z" fill="rgb(245,245,245)" stroke="none" stroke-width="1"/></g><g id="e1mBLiAYSK4134"><path id="e1mBLiAYSK4135" d="M89.58,77.33L85.44,88.71C85.271096,89.170738,84.761131,89.407827,84.3,89.24L75.49,86C75.06575,85.81626,74.852832,85.33828,75,84.9L79.1,73.52C79.265062,73.068851,79.672299,72.750818,80.15,72.7L82.85,72.41C83.308879,72.341618,83.693054,72.026594,83.85,71.59L84.26,70.46L87.52,71.65L87.11,72.78C86.942593,73.226004,87.047782,73.728569,87.38,74.07L89.26,76.07C89.593855,76.397137,89.7173,76.883205,89.58,77.33Z" fill="rgb(235,235,235)" stroke="none" stroke-width="1"/></g></g><g id="e1mBLiAYSK4136"><path id="e1mBLiAYSK4137" d="M85.86,66.84L88.7,67.84C88.813889,67.886372,88.871157,68.014124,88.83,68.13L88.83,68.13L88.11,70.13C88.067576,70.247842,87.938661,70.310077,87.82,70.27L87.82,70.27L84.99,69.27C84.934084,69.251746,84.887806,69.21186,84.861501,69.159249C84.835196,69.106639,84.831054,69.045685,84.85,68.99L84.85,68.99L85.57,66.99C85.616372,66.876111,85.744124,66.818843,85.86,66.86Z" fill="rgb(205,203,206)" stroke="none" stroke-width="1"/></g><g id="e1mBLiAYSK4138"><path id="e1mBLiAYSK4139" d="M84.5,70L87.72,71.18C87.86112,71.224658,87.967695,71.341211,87.99958,71.485753C88.031465,71.630296,87.983815,71.780869,87.87458,71.880753C87.765345,71.980638,87.61112,72.014658,87.47,71.97L87.47,71.97L84.25,70.8C84.035487,70.716236,83.928429,70.475357,84.01,70.26C84.084728,70.062459,84.294527,69.951137,84.5,70Z" fill="rgb(205,203,206)" stroke="none" stroke-width="1"/></g><g id="e1mBLiAYSK4140"><path id="e1mBLiAYSK4141" d="M80,76.45L87.24,79.08C87.512748,79.18285,87.651246,79.486652,87.55,79.76L87.55,79.76L85.19,86.25C85.086913,86.522771,84.785888,86.66443,84.51,86.57L77.28,83.93C77.148596,83.886915,77.040321,83.792317,76.97999,83.667884C76.919659,83.543451,76.912444,83.399853,76.96,83.27L76.96,83.27L79.33,76.77C79.37729,76.639704,79.474645,76.533682,79.600444,76.475476C79.726243,76.41727,79.870075,76.411699,80,76.46Z" fill="rgb(143,209,235)" stroke="none" stroke-width="1"/></g><g id="e1mBLiAYSK4142"><path id="e1mBLiAYSK4143" d="M82.46,79L83.71,79.46L82.05,84L80.81,83.55Z" fill="rgb(238,239,238)" stroke="none" stroke-width="1"/></g><g id="e1mBLiAYSK4144"><path id="e1mBLiAYSK4145" d="M80.2,80.06L84.76,81.72L84.31,83L79.75,81.3Z" fill="rgb(238,239,238)" stroke="none" stroke-width="1"/></g><g id="e1mBLiAYSK4146"><path id="e1mBLiAYSK4147" d="M89.25,80.88C88.71,82.29,87.97,83.32,86.56,82.78C85.611902,82.446663,84.921146,81.622686,84.758417,80.630959C84.595687,79.639232,84.986904,78.637717,85.778761,78.018876C86.570619,77.400035,87.636991,77.262436,88.56,77.66C89.93,78.2,89.79,79.46,89.25,80.88Z" fill="rgb(1,159,222)" stroke="none" stroke-width="1"/></g></g></g><g id="e1mBLiAYSK4148"><rect id="e1mBLiAYSK4149" width="110" height="100" rx="0" ry="0" fill="none" stroke="none" stroke-width="1"/><g id="e1mBLiAYSK4150"><path id="e1mBLiAYSK4151" d="M40.39,72C38.528611,71.532737,37.082569,70.067414,36.64,68.2C36.574532,67.922291,36.325306,67.727065,36.04,67.73L18.66,67.73C18.375949,67.730725,18.128721,67.924386,18.06,68.2C17.791576,69.333103,17.146355,70.341482,16.23,71.06L16.71,71.62L17.3,92L22,96.7L26.84,99.45L27.32,99.56L28.32,99.33C35.634339,97.709956,40.845291,91.231588,40.86,83.74L40.86,72.62C40.876706,72.325999,40.677585,72.063329,40.39,72Z" fill="rgb(1,159,222)" stroke="none" stroke-width="1"/><path id="e1mBLiAYSK4152" d="M17.57,84.62L17.57,69.5C16.863992,70.758822,15.663923,71.665218,14.26,72C13.978314,72.061436,13.778104,72.311698,13.78,72.6L13.78,83.74C13.798338,91.224836,19.003281,97.696744,26.31,99.32L27.31,99.54L27.66,99.47C21.574702,97.05119,17.577568,91.168392,17.57,84.62Z" fill="rgb(0,141,198)" stroke="none" stroke-width="1"/><path id="e1mBLiAYSK4153" d="M26.78,97.2C20.478513,95.790564,15.998824,90.197186,16,83.74L16,73.74C17.712086,72.997755,19.077755,71.632086,19.82,69.92L34.92,69.92C35.651113,71.614269,36.993562,72.970999,38.68,73.72L38.68,83.72C38.693975,90.199354,34.188937,95.811915,27.86,97.2L27.32,97.31Z" fill="rgb(242,251,255)" stroke="none" stroke-width="1"/><path id="e1mBLiAYSK4154" d="M20.75,94.18C18.683016,91.421619,17.567114,88.066894,17.57,84.62L17.57,72.79C17.079538,73.192535,16.538221,73.528757,15.96,73.79L15.96,83.79C15.97158,87.78471,17.719859,91.576907,20.75,94.18Z" fill="rgb(223,246,253)" stroke="none" stroke-width="1"/><path id="e1mBLiAYSK4155" d="M36.22,76.81C35.936259,76.483719,35.534501,76.283548,35.103145,76.25354C34.671789,76.223533,34.246185,76.366148,33.92,76.65C33.580048,76.941895,33.377116,77.362254,33.36,77.81L32.6,78.33C32.268521,78.580006,31.811479,78.580006,31.48,78.33C30.759277,77.712486,29.913144,77.258713,29,77C28.598055,76.891385,28.31916,76.526361,28.32,76.11L28.32,75.19C28.856925,74.764472,29.06575,74.045766,28.840456,73.398769C28.615162,72.751773,28.0051,72.318216,27.32,72.318216C26.6349,72.318216,26.024838,72.751773,25.799544,73.398769C25.57425,74.045766,25.783075,74.764472,26.32,75.19L26.32,76.12C26.325558,76.534678,26.050043,76.900662,25.65,77.01C24.68923,77.273349,23.802656,77.756002,23.06,78.42C22.750472,78.700972,22.290423,78.73794,21.94,78.51L20.94,77.88C20.842971,77.297486,20.404584,76.830787,19.829273,76.697539C19.253962,76.564291,18.655036,76.790738,18.311791,77.27128C17.968547,77.751822,17.948587,78.391816,18.26122,78.892813C18.573852,79.39381,19.157504,79.657139,19.74,79.56L19.85,79.56L20.85,80.2C21.171145,80.42252,21.318967,80.822039,21.22,81.2C20.615916,83.075083,20.903287,85.123518,22,86.76C22.230664,87.108209,22.197814,87.568111,21.92,87.88L21.48,88.38C20.698815,88.438581,20.112639,89.118725,20.17,89.9C20.259068,90.646569,20.914637,91.194312,21.665148,91.149228C22.415659,91.104145,23.000944,90.481863,23,89.73L23,89.73L23.45,89.22C23.72693,88.9092,24.17805,88.823077,24.55,89.01C25.954261,89.697107,27.559586,89.853378,29.07,89.45C29.457184,89.352486,29.862709,89.518751,30.07,89.86L30.51,90.58C30.278657,91.363739,30.726287,92.186662,31.509942,92.418292C32.293596,92.649921,33.116683,92.202592,33.348598,91.419022C33.580514,90.635451,33.133486,89.812202,32.35,89.58L32.21,89.58L31.81,88.92C31.602399,88.545058,31.681194,88.076432,32,87.79C33.74798,85.992144,34.297647,83.345166,33.41,81C33.295259,80.628216,33.432422,80.224795,33.75,80L34.5,79.48C35.198283,79.703582,35.959911,79.433418,36.36122,78.81979C36.762528,78.206162,36.704739,77.400105,36.22,76.85Z" fill="rgb(240,114,129)" stroke="none" stroke-width="1"/><g id="e1mBLiAYSK4156"><path id="e1mBLiAYSK4157" d="M21.82,90.45C21.57983,90.15965,21.46491,89.785747,21.500547,89.410627C21.536183,89.035507,21.719453,88.689932,22.01,88.45L22.01,88.45C22.133243,88.349005,22.271599,88.268016,22.42,88.21C22.741757,88.089464,23.032266,87.89807,23.27,87.65L23.27,87.65C23.547814,87.338111,23.580664,86.878209,23.35,86.53C22.276205,84.894743,22.003931,82.860049,22.61,81C22.718645,80.62162,22.568765,80.216539,22.24,80L21.86,79.75C21.561859,79.550183,21.217676,79.429719,20.86,79.4C20.057081,79.351705,19.444474,78.663081,19.49,77.86L19.49,77.86C19.504104,77.576354,19.605376,77.303966,19.78,77.08C19.846885,76.978897,19.931596,76.890797,20.03,76.82C19.285829,76.587378,18.490198,76.980525,18.222889,77.712952C17.95558,78.445379,18.310933,79.258594,19.03,79.56L19.11,79.56C19.374102,79.639813,19.655898,79.639813,19.92,79.56L20.92,80.2C21.247364,80.417867,21.400064,80.819711,21.3,81.2C20.680687,83.053914,20.938277,85.088875,22,86.73C22.232283,87.081327,22.199464,87.544903,21.92,87.86L21.48,88.36C20.695756,88.382091,20.077909,89.035756,20.1,89.82C20.122091,90.604244,20.775756,91.222091,21.56,91.2L21.62,91.2C21.927094,91.178204,22.220188,91.06306,22.46,90.87C22.211738,90.782064,21.991005,90.63031,21.82,90.43Z" fill="rgb(235,85,105)" stroke="none" stroke-width="1"/></g><g id="e1mBLiAYSK4158"><path id="e1mBLiAYSK4159" d="M29.82,79.05C29.69534,79.052681,29.574724,79.005716,29.4847,78.919443C29.394677,78.83317,29.342624,78.714661,29.34,78.59L29.34,78.59C29.339581,78.506237,29.360212,78.423711,29.4,78.35L30.81,75.9L31.46,74.74C31.587453,74.508573,31.877967,74.423653,32.11,74.55C32.339059,74.68478,32.418917,74.97759,32.29,75.21L31.65,76.37L30.24,78.83C30.14716,78.970694,29.988522,79.05379,29.82,79.05Z" fill="rgb(235,85,105)" stroke="none" stroke-width="1"/></g><circle id="e1mBLiAYSK4160" r="0.96" transform="matrix(1 0 0 1 31.74 75.04)" fill="rgb(229,57,80)" stroke="none" stroke-width="1"/><g id="e1mBLiAYSK4161"><path id="e1mBLiAYSK4162" d="M24.77,79C24.597517,78.999498,24.438001,78.908346,24.35,78.76L23.22,76.83L22.54,75.68C22.468639,75.572903,22.443273,75.441635,22.469596,75.315662C22.495919,75.189688,22.571725,75.079561,22.68,75.01C22.904317,74.867097,23.201674,74.929232,23.35,75.15L23.35,75.15L24.04,76.3L25.17,78.24C25.300492,78.461216,25.229242,78.746218,25.01,78.88L25.01,78.88C24.945273,78.945166,24.860969,78.987319,24.77,79Z" fill="rgb(235,85,105)" stroke="none" stroke-width="1"/></g><circle id="e1mBLiAYSK4163" r="0.96" transform="matrix(1 0 0 1 22.96 75.6)" fill="rgb(229,57,80)" stroke="none" stroke-width="1"/><g id="e1mBLiAYSK4164"><path id="e1mBLiAYSK4165" d="M27.08,92.47C26.81876,92.470057,26.605442,92.261183,26.6,92L26.6,92L26.6,89.63C26.6,89.353858,26.823858,89.13,27.1,89.13C27.376142,89.13,27.6,89.353858,27.6,89.63L27.6,92C27.602756,92.128129,27.553071,92.251827,27.462449,92.342449C27.371827,92.433071,27.248129,92.482756,27.12,92.48L27.12,92.48Z" fill="rgb(235,85,105)" stroke="none" stroke-width="1"/></g><circle id="e1mBLiAYSK4166" r="0.85" transform="matrix(1 0 0 1 27.09 91.99)" fill="rgb(229,57,80)" stroke="none" stroke-width="1"/><g id="e1mBLiAYSK4167"><path id="e1mBLiAYSK4168" d="M35.71,86.15L35.59,86.15L34.4,85.83L34.4,85.83L31.73,85.06C31.563871,85.011769,31.436093,84.878573,31.394798,84.710587C31.353503,84.5426,31.404965,84.365343,31.529798,84.245587C31.654632,84.12583,31.833872,84.081769,32,84.13L32,84.13L34.66,84.91L35.84,85.22C36.116142,85.253137,36.313137,85.503858,36.28,85.78C36.246863,86.056142,35.996142,86.253137,35.72,86.22Z" fill="rgb(235,85,105)" stroke="none" stroke-width="1"/></g><circle id="e1mBLiAYSK4169" r="0.81" transform="matrix(1 0 0 1 35.6 85.67)" fill="rgb(229,57,80)" stroke="none" stroke-width="1"/><g id="e1mBLiAYSK4170"><path id="e1mBLiAYSK4171" d="M18.67,85.45C18.541871,85.452756,18.418173,85.403071,18.327551,85.312449C18.236929,85.221827,18.187244,85.098129,18.19,84.97L18.19,84.97C18.189852,84.737805,18.352692,84.537387,18.58,84.49L19.67,84.28L19.67,84.28L21,84.11C21.262248,84.074432,21.503806,84.257837,21.54,84.52C21.564315,84.782595,21.380501,85.018928,21.12,85.06L21.12,85.06L19.82,85.24L18.75,85.44Z" fill="rgb(235,85,105)" stroke="none" stroke-width="1"/></g><circle id="e1mBLiAYSK4172" r="0.81" transform="matrix(1 0 0 1 18.83 85.05)" fill="rgb(229,57,80)" stroke="none" stroke-width="1"/><g id="e1mBLiAYSK4173"><circle id="e1mBLiAYSK4174" r="1.1" transform="matrix(1 0 0 1 24.05 82.25)" fill="rgb(235,85,105)" stroke="none" stroke-width="1"/><circle id="e1mBLiAYSK4175" r="0.88" transform="matrix(1 0 0 1 28.02 80.46)" fill="rgb(235,85,105)" stroke="none" stroke-width="1"/><circle id="e1mBLiAYSK4176" r="1.51" transform="matrix(1 0 0 1 27.43 86.48)" fill="rgb(235,85,105)" stroke="none" stroke-width="1"/></g></g></g><g id="e1mBLiAYSK4177_to" transform="translate(27.09,68.74218)"><g id="e1mBLiAYSK4177_tr" transform="rotate(0)"><g id="e1mBLiAYSK4177" transform="translate(-27.09,-68.742177)"><g id="e1mBLiAYSK4178"><g id="e1mBLiAYSK4179"><g id="e1mBLiAYSK4180"><g id="e1mBLiAYSK4181"><path id="e1mBLiAYSK4182" d="M15.89,47L13.81,55C13.81,55,11.22,67,18.65,68.14C21.08,68.49,27.48,68.51,30.34,68.51C34.92,68.51,32.47,69.24,36,68.14C39.53,67.04,39.66,61.35,39.53,55.74C39.53,54,37,46.93,37,46.93Z" fill="rgb(163,216,242)" stroke="none" stroke-width="1"/></g><g id="e1mBLiAYSK4183"><path id="e1mBLiAYSK4184" d="M19.11,67.71C17.334086,67.596619,15.614971,67.039626,14.11,66.09C12.23,64.64,12.01,62.9,11.59,61.92C11,60.78,10,59.45,8.42,59.71C6.84,59.97,6.15,61.8,7.42,64.18C8.69,66.56,14.01,69.52,19.42,68.74C24.83,67.96,19.11,67.71,19.11,67.71Z" fill="rgb(163,216,242)" stroke="none" stroke-width="1"/><g id="e1mBLiAYSK4185" clip-path="url(#e1mBLiAYSK4192)"><g id="e1mBLiAYSK4186"><g id="e1mBLiAYSK4187"><g id="e1mBLiAYSK4188"><g id="e1mBLiAYSK4189"><g id="e1mBLiAYSK4190"><path id="e1mBLiAYSK4191" d="M19.11,67.71C17.334086,67.596619,15.614971,67.039626,14.11,66.09C12.23,64.64,12.01,62.9,11.59,61.92C11,60.78,10,59.45,8.42,59.71C6.84,59.97,6.15,61.8,7.42,64.18C8.69,66.56,14.01,69.52,19.42,68.74C24.83,67.96,19.11,67.71,19.11,67.71Z" fill="rgb(1,159,222)" stroke="none" stroke-width="1"/></g></g></g></g></g><clipPath id="e1mBLiAYSK4192"><path id="e1mBLiAYSK4193" d="M12.64,61C10.50394,60.963528,8.525585,62.120461,7.51,64C6,67.15,5.89,58.82,5.89,58.82L9.76,57.19Z" fill="none" stroke="none" stroke-width="1"/></clipPath></g></g><path id="e1mBLiAYSK4194" d="M28.59,53C32.65,53,35.94,57.13,35.94,62.22C35.94,67.31,32.65,68,28.59,68C24.53,68,21.24,67.37,21.24,62.27C21.24,57.17,24.53,53,28.59,53Z" fill="rgb(255,255,255)" stroke="none" stroke-width="1"/></g><g id="e1mBLiAYSK4195"><g id="e1mBLiAYSK4196"><g id="e1mBLiAYSK4197"><path id="e1mBLiAYSK4198" d="M10.78,40.58C10.78,40.58,5.36,31.32,9.36,28.69C13.36,26.06,19.36,30.86,19.74,31.17C19.74,31.17,25.99,27.98,32.14,30.03C32.47,30.21,37.89,25.03,42.14,26.46C46.39,27.89,42.14,38.18,42.14,38.18C42.14,38.18,42.9,44.78,45.39,46.18C45.57,46.51,43.39,47.62,42.6,47.38C43.334643,47.659945,44.100046,47.851296,44.88,47.95C45.66,48.05,36.35,54.95,27.11,54.88C17.87,54.81,12.28,51.5,11.36,50.82C11.978789,50.570598,12.58014,50.279945,13.16,49.95C13.34,49.86,9.98,49.49,8.61,47.95C8.15,47.49,12.12,44.95,11.61,42.27C11.26,40.84,10.78,40.58,10.78,40.58Z" fill="rgb(163,216,242)" stroke="none" stroke-width="1"/></g><g id="e1mBLiAYSK4199" opacity="0.7"><path id="e1mBLiAYSK4200" d="M12.87,37.5C12.87,37.5,14.67,33.91,16.74,33.13C16.74,32.96,12.19,30.13,10.95,31.4C9.71,32.67,12.87,37.5,12.87,37.5Z" fill="rgb(255,255,255)" stroke="none" stroke-width="1"/></g><g id="e1mBLiAYSK4201" opacity="0.7"><path id="e1mBLiAYSK4202" d="M34.87,32.14C34.87,32.14,38.72,33.28,39.87,35.21C40,35.21,42,30.21,40.55,29.21C39.1,28.21,34.87,32.14,34.87,32.14Z" fill="rgb(255,255,255)" stroke="none" stroke-width="1"/></g><g id="e1mBLiAYSK4203"><g id="e1mBLiAYSK4204"><path id="e1mBLiAYSK4205" d="M27.89,44.17L27.36,44.17C27.10668,44.099405,26.85926,44.00913,26.62,43.9C25.745094,44.420781,24.630936,44.298346,23.89,43.6C23.591766,43.379086,23.529086,42.958234,23.75,42.66C23.970914,42.361766,24.391766,42.299086,24.69,42.52L24.69,42.52L24.78,42.6L24.78,42.6C25.157506,42.931646,25.722494,42.931646,26.1,42.6C26.344726,42.361184,26.735274,42.361184,26.98,42.6C27.1,42.68,27.89,43.12,28.31,42.68C28.535693,42.393587,28.948997,42.340257,29.24,42.56C29.517625,42.777716,29.570883,43.17715,29.36,43.46L29.36,43.46C29.002296,43.899481,28.455797,44.14113,27.89,44.11Z" fill="rgb(76,84,90)" stroke="none" stroke-width="1"/></g></g><g id="e1mBLiAYSK4206"><circle id="e1mBLiAYSK4207" r="1.28" transform="matrix(1 0 0 1 19.07 40.77)" fill="rgb(76,84,90)" stroke="none" stroke-width="1"/></g><g id="e1mBLiAYSK4208"><circle id="e1mBLiAYSK4209" r="1.28" transform="matrix(1 0 0 1 34.51 40.77)" fill="rgb(76,84,90)" stroke="none" stroke-width="1"/></g><g id="e1mBLiAYSK4210"><g id="e1mBLiAYSK4211"><path id="e1mBLiAYSK4212" d="M8.3,47.72C8.127994,47.699627,7.998798,47.553204,8,47.38C8.002376,47.247067,8.079865,47.126959,8.2,47.07C9.449333,46.49438,10.839609,46.296265,12.2,46.5C12.384422,46.52587,12.513715,46.695288,12.49,46.88L12.49,46.88C12.450299,47.059048,12.282343,47.179632,12.1,47.16C10.881492,46.979622,9.636837,47.16041,8.52,47.68C8.454962,47.722206,8.375732,47.736612,8.3,47.72Z" fill="rgb(112,112,112)" stroke="none" stroke-width="1"/></g><g id="e1mBLiAYSK4213"><path id="e1mBLiAYSK4214" d="M46.36,47.66L46.22,47.66C45.100858,47.159896,43.859361,46.999927,42.65,47.2C42.460907,47.224519,42.285493,47.097344,42.25,46.91C42.231647,46.726766,42.358418,46.560652,42.54,46.53C43.894494,46.30397,45.285555,46.48133,46.54,47.04C46.709604,47.113378,46.789545,47.308788,46.72,47.48C46.665349,47.599719,46.541065,47.671884,46.41,47.66Z" fill="rgb(112,112,112)" stroke="none" stroke-width="1"/></g><g id="e1mBLiAYSK4215"><path id="e1mBLiAYSK4216" d="M9,50.32C8.815921,50.32573,8.660744,50.183855,8.65,50C8.650772,49.897888,8.698773,49.801885,8.78,49.74C9.868227,48.921845,11.171423,48.438793,12.53,48.35C12.711061,48.332097,12.874127,48.459906,12.9,48.64L12.9,48.64C12.908317,48.73025,12.880258,48.820085,12.822052,48.889557C12.763846,48.959028,12.680312,49.002385,12.59,49.01L12.59,49.01C11.358688,49.099038,10.177145,49.532155,9.18,50.26C9.128811,50.300339,9.065154,50.321558,9,50.32Z" fill="rgb(112,112,112)" stroke="none" stroke-width="1"/></g><g id="e1mBLiAYSK4217"><path id="e1mBLiAYSK4218" d="M45.73,50.32C45.657935,50.316664,45.588417,50.292332,45.53,50.25C44.532855,49.522155,43.351312,49.089038,42.12,49C41.930543,48.984054,41.788466,48.819777,41.8,48.63C41.805146,48.54242,41.844955,48.460493,41.91063,48.402324C41.976305,48.344155,42.062439,48.314532,42.15,48.32L42.15,48.32C43.503189,48.419601,44.800222,48.901653,45.89,49.71C45.961642,49.760365,46.010326,49.837142,46.025331,49.923421C46.040336,50.0097,46.020431,50.098405,45.97,50.17L45.97,50.17C45.909345,50.259187,45.807843,50.311818,45.7,50.31Z" fill="rgb(112,112,112)" stroke="none" stroke-width="1"/></g></g><g id="e1mBLiAYSK4219"><g id="e1mBLiAYSK4220"><path id="e1mBLiAYSK4221" d="M26.11,30.86C25.825549,30.858541,25.584136,30.65101,25.54,30.37C25.47,29.79,25.07,28.03,24.24,27.57C23.966753,27.423988,23.860165,27.086459,24,26.81L24,26.81C24.160474,26.541962,24.499771,26.441913,24.78,26.58C26.26,27.41,26.62,29.99,26.65,30.23C26.691396,30.542034,26.472028,30.828556,26.16,30.87Z" fill="rgb(128,75,51)" stroke="none" stroke-width="1"/></g><path id="e1mBLiAYSK4222" d="M21,25.89C20.38,26.75,22.66,28.58,24.41,28.02C26.16,27.46,24.41,25.49,23.71,25.19C22.750031,24.817908,21.659681,25.099548,21,25.89Z" fill="rgb(108,206,157)" stroke="none" stroke-width="1"/><g id="e1mBLiAYSK4223"><path id="e1mBLiAYSK4224" d="M29.1,25.63C29.78,26.41,27.79,28.53,25.97,28.16C24.15,27.79,25.62,25.66,26.32,25.26C27.232063,24.785267,28.343855,24.93324,29.1,25.63Z" fill="rgb(108,206,157)" stroke="none" stroke-width="1"/></g></g></g></g></g><g id="e1mBLiAYSK4225_tr" transform="translate(11.042868,44.220829) rotate(0)"><path id="e1mBLiAYSK4225" d="M20.45,45.7L20.45,45.7C19.22,46.43,16.01,45.98,14.61,45.53C13.45114,45.071323,12.322249,44.540277,11.23,43.94C11.124887,43.854039,11.058394,43.729708,11.045254,43.594559C11.032115,43.459409,11.073414,43.324599,11.16,43.22L11.16,43.22C11.33,43,11.64,43.07,12,43.27C13.010855,43.880778,14.09655,44.358081,15.23,44.69C16.5,44.99,18.95,45.41,19.93,44.83C20.041358,44.752983,20.178771,44.723409,20.311953,44.747794C20.445135,44.77218,20.563155,44.848524,20.64,44.96C20.718818,45.071716,20.748451,45.210834,20.722001,45.344972C20.695551,45.47911,20.615326,45.596566,20.5,45.67L20.5,45.67Z" transform="translate(-11.042848,-44.220829)" fill="url(#e1mBLiAYSK4225-fill)" stroke="none" stroke-width="1"/></g><g id="e1mBLiAYSK4226_tr" transform="translate(43.397457,44.220829) rotate(0)"><path id="e1mBLiAYSK4226" d="M34.29,45.7L34.29,45.7C35.52,46.43,38.74,45.98,40.14,45.53C41.29886,45.071323,42.427751,44.540277,43.52,43.94C43.625113,43.854039,43.691606,43.729708,43.704746,43.594559C43.717885,43.459409,43.676586,43.324599,43.59,43.22L43.59,43.22C43.42,43,43.11,43.06,42.75,43.27C41.736587,43.882679,40.647334,44.360068,39.51,44.69C38.24,44.98,35.79,45.4,34.81,44.82C34.566995,44.676406,34.253594,44.756995,34.11,45C33.966406,45.243005,34.046995,45.556406,34.29,45.7Z" transform="translate(-43.397457,-44.220829)" fill="url(#e1mBLiAYSK4226-fill)" stroke="none" stroke-width="1"/></g><g id="e1mBLiAYSK4227_to" transform="translate(27.307831,49.167482)"><g id="e1mBLiAYSK4227" transform="translate(-27.307831,-49.167482)"><g id="e1mBLiAYSK4228"><g id="e1mBLiAYSK4229"><path id="e1mBLiAYSK4230" d="M36.78,44.23C36.423591,43.416401,35.662248,42.853007,34.78,42.75C29.824171,41.810092,24.735829,41.810092,19.78,42.75C18.898525,42.854958,18.138049,43.41771,17.78,44.23C16.530322,47.41169,16.530322,50.94831,17.78,54.13C18.138049,54.94229,18.898525,55.505042,19.78,55.61C24.735829,56.549908,29.824171,56.549908,34.78,55.61C35.662248,55.506993,36.423591,54.943599,36.78,54.13C38.039676,50.950211,38.039676,47.409789,36.78,44.23Z" fill="url(#e1mBLiAYSK4230-fill)" stroke="none" stroke-width="1"/><path id="e1mBLiAYSK4231" d="M36.78,44.23C36.423591,43.416401,35.662248,42.853007,34.78,42.75C29.824171,41.810092,24.735829,41.810092,19.78,42.75C18.898525,42.854958,18.138049,43.41771,17.78,44.23C16.530322,47.41169,16.530322,50.94831,17.78,54.13C18.138049,54.94229,18.898525,55.505042,19.78,55.61C24.735829,56.549908,29.824171,56.549908,34.78,55.61C35.662248,55.506993,36.423591,54.943599,36.78,54.13C38.039676,50.950211,38.039676,47.409789,36.78,44.23Z" fill="url(#e1mBLiAYSK4231-fill)" stroke="none" stroke-width="1"/><path id="e1mBLiAYSK4232" d="M18.27,44.32C24.270588,43.18989,30.429412,43.18989,36.43,44.32C36.579119,44.346047,36.726167,44.382809,36.87,44.43C37,44.43,37.12,44.37,37.08,44.25L37.08,44.25C36.722107,43.432465,35.964294,42.860316,35.08,42.74C29.978095,41.780052,24.741905,41.780052,19.64,42.74C18.755706,42.860316,17.997893,43.432465,17.64,44.25L17.64,44.25C17.59,44.37,17.72,44.47,17.85,44.43C17.987392,44.384013,18.127705,44.347264,18.27,44.32Z" fill="url(#e1mBLiAYSK4232-fill)" stroke="none" stroke-width="1"/><path id="e1mBLiAYSK4233" d="M17.41,52.76C17.529874,53.226018,17.680197,53.683667,17.86,54.13C18.218049,54.94229,18.978525,55.505042,19.86,55.61C24.836005,56.549903,29.943995,56.549903,34.92,55.61C35.799945,55.501201,36.558725,54.939704,36.92,54.13C37.09,53.67,37.24,53.22,37.37,52.76Z" fill="url(#e1mBLiAYSK4233-fill)" stroke="none" stroke-width="1"/><path id="e1mBLiAYSK4234" d="M34.83,55.61C35.712248,55.506993,36.473591,54.943599,36.83,54.13C37.808865,51.667695,38.031682,48.969525,37.47,46.38C30.808723,45.16011,23.981277,45.16011,17.32,46.38C16.781268,48.974091,17.017756,51.669362,18,54.13C18.352169,54.925899,19.088704,55.48491,19.95,55.61C24.866871,56.535032,29.913129,56.535032,34.83,55.61Z" fill="url(#e1mBLiAYSK4234-fill)" stroke="none" stroke-width="1"/><path id="e1mBLiAYSK4235" d="M34.83,55.61C35.712248,55.506993,36.473591,54.943599,36.83,54.13C37.406191,52.651893,37.72415,51.085779,37.77,49.5C30.906755,48.210017,23.863245,48.210017,17,49.5C17.042459,51.085216,17.357037,52.651343,17.93,54.13C18.279054,54.928356,19.017175,55.488571,19.88,55.61C24.819049,56.549536,29.890951,56.549536,34.83,55.61Z" fill="url(#e1mBLiAYSK4235-fill)" stroke="none" stroke-width="1"/><path id="e1mBLiAYSK4236" d="M34.88,55.61C35.759945,55.501201,36.518725,54.939704,36.88,54.13C37.05,53.66,37.21,53.2,37.34,52.73C30.759137,51.550083,24.020863,51.550083,17.44,52.73C17.57,53.2,17.72,53.66,17.9,54.13C18.258049,54.94229,19.018525,55.505042,19.9,55.61C24.850022,56.54009,29.929978,56.54009,34.88,55.61Z" fill="url(#e1mBLiAYSK4236-fill)" stroke="none" stroke-width="1"/></g></g></g></g></g><g id="e1mBLiAYSK4237_to" transform="translate(37.413941,57.19)"><g id="e1mBLiAYSK4237" transform="translate(-37.41394,-57.19)"><path id="e1mBLiAYSK4238" style="isolation:isolate" d="M31.18,54.36C31.18,58.36,35.58,60.19,36.68,59.36C37.78,58.53,35.05,53.82,35.05,53.82C35.05,53.82,31.17,51.69,31.18,54.36Z" opacity="0.1" fill="rgb(0,0,0)" stroke="none" stroke-width="1"/><path id="e1mBLiAYSK4239" d="M32.09,54C31.51,57.08,35.43,59.59,36.76,59.16C38.09,58.73,36.98,54.34,36.98,54.34C36.98,54.34,32.66,50.93,32.09,54Z" fill="rgb(163,216,242)" stroke="none" stroke-width="1"/></g></g><g id="e1mBLiAYSK4240_to" transform="translate(18.07,57.19)"><g id="e1mBLiAYSK4240" transform="translate(-18.07,-57.189997)"><path id="e1mBLiAYSK4241" style="isolation:isolate" d="M23.83,54.36C23.83,58.36,19.43,60.18,18.33,59.36C17.23,58.54,20,53.82,20,53.82C20,53.82,23.84,51.69,23.83,54.36Z" opacity="0.1" fill="rgb(0,0,0)" stroke="none" stroke-width="1"/><path id="e1mBLiAYSK4242" d="M23.07,54C23.65,57.08,19.73,59.59,18.4,59.16C17.07,58.73,18.18,54.34,18.18,54.34C18.18,54.34,22.5,50.93,23.07,54Z" fill="rgb(163,216,242)" stroke="none" stroke-width="1"/></g></g></g></g></g></g></svg>