<svg id="ePa9SYuH4G51" xmlns="http://www.w3.org/2000/svg" xmlns:xlink="http://www.w3.org/1999/xlink" viewBox="0 0 110 100" shape-rendering="geometricPrecision" text-rendering="geometricPrecision"><style><![CDATA[#ePa9SYuH4G54_to {animation: ePa9SYuH4G54_to__to 6000ms linear infinite normal forwards}@keyframes ePa9SYuH4G54_to__to { 0% {transform: translate(15.092864px,73.8px);animation-timing-function: cubic-bezier(0.42,0,0.58,1)} 5% {transform: translate(15.092864px,94.8px);animation-timing-function: cubic-bezier(0.42,0,0.58,1)} 16.666667% {transform: translate(15.092864px,94.8px);animation-timing-function: cubic-bezier(0.42,0,0.58,1)} 23.333333% {transform: translate(15.092864px,73.8px);animation-timing-function: cubic-bezier(0.42,0,0.58,1)} 33.333333% {transform: translate(15.092864px,73.8px);animation-timing-function: cubic-bezier(0.42,0,0.58,1)} 40% {transform: translate(15.092864px,94.8px);animation-timing-function: cubic-bezier(0.42,0,0.58,1)} 51.666667% {transform: translate(15.092864px,94.8px);animation-timing-function: cubic-bezier(0.42,0,0.58,1)} 58.333333% {transform: translate(15.092864px,73.8px);animation-timing-function: cubic-bezier(0.42,0,0.58,1)} 66.666667% {transform: translate(15.092864px,73.8px);animation-timing-function: cubic-bezier(0.42,0,0.58,1)} 73.333333% {transform: translate(15.092864px,94.8px);animation-timing-function: cubic-bezier(0.42,0,0.58,1)} 85% {transform: translate(15.092864px,94.8px);animation-timing-function: cubic-bezier(0.42,0,0.58,1)} 91.666667% {transform: translate(15.092864px,73.8px)} 100% {transform: translate(15.092864px,73.8px)}} #ePa9SYuH4G54_tr {animation: ePa9SYuH4G54_tr__tr 6000ms linear infinite normal forwards}@keyframes ePa9SYuH4G54_tr__tr { 0% {transform: rotate(0deg);animation-timing-function: cubic-bezier(0.42,0,0.58,1)} 5% {transform: rotate(22.470509deg);animation-timing-function: cubic-bezier(0.42,0,0.58,1)} 6.666667% {transform: rotate(20.206861deg);animation-timing-function: cubic-bezier(0.42,0,0.58,1)} 10% {transform: rotate(22.809667deg);animation-timing-function: cubic-bezier(0.42,0,0.58,1)} 13.333333% {transform: rotate(20.36624deg);animation-timing-function: cubic-bezier(0.42,0,0.58,1)} 16.666667% {transform: rotate(22.470509deg);animation-timing-function: cubic-bezier(0.42,0,0.58,1)} 23.333333% {transform: rotate(0deg);animation-timing-function: cubic-bezier(0.42,0,0.58,1)} 33.333333% {transform: rotate(0deg);animation-timing-function: cubic-bezier(0.42,0,0.58,1)} 40% {transform: rotate(22.470509deg);animation-timing-function: cubic-bezier(0.42,0,0.58,1)} 41.666667% {transform: rotate(20.206861deg);animation-timing-function: cubic-bezier(0.42,0,0.58,1)} 45% {transform: rotate(22.809667deg);animation-timing-function: cubic-bezier(0.42,0,0.58,1)} 48.333333% {transform: rotate(20.36624deg);animation-timing-function: cubic-bezier(0.42,0,0.58,1)} 51.666667% {transform: rotate(22.470509deg);animation-timing-function: cubic-bezier(0.42,0,0.58,1)} 58.333333% {transform: rotate(0deg);animation-timing-function: cubic-bezier(0.42,0,0.58,1)} 66.666667% {transform: rotate(0deg);animation-timing-function: cubic-bezier(0.42,0,0.58,1)} 73.333333% {transform: rotate(22.470509deg);animation-timing-function: cubic-bezier(0.42,0,0.58,1)} 75% {transform: rotate(20.206861deg);animation-timing-function: cubic-bezier(0.42,0,0.58,1)} 78.333333% {transform: rotate(22.809667deg);animation-timing-function: cubic-bezier(0.42,0,0.58,1)} 81.666667% {transform: rotate(20.36624deg);animation-timing-function: cubic-bezier(0.42,0,0.58,1)} 85% {transform: rotate(22.470509deg);animation-timing-function: cubic-bezier(0.42,0,0.58,1)} 91.666667% {transform: rotate(0deg)} 100% {transform: rotate(0deg)}} #ePa9SYuH4G529_tr {animation: ePa9SYuH4G529_tr__tr 6000ms linear infinite normal forwards}@keyframes ePa9SYuH4G529_tr__tr { 0% {transform: translate(17.179108px,73.050835px) rotate(0deg);animation-timing-function: cubic-bezier(0.42,0,0.58,1)} 5% {transform: translate(17.179108px,73.050835px) rotate(39.016843deg);animation-timing-function: cubic-bezier(0.42,0,0.58,1)} 16.666667% {transform: translate(17.179108px,73.050835px) rotate(39.016843deg);animation-timing-function: cubic-bezier(0.42,0,0.58,1)} 23.333333% {transform: translate(17.179108px,73.050835px) rotate(0deg);animation-timing-function: cubic-bezier(0.42,0,0.58,1)} 33.333333% {transform: translate(17.179108px,73.050835px) rotate(0deg);animation-timing-function: cubic-bezier(0.42,0,0.58,1)} 40% {transform: translate(17.179108px,73.050835px) rotate(39.016843deg);animation-timing-function: cubic-bezier(0.42,0,0.58,1)} 51.666667% {transform: translate(17.179108px,73.050835px) rotate(39.016843deg);animation-timing-function: cubic-bezier(0.42,0,0.58,1)} 58.333333% {transform: translate(17.179108px,73.050835px) rotate(0deg);animation-timing-function: cubic-bezier(0.42,0,0.58,1)} 66.666667% {transform: translate(17.179108px,73.050835px) rotate(0deg);animation-timing-function: cubic-bezier(0.42,0,0.58,1)} 73.333333% {transform: translate(17.179108px,73.050835px) rotate(39.016843deg);animation-timing-function: cubic-bezier(0.42,0,0.58,1)} 85% {transform: translate(17.179108px,73.050835px) rotate(39.016843deg);animation-timing-function: cubic-bezier(0.42,0,0.58,1)} 91.666667% {transform: translate(17.179108px,73.050835px) rotate(0deg)} 100% {transform: translate(17.179108px,73.050835px) rotate(0deg)}} #ePa9SYuH4G547_to {animation: ePa9SYuH4G547_to__to 6000ms linear infinite normal forwards}@keyframes ePa9SYuH4G547_to__to { 0% {transform: translate(30.567349px,61.988468px);animation-timing-function: cubic-bezier(0.42,0,0.58,1)} 5% {transform: translate(30.567349px,86.988468px);animation-timing-function: cubic-bezier(0.42,0,0.58,1)} 40% {transform: translate(30.567349px,86.988468px);animation-timing-function: cubic-bezier(0.42,0,0.58,1)} 85% {transform: translate(30.567349px,86.988468px);animation-timing-function: cubic-bezier(0.42,0,0.58,1)} 91.666667% {transform: translate(30.567349px,61.988468px)} 100% {transform: translate(30.567349px,61.988468px)}} #ePa9SYuH4G5109_to {animation: ePa9SYuH4G5109_to__to 6000ms linear infinite normal forwards}@keyframes ePa9SYuH4G5109_to__to { 0% {transform: translate(32.138567px,94.373957px);animation-timing-function: cubic-bezier(0.42,0,0.58,1)} 16.666667% {transform: translate(32.138567px,94.373957px);animation-timing-function: cubic-bezier(0.42,0,0.58,1)} 23.333333% {transform: translate(33.138567px,58.373957px);animation-timing-function: cubic-bezier(0.42,0,0.58,1)} 33.333333% {transform: translate(33.138567px,58.373957px);animation-timing-function: cubic-bezier(0.42,0,0.58,1)} 40% {transform: translate(32.138567px,94.373957px)} 100% {transform: translate(32.138567px,94.373957px)}} #ePa9SYuH4G5149_to {animation: ePa9SYuH4G5149_to__to 6000ms linear infinite normal forwards}@keyframes ePa9SYuH4G5149_to__to { 0% {transform: translate(36.4205px,103.332443px);animation-timing-function: cubic-bezier(0.42,0,0.58,1)} 51.666667% {transform: translate(36.4205px,103.332443px);animation-timing-function: cubic-bezier(0.42,0,0.58,1)} 58.333333% {transform: translate(28.4205px,60.332443px);animation-timing-function: cubic-bezier(0.42,0,0.58,1)} 66.666667% {transform: translate(28.4205px,60.332443px);animation-timing-function: cubic-bezier(0.42,0,0.58,1)} 73.333333% {transform: translate(36.4205px,103.332443px)} 100% {transform: translate(36.4205px,103.332443px)}} #ePa9SYuH4G5175_to {animation: ePa9SYuH4G5175_to__to 6000ms linear infinite normal forwards}@keyframes ePa9SYuH4G5175_to__to { 0% {transform: translate(14.940001px,63.35px);animation-timing-function: cubic-bezier(0.42,0,0.58,1)} 5% {transform: translate(17.940001px,87.35px);animation-timing-function: cubic-bezier(0.42,0,0.58,1)} 16.666667% {transform: translate(17.940001px,87.35px);animation-timing-function: cubic-bezier(0.42,0,0.58,1)} 23.333333% {transform: translate(14.940001px,63.35px);animation-timing-function: cubic-bezier(0.42,0,0.58,1)} 33.333333% {transform: translate(14.940001px,63.35px);animation-timing-function: cubic-bezier(0.42,0,0.58,1)} 40% {transform: translate(17.940001px,87.35px);animation-timing-function: cubic-bezier(0.42,0,0.58,1)} 51.666667% {transform: translate(17.940001px,87.35px);animation-timing-function: cubic-bezier(0.42,0,0.58,1)} 58.333333% {transform: translate(14.940001px,63.35px);animation-timing-function: cubic-bezier(0.42,0,0.58,1)} 66.666667% {transform: translate(14.940001px,63.35px);animation-timing-function: cubic-bezier(0.42,0,0.58,1)} 73.333333% {transform: translate(17.940001px,87.35px);animation-timing-function: cubic-bezier(0.42,0,0.58,1)} 85% {transform: translate(17.940001px,87.35px);animation-timing-function: cubic-bezier(0.42,0,0.58,1)} 91.666667% {transform: translate(14.940001px,63.35px)} 100% {transform: translate(14.940001px,63.35px)}} #ePa9SYuH4G5175_tr {animation: ePa9SYuH4G5175_tr__tr 6000ms linear infinite normal forwards}@keyframes ePa9SYuH4G5175_tr__tr { 0% {transform: rotate(0deg);animation-timing-function: cubic-bezier(0.42,0,0.58,1)} 58.333333% {transform: rotate(0deg);animation-timing-function: cubic-bezier(0.42,0,0.58,1)} 66.666667% {transform: rotate(0deg);animation-timing-function: cubic-bezier(0.42,0,0.58,1)} 91.666667% {transform: rotate(0deg)} 100% {transform: rotate(0deg)}} #ePa9SYuH4G5218_tr {animation: ePa9SYuH4G5218_tr__tr 6000ms linear infinite normal forwards}@keyframes ePa9SYuH4G5218_tr__tr { 0% {transform: translate(71.221026px,83.780388px) rotate(0deg)} 5% {transform: translate(71.221026px,83.780388px) rotate(0deg)} 10% {transform: translate(71.221026px,83.780388px) rotate(-2deg)} 18.333333% {transform: translate(71.221026px,83.780388px) rotate(2deg)} 28.333333% {transform: translate(71.221026px,83.780388px) rotate(-2deg)} 38.333333% {transform: translate(71.221026px,83.780388px) rotate(2deg)} 48.333333% {transform: translate(71.221026px,83.780388px) rotate(-2deg)} 58.333333% {transform: translate(71.221026px,83.780388px) rotate(2deg)} 70% {transform: translate(71.221026px,83.780388px) rotate(-2deg)} 76.666667% {transform: translate(71.221026px,83.780388px) rotate(0deg)} 100% {transform: translate(71.221026px,83.780388px) rotate(0deg)}} #ePa9SYuH4G5240_to {animation: ePa9SYuH4G5240_to__to 6000ms linear infinite normal forwards}@keyframes ePa9SYuH4G5240_to__to { 0% {transform: translate(60.279083px,71.435993px)} 16.666667% {transform: translate(60.279083px,71.435993px)} 100% {transform: translate(60.279083px,71.435993px)}} #ePa9SYuH4G5240_tr {animation: ePa9SYuH4G5240_tr__tr 6000ms linear infinite normal forwards}@keyframes ePa9SYuH4G5240_tr__tr { 0% {transform: rotate(-22.364091deg);animation-timing-function: cubic-bezier(0.42,0,0.58,1)} 16.666667% {transform: rotate(-22.364091deg);animation-timing-function: cubic-bezier(0.42,0,0.58,1)} 21.666667% {transform: rotate(54.364277deg);animation-timing-function: cubic-bezier(0.42,0,0.58,1)} 28.333333% {transform: rotate(54.364277deg);animation-timing-function: cubic-bezier(0.42,0,0.58,1)} 35% {transform: rotate(-22.364091deg);animation-timing-function: cubic-bezier(0.42,0,0.58,1)} 51.666667% {transform: rotate(-22.364091deg);animation-timing-function: cubic-bezier(0.42,0,0.58,1)} 56.666667% {transform: rotate(54.364277deg);animation-timing-function: cubic-bezier(0.42,0,0.58,1)} 61.666667% {transform: rotate(54.364277deg);animation-timing-function: cubic-bezier(0.42,0,0.58,1)} 70% {transform: rotate(-22.364091deg);animation-timing-function: cubic-bezier(0.42,0,0.58,1)} 83.333333% {transform: rotate(-22.364091deg);animation-timing-function: cubic-bezier(0.42,0,0.58,1)} 88.333333% {transform: rotate(54.364277deg);animation-timing-function: cubic-bezier(0.42,0,0.58,1)} 93.333333% {transform: rotate(54.364277deg);animation-timing-function: cubic-bezier(0.42,0,0.58,1)} 100% {transform: rotate(-22.364091deg)}} #ePa9SYuH4G5251_tr {animation: ePa9SYuH4G5251_tr__tr 6000ms linear infinite normal forwards}@keyframes ePa9SYuH4G5251_tr__tr { 0% {transform: translate(71.385029px,73.15px) rotate(0deg)} 5% {transform: translate(71.385029px,73.15px) rotate(0deg)} 10% {transform: translate(71.385029px,73.15px) rotate(-2deg)} 18.333333% {transform: translate(71.385029px,73.15px) rotate(2deg)} 28.333333% {transform: translate(71.385029px,73.15px) rotate(-2deg)} 38.333333% {transform: translate(71.385029px,73.15px) rotate(2deg)} 48.333333% {transform: translate(71.385029px,73.15px) rotate(-2deg)} 58.333333% {transform: translate(71.385029px,73.15px) rotate(2deg)} 70% {transform: translate(71.385029px,73.15px) rotate(-2deg)} 76.666667% {transform: translate(71.385029px,73.15px) rotate(0deg)} 100% {transform: translate(71.385029px,73.15px) rotate(0deg)}} #ePa9SYuH4G5300_to {animation: ePa9SYuH4G5300_to__to 6000ms linear infinite normal forwards}@keyframes ePa9SYuH4G5300_to__to { 0% {transform: translate(69.2px,50px)} 5% {transform: translate(69.2px,50px);animation-timing-function: cubic-bezier(0.42,0,0.58,1)} 10% {transform: translate(68px,50px);animation-timing-function: cubic-bezier(0.42,0,0.58,1)} 18.333333% {transform: translate(70.2px,50px);animation-timing-function: cubic-bezier(0.42,0,0.58,1)} 28.333333% {transform: translate(68px,50px);animation-timing-function: cubic-bezier(0.42,0,0.58,1)} 38.333333% {transform: translate(70.2px,50px);animation-timing-function: cubic-bezier(0.42,0,0.58,1)} 48.333333% {transform: translate(68px,50px);animation-timing-function: cubic-bezier(0.42,0,0.58,1)} 58.333333% {transform: translate(70.2px,50px);animation-timing-function: cubic-bezier(0.42,0,0.58,1)} 70% {transform: translate(68px,50px);animation-timing-function: cubic-bezier(0.42,0,0.58,1)} 76.666667% {transform: translate(69.2px,50px)} 100% {transform: translate(69.2px,50px)}} #ePa9SYuH4G5300_tr {animation: ePa9SYuH4G5300_tr__tr 6000ms linear infinite normal forwards}@keyframes ePa9SYuH4G5300_tr__tr { 0% {transform: rotate(0deg)} 5% {transform: rotate(0deg);animation-timing-function: cubic-bezier(0.42,0,0.58,1)} 10% {transform: rotate(-2deg);animation-timing-function: cubic-bezier(0.42,0,0.58,1)} 18.333333% {transform: rotate(2deg);animation-timing-function: cubic-bezier(0.42,0,0.58,1)} 28.333333% {transform: rotate(-2deg);animation-timing-function: cubic-bezier(0.42,0,0.58,1)} 38.333333% {transform: rotate(2deg);animation-timing-function: cubic-bezier(0.42,0,0.58,1)} 48.333333% {transform: rotate(-2deg);animation-timing-function: cubic-bezier(0.42,0,0.58,1)} 58.333333% {transform: rotate(2deg);animation-timing-function: cubic-bezier(0.42,0,0.58,1)} 70% {transform: rotate(-2deg);animation-timing-function: cubic-bezier(0.42,0,0.58,1)} 76.666667% {transform: rotate(0deg)} 100% {transform: rotate(0deg)}}]]></style><defs><linearGradient id="ePa9SYuH4G5183-fill" x1="222.0672" y1="2.0918" x2="228.9154" y2="2.0918" spreadMethod="pad" gradientUnits="userSpaceOnUse" gradientTransform="matrix(1 0 0 1 0 0)"><stop id="ePa9SYuH4G5183-fill-0" offset="0%" stop-color="rgb(219,140,86)"/><stop id="ePa9SYuH4G5183-fill-1" offset="100%" stop-color="rgb(204,124,76)"/></linearGradient><linearGradient id="ePa9SYuH4G5184-fill" x1="215.6426" y1="2.0918" x2="222.4908" y2="2.0918" spreadMethod="pad" gradientUnits="userSpaceOnUse" gradientTransform="matrix(1 0 0 1 0 0)"><stop id="ePa9SYuH4G5184-fill-0" offset="0%" stop-color="rgb(219,140,86)"/><stop id="ePa9SYuH4G5184-fill-1" offset="100%" stop-color="rgb(204,124,76)"/></linearGradient><linearGradient id="ePa9SYuH4G5185-fill" x1="237.4596" y1="86.4918" x2="244.3296" y2="86.4918" spreadMethod="pad" gradientUnits="userSpaceOnUse" gradientTransform="matrix(1 0 0 1 0 0)"><stop id="ePa9SYuH4G5185-fill-0" offset="0%" stop-color="rgb(219,140,86)"/><stop id="ePa9SYuH4G5185-fill-1" offset="100%" stop-color="rgb(204,124,76)"/></linearGradient><linearGradient id="ePa9SYuH4G5186-fill" x1="257.34" y1="86.4918" x2="264.237" y2="86.4918" spreadMethod="pad" gradientUnits="userSpaceOnUse" gradientTransform="matrix(1 0 0 1 0 0)"><stop id="ePa9SYuH4G5186-fill-0" offset="0%" stop-color="rgb(219,140,86)"/><stop id="ePa9SYuH4G5186-fill-1" offset="100%" stop-color="rgb(204,124,76)"/></linearGradient><linearGradient id="ePa9SYuH4G5187-fill" x1="222.6248" y1="2.0918" x2="229.473" y2="2.0918" spreadMethod="pad" gradientUnits="userSpaceOnUse" gradientTransform="matrix(1 0 0 1 0 0)"><stop id="ePa9SYuH4G5187-fill-0" offset="0%" stop-color="rgb(219,140,86)"/><stop id="ePa9SYuH4G5187-fill-1" offset="100%" stop-color="rgb(204,124,76)"/></linearGradient><linearGradient id="ePa9SYuH4G5188-fill" x1="215.4914" y1="2.0918" x2="222.3396" y2="2.0918" spreadMethod="pad" gradientUnits="userSpaceOnUse" gradientTransform="matrix(1 0 0 1 0 0)"><stop id="ePa9SYuH4G5188-fill-0" offset="0%" stop-color="rgb(219,140,86)"/><stop id="ePa9SYuH4G5188-fill-1" offset="100%" stop-color="rgb(204,124,76)"/></linearGradient><linearGradient id="ePa9SYuH4G5189-fill" x1="209.1474" y1="2.0918" x2="215.9956" y2="2.0918" spreadMethod="pad" gradientUnits="userSpaceOnUse" gradientTransform="matrix(1 0 0 1 0 0)"><stop id="ePa9SYuH4G5189-fill-0" offset="0%" stop-color="rgb(219,140,86)"/><stop id="ePa9SYuH4G5189-fill-1" offset="100%" stop-color="rgb(204,124,76)"/></linearGradient><linearGradient id="ePa9SYuH4G5190-fill" x1="229.1906" y1="2.0918" x2="236.0388" y2="2.0918" spreadMethod="pad" gradientUnits="userSpaceOnUse" gradientTransform="matrix(1 0 0 1 0 0)"><stop id="ePa9SYuH4G5190-fill-0" offset="0%" stop-color="rgb(219,140,86)"/><stop id="ePa9SYuH4G5190-fill-1" offset="100%" stop-color="rgb(204,124,76)"/></linearGradient><linearGradient id="ePa9SYuH4G5191-fill" x1="222.0572" y1="2.0918" x2="228.9054" y2="2.0918" spreadMethod="pad" gradientUnits="userSpaceOnUse" gradientTransform="matrix(1 0 0 1 0 0)"><stop id="ePa9SYuH4G5191-fill-0" offset="0%" stop-color="rgb(219,140,86)"/><stop id="ePa9SYuH4G5191-fill-1" offset="100%" stop-color="rgb(204,124,76)"/></linearGradient><linearGradient id="ePa9SYuH4G5192-fill" x1="215.7132" y1="2.0918" x2="222.5614" y2="2.0918" spreadMethod="pad" gradientUnits="userSpaceOnUse" gradientTransform="matrix(1 0 0 1 0 0)"><stop id="ePa9SYuH4G5192-fill-0" offset="0%" stop-color="rgb(219,140,86)"/><stop id="ePa9SYuH4G5192-fill-1" offset="100%" stop-color="rgb(204,124,76)"/></linearGradient><linearGradient id="ePa9SYuH4G5194-fill" x1="32.571" y1="84.5776" x2="32.571" y2="91.214" spreadMethod="pad" gradientUnits="userSpaceOnUse" gradientTransform="matrix(1 0 0 1 0 0)"><stop id="ePa9SYuH4G5194-fill-0" offset="0%" stop-color="rgb(244,177,104)"/><stop id="ePa9SYuH4G5194-fill-1" offset="100%" stop-color="rgb(232,161,93)"/></linearGradient><linearGradient id="ePa9SYuH4G5195-fill" x1="41.116" y1="83.4306" x2="41.116" y2="89.361" spreadMethod="pad" gradientUnits="userSpaceOnUse" gradientTransform="matrix(1 0 0 1 0 0)"><stop id="ePa9SYuH4G5195-fill-0" offset="0%" stop-color="rgb(244,177,104)"/><stop id="ePa9SYuH4G5195-fill-1" offset="100%" stop-color="rgb(232,161,93)"/></linearGradient><linearGradient id="ePa9SYuH4G5196-fill" x1="14.6374" y1="84.6482" x2="14.6374" y2="90.7904" spreadMethod="pad" gradientUnits="userSpaceOnUse" gradientTransform="matrix(1 0 0 1 0 0)"><stop id="ePa9SYuH4G5196-fill-0" offset="0%" stop-color="rgb(244,177,104)"/><stop id="ePa9SYuH4G5196-fill-1" offset="100%" stop-color="rgb(232,161,93)"/></linearGradient><linearGradient id="ePa9SYuH4G5197-fill" x1="22.3102" y1="77.0188" x2="22.3102" y2="83.161" spreadMethod="pad" gradientUnits="userSpaceOnUse" gradientTransform="matrix(1 0 0 1 0 0)"><stop id="ePa9SYuH4G5197-fill-0" offset="0%" stop-color="rgb(244,177,104)"/><stop id="ePa9SYuH4G5197-fill-1" offset="100%" stop-color="rgb(232,161,93)"/></linearGradient><linearGradient id="ePa9SYuH4G5198-fill" x1="10.815" y1="77.0188" x2="10.815" y2="83.161" spreadMethod="pad" gradientUnits="userSpaceOnUse" gradientTransform="matrix(1 0 0 1 0 0)"><stop id="ePa9SYuH4G5198-fill-0" offset="0%" stop-color="rgb(244,177,104)"/><stop id="ePa9SYuH4G5198-fill-1" offset="100%" stop-color="rgb(232,161,93)"/></linearGradient><linearGradient id="ePa9SYuH4G5199-fill" x1="35.9302" y1="76.8776" x2="35.9302" y2="83.6552" spreadMethod="pad" gradientUnits="userSpaceOnUse" gradientTransform="matrix(1 0 0 1 0 0)"><stop id="ePa9SYuH4G5199-fill-0" offset="0%" stop-color="rgb(244,177,104)"/><stop id="ePa9SYuH4G5199-fill-1" offset="100%" stop-color="rgb(232,161,93)"/></linearGradient><linearGradient id="ePa9SYuH4G5200-fill" x1="49.9382" y1="77.15" x2="49.9382" y2="83.5746" spreadMethod="pad" gradientUnits="userSpaceOnUse" gradientTransform="matrix(1 0 0 1 0 0)"><stop id="ePa9SYuH4G5200-fill-0" offset="0%" stop-color="rgb(244,177,104)"/><stop id="ePa9SYuH4G5200-fill-1" offset="100%" stop-color="rgb(232,161,93)"/></linearGradient><linearGradient id="ePa9SYuH4G5201-fill" x1="22.3102" y1="91.1306" x2="22.3102" y2="96.9904" spreadMethod="pad" gradientUnits="userSpaceOnUse" gradientTransform="matrix(1 0 0 1 0 0)"><stop id="ePa9SYuH4G5201-fill-0" offset="0%" stop-color="rgb(244,177,104)"/><stop id="ePa9SYuH4G5201-fill-1" offset="100%" stop-color="rgb(232,161,93)"/></linearGradient><linearGradient id="ePa9SYuH4G5202-fill" x1="14.0869" y1="91.8906" x2="14.0869" y2="98.0328" spreadMethod="pad" gradientUnits="userSpaceOnUse" gradientTransform="matrix(1 0 0 1 0 0)"><stop id="ePa9SYuH4G5202-fill-0" offset="0%" stop-color="rgb(244,177,104)"/><stop id="ePa9SYuH4G5202-fill-1" offset="100%" stop-color="rgb(232,161,93)"/></linearGradient><linearGradient id="ePa9SYuH4G5203-fill" x1="35.9302" y1="90.8482" x2="35.9302" y2="96.9198" spreadMethod="pad" gradientUnits="userSpaceOnUse" gradientTransform="matrix(1 0 0 1 0 0)"><stop id="ePa9SYuH4G5203-fill-0" offset="0%" stop-color="rgb(244,177,104)"/><stop id="ePa9SYuH4G5203-fill-1" offset="100%" stop-color="rgb(232,161,93)"/></linearGradient><linearGradient id="ePa9SYuH4G5204-fill" x1="46.5203" y1="91.5376" x2="46.5203" y2="97.6092" spreadMethod="pad" gradientUnits="userSpaceOnUse" gradientTransform="matrix(1 0 0 1 0 0)"><stop id="ePa9SYuH4G5204-fill-0" offset="0%" stop-color="rgb(244,177,104)"/><stop id="ePa9SYuH4G5204-fill-1" offset="100%" stop-color="rgb(232,161,93)"/></linearGradient></defs><g id="ePa9SYuH4G52" mask="url(#ePa9SYuH4G5304)"><g id="ePa9SYuH4G53"><g id="ePa9SYuH4G54_to" transform="translate(15.092864,73.8)"><g id="ePa9SYuH4G54_tr" transform="rotate(0)"><g id="ePa9SYuH4G54" transform="translate(-15.092863,-72.799991)"><g id="ePa9SYuH4G55"><g id="ePa9SYuH4G56"><g id="ePa9SYuH4G57"><path id="ePa9SYuH4G58" d="M12.46,55.29L11.63,63.29C11.63,63.29,10.63,73.23,17.58,73.29C20.000103,73.122277,22.40579,72.788154,24.78,72.29C29.01,71.7,30.18,72.64,33.29,71.1C36.4,69.56,36.29,66.02,35.43,60.62C35.2,58.97,31.93,52.51,31.93,52.51Z" fill="rgb(163,216,242)" stroke="none" stroke-width="1"/></g></g><g id="ePa9SYuH4G59"><g id="ePa9SYuH4G510"><path id="ePa9SYuH4G511" d="M5.23,50C5.23,50,-1.27,41.84,2.23,38.76C5.73,35.68,12.13,39.49,12.55,39.76C12.55,39.76,18.14,35.85,24.34,36.99C24.69,37.12,29.19,31.36,33.45,32.21C37.71,33.06,35,43.51,35,43.51C35,43.51,36.63,49.76,39.23,50.79C39.44,51.08,37.47,52.45,36.71,52.32C37.445924,52.479948,38.196895,52.560409,38.95,52.56C39.71,52.56,31.7,60.47,22.8,61.63C13.9,62.79,8.15,60.38,7.08,59.83C7.639871,59.509544,8.177733,59.152083,8.69,58.76C8.85,58.64,5.58,58.76,4.08,57.47C3.58,57.09,7.08,54.15,6.2,51.63C5.73,50.21,5.23,50,5.23,50Z" fill="rgb(163,216,242)" stroke="none" stroke-width="1"/></g><g id="ePa9SYuH4G512"><path id="ePa9SYuH4G513" style="isolation:isolate" d="M6.83,46.79C6.83,46.79,8.07,43.09,9.96,42.06C9.96,41.9,5.21,39.8,4.15,41.18C3.09,42.56,6.83,46.79,6.83,46.79Z" opacity="0.2" fill="rgb(0,0,0)" stroke="none" stroke-width="1"/></g><g id="ePa9SYuH4G514" opacity="0.2"><path id="ePa9SYuH4G515" d="M27.27,38.71C27.27,38.71,31.14,39.28,32.46,40.99C32.6,40.99,33.85,35.87,32.3,35.13C30.75,34.39,27.27,38.71,27.27,38.71Z" fill="rgb(0,0,0)" stroke="none" stroke-width="1"/></g><g id="ePa9SYuH4G516"><circle id="ePa9SYuH4G517" r="1.24" transform="matrix(1 0 0 1 13.7 51.37)" fill="rgb(76,84,90)" stroke="none" stroke-width="1"/></g><g id="ePa9SYuH4G518"><circle id="ePa9SYuH4G519" r="1.24" transform="matrix(1 0 0 1 28.42 49.3)" fill="rgb(76,84,90)" stroke="none" stroke-width="1"/></g><g id="ePa9SYuH4G520"><g id="ePa9SYuH4G521"><path id="ePa9SYuH4G522" d="M3.8,57.24C3.671731,57.265106,3.541086,57.209681,3.47,57.1C3.38667,56.940709,3.433623,56.744361,3.58,56.64C4.695003,55.931889,5.98915,55.557176,7.31,55.56C7.394869,55.56,7.476263,55.593714,7.536274,55.653726C7.596286,55.713737,7.63,55.795131,7.63,55.88L7.63,55.88C7.61199,56.05425,7.47425,56.19199,7.3,56.21C6.103716,56.211234,4.933335,56.558528,3.93,57.21C3.887188,57.219502,3.842812,57.219502,3.8,57.21Z" fill="rgb(112,112,112)" stroke="none" stroke-width="1"/></g><g id="ePa9SYuH4G523"><path id="ePa9SYuH4G524" d="M40.46,52C40.417757,52.01375,40.372243,52.01375,40.33,52C39.18394,51.665277,37.96606,51.665277,36.82,52C36.643526,52.052478,36.457343,51.954954,36.4,51.78C36.371098,51.704476,36.373909,51.620482,36.407797,51.54706C36.441684,51.473638,36.503777,51.417005,36.58,51.39L36.58,51.39C37.845461,51.010276,39.194539,51.010276,40.46,51.39C40.632631,51.438673,40.734777,51.616318,40.69,51.79C40.662929,51.900115,40.572116,51.98303,40.46,52Z" fill="rgb(112,112,112)" stroke="none" stroke-width="1"/></g><g id="ePa9SYuH4G525"><path id="ePa9SYuH4G526" d="M4.82,59.64C4.734961,59.657498,4.646462,59.639691,4.574808,59.590665C4.503155,59.541638,4.454497,59.465602,4.44,59.38L4.44,59.38C4.421972,59.26964,4.459361,59.157471,4.54,59.08C5.490232,58.143752,6.692486,57.504403,8,57.24C8.176718,57.195907,8.355744,57.303323,8.4,57.48L8.4,57.48C8.437745,57.658859,8.327312,57.835551,8.15,57.88C6.964688,58.131685,5.873509,58.710183,5,59.55C4.95384,59.602075,4.889356,59.634317,4.82,59.64Z" fill="rgb(112,112,112)" stroke="none" stroke-width="1"/></g><g id="ePa9SYuH4G527"><path id="ePa9SYuH4G528" d="M40.17,54.67C40.104841,54.690051,40.035159,54.690051,39.97,54.67C38.920838,54.10002,37.731304,53.839918,36.54,53.92C36.355806,53.92114,36.200463,53.783058,36.18,53.6C36.17302,53.426367,36.298095,53.275415,36.47,53.25L36.47,53.25C37.783253,53.162091,39.094386,53.449985,40.25,54.08C40.327155,54.122199,40.384275,54.193449,40.408683,54.277936C40.43309,54.362423,40.422765,54.453157,40.38,54.53C40.3267,54.621591,40.234772,54.684102,40.13,54.7Z" fill="rgb(112,112,112)" stroke="none" stroke-width="1"/></g></g></g><g id="ePa9SYuH4G529_tr" transform="translate(17.179108,73.050835) rotate(0)"><g id="ePa9SYuH4G529" transform="translate(-17.179108,-73.050831)"><g id="ePa9SYuH4G530"><path id="ePa9SYuH4G531" d="M15.63,71.41C13.692793,71.552067,11.750762,71.208345,9.98,70.41C7.73,69.13,7.23,67.29,6.63,66.3C5.83,65.16,4.49,63.88,2.87,64.4C1.25,64.92,0.74,67,2.5,69.39C4.26,71.78,10.41,74.15,16.17,72.5C21.93,70.85,15.63,71.41,15.63,71.41Z" fill="rgb(163,216,242)" stroke="none" stroke-width="1"/></g><g id="ePa9SYuH4G532" clip-path="url(#ePa9SYuH4G538)"><g id="ePa9SYuH4G533"><g id="ePa9SYuH4G534"><g id="ePa9SYuH4G535"><g id="ePa9SYuH4G536"><path id="ePa9SYuH4G537" d="M15.63,71.41C13.695575,71.561214,11.754519,71.217055,9.99,70.41C7.74,69.13,7.23,67.3,6.63,66.31C5.83,65.17,4.49,63.88,2.87,64.4C1.25,64.92,0.75,67,2.5,69.4C4.25,71.8,10.42,74.17,16.17,72.51C21.92,70.85,15.63,71.41,15.63,71.41Z" fill="rgb(1,159,222)" stroke="none" stroke-width="1"/></g></g></g></g><clipPath id="ePa9SYuH4G538"><path id="ePa9SYuH4G539" d="M7.63,65.19C5.319397,65.467971,3.356373,67.010622,2.54,69.19C1.35,72.82,0,63.84,0,63.84L3.9,61.51Z" fill="none" stroke="none" stroke-width="1"/></clipPath></g></g></g></g><g id="ePa9SYuH4G540"><g id="ePa9SYuH4G541"><path id="ePa9SYuH4G542" d="M18.66,38.61C18.38961,38.64241,18.134062,38.479027,18.05,38.22C17.91,37.67,17.29,36.02,16.43,35.7C16.150534,35.592429,16.005148,35.284035,16.1,35L16.1,35C16.211618,34.719293,16.525762,34.577707,16.81,34.68C18.36,35.27,19.04,37.68,19.11,37.93C19.183925,38.221107,19.023385,38.520493,18.74,38.62L18.65,38.62Z" fill="rgb(128,75,51)" stroke="none" stroke-width="1"/></g><path id="ePa9SYuH4G543" d="M13.05,34.52C12.58,35.43,15.05,36.89,16.59,36.11C18.13,35.33,16.25,33.68,15.59,33.48C14.608574,33.254395,13.591382,33.670883,13.05,34.52Z" fill="rgb(108,206,157)" stroke="none" stroke-width="1"/><g id="ePa9SYuH4G544"><path id="ePa9SYuH4G545" d="M20.83,33.17C21.59,33.83,19.96,36.17,18.16,36.03C16.36,35.89,17.49,33.67,18.11,33.19C18.924091,32.617731,20.007582,32.609764,20.83,33.17Z" fill="rgb(108,206,157)" stroke="none" stroke-width="1"/></g></g><path id="ePa9SYuH4G546" d="M22.45,59.75C26.407101,59.259501,30.020843,62.047883,30.55,66C31.11,70,28.01,71,24.11,71.52C20.21,72.04,17,72.05,16.4,68C15.807414,64.054832,18.509149,60.370648,22.45,59.75Z" fill="rgb(255,255,255)" stroke="none" stroke-width="1"/></g></g></g><g id="ePa9SYuH4G547_to" transform="translate(30.567349,61.988468)"><g id="ePa9SYuH4G547" transform="scale(1.1,1.1) translate(-27.567349,-59.988468)"><path id="ePa9SYuH4G548" d="M40.79,68.6C37.79,73.85,30.43,72.75,23.06,68.49C15.69,64.23,11.06,58.49,14.06,53.2C15.98,49.88,20.31,47.83,25.13,47.85C25.13,47.85,25.3,48.02,25.36,48.02C25.602074,48.05501,25.847926,48.05501,26.09,48.02C26.19,48.02,26.23,47.88,26.25,47.88C26.975656,47.922764,27.697424,48.016327,28.41,48.16C29.122576,48.303673,28.41,48.31,28.5,48.34C28.815514,48.521661,29.151107,48.665966,29.5,48.77L29.8,48.77C29.882572,48.754073,29.967428,48.754073,30.05,48.77C30.132572,48.785927,30.19,48.94,30.2,48.94C30.463678,49.004799,30.730758,49.054876,31,49.09C31.269242,49.125124,31.17,48.93,31.2,48.94C32.046624,49.255967,32.866017,49.64058,33.65,50.09C34.346132,50.498411,35.014278,50.952751,35.65,51.45C36.285722,51.947249,35.59,51.65,35.65,51.69C35.938573,52.039537,36.24568,52.37335,36.57,52.69C36.658903,52.728412,36.75348,52.752056,36.85,52.76C36.95,52.76,37.01,53.1,37.04,53.13C37.280018,53.346312,37.53389,53.546738,37.8,53.73C37.85,53.73,38.01,53.66,38.02,53.68C38.557927,54.288913,39.049312,54.937407,39.49,55.62C39.930688,56.302593,39.49,55.62,39.49,55.62C39.64,55.86,39.8,56.14,39.94,56.38C39.94,56.38,40.01,56.38,40.02,56.43C42.32,60.66,42.67,65.34,40.79,68.6Z" fill="rgb(239,170,96)" stroke="none" stroke-width="1"/><path id="ePa9SYuH4G549" style="isolation:isolate" d="M39.47,55.68C39.19752,55.671381,38.926395,55.637909,38.66,55.58C38.66,55.47,38.16,54.13,38.01,53.74L38.01,53.74C38.01,53.74,38.01,53.74,38.01,53.74L38.01,53.74C37.95,53.74,37.86,53.81,37.82,53.74C37.555512,53.547396,37.301797,53.340418,37.06,53.12C37.39,53.81,37.69,54.52,37.95,55.24C36.73503,55.27093,35.527413,55.438655,34.35,55.74C34.18263,54.663989,33.914793,53.60603,33.55,52.58C34.571758,52.518178,35.597167,52.561741,36.61,52.71C36.280036,52.395807,35.969464,52.061858,35.68,51.71C35.390536,51.358142,35.68,51.51,35.68,51.47C34.801597,51.395019,33.918403,51.395019,33.04,51.47C32.594828,50.5285,31.961868,49.687955,31.18,49C31.13,49,31.04,49.15,31,49.14C30.727446,49.104937,30.457035,49.054861,30.19,48.99C30.799009,49.800053,31.32184,50.671437,31.75,51.59C30.670177,51.759542,29.608793,52.030748,28.58,52.4C28.288619,51.220244,27.858979,50.079013,27.3,49C28.04,48.89,28.79,48.82,29.52,48.78C29.170013,48.679003,28.834062,48.534544,28.52,48.35C28.205938,48.165456,28.47,48.21,28.44,48.18C27.8,48.27,27.16,48.4,26.53,48.55C26.412247,48.36644,26.305396,48.176111,26.21,47.98L26.12,47.98C25.874566,48.014876,25.625434,48.014876,25.38,47.98L25.38,47.98L25.52,48.2C23.266812,48.835075,21.171764,49.935401,19.37,51.43C21.47638,50.338487,23.740338,49.58271,26.08,49.19C26.667845,50.345484,27.162743,51.545945,27.56,52.78C26.094151,53.400601,24.729119,54.236472,23.51,55.26C24.859211,54.512319,26.301855,53.947368,27.8,53.58C28.272101,55.113899,28.606755,56.68677,28.8,58.28C28.419207,58.540203,28.055155,58.824096,27.71,59.13C28.06512,58.903358,28.439974,58.709237,28.83,58.55C28.864925,58.952577,28.864925,59.357423,28.83,59.76C28.910491,59.336837,28.967246,58.909503,29,58.48C30.493652,57.879412,32.03594,57.407693,33.61,57.07C33.997538,58.541929,34.192498,60.057911,34.19,61.58C34.501089,60.040382,34.578625,58.462703,34.42,56.9C35.702878,56.651532,37.003826,56.507725,38.31,56.47C39.077613,58.684809,39.492669,61.00642,39.54,63.35C39.98702,61.078165,39.952954,58.737862,39.44,56.48L39.93,56.48L39.93,56.48L39.93,56.48L39.93,56.48L39.47,55.72C39.47,55.72,39.47,55.7,39.47,55.68ZM29.05,58.11C29.177156,56.522579,29.093089,54.925303,28.8,53.36C29.941992,53.078275,31.101108,52.871171,32.27,52.74C32.702382,53.8238,33.069701,54.932437,33.37,56.06C31.846919,56.552411,30.394645,57.241568,29.05,58.11Z" opacity="0.51" fill="rgb(121,52,1)" stroke="none" stroke-width="1"/><path id="ePa9SYuH4G550" style="isolation:isolate" d="M27,48.66C27.510546,48.600543,28.015499,48.500221,28.51,48.36C29.004501,48.219779,28.46,48.23,28.43,48.2C27.787265,48.285203,27.149652,48.405382,26.52,48.56C26.402247,48.37644,26.295396,48.186111,26.2,47.99C26.170618,47.998611,26.139382,47.998611,26.11,47.99L26,47.99C26.05178,48.063435,26.098553,48.140275,26.14,48.22C26.186359,48.354254,26.243201,48.484656,26.31,48.61C26.49,48.85,26.8,48.7,27,48.66Z" opacity="0.51" fill="rgb(121,52,1)" stroke="none" stroke-width="1"/><path id="ePa9SYuH4G551" style="isolation:isolate" d="M25.26,48.5C25.34,48.5,25.49,48.44,25.54,48.37C25.59,48.3,25.44,48.1,25.4,48.03L25.4,48.03L25.4,48.03L25.54,48.25C23.28769,48.887278,21.193079,49.987374,19.39,51.48C19.784614,51.237841,20.199504,51.030395,20.63,50.86C20.922216,50.629639,21.229574,50.419166,21.55,50.23C22.063832,49.911392,22.598353,49.627427,23.15,49.38C23.749694,49.09002,24.367674,48.839488,25,48.63Z" opacity="0.51" fill="rgb(121,52,1)" stroke="none" stroke-width="1"/><g id="ePa9SYuH4G552"><path id="ePa9SYuH4G553" style="isolation:isolate" d="M28.5,52.64C28.65,52.64,30.5,51.96,31.68,51.78C31.76,51.78,31.68,51.65,31.68,51.59C30.609914,51.759328,29.558465,52.030562,28.54,52.4C28.260362,51.22366,27.847705,50.082981,27.31,49C28.05,48.89,28.79,48.82,29.52,48.78C29.45,48.78,29.52,48.78,29.52,48.78C28.810366,48.810198,28.102761,48.876953,27.4,48.98C27.19,48.98,27.24,49.18,27.3,49.29C27.52,49.74,28.3,52.07,28.36,52.38C28.35,52.51,28.34,52.63,28.5,52.64Z" opacity="0.51" fill="rgb(121,52,1)" stroke="none" stroke-width="1"/><path id="ePa9SYuH4G554" style="isolation:isolate" d="M31.5,51.07C31.472561,51.02202,31.449148,50.971849,31.43,50.92C31.31,50.7,31.24,50.5,31.11,50.29C30.98,50.08,30.8,49.83,30.64,49.6C30.951645,50.074953,31.23869,50.565599,31.5,51.07Z" opacity="0.51" fill="rgb(121,52,1)" stroke="none" stroke-width="1"/></g><g id="ePa9SYuH4G555"><path id="ePa9SYuH4G556" style="isolation:isolate" d="M27.44,52.37C27.24888,51.793007,27.021768,51.228566,26.76,50.68C26.55,50.23,26.38,49.79,26.13,49.36L26.13,49.36C26.690434,50.474379,27.161902,51.631316,27.54,52.82C26.072414,53.437217,24.706895,54.273387,23.49,55.3C23.897712,55.032808,24.333689,54.811466,24.79,54.64C25.396235,54.248575,26.023882,53.891351,26.67,53.57C26.92,53.42,27.44,53.25,27.5,53.17C27.66,52.92,27.53,52.61,27.44,52.37Z" opacity="0.51" fill="rgb(121,52,1)" stroke="none" stroke-width="1"/></g><path id="ePa9SYuH4G557" style="isolation:isolate" d="M33,51.45C32.563583,50.519659,31.944665,49.6865,31.18,49L31.02,49.13C31.797116,49.826251,32.429192,50.669018,32.88,51.61C32.97,51.79,33.76,51.43,35.63,51.7C35.63,51.64,35.63,51.54,35.63,51.51C34.756989,51.409964,33.876665,51.389881,33,51.45Z" opacity="0.51" fill="rgb(121,52,1)" stroke="none" stroke-width="1"/><g id="ePa9SYuH4G558"><path id="ePa9SYuH4G559" style="isolation:isolate" d="M37.91,55.28C36.694193,55.308731,35.485946,55.479899,34.31,55.79C34.143854,54.71374,33.875987,53.655667,33.51,52.63L33.51,52.63C33.38,52.68,33.36,52.75,33.34,52.92C33.708166,53.915531,33.966367,54.948336,34.11,56C35.288394,55.738603,36.480162,55.541644,37.68,55.41C37.84,55.42,37.89,55.4,37.91,55.28Z" opacity="0.51" fill="rgb(121,52,1)" stroke="none" stroke-width="1"/></g><path id="ePa9SYuH4G560" style="isolation:isolate" d="M39.47,55.68C39.19752,55.671381,38.926395,55.637909,38.66,55.58C38.66,55.47,38.16,54.13,38.01,53.74L38.01,53.74C38.01,53.74,38.01,53.74,38.01,53.74L38.01,53.74L37.87,53.74L37.87,53.74C38.53,55.49,38.49,55.58,38.61,55.66C38.911671,55.70491,39.218329,55.70491,39.52,55.66C39.506145,55.672244,39.488477,55.679312,39.47,55.68Z" opacity="0.51" fill="rgb(121,52,1)" stroke="none" stroke-width="1"/><path id="ePa9SYuH4G561" style="isolation:isolate" d="M33.36,56.06C31.841859,56.534816,30.392765,57.207249,29.05,58.06C29.177035,56.479227,29.092963,54.888575,28.8,53.33L28.8,53.33C28.75,53.4,28.67,53.49,28.71,53.51C28.920036,55.097445,28.990305,56.700264,28.92,58.3C30.302677,57.495704,31.759355,56.825967,33.27,56.3C33.310171,56.224192,33.340419,56.143529,33.36,56.06Z" opacity="0.51" fill="rgb(121,52,1)" stroke="none" stroke-width="1"/><g id="ePa9SYuH4G562"><path id="ePa9SYuH4G563" style="isolation:isolate" d="M27.66,59.17C27.76864,59.104396,27.882333,59.04755,28,59C28.07,58.95,28.67,58.54,28.68,58.5C28.716645,58.461269,28.741002,58.412555,28.75,58.36C28.370825,58.608002,28.006841,58.878486,27.66,59.17Z" opacity="0.51" fill="rgb(121,52,1)" stroke="none" stroke-width="1"/><path id="ePa9SYuH4G564" style="isolation:isolate" d="M28.75,58.3L28.75,58.3Z" opacity="0.51" fill="rgb(121,52,1)" stroke="none" stroke-width="1"/></g><path id="ePa9SYuH4G565" style="isolation:isolate" d="M39.47,56.5C39.368989,56.510519,39.294109,56.598614,39.3,56.7L39.3,56.7C39.719134,58.495979,39.800518,60.354255,39.54,62.18C39.569827,62.566091,39.569827,62.953909,39.54,63.34C39.984003,61.079142,39.96018,58.751297,39.47,56.5Z" opacity="0.51" fill="rgb(121,52,1)" stroke="none" stroke-width="1"/><g id="ePa9SYuH4G566"><path id="ePa9SYuH4G567" style="isolation:isolate" d="M34.44,56.91C34.36,56.97,34.24,57.23,34.27,57.14C34.400002,58.376593,34.400002,59.623407,34.27,60.86C34.284966,61.103103,34.284966,61.346897,34.27,61.59C34.561376,60.04739,34.618686,58.469685,34.44,56.91Z" opacity="0.51" fill="rgb(121,52,1)" stroke="none" stroke-width="1"/></g><path id="ePa9SYuH4G568" style="isolation:isolate" d="M23.06,68.49C30.43,72.75,37.76,73.85,40.79,68.61C41.057494,68.137874,41.28174,67.642523,41.46,67.13C39.02,71.18,14.46,64.93,15.64,51.41L15.7,51.2C15.069716,51.782963,14.530389,52.457122,14.1,53.2C11.08,58.44,15.69,64.24,23.06,68.49Z" opacity="0.1" fill="rgb(121,52,1)" stroke="none" stroke-width="1"/><path id="ePa9SYuH4G569" style="isolation:isolate" d="M31.72,53.57C31.41,53.39,31.2,53.57,31.52,53.79C31.84,54.01,32,53.75,31.72,53.57Z" opacity="0.5" fill="rgb(121,52,1)" stroke="none" stroke-width="1"/><path id="ePa9SYuH4G570" style="isolation:isolate" d="M20.9,51.09C20.71,50.98,20.59,51.09,20.78,51.22C20.97,51.35,21.09,51.2,20.9,51.09Z" opacity="0.5" fill="rgb(121,52,1)" stroke="none" stroke-width="1"/><path id="ePa9SYuH4G571" style="isolation:isolate" d="M29.51,53.58C29.4,53.51,29.32,53.58,29.44,53.66C29.56,53.74,29.63,53.65,29.51,53.58Z" opacity="0.5" fill="rgb(121,52,1)" stroke="none" stroke-width="1"/><path id="ePa9SYuH4G572" style="isolation:isolate" d="M38.54,58.89C38.3,58.75,38.13,58.89,38.38,59.06C38.63,59.23,38.79,59,38.54,58.89Z" opacity="0.5" fill="rgb(121,52,1)" stroke="none" stroke-width="1"/><path id="ePa9SYuH4G573" style="isolation:isolate" d="M26.83,57.19C26.61,57.06,26.47,57.19,26.69,57.34C26.91,57.49,27.05,57.31,26.83,57.19Z" opacity="0.5" fill="rgb(121,52,1)" stroke="none" stroke-width="1"/><path id="ePa9SYuH4G574" style="isolation:isolate" d="M30.47,55.18C30.25,55.06,30.11,55.18,30.33,55.33C30.55,55.48,30.68,55.3,30.47,55.18Z" opacity="0.5" fill="rgb(121,52,1)" stroke="none" stroke-width="1"/><path id="ePa9SYuH4G575" style="isolation:isolate" d="M22.79,57.05C22.42,56.84,22.17,57.05,22.55,57.31C22.93,57.57,23.16,57.27,22.79,57.05Z" opacity="0.5" fill="rgb(121,52,1)" stroke="none" stroke-width="1"/><path id="ePa9SYuH4G576" style="isolation:isolate" d="M26.47,56.2C26.1,55.99,25.85,56.2,26.23,56.46C26.61,56.72,26.84,56.41,26.47,56.2Z" opacity="0.5" fill="rgb(121,52,1)" stroke="none" stroke-width="1"/><path id="ePa9SYuH4G577" style="isolation:isolate" d="M32.1,62.71C31.72,62.5,31.47,62.71,31.85,62.97C32.23,63.23,32.47,62.93,32.1,62.71Z" opacity="0.5" fill="rgb(121,52,1)" stroke="none" stroke-width="1"/><path id="ePa9SYuH4G578" style="isolation:isolate" d="M28.12,62.9C27.88,62.76,27.72,62.9,27.96,63.07C28.2,63.24,28.37,63,28.12,62.9Z" opacity="0.5" fill="rgb(121,52,1)" stroke="none" stroke-width="1"/><path id="ePa9SYuH4G579" style="isolation:isolate" d="M21,54.55C20.82,54.45,20.71,54.55,20.88,54.67C21.05,54.79,21.2,54.65,21,54.55Z" opacity="0.5" fill="rgb(121,52,1)" stroke="none" stroke-width="1"/><path id="ePa9SYuH4G580" style="isolation:isolate" d="M25.28,60.82C24.95,60.64,24.74,60.82,25.06,61.05C25.38,61.28,25.6,61,25.28,60.82Z" opacity="0.5" fill="rgb(121,52,1)" stroke="none" stroke-width="1"/><path id="ePa9SYuH4G581" style="isolation:isolate" d="M34.15,61.52C33.9,61.38,33.74,61.52,33.99,61.69C34.24,61.86,34.39,61.66,34.15,61.52Z" opacity="0.5" fill="rgb(121,52,1)" stroke="none" stroke-width="1"/><path id="ePa9SYuH4G582" style="isolation:isolate" d="M32.21,54.79C32.06,54.71,31.96,54.79,32.11,54.9C32.26,55.01,32.36,54.88,32.21,54.79Z" opacity="0.5" fill="rgb(121,52,1)" stroke="none" stroke-width="1"/><path id="ePa9SYuH4G583" style="isolation:isolate" d="M26.83,49.53C26.53,49.36,26.34,49.53,26.63,49.73C26.92,49.93,27.12,49.7,26.83,49.53Z" opacity="0.5" fill="rgb(121,52,1)" stroke="none" stroke-width="1"/><path id="ePa9SYuH4G584" style="isolation:isolate" d="M29.91,50.85C29.75,50.75,29.64,50.85,29.81,50.96C29.98,51.07,30.08,50.94,29.91,50.85Z" opacity="0.5" fill="rgb(121,52,1)" stroke="none" stroke-width="1"/><path id="ePa9SYuH4G585" style="isolation:isolate" d="M26.85,52.22C26.51,52.03,26.29,52.22,26.63,52.45C26.97,52.68,27.19,52.42,26.85,52.22Z" opacity="0.5" fill="rgb(121,52,1)" stroke="none" stroke-width="1"/><path id="ePa9SYuH4G586" style="isolation:isolate" d="M23.91,48.3C23.59,48.12,23.38,48.3,23.7,48.53C24.02,48.76,24.23,48.49,23.91,48.3Z" opacity="0.5" fill="rgb(121,52,1)" stroke="none" stroke-width="1"/><path id="ePa9SYuH4G587" style="isolation:isolate" d="M22.12,48.77C21.81,48.59,21.6,48.77,21.91,48.98C22.22,49.19,22.43,49,22.12,48.77Z" opacity="0.5" fill="rgb(121,52,1)" stroke="none" stroke-width="1"/><path id="ePa9SYuH4G588" style="isolation:isolate" d="M23.44,52.08C23.08,51.87,22.83,52.08,23.2,52.33C23.57,52.58,23.8,52.29,23.44,52.08Z" opacity="0.5" fill="rgb(121,52,1)" stroke="none" stroke-width="1"/><path id="ePa9SYuH4G589" style="isolation:isolate" d="M24.66,54C24.51,53.91,24.41,54,24.56,54.1C24.71,54.2,24.81,54,24.66,54Z" opacity="0.5" fill="rgb(121,52,1)" stroke="none" stroke-width="1"/><path id="ePa9SYuH4G590" style="isolation:isolate" d="M25.32,50.92C25,50.74,24.79,50.92,25.11,51.15C25.43,51.38,25.64,51.11,25.32,50.92Z" opacity="0.5" fill="rgb(121,52,1)" stroke="none" stroke-width="1"/><path id="ePa9SYuH4G591" style="isolation:isolate" d="M34.24,50.73C33.91,50.54,33.69,50.73,34.03,50.96C34.37,51.19,34.57,50.92,34.24,50.73Z" opacity="0.5" fill="rgb(121,52,1)" stroke="none" stroke-width="1"/><path id="ePa9SYuH4G592" style="isolation:isolate" d="M34.71,55C34.38,54.81,34.15,55,34.49,55.24C34.83,55.48,35.05,55.21,34.71,55Z" opacity="0.5" fill="rgb(121,52,1)" stroke="none" stroke-width="1"/><path id="ePa9SYuH4G593" style="isolation:isolate" d="M37.52,56.85C37.21,56.67,36.99,56.85,37.31,57.07C37.63,57.29,37.83,57,37.52,56.85Z" opacity="0.5" fill="rgb(121,52,1)" stroke="none" stroke-width="1"/><path id="ePa9SYuH4G594" style="isolation:isolate" d="M40.8,59C40.56,58.87,40.4,59,40.64,59.17C40.88,59.34,41,59.11,40.8,59Z" opacity="0.5" fill="rgb(121,52,1)" stroke="none" stroke-width="1"/><path id="ePa9SYuH4G595" style="isolation:isolate" d="M40.52,62C40.3,61.88,40.16,62,40.38,62.15C40.6,62.3,40.74,62.14,40.52,62Z" opacity="0.5" fill="rgb(121,52,1)" stroke="none" stroke-width="1"/><path id="ePa9SYuH4G596" style="isolation:isolate" d="M40,64.23C39.81,64.12,39.68,64.23,39.87,64.36C40.06,64.49,40.18,64.34,40,64.23Z" opacity="0.5" fill="rgb(121,52,1)" stroke="none" stroke-width="1"/><path id="ePa9SYuH4G597" style="isolation:isolate" d="M34.82,63.93C34.48,63.74,34.25,63.93,34.6,64.17C34.95,64.41,35.16,64.13,34.82,63.93Z" opacity="0.5" fill="rgb(121,52,1)" stroke="none" stroke-width="1"/><path id="ePa9SYuH4G598" style="isolation:isolate" d="M35.83,65.54C35.69,65.45,35.59,65.54,35.74,65.64C35.89,65.74,36,65.63,35.83,65.54Z" opacity="0.5" fill="rgb(121,52,1)" stroke="none" stroke-width="1"/><path id="ePa9SYuH4G599" style="isolation:isolate" d="M32.85,50.18C32.71,50.1,32.61,50.18,32.76,50.29C32.91,50.4,33,50.27,32.85,50.18Z" opacity="0.5" fill="rgb(121,52,1)" stroke="none" stroke-width="1"/><path id="ePa9SYuH4G5100" style="isolation:isolate" d="M28.13,61.41C28.01,61.34,27.92,61.41,28.05,61.5C28.18,61.59,28.26,61.49,28.13,61.41Z" opacity="0.5" fill="rgb(121,52,1)" stroke="none" stroke-width="1"/><path id="ePa9SYuH4G5101" style="isolation:isolate" d="M31.49,58.07C31.26,57.94,31.11,58.07,31.34,58.23C31.57,58.39,31.72,58.2,31.49,58.07Z" opacity="0.5" fill="rgb(121,52,1)" stroke="none" stroke-width="1"/><path id="ePa9SYuH4G5102" style="isolation:isolate" d="M33.21,58.29C33.09,58.23,33.01,58.29,33.13,58.38C33.25,58.47,33.33,58.36,33.21,58.29Z" opacity="0.5" fill="rgb(121,52,1)" stroke="none" stroke-width="1"/><path id="ePa9SYuH4G5103" style="isolation:isolate" d="M37.8,61.07C37.68,61,37.6,61.07,37.72,61.15C37.84,61.23,37.92,61.13,37.8,61.07Z" opacity="0.5" fill="rgb(121,52,1)" stroke="none" stroke-width="1"/><path id="ePa9SYuH4G5104" style="isolation:isolate" d="M36.15,59.55C35.85,59.38,35.64,59.55,35.95,59.76C36.26,59.97,36.45,59.73,36.15,59.55Z" opacity="0.5" fill="rgb(121,52,1)" stroke="none" stroke-width="1"/><path id="ePa9SYuH4G5105" style="isolation:isolate" d="M35.26,56.26C35.12,56.17,35.02,56.26,35.16,56.35C35.3,56.44,35.4,56.34,35.26,56.26Z" opacity="0.5" fill="rgb(121,52,1)" stroke="none" stroke-width="1"/><path id="ePa9SYuH4G5106" style="isolation:isolate" d="M36.44,53.65C36.27,53.55,36.15,53.65,36.33,53.78C36.51,53.91,36.62,53.76,36.44,53.65Z" opacity="0.5" fill="rgb(121,52,1)" stroke="none" stroke-width="1"/><path id="ePa9SYuH4G5107" style="isolation:isolate" d="M32.3,51.7C31.98,51.51,31.76,51.7,32.09,51.92C32.42,52.14,32.62,51.88,32.3,51.7Z" opacity="0.5" fill="rgb(121,52,1)" stroke="none" stroke-width="1"/><path id="ePa9SYuH4G5108" style="isolation:isolate" d="M29.47,49.84C29.11,49.63,28.87,49.84,29.24,50.09C29.61,50.34,29.83,50.05,29.47,49.84Z" opacity="0.5" fill="rgb(121,52,1)" stroke="none" stroke-width="1"/></g></g><g id="ePa9SYuH4G5109_to" transform="translate(32.138567,94.373957)"><g id="ePa9SYuH4G5109" transform="translate(-34.138567,-79.373957)"><path id="ePa9SYuH4G5110" d="M49.94,69.27C47.55,66.27,43.14,64.11,38,63.46C36.74,63.3,30.3,63.52,20.39,67.6C19.17282,68.105745,18.117823,68.935907,17.34,70C15.56,72.23,16.6,73.66,17.75,74.5C17.67,75.7,18.75,90.76,19.37,90.99C20.81,91.54,33.45,95.67,39.75,95.3C42.67,94.19,47.5,93.1,51.55,90.54C51.79,87.9,51.09,78.24,51.11,75.67C52.6,73.9,51.83,71.67,49.94,69.27Z" fill="rgb(209,114,0)" stroke="none" stroke-width="1"/><path id="ePa9SYuH4G5111" style="isolation:isolate" d="M28.2,67.19C33.879821,67.090213,39.088255,70.336673,41.5,75.48C41.759985,76.217766,41.759985,77.022234,41.5,77.76C41.19,78.69,40.3,78.76,39.5,79.15C39.5,81.71,39.94,92.51,39.7,95.15C33.4,95.52,20.46,91.87,19.32,90.83C18.54,90.12,17.62,75.54,17.7,74.35C16.05,73.51,14.38,67,28.2,67.19Z" opacity="0.75" fill="rgb(254,217,183)" stroke="none" stroke-width="1"/><path id="ePa9SYuH4G5112" style="isolation:isolate" d="M28.22,67.78C33.646683,67.686606,38.622743,70.787345,40.93,75.7C41.180164,76.405136,41.180164,77.174864,40.93,77.88C40.63,78.77,39.79,78.88,39.03,79.2C39.03,81.65,39.45,91.97,39.23,94.5C33.23,94.85,20.85,91.37,19.76,90.37C19.01,89.69,18.13,75.77,18.21,74.63C16.62,73.82,15,67.64,28.22,67.78Z" opacity="0.75" fill="rgb(254,217,183)" stroke="none" stroke-width="1"/><path id="ePa9SYuH4G5113" style="isolation:isolate" d="M19.18,74.66C18.986046,73.797671,19.102921,72.894548,19.51,72.11C21.61,68.39,29.51,68.22,33.51,71.78C35.95,73.98,32.91,77.61,31.41,79.62C29.27,82.48,31.51,85.82,31.63,88.92C31.69,90.39,31.26,91.36,29.63,91.68C28,92,26.07,90.94,24.63,90.15C21.35,88.39,20.34,84.83,20.02,81.54C19.76,79.21,19.49,77,19.18,74.66Z" opacity="0.25" fill="rgb(254,217,183)" stroke="none" stroke-width="1"/><path id="ePa9SYuH4G5114" style="isolation:isolate" d="M36.57,81.31C36.19,81.17,35.96,81.59,36.34,81.72C36.72,81.85,37,81.45,36.57,81.31Z" opacity="0.33" fill="rgb(210,129,52)" stroke="none" stroke-width="1"/><path id="ePa9SYuH4G5115" style="isolation:isolate" d="M24.93,74.53C24.67,74.43,24.5,74.72,24.77,74.82C25.04,74.92,25.2,74.62,24.93,74.53Z" opacity="0.33" fill="rgb(210,129,52)" stroke="none" stroke-width="1"/><path id="ePa9SYuH4G5116" style="isolation:isolate" d="M27.07,74.27C26.55,74.08,26.23,74.65,26.75,74.84C27.27,75.03,27.6,74.46,27.07,74.27Z" opacity="0.33" fill="rgb(210,129,52)" stroke="none" stroke-width="1"/><path id="ePa9SYuH4G5117" style="isolation:isolate" d="M21.64,78.59C21.23,78.44,20.97,78.89,21.39,79.04C21.81,79.19,22.05,78.74,21.64,78.59Z" opacity="0.33" fill="rgb(210,129,52)" stroke="none" stroke-width="1"/><path id="ePa9SYuH4G5118" style="isolation:isolate" d="M29.17,75.83C28.52,75.59,28.1,76.31,28.77,76.55C29.44,76.79,29.84,76.07,29.17,75.83Z" opacity="0.33" fill="rgb(210,129,52)" stroke="none" stroke-width="1"/><path id="ePa9SYuH4G5119" style="isolation:isolate" d="M25.12,80.53C24.79,80.41,24.58,80.78,24.91,80.9C25.24,81.02,25.46,80.65,25.12,80.53Z" opacity="0.33" fill="rgb(210,129,52)" stroke="none" stroke-width="1"/><path id="ePa9SYuH4G5120" style="isolation:isolate" d="M21.59,84.54C21.21,84.4,20.97,84.82,21.35,84.95C21.73,85.08,22,84.68,21.59,84.54Z" opacity="0.33" fill="rgb(210,129,52)" stroke="none" stroke-width="1"/><path id="ePa9SYuH4G5121" style="isolation:isolate" d="M31.48,79.73C31.15,79.61,30.94,79.98,31.28,80.1C31.62,80.22,31.82,79.85,31.48,79.73Z" opacity="0.33" fill="rgb(210,129,52)" stroke="none" stroke-width="1"/><path id="ePa9SYuH4G5122" style="isolation:isolate" d="M29.62,83C29.25,82.86,29.02,83.27,29.39,83.4C29.76,83.53,30,83.11,29.62,83Z" opacity="0.33" fill="rgb(210,129,52)" stroke="none" stroke-width="1"/><path id="ePa9SYuH4G5123" style="isolation:isolate" d="M32.48,83.87C32.1,83.74,31.86,84.15,32.25,84.29C32.64,84.43,32.86,84,32.48,83.87Z" opacity="0.33" fill="rgb(210,129,52)" stroke="none" stroke-width="1"/><path id="ePa9SYuH4G5124" style="isolation:isolate" d="M37.16,89.64C36.5,89.4,36.08,90.12,36.75,90.36C37.42,90.6,37.83,89.88,37.16,89.64Z" opacity="0.33" fill="rgb(210,129,52)" stroke="none" stroke-width="1"/><path id="ePa9SYuH4G5125" style="isolation:isolate" d="M37.78,86.59C37.12,86.35,36.7,87.08,37.37,87.31C38.04,87.54,38.44,86.83,37.78,86.59Z" opacity="0.33" fill="rgb(210,129,52)" stroke="none" stroke-width="1"/><path id="ePa9SYuH4G5126" style="isolation:isolate" d="M32.56,86.51C31.9,86.27,31.48,86.99,32.15,87.23C32.82,87.47,33.22,86.75,32.56,86.51Z" opacity="0.33" fill="rgb(210,129,52)" stroke="none" stroke-width="1"/><path id="ePa9SYuH4G5127" style="isolation:isolate" d="M34.5,81.83C33.84,81.59,33.43,82.31,34.1,82.55C34.77,82.79,35.17,82.07,34.5,81.83Z" opacity="0.33" fill="rgb(210,129,52)" stroke="none" stroke-width="1"/><path id="ePa9SYuH4G5128" style="isolation:isolate" d="M35.83,76.91C35.17,76.68,34.75,77.4,35.42,77.64C36.09,77.88,36.49,77.15,35.83,76.91Z" opacity="0.33" fill="rgb(210,129,52)" stroke="none" stroke-width="1"/><path id="ePa9SYuH4G5129" style="isolation:isolate" d="M36.27,74.05C35.81,73.88,35.52,74.39,35.99,74.57C36.46,74.75,36.74,74.22,36.27,74.05Z" opacity="0.33" fill="rgb(210,129,52)" stroke="none" stroke-width="1"/><path id="ePa9SYuH4G5130" style="isolation:isolate" d="M34.41,74.49C33.76,74.25,33.34,74.98,34.01,75.21C34.68,75.44,35.08,74.73,34.41,74.49Z" opacity="0.33" fill="rgb(210,129,52)" stroke="none" stroke-width="1"/><path id="ePa9SYuH4G5131" style="isolation:isolate" d="M33,71.79C32.62,71.65,32.38,72.07,32.76,72.21C33.14,72.35,33.38,71.93,33,71.79Z" opacity="0.33" fill="rgb(210,129,52)" stroke="none" stroke-width="1"/><path id="ePa9SYuH4G5132" style="isolation:isolate" d="M26.65,71.11C26.46,71.04,26.34,71.25,26.53,71.32C26.72,71.39,26.85,71.18,26.65,71.11Z" opacity="0.33" fill="rgb(210,129,52)" stroke="none" stroke-width="1"/><path id="ePa9SYuH4G5133" style="isolation:isolate" d="M27.78,69.07C27.12,68.84,26.71,69.56,27.38,69.8C28.05,70.04,28.45,69.32,27.78,69.07Z" opacity="0.33" fill="rgb(210,129,52)" stroke="none" stroke-width="1"/><path id="ePa9SYuH4G5134" style="isolation:isolate" d="M21.36,70.94C20.92,70.77,20.64,71.26,21.08,71.42C21.52,71.58,21.8,71.1,21.36,70.94Z" opacity="0.33" fill="rgb(210,129,52)" stroke="none" stroke-width="1"/><path id="ePa9SYuH4G5135" style="isolation:isolate" d="M18.73,72C18.53,71.93,18.41,72.14,18.61,72.21C18.81,72.28,18.93,72.08,18.73,72Z" opacity="0.33" fill="rgb(210,129,52)" stroke="none" stroke-width="1"/><path id="ePa9SYuH4G5136" style="isolation:isolate" d="M22.82,75.54C22.38,75.38,22.1,75.87,22.54,76.03C22.98,76.19,23.27,75.7,22.82,75.54Z" opacity="0.33" fill="rgb(210,129,52)" stroke="none" stroke-width="1"/><path id="ePa9SYuH4G5137" style="isolation:isolate" d="M23,80.72C22.34,80.48,21.92,81.2,22.59,81.44C23.26,81.68,23.64,81,23,80.72Z" opacity="0.33" fill="rgb(210,129,52)" stroke="none" stroke-width="1"/><path id="ePa9SYuH4G5138" style="isolation:isolate" d="M20.75,83.14C20.51,83.05,20.37,83.31,20.6,83.4C20.83,83.49,21,83.22,20.75,83.14Z" opacity="0.33" fill="rgb(210,129,52)" stroke="none" stroke-width="1"/><path id="ePa9SYuH4G5139" style="isolation:isolate" d="M23.89,85.05C23.23,84.81,22.82,85.54,23.49,85.78C24.16,86.02,24.56,85.29,23.89,85.05Z" opacity="0.33" fill="rgb(210,129,52)" stroke="none" stroke-width="1"/><path id="ePa9SYuH4G5140" style="isolation:isolate" d="M24.32,87.71C23.88,87.55,23.6,88.03,24.05,88.19C24.5,88.35,24.77,87.87,24.32,87.71Z" opacity="0.33" fill="rgb(210,129,52)" stroke="none" stroke-width="1"/><path id="ePa9SYuH4G5141" style="isolation:isolate" d="M20.77,89C20.12,88.76,19.7,89.48,20.37,89.72C21.04,89.96,21.44,89.2,20.77,89Z" opacity="0.33" fill="rgb(210,129,52)" stroke="none" stroke-width="1"/><path id="ePa9SYuH4G5142" style="isolation:isolate" d="M25.41,89.71C25.02,89.57,24.77,90,25.17,90.14C25.57,90.28,25.8,89.85,25.41,89.71Z" opacity="0.33" fill="rgb(210,129,52)" stroke="none" stroke-width="1"/><path id="ePa9SYuH4G5143" style="isolation:isolate" d="M27.8,90.31C27.62,90.25,27.5,90.45,27.69,90.52C27.88,90.59,28,90.38,27.8,90.31Z" opacity="0.33" fill="rgb(210,129,52)" stroke="none" stroke-width="1"/><path id="ePa9SYuH4G5144" style="isolation:isolate" d="M30,88.44C29.5,88.26,29.19,88.81,29.69,88.99C30.19,89.17,30.46,88.62,30,88.44Z" opacity="0.33" fill="rgb(210,129,52)" stroke="none" stroke-width="1"/><path id="ePa9SYuH4G5145" style="isolation:isolate" d="M32,91.2C31.61,91.06,31.37,91.49,31.76,91.63C32.15,91.77,32.34,91.35,32,91.2Z" opacity="0.33" fill="rgb(210,129,52)" stroke="none" stroke-width="1"/><path id="ePa9SYuH4G5146" style="isolation:isolate" d="M33.64,91.33C32.98,91.09,32.56,91.81,33.23,92.05C33.9,92.29,34.3,91.57,33.64,91.33Z" opacity="0.33" fill="rgb(210,129,52)" stroke="none" stroke-width="1"/><path id="ePa9SYuH4G5147" style="isolation:isolate" d="M47.71,76.85C47.14,76.85,41.25,78.64,39.54,79.17L39.54,79.48C41.29,79.01,45.62,77.48,47.38,77.12C47.78,77,48,76.87,47.71,76.85Z" opacity="0.75" fill="rgb(254,217,183)" stroke="none" stroke-width="1"/><path id="ePa9SYuH4G5148" style="isolation:isolate" d="M51.1,75.65L51.1,75.65C50.638182,75.780359,50.194674,75.968514,49.78,76.21C49.55,76.41,49.78,76.34,50.19,76.21C50.491827,76.118271,50.788866,76.01147,51.08,75.89C51.096311,75.811098,51.103026,75.730514,51.1,75.65Z" opacity="0.75" fill="rgb(254,217,183)" stroke="none" stroke-width="1"/></g></g><g id="ePa9SYuH4G5149_to" transform="translate(36.4205,103.332443)"><g id="ePa9SYuH4G5149" transform="rotate(2.781701) translate(-36.4205,-59.332443)"><g id="ePa9SYuH4G5150"><path id="ePa9SYuH4G5151" d="M34.14,87.37C28.6,87.32,26.64,75.14,25.54,59.47L25.54,59.47L25.54,59.35L25.54,59.35C24.45,43.67,24.72,31.35,30.2,30.52C35.93,29.67,37.71,42.75,38.8,58.43L38.8,58.43L38.8,58.55L38.8,58.55C39.89,74.23,39.94,87.43,34.14,87.37Z" fill="rgb(255,209,122)" stroke="none" stroke-width="1"/><path id="ePa9SYuH4G5152" style="isolation:isolate" d="M29.72,83.65C27.4,78.87,26.28,70,25.54,59.47L25.54,59.47L25.54,59.35L25.54,59.35C25.030182,53.410773,24.919933,47.444006,25.21,41.49L25.44,41.49C31.19,40.75,32.74,50.49,33.55,62.19L33.55,62.19L33.55,62.28C34.3,73,34.2,82.14,29.72,83.65Z" opacity="0.1" fill="rgb(213,124,42)" stroke="none" stroke-width="1"/><path id="ePa9SYuH4G5153" style="isolation:isolate" d="M31.88,70C33.76,71,31.47,75.2,28.38,80C27.787325,77.81295,27.326495,75.592288,27,73.35C28.94,70.8,30.64,69.33,31.88,70Z" opacity="0.21" fill="rgb(213,124,42)" stroke="none" stroke-width="1"/><path id="ePa9SYuH4G5154" style="isolation:isolate" d="M29.58,41.49C31.47,42.49,29.05,46.81,25.84,51.7L25.84,51.7L25.84,51.7L25.84,51.7L25.84,51.7L25.19,52.7C25.06,49.7,25.02,46.82,25.1,44.25C26.87,42.06,28.43,40.86,29.58,41.49Z" opacity="0.21" fill="rgb(213,124,42)" stroke="none" stroke-width="1"/><path id="ePa9SYuH4G5155" style="isolation:isolate" d="M25.91,64.15C27.91,61.55,29.62,60.04,30.91,60.71C32.81,61.71,30.44,66.03,27.28,70.96L27.28,70.96L27.28,70.96L27.28,70.96L27.28,70.96L26.81,71.69C26.42,69.38,26.15,66.84,25.91,64.15Z" opacity="0.21" fill="rgb(213,124,42)" stroke="none" stroke-width="1"/><path id="ePa9SYuH4G5156" style="isolation:isolate" d="M30,51.25C31.9,52.25,29.52,56.58,26.37,61.5L26.37,61.5L26.37,61.5L26.37,61.5L26.37,61.5L25.78,62.41C25.7,61.41,25.63,60.41,25.55,59.41L25.55,59.41L25.55,59.29L25.55,59.29Q25.37,56.78,25.25,54.4C27.15,52,28.81,50.6,30,51.25Z" opacity="0.21" fill="rgb(213,124,42)" stroke="none" stroke-width="1"/><path id="ePa9SYuH4G5157" style="isolation:isolate" d="M34.14,87.37L33.93,87.37C33.980025,86.93378,34.108777,86.510255,34.31,86.12C35.52,83.54,36.81,81.02,37.19,78.12C38.25,70,37.31,61.64,36.5,53.56C36.060503,49.273101,35.36931,45.015753,34.43,40.81C33.87,38.28,33.82,35.81,32.43,33.51C31.753515,32.38016,30.879648,31.380972,29.85,30.56L30.19,30.48C35.92,29.62,37.7,42.71,38.79,58.38L38.79,58.38L38.79,58.51L38.79,58.51C39.89,74.23,39.93,87.43,34.14,87.37Z" opacity="0.21" fill="rgb(213,124,42)" stroke="none" stroke-width="1"/><path id="ePa9SYuH4G5158" style="isolation:isolate" d="M29.58,41.48C30.85,42.18,30.17,44.35,28.58,47.18C28.58,46.79,28.91,46.18,28.94,45.87C29.11408,45.180632,28.731863,44.472662,28.06,44.24C27,44,25.9,45,25,45.63L25,44.26C26.87,42.06,28.43,40.86,29.58,41.48Z" opacity="0.25" fill="rgb(232,175,121)" stroke="none" stroke-width="1"/><path id="ePa9SYuH4G5159" style="isolation:isolate" d="M30,51.31C31.27,52.01,30.6,54.23,29,57.06C29,56.68,29.33,56.06,29.37,55.75C29.533073,55.059117,29.149361,54.356363,28.48,54.12C27.34,53.83,26.14,55.01,25.29,55.67C25.29,55.21,25.29,54.88,25.23,54.45C27.17,52.05,28.88,50.68,30,51.31Z" opacity="0.25" fill="rgb(232,175,121)" stroke="none" stroke-width="1"/><path id="ePa9SYuH4G5160" style="isolation:isolate" d="M30.82,60.74C32.08,61.41,31.37,63.74,29.67,66.74C29.67,66.35,30.05,65.74,30.09,65.38C30.19,64.7,30.04,63.9,29.26,63.73C28.12,63.48,26.95,64.59,26.04,65.31C26.04,64.79,25.94,64.54,25.97,64.11C27.85,61.74,29.68,60.15,30.82,60.74Z" opacity="0.25" fill="rgb(232,175,121)" stroke="none" stroke-width="1"/><path id="ePa9SYuH4G5161" style="isolation:isolate" d="M31.76,70C33.03,70.67,32.47,73.06,30.76,76C30.76,75.6,31.14,75,31.18,74.63C31.28,73.96,31.13,73.15,30.35,72.98C29.2,72.73,28.09,73.83,27.19,74.55C27.14,74.04,27.05,73.77,27.01,73.32C29,71,30.63,69.38,31.76,70Z" opacity="0.25" fill="rgb(232,175,121)" stroke="none" stroke-width="1"/></g><g id="ePa9SYuH4G5162"><g id="ePa9SYuH4G5163"><path id="ePa9SYuH4G5164" d="M49.13,36.9C44,34.79,37.45,45.25,30.35,59.26L30.35,59.26L30.35,59.32L30.35,59.32L30.35,59.32C23.26,73.32,18.71,84.8,23.44,87.69C28.38,90.69,35.11,79.35,42.21,65.33L42.21,65.33L42.21,65.27L42.21,65.27L42.21,65.27C49.31,51.25,54.48,39.1,49.13,36.9Z" fill="rgb(255,213,122)" stroke="none" stroke-width="1"/><path id="ePa9SYuH4G5165" style="isolation:isolate" d="M43.6,38.61C39.6,42.1,35.1,49.88,30.35,59.26L30.35,59.26L30.35,59.31L30.35,59.37L30.35,59.37C27.541832,64.641495,25.086442,70.093464,23,75.69L23.21,75.82C28.21,78.74,33.43,70.36,38.73,59.9L38.73,59.9L38.73,59.9L38.73,59.9C43.66,50.23,47.14,41.75,43.6,38.61Z" opacity="0.1" fill="rgb(213,124,42)" stroke="none" stroke-width="1"/><path id="ePa9SYuH4G5166" style="isolation:isolate" d="M40.28,52C42.4,51.81,41.93,47.06,40.96,41.4C39.55051,43.185713,38.251424,45.055863,37.07,47C37.88,50.15,38.88,52.16,40.28,52Z" opacity="0.21" fill="rgb(213,124,42)" stroke="none" stroke-width="1"/><path id="ePa9SYuH4G5167" style="isolation:isolate" d="M27.06,77.4C29.21,77.18,28.64,72.29,27.59,66.53L27.59,66.53L27.59,66.53L27.59,66.53C27.52,66.14,27.45,65.75,27.37,65.37C26.08,68.13,24.93,70.73,24,73.13C24.8,75.82,25.77,77.53,27.06,77.4Z" opacity="0.21" fill="rgb(213,124,42)" stroke="none" stroke-width="1"/><path id="ePa9SYuH4G5168" style="isolation:isolate" d="M32.51,55.08C33.32,58.26,34.33,60.32,35.74,60.19C37.88,59.99,37.37,55.1,36.38,49.33L36.38,49.33L36.38,49.33L36.38,49.33L36.23,48.48C35,50.47,33.77,52.7,32.51,55.08Z" opacity="0.21" fill="rgb(213,124,42)" stroke="none" stroke-width="1"/><path id="ePa9SYuH4G5169" style="isolation:isolate" d="M31.28,68.57C33.42,68.37,32.91,63.48,31.92,57.71L31.92,57.71L31.92,57.71L31.92,57.71C31.86,57.34,31.79,56.98,31.73,56.63C31.28,57.5,30.82,58.39,30.36,59.3L30.36,59.3L30.36,59.35L30.36,59.41L30.36,59.41C29.61,60.9,28.88,62.41,28.19,63.79C28.92,66.76,29.9,68.69,31.28,68.57Z" opacity="0.21" fill="rgb(213,124,42)" stroke="none" stroke-width="1"/><path id="ePa9SYuH4G5170" style="isolation:isolate" d="M49.13,36.9L48.92,36.83C48.799553,37.252181,48.752204,37.691854,48.78,38.13C48.9,40.98,49.11,43.81,48.34,46.58C46.17,54.47,42,61.8,38.15,68.93C36.08041,72.708367,33.789766,76.361377,31.29,79.87C29.78,81.98,28.79,84.23,26.62,85.82C25.553479,86.590107,24.362932,87.171851,23.1,87.54C23.19,87.6,23.28,87.68,23.38,87.74C28.32,90.74,35.05,79.4,42.16,65.38L42.16,65.38L42.16,65.32L42.16,65.32L42.16,65.32C49.31,51.25,54.48,39.1,49.13,36.9Z" opacity="0.21" fill="rgb(213,124,42)" stroke="none" stroke-width="1"/><path id="ePa9SYuH4G5171" style="isolation:isolate" d="M27.06,77.4C28.51,77.25,28.72,74.99,28.39,71.77C28.25,72.13,28.31,72.83,28.22,73.12C28.02,73.75,27.56,74.4,26.77,74.29C25.6,74.1,25,72.76,24.5,71.81L24,73.09C24.8,75.82,25.77,77.53,27.06,77.4Z" opacity="0.25" fill="rgb(232,175,121)" stroke="none" stroke-width="1"/><path id="ePa9SYuH4G5172" style="isolation:isolate" d="M31.29,68.52C32.74,68.37,32.98,66.06,32.65,62.84C32.51,63.21,32.57,63.9,32.48,64.19C32.29,64.82,31.82,65.48,31.03,65.36C29.87,65.18,29.22,63.63,28.69,62.69C28.51,63.11,28.35,63.4,28.17,63.78C29,66.72,30,68.65,31.29,68.52Z" opacity="0.25" fill="rgb(232,175,121)" stroke="none" stroke-width="1"/><path id="ePa9SYuH4G5173" style="isolation:isolate" d="M35.7,60.14C37.13,60.02,37.39,57.56,36.99,54.14C36.86,54.52,36.93,55.26,36.85,55.57C36.67,56.23,36.23,56.91,35.44,56.77C34.29,56.55,33.64,55.07,33.09,54.06C32.92,54.54,32.69,54.72,32.56,55.13C33.36,58.07,34.42,60.25,35.7,60.14Z" opacity="0.25" fill="rgb(232,175,121)" stroke="none" stroke-width="1"/><path id="ePa9SYuH4G5174" style="isolation:isolate" d="M40.17,52C41.59,51.88,42.01,49.46,41.6,46C41.47,46.38,41.54,47.11,41.46,47.42C41.29,48.08,40.84,48.76,40.05,48.62C38.9,48.45,38.3,47,37.75,46C37.5,46.44,37.32,46.66,37.1,47.06C38,50,38.88,52.11,40.17,52Z" opacity="0.25" fill="rgb(232,175,121)" stroke="none" stroke-width="1"/></g></g></g></g><g id="ePa9SYuH4G5175_to" transform="translate(14.940001,63.35)"><g id="ePa9SYuH4G5175_tr" transform="rotate(0)"><g id="ePa9SYuH4G5175" transform="translate(-14.940001,-63.35)"><g id="ePa9SYuH4G5176"><g id="ePa9SYuH4G5177"><path id="ePa9SYuH4G5178" d="M16.39,65.16C20.01,63.79,20.56,62.27,19.8,61.16C19.04,60.05,14,61,14,61C14,61,14.36,65.91,16.39,65.16Z" fill="rgb(163,216,242)" stroke="none" stroke-width="1"/></g></g></g></g></g><g id="ePa9SYuH4G5179" transform="matrix(1 0 0 1 0 1.140002)"><path id="ePa9SYuH4G5180" d="M51.81,59.75C51.586261,59.603739,51.327086,59.520803,51.06,59.51C53.32,62.06,44.3,70.92,43.06,72.11L45.06,72.11C45.06,72.11,55.19,62.08,51.81,59.75Z" fill="rgb(226,136,61)" stroke="none" stroke-width="1"/><path id="ePa9SYuH4G5181" d="M51.71,96.74C51.572551,97.938671,50.556523,98.842764,49.35,98.84L12.89,98.84C11.571126,98.838664,10.462177,97.850065,10.31,96.54L7.62,72.75L54.42,72.75Z" fill="rgb(219,155,86)" stroke="none" stroke-width="1"/><g id="ePa9SYuH4G5182" opacity="0.5"><rect id="ePa9SYuH4G5183" width="7.06" height="6.86" rx="0" ry="0" transform="matrix(1 0 0 1 20.08 84.4)" fill="url(#ePa9SYuH4G5183-fill)" stroke="none" stroke-width="1"/><rect id="ePa9SYuH4G5184" width="7.06" height="6.86" rx="0" ry="0" transform="matrix(1 0 0 1 33.69 84.4)" fill="url(#ePa9SYuH4G5184-fill)" stroke="none" stroke-width="1"/><path id="ePa9SYuH4G5185" d="M13.52,84.4L8.94,84.4L9.71,91.26L13.52,91.26Z" fill="url(#ePa9SYuH4G5185-fill)" stroke="none" stroke-width="1"/><path id="ePa9SYuH4G5186" d="M47.4,91.26L52.33,91.26L53.1,84.4L47.4,84.4Z" fill="url(#ePa9SYuH4G5186-fill)" stroke="none" stroke-width="1"/><rect id="ePa9SYuH4G5187" width="7.06" height="6.86" rx="0" ry="0" transform="matrix(1 0 0 1 13.42 77.44)" fill="url(#ePa9SYuH4G5187-fill)" stroke="none" stroke-width="1"/><rect id="ePa9SYuH4G5188" width="7.06" height="6.86" rx="0" ry="0" transform="matrix(1 0 0 1 27.04 77.44)" fill="url(#ePa9SYuH4G5188-fill)" stroke="none" stroke-width="1"/><rect id="ePa9SYuH4G5189" width="7.06" height="6.86" rx="0" ry="0" transform="matrix(1 0 0 1 40.55 77.44)" fill="url(#ePa9SYuH4G5189-fill)" stroke="none" stroke-width="1"/><rect id="ePa9SYuH4G5190" width="7.06" height="6.86" rx="0" ry="0" transform="matrix(1 0 0 1 13.42 91.36)" fill="url(#ePa9SYuH4G5190-fill)" stroke="none" stroke-width="1"/><rect id="ePa9SYuH4G5191" width="7.06" height="6.86" rx="0" ry="0" transform="matrix(1 0 0 1 27.04 91.36)" fill="url(#ePa9SYuH4G5191-fill)" stroke="none" stroke-width="1"/><rect id="ePa9SYuH4G5192" width="7.06" height="6.86" rx="0" ry="0" transform="matrix(1 0 0 1 40.55 91.36)" fill="url(#ePa9SYuH4G5192-fill)" stroke="none" stroke-width="1"/></g><g id="ePa9SYuH4G5193"><path id="ePa9SYuH4G5194" d="M27.17,84.44L27,84.44L27,91.3L27.2,91.3L27.2,91.4L33.85,91.4L33.85,84.34L27.16,84.34Z" fill="url(#ePa9SYuH4G5194-fill)" stroke="none" stroke-width="1"/><path id="ePa9SYuH4G5195" d="M47.44,84.44L47.44,84.34L40.78,84.34L40.78,84.44L40.58,84.44L40.58,91.3L40.78,91.3L40.78,91.4L47.44,91.4L47.44,84.4Z" fill="url(#ePa9SYuH4G5195-fill)" stroke="none" stroke-width="1"/><path id="ePa9SYuH4G5196" d="M13.35,84.44L13.35,91.3L13.45,91.3L13.45,91.4L20.21,91.4L20.21,84.34L13.45,84.34L13.45,84.44Z" fill="url(#ePa9SYuH4G5196-fill)" stroke="none" stroke-width="1"/><path id="ePa9SYuH4G5197" d="M27.17,84.34L27.17,77.34L20.31,77.34L20.31,84.34L27,84.34L27,84.24Z" fill="url(#ePa9SYuH4G5197-fill)" stroke="none" stroke-width="1"/><path id="ePa9SYuH4G5198" d="M13.35,84.34L13.45,84.34L13.45,77.34L8.15,77.34L8.95,84.34L13.36,84.34Z" fill="url(#ePa9SYuH4G5198-fill)" stroke="none" stroke-width="1"/><path id="ePa9SYuH4G5199" d="M40.78,84.34L40.78,77.34L33.92,77.34L33.92,84.34L40.58,84.34L40.58,84.24Z" fill="url(#ePa9SYuH4G5199-fill)" stroke="none" stroke-width="1"/><path id="ePa9SYuH4G5200" d="M47.44,84.34L47.44,84.44L53.1,84.44L53.9,77.38L47.44,77.38Z" fill="url(#ePa9SYuH4G5200-fill)" stroke="none" stroke-width="1"/><path id="ePa9SYuH4G5201" d="M27,91.3L20.31,91.3L20.31,98.36L27.17,98.36L27.17,91.36L27,91.36Z" fill="url(#ePa9SYuH4G5201-fill)" stroke="none" stroke-width="1"/><path id="ePa9SYuH4G5202" d="M13.45,91.4L13.35,91.4L13.35,91.3L9.72,91.3L10.31,96.54C10.39564,97.272363,10.788213,97.933922,11.39,98.36L13.45,98.36Z" fill="url(#ePa9SYuH4G5202-fill)" stroke="none" stroke-width="1"/><path id="ePa9SYuH4G5203" d="M40.58,91.3L33.93,91.3L33.93,98.36L40.78,98.36L40.78,91.36L40.58,91.36Z" fill="url(#ePa9SYuH4G5203-fill)" stroke="none" stroke-width="1"/><path id="ePa9SYuH4G5204" d="M47.44,91.4L47.44,98.4L50.78,98.4C51.296927,98.00852,51.632599,97.423801,51.71,96.78L52.32,91.34L47.44,91.34Z" fill="url(#ePa9SYuH4G5204-fill)" stroke="none" stroke-width="1"/></g><path id="ePa9SYuH4G5205" d="M50.6,95.7C50.481346,96.844835,49.510912,97.711294,48.36,97.7L13.86,97.7C12.623067,97.704892,11.576501,96.787002,11.42,95.56L8.1,76.94L10.31,96.54C10.461773,97.851813,11.569452,98.843572,12.89,98.85L49.35,98.85C50.5582,98.847647,51.572937,97.940403,51.71,96.74L54,76.68Z" fill="rgb(198,125,68)" stroke="none" stroke-width="1"/><path id="ePa9SYuH4G5206" d="M55.47,78.36C36.8,77.7,25.7,77.71,6.47,78.36L5.77,72.54C26.06,71.72,36.95,71.85,56.21,72.54Z" fill="rgb(244,177,104)" stroke="none" stroke-width="1"/><path id="ePa9SYuH4G5207" style="isolation:isolate" d="M8.18,78.43C26.02,77.36,36.48,77.63,53.65,78.43L53.29,81.23C33.91,79.3,28.86,79.34,8.61,81.23Z" opacity="0.5" fill="rgb(198,125,68)" stroke="none" stroke-width="1"/><path id="ePa9SYuH4G5208" d="M6,74.86L5.8,72.54C26.09,71.72,36.98,71.85,56.24,72.54C56.24,72.54,26.4,72.38,6,74.86Z" fill="rgb(255,208,151)" stroke="none" stroke-width="1"/><path id="ePa9SYuH4G5209" d="M32.06,74.16C32.457268,74.797484,32.289357,75.634084,31.676872,76.068904C31.064387,76.503725,30.219215,76.38634,29.74841,75.801063C29.277605,75.215785,29.344041,74.365091,29.9,73.86C30.581934,73.356574,31.541071,73.489788,32.06,74.16Z" fill="rgb(208,118,71)" stroke="none" stroke-width="1"/><path id="ePa9SYuH4G5210" d="M31.82,74.38C32.294439,74.830096,32.321121,75.577205,31.88,76.06L30.16,74.15C30.682653,73.757982,31.423622,73.860646,31.82,74.38Z" fill="rgb(245,176,101)" stroke="none" stroke-width="1"/></g><g id="ePa9SYuH4G5211"><rect id="ePa9SYuH4G5212" width="110" height="100" rx="0" ry="0" fill="none" stroke="none" stroke-width="1"/><g id="ePa9SYuH4G5213"><g id="ePa9SYuH4G5214"><g id="ePa9SYuH4G5215"><path id="ePa9SYuH4G5216" d="M68.21,90.79L69.3,90.79C70.956854,90.79,72.3,92.133146,72.3,93.79L72.3,97.67C72.3,98.774569,71.404569,99.67,70.3,99.67L67.21,99.67C66.105431,99.67,65.21,98.774569,65.21,97.67L65.21,93.79C65.21,92.133146,66.553146,90.79,68.21,90.79Z" fill="rgb(26,26,26)" stroke="none" stroke-width="1"/><path id="ePa9SYuH4G5217" d="M75.3,90.79L76.39,90.79C78.046854,90.79,79.39,92.133146,79.39,93.79L79.39,97.67C79.39,98.774569,78.494569,99.67,77.39,99.67L74.3,99.67C73.195431,99.67,72.3,98.774569,72.3,97.67L72.3,93.79C72.3,92.133146,73.643146,90.79,75.3,90.79Z" fill="rgb(26,26,26)" stroke="none" stroke-width="1"/><g id="ePa9SYuH4G5218_tr" transform="translate(71.221026,83.780388) rotate(0)"><g id="ePa9SYuH4G5218" transform="translate(-71.221015,-83.780384)"><g id="ePa9SYuH4G5219"><g id="ePa9SYuH4G5220"><path id="ePa9SYuH4G5221" d="M45.74,29.62C42.38,36.5,40.74,48.28,42.5,56.9C44.42,66.3,39.24,69,40.5,75.31C42.31,80.83,47.13,84.8,55.06,85.31C62.99,85.82,74.74,84.54,84.25,86.76C93.76,88.98,101.63,82.57,102.35,77.29C103.07,72.01,100.35,72.09,99.42,64.13C99,60.3,99.96,49.2,100.25,44.31C100.528129,40.405433,99.780034,36.49603,98.08,32.97C96,28.36,91.33,19.49,80.62,16.39C67.33,11.86,52,16.78,45.74,29.62Z" fill="rgb(76,84,90)" stroke="none" stroke-width="1"/></g></g><g id="ePa9SYuH4G5222" clip-path="url(#ePa9SYuH4G5233)"><g id="ePa9SYuH4G5223"><g id="ePa9SYuH4G5224"><g id="ePa9SYuH4G5225"><g id="ePa9SYuH4G5226"><g id="ePa9SYuH4G5227"><g id="ePa9SYuH4G5228"><g id="ePa9SYuH4G5229" opacity="0.2"><g id="ePa9SYuH4G5230"><g id="ePa9SYuH4G5231"><path id="ePa9SYuH4G5232" d="M51.53,48.17C51.53,48.17,52.16,62.24,49.21,69.35C46.26,76.46,45.28,82.35,57.21,86.99C69.14,91.63,87.45,89.58,90,88.48C92.55,87.38,100,80.37,94.32,72.84C88.64,65.31,91.32,49.84,91.32,49.84Z" fill="rgb(0,0,0)" stroke="none" stroke-width="1"/></g></g></g></g></g></g></g></g></g><clipPath id="ePa9SYuH4G5233"><path id="ePa9SYuH4G5234" d="M45.74,29.62C42.38,36.5,40.74,48.28,42.5,56.9C44.42,66.3,39.24,69,40.5,75.31C42.31,80.84,47.13,84.8,55.06,85.31C62.99,85.82,74.74,84.55,84.25,86.76C93.76,88.97,101.63,82.57,102.35,77.29C103.07,72.01,100.35,72.09,99.42,64.13C98.72,57.66,100,46.13,100.24,41.23C100.48,36.33,95,20.29,80.9,16.19C67.61,11.68,52,16.78,45.74,29.62Z" fill="none" stroke="none" stroke-width="1"/></clipPath></g></g></g><g id="ePa9SYuH4G5235"><g id="ePa9SYuH4G5236"><path id="ePa9SYuH4G5237" d="M84.9,77.48L87.2,76.23L87.2,76.23L89.84,81.23C90.522727,82.479666,90.077766,84.045928,88.84,84.75L88.84,84.75C87.590334,85.432727,86.024072,84.987766,85.32,83.75L83.82,81C83.499083,80.392655,83.432579,79.682701,83.635119,79.026322C83.837658,78.369943,84.29265,77.820908,84.9,77.5L84.9,77.5Z" fill="rgb(253,223,188)" stroke="none" stroke-width="1"/></g><g id="ePa9SYuH4G5238"><path id="ePa9SYuH4G5239" d="M83.62,67.23C83.62,67.23,92.22,78.36,91.62,79.59C91.02,80.82,87.62,81.26,83.62,84.99C79.62,88.72,80.62,67.76,81.62,67.24C82.246532,66.916311,82.990262,66.912592,83.62,67.23Z" fill="rgb(255,255,255)" stroke="none" stroke-width="1"/></g></g><g id="ePa9SYuH4G5240_to" transform="translate(60.279083,71.435993)"><g id="ePa9SYuH4G5240_tr" transform="rotate(-22.364091)"><g id="ePa9SYuH4G5240" transform="translate(-60.27908,-72.435988)"><g id="ePa9SYuH4G5241"><path id="ePa9SYuH4G5242" d="M47.33,80.07C46.485168,78.854938,46.785114,77.185086,48,76.34L48,76.34L52.8,73L54.33,75.19C54.737184,75.769473,54.897458,76.486982,54.775556,77.18464C54.653653,77.882299,54.259562,78.502942,53.68,78.91L53.68,78.91L51.05,80.75C50.474561,81.158676,49.760293,81.321903,49.064459,81.203742C48.368625,81.085582,47.748277,80.695722,47.34,80.12Z" fill="rgb(253,223,188)" stroke="none" stroke-width="1"/><path id="ePa9SYuH4G5243" d="M59.46,68.84C59.46,68.84,48.46,72.56,48.31,73.9C48.16,75.24,50.98,80.9,51.9,82.18C52.82,83.46,60.3,78.58,63.16,75.71C62.9,74.37,59.46,68.84,59.46,68.84Z" fill="rgb(255,255,255)" stroke="none" stroke-width="1"/></g></g></g></g><path id="ePa9SYuH4G5244" d="M62.9,66.59L80.58,66.59C82.18,66.52,82.67,68.59,82.82,70.23C82.82,70.23,83.9,76.23,84.17,80.36C84.44,84.49,83.71,86.82,83.23,87.29C82.75,87.76,59.46,87.77,59.04,87.29C58.62,86.81,58.04,84.97,58.37,80.75C58.7,76.53,59.75,69.31,59.75,69.31C59.798778,68.537609,60.153227,67.816466,60.734971,67.306033C61.316714,66.7956,62.077824,66.53793,62.85,66.59Z" fill="rgb(255,255,255)" stroke="none" stroke-width="1"/><path id="ePa9SYuH4G5245" d="M66.56,87.78L65.56,87.78C65.56,86.98,65.4,85.03,65.23,83.15C65.006866,81.261492,64.893342,79.361641,64.89,77.46C65.15,75.22,66.47,74.96,67.1,74.83L67.32,74.83C70,74,73,72.89,73,72.87L73.37,73.8C73.37,73.8,70.27,74.9,67.6,75.73L67.28,75.8C66.7,75.92,66.04,76.05,65.86,77.56C65.881335,79.394833,65.99816,81.227312,66.21,83.05C66.41,85,66.57,86.93,66.56,87.78Z" fill="rgb(221,221,221)" stroke="none" stroke-width="1"/><g id="ePa9SYuH4G5246"><path id="ePa9SYuH4G5247" d="M63.09,71.61C62.748975,72.35676,62.86974,73.233283,63.4,73.86C63.9,74.38,68.56,75.08,70.16,74.45C70.61,72.76,69.49,73.36,67.58,72.71C65.33,72.11,63.45,71,63.09,71.61Z" fill="rgb(1,159,223)" stroke="none" stroke-width="1"/><path id="ePa9SYuH4G5248" d="M70.6,73.55C70.6,73.55,77.41,72.67,79.66,70.37C80.59,70.12,81.08,71.9,80.56,72.7C80.04,73.5,77.44,74.8,74.18,74.48C72.971866,74.230058,71.777032,73.919668,70.6,73.55Z" fill="rgb(1,159,223)" stroke="none" stroke-width="1"/><path id="ePa9SYuH4G5249" d="M69.39,74.15C68.497234,74.80717,68.039635,75.903102,68.2,77C68.979439,76.807331,69.739353,76.542868,70.47,76.21C71.75,75.7,71.47,73.82,70.47,73.75C69.47,73.68,69.39,74.15,69.39,74.15Z" fill="rgb(1,159,223)" stroke="none" stroke-width="1"/><path id="ePa9SYuH4G5250" d="M73.51,74.24C74.239953,75.056104,74.480004,76.199205,74.14,77.24C73.408696,76.89397,72.712187,76.478743,72.06,76C70.9,75.25,71.5,73.45,72.53,73.58C73.56,73.71,73.51,74.24,73.51,74.24Z" fill="rgb(1,159,223)" stroke="none" stroke-width="1"/></g><g id="ePa9SYuH4G5251_tr" transform="translate(71.385029,73.15) rotate(0)"><g id="ePa9SYuH4G5251" transform="translate(-71.385028,-73.149997)"><g id="ePa9SYuH4G5252"><g id="ePa9SYuH4G5253"><g id="ePa9SYuH4G5254"><path id="ePa9SYuH4G5255" d="M71.2,26.76C84.647043,26.831528,95.51019,37.752766,95.51,51.2C95.51,64.71,84.64,72.8,71.2,72.8C57.76,72.8,46.82,64.73,46.82,51.21C46.819909,37.74723,57.707321,26.819576,71.17,26.77Z" fill="rgb(253,223,188)" stroke="none" stroke-width="1"/></g></g><g id="ePa9SYuH4G5256" opacity="0.6"><g id="ePa9SYuH4G5257"><path id="ePa9SYuH4G5258" d="M71.1,72.81C68.142353,72.827211,65.198016,72.412847,62.36,71.58C63.536033,71.703091,64.717548,71.766506,65.9,71.77C72.159068,71.916542,78.27336,69.876087,83.19,66C85.389923,64.16827,87.158626,61.873737,88.37,59.28C89.660681,56.456218,90.319349,53.384711,90.3,50.28C90.303164,39.647399,83.428927,30.233738,73.3,27C85.832344,28.148115,95.444047,38.625348,95.51,51.21C95.531523,54.313869,94.876319,57.385137,93.59,60.21C92.379042,62.829377,90.603221,65.148189,88.39,67C83.484907,70.901709,77.365892,72.957896,71.1,72.81Z" fill="rgb(255,213,163)" stroke="none" stroke-width="1"/></g></g><g id="ePa9SYuH4G5259"><g id="ePa9SYuH4G5260"><path id="ePa9SYuH4G5261" d="M59.83,53.77L59.83,53.77C60.968707,53.780846,61.889154,54.701293,61.9,55.84L61.9,57.93C61.889154,59.068707,60.968707,59.989154,59.83,60L59.83,60C58.68739,59.994585,57.760921,59.072571,57.75,57.93L57.75,55.84C57.760921,54.697429,58.68739,53.775415,59.83,53.77Z" fill="rgb(76,84,90)" stroke="none" stroke-width="1"/></g></g><g id="ePa9SYuH4G5262"><g id="ePa9SYuH4G5263"><path id="ePa9SYuH4G5264" d="M82.58,53.77L82.58,53.77C83.718707,53.780846,84.639154,54.701293,84.65,55.84L84.65,57.93C84.639154,59.068707,83.718707,59.989154,82.58,60L82.58,60C81.43739,59.994585,80.510921,59.072571,80.5,57.93L80.5,55.84C80.510921,54.697429,81.43739,53.775415,82.58,53.77Z" fill="rgb(76,84,90)" stroke="none" stroke-width="1"/></g></g><g id="ePa9SYuH4G5265"><g id="ePa9SYuH4G5266"><path id="ePa9SYuH4G5267" d="M71,65.1C70.117546,65.069078,69.251745,64.850923,68.46,64.46C67.996081,64.239086,67.799086,63.683919,68.02,63.22C68.240914,62.756081,68.796081,62.559086,69.26,62.78L69.26,62.78C69.806421,63.0481,70.402031,63.201256,71.01,63.23C71.558167,63.186538,72.092039,63.033517,72.58,62.78C73.013752,62.530284,73.567747,62.677718,73.82,63.11L73.82,63.11L73.82,63.17C73.940696,63.372885,73.975842,63.615411,73.917704,63.844212C73.859566,64.073013,73.712908,64.269342,73.51,64.39L73.43,64.39C72.682418,64.803326,71.852514,65.045808,71,65.1Z" fill="rgb(76,84,90)" stroke="none" stroke-width="1"/></g></g><g id="ePa9SYuH4G5268"><g id="ePa9SYuH4G5269"><path id="ePa9SYuH4G5270" d="M47.15,46.87C47.15,46.87,57.04,44.05,61.47,38.87C65.9,33.69,68.47,36.39,70.62,37.6C72.77,38.81,77.9,43.4,84.45,46.38C88.094625,48.137087,92.084026,49.06271,96.13,49.09C100.13,49.09,96.45,35.27,88.38,30.17C80.31,25.07,63.44,20.72,54.72,30.17C46,39.62,47.15,46.87,47.15,46.87Z" fill="rgb(76,84,90)" stroke="none" stroke-width="1"/></g></g></g><g id="ePa9SYuH4G5271"><g id="ePa9SYuH4G5272"><g id="ePa9SYuH4G5273"><path id="ePa9SYuH4G5274" d="M46.31,51.46C45.526675,51.20072,44.667604,51.510481,44.23,52.21C43.46,53.44,43.8,56.86,45.9,58.76C46.911186,59.866938,48.486864,60.260858,49.9,59.76C51.313136,59.259142,47.9,52.22,47.37,52.01C46.986578,51.891632,46.627541,51.705339,46.31,51.46Z" fill="rgb(253,223,188)" stroke="none" stroke-width="1"/></g></g><g id="ePa9SYuH4G5275"><g id="ePa9SYuH4G5276"><path id="ePa9SYuH4G5277" d="M96,52.09C96.781067,51.821072,97.644295,52.128182,98.08,52.83C98.85,54.07,98.52,57.49,96.41,59.39C95.383852,60.471582,93.824404,60.861444,92.41,60.39C90.995596,59.918556,94.41,52.85,94.95,52.65C95.325964,52.516731,95.67988,52.327976,96,52.09Z" fill="rgb(254,217,173)" stroke="none" stroke-width="1"/></g></g><g id="ePa9SYuH4G5278"><g id="ePa9SYuH4G5279"><path id="ePa9SYuH4G5280" d="M47.09,45.45C47.09,45.45,45.32,57.22,50,65.83C54.68,74.44,58.4,74.15,58.4,74.15C58.4,74.15,46.33,65.54,50.72,50.55C55.11,35.56,48,43.61,48,43.61Z" fill="rgb(76,84,90)" stroke="none" stroke-width="1"/></g></g><g id="ePa9SYuH4G5281"><g id="ePa9SYuH4G5282"><path id="ePa9SYuH4G5283" d="M95.31,45.45C95.31,45.45,97.06,57.22,92.37,65.83C87.68,74.44,84,74.15,84,74.15C84,74.15,96,65.54,91.67,50.55C87.34,35.56,94.39,43.62,94.39,43.62Z" fill="rgb(76,84,90)" stroke="none" stroke-width="1"/></g></g></g></g></g><circle id="ePa9SYuH4G5284" r="1" transform="matrix(1 0 0 1 69 79)" fill="rgb(221,221,221)" stroke="none" stroke-width="1"/><circle id="ePa9SYuH4G5285" r="1" transform="matrix(1 0 0 1 69.13 82.2)" fill="rgb(221,221,221)" stroke="none" stroke-width="1"/><circle id="ePa9SYuH4G5286" r="1" transform="matrix(1 0 0 1 69.2 85.5)" fill="rgb(221,221,221)" stroke="none" stroke-width="1"/><circle id="ePa9SYuH4G5287" r="1" transform="matrix(1 0 0 1 74 79)" fill="rgb(221,221,221)" stroke="none" stroke-width="1"/><circle id="ePa9SYuH4G5288" r="1" transform="matrix(1 0 0 1 74 82.2)" fill="rgb(221,221,221)" stroke="none" stroke-width="1"/><circle id="ePa9SYuH4G5289" r="1" transform="matrix(1 0 0 1 74.2 85.4)" fill="rgb(221,221,221)" stroke="none" stroke-width="1"/><path id="ePa9SYuH4G5290" d="M58.64,86.5C62.551717,86.92131,66.486652,87.088328,70.42,87C76.73,86.83,83.87,85.83,83.87,85.83C83.87,85.83,84.22,89.49,84.25,92.29C84.290351,93.800967,84.206738,95.312699,84,96.81C83.959841,96.942158,83.887711,97.062373,83.79,97.16C83.664911,97.250105,83.521516,97.31156,83.37,97.34L58.75,97.17C58.75,97.17,58.41,97.17,58.33,96.91C58.056881,95.456223,58.00295,93.969747,58.17,92.5C58.33,89.88,58.64,86.5,58.64,86.5Z" fill="rgb(76,84,90)" stroke="none" stroke-width="1"/><rect id="ePa9SYuH4G5291" width="4" height="3" rx="1" ry="1" transform="matrix(1 0 0 1 69.44 72)" fill="rgb(1,159,223)" stroke="none" stroke-width="1"/><path id="ePa9SYuH4G5292" d="M72.44,75.15L70.44,75.15C69.887715,75.15,69.44,74.702285,69.44,74.15L69.44,73.15C69.44,73.702285,69.887715,74.15,70.44,74.15L72.44,74.15C72.992285,74.15,73.44,73.702285,73.44,73.15L73.44,74.15C73.44,74.702285,72.992285,75.15,72.44,75.15Z" opacity="0.1" fill="rgb(0,0,0)" stroke="none" stroke-width="1"/><g id="ePa9SYuH4G5293"><path id="ePa9SYuH4G5294" d="M94.83,59.22C93.661705,58.737627,92.337674,58.811184,91.23,59.42C90.144661,60.200002,89.457161,61.417753,89.35,62.75C88.933366,67.771833,88.796488,72.812958,88.94,77.85L97.55,65.36C98.227734,64.232428,98.321704,62.847682,97.802516,61.638887C97.283328,60.430091,96.214373,59.544831,94.93,59.26L94.83,59.26M95.14,58.26L95.26,58.26C99.38,59.67,99.76,63.32,98.41,65.83L88.64,80.06L88,79.85C88,79.85,87.68,67.68,88.38,62.61C88.81,59.49,91.12,56.96,95.16,58.27Z" fill="rgb(150,150,150)" stroke="none" stroke-width="1"/><path id="ePa9SYuH4G5295" d="M95,59.27C94.591858,59.121599,94.138101,59.169557,93.77,59.4C92.77,59.96,91.94,61.54,91.52,63.52C90.87,66.6,90.05,72.36,89.52,76.18L95.52,64.79C96.239281,63.378335,96.410278,61.750305,96,60.22C95.824765,59.774517,95.457007,59.432503,95,59.29L94.94,59.29M95.25,58.29L95.32,58.29C97.73,59.13,97.53,62.59,96.37,65.17L88.59,80.05L88,79.86C88,79.86,89.45,68.27,90.5,63.31C91.15,60.26,92.91,57.55,95.27,58.31Z" fill="rgb(150,150,150)" stroke="none" stroke-width="1"/><path id="ePa9SYuH4G5296" d="M88.84,79.82L87.84,79.51L94.54,58.88L95.54,59.19Z" fill="rgb(150,150,150)" stroke="none" stroke-width="1"/><rect id="ePa9SYuH4G5297" width="11" height="4" rx="1" ry="1" transform="matrix(0.309017 -0.951057 0.951057 0.309017 84.024291 86.812877)" fill="rgb(208,173,147)" stroke="none" stroke-width="1"/><path id="ePa9SYuH4G5298" d="M86.88,87.74L85.94,87.43C86.46157,87.594329,87.018411,87.309227,87.19,86.79L90,78.23C90.149035,77.70594,89.851118,77.159017,89.33,77L90.33,77.31C90.854399,77.481526,91.140791,78.045362,90.97,78.57L88.19,87.12C88.104292,87.380184,87.915601,87.593817,87.667995,87.711005C87.420389,87.828193,87.135549,87.838674,86.88,87.74Z" opacity="0.1" fill="rgb(0,0,0)" stroke="none" stroke-width="1"/></g></g></g><path id="ePa9SYuH4G5299" d="M89.79,80.84C90.649881,81.281564,91.007478,82.323453,90.6,83.2C90.26,84.2,89.34,84.9,88.6,84.64C87.589828,84.182063,87.029884,83.087062,87.25,82C87.693023,81.038127,88.772942,80.544936,89.79,80.84Z" fill="rgb(253,223,188)" stroke="none" stroke-width="1"/></g></g><g id="ePa9SYuH4G5300_to" transform="translate(69.2,50)"><g id="ePa9SYuH4G5300_tr" transform="rotate(0)"><g id="ePa9SYuH4G5300" transform="translate(-69.2,-49.999992)"><path id="ePa9SYuH4G5301" d="M41.51,48.83C41.51,48.83,38.07,49.88,37,46.66C36.442829,44.888262,35.576095,43.22928,34.44,41.76C33.56,40.3,31.36,34.45,33.34,30.43C35.32,26.41,37.63,24.55,37.67,18.43C37.71,12.31,43.13,11.12,46.75,10.08C50.37,9.04,51.45,6.22,52.31,4.84C53.17,3.46,57.92,-2.23,67.19,1C76.46,4.23,74.89,3.16,77.7,2.32C80.51,1.48,86.94,0.6,90.44,7.61C91.77,10.27,92.44,9.61,95.89,10.1C99.34,10.59,104.73,12.42,103.55,19.1C103.341183,20.64314,102.639725,22.077622,101.55,23.19C100.460275,24.302378,106.55,24.19,105.66,31.31C105.28,34.56,103.52,34.9,103.52,34.9C103.52,34.9,107.64,40.45,99.68,44.8C95.19,39.08,85.48,27.49,69.77,28.57C54.06,29.65,48.07,35.69,44.28,41.76C42.901379,43.911914,41.96013,46.314307,41.51,48.83Z" fill="rgb(250,250,250)" stroke="none" stroke-width="1"/><path id="ePa9SYuH4G5302" d="M41.51,45.59C41.51,45.59,38.27,43.51,38.25,42.93C38.23,42.35,41.33,43.4,42.13,42.93C42.93,42.46,37.19,39.79,36.44,37.66C35.69,35.53,40.17,39.42,41.51,38.33C42.85,37.24,40.94,34.09,42.13,33.21C43.32,32.33,42.27,29.95,42.89,28.91C43.51,27.87,40.19,24.11,40.19,20.23C40.42,19.37,40.36,19.37,43.77,22.67C47.18,25.97,54.15,24.07,54.87,23.3C55.59,22.53,62.37,21.83,60.5,13.42C58.63,5.01,65.23,19.58,67.41,20.23C69.687865,20.949519,72.132135,20.949519,74.41,20.23C76.51,19.43,78.99,13.02,80.72,11.37C82.45,9.72,79.24,16.86,81.82,19.61C84.4,22.36,86.42,16.73,87.28,16.77C88.14,16.81,85.54,22.45,87.28,23.3C89.02,24.15,92.75,20.51,93.56,19.43C94.37,18.35,94.7,23.43,95.05,24.86C95.4,26.29,97.83,26.66,97.75,27.68C97.653789,28.936475,98.252292,30.14499,99.31,30.83C100.62,31.83,101.88,32.19,101.41,34.21C101.061445,35.724733,101.398009,37.316095,102.33,38.56C102.84,39.12,102.55,41.21,100.6,42.63C98.65,44.05,74.46,27.9,74.46,27.9L51.26,34.21L42.88,46.81Z" opacity="0.1" fill="rgb(0,0,0)" stroke="none" stroke-width="1"/><path id="ePa9SYuH4G5303" d="M41.87,52.1C41.87,52.1,49.19,34.64,71.87,35.31C94.55,35.98,99.76,53.45,99.76,53.45C99.76,53.45,102.93,41.73,99.51,36.78C96.09,31.83,87.51,23.53,71.17,23.78C54.83,24.03,45.17,30.93,42.56,39.7C41.246031,43.701203,41.008064,47.977719,41.87,52.1Z" fill="rgb(250,250,250)" stroke="none" stroke-width="1"/></g></g></g></g><mask id="ePa9SYuH4G5304" mask-type="alpha"><rect id="ePa9SYuH4G5305" width="110" height="100" rx="0" ry="0" fill="rgb(210,219,237)" stroke="none" stroke-width="0"/></mask></g></svg>