<svg id="eydjfgbsbxx1" xmlns="http://www.w3.org/2000/svg" xmlns:xlink="http://www.w3.org/1999/xlink" viewBox="0 0 112.680000 100.430000" shape-rendering="geometricPrecision" text-rendering="geometricPrecision"><style><![CDATA[#eydjfgbsbxx60_to {animation: eydjfgbsbxx60_to__to 3000ms linear infinite normal forwards}@keyframes eydjfgbsbxx60_to__to { 0% {transform: translate(77.234705px,82.660961px)} 6.666667% {transform: translate(77.234705px,82.660961px)} 20% {transform: translate(77.234705px,80.660961px)} 53.333333% {transform: translate(77.234705px,80.660961px)} 66.666667% {transform: translate(77.234705px,82.660961px)} 100% {transform: translate(77.234705px,82.660961px)} }#eydjfgbsbxx111_to {animation: eydjfgbsbxx111_to__to 3000ms linear infinite normal forwards}@keyframes eydjfgbsbxx111_to__to { 0% {transform: translate(77.394632px,84.529442px)} 6.666667% {transform: translate(77.394632px,84.529442px)} 20% {transform: translate(77.394632px,78.529442px)} 53.333333% {transform: translate(77.394632px,78.529442px)} 66.666667% {transform: translate(77.394632px,84.529442px)} 100% {transform: translate(77.394632px,84.529442px)} }#eydjfgbsbxx111_tr {animation: eydjfgbsbxx111_tr__tr 3000ms linear infinite normal forwards}@keyframes eydjfgbsbxx111_tr__tr { 0% {transform: rotate(0deg)} 20% {transform: rotate(0deg)} 30% {transform: rotate(-5.264477deg)} 40% {transform: rotate(5.016461deg)} 53.333333% {transform: rotate(0deg)} 100% {transform: rotate(0deg)} }#eydjfgbsbxx125_to {animation: eydjfgbsbxx125_to__to 3000ms linear infinite normal forwards}@keyframes eydjfgbsbxx125_to__to { 0% {transform: translate(77.050001px,88.040001px)} 6.666667% {transform: translate(77.050001px,88.040001px)} 20% {transform: translate(77.050001px,83.040001px)} 53.333333% {transform: translate(77.050001px,83.040001px)} 66.666667% {transform: translate(77.050001px,88.040001px)} 100% {transform: translate(77.050001px,88.040001px)} }#eydjfgbsbxx212_to {animation: eydjfgbsbxx212_to__to 3000ms linear infinite normal forwards}@keyframes eydjfgbsbxx212_to__to { 0% {transform: translate(24.600000px,58.785084px);animation-timing-function: cubic-bezier(0.420000,0,1,1)} 6.666667% {transform: translate(19.600000px,54.785084px)} 16.666667% {transform: translate(18.600000px,59.785084px)} 46.666667% {transform: translate(18.600000px,59.785084px);animation-timing-function: cubic-bezier(0,0,0.580000,1)} 56.666667% {transform: translate(19.050000px,57.585084px)} 70% {transform: translate(24.600000px,58.785084px)} 100% {transform: translate(24.600000px,58.785084px)} }#eydjfgbsbxx212_tr {animation: eydjfgbsbxx212_tr__tr 3000ms linear infinite normal forwards}@keyframes eydjfgbsbxx212_tr__tr { 0% {transform: rotate(0deg);animation-timing-function: cubic-bezier(0.695000,-0.005000,1,1)} 6.666667% {transform: rotate(16.513087deg)} 16.666667% {transform: rotate(18.080377deg)} 46.666667% {transform: rotate(18.080377deg);animation-timing-function: cubic-bezier(0,0,0.580000,1)} 56.666667% {transform: rotate(16.421268deg)} 70% {transform: rotate(0deg)} 100% {transform: rotate(0deg)} }#eydjfgbsbxx281_to {animation: eydjfgbsbxx281_to__to 3000ms linear infinite normal forwards}@keyframes eydjfgbsbxx281_to__to { 0% {transform: translate(27.779714px,51.815396px)} 16.666667% {transform: translate(25.111898px,53.331700px);animation-timing-function: cubic-bezier(0,0,0.580000,1)} 26.666667% {transform: translate(24.932411px,53.511188px)} 46.666667% {transform: translate(24.573437px,53.870162px);animation-timing-function: cubic-bezier(0,0,0.580000,1)} 70% {transform: translate(28.779714px,51.815396px)} 100% {transform: translate(28.779714px,51.815396px)} }#eydjfgbsbxx281_tr {animation: eydjfgbsbxx281_tr__tr 3000ms linear infinite normal forwards}@keyframes eydjfgbsbxx281_tr__tr { 0% {transform: rotate(0deg)} 16.666667% {transform: rotate(-2.370198deg)} 26.666667% {transform: rotate(-13.565826deg);animation-timing-function: cubic-bezier(0,0,0.580000,1)} 46.666667% {transform: rotate(-5.964048deg);animation-timing-function: cubic-bezier(0,0,0.580000,1)} 70% {transform: rotate(0deg)} 100% {transform: rotate(0deg)} }#eydjfgbsbxx283_to {animation: eydjfgbsbxx283_to__to 3000ms linear infinite normal forwards}@keyframes eydjfgbsbxx283_to__to { 0% {transform: translate(34.623250px,44.780000px)} 6.666667% {transform: translate(32.623250px,42.780000px)} 16.666667% {transform: translate(31.623250px,46.780000px)} 26.666667% {transform: translate(30.623250px,48.780000px)} 56.666667% {transform: translate(31.623250px,45.780000px)} 70% {transform: translate(34.623250px,44.780000px)} 100% {transform: translate(34.623250px,44.780000px)} }#eydjfgbsbxx283_tr {animation: eydjfgbsbxx283_tr__tr 3000ms linear infinite normal forwards}@keyframes eydjfgbsbxx283_tr__tr { 0% {transform: rotate(0deg)} 26.666667% {transform: rotate(-20.533879deg)} 40% {transform: rotate(-8.989849deg)} 56.666667% {transform: rotate(-20.533879deg)} 70% {transform: rotate(0deg)} 100% {transform: rotate(0deg)} }#eydjfgbsbxx288_to {animation: eydjfgbsbxx288_to__to 3000ms linear infinite normal forwards}@keyframes eydjfgbsbxx288_to__to { 0% {transform: translate(21.673406px,48.097582px)} 6.666667% {transform: translate(18.073406px,44.897582px)} 16.666667% {transform: translate(18.673406px,50.097582px)} 26.666667% {transform: translate(18.673406px,50.097582px)} 40% {transform: translate(19.273406px,49.297582px)} 56.666667% {transform: translate(18.673406px,47.097582px)} 70% {transform: translate(21.673406px,48.097582px)} 100% {transform: translate(21.673406px,48.097582px)} }#eydjfgbsbxx288_tr {animation: eydjfgbsbxx288_tr__tr 3000ms linear infinite normal forwards}@keyframes eydjfgbsbxx288_tr__tr { 0% {transform: rotate(0deg)} 26.666667% {transform: rotate(9.576059deg)} 40% {transform: rotate(-0.561582deg)} 56.666667% {transform: rotate(9.576059deg)} 70% {transform: rotate(0deg)} 100% {transform: rotate(0deg)} }#eydjfgbsbxx293_to {animation: eydjfgbsbxx293_to__to 3000ms linear infinite normal forwards}@keyframes eydjfgbsbxx293_to__to { 0% {transform: translate(35.820183px,0.958355px)} 16.666667% {transform: translate(30.854260px,2.861368px);animation-timing-function: cubic-bezier(0,0,0.580000,1)} 20% {transform: translate(27.026543px,2.569500px)} 26.666667% {transform: translate(20.852612px,2.919919px);animation-timing-function: cubic-bezier(0,0,0.580000,1)} 46.666667% {transform: translate(26.617637px,2.196009px);animation-timing-function: cubic-bezier(0,0,0.580000,1)} 70% {transform: translate(35.820183px,0.958355px)} 100% {transform: translate(35.820183px,0.958355px)} }#eydjfgbsbxx293_tr {animation: eydjfgbsbxx293_tr__tr 3000ms linear infinite normal forwards}@keyframes eydjfgbsbxx293_tr__tr { 0% {transform: rotate(0deg)} 16.666667% {transform: rotate(24.444352deg)} 26.666667% {transform: rotate(-1.551076deg)} 46.666667% {transform: rotate(33.258097deg);animation-timing-function: cubic-bezier(0,0,0.580000,1)} 70% {transform: rotate(0deg)} 100% {transform: rotate(0deg)} }#eydjfgbsbxx295_to {animation: eydjfgbsbxx295_to__to 3000ms linear infinite normal forwards}@keyframes eydjfgbsbxx295_to__to { 0% {transform: translate(43.710000px,10.377424px)} 3.333333% {transform: translate(43.710000px,10.377424px)} 16.666667% {transform: translate(34.428827px,15.599884px);animation-timing-function: cubic-bezier(0.420000,0,1,1)} 26.666667% {transform: translate(29.397046px,11.578642px);animation-timing-function: cubic-bezier(0.420000,0,1,1)} 46.666667% {transform: translate(28.464384px,13.216628px);animation-timing-function: cubic-bezier(0,0,0.580000,1)} 70% {transform: translate(43.710000px,10.377424px)} 100% {transform: translate(43.710000px,10.377424px)} }#eydjfgbsbxx295_tr {animation: eydjfgbsbxx295_tr__tr 3000ms linear infinite normal forwards}@keyframes eydjfgbsbxx295_tr__tr { 0% {transform: rotate(0deg)} 3.333333% {transform: rotate(0deg)} 16.666667% {transform: rotate(21.162217deg);animation-timing-function: cubic-bezier(0.420000,0,1,1)} 26.666667% {transform: rotate(1.841558deg)} 46.666667% {transform: rotate(20.154744deg);animation-timing-function: cubic-bezier(0,0,0.580000,1)} 70% {transform: rotate(0deg)} 100% {transform: rotate(0deg)} }]]></style><rect id="eydjfgbsbxx2" width="110" height="100" rx="0" ry="0" transform="matrix(1 0 0 1 2.68000000000000 0.26000000000000)" fill="none" stroke="none" stroke-width="1"/><g id="eydjfgbsbxx3"><g id="eydjfgbsbxx4"><g id="eydjfgbsbxx5"><ellipse id="eydjfgbsbxx6" rx="19" ry="5" transform="matrix(1 0 0 1 21.68000000000000 95.26000000000001)" fill="rgb(201,62,61)" stroke="none" stroke-width="1"/></g><g id="eydjfgbsbxx7"><rect id="eydjfgbsbxx8" width="38" height="36" rx="0" ry="0" transform="matrix(1 0 0 1 2.68000000000000 59.26000000000000)" fill="rgb(201,62,61)" stroke="none" stroke-width="1"/></g><g id="eydjfgbsbxx9"><ellipse id="eydjfgbsbxx10" rx="19" ry="5" transform="matrix(1 0 0 1 21.68000000000000 59.26000000000000)" fill="rgb(242,203,48)" stroke="none" stroke-width="1"/></g><g id="eydjfgbsbxx11" clip-path="url(#eydjfgbsbxx19)"><g id="eydjfgbsbxx12"><g id="eydjfgbsbxx13"><g id="eydjfgbsbxx14"><g id="eydjfgbsbxx15"><path id="eydjfgbsbxx16" d="M19.180000,69.880000C0.180000,69.880000,-2.250000,65.090000,-2.560000,64.130000L0.300000,63.230000C0.310199,63.187267,0.310199,63.142733,0.300000,63.100000C0.289801,63.057267,2.530000,66.880000,19.230000,66.880000C35.930000,66.880000,38.230000,62.880000,38.300000,62.810000C38.291532,62.842796,38.291532,62.877204,38.300000,62.910000L41.150000,63.840000C40.730000,64.850000,38.140000,69.880000,19.180000,69.880000Z" transform="matrix(1 0 0 1 2.56000000000000 -0.12000000000000)" fill="rgb(242,203,48)" stroke="none" stroke-width="1"/></g><g id="eydjfgbsbxx17"><path id="eydjfgbsbxx18" d="M19.180000,96.880000C0.180000,96.880000,-2.260000,92.090000,-2.560000,91.130000L0.300000,90.230000C0.310199,90.187267,0.310199,90.142733,0.300000,90.100000C0.289801,90.057267,2.530000,93.880000,19.230000,93.880000C35.930000,93.880000,38.230000,89.880000,38.300000,89.810000C38.291532,89.842796,38.291532,89.877204,38.300000,89.910000L41.150000,90.840000C40.730000,91.850000,38.140000,96.880000,19.180000,96.880000Z" transform="matrix(1 0 0 1 2.56000000000000 -0.12000000000000)" fill="rgb(242,203,48)" stroke="none" stroke-width="1"/></g></g></g></g><clipPath id="eydjfgbsbxx19" transform="matrix(1 0 0 1 2.56000000000000 -0.12000000000000)"><rect id="eydjfgbsbxx20" width="38" height="40" rx="0" ry="0" transform="matrix(1 0 0 1 0.12000000000000 60.39000000000000)" fill="none" stroke="none" stroke-width="1"/></clipPath></g><g id="eydjfgbsbxx21"><rect id="eydjfgbsbxx22" width="14" height="14" rx="2" ry="2" transform="matrix(0.70710700000000 -0.70710700000000 0.70710700000000 0.70710700000000 11.68040517000001 81.16155289000002)" fill="rgb(242,203,48)" stroke="none" stroke-width="1"/></g></g><g id="eydjfgbsbxx23"><g id="eydjfgbsbxx24"><rect id="eydjfgbsbxx25" width="16" height="17" rx="0" ry="0" transform="matrix(1 0 0 1 38.68000000000000 79.97000000000000)" fill="rgb(201,62,61)" stroke="none" stroke-width="1"/></g><g id="eydjfgbsbxx26"><ellipse id="eydjfgbsbxx27" rx="8" ry="2.500000" transform="matrix(1 0 0 1 46.68000000000000 97.76000000000001)" fill="rgb(201,62,61)" stroke="none" stroke-width="1"/></g><g id="eydjfgbsbxx28"><ellipse id="eydjfgbsbxx29" rx="8" ry="2.500000" transform="matrix(1 0 0 1 46.68000000000000 79.76000000000001)" fill="rgb(242,203,48)" stroke="none" stroke-width="1"/></g><g id="eydjfgbsbxx30"><path id="eydjfgbsbxx31" d="M45,88L47.870000,91C48.210321,91.358804,48.210321,91.921196,47.870000,92.280000L45,95.280000C44.844100,95.437561,44.631654,95.526219,44.410000,95.526219C44.188346,95.526219,43.975900,95.437561,43.820000,95.280000C43.664100,95.122439,43.820000,95.280000,43.820000,95.280000L40.950000,92.280000C40.641167,91.909219,40.641167,91.370781,40.950000,91L43.820000,88C43.975900,87.842439,44.188346,87.753781,44.410000,87.753781C44.631654,87.753781,44.844100,87.842439,45,88Z" transform="matrix(1 0 0 1 2.56000000000000 -0.12000000000000)" fill="rgb(242,203,48)" stroke="none" stroke-width="1"/></g><g id="eydjfgbsbxx32" clip-path="url(#eydjfgbsbxx40)"><g id="eydjfgbsbxx33"><g id="eydjfgbsbxx34"><g id="eydjfgbsbxx35"><g id="eydjfgbsbxx36"><path id="eydjfgbsbxx37" d="M44.060000,85.370000C37.500000,85.370000,34.560000,83,34.440000,82.900000C34.235493,82.730452,34.106852,82.486499,34.082463,82.221971C34.058074,81.957444,34.139941,81.694083,34.310000,81.490000C34.659368,81.067411,35.283870,81.004961,35.710000,81.350000C36.136130,81.695039,38.310000,83.350000,44.060000,83.350000C50.540000,83.350000,53.270000,80.860000,53.290000,80.840000C53.687645,80.456162,54.321162,80.467355,54.705000,80.865000C55.088838,81.262645,55.077645,81.896162,54.680000,82.280000C54.550000,82.430000,51.430000,85.370000,44.060000,85.370000Z" transform="matrix(1 0 0 1 2.56000000000000 -0.12000000000000)" fill="rgb(242,203,48)" stroke="none" stroke-width="1"/></g><g id="eydjfgbsbxx38"><path id="eydjfgbsbxx39" d="M44.060000,99.370000C37.500000,99.370000,34.560000,97,34.440000,96.900000C34.235493,96.730452,34.106852,96.486499,34.082463,96.221971C34.058074,95.957444,34.139941,95.694083,34.310000,95.490000C34.659368,95.067411,35.283870,95.004961,35.710000,95.350000C36.136130,95.695039,38.310000,97.350000,44.060000,97.350000C50.540000,97.350000,53.270000,94.860000,53.290000,94.840000C53.687645,94.456162,54.321162,94.467355,54.705000,94.865000C55.088838,95.262645,55.077645,95.896162,54.680000,96.280000C54.550000,96.430000,51.430000,99.370000,44.060000,99.370000Z" transform="matrix(1 0 0 1 2.56000000000000 -0.12000000000000)" fill="rgb(242,203,48)" stroke="none" stroke-width="1"/></g></g></g></g><clipPath id="eydjfgbsbxx40" transform="matrix(1 0 0 1 2.56000000000000 -0.12000000000000)"><rect id="eydjfgbsbxx41" width="16" height="20" rx="0" ry="0" transform="matrix(1 0 0 1 36.12000000000000 80.09999999999999)" fill="none" stroke="none" stroke-width="1"/></clipPath></g><g id="eydjfgbsbxx42"><path id="eydjfgbsbxx43" d="M44.100000,81.410000C43.845687,81.411837,43.630512,81.222483,43.600000,80.970000C43.569488,80.717517,43.220000,76.740000,49.060000,75.180000C50.571759,74.781151,51.786212,73.656658,52.300000,72.180000C52.393977,71.920507,52.680432,71.786231,52.940000,71.880000C53.066328,71.922827,53.169737,72.015306,53.226352,72.136085C53.282967,72.256865,53.287896,72.395505,53.240000,72.520000C52.603951,74.288983,51.137955,75.631566,49.320000,76.110000C44.320000,77.440000,44.580000,80.690000,44.600000,80.830000C44.617802,81.101136,44.419901,81.338617,44.150000,81.370000Z" transform="matrix(1 0 0 1 2.56000000000000 -0.12000000000000)" fill="rgb(201,62,61)" stroke="none" stroke-width="1"/></g></g></g><g id="eydjfgbsbxx44"><g id="eydjfgbsbxx45"><g id="eydjfgbsbxx46"><path id="eydjfgbsbxx47" d="M49,38.350000C45.680000,45.150000,44,56.730000,45.800000,65.350000C47.710000,74.620000,42.580000,77.290000,43.880000,83.490000C45.690000,88.950000,50.430000,92.880000,58.260000,93.320000C66.090000,93.760000,77.660000,92.560000,87.080000,94.760000C96.500000,96.960000,104.240000,90.610000,104.990000,85.390000C105.740000,80.170000,102.890000,80.310000,101.990000,72.450000C101.580000,68.650000,102.520000,57.640000,102.830000,52.810000C103.068363,48.978829,102.321281,45.150467,100.660000,41.690000C98.660000,37.170000,93.980000,28.380000,83.410000,25.310000C70.350000,20.790000,55.230000,25.650000,49,38.350000Z" transform="matrix(1 0 0 1 2.56000000000000 -0.12000000000000)" fill="rgb(76,84,90)" stroke="none" stroke-width="1"/></g><g id="eydjfgbsbxx48" opacity="0.3"><g id="eydjfgbsbxx49" clip-path="url(#eydjfgbsbxx54)"><g id="eydjfgbsbxx50"><g id="eydjfgbsbxx51"><g id="eydjfgbsbxx52"><path id="eydjfgbsbxx53" d="M54.730000,56.610000C54.730000,56.610000,55.350000,70.530000,52.440000,77.550000C49.530000,84.570000,48.560000,90.460000,60.330000,95.120000C72.100000,99.780000,90.200000,97.710000,92.680000,96.610000C95.160000,95.510000,102.550000,88.610000,96.970000,81.140000C91.390000,73.670000,93.970000,58.460000,93.970000,58.460000Z" transform="matrix(1 0 0 1 2.56000000000000 -0.12000000000000)" fill="rgb(0,0,0)" stroke="none" stroke-width="1"/></g></g></g><clipPath id="eydjfgbsbxx54" transform="matrix(1 0 0 1 2.56000000000000 -0.12000000000000)"><path id="eydjfgbsbxx55" d="M49,38.350000C45.680000,45.150000,44,56.730000,45.800000,65.350000C47.710000,74.620000,42.580000,77.290000,43.880000,83.490000C45.690000,88.950000,50.430000,92.880000,58.260000,93.320000C66.090000,93.760000,77.660000,92.560000,87.080000,94.760000C96.500000,96.960000,104.240000,90.610000,104.990000,85.390000C105.740000,80.170000,102.890000,80.310000,101.990000,72.450000C101.290000,66.060000,102.570000,54.670000,102.800000,49.800000C103.030000,44.930000,97.660000,29.150000,83.770000,25.110000C70.630000,20.630000,55.230000,25.650000,49,38.350000Z" fill="none" stroke="none" stroke-width="1"/></clipPath></g></g><g id="eydjfgbsbxx56"><path id="eydjfgbsbxx57" d="M65.430000,92.370000L74.650000,92.370000L74.650000,98.530000C74.650000,99.082285,74.202285,99.530000,73.650000,99.530000L65.430000,99.530000C64.877715,99.530000,64.430000,99.082285,64.430000,98.530000L64.430000,93.370000C64.430000,92.817715,64.877715,92.370000,65.430000,92.370000Z" transform="matrix(1 0 0 1 2.56000000000000 -0.12000000000000)" fill="rgb(201,62,61)" stroke="none" stroke-width="1"/></g><g id="eydjfgbsbxx58"><path id="eydjfgbsbxx59" d="M74.650000,92.370000L83.870000,92.370000C84.422285,92.370000,84.870000,92.817715,84.870000,93.370000L84.870000,98.530000C84.870000,99.082285,84.422285,99.530000,83.870000,99.530000L75.650000,99.530000C75.097715,99.530000,74.650000,99.082285,74.650000,98.530000L74.650000,92.370000Z" transform="matrix(1 0 0 1 2.56000000000000 -0.12000000000000)" fill="rgb(201,62,61)" stroke="none" stroke-width="1"/></g><g id="eydjfgbsbxx60_to" transform="translate(77.234705,82.660961)"><g id="eydjfgbsbxx60" transform="translate(-77.234705,-82.660961)"><g id="eydjfgbsbxx61"><path id="eydjfgbsbxx62" d="M63,75.560000C63,75.560000,56,84.150000,56.530000,85.310000C57.060000,86.470000,62.230000,89.630000,63.630000,90.210000C65.030000,90.790000,65.930000,76.070000,64.900000,75.560000C64.302120,75.260308,63.597880,75.260308,63,75.560000Z" transform="matrix(1 0 0 1 2.56000000000000 -0.12000000000000)" fill="rgb(201,62,61)" stroke="none" stroke-width="1"/></g><g id="eydjfgbsbxx63"><path id="eydjfgbsbxx64" d="M86.400000,75.560000C86.400000,75.560000,93.400000,84.150000,92.880000,85.310000C92.360000,86.470000,87.180000,89.630000,85.780000,90.210000C84.380000,90.790000,83.470000,76.070000,84.500000,75.560000C85.097880,75.260308,85.802120,75.260308,86.400000,75.560000Z" transform="matrix(1 0 0 1 2.56000000000000 -0.12000000000000)" fill="rgb(201,62,61)" stroke="none" stroke-width="1"/></g><g id="eydjfgbsbxx65"><path id="eydjfgbsbxx66" d="M61.850000,88.360000C61.752749,88.359296,61.658223,88.327788,61.580000,88.270000C59.845869,87.141342,58.176568,85.916075,56.580000,84.600000C56.372393,84.419181,56.341701,84.107881,56.510000,83.890000C56.691138,83.680578,57.006286,83.653946,57.220000,83.830000C58.776007,85.121598,60.401790,86.326747,62.090000,87.440000C62.277637,87.561125,62.362191,87.791999,62.297164,88.005659C62.232138,88.219318,62.033301,88.363943,61.810000,88.360000Z" transform="matrix(1 0 0 1 2.56000000000000 -0.12000000000000)" fill="rgb(242,203,48)" stroke="none" stroke-width="1"/></g><g id="eydjfgbsbxx67"><path id="eydjfgbsbxx68" d="M87.570000,88.630000C87.350934,88.631682,87.156285,88.490562,87.089767,88.281833C87.023248,88.073103,87.100354,87.845380,87.280000,87.720000C88.960410,86.578606,90.570033,85.336324,92.100000,84C92.294422,83.809429,92.605578,83.809429,92.800000,84C92.894656,84.093883,92.947899,84.221681,92.947899,84.355000C92.947899,84.488319,92.894656,84.616117,92.800000,84.710000C91.241256,86.086626,89.601669,87.368910,87.890000,88.550000C87.795453,88.612096,87.682645,88.640298,87.570000,88.630000Z" transform="matrix(1 0 0 1 2.56000000000000 -0.12000000000000)" fill="rgb(242,203,48)" stroke="none" stroke-width="1"/></g></g></g><g id="eydjfgbsbxx69"><path id="eydjfgbsbxx70" d="M66,75L83.340000,75C84.924332,74.902601,86.292573,76.097027,86.410000,77.680000L88.410000,93.780000C88.297834,95.365597,86.926221,96.562966,85.340000,96.460000L63.920000,96.460000C62.333779,96.562966,60.962166,95.365597,60.850000,93.780000L62.850000,77.680000C62.905922,76.904371,63.271010,76.183698,63.863294,75.679786C64.455578,75.175874,65.225429,74.930949,66,75Z" transform="matrix(1 0 0 1 2.56000000000000 -0.12000000000000)" fill="rgb(201,62,61)" stroke="none" stroke-width="1"/></g><g id="eydjfgbsbxx71"><path id="eydjfgbsbxx72" d="M74.650000,97C70.152441,96.968581,65.659617,96.701549,61.190000,96.200000C60.925929,96.169914,60.684697,96.035942,60.519583,95.827673C60.354469,95.619404,60.279056,95.353972,60.310000,95.090000C60.340086,94.825929,60.474058,94.584697,60.682327,94.419583C60.890596,94.254469,61.156028,94.179056,61.420000,94.210000C65.809965,94.702641,70.222607,94.966331,74.640000,95C79.103580,94.972251,83.562788,94.715245,88,94.230000C88.546114,94.171476,89.037218,94.564359,89.100000,95.110000C89.130944,95.373972,89.055531,95.639404,88.890417,95.847673C88.725303,96.055942,88.484071,96.189914,88.220000,96.220000C83.712732,96.708882,79.183599,96.969215,74.650000,97Z" transform="matrix(1 0 0 1 2.56000000000000 -0.12000000000000)" fill="rgb(242,203,48)" stroke="none" stroke-width="1"/></g><g id="eydjfgbsbxx73"><ellipse id="eydjfgbsbxx74" rx="6" ry="3" transform="matrix(1 0 0 1 76.68000000000001 79.26000000000001)" fill="rgb(255,255,255)" stroke="none" stroke-width="1"/></g><g id="eydjfgbsbxx75"><g id="eydjfgbsbxx76"><path id="eydjfgbsbxx77" d="M74.140000,35.470000C80.521109,35.470000,86.640864,38.004886,91.152989,42.517011C95.665114,47.029136,98.200000,53.148891,98.200000,59.530000C98.200000,72.820000,87.430000,80.790000,74.140000,80.790000C60.850000,80.790000,50.080000,72.790000,50.080000,59.530000C50.080000,53.148891,52.614886,47.029136,57.127011,42.517011C61.639136,38.004886,67.758891,35.470000,74.140000,35.470000Z" transform="matrix(1 0 0 1 2.56000000000000 -0.12000000000000)" fill="rgb(253,223,188)" stroke="none" stroke-width="1"/></g><g id="eydjfgbsbxx78"><path id="eydjfgbsbxx79" d="M74.140000,80.790000C71.229952,80.803956,68.333220,80.396393,65.540000,79.580000C66.699458,79.700051,67.864343,79.760131,69.030000,79.760000C75.660000,79.760000,81.700000,77.760000,86.030000,74.120000C88.219905,72.299496,89.981687,70.018739,91.190000,67.440000C92.461860,64.636181,93.106851,61.588686,93.080000,58.510000C93.093718,53.341360,91.426587,48.308379,88.330000,44.170000C86.834990,42.161083,85.036869,40.396697,83,38.940000C80.949000,37.467830,78.677434,36.330359,76.270000,35.570000C88.687144,36.684496,98.193996,47.102964,98.170000,59.570000C98.202360,62.649236,97.557120,65.697910,96.280000,68.500000C95.071687,71.078739,93.309905,73.359496,91.120000,75.180000C86.810000,78.780000,80.770000,80.790000,74.140000,80.790000Z" transform="matrix(1 0 0 1 2.56000000000000 -0.12000000000000)" fill="rgb(254,217,173)" stroke="none" stroke-width="1"/></g><g id="eydjfgbsbxx80"><rect id="eydjfgbsbxx81" width="4.090000" height="6.130000" rx="2.040000" ry="2.040000" transform="matrix(1 0 0 1 63.48000000000000 61.89000000000000)" fill="rgb(76,84,90)" stroke="none" stroke-width="1"/></g><g id="eydjfgbsbxx82"><rect id="eydjfgbsbxx83" width="4.090000" height="6.130000" rx="2.040000" ry="2.040000" transform="matrix(1 0 0 1 85.97000000000000 61.89000000000000)" fill="rgb(76,84,90)" stroke="none" stroke-width="1"/></g><g id="eydjfgbsbxx84"><path id="eydjfgbsbxx85" d="M74,73.070000C73.150044,73.045862,72.314926,72.841343,71.550000,72.470000C71.357010,72.379376,71.208843,72.214594,71.139165,72.013092C71.069487,71.811591,71.084214,71.590481,71.180000,71.400000C71.262880,71.202373,71.423420,71.047552,71.623921,70.971891C71.824423,70.896230,72.047221,70.906396,72.240000,71C72.790359,71.267040,73.389008,71.420104,74,71.450000C74.565000,71.411826,75.116257,71.258699,75.620000,71C76.017851,70.804135,76.499238,70.964598,76.700000,71.360000C76.796458,71.549242,76.812647,71.769354,76.744913,71.970672C76.677180,72.171990,76.531232,72.337551,76.340000,72.430000C75.616014,72.811447,74.817342,73.029887,74,73.070000Z" transform="matrix(1 0 0 1 2.56000000000000 -0.12000000000000)" fill="rgb(76,84,90)" stroke="none" stroke-width="1"/></g><g id="eydjfgbsbxx86"><path id="eydjfgbsbxx87" d="M50.400000,55.260000C50.400000,55.260000,60.150000,52.480000,64.550000,47.350000C68.950000,42.220000,71.550000,44.920000,73.550000,46.120000C75.550000,47.320000,80.670000,51.860000,87.230000,54.790000C90.835543,56.508433,94.775936,57.409875,98.770000,57.430000C102.764064,57.450125,99.100000,43.860000,91.140000,38.820000C83.180000,33.780000,66.480000,29.530000,57.850000,38.820000C49.220000,48.110000,50.400000,55.260000,50.400000,55.260000Z" transform="matrix(1 0 0 1 2.56000000000000 -0.12000000000000)" fill="rgb(76,84,90)" stroke="none" stroke-width="1"/></g><g id="eydjfgbsbxx88"><g id="eydjfgbsbxx89"><g id="eydjfgbsbxx90"><path id="eydjfgbsbxx91" d="M85.430000,48.270000C84.325431,48.385980,83.335980,47.584569,83.220000,46.480000C83.104020,45.375431,83.905431,44.385980,85.010000,44.270000L90.350000,43.130000C91.432478,42.900802,92.495802,43.592522,92.725000,44.675000C92.954198,45.757478,92.262478,46.820802,91.180000,47.050000L85.840000,48.180000C85.706869,48.224299,85.569445,48.254465,85.430000,48.270000Z" transform="matrix(1 0 0 1 2.56000000000000 -0.12000000000000)" fill="rgb(201,62,61)" stroke="none" stroke-width="1"/></g><g id="eydjfgbsbxx92"><path id="eydjfgbsbxx93" d="M85.230000,48.150000C84.267555,48.170400,83.427129,47.502261,83.230000,46.560000L82.090000,41.230000C81.906796,40.170661,82.593816,39.156006,83.645447,38.932769C84.697079,38.709533,85.737052,39.357588,86,40.400000L87.140000,45.730000C87.268690,46.328400,87.116280,46.952783,86.726356,47.424592C86.336432,47.896400,85.751929,48.163681,85.140000,48.150000Z" transform="matrix(1 0 0 1 2.56000000000000 -0.12000000000000)" fill="rgb(201,62,61)" stroke="none" stroke-width="1"/></g></g><g id="eydjfgbsbxx94"><ellipse id="eydjfgbsbxx95" rx="2.500000" ry="2" transform="matrix(1 0 0 1 84.17000000000000 51.26000000000000)" fill="rgb(201,62,61)" stroke="none" stroke-width="1"/></g></g></g><g id="eydjfgbsbxx96"><path id="eydjfgbsbxx97" d="M79.310000,80.410000C79.310000,80.410000,79,82.490000,78.310000,83.010000C77.620000,83.530000,80.310000,84.010000,81.160000,83.790000C82.010000,83.570000,80.900000,80.110000,80.900000,80.110000Z" transform="matrix(1 0 0 1 2.56000000000000 -0.12000000000000)" fill="rgb(255,255,255)" stroke="none" stroke-width="1"/></g><g id="eydjfgbsbxx98"><path id="eydjfgbsbxx99" d="M69.850000,93L69.850000,93C71.932114,93,73.620000,94.687886,73.620000,96.770000L73.620000,96.770000C73.622657,97.771598,73.226635,98.733083,72.519334,99.442259C71.812034,100.151436,70.851601,100.550004,69.850000,100.550000L69.850000,100.550000C68.847482,100.550000,67.886024,100.151751,67.177136,99.442864C66.468249,98.733976,66.070000,97.772518,66.070000,96.770000L66.070000,96.770000C66.069996,95.768399,66.468564,94.807966,67.177741,94.100666C67.886917,93.393365,68.848402,92.997343,69.850000,93Z" transform="matrix(1 0 0 1 2.56000000000000 -0.12000000000000)" fill="rgb(11,11,11)" stroke="none" stroke-width="1"/></g><g id="eydjfgbsbxx100"><path id="eydjfgbsbxx101" d="M79.750000,93L79.750000,93C81.832114,93,83.520000,94.687886,83.520000,96.770000L83.520000,96.770000C83.522657,97.771598,83.126635,98.733083,82.419334,99.442259C81.712034,100.151436,80.751601,100.550004,79.750000,100.550000L79.750000,100.550000C77.674089,100.533524,75.999935,98.845977,76,96.770000L76,96.770000C76.005416,94.697923,77.677982,93.016438,79.750000,93Z" transform="matrix(1 0 0 1 2.56000000000000 -0.12000000000000)" fill="rgb(11,11,11)" stroke="none" stroke-width="1"/></g></g><g id="eydjfgbsbxx102"><g id="eydjfgbsbxx103"><path id="eydjfgbsbxx104" d="M50.510000,60.200000C49.734191,59.922547,48.870137,60.227261,48.440000,60.930000C47.680000,62.150000,48.010000,65.510000,50.090000,67.390000C52.170000,69.270000,53.970000,68.390000,53.970000,68.390000C53.970000,68.390000,52,61,51.490000,60.810000C51.131218,60.663490,50.799860,60.457237,50.510000,60.200000Z" transform="matrix(1 0 0 1 2.56000000000000 -0.12000000000000)" fill="rgb(253,223,188)" stroke="none" stroke-width="1"/></g><g id="eydjfgbsbxx105"><path id="eydjfgbsbxx106" d="M97.060000,60.200000C97.835809,59.922547,98.699863,60.227261,99.130000,60.930000C99.880000,62.150000,99.560000,65.520000,97.480000,67.390000C95.400000,69.260000,93.600000,68.390000,93.600000,68.390000C93.600000,68.390000,95.540000,60.970000,96.080000,60.760000C96.437090,60.632490,96.768853,60.442911,97.060000,60.200000Z" transform="matrix(1 0 0 1 2.56000000000000 -0.12000000000000)" fill="rgb(254,217,173)" stroke="none" stroke-width="1"/></g><g id="eydjfgbsbxx107"><path id="eydjfgbsbxx108" d="M50.360000,54C50.360000,54,48.640000,65.610000,53.260000,74.060000C57.880000,82.510000,61.520000,82.260000,61.520000,82.260000C61.520000,82.260000,49.680000,73.790000,54,59.050000C58.320000,44.310000,51.290000,52.210000,51.290000,52.210000Z" transform="matrix(1 0 0 1 2.56000000000000 -0.12000000000000)" fill="rgb(76,84,90)" stroke="none" stroke-width="1"/></g><g id="eydjfgbsbxx109"><path id="eydjfgbsbxx110" d="M98,54C98,54,99.720000,65.610000,95.100000,74.060000C90.480000,82.510000,86.840000,82.260000,86.840000,82.260000C86.840000,82.260000,98.680000,73.760000,94.390000,59.020000C90.100000,44.280000,97.100000,52.180000,97.100000,52.180000Z" transform="matrix(1 0 0 1 2.56000000000000 -0.12000000000000)" fill="rgb(76,84,90)" stroke="none" stroke-width="1"/></g></g><g id="eydjfgbsbxx111_to" transform="translate(77.394632,84.529442)"><g id="eydjfgbsbxx111_tr" transform="rotate(0)"><g id="eydjfgbsbxx111" transform="translate(-77.394632,-84.529442)"><g id="eydjfgbsbxx112"><path id="eydjfgbsbxx113" d="M58.410000,77.570000C58.410000,77.570000,58.060000,89.140000,65.270000,92.710000C72.480000,96.280000,81.450000,95.370000,85.750000,91.080000C90.050000,86.790000,91.320000,80.200000,91.260000,77.570000C91.260000,76.670000,78.890000,78.160000,74.260000,78.730000C69.630000,79.300000,65.420000,77.730000,62.520000,77.570000C61.152207,77.460020,59.777793,77.460020,58.410000,77.570000Z" transform="matrix(1 0 0 1 2.56000000000000 -0.12000000000000)" fill="rgb(242,203,48)" stroke="none" stroke-width="1"/></g><g id="eydjfgbsbxx114" clip-path="url(#eydjfgbsbxx119)"><g id="eydjfgbsbxx115"><g id="eydjfgbsbxx116"><g id="eydjfgbsbxx117"><path id="eydjfgbsbxx118" d="M58.410000,77.570000C58.410000,77.570000,58.060000,89.140000,65.270000,92.710000C72.480000,96.280000,81.450000,95.370000,85.750000,91.080000C90.050000,86.790000,91.320000,80.200000,91.260000,77.570000C91.260000,76.660000,78.890000,78.160000,74.260000,78.730000C69.630000,79.300000,65.420000,77.730000,62.520000,77.570000C61.152207,77.460020,59.777793,77.460020,58.410000,77.570000Z" transform="matrix(1 0 0 1 2.56000000000000 -0.12000000000000)" fill="rgb(206,165,37)" stroke="none" stroke-width="1"/></g></g></g><clipPath id="eydjfgbsbxx119" transform="matrix(1 0 0 1 2.56000000000000 -0.12000000000000)"><path id="eydjfgbsbxx120" d="M57.730000,77.150000C57.730000,77.150000,65.730000,84.790000,75.470000,84.070000C85.210000,83.350000,90.910000,78.700000,91.920000,77.150000C91.920000,77.230000,78.490000,75.300000,76.080000,75.930000C73.670000,76.560000,63.830000,76.110000,61.600000,75.930000C60.205184,75.857433,58.831027,76.290630,57.730000,77.150000Z" fill="none" stroke="none" stroke-width="1"/></clipPath></g><g id="eydjfgbsbxx121"><ellipse id="eydjfgbsbxx122" rx="10" ry="4.500000" transform="matrix(1 0 0 1 77.68000000000001 78.76000000000001)" fill="rgb(242,203,48)" stroke="none" stroke-width="1"/></g><g id="eydjfgbsbxx123"><circle id="eydjfgbsbxx124" r="1.500000" transform="matrix(1 0 0 1 71.18000000000001 78.76000000000001)" fill="rgb(255,255,255)" stroke="none" stroke-width="1"/></g></g></g></g><g id="eydjfgbsbxx125_to" transform="translate(77.050001,88.040001)"><g id="eydjfgbsbxx125" transform="translate(-77.050001,-88.040001)"><g id="eydjfgbsbxx126"><circle id="eydjfgbsbxx127" r="3.070000" transform="matrix(1 0 0 1 62.74000000000000 88.04000000000001)" fill="rgb(253,223,188)" stroke="none" stroke-width="1"/></g><g id="eydjfgbsbxx128"><circle id="eydjfgbsbxx129" r="3.070000" transform="matrix(1 0 0 1 91.36000000000000 88.04000000000001)" fill="rgb(253,223,188)" stroke="none" stroke-width="1"/></g></g></g><g id="eydjfgbsbxx130"><g id="eydjfgbsbxx131"><path id="eydjfgbsbxx132" d="M87.820000,11.350000C90.977063,8.570210,94.910463,6.825134,99.090000,6.350000C105.850000,5.680000,107.400000,3.800000,107.400000,3.800000C107.400000,3.800000,108.550000,15.620000,98.250000,18.800000C87.950000,21.980000,87.820000,11.350000,87.820000,11.350000Z" transform="matrix(1 0 0 1 2.56000000000000 -0.12000000000000)" fill="rgb(201,62,61)" stroke="none" stroke-width="1"/></g><g id="eydjfgbsbxx133" clip-path="url(#eydjfgbsbxx138)"><g id="eydjfgbsbxx134"><g id="eydjfgbsbxx135"><g id="eydjfgbsbxx136"><path id="eydjfgbsbxx137" d="M87.820000,11.350000C90.977063,8.570210,94.910463,6.825134,99.090000,6.350000C105.850000,5.680000,107.400000,3.800000,107.400000,3.800000C107.400000,3.800000,108.550000,15.620000,98.250000,18.800000C87.950000,21.980000,87.820000,11.350000,87.820000,11.350000Z" transform="matrix(1 0 0 1 2.56000000000000 -0.12000000000000)" fill="rgb(255,199,0)" stroke="none" stroke-width="1"/></g></g></g><clipPath id="eydjfgbsbxx138" transform="matrix(1 0 0 1 2.56000000000000 -0.12000000000000)"><path id="eydjfgbsbxx139" d="M87.820000,17.680000C87.820000,17.680000,105.430000,19.240000,105.590000,2.450000C105.910000,1.230000,110.120000,3.510000,110.120000,3.510000L107.180000,15.510000L97.500000,21.690000L88.420000,20.430000Z" fill="none" stroke="none" stroke-width="1"/></clipPath></g><g id="eydjfgbsbxx140"><g id="eydjfgbsbxx141"><path id="eydjfgbsbxx142" d="M61.530000,11.350000C58.377766,8.568778,54.447047,6.823344,50.270000,6.350000C43.500000,5.660000,42,3.780000,42,3.780000C42,3.780000,40.800000,15.600000,51.100000,18.800000C61.400000,22,61.530000,11.350000,61.530000,11.350000Z" transform="matrix(1 0 0 1 2.56000000000000 -0.12000000000000)" fill="rgb(201,62,61)" stroke="none" stroke-width="1"/></g><g id="eydjfgbsbxx143" clip-path="url(#eydjfgbsbxx148)"><g id="eydjfgbsbxx144"><g id="eydjfgbsbxx145"><g id="eydjfgbsbxx146"><path id="eydjfgbsbxx147" d="M61.530000,11.350000C58.377766,8.568778,54.447047,6.823344,50.270000,6.350000C43.500000,5.660000,42,3.780000,42,3.780000C42,3.780000,40.800000,15.600000,51.100000,18.800000C61.400000,22,61.530000,11.350000,61.530000,11.350000Z" transform="matrix(1 0 0 1 2.56000000000000 -0.12000000000000)" fill="rgb(255,199,0)" stroke="none" stroke-width="1"/></g></g></g><clipPath id="eydjfgbsbxx148" transform="matrix(1 0 0 1 2.56000000000000 -0.12000000000000)"><path id="eydjfgbsbxx149" d="M61.530000,17.680000C61.530000,17.680000,43.920000,19.240000,43.770000,2.450000C43.440000,1.230000,39.230000,3.510000,39.230000,3.510000L42.230000,15.510000L51.910000,21.730000L60.980000,20.470000Z" fill="none" stroke="none" stroke-width="1"/></clipPath></g></g><g id="eydjfgbsbxx150"><path id="eydjfgbsbxx151" d="M46.250000,39.140000C44.121857,40.551795,42.809876,42.907398,42.730000,45.460000C42.380000,50.040000,43.540000,53.360000,46.730000,55.260000C49.570000,56.970000,44.730000,56.860000,44.730000,56.860000C44.730000,56.860000,52.340000,60.190000,56,58.730000C59.660000,57.270000,57,59.640000,57,59.640000C57,59.640000,62.100000,59.410000,65.270000,56.340000C68.440000,53.270000,71.270000,53.340000,74.770000,53.190000C78.270000,53.040000,86.370000,57,89.840000,58C91.090000,58.370000,89.110000,56.740000,89.040000,56.430000C88.970000,56.120000,93.590000,59,98.350000,58C99.720000,58,97.170000,57,97.170000,57C97.170000,57,104.650000,56.250000,106.060000,51.330000C107.470000,46.410000,107.320000,39.930000,102.810000,37.330000C98.300000,34.730000,75.650000,34.730000,75.650000,34.730000Z" transform="matrix(1 0 0 1 2.56000000000000 -0.12000000000000)" fill="rgb(255,255,255)" stroke="none" stroke-width="1"/></g><g id="eydjfgbsbxx152"><path id="eydjfgbsbxx153" d="M74.660000,8C92.020000,8,103.660000,22.220000,103.660000,39.590000C103.660000,56.960000,85.460000,45.120000,74.660000,44.180000C64.150000,44.790000,45.570000,56.950000,45.570000,39.590000C45.570000,22.230000,57.290000,8,74.660000,8Z" transform="matrix(1 0 0 1 2.56000000000000 -0.12000000000000)" fill="rgb(201,62,61)" stroke="none" stroke-width="1"/></g><g id="eydjfgbsbxx154" opacity="0.1"><circle id="eydjfgbsbxx155" r="4.290000" transform="matrix(1 0 0 1 76.48000000000000 21.15000000000000)" fill="rgb(0,0,0)" stroke="none" stroke-width="1"/></g><g id="eydjfgbsbxx156"><circle id="eydjfgbsbxx157" r="3.910000" transform="matrix(1 0 0 1 69.38000000000000 44.78000000000000)" fill="rgb(219,73,73)" stroke="none" stroke-width="1"/></g><g id="eydjfgbsbxx158"><circle id="eydjfgbsbxx159" r="8.940000" transform="matrix(1 0 0 1 62.11000000000000 31.92000000000000)" fill="rgb(242,134,78)" stroke="none" stroke-width="1"/></g><g id="eydjfgbsbxx160"><ellipse id="eydjfgbsbxx161" rx="8.390000" ry="8.940000" transform="matrix(1 0 0 1 90.62000000000000 31.92000000000000)" fill="rgb(242,134,78)" stroke="none" stroke-width="1"/></g><g id="eydjfgbsbxx162"><circle id="eydjfgbsbxx163" r="3.910000" transform="matrix(1 0 0 1 85.03000000000000 44.78000000000000)" fill="rgb(219,73,73)" stroke="none" stroke-width="1"/></g><g id="eydjfgbsbxx164"><circle id="eydjfgbsbxx165" r="6.710000" transform="matrix(1 0 0 1 62.11000000000000 31.92000000000000)" fill="rgb(0,0,0)" stroke="none" stroke-width="1"/></g><g id="eydjfgbsbxx166"><circle id="eydjfgbsbxx167" r="1.120000" transform="matrix(1 0 0 1 62.11000000000000 31.92000000000000)" fill="rgb(255,255,255)" stroke="none" stroke-width="1"/></g><g id="eydjfgbsbxx168"><ellipse id="eydjfgbsbxx169" rx="7.270000" ry="6.710000" transform="matrix(1 0 0 1 90.62000000000000 31.92000000000000)" fill="rgb(0,0,0)" stroke="none" stroke-width="1"/></g><g id="eydjfgbsbxx170"><circle id="eydjfgbsbxx171" r="1.120000" transform="matrix(1 0 0 1 92.30000000000000 31.92000000000000)" fill="rgb(255,255,255)" stroke="none" stroke-width="1"/></g><g id="eydjfgbsbxx172"><circle id="eydjfgbsbxx173" r="4.470000" transform="matrix(1 0 0 1 76.65000000000001 20.74000000000000)" fill="rgb(242,134,78)" stroke="none" stroke-width="1"/></g><g id="eydjfgbsbxx174"><g id="eydjfgbsbxx175"><path id="eydjfgbsbxx176" d="M80.440000,37.150000C82.200000,36.230000,87.780000,28.700000,93.610000,28.240000C99.440000,27.780000,103.770000,20.330000,103.720000,17.320000C103.670000,14.310000,100.420000,14.820000,99.610000,15.640000C98.800000,16.460000,95.230000,15.480000,94.160000,17.320000C93.090000,19.160000,89,18,86.930000,22C84.230000,23.730000,82.930000,21.590000,81.500000,27.140000C78.960000,28.270000,78.560000,29.140000,78.200000,31.390000C76.340000,31.390000,75.950000,35.210000,76.600000,37.110000C77.250000,39.010000,78.760000,38,80.440000,37.150000Z" transform="matrix(1 0 0 1 2.56000000000000 -0.12000000000000)" fill="rgb(255,255,255)" stroke="none" stroke-width="1"/></g><g id="eydjfgbsbxx177" opacity="0.1"><g id="eydjfgbsbxx178" clip-path="url(#eydjfgbsbxx183)"><g id="eydjfgbsbxx179"><g id="eydjfgbsbxx180"><g id="eydjfgbsbxx181"><path id="eydjfgbsbxx182" d="M80.440000,37.150000C82.200000,36.230000,87.780000,28.700000,93.610000,28.240000C99.440000,27.780000,103.770000,20.330000,103.720000,17.320000C103.670000,14.310000,100.420000,14.820000,99.610000,15.640000C98.800000,16.460000,95.230000,15.480000,94.160000,17.320000C93.090000,19.160000,89,18,86.930000,22C84.230000,23.730000,82.930000,21.590000,81.500000,27.140000C78.960000,28.270000,78.560000,29.140000,78.200000,31.390000C76.340000,31.390000,75.950000,35.210000,76.600000,37.110000C77.250000,39.010000,78.760000,38,80.440000,37.150000Z" transform="matrix(1 0 0 1 2.56000000000000 -0.12000000000000)" fill="rgb(0,0,0)" stroke="none" stroke-width="1"/></g></g></g><clipPath id="eydjfgbsbxx183" transform="matrix(1 0 0 1 2.56000000000000 -0.12000000000000)"><path id="eydjfgbsbxx184" d="M75.350000,33.190000C75.350000,33.190000,77.660000,37.880000,80.470000,34.710000C83.280000,31.540000,89.010000,26.710000,92.670000,26.100000C96.330000,25.490000,104.830000,18.490000,105.670000,14.800000C106.510000,11.110000,102.810000,28.310000,102.810000,28.310000L90.300000,31.690000L82.930000,38.500000L76.260000,39.720000L74.360000,36Z" fill="none" stroke="none" stroke-width="1"/></clipPath></g></g></g><g id="eydjfgbsbxx185"><g id="eydjfgbsbxx186"><path id="eydjfgbsbxx187" d="M68.280000,37.150000C66.520000,36.230000,60.940000,28.700000,55.110000,28.240000C49.280000,27.780000,45,20.330000,45,17.320000C45,14.310000,48.300000,14.820000,49.110000,15.640000C49.920000,16.460000,53.490000,15.480000,54.560000,17.320000C55.630000,19.160000,59.710000,18,61.790000,22C64.490000,23.730000,65.790000,21.590000,67.220000,27.140000C69.760000,28.270000,70.160000,29.190000,70.520000,31.390000C72.380000,31.390000,72.770000,35.210000,72.120000,37.120000C71.470000,39.030000,70,38,68.280000,37.150000Z" transform="matrix(1 0 0 1 2.56000000000000 -0.12000000000000)" fill="rgb(255,255,255)" stroke="none" stroke-width="1"/></g><g id="eydjfgbsbxx188" opacity="0.1"><g id="eydjfgbsbxx189" clip-path="url(#eydjfgbsbxx194)"><g id="eydjfgbsbxx190"><g id="eydjfgbsbxx191"><g id="eydjfgbsbxx192"><path id="eydjfgbsbxx193" d="M68.280000,37.150000C66.520000,36.230000,60.940000,28.700000,55.110000,28.240000C49.280000,27.780000,45,20.330000,45,17.320000C45,14.310000,48.300000,14.820000,49.110000,15.640000C49.920000,16.460000,53.490000,15.480000,54.560000,17.320000C55.630000,19.160000,59.710000,18,61.790000,22C64.490000,23.730000,65.790000,21.590000,67.220000,27.140000C69.760000,28.270000,70.160000,29.190000,70.520000,31.390000C72.380000,31.390000,72.770000,35.210000,72.120000,37.120000C71.470000,39.030000,70,38,68.280000,37.150000Z" transform="matrix(1 0 0 1 2.56000000000000 -0.12000000000000)" fill="rgb(0,0,0)" stroke="none" stroke-width="1"/></g></g></g><clipPath id="eydjfgbsbxx194" transform="matrix(1 0 0 1 2.56000000000000 -0.12000000000000)"><path id="eydjfgbsbxx195" d="M73.370000,33.190000C73.370000,33.190000,71.060000,37.880000,68.250000,34.710000C65.440000,31.540000,59.710000,26.710000,56.050000,26.100000C52.390000,25.490000,43.890000,18.490000,43,14.800000C42.110000,11.110000,45.900000,28.310000,45.900000,28.310000L58.420000,31.690000L65.790000,38.510000L72.460000,39.720000L74.360000,36Z" fill="none" stroke="none" stroke-width="1"/></clipPath></g></g></g><g id="eydjfgbsbxx196"><ellipse id="eydjfgbsbxx197" rx="7.270000" ry="5.590000" transform="matrix(1 0 0 1 76.09000000000000 41.98000000000000)" fill="rgb(255,199,0)" stroke="none" stroke-width="1"/></g><g id="eydjfgbsbxx198" opacity="0.1"><g id="eydjfgbsbxx199" clip-path="url(#eydjfgbsbxx204)"><g id="eydjfgbsbxx200"><g id="eydjfgbsbxx201"><g id="eydjfgbsbxx202"><path id="eydjfgbsbxx203" d="M46.250000,39.140000C44.121857,40.551795,42.809876,42.907398,42.730000,45.460000C42.380000,50.040000,43.540000,53.360000,46.730000,55.260000C49.570000,56.970000,44.730000,56.860000,44.730000,56.860000C44.730000,56.860000,52.340000,60.190000,56,58.730000C59.660000,57.270000,57,59.640000,57,59.640000C57,59.640000,62.100000,59.410000,65.270000,56.340000C68.440000,53.270000,71.270000,53.340000,74.770000,53.190000C78.270000,53.040000,86.370000,57,89.840000,58C91.090000,58.370000,89.110000,56.740000,89.040000,56.430000C88.970000,56.120000,93.590000,59,98.350000,58C99.720000,58,97.170000,57,97.170000,57C97.170000,57,104.650000,56.250000,106.060000,51.330000C107.470000,46.410000,107.320000,39.930000,102.810000,37.330000C98.300000,34.730000,75.650000,34.730000,75.650000,34.730000Z" transform="matrix(1 0 0 1 2.56000000000000 -0.12000000000000)" fill="rgb(0,0,0)" stroke="none" stroke-width="1"/></g></g></g><clipPath id="eydjfgbsbxx204" transform="matrix(1 0 0 1 2.56000000000000 -0.12000000000000)"><path id="eydjfgbsbxx205" d="M40.570000,43.890000C40.570000,43.890000,46.020000,52.890000,51.120000,52.760000C56.220000,52.630000,59.380000,51.570000,61.220000,51.960000C63.060000,52.350000,67.340000,47.960000,75.080000,48.960000C82.820000,49.960000,89.870000,52.960000,93.670000,52.800000C97.470000,52.640000,104.770000,52.620000,108.300000,46.250000C111.830000,39.880000,105.810000,60,105.810000,60L87,61.060000L73.540000,57.390000L57.890000,62.390000L40.570000,57.390000Z" fill="none" stroke="none" stroke-width="1"/></clipPath></g></g></g><g id="eydjfgbsbxx206"><rect id="eydjfgbsbxx207" width="46" height="46.993079" rx="0" ry="0" transform="matrix(-0.02485349430025 0 0 0.27191924981857 77.79326073890567 82.09999999917271)" fill="rgb(242,203,48)" stroke="none" stroke-width="1"/><rect id="eydjfgbsbxx208" width="46" height="18.014520" rx="0" ry="20" transform="matrix(-0 -0.02485349430025 -0.27191924981857 0 79.62424740022331 85.48848218393847)" fill="rgb(242,203,48)" stroke="none" stroke-width="1"/><rect id="eydjfgbsbxx209" width="46" height="18.014520" rx="0" ry="0" transform="matrix(-0 -0.02485349430025 -0.27191924981857 0 79.62424740022331 88.77704151893842)" fill="rgb(242,203,48)" stroke="none" stroke-width="1"/><rect id="eydjfgbsbxx210" width="46" height="18.014520" rx="20" ry="0" transform="matrix(-0 -0.02485349430025 -0.27191924981857 0 79.62424740022331 92.09163036893851)" fill="rgb(242,203,48)" stroke="none" stroke-width="1"/></g></g><g id="eydjfgbsbxx211"><g id="eydjfgbsbxx212_to" transform="translate(24.600000,58.785084)"><g id="eydjfgbsbxx212_tr" transform="rotate(0)"><g id="eydjfgbsbxx212" transform="translate(-25.600000,-58.785084)"><g id="eydjfgbsbxx213"><g id="eydjfgbsbxx214"><g id="eydjfgbsbxx215" style="isolation:isolate" opacity="0.5"><path id="eydjfgbsbxx216" d="M7.500000,33.660000C7.500000,33.660000,7.860000,30.370000,9.280000,29.210000C9.200000,29.100000,4.900000,28.210000,4.280000,29.510000C3.660000,30.810000,7.500000,33.660000,7.500000,33.660000Z" transform="matrix(1 0 0 1 2.56000000000000 -0.12000000000000)" fill="rgb(255,255,255)" stroke="none" stroke-width="1"/></g><g id="eydjfgbsbxx217" style="isolation:isolate" opacity="0.5"><path id="eydjfgbsbxx218" d="M23,23.330000C23,23.330000,26.300000,23.120000,27.700000,24.330000C27.790000,24.220000,27.940000,19.830000,26.540000,19.490000C25.140000,19.150000,23,23.330000,23,23.330000Z" transform="matrix(1 0 0 1 2.56000000000000 -0.12000000000000)" fill="rgb(255,255,255)" stroke="none" stroke-width="1"/></g><g id="eydjfgbsbxx219"><path id="eydjfgbsbxx220" d="M12.210000,42.820000L13.700000,49.180000C13.700000,49.180000,16.320000,59.900000,21.870000,58.830000C23.690000,58.470000,25.780000,57.210000,27.790000,56.480000C31.040000,55.300000,32.430000,55.920000,34.590000,54.200000C36.750000,52.480000,35.890000,47.940000,34.590000,43.600000C33.655709,40.845412,31.838377,38.476202,29.420000,36.860000Z" transform="matrix(1 0 0 1 2.56000000000000 -0.12000000000000)" fill="rgb(163,216,242)" stroke="none" stroke-width="1"/></g><g id="eydjfgbsbxx221"><path id="eydjfgbsbxx222" d="M14,46.720000L13.850000,46.720000C12.469288,46.689624,11.374624,45.545712,11.405000,44.165000C11.435376,42.784288,12.579288,41.689624,13.960000,41.720000C14.080000,41.720000,21.850000,41.720000,27.140000,36.020000C28.098430,35.104442,29.603552,35.091909,30.577096,35.991379C31.550640,36.890849,31.657009,38.392260,30.820000,39.420000C24.330000,46.450000,15.340000,46.720000,14,46.720000Z" transform="matrix(1 0 0 1 2.56000000000000 -0.12000000000000)" fill="rgb(201,62,61)" stroke="none" stroke-width="1"/></g><g id="eydjfgbsbxx223"><path id="eydjfgbsbxx224" d="M12.710000,45C12.710000,45,12.190000,50.570000,9.420000,52.430000C6.650000,54.290000,12.910000,55.430000,13.970000,55.430000C15.030000,55.430000,15.310000,46.620000,14.780000,45.760000C14.250000,44.900000,12.710000,45,12.710000,45Z" transform="matrix(1 0 0 1 2.56000000000000 -0.12000000000000)" fill="rgb(201,62,61)" stroke="none" stroke-width="1"/></g><g id="eydjfgbsbxx225"><g id="eydjfgbsbxx226"><path id="eydjfgbsbxx227" d="M27.230000,51.730000C27.230000,51.730000,31.680000,51.090000,34.230000,48.780000C36.780000,46.470000,36.850000,43.950000,37.330000,42.490000C38.020000,40.790000,39.330000,38.740000,41.590000,38.920000C43.850000,39.100000,45.100000,41.630000,43.590000,45.200000C42.080000,48.770000,34.820000,53.680000,26.920000,53.200000C19.020000,52.720000,27.230000,51.730000,27.230000,51.730000Z" transform="matrix(1 0 0 1 2.56000000000000 -0.12000000000000)" fill="rgb(163,216,242)" stroke="none" stroke-width="1"/></g><g id="eydjfgbsbxx228" clip-path="url(#eydjfgbsbxx233)"><g id="eydjfgbsbxx229"><g id="eydjfgbsbxx230"><g id="eydjfgbsbxx231"><path id="eydjfgbsbxx232" d="M27.230000,51.730000C27.230000,51.730000,31.680000,51.090000,34.230000,48.780000C36.780000,46.470000,36.850000,43.950000,37.330000,42.490000C38.020000,40.790000,39.330000,38.740000,41.590000,38.930000C43.850000,39.120000,45.100000,41.630000,43.590000,45.200000C42.080000,48.770000,34.820000,53.680000,26.920000,53.200000C19.020000,52.720000,27.230000,51.730000,27.230000,51.730000Z" transform="matrix(1 0 0 1 2.56000000000000 -0.12000000000000)" fill="rgb(1,159,222)" stroke="none" stroke-width="1"/></g></g></g><clipPath id="eydjfgbsbxx233" transform="matrix(1 0 0 1 2.56000000000000 -0.12000000000000)"><path id="eydjfgbsbxx234" d="M35.680000,41.340000C35.680000,41.340000,40.810000,40.680000,43.410000,44.990000C46.010000,49.300000,45.090000,37.350000,45.090000,37.350000L39.390000,35.510000Z" fill="none" stroke="none" stroke-width="1"/></clipPath></g></g><g id="eydjfgbsbxx235"><path id="eydjfgbsbxx236" d="M24,45.310000C26.530000,44.380000,29.530000,46.210000,30.680000,49.400000C31.830000,52.590000,29.930000,53.720000,27.390000,54.650000C24.850000,55.580000,22.660000,55.920000,21.500000,52.740000C20.340000,49.560000,21.500000,46.230000,24,45.310000Z" transform="matrix(1 0 0 1 2.56000000000000 -0.12000000000000)" fill="rgb(255,255,255)" stroke="none" stroke-width="1"/></g></g><g id="eydjfgbsbxx237"><g id="eydjfgbsbxx238"><path id="eydjfgbsbxx239" d="M6.140000,36.720000C6.140000,36.720000,-0.490000,31.260000,1.790000,28.180000C4.070000,25.100000,9.880000,27.050000,10.270000,27.180000C10.270000,27.180000,14.100000,23.080000,19.270000,22.900000C19.560000,22.950000,22.210000,17.550000,25.780000,17.500000C29.350000,17.450000,29,26.340000,29,26.340000C29,26.340000,31.380000,31.090000,33.640000,31.480000C33.870000,31.680000,32.510000,33.120000,31.890000,33.140000C32.503230,33.157986,33.116642,33.111059,33.720000,33C34.323358,32.888941,29.230000,40.560000,22.260000,43C15.290000,45.440000,10.260000,44.500000,9.310000,44.230000C9.707397,43.874090,10.078376,43.489742,10.420000,43.080000C10.530000,42.960000,7.910000,43.600000,6.420000,42.840000C5.960000,42.630000,8.250000,39.660000,7.130000,37.780000C6.550000,36.790000,6.140000,36.720000,6.140000,36.720000Z" transform="matrix(1 0 0 1 2.56000000000000 -0.12000000000000)" fill="rgb(163,216,242)" stroke="none" stroke-width="1"/></g><g id="eydjfgbsbxx240" style="isolation:isolate" opacity="0.6"><path id="eydjfgbsbxx241" d="M6.860000,33.840000C6.860000,33.840000,7.220000,30.650000,8.590000,29.520000C8.540000,29.390000,4.340000,28.520000,3.770000,29.810000C3.200000,31.100000,6.860000,33.840000,6.860000,33.840000Z" transform="matrix(1 0 0 1 2.56000000000000 -0.12000000000000)" fill="rgb(255,255,255)" stroke="none" stroke-width="1"/></g><g id="eydjfgbsbxx242" style="isolation:isolate" opacity="0.6"><path id="eydjfgbsbxx243" d="M21.930000,23.800000C21.930000,23.800000,25.140000,23.600000,26.490000,24.750000C26.600000,24.750000,26.730000,20.390000,25.370000,20.050000C24.010000,19.710000,21.930000,23.800000,21.930000,23.800000Z" transform="matrix(1 0 0 1 2.56000000000000 -0.12000000000000)" fill="rgb(255,255,255)" stroke="none" stroke-width="1"/></g><g id="eydjfgbsbxx244"><g id="eydjfgbsbxx245"><path id="eydjfgbsbxx246" d="M20,34.740000C19.872628,34.804648,19.738473,34.854956,19.600000,34.890000C19.390475,34.909970,19.179525,34.909970,18.970000,34.890000C18.450260,35.510717,17.587297,35.721393,16.840000,35.410000C16.563858,35.296782,16.431782,34.981142,16.545000,34.705000C16.658218,34.428858,16.973858,34.296782,17.250000,34.410000C17.626469,34.556035,18.052998,34.402485,18.250000,34.050000C18.334812,33.882102,18.502263,33.771737,18.690000,33.760000C18.766371,33.750483,18.843629,33.750483,18.920000,33.760000C19.030000,33.760000,19.750000,33.910000,19.920000,33.460000C20.034487,33.221472,20.307350,33.103915,20.559343,33.184553C20.811336,33.265190,20.965259,33.519319,20.920000,33.780000L20.920000,33.780000C20.791357,34.232679,20.446798,34.592219,20,34.740000Z" transform="matrix(1 0 0 1 2.56000000000000 -0.12000000000000)" fill="rgb(76,84,90)" stroke="none" stroke-width="1"/></g></g><g id="eydjfgbsbxx247"><circle id="eydjfgbsbxx248" r="1.090000" transform="matrix(1 0 0 1 14.37000000000000 32.82000000000000)" fill="rgb(76,84,90)" stroke="none" stroke-width="1"/></g><g id="eydjfgbsbxx249"><circle id="eydjfgbsbxx250" r="1.090000" transform="matrix(1 0 0 1 25.60000000000000 29.04000000000000)" fill="rgb(76,84,90)" stroke="none" stroke-width="1"/></g><g id="eydjfgbsbxx251"><g id="eydjfgbsbxx252"><path id="eydjfgbsbxx253" d="M6.130000,43C5.994866,42.999669,5.865388,42.945720,5.770000,42.850000C5.675936,42.757836,5.622929,42.631690,5.622929,42.500000C5.622929,42.368310,5.675936,42.242164,5.770000,42.150000C6.572568,41.352005,7.591072,40.806254,8.700000,40.580000C8.976142,40.524772,9.244772,40.703858,9.300000,40.980000C9.355228,41.256142,9.176142,41.524772,8.900000,41.580000C7.981532,41.769788,7.137597,42.221276,6.470000,42.880000C6.377126,42.963609,6.254780,43.006790,6.130000,43Z" transform="matrix(1 0 0 1 2.56000000000000 -0.12000000000000)" fill="rgb(112,112,112)" stroke="none" stroke-width="1"/></g><g id="eydjfgbsbxx254"><path id="eydjfgbsbxx255" d="M31.780000,33.220000C31.596171,33.222741,31.426276,33.122348,31.340000,32.960000C31.210836,32.719046,31.294644,32.419103,31.530000,32.280000C32.517015,31.730061,33.642965,31.479850,34.770000,31.560000C34.902696,31.567722,35.026855,31.627963,35.115046,31.727412C35.203237,31.826861,35.248200,31.957333,35.240000,32.090000C35.218704,32.363818,34.984400,32.571597,34.710000,32.560000C33.774134,32.495078,32.839571,32.703531,32.020000,33.160000C31.945853,33.198652,31.863613,33.219212,31.780000,33.220000Z" transform="matrix(1 0 0 1 2.56000000000000 -0.12000000000000)" fill="rgb(112,112,112)" stroke="none" stroke-width="1"/></g><g id="eydjfgbsbxx256"><path id="eydjfgbsbxx257" d="M7.320000,44.780000C7.224433,44.778168,7.131139,44.750526,7.050000,44.700000C6.937569,44.626595,6.859386,44.511054,6.833053,44.379389C6.806720,44.247724,6.834450,44.111001,6.910000,44C7.537013,43.058179,8.417551,42.312842,9.450000,41.850000C9.571949,41.796514,9.710196,41.793883,9.834092,41.842691C9.957987,41.891498,10.057296,41.987711,10.110000,42.110000C10.216923,42.361449,10.106679,42.652491,9.860000,42.770000C8.996239,43.150923,8.260304,43.772302,7.740000,44.560000C7.643523,44.696605,7.487232,44.778472,7.320000,44.780000Z" transform="matrix(1 0 0 1 2.56000000000000 -0.12000000000000)" fill="rgb(112,112,112)" stroke="none" stroke-width="1"/></g><g id="eydjfgbsbxx258"><path id="eydjfgbsbxx259" d="M35,34.730000L34.850000,34.730000C33.949085,34.464982,32.990915,34.464982,32.090000,34.730000C31.822617,34.800756,31.547569,34.645486,31.470000,34.380000C31.399792,34.115110,31.555884,33.843065,31.820000,33.770000C32.904638,33.457728,34.055362,33.457728,35.140000,33.770000C35.405097,33.847320,35.557320,34.124903,35.480000,34.390000C35.405632,34.591634,35.214887,34.726746,35,34.730000Z" transform="matrix(1 0 0 1 2.56000000000000 -0.12000000000000)" fill="rgb(112,112,112)" stroke="none" stroke-width="1"/></g></g></g></g><g id="eydjfgbsbxx260"><path id="eydjfgbsbxx261" d="M14.850000,25.840000C14.490095,25.826206,14.165413,25.619937,14,25.300000C13.670000,24.660000,13,23.910000,12.650000,23.850000C12.097715,23.761634,11.721634,23.242285,11.810000,22.690000C11.898366,22.137715,12.417715,21.761634,12.970000,21.850000C14.540000,22.100000,15.590000,23.990000,15.780000,24.360000C15.902506,24.595951,15.926012,24.870971,15.845326,25.124289C15.764639,25.377607,15.586402,25.588368,15.350000,25.710000C15.197597,25.796380,15.025176,25.841210,14.850000,25.840000Z" transform="matrix(1 0 0 1 2.56000000000000 -0.12000000000000)" fill="rgb(128,75,51)" stroke="none" stroke-width="1"/></g><g id="eydjfgbsbxx262"><path id="eydjfgbsbxx263" d="M9.770000,22.900000C9.570000,23.710000,11.770000,24.490000,12.910000,23.570000C14.050000,22.650000,12.260000,21.660000,11.620000,21.630000C10.801565,21.634923,10.068719,22.138011,9.770000,22.900000Z" transform="matrix(1 0 0 1 2.56000000000000 -0.12000000000000)" fill="rgb(108,206,157)" stroke="none" stroke-width="1"/></g><g id="eydjfgbsbxx264"><path id="eydjfgbsbxx265" d="M15.810000,20.480000C16.540000,20.880000,15.620000,23.020000,14.150000,23.240000C12.680000,23.460000,13.150000,21.460000,13.620000,20.970000C14.180952,20.373911,15.048509,20.179800,15.810000,20.480000Z" transform="matrix(1 0 0 1 2.56000000000000 -0.12000000000000)" fill="rgb(108,206,157)" stroke="none" stroke-width="1"/></g><g id="eydjfgbsbxx266"><g id="eydjfgbsbxx267"><path id="eydjfgbsbxx268" d="M11.850000,19.460000C15.220000,18.030000,18.950000,19.230000,20.180000,22.130000C20.790000,23.570000,17.920000,24.400000,14.550000,25.830000C11.180000,27.260000,8.630000,28.830000,7.980000,27.310000C6.750000,24.410000,8.480000,20.890000,11.850000,19.460000Z" transform="matrix(1 0 0 1 2.56000000000000 -0.12000000000000)" fill="rgb(201,62,61)" stroke="none" stroke-width="1"/></g><g id="eydjfgbsbxx269" clip-path="url(#eydjfgbsbxx277)"><g id="eydjfgbsbxx270"><g id="eydjfgbsbxx271"><g id="eydjfgbsbxx272"><g id="eydjfgbsbxx273"><path id="eydjfgbsbxx274" d="M10.870000,19.050000L12.680000,18.290000C12.680000,18.290000,16.560000,22.750000,16.790000,25.800000L13.270000,27.300000C11.791357,24.794542,10.966081,21.957657,10.870000,19.050000Z" transform="matrix(1 0 0 1 2.56000000000000 -0.12000000000000)" fill="rgb(254,199,46)" stroke="none" stroke-width="1"/></g><g id="eydjfgbsbxx275"><path id="eydjfgbsbxx276" d="M7.190000,26.930000C7.190000,26.930000,7,28.340000,14.260000,25.080000C21.520000,21.820000,20.890000,21.080000,20.890000,21.080000L21.780000,23.160000L8.070000,29Z" transform="matrix(1 0 0 1 2.56000000000000 -0.12000000000000)" fill="rgb(254,199,46)" stroke="none" stroke-width="1"/></g></g></g></g><clipPath id="eydjfgbsbxx277" transform="matrix(1 0 0 1 2.56000000000000 -0.12000000000000)"><path id="eydjfgbsbxx278" d="M11.850000,19.460000C15.220000,18.030000,18.950000,19.230000,20.180000,22.130000C20.790000,23.570000,17.920000,24.400000,14.550000,25.830000C11.180000,27.260000,8.630000,28.830000,7.980000,27.310000C6.750000,24.410000,8.480000,20.890000,11.850000,19.460000Z" fill="none" stroke="none" stroke-width="1"/></clipPath></g><g id="eydjfgbsbxx279"><circle id="eydjfgbsbxx280" r="0.910000" transform="matrix(1 0 0 1 14.44000000000000 18.74000000000000)" fill="rgb(254,199,46)" stroke="none" stroke-width="1"/></g></g></g></g></g><g id="eydjfgbsbxx281_to" transform="translate(27.779714,51.815396)"><g id="eydjfgbsbxx281_tr" transform="rotate(0)"><g id="eydjfgbsbxx281" transform="translate(-28.779714,-51.815396)"><path id="eydjfgbsbxx282" d="M26.660000,52.680000L26.530000,52.680000C25.983686,52.607428,25.599067,52.106530,25.670000,51.560000L32.330000,1C32.404558,0.447715,32.912715,0.060442,33.465000,0.135000C34.017285,0.209558,34.404558,0.717715,34.330000,1.270000L27.650000,51.810000C27.584811,52.307202,27.161457,52.679241,26.660000,52.680000Z" transform="matrix(1 0 0 1 2.56000000000000 -0.12000000000000)" fill="rgb(113,41,13)" stroke="none" stroke-width="1"/></g></g></g><g id="eydjfgbsbxx283_to" transform="translate(34.623250,44.780000)"><g id="eydjfgbsbxx283_tr" transform="rotate(0)"><g id="eydjfgbsbxx283" transform="translate(-34.623250,-44.780000)"><g id="eydjfgbsbxx284" opacity="0.1"><path id="eydjfgbsbxx285" d="M31.100000,46.900000C26.850000,47.640000,24.100000,43.310000,24.740000,41.990000C25.380000,40.670000,30.950000,42.680000,30.950000,42.680000C30.950000,42.680000,34,46.410000,31.100000,46.900000Z" transform="matrix(1 0 0 1 2.56000000000000 -0.12000000000000)" fill="rgb(0,0,0)" stroke="none" stroke-width="1"/></g><g id="eydjfgbsbxx286"><path id="eydjfgbsbxx287" d="M31,46.710000C27,47.080000,24.150000,42.820000,24.830000,41.510000C25.510000,40.200000,30.990000,41.630000,30.990000,41.630000C30.990000,41.630000,34.940000,46.340000,31,46.710000Z" transform="matrix(1 0 0 1 2.56000000000000 -0.12000000000000)" fill="rgb(163,216,242)" stroke="none" stroke-width="1"/></g></g></g></g><g id="eydjfgbsbxx288_to" transform="translate(21.673406,48.097582)"><g id="eydjfgbsbxx288_tr" transform="rotate(0)"><g id="eydjfgbsbxx288" transform="translate(-22.673406,-48.097582)"><g id="eydjfgbsbxx289" opacity="0.1"><path id="eydjfgbsbxx290" d="M20.550000,50C23.380000,51,27.800000,48.210000,27.620000,47.070000C27.440000,45.930000,22.330000,47.070000,22.330000,47.070000C22.330000,47.070000,17.730000,49.070000,20.550000,50Z" transform="matrix(1 0 0 1 2.56000000000000 -0.12000000000000)" fill="rgb(0,0,0)" stroke="none" stroke-width="1"/></g><g id="eydjfgbsbxx291"><path id="eydjfgbsbxx292" d="M20.170000,49.810000C22.990000,50.810000,27.820000,48,27.640000,46.870000C27.460000,45.740000,22.330000,46.050000,22.330000,46.050000C22.330000,46.050000,17.350000,48.850000,20.170000,49.810000Z" transform="matrix(1 0 0 1 2.56000000000000 -0.12000000000000)" fill="rgb(163,216,242)" stroke="none" stroke-width="1"/></g></g></g></g><g id="eydjfgbsbxx293_to" transform="translate(35.820183,0.958355)"><g id="eydjfgbsbxx293_tr" transform="rotate(0)"><g id="eydjfgbsbxx293" transform="translate(-35.820183,-0.958355)"><path id="eydjfgbsbxx294" d="M41.080000,11.530000C40.865872,11.531538,40.675546,11.393855,40.610000,11.190000C39.249551,7.296467,36.520035,4.030289,32.930000,2C32.706150,1.857233,32.632916,1.564405,32.763208,1.333071C32.893499,1.101737,33.181877,1.012575,33.420000,1.130000C37.220440,3.279902,40.109840,6.737942,41.550000,10.860000C41.636963,11.122077,41.499552,11.405766,41.240000,11.500000C41.188934,11.519644,41.134714,11.529810,41.080000,11.530000Z" transform="matrix(1 0 0 1 2.56000000000000 -0.12000000000000)" fill="rgb(76,84,90)" stroke="none" stroke-width="1"/></g></g></g><g id="eydjfgbsbxx295_to" transform="translate(43.710000,10.377424)"><g id="eydjfgbsbxx295_tr" transform="rotate(0)"><g id="eydjfgbsbxx295" transform="translate(-43.710000,-10.377424)"><g id="eydjfgbsbxx296"><g id="eydjfgbsbxx297"><rect id="eydjfgbsbxx298" width="11.130000" height="6.140000" rx="0" ry="0" transform="matrix(0.06975700000000 -0.99756400000000 0.99756400000000 0.06975700000000 45.08638853999996 42.43066466999996)" fill="rgb(190,54,53)" stroke="none" stroke-width="1"/></g><g id="eydjfgbsbxx299"><ellipse id="eydjfgbsbxx300" rx="1.920000" ry="3.070000" transform="matrix(0.06975700000000 -0.99756400000000 0.99756400000000 0.06975700000000 48.92649407999996 31.66050798999997)" fill="rgb(201,62,61)" stroke="none" stroke-width="1"/></g><g id="eydjfgbsbxx301"><ellipse id="eydjfgbsbxx302" rx="1.540000" ry="3.070000" transform="matrix(0.06975700000000 -0.99756400000000 0.99756400000000 0.06975700000000 48.14574158999996 42.76293496999995)" fill="rgb(242,203,48)" stroke="none" stroke-width="1"/></g></g><g id="eydjfgbsbxx303"><g id="eydjfgbsbxx304"><rect id="eydjfgbsbxx305" width="6.140000" height="11.130000" rx="0" ry="0" transform="matrix(0.94551900000000 -0.32556800000000 0.32556800000000 0.94551900000000 48.08125827000001 21.21170301000000)" fill="rgb(190,54,53)" stroke="none" stroke-width="1"/></g><g id="eydjfgbsbxx306"><ellipse id="eydjfgbsbxx307" rx="3.070000" ry="1.920000" transform="matrix(0.94551900000000 -0.32556800000000 0.32556800000000 0.94551900000000 51.01771634000000 20.32883827000000)" fill="rgb(201,62,61)" stroke="none" stroke-width="1"/></g><g id="eydjfgbsbxx308"><ellipse id="eydjfgbsbxx309" rx="3.070000" ry="1.530000" transform="matrix(0.94551900000000 -0.32556800000000 0.32556800000000 0.94551900000000 54.64492567000001 30.84388630999999)" fill="rgb(242,203,48)" stroke="none" stroke-width="1"/></g></g><g id="eydjfgbsbxx310"><g id="eydjfgbsbxx311"><rect id="eydjfgbsbxx312" width="6.140000" height="11.130000" rx="0" ry="0" transform="matrix(0.96592600000000 -0.25881900000000 0.25881900000000 0.96592600000000 49.44292121000000 33.56518728000000)" fill="rgb(201,62,61)" stroke="none" stroke-width="1"/></g><g id="eydjfgbsbxx313"><ellipse id="eydjfgbsbxx314" rx="3.070000" ry="1.920000" transform="matrix(0.96592600000000 -0.25881900000000 0.25881900000000 0.96592600000000 52.43400407000001 32.88532554000000)" fill="rgb(201,62,61)" stroke="none" stroke-width="1"/></g><g id="eydjfgbsbxx315"><ellipse id="eydjfgbsbxx316" rx="3.070000" ry="1.530000" transform="matrix(0.96592600000000 -0.25881900000000 0.25881900000000 0.96592600000000 55.31817520000001 43.63363132000001)" fill="rgb(242,203,48)" stroke="none" stroke-width="1"/></g></g><g id="eydjfgbsbxx317"><g id="eydjfgbsbxx318"><rect id="eydjfgbsbxx319" width="11.130000" height="6.140000" rx="0" ry="0" transform="matrix(0.17364800000000 -0.98480800000000 0.98480800000000 0.17364800000000 41.37621711999996 33.59850367999998)" fill="rgb(201,62,61)" stroke="none" stroke-width="1"/></g><g id="eydjfgbsbxx320"><ellipse id="eydjfgbsbxx321" rx="1.920000" ry="3.070000" transform="matrix(0.17364800000000 -0.98480800000000 0.98480800000000 0.17364800000000 46.31160719999996 23.27801319999998)" fill="rgb(201,62,61)" stroke="none" stroke-width="1"/></g><g id="eydjfgbsbxx322"><ellipse id="eydjfgbsbxx323" rx="1.530000" ry="3.070000" transform="matrix(0.17364800000000 -0.98480800000000 0.98480800000000 0.17364800000000 44.36996223999996 34.24187471999996)" fill="rgb(242,203,48)" stroke="none" stroke-width="1"/></g></g><g id="eydjfgbsbxx324"><g id="eydjfgbsbxx325"><rect id="eydjfgbsbxx326" width="6.140000" height="11.130000" rx="0" ry="0" transform="matrix(0.69503500000000 -0.71897600000000 0.71897600000000 0.69503500000000 44.57861555999999 14.29337977000000)" fill="rgb(190,54,53)" stroke="none" stroke-width="1"/></g><g id="eydjfgbsbxx327"><ellipse id="eydjfgbsbxx328" rx="3.070000" ry="1.920000" transform="matrix(0.69503500000000 -0.71897600000000 0.71897600000000 0.69503500000000 46.79456344000000 12.16448191000000)" fill="rgb(201,62,61)" stroke="none" stroke-width="1"/></g><g id="eydjfgbsbxx329"><ellipse id="eydjfgbsbxx330" rx="3.070000" ry="1.530000" transform="matrix(0.69503500000000 -0.71897600000000 0.71897600000000 0.69503500000000 54.79252792000000 19.89529446000000)" fill="rgb(242,203,48)" stroke="none" stroke-width="1"/></g></g><g id="eydjfgbsbxx331"><g id="eydjfgbsbxx332"><rect id="eydjfgbsbxx333" width="6.140000" height="11.140000" rx="0" ry="0" transform="matrix(0.99755200000000 -0.06993100000000 0.06993100000000 0.99755200000000 38.76435552000000 12.74028199000000)" fill="rgb(201,62,61)" stroke="none" stroke-width="1"/></g><g id="eydjfgbsbxx334"><ellipse id="eydjfgbsbxx335" rx="3.070000" ry="1.920000" transform="matrix(0.99755200000000 -0.06993100000000 0.06993100000000 0.99755200000000 41.83686143000000 12.64184936000000)" fill="rgb(201,62,61)" stroke="none" stroke-width="1"/></g><g id="eydjfgbsbxx336"><ellipse id="eydjfgbsbxx337" rx="3.070000" ry="1.540000" transform="matrix(0.99755200000000 -0.06993100000000 0.06993100000000 0.99755200000000 42.62188540000000 23.76010590000000)" fill="rgb(242,203,48)" stroke="none" stroke-width="1"/></g></g><g id="eydjfgbsbxx338"><g id="eydjfgbsbxx339"><rect id="eydjfgbsbxx340" width="6.140000" height="11.130000" rx="0" ry="0" transform="matrix(0.97025300000000 -0.24209100000000 0.24209100000000 0.97025300000000 46.35221330000000 22.93490440000000)" fill="rgb(201,62,61)" stroke="none" stroke-width="1"/></g><g id="eydjfgbsbxx341"><ellipse id="eydjfgbsbxx342" rx="3.070000" ry="1.920000" transform="matrix(0.97025300000000 -0.24209100000000 0.24209100000000 0.97025300000000 49.35794153000000 22.30291599000000)" fill="rgb(201,62,61)" stroke="none" stroke-width="1"/></g><g id="eydjfgbsbxx343"><ellipse id="eydjfgbsbxx344" rx="3.070000" ry="1.530000" transform="matrix(0.97025300000000 -0.24209100000000 0.24209100000000 0.97025300000000 52.05008399000000 33.09072107000000)" fill="rgb(242,203,48)" stroke="none" stroke-width="1"/></g></g><g id="eydjfgbsbxx345"><g id="eydjfgbsbxx346"><rect id="eydjfgbsbxx347" width="6.140000" height="11.140000" rx="0" ry="0" transform="matrix(0.92050500000000 -0.39073100000000 0.39073100000000 0.92050500000000 41.46391432000000 12.03625856000000)" fill="rgb(201,62,61)" stroke="none" stroke-width="1"/></g><g id="eydjfgbsbxx348"><ellipse id="eydjfgbsbxx349" rx="3.070000" ry="1.920000" transform="matrix(0.92050500000000 -0.39073100000000 0.39073100000000 0.92050500000000 44.33409107000000 10.94524917000000)" fill="rgb(201,62,61)" stroke="none" stroke-width="1"/></g><g id="eydjfgbsbxx350"><ellipse id="eydjfgbsbxx351" rx="3.070000" ry="1.540000" transform="matrix(0.92050500000000 -0.39073100000000 0.39073100000000 0.92050500000000 48.68328057000000 21.20074557000000)" fill="rgb(242,203,48)" stroke="none" stroke-width="1"/></g></g></g></g></g></g></svg>