<svg id="eJlHWw5guP01" xmlns="http://www.w3.org/2000/svg" xmlns:xlink="http://www.w3.org/1999/xlink" viewBox="0 0 110.33 100" shape-rendering="geometricPrecision" text-rendering="geometricPrecision"><style><![CDATA[#eJlHWw5guP048_to {animation: eJlHWw5guP048_to__to 3000ms linear infinite normal forwards}@keyframes eJlHWw5guP048_to__to { 0% {transform: translate(48.960001px,64.414999px)} 16.666667% {transform: translate(48.960001px,64.414999px)} 33.333333% {transform: translate(48.960001px,62.414999px)} 90% {transform: translate(48.960001px,62.414999px)} 100% {transform: translate(48.960001px,64.414999px)}} #eJlHWw5guP050_to {animation: eJlHWw5guP050_to__to 3000ms linear infinite normal forwards}@keyframes eJlHWw5guP050_to__to { 0% {transform: translate(68.850002px,64.414999px)} 16.666667% {transform: translate(68.850002px,64.414999px)} 33.333333% {transform: translate(68.850002px,62.414999px)} 90% {transform: translate(68.850002px,62.414999px)} 100% {transform: translate(68.850002px,64.414999px)}} #eJlHWw5guP075_to {animation: eJlHWw5guP075_to__to 3000ms linear infinite normal forwards}@keyframes eJlHWw5guP075_to__to { 0% {transform: translate(22.233799px,70.059217px)} 53.333333% {transform: translate(22.233799px,70.059217px);animation-timing-function: cubic-bezier(0,0,0.46,1)} 66.666667% {transform: translate(22.233799px,40.059217px);animation-timing-function: cubic-bezier(0.42,0,1,1)} 93.333333% {transform: translate(22.233799px,70.059217px)} 100% {transform: translate(22.233799px,70.059217px)}} #eJlHWw5guP075_tr {animation: eJlHWw5guP075_tr__tr 3000ms linear infinite normal forwards}@keyframes eJlHWw5guP075_tr__tr { 0% {transform: rotate(0deg);animation-timing-function: cubic-bezier(0.42,0,0.58,1)} 6.666667% {transform: rotate(-3deg);animation-timing-function: cubic-bezier(0.42,0,0.58,1)} 16.666667% {transform: rotate(3deg);animation-timing-function: cubic-bezier(0.42,0,0.58,1)} 26.666667% {transform: rotate(-3deg);animation-timing-function: cubic-bezier(0.42,0,0.58,1)} 36.666667% {transform: rotate(3deg);animation-timing-function: cubic-bezier(0.42,0,0.58,1)} 50% {transform: rotate(0deg)} 63.333333% {transform: rotate(-7.172467deg)} 90% {transform: rotate(0deg)} 100% {transform: rotate(0deg)}} #eJlHWw5guP0246_to {animation: eJlHWw5guP0246_to__to 3000ms linear infinite normal forwards}@keyframes eJlHWw5guP0246_to__to { 0% {offset-distance: 0%} 90% {offset-distance: 100%} 100% {offset-distance: 100%}} #eJlHWw5guP0246 {animation: eJlHWw5guP0246_c_o 3000ms linear infinite normal forwards}@keyframes eJlHWw5guP0246_c_o { 0% {opacity: 0} 3.333333% {opacity: 1} 86.666667% {opacity: 1} 96.666667% {opacity: 0} 100% {opacity: 0}} #eJlHWw5guP0257_to {animation: eJlHWw5guP0257_to__to 3000ms linear infinite normal forwards}@keyframes eJlHWw5guP0257_to__to { 0% {offset-distance: 0%} 6.666667% {offset-distance: 0%} 100% {offset-distance: 100%}} #eJlHWw5guP0257 {animation: eJlHWw5guP0257_c_o 3000ms linear infinite normal forwards}@keyframes eJlHWw5guP0257_c_o { 0% {opacity: 0} 6.666667% {opacity: 0} 13.333333% {opacity: 1} 93.333333% {opacity: 1} 100% {opacity: 0}} #eJlHWw5guP0268_to {animation: eJlHWw5guP0268_to__to 3000ms linear infinite normal forwards}@keyframes eJlHWw5guP0268_to__to { 0% {offset-distance: 0%} 83.333333% {offset-distance: 100%} 100% {offset-distance: 100%}} #eJlHWw5guP0268 {animation: eJlHWw5guP0268_c_o 3000ms linear infinite normal forwards}@keyframes eJlHWw5guP0268_c_o { 0% {opacity: 0} 3.333333% {opacity: 1} 80% {opacity: 1} 90% {opacity: 0} 100% {opacity: 0}} #eJlHWw5guP0279_to {animation: eJlHWw5guP0279_to__to 3000ms linear infinite normal forwards}@keyframes eJlHWw5guP0279_to__to { 0% {offset-distance: 0%} 13.333333% {offset-distance: 0%} 100% {offset-distance: 100%}} #eJlHWw5guP0279 {animation: eJlHWw5guP0279_c_o 3000ms linear infinite normal forwards}@keyframes eJlHWw5guP0279_c_o { 0% {opacity: 0} 13.333333% {opacity: 0} 20% {opacity: 1} 96.666667% {opacity: 1} 100% {opacity: 0}} #eJlHWw5guP0290_to {animation: eJlHWw5guP0290_to__to 3000ms linear infinite normal forwards}@keyframes eJlHWw5guP0290_to__to { 0% {offset-distance: 0%} 100% {offset-distance: 100%}} #eJlHWw5guP0290 {animation: eJlHWw5guP0290_c_o 3000ms linear infinite normal forwards}@keyframes eJlHWw5guP0290_c_o { 0% {opacity: 0} 6.666667% {opacity: 1} 93.333333% {opacity: 1} 100% {opacity: 0}} #eJlHWw5guP0301_to {animation: eJlHWw5guP0301_to__to 3000ms linear infinite normal forwards}@keyframes eJlHWw5guP0301_to__to { 0% {offset-distance: 0%} 16.666667% {offset-distance: 0%} 96.666667% {offset-distance: 100%} 100% {offset-distance: 100%}} #eJlHWw5guP0301 {animation: eJlHWw5guP0301_c_o 3000ms linear infinite normal forwards}@keyframes eJlHWw5guP0301_c_o { 0% {opacity: 0} 16.666667% {opacity: 0} 20% {opacity: 1} 93.333333% {opacity: 1} 100% {opacity: 0}} #eJlHWw5guP0312_to {animation: eJlHWw5guP0312_to__to 3000ms linear infinite normal forwards}@keyframes eJlHWw5guP0312_to__to { 0% {offset-distance: 0%} 80% {offset-distance: 100%} 100% {offset-distance: 100%}} #eJlHWw5guP0312 {animation: eJlHWw5guP0312_c_o 3000ms linear infinite normal forwards}@keyframes eJlHWw5guP0312_c_o { 0% {opacity: 0} 6.666667% {opacity: 1} 13.333333% {opacity: 1} 80% {opacity: 1} 86.666667% {opacity: 0} 100% {opacity: 0}} #eJlHWw5guP0316_to {animation: eJlHWw5guP0316_to__to 3000ms linear infinite normal forwards}@keyframes eJlHWw5guP0316_to__to { 0% {offset-distance: 0%} 100% {offset-distance: 100%}} #eJlHWw5guP0316 {animation: eJlHWw5guP0316_c_o 3000ms linear infinite normal forwards}@keyframes eJlHWw5guP0316_c_o { 0% {opacity: 0} 6.666667% {opacity: 1} 93.333333% {opacity: 1} 100% {opacity: 0}} #eJlHWw5guP0327_to {animation: eJlHWw5guP0327_to__to 3000ms linear infinite normal forwards}@keyframes eJlHWw5guP0327_to__to { 0% {offset-distance: 0%} 13.333333% {offset-distance: 0%} 100% {offset-distance: 100%}}]]></style><path id="eJlHWw5guP02" d="M0,0L110,0L110,100L0,100Z" fill="none" stroke="none" stroke-width="1"/><g id="eJlHWw5guP03"><g id="eJlHWw5guP04"><g id="eJlHWw5guP05" clip-path="url(#eJlHWw5guP016)"><g id="eJlHWw5guP06"><g id="eJlHWw5guP07"><g id="eJlHWw5guP08"><g id="eJlHWw5guP09"><g id="eJlHWw5guP010"><path id="eJlHWw5guP011" d="M97.91,86.29C96.37,89.46,93.52,91.07,91.33,93.61C89.14,96.15,86.85,96.52,83.51,96.61L69.43,97.13C65.98,97.24,62.23,97.13,59.27,95.07C57.398334,93.618439,56.090183,91.560751,55.57,89.25C55.05919,86.953953,54.867384,84.598441,55,82.25C55,80.25,55.13,78.25,55.33,76.25C55.642436,72.39512,56.511453,68.605799,57.91,65C60.13,59.56,64.17,54.63,69.62,52.44C73.136131,51.158534,76.897645,50.693474,80.62,51.08C83.262501,51.121571,85.845519,51.870922,88.1,53.25C90.97,55.25,92.38,58.69,93.77,61.92L93.9,62.24C95.12,65.06,96.48,67.84,97.53,70.69C97.87,71.62,98.19,72.56,98.44,73.52C98.469265,73.666115,98.509376,73.809846,98.56,73.95C99.62,78.03,99.74,82.53,97.87,86.31" fill="rgb(235,160,95)" stroke="none" stroke-width="1"/></g><g id="eJlHWw5guP012"><path id="eJlHWw5guP013" d="M80.79,81.6C84.315391,81.145039,87.487107,79.228945,89.53,76.32C92.522095,72.090131,93.119452,66.615618,91.11,61.84C88.99372,57.124332,84.686837,53.756656,79.6,52.84C77.397007,52.341351,75.087611,52.668723,73.11,53.76C71,55.1,69.81,57.56,68.97,59.94C67.817498,63.17875,67.012967,66.530962,66.57,69.94C66.246656,71.627861,66.363755,73.370569,66.91,75C67.840614,76.831274,69.353127,78.301577,71.21,79.18C74.073131,80.967718,77.420142,81.823686,80.79,81.63" fill="rgb(235,160,95)" stroke="none" stroke-width="1"/></g><g id="eJlHWw5guP014"><path id="eJlHWw5guP015" d="M97.91,86.29C96.37,89.46,93.52,91.07,91.33,93.61C89.14,96.15,86.85,96.52,83.51,96.61L69.43,97.13C65.98,97.24,62.23,97.13,59.27,95.07C57.398334,93.618439,56.090183,91.560751,55.57,89.25C55.05919,86.953953,54.867384,84.598441,55,82.25C55,80.25,55.13,78.25,55.33,76.25C57.67,80.48,60.61,84.51,65.07,86C68.07,87,71.29,86.66,74.43,86.59C79.94,86.45,85.88,86.98,90.49,83.97C93.511229,81.800699,95.682318,78.646609,96.63,75.05C97.049848,73.629071,97.360749,72.1782,97.56,70.71C97.95,71.71,98.3,72.82,98.62,73.96C99.62,78.04,99.8,82.54,97.93,86.33" fill="rgb(219,147,85)" stroke="none" stroke-width="1"/></g></g></g></g></g><clipPath id="eJlHWw5guP016"><rect id="eJlHWw5guP017" width="47.1" height="44.33" rx="0" ry="0" transform="matrix(0.069757 -0.997564 0.997564 0.069757 54.016202 96.130862)" fill="none" stroke="none" stroke-width="1"/></clipPath></g></g><g id="eJlHWw5guP018"><g id="eJlHWw5guP019"><path id="eJlHWw5guP020" d="M36.64,41.67C33.7,47.67,32.24,57.93,33.8,65.53C35.49,73.73,30.95,76.09,32.1,81.53C33.7,86.37,37.89,89.84,44.82,90.23C51.75,90.62,62,89.6,70.31,91.54C78.62,93.48,85.49,87.87,86.16,83.26C86.83,78.65,84.3,78.77,83.55,71.81C83.18,68.45,84.02,58.71,84.29,54.44C84.500703,51.049864,83.839705,47.662251,82.37,44.6C80.6,40.6,76.46,32.83,67.11,30.11C55.5,26.14,42.12,30.44,36.64,41.67Z" fill="rgb(76,84,90)" stroke="none" stroke-width="1"/></g><g id="eJlHWw5guP021" opacity="0.2"><g id="eJlHWw5guP022" clip-path="url(#eJlHWw5guP027)"><g id="eJlHWw5guP023"><g id="eJlHWw5guP024"><g id="eJlHWw5guP025"><path id="eJlHWw5guP026" d="M41.68,57.83C41.68,57.83,42.23,70.14,39.68,76.35C37.13,82.56,36.25,87.76,46.68,91.89C57.11,96.02,73.11,94.18,75.29,93.2C77.47,92.22,84.02,86.2,79.09,79.52C74.16,72.84,76.43,59.46,76.43,59.46Z" fill="rgb(0,0,0)" stroke="none" stroke-width="1"/></g></g></g><clipPath id="eJlHWw5guP027"><path id="eJlHWw5guP028" d="M36.64,41.67C33.7,47.67,32.24,57.93,33.8,65.53C35.49,73.73,30.95,76.09,32.1,81.53C33.7,86.37,37.89,89.84,44.82,90.23C51.75,90.62,62,89.6,70.31,91.54C78.62,93.48,85.49,87.87,86.16,83.26C86.83,78.65,84.3,78.77,83.55,71.81C82.93,66.16,84.06,56.09,84.26,51.81C84.46,47.53,79.65,33.54,67.36,30C55.74,26,42.12,30.44,36.64,41.67Z" fill="none" stroke="none" stroke-width="1"/></clipPath></g></g><g id="eJlHWw5guP029"><path id="eJlHWw5guP030" d="M44.63,89.89L44.63,89.89C44.098872,89.609567,43.701218,89.129249,43.524849,88.555112C43.34848,87.980975,43.407904,87.360247,43.69,86.83L46,82.44L46,82.44L48,83.5C48.539618,83.771896,48.948564,84.247716,49.136262,84.822071C49.32396,85.396427,49.274918,86.021915,49,86.56L47.68,89C47.104738,90.080306,45.768873,90.498877,44.68,89.94Z" fill="rgb(253,223,188)" stroke="none" stroke-width="1"/></g><g id="eJlHWw5guP031"><path id="eJlHWw5guP032" d="M51.26,91.27L59.26,91.27L59.26,96.6C59.26,97.152285,58.812285,97.6,58.26,97.6L51.26,97.6C50.707715,97.6,50.26,97.152285,50.26,96.6L50.26,92.27C50.26,91.717715,50.707715,91.27,51.26,91.27Z" fill="rgb(229,35,47)" stroke="none" stroke-width="1"/></g><g id="eJlHWw5guP033"><path id="eJlHWw5guP034" d="M59.3,91.27L67.3,91.27C67.852285,91.27,68.3,91.717715,68.3,92.27L68.3,96.6C68.3,97.152285,67.852285,97.6,67.3,97.6L60.3,97.6C59.747715,97.6,59.3,97.152285,59.3,96.6L59.3,91.27Z" fill="rgb(229,35,47)" stroke="none" stroke-width="1"/></g><g id="eJlHWw5guP035"><path id="eJlHWw5guP036" d="M51.61,75L67,75C68.405596,74.914146,69.61851,75.975446,69.72,77.38L71.52,91.62C71.473843,92.297726,71.160218,92.92932,70.648183,93.37571C70.136148,93.822099,69.46769,94.046679,68.79,94L49.79,94C48.38992,94.085865,47.181477,93.029035,47.08,91.63L48.9,77.37C49.001477,75.970965,50.20992,74.914135,51.61,75Z" fill="rgb(229,35,47)" stroke="none" stroke-width="1"/></g><g id="eJlHWw5guP037"><path id="eJlHWw5guP038" d="M49,74.59C49,74.59,42.78,82.19,43.27,83.21C43.76,84.23,48.32,87.03,49.55,87.55C50.78,88.07,51.55,75.04,50.68,74.55C50.146259,74.291896,49.520852,74.306787,49,74.59Z" fill="rgb(229,35,47)" stroke="none" stroke-width="1"/></g><g id="eJlHWw5guP039"><path id="eJlHWw5guP040" d="M69.69,74.59C69.69,74.59,76.57,78.47,75.9,82.59C75.474884,83.688416,74.613005,84.561159,73.52,85C70.45,85.78,68.73,84.9,67.6,85.37C66.47,85.84,67.1,75,68,74.59C68.530014,74.315994,69.159986,74.315994,69.69,74.59Z" fill="rgb(229,35,47)" stroke="none" stroke-width="1"/></g><g id="eJlHWw5guP041"><ellipse id="eJlHWw5guP042" rx="6" ry="3" transform="matrix(1 0 0 1 59 78)" fill="rgb(255,255,255)" stroke="none" stroke-width="1"/></g><g id="eJlHWw5guP043"><g id="eJlHWw5guP044"><path id="eJlHWw5guP045" d="M58.85,39.12C70.604237,39.125521,80.130001,48.655762,80.13,60.41L80.13,60.41C80.13,72.16,70.6,79.21,58.85,79.21C47.1,79.21,37.56,72.21,37.56,60.41C37.56,54.763541,39.803047,49.348346,43.795697,45.355697C47.788346,41.363047,53.203541,39.12,58.85,39.12Z" fill="rgb(253,223,188)" stroke="none" stroke-width="1"/></g><g id="eJlHWw5guP046"><path id="eJlHWw5guP047" d="M58.85,79.21C56.275112,79.220627,53.712122,78.860259,51.24,78.14C52.262885,78.251743,53.291031,78.308491,54.32,78.31C59.766356,78.450149,65.090274,76.681405,69.37,73.31C71.30912,71.699761,72.86947,69.68189,73.94,67.4C75.070308,64.92134,75.640496,62.224045,75.61,59.5C75.62227,54.92661,74.148276,50.473043,71.41,46.81C70.09056,45.037186,68.505203,43.478813,66.71,42.19C64.898974,40.879702,62.890359,39.866955,60.76,39.19C71.728026,40.183178,80.12832,49.377099,80.13,60.39C80.159513,63.113948,79.58937,65.811031,78.46,68.29C77.389851,70.569379,75.83337,72.58666,73.9,74.2C69.620412,77.57273,64.297203,79.344776,58.85,79.21Z" fill="rgb(254,217,173)" stroke="none" stroke-width="1"/></g><g id="eJlHWw5guP048_to" transform="translate(48.960001,64.414999)"><g id="eJlHWw5guP048" transform="translate(-48.960001,-64.414999)"><rect id="eJlHWw5guP049" width="3.62" height="5.43" rx="1.81" ry="1.81" transform="matrix(1 0 0 1 47.330002 61.7)" fill="rgb(76,84,90)" stroke="none" stroke-width="1"/></g></g><g id="eJlHWw5guP050_to" transform="translate(68.850002,64.414999)"><g id="eJlHWw5guP050" transform="translate(-68.850002,-64.414999)"><rect id="eJlHWw5guP051" width="3.62" height="5.43" rx="1.81" ry="1.81" transform="matrix(1 0 0 1 67.04 61.7)" fill="rgb(76,84,90)" stroke="none" stroke-width="1"/></g></g><g id="eJlHWw5guP052"><path id="eJlHWw5guP053" d="M58.73,72.48C57.960359,72.457379,57.204043,72.27341,56.51,71.94C56.116498,71.743046,55.952216,71.267959,56.14,70.87C56.230624,70.67701,56.395406,70.528843,56.596908,70.459165C56.798409,70.389487,57.019519,70.404214,57.21,70.5C57.685068,70.730054,58.202561,70.859428,58.73,70.88C59.214486,70.849974,59.687621,70.720628,60.12,70.5C60.514884,70.301177,60.996177,70.460116,61.195,70.855C61.393823,71.249884,61.234884,71.731177,60.84,71.93C60.18291,72.258982,59.464074,72.446356,58.73,72.48Z" fill="rgb(76,84,90)" stroke="none" stroke-width="1"/></g><g id="eJlHWw5guP054"><path id="eJlHWw5guP055" d="M37.85,56.63C37.85,56.63,46.47,54.17,50.37,49.63C54.27,45.09,56.51,47.47,58.37,48.54C60.23,49.61,64.67,53.61,70.47,56.2C73.660291,57.720048,77.146155,58.518963,80.68,58.54C84.213845,58.561037,80.98,46.54,73.93,42.08C66.88,37.62,52.11,33.86,44.49,42.08C36.87,50.3,37.85,56.63,37.85,56.63Z" fill="rgb(76,84,90)" stroke="none" stroke-width="1"/></g><g id="eJlHWw5guP056"><g id="eJlHWw5guP057"><g id="eJlHWw5guP058"><path id="eJlHWw5guP059" d="M68.83,50.68C67.725431,50.793218,66.738218,49.989569,66.625,48.885C66.511782,47.780431,67.315431,46.793218,68.42,46.68L73.14,45.68C74.230762,45.442518,75.307518,46.134238,75.545,47.225C75.782482,48.315762,75.090762,49.392518,74,49.63L69.28,50.63C69.132376,50.663647,68.981409,50.680421,68.83,50.68Z" fill="rgb(229,35,47)" stroke="none" stroke-width="1"/></g><g id="eJlHWw5guP060"><path id="eJlHWw5guP061" d="M68.66,50.57C67.697555,50.5904,66.857129,49.922261,66.66,48.98L65.66,44.26C65.480808,43.549625,65.704365,42.798128,66.242706,42.301206C66.781047,41.804284,67.548002,41.641478,68.241791,41.876848C68.93558,42.112218,69.445152,42.708089,69.57,43.43L70.57,48.15C70.798354,49.22956,70.10923,50.290094,69.03,50.52C68.908323,50.547217,68.784536,50.563945,68.66,50.57Z" fill="rgb(229,35,47)" stroke="none" stroke-width="1"/></g></g><g id="eJlHWw5guP062"><circle id="eJlHWw5guP063" r="2" transform="matrix(1 0 0 1 66 53)" fill="rgb(229,35,47)" stroke="none" stroke-width="1"/></g></g></g><g id="eJlHWw5guP064"><path id="eJlHWw5guP065" d="M63.42,78.88C63.42,78.88,63.14,80.71,62.54,81.17C61.94,81.63,64.32,82.11,65.06,81.87C65.8,81.63,64.83,78.61,64.83,78.61Z" fill="rgb(255,255,255)" stroke="none" stroke-width="1"/></g><g id="eJlHWw5guP066"><path id="eJlHWw5guP067" d="M38,58.48C37.345797,58.247741,36.618077,58.501403,36.25,59.09C35.62,60.09,35.9,62.96,37.64,64.54C38.465338,65.452515,39.748737,65.796842,40.92,65.42C42.091263,65.043158,39.28,59.17,38.82,58.99C38.518141,58.870854,38.240332,58.698071,38,58.48Z" fill="rgb(253,223,188)" stroke="none" stroke-width="1"/></g><g id="eJlHWw5guP068"><path id="eJlHWw5guP069" d="M80.87,59.41C81.523635,59.180951,82.248484,59.439231,82.61,60.03C83.25,61.03,82.97,63.89,81.22,65.47C80.402075,66.387657,79.118007,66.733217,77.95,66.35C76.781993,65.966783,79.59,60.1,80,59.93C80.319613,59.811858,80.614586,59.635552,80.87,59.41Z" fill="rgb(254,217,173)" stroke="none" stroke-width="1"/></g><g id="eJlHWw5guP070"><path id="eJlHWw5guP071" d="M37.89,55.14C37.89,55.14,36.44,64.93,40.33,72.05C44.22,79.17,47.33,78.97,47.33,78.97C47.33,78.97,37.33,71.8,40.97,59.37C44.61,46.94,38.68,53.61,38.68,53.61Z" fill="rgb(76,84,90)" stroke="none" stroke-width="1"/></g><g id="eJlHWw5guP072"><path id="eJlHWw5guP073" d="M80.76,55.14C80.76,55.14,82.21,64.93,78.32,72.05C74.43,79.17,71.32,78.97,71.32,78.97C71.32,78.97,81.32,71.8,77.69,59.37C74.06,46.94,80,53.61,80,53.61Z" fill="rgb(76,84,90)" stroke="none" stroke-width="1"/></g></g><g id="eJlHWw5guP074"><g id="eJlHWw5guP075_to" transform="translate(22.233799,70.059217)"><g id="eJlHWw5guP075_tr" transform="rotate(0)"><g id="eJlHWw5guP075" transform="translate(-22.233799,-70.059217)"><g id="eJlHWw5guP076"><g id="eJlHWw5guP077"><g id="eJlHWw5guP078"><g id="eJlHWw5guP079"><g id="eJlHWw5guP080"><g id="eJlHWw5guP081"><path id="eJlHWw5guP082" d="M9,70.1C9,70.1,4.64,62.7,7.84,60.59C11.04,58.48,15.84,62.29,16.14,62.59C16.14,62.59,21.14,60.04,26.06,61.65C26.33,61.8,30.66,57.65,34.06,58.8C37.46,59.95,34.06,68.17,34.06,68.17C34.06,68.17,34.67,73.45,36.66,74.6C36.81,74.86,35.03,75.75,34.44,75.6C35.023861,75.808434,35.626742,75.959154,36.24,76.05C36.86,76.14,29.48,82.2,22.03,81.6C14.58,81,10.23,78.9,9.43,78.32C9.924789,78.126074,10.405888,77.898889,10.87,77.64C11.02,77.56,8.33,77.27,7.22,76.06C6.86,75.7,10.03,73.7,9.62,71.55C9.35,70.31,9,70.1,9,70.1Z" fill="rgb(163,216,242)" stroke="none" stroke-width="1"/></g><g id="eJlHWw5guP083" style="isolation:isolate" opacity="0.5"><path id="eJlHWw5guP084" d="M10.61,67.64C10.61,67.64,12.03,64.77,13.71,64.18C13.71,64.04,10.05,61.79,9.08,62.8C8.11,63.81,10.61,67.64,10.61,67.64Z" fill="rgb(255,255,255)" stroke="none" stroke-width="1"/></g><g id="eJlHWw5guP085" style="isolation:isolate" opacity="0.5"><path id="eJlHWw5guP086" d="M28.24,63.36C28.24,63.36,31.33,64.27,32.24,65.81C32.35,65.81,33.95,61.81,32.79,61.01C31.63,60.21,28.24,63.36,28.24,63.36Z" fill="rgb(255,255,255)" stroke="none" stroke-width="1"/></g><g id="eJlHWw5guP087"><g id="eJlHWw5guP088"><path id="eJlHWw5guP089" d="M29.06,89.11L28.57,89.11C28.287841,89.084224,28.029861,88.939965,27.860166,88.713069C27.690471,88.486174,27.624992,88.197943,27.68,87.92C27.751813,87.378182,28.223818,86.979793,28.77,87C30.043562,87.095624,31.310348,86.741773,32.35,86C33.41961,84.974407,34.016903,83.551763,34,82.07C34.03866,81.484578,34.544578,81.04134,35.13,81.08C35.715422,81.11866,36.15866,81.624578,36.12,82.21L36.12,82.21C36.084825,84.260528,35.201404,86.204779,33.68,87.58C32.355806,88.5949,30.728215,89.133907,29.06,89.11Z" fill="rgb(163,216,242)" stroke="none" stroke-width="1"/></g></g><g id="eJlHWw5guP090"><path id="eJlHWw5guP091" d="M13.6,77.22L12,84.42C12,84.42,10.23,89.42,15.9,90.42C19.9005,90.979958,23.9595,90.979958,27.96,90.42C31.96,89.86,31.85,90.16,31.78,85.13C31.78,83.59,29.88,77.27,29.88,77.27Z" fill="rgb(163,216,242)" stroke="none" stroke-width="1"/></g><g id="eJlHWw5guP092"><g id="eJlHWw5guP093"><path id="eJlHWw5guP094" d="M22.66,73C22.520712,73.019966,22.379288,73.019966,22.24,73C22.036922,72.949521,21.839303,72.879182,21.65,72.79C20.947703,73.196476,20.062046,73.09491,19.47,72.54C19.254609,72.341177,19.241177,72.005391,19.44,71.79C19.638823,71.574609,19.974609,71.561177,20.19,71.76L20.19,71.76C20.4909,72.032223,20.9491,72.032223,21.25,71.76C21.384857,71.636277,21.575669,71.594298,21.75,71.65C21.820647,71.678913,21.88775,71.71582,21.95,71.76C22.05,71.82,22.68,72.18,23.01,71.82C23.193296,71.595477,23.522954,71.559839,23.75,71.74C23.978777,71.903188,24.032439,72.220691,23.87,72.45L23.87,72.45L23.87,72.45C23.580458,72.819642,23.128881,73.024904,22.66,73Z" fill="rgb(77,85,91)" stroke="none" stroke-width="1"/></g></g><g id="eJlHWw5guP095"><circle id="eJlHWw5guP096" r="1.37" transform="matrix(1 0 0 1 14.88 69.07)" fill="rgb(77,85,91)" stroke="none" stroke-width="1"/></g><g id="eJlHWw5guP097"><circle id="eJlHWw5guP098" r="1.37" transform="matrix(1 0 0 1 27.56 69.07)" fill="rgb(77,85,91)" stroke="none" stroke-width="1"/></g><g id="eJlHWw5guP099"><g id="eJlHWw5guP0100"><g id="eJlHWw5guP0101"><path id="eJlHWw5guP0102" d="M7,76.07C6.859167,76.09601,6.713802,76.063918,6.597009,75.981033C6.480216,75.898147,6.401938,75.771525,6.38,75.63C6.335094,75.35373,6.508727,75.08894,6.78,75.02C7.813607,74.542962,8.963464,74.376215,10.09,74.54C10.375615,74.581351,10.575649,74.843617,10.54,75.13C10.493793,75.41828,10.230391,75.620221,9.94,75.59C9.012742,75.456006,8.06656,75.598629,7.22,76C7.153131,76.040176,7.07779,76.064148,7,76.07Z" fill="rgb(113,113,113)" stroke="none" stroke-width="1"/></g></g><g id="eJlHWw5guP0103"><g id="eJlHWw5guP0104"><path id="eJlHWw5guP0105" d="M37.46,76C37.39139,76.019726,37.31861,76.019726,37.25,76C36.396664,75.621298,35.451411,75.499666,34.53,75.65C34.244744,75.686499,33.98093,75.493036,33.93,75.21C33.881522,74.928608,34.069012,74.660766,34.35,74.61L34.35,74.61C35.470852,74.434238,36.618567,74.579869,37.66,75.03C37.952711,75.08799,38.14299,75.372289,38.085,75.665C38.02701,75.957711,37.742711,76.14799,37.45,76.09Z" fill="rgb(113,113,113)" stroke="none" stroke-width="1"/></g></g><g id="eJlHWw5guP0106"><g id="eJlHWw5guP0107"><path id="eJlHWw5guP0108" d="M7.51,78.14C7.344184,78.142448,7.187531,78.064121,7.09,77.93C7.004035,77.818155,6.967198,77.676185,6.987939,77.536653C7.00868,77.397122,7.085219,77.272004,7.2,77.19L7.2,77.19C8.120505,76.49722,9.221,76.084101,10.37,76C10.661153,75.982591,10.913513,76.199532,10.94,76.49C10.957409,76.781153,10.740468,77.033513,10.45,77.06C9.508313,77.136665,8.60887,77.48394,7.86,78.06C7.758074,78.130937,7.632623,78.159612,7.51,78.14Z" fill="rgb(113,113,113)" stroke="none" stroke-width="1"/></g></g><g id="eJlHWw5guP0109"><g id="eJlHWw5guP0110"><path id="eJlHWw5guP0111" d="M36.93,78.14C36.814552,78.148108,36.700289,78.112401,36.61,78.04C35.861194,77.470602,34.966947,77.123995,34.03,77.04C33.781509,76.973655,33.616516,76.73848,33.63869,76.482242C33.660865,76.226005,33.863806,76.022671,34.12,76C35.26486,76.080247,36.363744,76.482362,37.29,77.16C37.519273,77.3372,37.567818,77.663773,37.4,77.9C37.299304,78.035712,37.138941,78.114029,36.97,78.11Z" fill="rgb(113,113,113)" stroke="none" stroke-width="1"/></g></g></g><ellipse id="eJlHWw5guP0112" rx="4.620123" ry="4.291702" transform="matrix(1 0 0 1 22 86.1)" fill="rgb(255,255,255)" stroke="none" stroke-width="0"/></g></g><g id="eJlHWw5guP0113"><g id="eJlHWw5guP0114"><path id="eJlHWw5guP0115" d="M12.72,79.7C12.97,79.53,14.17,79.97,16.23,80.76C18.29,81.55,23.29,82.01,29.23,79.7C29.96,79.42,30.7,78.93,30.99,79.23C31.320689,79.855658,31.320689,80.604342,30.99,81.23C30.67,81.84,31.8,82.14,31.39,82.69C30.98,83.24,26.11,85.05,21.78,84.69C17.45,84.33,13.9,83.35,12.37,82.39C12.038085,82.172622,11.932898,81.734342,12.13,81.39L12.13,81.39L12.2,81.3C12.72,80.76,12.46,79.91,12.72,79.7Z" fill="rgb(230,43,35)" stroke="none" stroke-width="1"/></g><g id="eJlHWw5guP0116" clip-path="url(#eJlHWw5guP0123)"><g id="eJlHWw5guP0117"><g id="eJlHWw5guP0118"><g id="eJlHWw5guP0119"><g id="eJlHWw5guP0120" opacity="0.2"><g id="eJlHWw5guP0121" style="isolation:isolate" opacity="0.49"><path id="eJlHWw5guP0122" d="M12.89,80.63C12.89,80.63,12.95,79.11,13.21,78.94C13.47,78.77,14.16,79.94,16.21,80.75C18.26,81.56,23.28,82.01,29.21,79.75C29.93,79.47,30.67,78.98,30.96,79.28C31.290689,79.905658,31.290689,80.654342,30.96,81.28C30.64,81.89,31.77,82.19,31.36,82.74C30.95,83.29,26.08,85.09,21.75,84.74C18.523422,84.578011,15.372117,83.70739,12.52,82.19C12.41,82.11,12.04,81.82,12.52,81.28C13,80.74,12.89,80.63,12.89,80.63Z" fill="rgb(1,1,1)" stroke="none" stroke-width="1"/></g></g></g></g></g><clipPath id="eJlHWw5guP0123"><path id="eJlHWw5guP0124" d="M31,81C29.286513,82.115374,27.415812,82.968144,25.45,83.53C23.45,84.09,30.07,82.4,31.13,81.58C31.19,81.58,31.54,81.11,31.54,81.11Z" fill="none" stroke="none" stroke-width="1"/></clipPath></g><g id="eJlHWw5guP0125" clip-path="url(#eJlHWw5guP0132)"><g id="eJlHWw5guP0126"><g id="eJlHWw5guP0127"><g id="eJlHWw5guP0128"><g id="eJlHWw5guP0129" opacity="0.2"><g id="eJlHWw5guP0130" style="isolation:isolate" opacity="0.49"><path id="eJlHWw5guP0131" d="M12.89,80.62C12.89,80.62,12.95,79.11,13.21,78.94C13.47,78.77,14.16,79.94,16.21,80.75C18.26,81.56,23.28,82.01,29.21,79.75C29.93,79.47,30.67,78.98,30.96,79.28C31.290689,79.905658,31.290689,80.654342,30.96,81.28C30.64,81.89,31.76,82.19,31.36,82.74C30.96,83.29,26.08,85.09,21.75,84.74C18.523087,84.588001,15.370343,83.720399,12.52,82.2C12.41,82.12,12.03,81.83,12.52,81.29C13.01,80.75,12.89,80.62,12.89,80.62Z" fill="rgb(1,1,1)" stroke="none" stroke-width="1"/></g></g></g></g></g><clipPath id="eJlHWw5guP0132"><path id="eJlHWw5guP0133" d="M30.81,78.92C30.81,78.92,26.81,82.77,18.66,82.02C18.21,82.13,18.1,83.83,18.06,84.8C18.02,85.77,13.36,83.21,13.36,83.21L14.13,81.58C14.13,81.58,12.93,80.65,13.07,80.32C13.21,79.99,15.3,80.12,15.64,79.97C15.98,79.82,23.04,80.87,23.04,80.85Z" fill="none" stroke="none" stroke-width="1"/></clipPath></g><g id="eJlHWw5guP0134"><path id="eJlHWw5guP0135" d="M18.39,81.28C18.39,81.28,17.53,81.98,17.93,84.62C18.33,87.26,17.93,87.44,17.93,87.44C17.93,87.44,16.8,87.96,13.58,87.14C13.08,87,13.5,84.57,14.73,80C15.723133,79.847217,16.736913,80.083647,17.56,80.66Z" fill="rgb(229,42,35)" stroke="none" stroke-width="1"/></g></g><g id="eJlHWw5guP0136"><g id="eJlHWw5guP0137" clip-path="url(#eJlHWw5guP0158)"><g id="eJlHWw5guP0138"><g id="eJlHWw5guP0139"><g id="eJlHWw5guP0140"><g id="eJlHWw5guP0141"><g id="eJlHWw5guP0142"><g id="eJlHWw5guP0143"><g id="eJlHWw5guP0144"><g id="eJlHWw5guP0145"><path id="eJlHWw5guP0146" d="M24.58,72.62C24.106141,74.145589,22.574015,75.082839,21,74.81C19.25,74.63,18,73.36,18.26,71.96C18.709932,70.431048,20.242885,69.489686,21.81,69.78C23.54,69.96,24.81,71.23,24.55,72.62" fill="rgb(230,44,43)" stroke="none" stroke-width="1"/></g><g id="eJlHWw5guP0147" opacity="0.79"><g id="eJlHWw5guP0148"><g id="eJlHWw5guP0149" clip-path="url(#eJlHWw5guP0156)"><g id="eJlHWw5guP0150"><g id="eJlHWw5guP0151"><g id="eJlHWw5guP0152"><g id="eJlHWw5guP0153"><g id="eJlHWw5guP0154"><path id="eJlHWw5guP0155" d="M19.78,71.7C19.61,71.16,21.12,70.18,21.69,70.94C22.26,71.7,20.01,72.45,19.78,71.7" fill="rgb(235,92,117)" stroke="none" stroke-width="1"/></g></g></g></g></g><clipPath id="eJlHWw5guP0156"><rect id="eJlHWw5guP0157" width="2.02" height="1.35" rx="0" ry="0" transform="matrix(1 0 0 1 19.76 70.65)" fill="none" stroke="none" stroke-width="1"/></clipPath></g></g></g></g></g></g></g></g></g></g><clipPath id="eJlHWw5guP0158"><rect id="eJlHWw5guP0159" width="6.34" height="5.07" rx="0" ry="0" transform="matrix(1 0 0 1 18.26 69.76)" fill="none" stroke="none" stroke-width="1"/></clipPath></g></g><g id="eJlHWw5guP0160"><g id="eJlHWw5guP0161"><g id="eJlHWw5guP0162" clip-path="url(#eJlHWw5guP0206)"><g id="eJlHWw5guP0163"><g id="eJlHWw5guP0164"><g id="eJlHWw5guP0165"><g id="eJlHWw5guP0166"><g id="eJlHWw5guP0167"><g id="eJlHWw5guP0168"><g id="eJlHWw5guP0169"><g id="eJlHWw5guP0170"><path id="eJlHWw5guP0171" d="M28.94,59.07C29.500845,59.076483,30.061638,59.053117,30.62,59C31.43,58.88,31.31,60.24,30.06,60.35C29.19974,60.320254,28.34711,60.520467,27.59,60.93C26.97,61.37,24.48,63.7,23.36,62.7C22.56,61.96,23.36,61.37,24.18,60.41C25,59.45,24.78,59.35,24.1,58.41C23.42,57.47,23.17,56.3,24.26,55.84L24.5,55.76C25.86,55.4,25.87,58.08,26.23,58.29C26.320799,58.350667,26.439201,58.350667,26.53,58.29L26.53,58.29C27.16313,58.010533,27.5601,57.371411,27.53,56.68C27.43,55.75,26.22,51.28,27.71,50.74C29.2,50.2,29.49,53.43,29.46,54.27C29.43,55.11,29.1,55.85,29.46,55.91C29.853714,55.810284,30.204548,55.58575,30.46,55.27L30.46,55.27C31.155552,54.547012,31.648715,53.6538,31.89,52.68C32.42,50.57,32.06,49.08,33.49,49.3C34.92,49.52,35.02,52.07,32.96,55.44C30.9,58.81,29.09,59,29,59.07" fill="rgb(102,47,25)" stroke="none" stroke-width="1"/></g><g id="eJlHWw5guP0172" opacity="0.35"><g id="eJlHWw5guP0173"><g id="eJlHWw5guP0174" clip-path="url(#eJlHWw5guP0185)"><g id="eJlHWw5guP0175"><g id="eJlHWw5guP0176"><g id="eJlHWw5guP0177"><g id="eJlHWw5guP0178"><g id="eJlHWw5guP0179"><path id="eJlHWw5guP0180" d="M26.57,58.27C26.31,58.62,26.02,58.85,25.84,58.66C25.45,58.25,25.21,55.55,24.31,55.88C24.320718,55.861436,24.320718,55.838564,24.31,55.82L24.57,55.73C25.93,55.37,25.94,58.06,26.3,58.27C26.393805,58.319779,26.506195,58.319779,26.6,58.27" fill="rgb(244,157,97)" stroke="none" stroke-width="1"/></g><g id="eJlHWw5guP0181"><path id="eJlHWw5guP0182" d="M30.41,55.25C29.41,57.12,28.57,56.25,28.76,54.32C28.95,52.39,28.59,50.63,27.65,50.72C29.14,50.19,29.44,53.41,29.41,54.25C29.38,55.09,29.05,55.83,29.41,55.89C29.802578,55.787674,30.152654,55.563625,30.41,55.25" fill="rgb(244,157,97)" stroke="none" stroke-width="1"/></g><g id="eJlHWw5guP0183"><path id="eJlHWw5guP0184" d="M28.94,59.06C29.500702,59.074817,30.061783,59.054778,30.62,59C31.43,58.88,31.31,60.23,30.06,60.35C29.19974,60.320254,28.34711,60.520467,27.59,60.93C26.97,61.36,24.48,63.7,23.36,62.69C25.66,61.95,27.49,60.17,28.13,60C28.77,59.83,30.4,59.86,30.39,59.56C30.38,59.26,28.55,59.56,28.6,59.25C28.65,58.94,30.85,57.36,32.13,55.82C33.41,54.28,35.03,49.82,33.39,49.33C34.81,49.55,34.92,52.1,32.86,55.47C30.8,58.84,29,59,28.9,59.06" fill="rgb(244,157,97)" stroke="none" stroke-width="1"/></g></g></g></g></g><clipPath id="eJlHWw5guP0185"><rect id="eJlHWw5guP0186" width="14.98" height="9.21" rx="0" ry="0" transform="matrix(0.170897 -0.985289 0.985289 0.170897 22.850121 62.704338)" fill="none" stroke="none" stroke-width="1"/></clipPath></g></g></g><g id="eJlHWw5guP0187"><path id="eJlHWw5guP0188" d="M19.39,62.57C19.32836,62.686703,19.250969,62.794378,19.16,62.89C18.1,63.89,15.51,61.76,14.88,61.36C14.098392,61.000718,13.237309,60.849167,12.38,60.92C11.12,60.92,10.89,59.58,11.74,59.61C12.59,59.64,13.43,59.61,13.43,59.61C13.43,59.61,11.52,59.46,9.26,56.21C7,52.96,6.96,50.42,8.38,50.11C9.8,49.8,9.55,51.35,10.16,53.4C10.77,55.45,12.4,56.58,12.72,56.45C12.86,56.45,12.89,56.29,12.88,56.11C12.890282,56.074054,12.890282,56.035946,12.88,56C12.861715,55.801892,12.818023,55.60696,12.75,55.42C12.706164,55.215165,12.672787,55.00823,12.65,54.8C12.57,54.04,12.65,51.26,13.83,51.15L13.83,51.15C13.949171,51.130047,14.070829,51.130047,14.19,51.15C15.71,51.59,14.76,56.15,14.72,57.06C14.68,57.97,15.65,58.85,16,58.62C16.110238,58.459279,16.178951,58.273754,16.2,58.08L16.2,58.08C16.37,57.24,16.55,55.78,17.59,55.96C18.98,56.25,18.76,57.61,18.14,58.58C17.52,59.55,17.28,59.64,18.14,60.58C19,61.52,19.62,61.87,19.32,62.5" fill="rgb(102,47,25)" stroke="none" stroke-width="1"/></g><g id="eJlHWw5guP0189" opacity="0.31"><g id="eJlHWw5guP0190"><g id="eJlHWw5guP0191" clip-path="url(#eJlHWw5guP0204)"><g id="eJlHWw5guP0192"><g id="eJlHWw5guP0193"><g id="eJlHWw5guP0194"><g id="eJlHWw5guP0195"><g id="eJlHWw5guP0196"><path id="eJlHWw5guP0197" d="M10.44,55.17C9.22,53.17,9.12,50.17,8.38,50.11C9.78,49.81,9.51,51.36,10.16,53.41C10.81,55.46,12.4,56.58,12.72,56.41C12.86,56.41,12.89,56.25,12.88,56.07C13.03,57.46,11.57,57.07,10.4,55.07" fill="rgb(244,157,97)" stroke="none" stroke-width="1"/></g><g id="eJlHWw5guP0198"><path id="eJlHWw5guP0199" d="M16,58.69C14.94,59.38,14.37,57.79,14.28,56.77C14.19,55.75,15.04,51.3,13.83,51.19L13.83,51.19C13.949171,51.170047,14.070829,51.170047,14.19,51.19C15.71,51.63,14.76,56.19,14.72,57.11C14.68,58.03,15.65,58.89,16,58.66" fill="rgb(244,157,97)" stroke="none" stroke-width="1"/></g><g id="eJlHWw5guP0200"><path id="eJlHWw5guP0201" d="M16,58.69C16.111779,58.530081,16.180643,58.344149,16.2,58.15C16.3,58.37,16.34,58.46,16,58.69" fill="rgb(244,157,97)" stroke="none" stroke-width="1"/></g><g id="eJlHWw5guP0202"><path id="eJlHWw5guP0203" d="M19.39,62.57C18.791028,61.85867,18.142762,61.190354,17.45,60.57C16.79,59.99,17.01,59.57,17.35,58.83C17.69,58.09,18.66,56.48,17.62,56.11C19,56.39,18.79,57.76,18.16,58.72C17.53,59.68,17.3,59.78,18.16,60.72C19.02,61.66,19.64,62,19.35,62.64" fill="rgb(244,157,97)" stroke="none" stroke-width="1"/></g></g></g></g></g><clipPath id="eJlHWw5guP0204"><rect id="eJlHWw5guP0205" width="10.45" height="13.04" rx="0" ry="0" transform="matrix(0.17 -0.98 0.98 0.17 6.30022 60.1445)" fill="none" stroke="none" stroke-width="1"/></clipPath></g></g></g></g></g></g></g></g></g></g><clipPath id="eJlHWw5guP0206"><rect id="eJlHWw5guP0207" width="16.33" height="26.64" rx="0" ry="0" transform="matrix(0.173992 -0.984747 0.984747 0.173992 5.735748 60.970046)" fill="none" stroke="none" stroke-width="1"/></clipPath></g></g></g></g></g></g><g id="eJlHWw5guP0208" transform="matrix(1 0 0 1 0.000001 0.000001)"><g id="eJlHWw5guP0209"><path id="eJlHWw5guP0210" d="M21.52,62.14L21.52,62.14C21.38818,62.134869,21.263997,62.076803,21.17554,61.978935C21.087082,61.881067,21.041823,61.751666,21.05,61.62C21.119788,60.932969,20.938638,60.243888,20.54,59.68C20.324609,59.50603,20.29103,59.190391,20.465,58.975C20.63897,58.759609,20.954609,58.72603,21.17,58.9C22.12,59.67,22.06,61.47,22.05,61.67C22.042278,61.802696,21.982037,61.926855,21.882588,62.015046C21.783139,62.103237,21.652667,62.1482,21.52,62.14Z" fill="rgb(128,75,51)" stroke="none" stroke-width="1"/></g><g id="eJlHWw5guP0211"><path id="eJlHWw5guP0212" d="M18.58,58C18.09,58.52,19.37,60,20.63,59.84C21.89,59.68,20.96,58.15,20.49,57.84C19.88374,57.483263,19.118459,57.54737,18.58,58Z" fill="rgb(108,206,157)" stroke="none" stroke-width="1"/></g><g id="eJlHWw5guP0213"><path id="eJlHWw5guP0214" d="M24.26,58.78C24.67,59.46,22.9,60.78,21.58,60.27C20.26,59.76,21.65,58.35,22.22,58.14C22.966926,57.908266,23.779303,58.163129,24.26,58.78Z" fill="rgb(108,206,157)" stroke="none" stroke-width="1"/></g></g></g></g></g><g id="eJlHWw5guP0215"><g id="eJlHWw5guP0216"><g id="eJlHWw5guP0217"><g id="eJlHWw5guP0218"><rect id="eJlHWw5guP0219" width="33.81" height="16.91" rx="0" ry="0" transform="matrix(1 0 0 1 5.23 81.62)" fill="rgb(77,85,91)" stroke="none" stroke-width="1"/></g><g id="eJlHWw5guP0220"><rect id="eJlHWw5guP0221" width="12.68" height="4.23" rx="0" ry="0" transform="matrix(1 0 0 1 15.8 82.68)" fill="rgb(144,89,87)" stroke="none" stroke-width="1"/></g><g id="eJlHWw5guP0222"><rect id="eJlHWw5guP0223" width="12.68" height="4.23" rx="0" ry="0" transform="matrix(1 0 0 1 15.8 93.24)" fill="rgb(144,89,87)" stroke="none" stroke-width="1"/></g><g id="eJlHWw5guP0224"><rect id="eJlHWw5guP0225" width="12.68" height="4.23" rx="0" ry="0" transform="matrix(1 0 0 1 9.46 87.96)" fill="rgb(144,89,87)" stroke="none" stroke-width="1"/></g><g id="eJlHWw5guP0226"><rect id="eJlHWw5guP0227" width="3.17" height="4.23" rx="0" ry="0" transform="matrix(1 0 0 1 5.23 87.96)" fill="rgb(144,89,87)" stroke="none" stroke-width="1"/></g><g id="eJlHWw5guP0228"><rect id="eJlHWw5guP0229" width="12.68" height="4.23" rx="0" ry="0" transform="matrix(1 0 0 1 23.19 87.96)" fill="rgb(144,89,87)" stroke="none" stroke-width="1"/></g><g id="eJlHWw5guP0230"><rect id="eJlHWw5guP0231" width="2.11" height="4.23" rx="0" ry="0" transform="matrix(1 0 0 1 36.93 87.96)" fill="rgb(144,89,87)" stroke="none" stroke-width="1"/></g><g id="eJlHWw5guP0232"><rect id="eJlHWw5guP0233" width="9.51" height="4.23" rx="0" ry="0" transform="matrix(1 0 0 1 5.23 82.68)" fill="rgb(144,89,87)" stroke="none" stroke-width="1"/></g><g id="eJlHWw5guP0234"><rect id="eJlHWw5guP0235" width="9.51" height="4.23" rx="0" ry="0" transform="matrix(1 0 0 1 5.23 93.24)" fill="rgb(144,89,87)" stroke="none" stroke-width="1"/></g><g id="eJlHWw5guP0236"><rect id="eJlHWw5guP0237" width="9.51" height="4.23" rx="0" ry="0" transform="matrix(1 0 0 1 29.53 82.68)" fill="rgb(144,89,87)" stroke="none" stroke-width="1"/></g><g id="eJlHWw5guP0238"><rect id="eJlHWw5guP0239" width="9.51" height="4.23" rx="0" ry="0" transform="matrix(1 0 0 1 29.53 93.24)" fill="rgb(144,89,87)" stroke="none" stroke-width="1"/></g><g id="eJlHWw5guP0240"><rect id="eJlHWw5guP0241" width="38.04" height="8.45" rx="2" ry="2" transform="matrix(1 0 0 1 3.12 73.17)" fill="rgb(144,89,87)" stroke="none" stroke-width="1"/></g></g><g id="eJlHWw5guP0242"><path id="eJlHWw5guP0243" d="M4.6,74.93C4.379616,74.129846,4.698304,73.278665,5.39,72.82C6.54,72.12,14.58,71.76,17.1,72.19C19.5712,72.609822,22.073393,72.820568,24.58,72.82C26.29,72.75,34.3,71.87,36.14,73.16C37.98,74.45,33.39,74.33,30.94,76.33C28.49,78.33,27.64,82.25,25.77,80.67C23.9,79.09,23.13,77.4,20.7,78.1C18.27,78.8,18.49,79.51,17.11,81.63C15.73,83.75,14.72,82.93,12.95,84.73C11.18,86.53,11.67,88.96,10.05,88.82C8.43,88.68,8.72,82.92,6.88,82.82C5.04,82.72,4.6,74.93,4.6,74.93Z" fill="rgb(255,255,255)" stroke="none" stroke-width="1"/></g><g id="eJlHWw5guP0244"><path id="eJlHWw5guP0245" d="M10.15,88.85L10.05,88.85C9.27,88.85,8.94,87.44,8.58,86.02C8.22,84.6,7.81,82.85,6.84,82.85C5,82.74,4.61,75.26,4.59,75C4.366798,74.194533,4.690317,73.337208,5.39,72.88C5.857799,72.67924,6.353513,72.551097,6.86,72.5C6.648628,72.938347,6.592221,73.435437,6.7,73.91C6.7,74.22,7.12,81.71,8.95,81.81C9.95,81.81,10.31,83.45,10.69,84.98C10.84686,85.802425,11.123115,86.597499,11.51,87.34C11.22,88.14,11,88.85,10.15,88.85ZM26.61,81.06C26.294325,81.042906,25.995697,80.911367,25.77,80.69C25.34,80.32,24.96,79.95,24.62,79.63C23.69,78.7,23,78,21.74,78C21.41913,78.003261,21.09995,78.046938,20.79,78.13C21.350036,77.604391,22.04063,77.238375,22.79,77.07C23.133938,76.96658,23.49086,76.912705,23.85,76.91C25.05,76.91,25.79,77.64,26.73,78.56C27.087897,78.936383,27.468616,79.290386,27.87,79.62C27.95919,79.692284,28.052696,79.759074,28.15,79.82C27.69,80.47,27.19,81.06,26.61,81.06ZM33.29,75.06L33.29,75.06C34.300662,74.416938,35.403278,73.931382,36.56,73.62C36.64,74.01,35.85,74.26,34.76,74.62C34.32,74.77,33.85,74.92,33.29,75.11Z" fill="rgb(245,245,245)" stroke="none" stroke-width="1"/></g></g></g><g id="eJlHWw5guP0246_to" style="offset-path:path('M48.759998,3.19C34.630013,46.780421,47.391467,58.197648,48.759998,93.19');offset-rotate:0deg"><g id="eJlHWw5guP0246" transform="translate(-48.759998,-3.19)" opacity="0"><g id="eJlHWw5guP0247"><g id="eJlHWw5guP0248"><circle id="eJlHWw5guP0249" r="1.27" transform="matrix(1 0 0 1 48.76 3.19)" fill="rgb(232,229,229)" stroke="none" stroke-width="1"/></g><g id="eJlHWw5guP0250" clip-path="url(#eJlHWw5guP0255)"><g id="eJlHWw5guP0251"><g id="eJlHWw5guP0252"><g id="eJlHWw5guP0253"><circle id="eJlHWw5guP0254" r="1.27" transform="matrix(1 0 0 1 48.76 3.19)" fill="rgb(250,250,250)" stroke="none" stroke-width="1"/></g></g></g><clipPath id="eJlHWw5guP0255"><circle id="eJlHWw5guP0256" r="1.27" transform="matrix(1 0 0 1 48.52 3.08)" fill="none" stroke="none" stroke-width="1"/></clipPath></g></g></g></g><g id="eJlHWw5guP0257_to" style="offset-path:path('M81.510002,3.19C95.917583,24.387337,78.496226,62.279506,81.510002,93.19');offset-rotate:0deg"><g id="eJlHWw5guP0257" transform="translate(-81.510002,-3.19)" opacity="0"><g id="eJlHWw5guP0258"><g id="eJlHWw5guP0259"><circle id="eJlHWw5guP0260" r="2.11" transform="matrix(1 0 0 1 81.51 3.19)" fill="rgb(232,229,229)" stroke="none" stroke-width="1"/></g><g id="eJlHWw5guP0261" clip-path="url(#eJlHWw5guP0266)"><g id="eJlHWw5guP0262"><g id="eJlHWw5guP0263"><g id="eJlHWw5guP0264"><circle id="eJlHWw5guP0265" r="2.11" transform="matrix(1 0 0 1 81.51 3.19)" fill="rgb(250,250,250)" stroke="none" stroke-width="1"/></g></g></g><clipPath id="eJlHWw5guP0266"><circle id="eJlHWw5guP0267" r="2.11" transform="matrix(1 0 0 1 81.1 3.01)" fill="none" stroke="none" stroke-width="1"/></clipPath></g></g></g></g><g id="eJlHWw5guP0268_to" style="offset-path:path('M89.960003,3.19C103.570181,8.790961,101.684343,71.817799,100.960003,96.19');offset-rotate:0deg"><g id="eJlHWw5guP0268" transform="translate(-89.960003,-3.19)" opacity="0"><g id="eJlHWw5guP0269"><g id="eJlHWw5guP0270"><circle id="eJlHWw5guP0271" r="1.27" transform="matrix(1 0 0 1 89.96 3.19)" fill="rgb(232,229,229)" stroke="none" stroke-width="1"/></g><g id="eJlHWw5guP0272" clip-path="url(#eJlHWw5guP0277)"><g id="eJlHWw5guP0273"><g id="eJlHWw5guP0274"><g id="eJlHWw5guP0275"><circle id="eJlHWw5guP0276" r="1.27" transform="matrix(1 0 0 1 89.96 3.19)" fill="rgb(250,250,250)" stroke="none" stroke-width="1"/></g></g></g><clipPath id="eJlHWw5guP0277"><circle id="eJlHWw5guP0278" r="1.27" transform="matrix(1 0 0 1 89.72 3.08)" fill="none" stroke="none" stroke-width="1"/></clipPath></g></g></g></g><g id="eJlHWw5guP0279_to" style="offset-path:path('M70.950001,3.19C50.833905,22.33666,76.964952,150.404728,70.950001,189.19');offset-rotate:0deg"><g id="eJlHWw5guP0279" transform="translate(-70.950001,-3.19)" opacity="0"><g id="eJlHWw5guP0280"><g id="eJlHWw5guP0281"><circle id="eJlHWw5guP0282" r="1.06" transform="matrix(1 0 0 1 70.95 3.19)" fill="rgb(232,229,229)" stroke="none" stroke-width="1"/></g><g id="eJlHWw5guP0283" clip-path="url(#eJlHWw5guP0288)"><g id="eJlHWw5guP0284"><g id="eJlHWw5guP0285"><g id="eJlHWw5guP0286"><circle id="eJlHWw5guP0287" r="1.06" transform="matrix(1 0 0 1 70.95 3.19)" fill="rgb(250,250,250)" stroke="none" stroke-width="1"/></g></g></g><clipPath id="eJlHWw5guP0288"><circle id="eJlHWw5guP0289" r="1.06" transform="matrix(1 0 0 1 70.74 3.1)" fill="none" stroke="none" stroke-width="1"/></clipPath></g></g></g></g><g id="eJlHWw5guP0290_to" style="offset-path:path('M7.58,3.19C19.822007,24.304958,7.468562,59.687021,7.58,95.19');offset-rotate:0deg"><g id="eJlHWw5guP0290" transform="translate(-7.58,-3.19)" opacity="0"><g id="eJlHWw5guP0291"><g id="eJlHWw5guP0292"><circle id="eJlHWw5guP0293" r="2.11" transform="matrix(1 0 0 1 7.58 3.19)" fill="rgb(232,229,229)" stroke="none" stroke-width="1"/></g><g id="eJlHWw5guP0294" clip-path="url(#eJlHWw5guP0299)"><g id="eJlHWw5guP0295"><g id="eJlHWw5guP0296"><g id="eJlHWw5guP0297"><circle id="eJlHWw5guP0298" r="2.11" transform="matrix(1 0 0 1 7.58 3.19)" fill="rgb(250,250,250)" stroke="none" stroke-width="1"/></g></g></g><clipPath id="eJlHWw5guP0299"><circle id="eJlHWw5guP0300" r="2.11" transform="matrix(1 0 0 1 7.17 3.01)" fill="none" stroke="none" stroke-width="1"/></clipPath></g></g></g></g><g id="eJlHWw5guP0301_to" style="offset-path:path('M18.139999,3.19C13.070792,34.275192,32.688005,78.416927,18.139999,93.19');offset-rotate:0deg"><g id="eJlHWw5guP0301" transform="translate(-18.139999,-3.19)" opacity="0"><g id="eJlHWw5guP0302"><g id="eJlHWw5guP0303"><circle id="eJlHWw5guP0304" r="1.27" transform="matrix(1 0 0 1 18.14 3.19)" fill="rgb(232,229,229)" stroke="none" stroke-width="1"/></g><g id="eJlHWw5guP0305" clip-path="url(#eJlHWw5guP0310)"><g id="eJlHWw5guP0306"><g id="eJlHWw5guP0307"><g id="eJlHWw5guP0308"><circle id="eJlHWw5guP0309" r="1.27" transform="matrix(1 0 0 1 18.14 3.19)" fill="rgb(250,250,250)" stroke="none" stroke-width="1"/></g></g></g><clipPath id="eJlHWw5guP0310"><circle id="eJlHWw5guP0311" r="1.27" transform="matrix(1 0 0 1 17.9 3.08)" fill="none" stroke="none" stroke-width="1"/></clipPath></g></g></g></g><g id="eJlHWw5guP0312_to" style="offset-path:path('M27.639998,3.19C39.283726,39.578113,30.649224,66.900213,27.639998,94.19');offset-rotate:0deg"><g id="eJlHWw5guP0312" transform="translate(-27.639998,-3.19)" opacity="0"><g id="eJlHWw5guP0313"><g id="eJlHWw5guP0314"><circle id="eJlHWw5guP0315" r="2.11" transform="matrix(1 0 0 1 27.64 3.19)" fill="rgb(243,243,243)" stroke="none" stroke-width="1"/></g></g></g></g><g id="eJlHWw5guP0316_to" style="offset-path:path('M68.830006,3.19C44.866346,47.788332,66.621297,59.61638,68.830006,96.19');offset-rotate:0deg"><g id="eJlHWw5guP0316" transform="translate(-68.830006,-3.19)" opacity="0"><g id="eJlHWw5guP0317"><g id="eJlHWw5guP0318"><circle id="eJlHWw5guP0319" r="1.27" transform="matrix(1 0 0 1 68.83 3.19)" fill="rgb(232,229,229)" stroke="none" stroke-width="1"/></g><g id="eJlHWw5guP0320" clip-path="url(#eJlHWw5guP0325)"><g id="eJlHWw5guP0321"><g id="eJlHWw5guP0322"><g id="eJlHWw5guP0323"><circle id="eJlHWw5guP0324" r="1.27" transform="matrix(1 0 0 1 68.83 3.19)" fill="rgb(250,250,250)" stroke="none" stroke-width="1"/></g></g></g><clipPath id="eJlHWw5guP0325"><circle id="eJlHWw5guP0326" r="1.27" transform="matrix(1 0 0 1 68.59 3.08)" fill="none" stroke="none" stroke-width="1"/></clipPath></g></g></g></g><g id="eJlHWw5guP0327_to" style="offset-path:path('M106.849995,3.19C95.81708,61.433592,107.923522,66.071031,106.849995,96.19');offset-rotate:0deg"><g id="eJlHWw5guP0327" transform="translate(-106.849995,-3.19)"><g id="eJlHWw5guP0328" opacity="0"><g id="eJlHWw5guP0329"><circle id="eJlHWw5guP0330" r="1.69" transform="matrix(1 0 0 1 106.85 3.19)" fill="rgb(232,229,229)" stroke="none" stroke-width="1"/></g><g id="eJlHWw5guP0331" clip-path="url(#eJlHWw5guP0336)"><g id="eJlHWw5guP0332"><g id="eJlHWw5guP0333"><g id="eJlHWw5guP0334"><circle id="eJlHWw5guP0335" r="1.69" transform="matrix(1 0 0 1 106.85 3.19)" fill="rgb(250,250,250)" stroke="none" stroke-width="1"/></g></g></g><clipPath id="eJlHWw5guP0336"><circle id="eJlHWw5guP0337" r="1.69" transform="matrix(1 0 0 1 106.53 3.05)" fill="none" stroke="none" stroke-width="1"/></clipPath></g></g></g></g></g><g id="eJlHWw5guP0338"><g id="eJlHWw5guP0339"><g id="eJlHWw5guP0340"><path id="eJlHWw5guP0341" d="M61.79,25.72C61.79,25.72,78.92,13.53,89.29,15C99.66,16.47,106.69,22.88,105.14,33.22C104.23,35.61,103.85,41.17,103.85,41.17C103.85,41.17,100.16,41.3,96.23,35.43C92.3,29.56,89.23,42.09,86.93,44.75C84.63,47.41,69.76,37.5,65.28,31.75C60.8,26,61.79,25.72,61.79,25.72Z" fill="rgb(230,43,35)" stroke="none" stroke-width="1"/></g><g id="eJlHWw5guP0342"><path id="eJlHWw5guP0343" d="M64.51,22.87C64.58,22.35,67.09,16.03,68.67,15.15C70.25,14.27,70.3,15.99,70.91,16.84C71.52,17.69,74.34,13.84,75.48,13.93C77.20343,13.958468,78.924503,13.790722,80.61,13.43C82.72,13.04,79.14,18.37,78.26,18.82C77.38,19.27,75.32,21.72,75.73,22.18C76.14,22.64,78.79,21.24,79.45,21.98C80.11,22.72,76.89,26.28,73.77,26.28C70.65,26.28,67.43,25.93,66.46,25.13C65.721227,24.458072,65.066469,23.699225,64.51,22.87Z" fill="rgb(91,173,102)" stroke="none" stroke-width="1"/></g><g id="eJlHWw5guP0344"><path id="eJlHWw5guP0345" d="M63.28,26.89C62.77,26.81,56.52,24.08,55.71,22.47C54.9,20.86,56.62,20.86,57.47,20.29C58.32,19.72,54.61,16.72,54.74,15.58C54.82021,13.866376,54.709529,12.149148,54.41,10.46C54.09,8.34,59.3,12.08,59.69,12.98C60.08,13.88,62.49,15.98,62.96,15.62C63.43,15.26,62.13,12.52,62.9,11.89C63.67,11.26,67.12,14.61,67,17.73C66.88,20.85,66.42,24.07,65.6,24.99C64.9083,25.716929,64.129003,26.355147,63.28,26.89Z" fill="rgb(91,173,102)" stroke="none" stroke-width="1"/></g><g id="eJlHWw5guP0346"><path id="eJlHWw5guP0347" d="M70.48,19.75C71.857823,19.913475,73.001452,20.890936,73.377496,22.226492C73.753541,23.562049,73.287924,24.992615,72.197812,25.850971C71.107699,26.709327,69.607828,26.826389,68.397741,26.147559C67.187654,25.468729,66.505723,24.127728,66.67,22.75L66.67,22.75C66.894196,20.869762,68.599632,19.526899,70.48,19.75Z" fill="rgb(230,43,35)" stroke="none" stroke-width="1"/></g><g id="eJlHWw5guP0348" style="isolation:isolate" opacity="0.1"><path id="eJlHWw5guP0349" d="M69.65,26.56C68.745926,26.454883,67.921045,25.993729,67.357981,25.278637C66.794916,24.563545,66.540119,23.653507,66.65,22.75C66.689155,22.459925,66.759564,22.174935,66.86,21.9C67.065416,23.448599,68.291277,24.662778,69.841773,24.853355C71.392268,25.043932,72.875677,24.162759,73.45,22.71C73.479973,22.999226,73.479973,23.290774,73.45,23.58C73.210576,25.444897,71.518205,26.772072,69.65,26.56Z" fill="rgb(1,1,1)" stroke="none" stroke-width="1"/></g><g id="eJlHWw5guP0350" clip-path="url(#eJlHWw5guP0357)"><g id="eJlHWw5guP0351"><g id="eJlHWw5guP0352"><g id="eJlHWw5guP0353"><g id="eJlHWw5guP0354"><g id="eJlHWw5guP0355" style="isolation:isolate" opacity="0.2"><path id="eJlHWw5guP0356" d="M61.79,25.73C61.79,25.73,78.91,13.53,89.29,14.94C99.67,16.35,106.69,22.83,105.14,33.18C104.23,35.57,103.85,41.12,103.85,41.12C103.85,41.12,100.16,41.25,96.23,35.39C92.3,29.53,89.23,42.04,86.93,44.71C84.63,47.38,69.76,37.45,65.28,31.71C60.8,25.97,61.79,25.73,61.79,25.73Z" fill="rgb(1,1,1)" stroke="none" stroke-width="1"/></g></g></g></g></g><clipPath id="eJlHWw5guP0357"><path id="eJlHWw5guP0358" d="M101.29,38.33C101.14,38.16,95.81,28.47,94.79,30.67C93.77,32.87,89.42,28.17,88.15,29.33C86.88,30.49,90.42,34.89,89.01,35.16C87.6,35.43,80.46,29.74,79.61,30.05C78.76,30.36,81.1,34.37,74.55,31.1C68,27.83,90.29,45.9,90.29,45.9Z" fill="none" stroke="none" stroke-width="1"/></clipPath></g><g id="eJlHWw5guP0359"><path id="eJlHWw5guP0360" d="M58.21,23.72C58.21,23.72,54.79,26.46,55.81,30.34C56.83,34.22,79.07,43.12,83.34,50.42C84.63,52.6,91.4,46.49,91.17,43.79C90.94,41.09,74.89,28.42,64.24,24.41C61.3,23.43,60,22.13,58.21,23.72Z" fill="rgb(255,255,255)" stroke="none" stroke-width="1"/></g><g id="eJlHWw5guP0361"><path id="eJlHWw5guP0362" d="M58.19,32.91C57.240804,32.337173,56.479627,31.49953,56,30.5C54.94,26.74,58.26,24,58.4,23.89L58.4,23.89C57.805296,25.096974,57.663365,26.477258,58,27.78C58.479966,28.779885,59.245546,29.615063,60.2,30.18C62.948841,32.096574,65.799703,33.862506,68.74,35.47L69.74,36.03C73.485364,38.111903,77.111054,40.402164,80.6,42.89C82.48448,44.170987,84.106893,45.800188,85.38,47.69C85.449784,47.791659,85.534001,47.882614,85.63,47.96C86.63,48.68,88.9,47.22,90.69,45.4C89.54,47.7,86.46,50.4,84.62,50.83C84.283517,50.932902,83.91899,50.885513,83.62,50.7C83.51974,50.623284,83.434912,50.528277,83.37,50.42C82.096893,48.530188,80.47448,46.900987,78.59,45.62C75.091998,43.132307,71.459849,40.838844,67.71,38.75L66.71,38.19L66.71,38.19C63.777666,36.583553,60.933583,34.821023,58.19,32.91Z" fill="rgb(245,245,245)" stroke="none" stroke-width="1"/></g><g id="eJlHWw5guP0363"><g id="eJlHWw5guP0364"><circle id="eJlHWw5guP0365" r="3.42" transform="matrix(1 0 0 1 64.24 25.2)" fill="rgb(230,43,35)" stroke="none" stroke-width="1"/></g><g id="eJlHWw5guP0366" style="isolation:isolate" opacity="0.1"><path id="eJlHWw5guP0367" d="M62.91,28.36C62.072202,28.007178,61.409344,27.335321,61.067849,26.492843C60.726355,25.650364,60.734325,24.706591,61.09,23.87L61.09,23.87C61.201602,23.603099,61.34605,23.351155,61.52,23.12C61.307093,24.658459,62.151463,26.148766,63.580575,26.756899C65.009687,27.365032,66.669036,26.940137,67.63,25.72C67.583975,26.001016,67.506834,26.27604,67.4,26.54C66.656802,28.276458,64.652514,29.088887,62.91,28.36Z" fill="rgb(1,1,1)" stroke="none" stroke-width="1"/></g></g><g id="eJlHWw5guP0368"><circle id="eJlHWw5guP0369" r="6.86" transform="matrix(1 0 0 1 103.27 41.73)" fill="rgb(255,255,255)" stroke="none" stroke-width="1"/></g><g id="eJlHWw5guP0370"><path id="eJlHWw5guP0371" d="M102,48.92C98.316457,48.062581,96.021738,44.385662,96.87,40.7C96.92995,40.417925,97.010158,40.14054,97.11,39.87C96.760873,43.306937,99.021959,46.46728,102.387557,47.246495C105.753156,48.025709,109.173107,46.18066,110.37,42.94C110.185737,44.752781,109.288864,46.418106,107.876699,47.569592C106.464535,48.721078,104.652768,49.264392,102.84,49.08L102.84,49.08C102.557431,49.04117,102.277057,48.987766,102,48.92Z" fill="rgb(245,245,245)" stroke="none" stroke-width="1"/></g></g></g><g id="eJlHWw5guP0372"><circle id="eJlHWw5guP0373" r="1.06" transform="matrix(1 0 0 1 58.94 83.43)" fill="rgb(255,255,255)" stroke="none" stroke-width="1"/></g><g id="eJlHWw5guP0374"><circle id="eJlHWw5guP0375" r="1.06" transform="matrix(1 0 0 1 58.94 87.66)" fill="rgb(255,255,255)" stroke="none" stroke-width="1"/></g><g id="eJlHWw5guP0376"><rect id="eJlHWw5guP0377" width="27" height="5.28" rx="1" ry="1" transform="matrix(1 0 0 1 45.96 89.92)" fill="rgb(255,255,255)" stroke="none" stroke-width="1"/></g><g id="eJlHWw5guP0378"><path id="eJlHWw5guP0379" d="M72,95.2L46.93,95.2C46.377715,95.2,45.93,94.752285,45.93,94.2L45.93,93.2C45.93,93.752285,46.377715,94.2,46.93,94.2L72,94.2C72.275947,94.200497,72.539835,94.086945,72.729195,93.886222C72.918556,93.6855,73.016557,93.41545,73,93.14L73,94.2C73,94.752285,72.552285,95.2,72,95.2Z" fill="rgb(245,245,245)" stroke="none" stroke-width="1"/></g><g id="eJlHWw5guP0380"><path id="eJlHWw5guP0381" d="M63.82,91.27L63.82,91.27C64.777432,91.27,65.695649,91.650338,66.372655,92.327345C67.049662,93.004351,67.43,93.922568,67.43,94.88L67.43,94.88C67.430008,96.875372,65.815364,98.494488,63.82,98.5L63.82,98.5C62.859916,98.5,61.939155,98.118608,61.260273,97.439727C60.581392,96.760845,60.2,95.840084,60.2,94.88L60.2,94.88C60.205512,92.884636,61.824628,91.269992,63.82,91.27Z" fill="rgb(0,0,0)" stroke="none" stroke-width="1"/></g><g id="eJlHWw5guP0382"><path id="eJlHWw5guP0383" d="M54.78,91.27L54.78,91.27C56.773748,91.27,58.39,92.886252,58.39,94.88L58.39,94.88C58.390008,96.875372,56.775364,98.494488,54.78,98.5L54.78,98.5C53.819916,98.5,52.899155,98.118608,52.220273,97.439727C51.541392,96.760845,51.16,95.840084,51.16,94.88L51.16,94.88C51.165512,92.884636,52.784628,91.269992,54.78,91.27Z" fill="rgb(0,0,0)" stroke="none" stroke-width="1"/></g><g id="eJlHWw5guP0384"><g id="eJlHWw5guP0385"><g id="eJlHWw5guP0386"><path id="eJlHWw5guP0387" d="M96.82,99.05C96.82,99.05,24.49,99.89,3.98,99.05C-0.13,98,6.16,92.52,15.91,92.21C25.66,91.9,29.11,95.08,32.91,94.73C36.71,94.38,40.07,93.73,48.01,93.34C55.95,92.95,60.23,96,68,96.3C75.77,96.6,77.51,92.39,83.17,92.2C88.83,92.01,95.28,95.3,96.79,96.78C98.3,98.26,96.82,99.05,96.82,99.05Z" fill="rgb(255,255,255)" stroke="none" stroke-width="1"/></g><g id="eJlHWw5guP0388" clip-path="url(#eJlHWw5guP0395)"><g id="eJlHWw5guP0389"><g id="eJlHWw5guP0390"><g id="eJlHWw5guP0391"><g id="eJlHWw5guP0392"><g id="eJlHWw5guP0393"><path id="eJlHWw5guP0394" d="M96.73,99C96.73,99,24.54,99.85,4.07,99C0,98,6.24,92.51,16,92.21C25.76,91.91,29.17,95.12,32.9,94.73C36.63,94.34,40,93.68,48,93.34C56,93,60.2,96,68,96.3C75.8,96.6,77.51,92.39,83.14,92.2C88.77,92.01,95.22,95.3,96.73,96.78C98.24,98.26,96.73,99,96.73,99Z" fill="rgb(245,245,245)" stroke="none" stroke-width="1"/></g></g></g></g></g><clipPath id="eJlHWw5guP0395"><path id="eJlHWw5guP0396" d="M3.93,93.81C5.818563,95.897562,8.625431,96.903231,11.41,96.49C15.63,96,21.16,95.66,24.69,96.49C28.22,97.32,37.3,97.91,40.63,97.26C43.96,96.61,58.93,98.32,63.33,98.14C67.73,97.96,82.21,97.37,85.59,97.26C88.97,97.15,93.8,97.83,96.39,95.26C98.98,92.69,98.64,99.49,98.64,99.49L1.29,99.49L2.09,93.76Z" fill="none" stroke="none" stroke-width="1"/></clipPath></g></g></g><g id="eJlHWw5guP0397"><circle id="eJlHWw5guP0398" r="2.71" transform="matrix(1 0 0 1 71.81 80.75)" fill="rgb(253,223,188)" stroke="none" stroke-width="1"/></g><g id="eJlHWw5guP0399"><g id="eJlHWw5guP0400"><path id="eJlHWw5guP0401" d="M70.32,79.17C70.32,79.17,66.32,79.95,65.71,81.17C65.1,82.39,66.61,82.74,66.71,83.3C66.81,83.86,66.38,84.58,67.26,85.3C68.14,86.02,68.97,85.93,69.26,86.38C69.55,86.83,71.03,87.53,71.48,86.56C71.93,85.59,71.59,82.5,72.15,81.41C72.37,81.07,73.09,79.97,70.96,79.11C70.744847,79.082871,70.526361,79.103354,70.32,79.17Z" fill="rgb(235,160,95)" stroke="none" stroke-width="1"/></g></g></g></svg>