<svg id="ealld7u5h6k71" xmlns="http://www.w3.org/2000/svg" xmlns:xlink="http://www.w3.org/1999/xlink" viewBox="0 0 110 100" shape-rendering="geometricPrecision" text-rendering="geometricPrecision"><style><![CDATA[#ealld7u5h6k718_tr {animation: ealld7u5h6k718_tr__tr 3000ms linear infinite normal forwards}@keyframes ealld7u5h6k718_tr__tr { 0% {transform: translate(27.041270px,68.281037px) rotate(0deg)} 6.666667% {transform: translate(27.041270px,68.281037px) rotate(0deg);animation-timing-function: cubic-bezier(0,0,0.580000,1)} 23.333333% {transform: translate(27.041270px,68.281037px) rotate(-4deg)} 43.333333% {transform: translate(27.041270px,68.281037px) rotate(4deg);animation-timing-function: cubic-bezier(0.420000,0,1,1)} 60% {transform: translate(27.041270px,68.281037px) rotate(0deg)} 100% {transform: translate(27.041270px,68.281037px) rotate(0deg)} }#ealld7u5h6k750_tr {animation: ealld7u5h6k750_tr__tr 3000ms linear infinite normal forwards}@keyframes ealld7u5h6k750_tr__tr { 0% {transform: translate(19.163333px,81.760000px) rotate(0deg)} 3.333333% {transform: translate(19.163333px,81.760000px) rotate(0deg);animation-timing-function: cubic-bezier(0.420000,0,1,1)} 16.666667% {transform: translate(19.163333px,81.760000px) rotate(-11.597414deg)} 33.333333% {transform: translate(19.163333px,81.760000px) rotate(12.028733deg)} 50% {transform: translate(19.163333px,81.760000px) rotate(-11.597414deg)} 66.666667% {transform: translate(19.163333px,81.760000px) rotate(0deg)} 100% {transform: translate(19.163333px,81.760000px) rotate(0deg)} }#ealld7u5h6k788_tr {animation: ealld7u5h6k788_tr__tr 3000ms linear infinite normal forwards}@keyframes ealld7u5h6k788_tr__tr { 0% {transform: translate(78.101486px,82.704242px) rotate(0deg)} 6.666667% {transform: translate(78.101486px,82.704242px) rotate(0deg)} 23.333333% {transform: translate(78.101486px,82.704242px) rotate(3deg)} 43.333333% {transform: translate(78.101486px,82.704242px) rotate(-4deg)} 60% {transform: translate(78.101486px,82.704242px) rotate(0deg)} 100% {transform: translate(78.101486px,82.704242px) rotate(0deg)} }#ealld7u5h6k7128_tr {animation: ealld7u5h6k7128_tr__tr 3000ms linear infinite normal forwards}@keyframes ealld7u5h6k7128_tr__tr { 0% {transform: translate(78.101486px,69.030613px) rotate(0deg)} 6.666667% {transform: translate(78.101486px,69.030613px) rotate(0deg)} 23.333333% {transform: translate(78.101486px,69.030613px) rotate(4deg)} 43.333333% {transform: translate(78.101486px,69.030613px) rotate(-5deg)} 60% {transform: translate(78.101486px,69.030613px) rotate(0deg)} 100% {transform: translate(78.101486px,69.030613px) rotate(0deg)} }#ealld7u5h6k7174_to {animation: ealld7u5h6k7174_to__to 3000ms linear infinite normal forwards}@keyframes ealld7u5h6k7174_to__to { 0% {transform: translate(78.101486px,23.770000px)} 6.666667% {transform: translate(78.101486px,23.770000px)} 23.333333% {transform: translate(81.101486px,23.770000px)} 43.333333% {transform: translate(73.101486px,23.770000px)} 60% {transform: translate(78.101486px,23.770000px)} 100% {transform: translate(78.101486px,23.770000px)} }#ealld7u5h6k7174_tr {animation: ealld7u5h6k7174_tr__tr 3000ms linear infinite normal forwards}@keyframes ealld7u5h6k7174_tr__tr { 0% {transform: rotate(0deg)} 6.666667% {transform: rotate(0deg)} 23.333333% {transform: rotate(6.575244deg)} 43.333333% {transform: rotate(-6deg)} 60% {transform: rotate(0deg)} 100% {transform: rotate(0deg)} }#ealld7u5h6k7206_to {animation: ealld7u5h6k7206_to__to 3000ms linear infinite normal forwards}@keyframes ealld7u5h6k7206_to__to { 0% {transform: translate(57.175709px,77.448111px)} 10% {transform: translate(57.175709px,77.448111px);animation-timing-function: cubic-bezier(0,0,0.580000,1)} 26.666667% {transform: translate(57.175709px,54.448111px);animation-timing-function: cubic-bezier(0.420000,0,1,1)} 43.333333% {transform: translate(57.175709px,77.448111px)} 100% {transform: translate(57.175709px,77.448111px)} }#ealld7u5h6k7206_tr {animation: ealld7u5h6k7206_tr__tr 3000ms linear infinite normal forwards}@keyframes ealld7u5h6k7206_tr__tr { 0% {transform: rotate(0deg)} 10% {transform: rotate(0deg);animation-timing-function: cubic-bezier(0.420000,0,0.580000,1)} 43.333333% {transform: rotate(360deg)} 100% {transform: rotate(360deg)} }#ealld7u5h6k7222_to {animation: ealld7u5h6k7222_to__to 3000ms linear infinite normal forwards}@keyframes ealld7u5h6k7222_to__to { 0% {transform: translate(27.841809px,62.222406px)} 6.666667% {transform: translate(27.841809px,62.222406px);animation-timing-function: cubic-bezier(0,0,0.580000,1)} 23.333333% {transform: translate(27.527104px,62.222406px)} 43.333333% {transform: translate(28.841809px,62.222406px);animation-timing-function: cubic-bezier(0.420000,0,1,1)} 60% {transform: translate(27.841809px,62.222406px)} 100% {transform: translate(27.841809px,62.222406px)} }#ealld7u5h6k7222_tr {animation: ealld7u5h6k7222_tr__tr 3000ms linear infinite normal forwards}@keyframes ealld7u5h6k7222_tr__tr { 0% {transform: rotate(0deg)} 6.666667% {transform: rotate(0deg)} 23.333333% {transform: rotate(-5deg)} 43.333333% {transform: rotate(4deg)} 60% {transform: rotate(0deg)} 100% {transform: rotate(0deg)} }#ealld7u5h6k7228_to {animation: ealld7u5h6k7228_to__to 3000ms linear infinite normal forwards}@keyframes ealld7u5h6k7228_to__to { 0% {transform: translate(18.685006px,17.785700px)} 3.333333% {transform: translate(18.685006px,17.785700px)} 30% {transform: translate(30.685006px,17.785700px)} 63.333333% {transform: translate(18.685006px,17.785700px)} 100% {transform: translate(18.685006px,17.785700px)} }]]></style><defs><linearGradient id="ealld7u5h6k7186-fill" x1="28.114400" y1="62.627500" x2="28.114400" y2="89.077500" spreadMethod="pad" gradientUnits="userSpaceOnUse"><stop id="ealld7u5h6k7186-fill-0" offset="0%" stop-color="rgb(243,213,149)"/><stop id="ealld7u5h6k7186-fill-1" offset="100%" stop-color="rgb(243,194,137)"/></linearGradient><linearGradient id="ealld7u5h6k7204-fill" x1="-2.799400" y1="-2.396200" x2="2.130600" y2="3.393800" spreadMethod="pad" gradientUnits="userSpaceOnUse"><stop id="ealld7u5h6k7204-fill-0" offset="0%" stop-color="rgb(116,131,74)"/><stop id="ealld7u5h6k7204-fill-1" offset="100%" stop-color="rgb(95,112,47)"/></linearGradient><linearGradient id="ealld7u5h6k7205-fill" x1="0.006000" y1="-1.434000" x2="0.006000" y2="2.266000" spreadMethod="pad" gradientUnits="userSpaceOnUse"><stop id="ealld7u5h6k7205-fill-0" offset="0%" stop-color="rgb(171,207,89)"/><stop id="ealld7u5h6k7205-fill-1" offset="100%" stop-color="rgb(143,155,110)"/></linearGradient><linearGradient id="ealld7u5h6k7208-fill" x1="57.180000" y1="59.095700" x2="57.180000" y2="95.965700" spreadMethod="pad" gradientUnits="userSpaceOnUse"><stop id="ealld7u5h6k7208-fill-0" offset="0%" stop-color="rgb(175,205,116)"/><stop id="ealld7u5h6k7208-fill-1" offset="100%" stop-color="rgb(129,170,99)"/></linearGradient><linearGradient id="ealld7u5h6k7209-fill" x1="75.043500" y1="74.564300" x2="53.665000" y2="72.090400" spreadMethod="pad" gradientUnits="userSpaceOnUse"><stop id="ealld7u5h6k7209-fill-0" offset="0%" stop-color="rgb(175,205,116)"/><stop id="ealld7u5h6k7209-fill-1" offset="100%" stop-color="rgb(129,170,99)"/></linearGradient><linearGradient id="ealld7u5h6k7213-fill" x1="42.425600" y1="80.148200" x2="68.085600" y2="80.148200" spreadMethod="pad" gradientUnits="userSpaceOnUse"><stop id="ealld7u5h6k7213-fill-0" offset="0%" stop-color="rgb(175,205,116)"/><stop id="ealld7u5h6k7213-fill-1" offset="100%" stop-color="rgb(129,170,99)"/></linearGradient></defs><g id="ealld7u5h6k72"><rect id="ealld7u5h6k73" width="110" height="100" rx="0" ry="0" fill="none" stroke="none" stroke-width="1"/><g id="ealld7u5h6k74"><g id="ealld7u5h6k75"><path id="ealld7u5h6k76" d="M37,76.730000C48.350000,76.910000,60,80.070000,71.110000,81.090000C82.500000,82.090000,81,74.810000,100.950000,79.710000C99.950000,80.080000,107.950000,84.060000,107.170000,85.060000C99.700000,94.620000,81.700000,98.490000,69.790000,99.430000C55.440000,100.560000,40.840000,97.220000,26.840000,95.500000C18.840000,94.500000,12.130000,93.360000,2.430000,95.500000C5.370000,90.500000,10.930000,83.890000,16.430000,81.070000C23.060000,77.660000,30,76.620000,37,76.730000Z" fill="rgb(171,206,103)" stroke="none" stroke-width="1"/><path id="ealld7u5h6k77" d="M11.360000,90.180000C12.850006,88.496297,14.619278,87.082232,16.590000,86C22.320000,82.800000,29.160000,82.110000,35.700000,82.620000C42.240000,83.130000,48.640000,84.760000,55.100000,85.910000C61.560000,87.060000,68.240000,87.750000,74.660000,86.370000" fill="none" stroke="rgb(110,155,75)" stroke-width="1.020000" stroke-miterlimit="10"/><path id="ealld7u5h6k78" d="M34.080000,87.300000C48,90.190000,62.410000,93,76.330000,90.050000C81.886354,88.891382,87.220819,86.848755,92.130000,84" fill="none" stroke="rgb(110,155,75)" stroke-width="1.220000" stroke-miterlimit="10"/></g></g><g id="ealld7u5h6k79"><g id="ealld7u5h6k710"><g id="ealld7u5h6k711"><g id="ealld7u5h6k712"><g id="ealld7u5h6k713"><g id="ealld7u5h6k714"><path id="ealld7u5h6k715" d="M16.580000,64.390000L14.910000,72.600000C14.910000,72.600000,13,86.270000,20.550000,87C23.020000,87.220000,25.450000,86.210000,28.340000,86.060000C32.960000,85.810000,34.220000,87.400000,37.720000,86.060000C41.220000,84.720000,41.290000,77.640000,40.860000,72C40.770000,70.270000,37.860000,63.290000,37.860000,63.290000Z" fill="rgb(231,131,109)" stroke="none" stroke-width="1"/></g><g id="ealld7u5h6k716" opacity="0.1"><path id="ealld7u5h6k717" d="M21.300000,87.050000L21.300000,87.050000C21.050000,87.050000,20.790000,87.050000,20.560000,87.050000C18.769895,86.890857,17.183659,85.832110,16.350000,84.240000C16.973284,84.559851,17.652298,84.756765,18.350000,84.820000C18.590000,84.820000,18.820000,84.820000,19.080000,84.820000C20.269164,84.778657,21.451446,84.621243,22.610000,84.350000C23.773661,84.099707,24.953081,83.929309,26.140000,83.840000L27.140000,83.840000C28.223130,83.850117,29.303534,83.950464,30.370000,84.140000L30.670000,84.140000C31.401203,84.288487,32.144086,84.372145,32.890000,84.390000C33.807691,84.382763,34.716193,84.206486,35.570000,83.870000C37.130000,83.290000,38.160000,81.460000,38.570000,78.440000C38.918222,75.552174,38.951752,72.635067,38.670000,69.740000C38.184460,67.541403,37.487899,65.394789,36.590000,63.330000L37.890000,63.260000L37.890000,63.260000C38.190000,63.980000,40.800000,70.340000,40.890000,71.950000C41.180124,74.844481,41.149941,77.762140,40.800000,80.650000C40.340000,83.650000,39.320000,85.500000,37.750000,86.080000C36.898271,86.411652,35.993940,86.587777,35.080000,86.600000C34.330820,86.581549,33.584668,86.497900,32.850000,86.350000L32.550000,86.350000C31.481068,86.147076,30.397608,86.030036,29.310000,86C29,86,28.670000,86,28.310000,86C27.119241,86.084372,25.936150,86.254817,24.770000,86.510000C23.632484,86.796736,22.470857,86.977508,21.300000,87.050000Z" fill="rgb(0,0,0)" stroke="none" stroke-width="1"/></g></g></g></g><g id="ealld7u5h6k718_tr" transform="translate(27.041270,68.281037) rotate(0)"><g id="ealld7u5h6k718" transform="translate(-27.041270,-68.281037)"><g id="ealld7u5h6k719"><path id="ealld7u5h6k720" d="M10.530000,54.090000C10.530000,53.260000,13.420000,46.590000,18.390000,44.090000C21.590000,42.510000,26.390000,40.370000,32.930000,42.530000C45.310000,46.640000,43.530000,52.660000,43.530000,52.660000C43.530000,52.660000,43.850000,59.170000,46.480000,60.660000C46.670000,61.010000,44.330000,62.190000,43.540000,61.930000C44.314894,62.219609,45.119984,62.420881,45.940000,62.530000C46.760016,62.639119,36.940000,69.960000,27.170000,69.870000C17.400000,69.780000,11.550000,66.270000,10.530000,65.550000C11.186021,65.288677,11.821191,64.977778,12.430000,64.620000C12.620000,64.520000,9.080000,64.140000,7.630000,62.550000C7.150000,62.070000,11.340000,59.420000,10.800000,56.550000C10.579829,55.749561,10.488685,54.919138,10.530000,54.090000Z" fill="rgb(231,131,109)" stroke="none" stroke-width="1"/></g><g id="ealld7u5h6k721"><g id="ealld7u5h6k722"><path id="ealld7u5h6k723" d="M16.540000,46.130000C16.370000,43.860000,10.540000,43.340000,8.060000,44.420000C6.710984,45.070252,5.183009,45.249806,3.720000,44.930000C2.256991,44.610194,8.400000,52.320000,11.810000,52.170000C15.220000,52.020000,16.700000,48.400000,16.540000,46.130000Z" fill="rgb(231,131,109)" stroke="none" stroke-width="1"/></g><g id="ealld7u5h6k724"><path id="ealld7u5h6k725" d="M5.790000,46C4.790000,45.110000,8.290000,49.660000,10.850000,50.640000C11.330000,51.080000,13.140000,47.640000,13.140000,46.820000C13.140000,46,6.840000,46.880000,5.790000,46Z" fill="rgb(255,203,142)" stroke="none" stroke-width="1"/></g><g id="ealld7u5h6k726"><path id="ealld7u5h6k727" d="M37.070000,46.690000C37.360000,44.430000,43.070000,43.690000,45.390000,44.970000C46.775428,45.752609,48.338815,46.165839,49.930000,46.170000C51.521185,46.174161,44.930000,53.300000,41.480000,52.970000C40.190000,48.590000,40.410000,49.450000,37.070000,46.690000Z" fill="rgb(231,131,109)" stroke="none" stroke-width="1"/></g><g id="ealld7u5h6k728"><path id="ealld7u5h6k729" d="M48.690000,47C49.780000,46.160000,45.990000,50.520000,43.390000,51.360000C42.880000,51.770000,41.260000,48.220000,41.300000,47.430000C41.340000,46.640000,47.590000,47.810000,48.690000,47Z" fill="rgb(255,203,142)" stroke="none" stroke-width="1"/></g></g><g id="ealld7u5h6k730"><path id="ealld7u5h6k731" d="M27.290000,51.590000C33.140000,51.280000,38.050000,55.280000,38.290000,59.320000C38.530000,63.360000,33.930000,66.880000,28.080000,67.190000C22.230000,67.500000,17.320000,64.470000,17.080000,60.430000C16.840000,56.390000,21.440000,51.890000,27.290000,51.590000Z" fill="rgb(163,216,242)" stroke="none" stroke-width="1"/></g><g id="ealld7u5h6k732"><g id="ealld7u5h6k733"><g id="ealld7u5h6k734"><circle id="ealld7u5h6k735" r="1.290000" transform="matrix(1 0 0 1 20.12000000000000 58.44300218999999)" fill="rgb(76,84,90)" stroke="none" stroke-width="1"/></g></g><g id="ealld7u5h6k736"><g id="ealld7u5h6k737"><circle id="ealld7u5h6k738" r="1.290000" transform="matrix(1 0 0 1 34.98000000000000 58.40000000000000)" fill="rgb(76,84,90)" stroke="none" stroke-width="1"/></g></g><g id="ealld7u5h6k739"><path id="ealld7u5h6k740" d="M10.150000,67.220000C9.392887,67.255596,8.659436,66.951214,8.150000,66.390000C8.038302,66.237888,8.021765,66.035845,8.107241,65.867595C8.192718,65.699344,8.365644,65.593554,8.554361,65.594063C8.743078,65.594571,8.915431,65.701291,9,65.870000C9.402858,66.148469,9.893887,66.269447,10.380000,66.210000C11.241323,66.072930,11.968951,65.496890,12.300000,64.690000C13.880000,61.690000,17.580000,61.970000,17.740000,61.980000C18.016142,62.002091,18.222091,62.243858,18.200000,62.520000C18.177909,62.796142,17.936142,63.002091,17.660000,62.980000C17.383858,62.957909,14.450000,62.760000,13.180000,65.160000C12.682782,66.350242,11.548064,67.150763,10.260000,67.220000Z" fill="rgb(255,194,124)" stroke="none" stroke-width="1"/></g><g id="ealld7u5h6k741"><path id="ealld7u5h6k742" d="M45.880000,63.870000C44.679277,63.832959,43.586026,63.168657,43,62.120000C41.480000,59.860000,38.340000,60.410000,38.310000,60.410000C38.179485,60.439229,38.042693,60.412678,37.932590,60.336744C37.822487,60.260811,37.749058,60.142383,37.730000,60.010000C37.681341,59.739606,37.859963,59.480604,38.130000,59.430000C38.290000,59.430000,41.940000,58.750000,43.830000,61.560000C44.242296,62.325039,45.022314,62.821070,45.890000,62.870000L45.890000,62.870000C46.386463,62.876683,46.867664,62.698460,47.240000,62.370000C47.296149,62.251174,47.397678,62.159884,47.521782,62.116636C47.645887,62.073387,47.782162,62.081806,47.900000,62.140000C48.019518,62.198165,48.110958,62.301525,48.154115,62.427244C48.197272,62.552963,48.188595,62.690692,48.130000,62.810000C47.651844,63.432259,46.914700,63.800830,46.130000,63.810000Z" fill="rgb(255,194,124)" stroke="none" stroke-width="1"/></g><g id="ealld7u5h6k743"><path id="ealld7u5h6k744" d="M21.170000,46.230000C21.170000,46.230000,16.100000,41.560000,16.170000,36.580000C16.240000,31.600000,13.370000,36.230000,13.310000,37.230000C13.250000,38.230000,13.480000,42.100000,14.570000,42.890000C13.526437,41.969850,12.386484,41.165178,11.170000,40.490000C10.460000,40.330000,8.930000,41.600000,10.330000,42.570000L10.570000,42.730000C13.040000,45.240000,18.820000,47.640000,18.820000,47.640000C19.325925,47.707166,19.839336,47.593861,20.270000,47.320000C20.721053,47.113613,21.052695,46.711958,21.170000,46.230000Z" fill="rgb(255,203,142)" stroke="none" stroke-width="1"/></g><g id="ealld7u5h6k745"><path id="ealld7u5h6k746" d="M34.240000,46.230000C34.240000,46.230000,39.320000,41.560000,39.240000,36.580000C39.160000,31.600000,42.040000,36.230000,42.100000,37.230000C42.160000,38.230000,42,42.100000,40.860000,42.890000C41.908838,41.971969,43.051867,41.167491,44.270000,40.490000C44.970000,40.330000,46.510000,41.600000,45.110000,42.570000L44.870000,42.730000C42.390000,45.240000,36.610000,47.640000,36.610000,47.640000C36.104112,47.706301,35.590994,47.593061,35.160000,47.320000C34.701276,47.118485,34.361608,46.716053,34.240000,46.230000Z" fill="rgb(255,203,142)" stroke="none" stroke-width="1"/></g></g></g></g><g id="ealld7u5h6k747"><path id="ealld7u5h6k748" d="M27.580000,69.860000C31.670000,69.640000,35.210000,73.630000,35.480000,78.760000C35.750000,83.890000,32.480000,84.710000,28.370000,84.920000C24.260000,85.130000,20.920000,84.670000,20.650000,79.530000C20.380000,74.390000,23.490000,70.070000,27.580000,69.860000Z" fill="rgb(255,255,255)" stroke="none" stroke-width="1"/></g></g><g id="ealld7u5h6k749"><g id="ealld7u5h6k750_tr" transform="translate(19.163333,81.760000) rotate(0)"><g id="ealld7u5h6k750" transform="translate(-19.163333,-81.760000)"><g id="ealld7u5h6k751"><path id="ealld7u5h6k752" d="M8.840000,76.780000C7.630000,77.430000,4.190000,77.700000,3.560000,74.780000C3.256571,73.271292,2.852331,71.784625,2.350000,70.330000C1.847669,68.875375,6.890000,71.400000,7.080000,72.230000C7.720000,70.760000,7.850000,71.230000,8.220000,70.230000C9.209825,71.152628,9.840513,72.396289,10,73.740000C10.361796,74.899624,9.882329,76.156161,8.840000,76.780000Z" fill="rgb(255,194,124)" stroke="none" stroke-width="1"/></g><g id="ealld7u5h6k753"><path id="ealld7u5h6k754" d="M18.430000,79C15.550000,80.360000,9.580000,78.410000,7.330000,75.270000C5.080000,72.130000,8.680000,80.720000,12.480000,82.430000C16.280000,84.140000,18.430000,83.660000,18.430000,83.660000C18.430000,83.660000,20.080000,81.900000,18.430000,79Z" fill="rgb(231,131,109)" stroke="none" stroke-width="1"/></g><g id="ealld7u5h6k755"><path id="ealld7u5h6k756" d="M17.630000,83.740000L17.630000,83.740000C15.838143,83.679632,14.079459,83.239960,12.470000,82.450000C9.620000,81.160000,6.920000,76,6.660000,74.860000C7.520000,76.570000,10.130000,80.410000,12.660000,81.360000C14.155948,81.966223,15.746832,82.304709,17.360000,82.360000C17.807021,82.372318,18.253826,82.328645,18.690000,82.230000C18.882527,81.963370,19.027963,81.665733,19.120000,81.350000C19.180010,82.209462,18.919994,83.060748,18.390000,83.740000C18.137175,83.762696,17.882825,83.762696,17.630000,83.740000Z" fill="rgb(255,194,124)" stroke="none" stroke-width="1"/></g></g></g></g><g id="ealld7u5h6k757" clip-path="url(#ealld7u5h6k769)"><g id="ealld7u5h6k758"><g id="ealld7u5h6k759"><g id="ealld7u5h6k760" opacity="0.04"><g id="ealld7u5h6k761"><path id="ealld7u5h6k762" d="M39.230000,47.660000C36.797010,47.045780,34.765389,45.377211,33.690000,43.110000L34.590000,42.680000C35.545989,44.672661,37.337372,46.138005,39.480000,46.680000Z" fill="rgb(0,0,0)" stroke="none" stroke-width="1"/></g><g id="ealld7u5h6k763"><path id="ealld7u5h6k764" d="M43.280000,45.610000C40.368057,45.616155,37.649372,44.153404,36.050000,41.720000L36.890000,41.170000C38.318903,43.334757,40.746245,44.629340,43.340000,44.610000L43.340000,45.610000Z" fill="rgb(0,0,0)" stroke="none" stroke-width="1"/></g><g id="ealld7u5h6k765"><path id="ealld7u5h6k766" d="M45.910000,43.340000C42.737973,43.283387,39.742070,41.870981,37.680000,39.460000L38.470000,38.840000C41.200000,42.300000,45.790000,42.340000,45.920000,42.340000L45.920000,42.340000L45.920000,43.340000Z" fill="rgb(0,0,0)" stroke="none" stroke-width="1"/></g><g id="ealld7u5h6k767"><path id="ealld7u5h6k768" d="M43.130000,38.280000C41.110249,38.334868,39.158314,37.549024,37.740000,36.110000L38.460000,35.420000C40.960000,38.030000,44.690000,37.130000,44.730000,37.120000L44.980000,38.120000C44.370383,38.236137,43.750504,38.289748,43.130000,38.280000Z" fill="rgb(0,0,0)" stroke="none" stroke-width="1"/></g></g></g></g><clipPath id="ealld7u5h6k769"><path id="ealld7u5h6k770" d="M34.240000,46.220000C34.240000,46.220000,39.320000,41.560000,39.240000,36.580000C39.160000,31.600000,42.040000,36.230000,42.100000,37.230000C42.160000,38.230000,42,42.100000,40.860000,42.890000C41.908838,41.971969,43.051867,41.167491,44.270000,40.490000C44.970000,40.330000,46.510000,41.600000,45.110000,42.570000L44.870000,42.730000C42.390000,45.230000,36.610000,47.640000,36.610000,47.640000C36.104342,47.701296,35.592893,47.588424,35.160000,47.320000C34.698909,47.116419,34.358846,46.709822,34.240000,46.220000Z" fill="none" stroke="none" stroke-width="1"/></clipPath></g><g id="ealld7u5h6k771" clip-path="url(#ealld7u5h6k783)"><g id="ealld7u5h6k772"><g id="ealld7u5h6k773"><g id="ealld7u5h6k774" opacity="0.04"><g id="ealld7u5h6k775"><path id="ealld7u5h6k776" d="M16.230000,47.680000C18.665620,47.064863,20.698091,45.391926,21.770000,43.120000L20.870000,42.690000C19.917384,44.685311,18.124556,46.151837,15.980000,46.690000Z" fill="rgb(0,0,0)" stroke="none" stroke-width="1"/></g><g id="ealld7u5h6k777"><path id="ealld7u5h6k778" d="M12.180000,45.630000C15.094320,45.635776,17.814227,44.168606,19.410000,41.730000L18.570000,41.180000C17.142143,43.347167,14.715218,44.645290,12.120000,44.630000L12.120000,45.630000Z" fill="rgb(0,0,0)" stroke="none" stroke-width="1"/></g><g id="ealld7u5h6k779"><path id="ealld7u5h6k780" d="M9.550000,43.350000C12.721038,43.298468,15.717682,41.889354,17.780000,39.480000L17,38.860000C14.270000,42.320000,9.680000,42.350000,9.550000,42.350000L9.550000,42.350000L9.550000,43.350000Z" fill="rgb(0,0,0)" stroke="none" stroke-width="1"/></g><g id="ealld7u5h6k781"><path id="ealld7u5h6k782" d="M12.330000,38.300000C14.351021,38.351037,16.302709,37.561672,17.720000,36.120000L17,35.430000C14.500000,38.040000,10.770000,37.140000,10.730000,37.130000L10.480000,38.130000C11.087876,38.258955,11.708803,38.316013,12.330000,38.300000Z" fill="rgb(0,0,0)" stroke="none" stroke-width="1"/></g></g></g></g><clipPath id="ealld7u5h6k783"><path id="ealld7u5h6k784" d="M21.220000,46.240000C21.220000,46.240000,16.140000,41.570000,16.220000,36.590000C16.300000,31.610000,13.420000,36.240000,13.360000,37.240000C13.300000,38.240000,13.540000,42.120000,14.630000,42.900000C13.580915,41.985159,12.437870,41.184022,11.220000,40.510000C10.520000,40.340000,8.980000,41.610000,10.380000,42.590000L10.620000,42.750000C13.100000,45.250000,18.880000,47.660000,18.880000,47.660000C19.386765,47.717519,19.898037,47.601160,20.330000,47.330000C20.779095,47.123629,21.107608,46.721293,21.220000,46.240000Z" fill="none" stroke="none" stroke-width="1"/></clipPath></g></g><g id="ealld7u5h6k785"><g id="ealld7u5h6k786"><g id="ealld7u5h6k787"><g id="ealld7u5h6k788_tr" transform="translate(78.101486,82.704242) rotate(0)"><g id="ealld7u5h6k788" transform="translate(-78.101486,-82.704242)"><g id="ealld7u5h6k789"><g id="ealld7u5h6k790"><g id="ealld7u5h6k791"><path id="ealld7u5h6k792" d="M52.740000,26.700000C49.380000,33.600000,47.740000,45.440000,49.490000,54.100000C51.420000,63.540000,46.240000,66.250000,47.550000,72.590000C49.360000,78.140000,54.170000,82.120000,62.110000,82.590000C70.050000,83.060000,81.780000,81.780000,91.300000,84C100.820000,86.220000,108.680000,79.790000,109.400000,74.480000C110.120000,69.170000,107.330000,69.300000,106.400000,61.340000C105.980000,57.480000,106.930000,46.280000,107.230000,41.420000C107.509117,37.502474,106.761143,33.579920,105.060000,30.040000C103,25.440000,98.310000,16.530000,87.600000,13.420000C74.330000,8.860000,59,13.800000,52.740000,26.700000Z" fill="rgb(76,84,90)" stroke="none" stroke-width="1"/></g></g></g><g id="ealld7u5h6k793" clip-path="url(#ealld7u5h6k7103)"><g id="ealld7u5h6k794"><g id="ealld7u5h6k795"><g id="ealld7u5h6k796"><g id="ealld7u5h6k797"><g id="ealld7u5h6k798" opacity="0.2"><g id="ealld7u5h6k799"><g id="ealld7u5h6k7100"><g id="ealld7u5h6k7101"><path id="ealld7u5h6k7102" d="M58.530000,45.300000C58.530000,45.300000,59.160000,59.440000,56.210000,66.570000C53.260000,73.700000,52.270000,79.640000,64.210000,84.360000C76.150000,89.080000,94.450000,87,97,85.860000C99.550000,84.720000,107,77.710000,101.320000,70.150000C95.640000,62.590000,98.320000,47.080000,98.320000,47.080000Z" fill="rgb(0,0,0)" stroke="none" stroke-width="1"/></g></g></g></g></g></g></g></g><clipPath id="ealld7u5h6k7103"><path id="ealld7u5h6k7104" d="M52.740000,26.700000C49.380000,33.610000,47.740000,45.440000,49.490000,54.100000C51.420000,63.540000,46.240000,66.260000,47.550000,72.590000C49.360000,78.140000,54.170000,82.120000,62.110000,82.590000C70.050000,83.060000,81.780000,81.780000,91.300000,84C100.820000,86.220000,108.680000,79.790000,109.400000,74.480000C110.120000,69.170000,107.330000,69.300000,106.400000,61.340000C105.690000,54.840000,106.980000,43.240000,107.220000,38.340000C107.460000,33.440000,101.960000,17.340000,87.850000,13.220000C74.610000,8.680000,59,13.800000,52.740000,26.700000Z" fill="none" stroke="none" stroke-width="1"/></clipPath></g></g></g><g id="ealld7u5h6k7105"><g id="ealld7u5h6k7106"><g id="ealld7u5h6k7107"><path id="ealld7u5h6k7108" d="M91.900000,74.750000L94.190000,73.500000L94.190000,73.500000L96.840000,78.500000C97.527634,79.746031,97.081074,81.313458,95.840000,82.010000L95.840000,82.010000C94.590334,82.692727,93.024072,82.247766,92.320000,81.010000L90.850000,78.220000C90.180196,76.957912,90.658977,75.391807,91.920000,74.720000Z" fill="rgb(253,223,188)" stroke="none" stroke-width="1"/></g></g><g id="ealld7u5h6k7109"><g id="ealld7u5h6k7110"><path id="ealld7u5h6k7111" d="M90.610000,64.500000C90.610000,64.500000,99.210000,75.630000,98.610000,76.860000C98.010000,78.090000,94.610000,78.530000,90.610000,82.260000C86.610000,85.990000,87.610000,65.020000,88.610000,64.510000C89.234442,64.177914,89.982268,64.174175,90.610000,64.500000Z" fill="rgb(248,242,230)" stroke="none" stroke-width="1"/></g></g></g><g id="ealld7u5h6k7112"><g id="ealld7u5h6k7113"><path id="ealld7u5h6k7114" d="M65.770000,74.750000L63.470000,73.500000L63.470000,73.500000L60.830000,78.500000C60.142366,79.746031,60.588926,81.313458,61.830000,82.010000L61.830000,82.010000C63.076031,82.697634,64.643458,82.251074,65.340000,81.010000L66.820000,78.220000C67.478098,76.956812,67.001933,75.399264,65.750000,74.720000Z" fill="rgb(253,223,188)" stroke="none" stroke-width="1"/></g></g><g id="ealld7u5h6k7115"><g id="ealld7u5h6k7116"><g id="ealld7u5h6k7117"><path id="ealld7u5h6k7118" d="M69.890000,63.930000L87.570000,63.930000C89.180177,63.826936,90.572559,65.040808,90.690000,66.650000L92.770000,82.940000C92.770000,83.600000,94.370000,87.370000,94.960000,89.800000C95.550000,92.230000,93.210000,91.960000,89.750000,92.800000C86.290000,93.640000,88.890000,94.140000,80,94C71.110000,93.860000,63.390000,94.170000,63.180000,91C63,88.770000,64.740000,83.550000,64.700000,83L66.770000,66.710000C66.821324,65.936744,67.177925,65.215605,67.761256,64.705425C68.344587,64.195245,69.106798,63.937873,69.880000,63.990000Z" fill="rgb(248,242,230)" stroke="none" stroke-width="1"/></g></g></g><g id="ealld7u5h6k7119"><g id="ealld7u5h6k7120"><path id="ealld7u5h6k7121" d="M77.360000,75.820000C76,73.490000,70.070000,68.240000,67.900000,66.420000L69.830000,64.120000C70.670000,64.830000,78.090000,71.120000,79.950000,74.310000Z" fill="rgb(140,104,108)" stroke="none" stroke-width="1"/></g><g id="ealld7u5h6k7122"><path id="ealld7u5h6k7123" d="M73.670000,82.190000L71.140000,80.580000C73.620000,76.690000,85.080000,65.360000,85.570000,64.880000L87.670000,67C87.560000,67.130000,76,78.590000,73.670000,82.190000Z" fill="rgb(140,104,108)" stroke="none" stroke-width="1"/></g></g><g id="ealld7u5h6k7124"><g id="ealld7u5h6k7125"><g id="ealld7u5h6k7126"><path id="ealld7u5h6k7127" d="M66.550000,64.550000C66.550000,64.550000,59.890000,72.880000,58.850000,76.770000C58.848802,77.571447,59.246095,78.321057,59.910000,78.770000C61.010000,79.770000,64.280000,80.600000,65.440000,87.620000C66.910000,96.620000,69.840000,65.080000,68.790000,64.560000C68.074808,64.256792,67.267870,64.253189,66.550000,64.550000Z" fill="rgb(248,242,230)" stroke="none" stroke-width="1"/></g></g></g><g id="ealld7u5h6k7128_tr" transform="translate(78.101486,69.030613) rotate(0)"><g id="ealld7u5h6k7128" transform="translate(-78.101486,-69.030613)"><g id="ealld7u5h6k7129"><g id="ealld7u5h6k7130"><g id="ealld7u5h6k7131"><path id="ealld7u5h6k7132" d="M78.200000,23.770000C91.647043,23.841528,102.510190,34.762766,102.510000,48.210000C102.510000,61.710000,91.640000,69.810000,78.200000,69.810000C64.760000,69.810000,53.820000,61.730000,53.820000,48.220000C53.819887,34.755594,64.705707,23.825069,78.170000,23.770000Z" fill="rgb(253,223,188)" stroke="none" stroke-width="1"/></g></g></g><g id="ealld7u5h6k7133" opacity="0.6"><g id="ealld7u5h6k7134"><g id="ealld7u5h6k7135"><path id="ealld7u5h6k7136" d="M78.100000,69.810000C75.142026,69.832119,72.196976,69.417655,69.360000,68.580000C70.535583,68.708698,71.717396,68.772128,72.900000,68.770000C79.160462,68.925831,85.277824,66.884352,90.190000,63C92.390593,61.160915,94.159147,58.859746,95.370000,56.260000C96.662838,53.436933,97.321610,50.364943,97.300000,47.260000C97.340405,36.592610,90.460223,27.130338,80.300000,23.880000C92.896973,25.022830,102.544851,35.581294,102.550000,48.230000C102.577523,51.350576,101.922211,54.439412,100.630000,57.280000C99.410356,59.894121,97.635883,62.211173,95.430000,64.070000C90.506376,67.958587,84.371409,69.990596,78.100000,69.810000Z" fill="rgb(255,213,163)" stroke="none" stroke-width="1"/></g></g></g><g id="ealld7u5h6k7137"><g id="ealld7u5h6k7138"><g id="ealld7u5h6k7139"><path id="ealld7u5h6k7140" d="M66.830000,50.780000L66.830000,50.780000C67.968707,50.790846,68.889154,51.711293,68.900000,52.850000L68.900000,54.930000C68.883877,56.066484,67.966484,56.983877,66.830000,57L66.830000,57C65.681248,57,64.750000,56.068752,64.750000,54.920000L64.750000,52.850000C64.749994,52.299265,64.969454,51.771231,65.359820,51.382742C65.750186,50.994253,66.279271,50.777339,66.830000,50.780000Z" fill="rgb(76,84,90)" stroke="none" stroke-width="1"/></g></g></g><g id="ealld7u5h6k7141"><g id="ealld7u5h6k7142"><g id="ealld7u5h6k7143"><path id="ealld7u5h6k7144" d="M89.580000,50.780000L89.580000,50.780000C90.718707,50.790846,91.639154,51.711293,91.650000,52.850000L91.650000,54.930000C91.633877,56.066484,90.716484,56.983877,89.580000,57L89.580000,57C88.431248,57,87.500000,56.068752,87.500000,54.920000L87.500000,52.850000C87.499994,52.299265,87.719454,51.771231,88.109820,51.382742C88.500186,50.994253,89.029271,50.777339,89.580000,50.780000Z" fill="rgb(76,84,90)" stroke="none" stroke-width="1"/></g></g></g><g id="ealld7u5h6k7145"><g id="ealld7u5h6k7146"><g id="ealld7u5h6k7147"><path id="ealld7u5h6k7148" d="M78,62.100000C77.115218,62.071199,76.246397,61.856549,75.450000,61.470000C75.026083,61.223734,74.862620,60.693022,75.074514,60.250921C75.286409,59.808820,75.802497,59.603810,76.260000,59.780000C76.803995,60.056009,77.400597,60.212830,78.010000,60.240000C78.558771,60.192891,79.092576,60.036489,79.580000,59.780000C80.013752,59.530284,80.567747,59.677718,80.820000,60.110000L80.820000,60.110000L80.820000,60.160000C80.942681,60.367724,80.976831,60.616005,80.914788,60.849137C80.852745,61.082269,80.699703,61.280733,80.490000,61.400000L80.430000,61.400000C79.681853,61.810455,78.851852,62.049550,78,62.100000Z" fill="rgb(76,84,90)" stroke="none" stroke-width="1"/></g></g></g><g id="ealld7u5h6k7149"><g id="ealld7u5h6k7150"><g id="ealld7u5h6k7151"><path id="ealld7u5h6k7152" d="M54.150000,43.880000C54.150000,43.880000,64.040000,41.060000,68.470000,35.880000C72.900000,30.700000,75.470000,33.400000,77.620000,34.600000C79.770000,35.800000,84.860000,40.430000,91.450000,43.410000C95.094384,45.168964,99.083463,46.097928,103.130000,46.130000C107.180000,46.130000,103.450000,32.310000,95.380000,27.210000C87.310000,22.110000,70.430000,17.760000,61.720000,27.210000C53.010000,36.660000,54.150000,43.880000,54.150000,43.880000Z" fill="rgb(76,84,90)" stroke="none" stroke-width="1"/></g></g></g><g id="ealld7u5h6k7153"><g id="ealld7u5h6k7154"><g id="ealld7u5h6k7155"><g id="ealld7u5h6k7156"><path id="ealld7u5h6k7157" d="M53.310000,48.630000C52.523923,48.380489,51.668074,48.687611,51.220000,49.380000C50.460000,50.610000,50.800000,54.040000,52.900000,55.940000C55,57.840000,56.900000,56.940000,56.900000,56.940000C56.900000,56.940000,54.900000,49.400000,54.370000,49.190000C53.985784,49.068791,53.626667,48.879069,53.310000,48.630000Z" fill="rgb(253,223,188)" stroke="none" stroke-width="1"/></g></g></g><g id="ealld7u5h6k7158"><g id="ealld7u5h6k7159"><g id="ealld7u5h6k7160"><path id="ealld7u5h6k7161" d="M103,49.270000C103.781083,48.997093,104.646796,49.305087,105.080000,50.010000C105.840000,51.250000,105.520000,54.670000,103.410000,56.570000C101.300000,58.470000,99.410000,57.570000,99.410000,57.570000C99.410000,57.570000,101.410000,50.040000,101.950000,49.830000C102.329016,49.703743,102.684002,49.514417,103,49.270000Z" fill="rgb(254,217,173)" stroke="none" stroke-width="1"/></g></g></g><g id="ealld7u5h6k7162"><g id="ealld7u5h6k7163"><g id="ealld7u5h6k7164"><path id="ealld7u5h6k7165" d="M54.080000,42.630000C54.080000,42.630000,52.320000,54.400000,57,63C61.680000,71.600000,65.400000,71.310000,65.400000,71.310000C65.400000,71.310000,53.330000,62.700000,57.720000,47.710000C62.110000,32.720000,55,40.770000,55,40.770000Z" fill="rgb(76,84,90)" stroke="none" stroke-width="1"/></g></g></g><g id="ealld7u5h6k7166"><g id="ealld7u5h6k7167"><g id="ealld7u5h6k7168"><path id="ealld7u5h6k7169" d="M102.310000,42.630000C102.310000,42.630000,104.060000,54.400000,99.310000,63.010000C94.560000,71.620000,91,71.320000,91,71.320000C91,71.320000,103,62.710000,98.670000,47.720000C94.340000,32.730000,101.390000,40.780000,101.390000,40.780000Z" fill="rgb(76,84,90)" stroke="none" stroke-width="1"/></g></g></g></g></g></g></g></g><g id="ealld7u5h6k7170"><path id="ealld7u5h6k7171" d="M75.270000,69.550000C75.270000,69.550000,77.430000,71.490000,78.270000,72.550000C78.470000,72.800000,80.510000,70.260000,81.270000,69.550000C81.190000,69.450000,75.270000,69.550000,75.270000,69.550000Z" fill="rgb(254,216,172)" stroke="none" stroke-width="1"/></g><g id="ealld7u5h6k7172"><path id="ealld7u5h6k7173" d="M64.840000,79.650000C68.964192,80.308321,73.133603,80.642676,77.310000,80.650000C84.310000,80.650000,92.580000,79.860000,92.580000,79.860000L92.870000,83.390000C87.879674,84.117640,82.843095,84.481931,77.800000,84.480000C73.298537,84.437018,68.803742,84.123118,64.340000,83.540000C64.210000,83.460000,64.340000,82.370000,64.340000,82.370000Z" fill="rgb(140,104,108)" stroke="none" stroke-width="1"/></g><g id="ealld7u5h6k7174_to" transform="translate(78.101486,23.770000)"><g id="ealld7u5h6k7174_tr" transform="rotate(0)"><g id="ealld7u5h6k7174" transform="translate(-78.101486,-23.770000)"><g id="ealld7u5h6k7175"><circle id="ealld7u5h6k7176" r="1.500000" transform="matrix(1 0 0 1 59.50000000000000 11.50000000000000)" fill="rgb(157,116,120)" stroke="none" stroke-width="1"/></g><g id="ealld7u5h6k7177"><path id="ealld7u5h6k7178" d="M60.430000,10.810000L60.430000,12.280000L98.620000,12.900000L98.620000,12.220000Z" fill="rgb(157,116,120)" stroke="none" stroke-width="1"/></g><g id="ealld7u5h6k7179"><path id="ealld7u5h6k7180" d="M69.830000,22.660000C69.830000,22.660000,66.500000,4.320000,69,2.420000C71.500000,0.520000,83.440000,-0.580000,87,2.420000C89.550000,4.540000,87,13.360000,87,13.360000C85.979589,16.852675,85.181326,20.406450,84.610000,24C79.700000,25.300000,69.830000,22.660000,69.830000,22.660000Z" fill="rgb(140,104,108)" stroke="none" stroke-width="1"/></g><g id="ealld7u5h6k7181" opacity="0.1"><path id="ealld7u5h6k7182" d="M82.880000,24.280000L82.880000,24.280000C83.610000,20.280000,85.060000,15.410000,85.070000,15.360000C85.512579,13.828746,85.846739,12.268217,86.070000,10.690000C86.360000,8.430000,86.430000,5.520000,85.070000,4.420000C84.240000,3.730000,82.070000,2.570000,76.860000,2.570000C73.978371,2.527919,71.107630,2.932724,68.350000,3.770000C68.411310,3.263386,68.640081,2.791766,69,2.430000C70.380000,1.430000,74.710000,0.570000,78.840000,0.570000C84.040000,0.570000,86.220000,1.740000,87.050000,2.430000C88.370000,3.520000,88.300000,6.430000,88.050000,8.690000C87.821927,10.270648,87.487841,11.834174,87.050000,13.370000C86.016263,16.859108,85.201345,20.409346,84.610000,24C84.042955,24.149202,83.464173,24.249569,82.880000,24.300000Z" fill="rgb(0,0,0)" stroke="none" stroke-width="1"/></g><g id="ealld7u5h6k7183"><rect id="ealld7u5h6k7184" width="18" height="4" rx="1" ry="1" transform="matrix(1 0 0 1 68 21)" fill="rgb(105,88,83)" stroke="none" stroke-width="1"/></g></g></g></g></g><g id="ealld7u5h6k7185"><path id="ealld7u5h6k7186" d="M41.100000,86.940000C37.400000,88.070000,27.850000,90.170000,15.210000,86.880000C14.181936,86.615065,13.560879,85.569545,13.820000,84.540000L13.820000,84.490000C14.990000,80.430000,18.340000,70.490000,26.630000,62.720000C27.384873,61.996308,28.582647,62.018654,29.310000,62.770000C32.310000,65.770000,39.820000,74.010000,42.390000,84.650000C42.631735,85.634155,42.066966,86.636729,41.100000,86.940000Z" fill="url(#ealld7u5h6k7186-fill)" stroke="none" stroke-width="1"/><line id="ealld7u5h6k7187" x1="27.830000" y1="65.580000" x2="29.300000" y2="67.430000" fill="none" stroke="rgb(255,234,197)" stroke-width="2.430000" stroke-linecap="round" stroke-miterlimit="10"/><line id="ealld7u5h6k7188" x1="26.490000" y1="67.740000" x2="25.090000" y2="69.440000" fill="none" stroke="rgb(255,234,197)" stroke-width="2.430000" stroke-linecap="round" stroke-miterlimit="10"/><line id="ealld7u5h6k7189" x1="28.700000" y1="70.250000" x2="29.650000" y2="72.330000" fill="none" stroke="rgb(255,234,197)" stroke-width="2.430000" stroke-linecap="round" stroke-miterlimit="10"/><line id="ealld7u5h6k7190" x1="32.670000" y1="70.600000" x2="34.140000" y2="72.260000" fill="none" stroke="rgb(255,234,197)" stroke-width="2.430000" stroke-linecap="round" stroke-miterlimit="10"/><line id="ealld7u5h6k7191" x1="25.790000" y1="72.950000" x2="24.670000" y2="74.150000" fill="none" stroke="rgb(255,234,197)" stroke-width="2.430000" stroke-linecap="round" stroke-miterlimit="10"/><line id="ealld7u5h6k7192" x1="21.300000" y1="73.550000" x2="20.100000" y2="75.420000" fill="none" stroke="rgb(255,234,197)" stroke-width="2.430000" stroke-linecap="round" stroke-miterlimit="10"/><line id="ealld7u5h6k7193" x1="22.700000" y1="76.790000" x2="23.820000" y2="78.800000" fill="none" stroke="rgb(255,234,197)" stroke-width="2.430000" stroke-linecap="round" stroke-miterlimit="10"/><line id="ealld7u5h6k7194" x1="28.700000" y1="75.420000" x2="27.540000" y2="77.090000" fill="none" stroke="rgb(255,234,197)" stroke-width="2.430000" stroke-linecap="round" stroke-miterlimit="10"/><line id="ealld7u5h6k7195" x1="32.810000" y1="75.420000" x2="35.130000" y2="75.420000" fill="none" stroke="rgb(255,234,197)" stroke-width="2.430000" stroke-linecap="round" stroke-miterlimit="10"/><line id="ealld7u5h6k7196" x1="38.360000" y1="77.790000" x2="36.110000" y2="79.480000" fill="none" stroke="rgb(255,234,197)" stroke-width="2.430000" stroke-linecap="round" stroke-miterlimit="10"/><line id="ealld7u5h6k7197" x1="32.040000" y1="78.280000" x2="31.270000" y2="80.460000" fill="none" stroke="rgb(255,234,197)" stroke-width="2.430000" stroke-linecap="round" stroke-miterlimit="10"/><line id="ealld7u5h6k7198" x1="27.830000" y1="80.320000" x2="26.210000" y2="82.500000" fill="none" stroke="rgb(255,234,197)" stroke-width="2.430000" stroke-linecap="round" stroke-miterlimit="10"/><line id="ealld7u5h6k7199" x1="18.700000" y1="80.250000" x2="21.230000" y2="80.910000" fill="none" stroke="rgb(255,234,197)" stroke-width="2.430000" stroke-linecap="round" stroke-miterlimit="10"/><line id="ealld7u5h6k7200" x1="18.770000" y1="83.410000" x2="16.850000" y2="85.190000" fill="none" stroke="rgb(255,234,197)" stroke-width="2.430000" stroke-linecap="round" stroke-miterlimit="10"/><line id="ealld7u5h6k7201" x1="23.820000" y1="84.300000" x2="24.810000" y2="86.390000" fill="none" stroke="rgb(255,234,197)" stroke-width="2.430000" stroke-linecap="round" stroke-miterlimit="10"/><line id="ealld7u5h6k7202" x1="30.350000" y1="83.760000" x2="32.110000" y2="85.190000" fill="none" stroke="rgb(255,234,197)" stroke-width="2.430000" stroke-linecap="round" stroke-miterlimit="10"/><line id="ealld7u5h6k7203" x1="38.710000" y1="82.710000" x2="36.880000" y2="84.890000" fill="none" stroke="rgb(255,234,197)" stroke-width="2.430000" stroke-linecap="round" stroke-miterlimit="10"/><circle id="ealld7u5h6k7204" r="3.800000" transform="matrix(1 0 0 1 25.37000000000000 80.06000000000000)" fill="url(#ealld7u5h6k7204-fill)" stroke="none" stroke-width="1"/><circle id="ealld7u5h6k7205" r="1.850000" transform="matrix(1 0 0 1 34.55000000000000 82.01000000000001)" fill="url(#ealld7u5h6k7205-fill)" stroke="none" stroke-width="1"/></g><g id="ealld7u5h6k7206_to" transform="translate(57.175709,77.448111)"><g id="ealld7u5h6k7206_tr" transform="rotate(0)"><g id="ealld7u5h6k7206" transform="translate(-57.175709,-77.448111)"><g id="ealld7u5h6k7207"><path id="ealld7u5h6k7208" d="M39.070000,93.500000C44.230000,95.080000,57.540000,98.010000,75.160000,93.420000C75.848434,93.241299,76.437597,92.796268,76.797723,92.182929C77.157848,91.569590,77.259396,90.838253,77.080000,90.150000C77.084336,90.130235,77.084336,90.109765,77.080000,90.090000C75.450000,84.430000,70.780000,70.610000,59.230000,59.740000C58.172570,58.740225,56.509278,58.771356,55.490000,59.810000C51.280000,64.070000,40.850000,75.470000,37.260000,90.310000C36.927307,91.684321,37.719591,93.080668,39.070000,93.500000Z" fill="url(#ealld7u5h6k7208-fill)" stroke="none" stroke-width="1"/><path id="ealld7u5h6k7209" d="M74.120000,81.760000C71.380789,75.133636,67.592283,68.991665,62.900000,63.570000C59.729981,63.066960,56.529066,62.782954,53.320000,62.720000L52.720000,62.720000C48.152379,67.735567,44.290123,73.350641,41.240000,79.410000C52.255134,78.428297,63.356446,79.221730,74.120000,81.760000Z" fill="url(#ealld7u5h6k7209-fill)" stroke="none" stroke-width="1"/><path id="ealld7u5h6k7210" d="M55.630000,64.830000C58.040897,64.957711,60.436368,65.292274,62.790000,65.830000" fill="none" stroke="rgb(110,155,75)" stroke-width="1.020000" stroke-miterlimit="10"/><path id="ealld7u5h6k7211" d="M50.850000,68.360000C55.822067,68.112281,60.806036,68.447902,65.700000,69.360000" fill="none" stroke="rgb(110,155,75)" stroke-width="1.020000" stroke-miterlimit="10"/><path id="ealld7u5h6k7212" d="M70.630000,75.520000C67.196564,74.788509,63.719246,74.280773,60.220000,74" fill="none" stroke="rgb(110,155,75)" stroke-width="1.020000" stroke-miterlimit="10"/><path id="ealld7u5h6k7213" d="M49,95.470000C55.328492,96.153088,61.720521,95.971420,68,94.930000C65.919142,88.715790,63.347714,82.676779,60.310000,76.870000C58.730893,73.624841,56.916030,70.499801,54.880000,67.520000C53.938469,66.204798,52.916519,64.949069,51.820000,63.760000C48.169361,67.919987,44.990032,72.470989,42.340000,77.330000C45.220000,83.120000,47.810000,89.170000,49,95.470000Z" fill="url(#ealld7u5h6k7213-fill)" stroke="none" stroke-width="1"/><path id="ealld7u5h6k7214" d="M51.380000,67.260000C55.151038,73.327418,58.207998,79.810454,60.490000,86.580000" fill="none" stroke="rgb(110,155,75)" stroke-width="1.020000" stroke-miterlimit="10"/><path id="ealld7u5h6k7215" d="M54.560000,79.060000C57.000174,84.223624,58.587415,89.748573,59.260000,95.420000" fill="none" stroke="rgb(110,155,75)" stroke-width="1.020000" stroke-miterlimit="10"/><path id="ealld7u5h6k7216" d="M44.550000,74.860000C46.570375,79.120896,48.307480,83.510425,49.750000,88" fill="none" stroke="rgb(110,155,75)" stroke-width="1.020000" stroke-miterlimit="10"/><path id="ealld7u5h6k7217" d="M47.150000,72C51.238387,78.733345,53.817679,86.273340,54.710000,94.100000" fill="none" stroke="rgb(110,155,75)" stroke-width="1.020000" stroke-miterlimit="10"/><path id="ealld7u5h6k7218" d="M39.930000,82.220000C46.170715,80.777894,52.329566,79.002009,58.380000,76.900000C62.208974,75.768707,65.927522,74.292668,69.490000,72.490000" fill="none" stroke="rgb(255,229,181)" stroke-width="3.050000" stroke-linecap="round" stroke-miterlimit="10"/><path id="ealld7u5h6k7219" d="M39.520000,83.230000C46.044749,81.734118,52.486867,79.898281,58.820000,77.730000C62.648126,76.601367,66.363892,75.121756,69.920000,73.310000" fill="none" stroke="rgb(244,211,157)" stroke-width="3.050000" stroke-linecap="round" stroke-miterlimit="10"/><path id="ealld7u5h6k7220" d="M44.620000,72.650000L47.550000,74.650000C49.447518,76.012802,51.413413,77.277784,53.440000,78.440000C60.140000,82.120000,67.840000,83.440000,75.370000,84.710000" fill="none" stroke="rgb(244,211,157)" stroke-width="3.050000" stroke-linecap="round" stroke-miterlimit="10"/><path id="ealld7u5h6k7221" d="M44.850000,71.830000L47.780000,73.830000C49.674100,75.192758,51.636664,76.457744,53.660000,77.620000C60.360000,81.300000,68.060000,82.620000,75.600000,83.890000" fill="none" stroke="rgb(255,229,181)" stroke-width="3.050000" stroke-linecap="round" stroke-miterlimit="10"/></g></g></g></g><g id="ealld7u5h6k7222_to" transform="translate(27.841809,62.222406)"><g id="ealld7u5h6k7222_tr" transform="rotate(0)"><g id="ealld7u5h6k7222" transform="translate(-27.841809,-62.222406)"><path id="ealld7u5h6k7223" d="M26.590000,63C26.082638,63.003504,25.592908,62.814047,25.220000,62.470000C25.125344,62.376117,25.072101,62.248319,25.072101,62.115000C25.072101,61.981681,25.125344,61.853883,25.220000,61.760000C25.417814,61.568217,25.732186,61.568217,25.930000,61.760000C26.127571,61.957720,26.398876,62.063728,26.678156,62.052328C26.957437,62.040929,27.219200,61.913164,27.400000,61.700000C27.495126,61.601151,27.623228,61.540658,27.760000,61.530000C27.893833,61.523597,28.025400,61.566267,28.130000,61.650000C28.352297,61.863024,28.652484,61.975143,28.960000,61.960000C29.265489,61.948915,29.553726,61.815605,29.760000,61.590000C29.852164,61.495936,29.978310,61.442929,30.110000,61.442929C30.241690,61.442929,30.367836,61.495936,30.460000,61.590000C30.556677,61.680733,30.611519,61.807414,30.611519,61.940000C30.611519,62.072586,30.556677,62.199267,30.460000,62.290000C29.768509,63.033683,28.650973,63.192139,27.780000,62.670000C27.428075,62.902774,27.011546,63.018282,26.590000,63Z" transform="matrix(1 0 0 1 -0.39035122702030 -0.00365487296821)" fill="rgb(76,84,90)" stroke="none" stroke-width="1"/></g></g></g><g id="ealld7u5h6k7224"><path id="ealld7u5h6k7225" d="M18,71C20.540000,73.650000,23.460000,73.700000,24.300000,73C25.140000,72.300000,24.850000,69.260000,21.400000,68.280000C17.950000,67.300000,16.710000,67.880000,18,71Z" fill="rgb(231,131,109)" stroke="none" stroke-width="1"/></g><g id="ealld7u5h6k7226"><path id="ealld7u5h6k7227" d="M38.250000,69C35.710000,71.660000,32.790000,71.710000,31.950000,71C31.110000,70.290000,31.410000,67.260000,34.850000,66.280000C38.290000,65.300000,39.580000,65.880000,38.250000,69Z" fill="rgb(231,131,109)" stroke="none" stroke-width="1"/></g><g id="ealld7u5h6k7228_to" transform="translate(18.685006,17.785700)"><g id="ealld7u5h6k7228" transform="translate(-18.685006,-17.785700)"><path id="ealld7u5h6k7229" d="M28.480000,28.460000L8.770000,28.460000C5.557701,28.475947,2.755532,26.282226,2,23.160000C1.291262,20.028852,2.872310,16.829210,5.790000,15.490000C5.948139,11.665295,8.566000,8.383864,12.260000,7.380000C15.964654,6.335239,19.923624,7.762076,22.110000,10.930000L22.600000,10.930000C25.253386,10.932361,27.677348,12.434753,28.860000,14.810000C32.643150,14.903888,35.633888,18.046850,35.540000,21.830000C35.446111,25.613150,32.303150,28.603888,28.520000,28.510000Z" fill="rgb(240,242,255)" stroke="none" stroke-width="1"/><g id="ealld7u5h6k7230" clip-path="url(#ealld7u5h6k7236)"><g id="ealld7u5h6k7231"><g id="ealld7u5h6k7232"><g id="ealld7u5h6k7233"><g id="ealld7u5h6k7234"><path id="ealld7u5h6k7235" style="isolation:isolate" d="M28.480000,28.480000L8.780000,28.480000C5.559765,28.503200,2.749152,26.301968,2,23.170000C1.280466,20.037658,2.858985,16.830509,5.780000,15.490000C5.940161,11.663885,8.556287,8.380587,12.250000,7.370000C15.959910,6.322553,19.924934,7.754144,22.110000,10.930000L22.590000,10.930000C25.243386,10.932361,27.667348,12.434753,28.850000,14.810000C32.540701,14.977362,35.438163,18.033610,35.408565,21.727986C35.378967,25.422361,32.432909,28.431793,28.740000,28.540000L28.510000,28.540000Z" opacity="0.3" fill="rgb(163,216,242)" stroke="none" stroke-width="1"/></g></g></g></g><clipPath id="ealld7u5h6k7236"><path id="ealld7u5h6k7237" d="M11.600000,6.210000C11.600000,6.210000,-2.310000,23.830000,30.160000,29.710000C30,29.870000,6.250000,29.710000,6.250000,29.710000L0,23.340000L3.150000,15.340000Z" fill="none" stroke="none" stroke-width="1"/></clipPath></g></g></g></g></svg>