<svg id="efFznTbgkWc1" xmlns="http://www.w3.org/2000/svg" xmlns:xlink="http://www.w3.org/1999/xlink" viewBox="0 0 110 100" shape-rendering="geometricPrecision" text-rendering="geometricPrecision"><style><![CDATA[#efFznTbgkWc3_to {animation: efFznTbgkWc3_to__to 3000ms linear infinite normal forwards}@keyframes efFznTbgkWc3_to__to { 0% {transform: translate(60.67px,86.46px)} 6.666667% {transform: translate(60.67px,86.46px);animation-timing-function: cubic-bezier(0.42,0,0.58,1)} 30% {transform: translate(60.67px,84.46px);animation-timing-function: cubic-bezier(0.42,0,0.58,1)} 50% {transform: translate(60.67px,84.46px);animation-timing-function: cubic-bezier(0.42,0,0.58,1)} 76.666667% {transform: translate(60.67px,84.46px);animation-timing-function: cubic-bezier(0.42,0,0.58,1)} 96.666667% {transform: translate(60.67px,86.46px)} 100% {transform: translate(60.67px,86.46px)}} #efFznTbgkWc3_tr {animation: efFznTbgkWc3_tr__tr 3000ms linear infinite normal forwards}@keyframes efFznTbgkWc3_tr__tr { 0% {transform: rotate(0deg)} 3.333333% {transform: rotate(0deg);animation-timing-function: cubic-bezier(0.42,0,0.58,1)} 26.666667% {transform: rotate(-3.993989deg);animation-timing-function: cubic-bezier(0.42,0,0.58,1)} 50% {transform: rotate(3.172962deg);animation-timing-function: cubic-bezier(0.42,0,0.58,1)} 73.333333% {transform: rotate(-3.993989deg);animation-timing-function: cubic-bezier(0.42,0,0.58,1)} 93.333333% {transform: rotate(0deg)} 100% {transform: rotate(0deg)}} #efFznTbgkWc132_to {animation: efFznTbgkWc132_to__to 3000ms linear infinite normal forwards}@keyframes efFznTbgkWc132_to__to { 0% {transform: translate(25.55877px,84.119226px)} 6.666667% {transform: translate(25.55877px,84.119226px);animation-timing-function: cubic-bezier(0.42,0,0.58,1)} 26.666667% {transform: translate(25.55877px,75.119226px);animation-timing-function: cubic-bezier(0.42,0,0.58,1)} 66.666667% {transform: translate(25.55877px,75.119226px);animation-timing-function: cubic-bezier(0.42,0,0.58,1)} 90% {transform: translate(25.55877px,84.119226px)} 100% {transform: translate(25.55877px,84.119226px)}} #efFznTbgkWc208_to {animation: efFznTbgkWc208_to__to 3000ms linear infinite normal forwards}@keyframes efFznTbgkWc208_to__to { 0% {transform: translate(25.565249px,69.364748px)} 6.666667% {transform: translate(25.565249px,69.364748px);animation-timing-function: cubic-bezier(0.42,0,0.58,1)} 26.666667% {transform: translate(25.565249px,60.364748px);animation-timing-function: cubic-bezier(0.42,0,0.58,1)} 66.666667% {transform: translate(25.565249px,60.364748px);animation-timing-function: cubic-bezier(0.42,0,0.58,1)} 90% {transform: translate(25.565249px,69.364748px)} 100% {transform: translate(25.565249px,69.364748px)}}]]></style><rect id="efFznTbgkWc2" width="110" height="100" rx="0" ry="0" fill="none" stroke="none" stroke-width="1"/><g id="efFznTbgkWc3_to" transform="translate(60.67,86.46)"><g id="efFznTbgkWc3_tr" transform="rotate(0)"><g id="efFznTbgkWc3" transform="translate(-60.669996,-86.459995)"><g id="efFznTbgkWc4"><circle id="efFznTbgkWc5" r="3.19" transform="matrix(1 0 0 1 50.45 76.1)" fill="rgb(253,223,188)" stroke="none" stroke-width="1"/></g><g id="efFznTbgkWc6"><g id="efFznTbgkWc7"><g id="efFznTbgkWc8"><g id="efFznTbgkWc9"><g id="efFznTbgkWc10"><g id="efFznTbgkWc11"><g id="efFznTbgkWc12"><g id="efFznTbgkWc13"><g id="efFznTbgkWc14"><g id="efFznTbgkWc15"><g id="efFznTbgkWc16"><path id="efFznTbgkWc17" d="M32.62,82.31C32.828687,82.237033,33.049031,82.203134,33.27,82.21L84.46,86.3L86.9,86.43L86.17,88.17L33.17,85.55C32.306057,85.532002,31.59668,84.861554,31.53,84C31.524984,83.926752,31.524984,83.853248,31.53,83.78C31.578508,83.12045,32.002979,82.547999,32.62,82.31Z" fill="rgb(176,120,0)" stroke="none" stroke-width="1"/></g><g id="efFznTbgkWc18"><path id="efFznTbgkWc19" d="M32.62,82.33C32.824539,82.240491,33.046984,82.199424,33.27,82.21L84.46,86.3L83.46,87.37C83.46,87.37,38,82.52,31.53,84C31.520017,83.930356,31.520017,83.859644,31.53,83.79C31.564706,83.127707,31.994883,82.551506,32.62,82.33Z" fill="rgb(133,90,0)" stroke="none" stroke-width="1"/></g><g id="efFznTbgkWc20"><path id="efFznTbgkWc21" d="M104.44,76.91C104.919332,77.312227,105.267558,77.848494,105.44,78.45C105.62,79.06,104.38,81.75,94.25,83.92C94.5,83.92,102.65,84.33,106.88,82.23C107.366125,83.401467,107.724854,84.621817,107.95,85.87L105.74,86.53L108.21,87.64C108.574468,90.990614,108.035845,94.377724,106.65,97.45L106.65,97.45C106.35279,98.050025,106.018821,98.63113,105.65,99.19C105.29,99.75,105.37,96.61,101.14,95.19C97.14,93.84,87.06,95.31,85.03,89.1C84.93297,88.738473,84.859483,88.371036,84.81,88L84.81,87.9C84.677429,87.083032,84.851978,86.245908,85.3,85.55L85.3,85.55C88.33,80.9,103.65,81.69,104.44,76.91Z" fill="rgb(242,148,40)" stroke="none" stroke-width="1"/></g><g id="efFznTbgkWc22"><path id="efFznTbgkWc23" d="M82.16,83.6L85.27,85.6L85.27,85.6L85.12,87.86L85,89.14L85,89.14L82,90.3L82,88.71Z" fill="rgb(242,148,40)" stroke="none" stroke-width="1"/></g><g id="efFznTbgkWc24"><path id="efFznTbgkWc25" d="M93.9,86.84C95.460705,86.425991,97.081062,86.283914,98.69,86.42L104.35,86.77C104.35,86.77,102.12,87.34,93.9,86.84Z" fill="rgb(253,175,80)" stroke="none" stroke-width="1"/></g><g id="efFznTbgkWc26"><path id="efFznTbgkWc27" d="M82,88.71L84.78,87.94L85.12,87.85L85.42,87.77C85.42,87.77,85.02,90.77,95.86,92.13C106.7,93.49,106.56,97.34,106.56,97.45L106.56,97.45C106.279247,98.068278,105.962022,98.669336,105.61,99.25C105.25,99.82,105.33,96.66,101.1,95.25C97.1,93.9,87.02,95.37,85,89.15L85,89.15L81.92,90.32Z" fill="rgb(242,164,40)" stroke="none" stroke-width="1"/></g><g id="efFznTbgkWc28"><path id="efFznTbgkWc29" d="M85.59,85.18L85.29,89.77L84.29,89.45L84.49,85.13Z" fill="rgb(176,120,0)" stroke="none" stroke-width="1"/></g><g id="efFznTbgkWc30"><path id="efFznTbgkWc31" d="M105.41,95.48C105.41,95.48,103.01,93.11,97.94,92.67C92.87,92.23,90.16,92.12,88.4,90C88.4,90,90.14,91.55,98.4,92.14C104.77,92.56,105.41,95.48,105.41,95.48Z" fill="rgb(253,175,80)" stroke="none" stroke-width="1"/></g></g></g></g></g></g></g></g></g></g></g><g id="efFznTbgkWc32"><g id="efFznTbgkWc33"><path id="efFznTbgkWc34" d="M40.9,39.1C38.34,44.34,37.06,53.27,38.43,59.89C39.9,67.05,35.94,69.1,36.95,73.89C38.34,78.11,41.95,81.14,48.04,81.47C54.13,81.8,63.04,80.89,70.26,82.58C77.48,84.27,83.49,79.38,84.07,75.36C84.65,71.34,82.45,71.44,81.79,65.36C81.48,62.44,82.21,53.94,82.44,50.22C82.627846,47.264142,82.052781,44.309617,80.77,41.64C79.23,38.15,72.92,42.58,64.77,40.21C54.64,36.76,45.68,29.31,40.9,39.1Z" fill="rgb(76,84,90)" stroke="none" stroke-width="1"/></g><g id="efFznTbgkWc35" opacity="0.2"><g id="efFznTbgkWc36" clip-path="url(#efFznTbgkWc41)"><g id="efFznTbgkWc37"><g id="efFznTbgkWc38"><g id="efFznTbgkWc39"><path id="efFznTbgkWc40" d="M45.29,53.18C45.29,53.18,45.77,63.91,43.52,69.33C41.27,74.75,40.52,79.33,49.6,82.88C58.68,86.43,72.6,84.88,74.55,84.02C76.5,83.16,82.16,77.89,77.86,72.1C73.56,66.31,75.53,54.61,75.53,54.61Z" fill="rgb(0,0,0)" stroke="none" stroke-width="1"/></g></g></g><clipPath id="efFznTbgkWc41"><path id="efFznTbgkWc42" d="M40.9,39.1C38.34,44.34,37.06,53.27,38.43,59.89C39.9,67.05,35.94,69.1,36.95,73.89C38.34,78.11,41.95,81.13,48.04,81.48C54.13,81.83,63.04,80.89,70.26,82.58C77.48,84.27,83.49,79.38,84.07,75.36C84.65,71.34,82.45,71.44,81.79,65.36C81.26,60.43,82.24,51.65,82.42,47.89C82.6,44.13,78.42,31.99,67.68,28.89C57.55,25.43,45.68,29.3,40.9,39.1Z" fill="none" stroke="none" stroke-width="1"/></clipPath></g></g><g id="efFznTbgkWc43"><path id="efFznTbgkWc44" d="M53.78,80.76L60.65,80.76L60.65,85.26C60.65,85.812285,60.202285,86.26,59.65,86.26L53.78,86.26C53.227715,86.26,52.78,85.812285,52.78,85.26L52.78,81.77C52.77733,81.503055,52.881508,81.246125,53.069334,81.05642C53.257161,80.866715,53.513042,80.759987,53.78,80.76Z" fill="rgb(29,29,29)" stroke="none" stroke-width="1"/></g><g id="efFznTbgkWc45"><path id="efFznTbgkWc46" d="M60.65,80.76L67.52,80.76C68.072285,80.76,68.52,81.207715,68.52,81.76L68.52,85.25C68.52,85.802285,68.072285,86.25,67.52,86.25L61.66,86.25C61.107715,86.25,60.66,85.802285,60.66,85.25L60.66,80.75Z" fill="rgb(29,29,29)" stroke="none" stroke-width="1"/></g><g id="efFznTbgkWc47"><path id="efFznTbgkWc48" d="M54,67.36L67.4,67.36C68.625131,67.279943,69.684524,68.205235,69.77,69.43L71.34,81.84C71.25978,83.063242,70.203261,83.989935,68.98,83.91L52.37,83.91C51.780899,83.951155,51.199677,83.755901,50.754904,83.367428C50.310131,82.978956,50.038465,82.429283,50,81.84L51.58,69.43C51.617984,68.831312,51.896641,68.273479,52.352512,67.88354C52.808382,67.493601,53.402657,67.304752,54,67.36Z" fill="rgb(0,0,0)" stroke="none" stroke-width="1"/></g><g id="efFznTbgkWc49"><path id="efFznTbgkWc50" d="M51.64,67.79C51.64,67.79,46.21,74.41,46.64,75.31C47.07,76.21,51.03,78.64,52.11,79.09C53.19,79.54,53.89,68.19,53.11,67.79C52.647816,67.556506,52.102184,67.556506,51.64,67.79Z" fill="rgb(0,0,0)" stroke="none" stroke-width="1"/></g><g id="efFznTbgkWc51"><path id="efFznTbgkWc52" d="M69.71,67.79C69.71,67.79,75.14,74.41,74.71,75.31C74.28,76.21,70.32,78.64,69.24,79.09C68.16,79.54,67.46,68.19,68.24,67.79C68.702184,67.556506,69.247816,67.556506,69.71,67.79Z" fill="rgb(0,0,0)" stroke="none" stroke-width="1"/></g><g id="efFznTbgkWc53"><ellipse id="efFznTbgkWc54" rx="5.35" ry="2.67" transform="matrix(1 0 0 1 60.58 70.73)" fill="rgb(255,255,255)" stroke="none" stroke-width="1"/></g><g id="efFznTbgkWc55"><g id="efFznTbgkWc56"><path id="efFznTbgkWc57" d="M60.26,36.88C70.504882,36.88,78.81,45.185118,78.81,55.43C78.81,65.68,70.5,71.82,60.26,71.82C50.02,71.82,41.7,65.68,41.7,55.43C41.699999,50.508501,43.655741,45.78872,47.136704,42.309632C50.617667,38.830545,55.338502,36.877347,60.26,36.88Z" fill="rgb(253,223,188)" stroke="none" stroke-width="1"/></g><g id="efFznTbgkWc58"><path id="efFznTbgkWc59" d="M60.26,71.82C58.013415,71.831601,55.776952,71.518361,53.62,70.89C54.52,70.98,55.42,71.03,56.31,71.03C61.056911,71.155151,65.698137,69.61633,69.43,66.68C71.126021,65.274552,72.491699,63.512827,73.43,61.52C74.416372,59.358298,74.914831,57.005978,74.89,54.63C74.857163,46.559253,69.615112,39.433781,61.92,37C71.465697,37.857636,78.78645,45.845882,78.81,55.43C78.84113,57.8066,78.342381,60.160283,77.35,62.32C76.410456,64.309222,75.044858,66.06743,73.35,67.47C69.627753,70.402685,64.997194,71.941488,60.26,71.82Z" fill="rgb(255,213,163)" stroke="none" stroke-width="1"/></g><g id="efFznTbgkWc60"><rect id="efFznTbgkWc61" width="3.15" height="4.73" rx="1.58" ry="1.58" transform="matrix(1 0 0 1 50.06 55.57)" fill="rgb(76,84,90)" stroke="none" stroke-width="1"/></g><g id="efFznTbgkWc62"><rect id="efFznTbgkWc63" width="3.15" height="4.73" rx="1.58" ry="1.58" transform="matrix(1 0 0 1 67.4 55.57)" fill="rgb(76,84,90)" stroke="none" stroke-width="1"/></g><g id="efFznTbgkWc64"><path id="efFznTbgkWc65" d="M60.16,64.29C59.467273,64.27033,58.786198,64.106872,58.16,63.81C57.966326,63.717342,57.818024,63.550727,57.74844,63.347618C57.678856,63.144509,57.693832,62.921955,57.79,62.73C57.987354,62.331382,58.46652,62.162787,58.87,62.35C59.270234,62.544685,59.705527,62.656909,60.15,62.68C60.553768,62.649616,60.947761,62.540928,61.31,62.36C61.701483,62.202105,62.148282,62.375552,62.330691,62.756232C62.5131,63.136911,62.368343,63.593812,62,63.8C61.429667,64.095375,60.801698,64.262606,60.16,64.29Z" fill="rgb(76,84,90)" stroke="none" stroke-width="1"/></g><g id="efFznTbgkWc66"><path id="efFznTbgkWc67" d="M42,52.14C42,52.14,49.46,50,52.86,46C56.26,42,58.22,44.12,59.86,45.05C61.5,45.98,65.35,49.47,70.41,51.74C73.190274,53.052095,76.225672,53.734974,79.3,53.74C82.374328,53.745026,79.56,43.28,73.42,39.39C67.28,35.5,54.42,32.23,47.76,39.39C41.1,46.55,42,52.14,42,52.14Z" fill="rgb(76,84,90)" stroke="none" stroke-width="1"/></g></g><g id="efFznTbgkWc68"><path id="efFznTbgkWc69" d="M64.25,71.53C64.25,71.53,64,73.13,63.48,73.53C62.96,73.93,65.03,74.34,65.67,74.13C66.31,73.92,65.47,71.29,65.47,71.29Z" fill="rgb(255,255,255)" stroke="none" stroke-width="1"/></g><g id="efFznTbgkWc70"><g id="efFznTbgkWc71"><path id="efFznTbgkWc72" d="M41.32,55.29C40.699124,55.068383,40.007761,55.309944,39.66,55.87C39.06,56.87,39.32,59.53,40.98,61.04C41.767926,61.89647,42.980096,62.219975,44.09,61.87C45.199904,61.520025,42.53,55.94,42.09,55.78C41.806832,55.662609,41.546273,55.496798,41.32,55.29Z" fill="rgb(253,223,188)" stroke="none" stroke-width="1"/></g><g id="efFznTbgkWc73"><path id="efFznTbgkWc74" d="M78.53,56.18C79.150876,55.958383,79.842239,56.199944,80.19,56.76C80.79,57.76,80.53,60.42,78.87,61.92C78.084337,62.780052,76.871831,63.107545,75.76,62.76C74.648169,62.412455,77.32,56.83,77.76,56.67C78.041242,56.548938,78.301218,56.383498,78.53,56.18Z" fill="rgb(254,217,173)" stroke="none" stroke-width="1"/></g><g id="efFznTbgkWc75"><path id="efFznTbgkWc76" d="M41.2,52.13C41.2,52.13,39.83,61.41,43.52,68.13C47.21,74.85,50.12,74.69,50.12,74.69C50.12,74.69,40.66,67.9,44.12,56.11C47.58,44.32,41.96,50.65,41.96,50.65Z" fill="rgb(76,84,90)" stroke="none" stroke-width="1"/></g><g id="efFznTbgkWc77"><path id="efFznTbgkWc78" d="M79.28,52.13C79.28,52.13,80.66,61.41,76.97,68.13C73.28,74.85,70.37,74.69,70.37,74.69C70.37,74.69,79.83,67.9,76.37,56.11C72.91,44.32,78.54,50.65,78.54,50.65Z" fill="rgb(76,84,90)" stroke="none" stroke-width="1"/></g></g></g><g id="efFznTbgkWc79"><g id="efFznTbgkWc80"><g id="efFznTbgkWc81"><path id="efFznTbgkWc82" d="M62.48,33.63C56.73,32.7,40.05,32.13,34.73,35.94C30.28,39.1,37.57,45.71,42.61,48.21C52.47,53.1,75.28,53.75,75.28,53.75L73.71,51.38L76.71,53.52C78.630701,53.284135,80.534518,52.926752,82.41,52.45L78.64,49.17L85.1,51.66C87.78,50.74,90.32,49.41,91.36,47.55C93.93,42.92,73.05,35.33,62.48,33.63Z" fill="rgb(0,0,0)" stroke="none" stroke-width="1"/></g></g><g id="efFznTbgkWc83"><g id="efFznTbgkWc84"><path id="efFznTbgkWc85" d="M50.68,39.63C50.75,39,51.92,31,49,24.71L56.09,16.22C56.09,16.22,56.45,8.29,55.98,6.62L49.42,12.22L48.83,16.83L47.3,11.36L56.3,1.36L67.23,9.74L73.39,17.29L71.39,20.78C71.39,20.78,76.66,35.78,77.29,41.06C77.27,41,33.74,44.58,50.68,39.63Z" fill="rgb(0,0,0)" stroke="none" stroke-width="1"/></g><g id="efFznTbgkWc86"><path id="efFznTbgkWc87" d="M77.27,41C76.63,35.72,71.36,20.72,71.36,20.72L73.36,17.24L67.36,9.66L56.45,1.35L66,10.58L71,16.15L66,23.63L70.33,22C71.98504,28.447382,73.135188,35.013922,73.77,41.64Z" fill="rgb(74,73,73)" stroke="none" stroke-width="1"/></g><g id="efFznTbgkWc88"><path id="efFznTbgkWc89" d="M51,34.6C51.010298,36.271772,50.906725,37.942304,50.69,39.6C59.279469,42.321872,68.42198,42.803782,77.25,41C76.997387,39.310272,76.629868,37.639732,76.15,36C68,37.18,54.94,35.25,51,34.6Z" fill="rgb(242,148,40)" stroke="none" stroke-width="1"/></g><g id="efFznTbgkWc90"><path id="efFznTbgkWc91" d="M50.85,38.09L50.69,39.62C59.280791,42.337421,68.423845,42.812475,77.25,41C77.25,40.55,77.11,40,77,39.46C72.91,40.5,63.44,42.05,50.85,38.09Z" fill="rgb(224,98,3)" stroke="none" stroke-width="1"/></g><g id="efFznTbgkWc92"><path id="efFznTbgkWc93" d="M70.35,36C70.401545,35.200428,69.799078,34.508707,69,34.45L69,34.45L58.82,33.86C58.440522,33.83253,58.065741,33.95742,57.778595,34.20703C57.491449,34.456641,57.315613,34.810392,57.29,35.19L57.29,35.19L57.29,35.19L56.92,41.34C56.89537,41.722093,57.023925,42.098264,57.277251,42.385367C57.530577,42.672469,57.887813,42.846863,58.27,42.87L58.27,42.87L68.43,43.51C68.816047,43.548804,69.201291,43.429074,69.497337,43.178285C69.793382,42.927495,69.974813,42.567174,70,42.18L70,42.18ZM58.92,41L59.22,35.83L68.4,36.38L68.1,41.54Z" fill="rgb(255,255,255)" stroke="none" stroke-width="1"/></g><g id="efFznTbgkWc94"><path id="efFznTbgkWc95" d="M73.23,41.72C74.574875,41.567429,75.910258,41.340414,77.23,41.04C76.978001,39.350159,76.610473,37.679577,76.13,36.04C75.21,36.18,74.21,36.27,73.13,36.33C73.389873,38.115312,73.423472,39.926277,73.23,41.72Z" fill="rgb(224,98,3)" stroke="none" stroke-width="1"/></g></g></g><g id="efFznTbgkWc96"><g id="efFznTbgkWc97"><path id="efFznTbgkWc98" d="M51.42,73.08L51.42,73.08L51,71.19C51,71.19,48.8,67.59,46.1,67.93C43.4,68.27,45.51,69.49,45.1,70.85C44.69,72.21,43.65,71.74,43.57,73.22L43.57,73.22C43.7,74.67,44.75,74.22,45.18,75.52C45.61,76.82,43.51,78.14,46.26,78.42C49.01,78.7,51.08,75,51.08,75Z" fill="rgb(242,148,40)" stroke="none" stroke-width="1"/></g><g id="efFznTbgkWc99"><path id="efFznTbgkWc100" d="M51.07,75L51.41,73.1L51.41,73.1L51.41,73C51.149352,73.203963,50.911325,73.435285,50.7,73.69C48.57,76.4,46.29,76.69,45.12,76.69C44.83,77.56,44.33,78.28,46.27,78.46C49,78.68,51.07,75,51.07,75Z" fill="rgb(255,141,28)" stroke="none" stroke-width="1"/></g><g id="efFznTbgkWc101" style="isolation:isolate" opacity="0.27"><path id="efFznTbgkWc102" d="M50.82,71.36C50.82,71.36,48,67.36,45.64,68.5C45.485889,68.565967,45.364423,68.690635,45.302489,68.846411C45.240554,69.002187,45.243257,69.176223,45.31,69.33L45.31,69.33L45.31,69.33C45.468079,69.660057,45.815806,69.855903,46.18,69.82C47.25,69.82,50.11,70.9,50.8,71.82C51.49,72.74,50.82,71.36,50.82,71.36Z" fill="rgb(255,255,255)" stroke="none" stroke-width="1"/></g><g id="efFznTbgkWc103"><path id="efFznTbgkWc104" d="M68.72,72.78L68.72,72.78L69.06,70.87C69.06,70.87,71.12,67.2,73.84,67.44C76.56,67.68,74.48,68.98,74.91,70.33C75.34,71.68,76.39,71.16,76.52,72.64L76.52,72.64C76.44,74.09,75.37,73.64,74.99,75C74.61,76.36,76.75,77.56,73.99,77.94C71.23,78.32,69.09,74.67,69.09,74.67Z" fill="rgb(242,148,40)" stroke="none" stroke-width="1"/></g><g id="efFznTbgkWc105"><path id="efFznTbgkWc106" d="M69.12,74.69L68.72,72.8L68.72,72.8L68.72,72.68C68.974496,72.887849,69.205834,73.122539,69.41,73.38C71.63,76.01,73.93,76.27,75.09,76.19C75.42,77,76,77.75,74,78C71.32,78.29,69.12,74.69,69.12,74.69Z" fill="rgb(255,141,28)" stroke="none" stroke-width="1"/></g><g id="efFznTbgkWc107" style="isolation:isolate" opacity="0.27"><path id="efFznTbgkWc108" d="M69.26,71C69.26,71,71.95,66.9,74.39,68C74.706516,68.125352,74.862754,68.482468,74.74,68.8L74.74,68.8L74.74,68.8C74.598623,69.138646,74.255877,69.348326,73.89,69.32C72.81,69.32,70,70.54,69.34,71.48C68.68,72.42,69.26,71,69.26,71Z" fill="rgb(255,255,255)" stroke="none" stroke-width="1"/></g><g id="efFznTbgkWc109"><ellipse id="efFznTbgkWc110" rx="9.87" ry="6.68" transform="matrix(0.999848 -0.017452 0.017452 0.999848 60.149599 72.699191)" fill="rgb(242,148,40)" stroke="none" stroke-width="1"/></g><g id="efFznTbgkWc111"><path id="efFznTbgkWc112" d="M68.92,69.54L68.92,69.77C68.99,73.83,65.1,77.18,60.21,77.27C55.32,77.36,51.33,74.14,51.26,70.08L51.26,69.85C50.610889,70.715481,50.26,71.768149,50.26,72.85C50.33,76.53,54.8,79.45,60.26,79.35C65.72,79.25,70.09,76.18,70.03,72.5C69.989859,71.419253,69.600384,70.380655,68.92,69.54Z" fill="rgb(255,141,28)" stroke="none" stroke-width="1"/></g><g id="efFznTbgkWc113"><path id="efFznTbgkWc114" d="M55.49,66.85L51.33,75.79C51.862657,76.45448,52.5053,77.022712,53.23,77.47L58.55,66.08C57.504242,66.220533,56.477724,66.47884,55.49,66.85Z" fill="rgb(48,47,47)" stroke="none" stroke-width="1"/></g><g id="efFznTbgkWc115"><path id="efFznTbgkWc116" d="M61.66,66.08L55.76,78.77C56.555614,79.036974,57.376614,79.22128,58.21,79.32L64.16,66.54C63.343321,66.30696,62.506142,66.152919,61.66,66.08Z" fill="rgb(48,47,47)" stroke="none" stroke-width="1"/></g><g id="efFznTbgkWc117"><path id="efFznTbgkWc118" d="M66.74,67.66L61.3,79.33C62.318072,79.240129,63.323716,79.042352,64.3,78.74L68.71,69.27C68.144143,68.630931,67.478939,68.087286,66.74,67.66Z" fill="rgb(48,47,47)" stroke="none" stroke-width="1"/></g><g id="efFznTbgkWc119" style="isolation:isolate" opacity="0.27"><ellipse id="efFznTbgkWc120" rx="5.9" ry="2.43" transform="matrix(0.999848 -0.017452 0.017452 0.999848 60.089224 69.240765)" fill="rgb(255,255,255)" stroke="none" stroke-width="1"/></g></g><g id="efFznTbgkWc121"><circle id="efFznTbgkWc122" r="3.19" transform="matrix(1 0 0 1 69.93 76.1)" fill="rgb(253,223,188)" stroke="none" stroke-width="1"/></g><g id="efFznTbgkWc123"><circle id="efFznTbgkWc124" r="3.19" transform="matrix(1 0 0 1 50.28 76.11)" fill="rgb(253,223,188)" stroke="none" stroke-width="1"/></g><g id="efFznTbgkWc125"><path id="efFznTbgkWc126" d="M64.59,80.75L64.59,80.75C65.425432,80.75,66.226647,81.081874,66.817386,81.672614C67.408126,82.263353,67.74,83.064568,67.74,83.9L67.74,83.9C67.740009,85.641322,66.331313,87.054489,64.59,87.06L64.59,87.06C62.848687,87.054489,61.439991,85.641322,61.44,83.9L61.44,83.9C61.44,83.064568,61.771874,82.263353,62.362614,81.672614C62.953353,81.081874,63.754568,80.75,64.59,80.75Z" fill="rgb(242,148,40)" stroke="none" stroke-width="1"/></g><g id="efFznTbgkWc127"><path id="efFznTbgkWc128" d="M56.71,80.75L56.71,80.75C57.545432,80.75,58.346647,81.081874,58.937386,81.672614C59.528126,82.263353,59.86,83.064568,59.86,83.9L59.86,83.9C59.860009,85.641322,58.451313,87.054489,56.71,87.06L56.71,87.06C54.968687,87.054489,53.559991,85.641322,53.56,83.9L53.56,83.9C53.56,83.064568,53.891874,82.263353,54.482614,81.672614C55.073353,81.081874,55.874568,80.75,56.71,80.75Z" fill="rgb(242,148,40)" stroke="none" stroke-width="1"/></g></g></g></g><g id="efFznTbgkWc129"><path id="efFznTbgkWc130" d="M18,79.4L16.56,85.84C16.56,85.84,15,90.27,20.06,91.16C23.635937,91.660047,27.264063,91.660047,30.84,91.16C34.42,90.66,34.32,90.93,34.26,86.43C34.26,85.05,32.56,79.43,32.56,79.43Z" transform="matrix(1 0 0 1 0 7)" fill="rgb(253,223,188)" stroke="none" stroke-width="1"/><path id="efFznTbgkWc131" d="M6.92,75.22L11.45,71.09L21.59,70L30.15,68.63L41.15,72.08L43.72,76.8L42.4,84.37C42.4,84.37,17.5,84.16,17.12,84C16.74,83.84,7.23,81.17,6.94,80.52C6.65,79.87,6.92,75.22,6.92,75.22Z" fill="rgb(219,127,31)" stroke="none" stroke-width="1"/><g id="efFznTbgkWc132_to" transform="translate(25.55877,84.119226)"><g id="efFznTbgkWc132" transform="translate(-25.55877,-77.119226)"><g id="efFznTbgkWc133"><path id="efFznTbgkWc134" d="M13.86,73C13.86,73,9.96,66.39,12.86,64.5C15.76,62.61,20.01,66.02,20.29,66.28C20.29,66.28,24.76,64,29.16,65.44C29.4,65.57,33.27,61.84,36.29,62.89C39.31,63.94,36.29,71.27,36.29,71.27C36.29,71.27,36.84,75.99,38.61,77.01C38.74,77.25,37.16,78.01,36.61,77.87C37.126686,78.064923,37.663246,78.202417,38.21,78.28C38.76,78.36,32.21,83.78,25.5,83.28C18.79,82.78,14.95,80.87,14.24,80.35C14.680942,80.170343,15.108669,79.959821,15.52,79.72C15.66,79.66,13.26,79.39,12.26,78.31C11.94,77.99,14.78,76.2,14.41,74.31C14.19,73.23,13.86,73,13.86,73Z" fill="rgb(163,216,242)" stroke="none" stroke-width="1"/><path id="efFznTbgkWc135" style="isolation:isolate" d="M15.35,70.84C15.35,70.84,16.63,68.27,18.12,67.74C18.12,67.62,14.85,65.6,13.98,66.51C13.11,67.42,15.35,70.84,15.35,70.84Z" opacity="0.5" fill="rgb(255,255,255)" stroke="none" stroke-width="1"/><path id="efFznTbgkWc136" style="isolation:isolate" d="M31.09,67C31.09,67,33.85,67.82,34.63,69.19C34.73,69.19,36.16,65.6,35.12,64.9C34.08,64.2,31.09,67,31.09,67Z" opacity="0.5" fill="rgb(255,255,255)" stroke="none" stroke-width="1"/><path id="efFznTbgkWc137" d="M31.49,89.09C31.49,89.09,36.79,89.61,37.22,83.75" fill="none" stroke="rgb(253,223,188)" stroke-width="4" stroke-linecap="round"/><g id="efFznTbgkWc138"><path id="efFznTbgkWc139" d="M26.1,75.61C25.974124,75.630014,25.845876,75.630014,25.72,75.61C25.536931,75.566191,25.359206,75.502478,25.19,75.42C24.553593,75.814904,23.730501,75.728479,23.19,75.21C23.012141,75.018223,23.012141,74.721777,23.19,74.53C23.379782,74.347127,23.680218,74.347127,23.87,74.53C24.141648,74.758574,24.538352,74.758574,24.81,74.53C24.933371,74.414791,25.109933,74.376408,25.27,74.43C25.335859,74.451479,25.39697,74.48543,25.45,74.53C25.53,74.53,26.1,74.9,26.39,74.53C26.550163,74.322893,26.847893,74.284837,27.055,74.445C27.262107,74.605163,27.300163,74.902893,27.14,75.11L27.14,75.11C26.891357,75.431072,26.506042,75.61632,26.1,75.61Z" fill="rgb(76,84,90)" stroke="none" stroke-width="1"/></g><circle id="efFznTbgkWc140" r="1.02" transform="matrix(1 0 0 1 19.89 71.9)" fill="rgb(76,84,90)" stroke="none" stroke-width="1"/><circle id="efFznTbgkWc141" r="1.02" transform="matrix(1 0 0 1 31.23 71.9)" fill="rgb(76,84,90)" stroke="none" stroke-width="1"/><g id="efFznTbgkWc142"><path id="efFznTbgkWc143" d="M14.78,77.52C13.861222,77.386707,12.923502,77.522156,12.08,77.91" fill="none" stroke="rgb(112,112,112)" stroke-width="1" stroke-linecap="round"/><path id="efFznTbgkWc144" d="M36.63,77.52C37.544992,77.37927,38.481133,77.500622,39.33,77.87" fill="none" stroke="rgb(112,112,112)" stroke-width="1" stroke-linecap="round"/><path id="efFznTbgkWc145" d="M15.11,78.82C14.18397,78.880362,13.295052,79.206761,12.55,79.76" fill="none" stroke="rgb(112,112,112)" stroke-width="1" stroke-linecap="round"/><path id="efFznTbgkWc146" d="M36.3,78.82C37.221979,78.885005,38.106422,79.211035,38.85,79.76" fill="none" stroke="rgb(112,112,112)" stroke-width="1" stroke-linecap="round"/></g><g id="efFznTbgkWc147"><path id="efFznTbgkWc148" d="M25.49,84.48C24.55,84.48,23.73,83.9,23.73,83.18C23.730136,83.064045,23.750439,82.948998,23.79,82.84C24.825355,83.518699,26.164645,83.518699,27.2,82.84C27.239561,82.948998,27.259864,83.064045,27.26,83.18C27.26,83.93,26.47,84.48,25.49,84.48Z" fill="rgb(255,255,255)" stroke="none" stroke-width="1"/><path id="efFznTbgkWc149" d="M25.49,84.36L25.49,85" fill="none" stroke="rgb(255,255,255)" stroke-width="2" stroke-linecap="round"/></g></g></g></g><g id="efFznTbgkWc150" clip-path="url(#efFznTbgkWc206)"><g id="efFznTbgkWc151"><g id="efFznTbgkWc152"><g id="efFznTbgkWc153"><g id="efFznTbgkWc154"><g id="efFznTbgkWc155"><g id="efFznTbgkWc156"><path id="efFznTbgkWc157" d="M27.63,61.86L27.51,62.11C27.51,62.19,27.42,62.28,27.38,62.36C27.34,62.44,27.22,62.71,27.15,62.89C26.999454,63.252458,26.869252,63.623034,26.76,64C26.539904,64.683661,26.408824,65.392834,26.37,66.11C26.360376,66.424523,26.380466,66.739253,26.43,67.05C26.479524,67.321645,26.56005,67.586712,26.67,67.84C26.764592,68.050233,26.889227,68.245607,27.04,68.42C27.200501,68.580434,27.37083,68.730724,27.55,68.87C28.556146,69.702664,28.732266,71.178182,27.950369,72.224268C27.168473,73.270355,25.703468,73.519216,24.62,72.79C24.395082,72.618391,24.202136,72.408521,24.05,72.17L23.89,71.94C23.55808,71.442325,23.283027,70.908991,23.07,70.35C22.875545,69.781056,22.754566,69.189603,22.71,68.59C22.671751,68.01881,22.69859,67.445124,22.79,66.88C22.876022,66.370767,23.013389,65.871554,23.2,65.39C23.529068,64.496405,23.972778,63.649323,24.52,62.87C24.773416,62.523568,25.043744,62.189831,25.33,61.87C25.47,61.7,25.63,61.53,25.78,61.37L26,61.13L26.26,60.87C26.564644,60.577673,27.033973,60.542908,27.378364,60.787157C27.722755,61.031406,27.845142,61.485828,27.67,61.87Z" fill="rgb(116,136,12)" stroke="none" stroke-width="1"/><path id="efFznTbgkWc158" d="M43.58,76.48C38.07,64.82,29.16,67.2,26.73,68.11C25.634308,67.340563,24.180258,67.316791,23.06,68.05C20.44,67.11,11.72,65.05,6.36,76.48C0.12,89.71,9.19,101.2,21.77,96.93C23.812643,97.809713,26.127357,97.809713,28.17,96.93C40.74,101.2,49.76,89.71,43.58,76.48Z" fill="rgb(242,148,40)" stroke="none" stroke-width="1"/><g id="efFznTbgkWc159"><path id="efFznTbgkWc160" style="isolation:isolate" d="M12.74,75.42C15.34,70.42,20.17,69.12,23.01,68.05C20.22,67.11,11.38,65.15,6.31,76.48C0.51,89.44,8,97.84,16.56,97.84C9.42,95.46,7.8,84.86,12.74,75.42Z" opacity="0.2" fill="rgb(249,108,2)" stroke="none" stroke-width="1"/><path id="efFznTbgkWc161" style="isolation:isolate" d="M37.09,75.42C34.48,70.42,29.64,69.12,26.81,68.05C29.64,67.11,38.44,65.15,43.51,76.48C49.31,89.48,41.79,97.84,33.26,97.84C40.4,95.46,42,84.86,37.09,75.42Z" opacity="0.2" fill="rgb(249,108,2)" stroke="none" stroke-width="1"/><path id="efFznTbgkWc162" d="M23.66,67.74C23.895729,67.661467,24.136215,67.598005,24.38,67.55C24.131996,67.577761,23.88941,67.641777,23.66,67.74Z" fill="rgb(242,148,40)" stroke="none" stroke-width="1"/></g><g id="efFznTbgkWc163"><path id="efFznTbgkWc164" d="M22.89,97.32C22.65,96.97,22.4,96.62,22.17,96.26C20.803442,94.193542,19.688865,91.971101,18.85,89.64C18.002822,87.326033,17.526943,84.89264,17.44,82.43C17.399969,81.185164,17.480342,79.939372,17.68,78.71C17.77,78.09,17.9,77.47,18.05,76.82C18.12,76.51,18.2,76.2,18.29,75.88L18.58,74.93C18.42,75.21,18.25,75.49,18.1,75.77L17.68,76.64C17.41,77.24,17.19,77.84,16.98,78.46C16.776931,79.079024,16.61327,79.710287,16.49,80.35C16.471131,80.512676,16.437663,80.673323,16.39,80.83L16.32,81.32C16.27,81.64,16.23,81.97,16.2,82.26C15.989404,84.903519,16.260465,87.56331,17,90.11C17.377824,91.375699,17.838827,92.615062,18.38,93.82C18.90902,94.986782,19.517101,96.116076,20.2,97.2C20.713953,97.079789,21.221306,96.932924,21.72,96.76C22.098027,96.970714,22.48878,97.157741,22.89,97.32Z" fill="rgb(249,108,2)" stroke="none" stroke-width="1"/><path id="efFznTbgkWc165" d="M13.09,93.48C12.951986,93.259864,12.825158,93.032909,12.71,92.8L12.52,92.45C12.457362,92.336329,12.40062,92.219508,12.35,92.1C12.29,91.99,12.13,91.63,12.03,91.38L11.74,90.66C11.380216,89.665906,11.109157,88.641907,10.93,87.6C10.579922,85.48774,10.579922,83.33226,10.93,81.22C11.103965,80.155702,11.35802,79.106053,11.69,78.08C11.85,77.56,12.03,77.08,12.24,76.54C12.45,76,12.66,75.54,12.91,75.05C12.61,75.52,12.34,75.99,12.09,76.48C11.828681,76.971857,11.598235,77.479506,11.4,78C10.971063,79.01517,10.620048,80.061528,10.35,81.13C9.784648,83.288257,9.57523,85.524299,9.73,87.75C9.819135,88.878214,10.009909,89.996081,10.3,91.09L10.53,91.91L10.82,92.71C10.85785,92.85081,10.908044,92.988009,10.97,93.12L11.13,93.52C11.24,93.78,11.35,94.05,11.47,94.3C12.003536,95.410308,12.629052,96.47402,13.34,97.48C14.403854,97.739417,15.494974,97.870352,16.59,97.87C15.229285,96.572493,14.051779,95.095565,13.09,93.48Z" fill="rgb(249,108,2)" stroke="none" stroke-width="1"/><path id="efFznTbgkWc166" d="M32.84,90.28C33.579638,87.736754,33.850712,85.080221,33.64,82.44C33.622543,82.104347,33.582452,81.770254,33.52,81.44L33.44,81C33.417294,80.834677,33.38389,80.671,33.34,80.51C33.21673,79.870287,33.053069,79.239024,32.85,78.62C32.658551,77.996152,32.428098,77.384948,32.16,76.79C32.02,76.5,31.89,76.22,31.74,75.92C31.59,75.62,31.43,75.36,31.27,75.08C31.36,75.4,31.47,75.7,31.55,76.08C31.63,76.46,31.72,76.69,31.8,77.02C31.951625,77.643563,32.071777,78.274361,32.16,78.91C32.359619,80.142739,32.43999,81.391844,32.4,82.64C32.315966,85.092309,31.843427,87.515762,31,89.82C30.160111,92.12993,29.049004,94.332001,27.69,96.38C27.45,96.74,27.2,97.1,26.95,97.45C27.347879,97.349016,27.738716,97.222077,28.12,97.07C28.64,97.24,29.12,97.39,29.65,97.51C30.327065,96.419232,30.93493,95.287001,31.47,94.12C32.015306,92.873376,32.473082,91.590268,32.84,90.28Z" fill="rgb(249,108,2)" stroke="none" stroke-width="1"/><path id="efFznTbgkWc167" d="M38.69,93.53L38.86,93.13C38.92,93,38.96,92.86,39.02,92.73L39.3,91.92L39.53,91.09C39.820091,89.996081,40.010865,88.878214,40.1,87.75C40.257672,85.524848,40.051638,83.288872,39.49,81.13C39.212008,80.06265,38.857765,79.016629,38.43,78Q38.11,77.23,37.74,76.5C37.520317,75.987135,37.273296,75.486416,37,75C37.252834,75.480885,37.479824,75.974921,37.68,76.48C37.88,76.99,38.06,77.48,38.22,78.02C38.557076,79.066391,38.817761,80.135867,39,81.22C39.350065,83.328905,39.350065,85.481095,39,87.59C38.817921,88.611689,38.546889,89.615509,38.19,90.59L37.9,91.32C37.8,91.56,37.69,91.79,37.58,92.03C37.539662,92.153915,37.482458,92.271687,37.41,92.38L37.22,92.73C37.106999,92.964038,36.980106,93.191109,36.84,93.41C35.880203,95.009677,34.713461,96.475671,33.37,97.77C34.462303,97.780324,35.551348,97.649235,36.61,97.38C37.304133,96.388188,37.916165,95.34138,38.44,94.25C38.48,94.06,38.58,93.79,38.69,93.53Z" fill="rgb(249,108,2)" stroke="none" stroke-width="1"/></g></g><g id="efFznTbgkWc168"><g id="efFznTbgkWc169"><path id="efFznTbgkWc170" d="M21,81.79C21.410329,81.773729,21.731273,81.430496,21.72,81.02L21.72,81.02C21.716971,80.922733,21.6931,80.827249,21.65,80.74C20.76,78.74,18.65,74.38,17.38,74.29C15.67,74.16,13.6,78.07,13.38,80.29C13.14,82.05,18.59,81.92,21,81.79Z" fill="rgb(80,4,0)" stroke="none" stroke-width="1"/><g id="efFznTbgkWc171"><path id="efFznTbgkWc172" d="M21,81.79C21.277803,81.780209,21.525936,81.613495,21.64,81.36C19.11,81.48,14.23,81.5,14.4,79.86C14.722921,77.740392,15.718546,75.780694,17.24,74.27C15.55,74.34,13.59,78.16,13.36,80.27C13.14,82.05,18.59,81.92,21,81.79Z" fill="rgb(63,3,2)" stroke="none" stroke-width="1"/></g></g><g id="efFznTbgkWc173"><path id="efFznTbgkWc174" d="M28.86,81.79C28.659215,81.782257,28.469933,81.694269,28.334583,81.54576C28.199233,81.39725,28.129134,81.200641,28.14,81L28.14,81C28.147944,80.90348,28.171588,80.808903,28.21,80.72C29.09,78.72,31.21,74.36,32.49,74.27C34.2,74.14,36.27,78.05,36.49,80.27C36.68,82.05,31.23,81.92,28.86,81.79Z" fill="rgb(80,4,0)" stroke="none" stroke-width="1"/><g id="efFznTbgkWc175"><path id="efFznTbgkWc176" d="M28.86,81.79C28.582197,81.780209,28.334064,81.613495,28.22,81.36C30.75,81.48,35.63,81.5,35.45,79.86C35.129834,77.741621,34.137789,75.782069,32.62,74.27C34.3,74.34,36.27,78.16,36.49,80.27C36.68,82.05,31.23,81.92,28.86,81.79Z" fill="rgb(63,3,2)" stroke="none" stroke-width="1"/></g></g></g><g id="efFznTbgkWc177"><path id="efFznTbgkWc178" d="M13.44,87.16C21.004759,88.709924,28.805241,88.709924,36.37,87.16C43.93,85.61,38.02,94.47,24.91,94.47C11.8,94.47,13.44,87.16,13.44,87.16Z" fill="rgb(80,4,0)" stroke="none" stroke-width="1"/><g id="efFznTbgkWc179"><path id="efFznTbgkWc180" d="M24.91,93.41C15.34,93.41,13.63,89.51,13.42,87.41C13.27,88.68,13.24,94.48,24.91,94.48C36.58,94.48,36.56,88.68,36.41,87.41C36.19,89.52,34.48,93.41,24.91,93.41Z" fill="rgb(63,3,2)" stroke="none" stroke-width="1"/></g></g><g id="efFznTbgkWc181"><path id="efFznTbgkWc182" d="M21.14,90.53L19.14,89.99L18.85,87.99L21.15,87.82Z" fill="rgb(63,3,2)" stroke="none" stroke-width="1"/><path id="efFznTbgkWc183" d="M28.68,90.53L30.68,89.98L31,88L28.7,87.84Z" fill="rgb(63,3,2)" stroke="none" stroke-width="1"/></g><g id="efFznTbgkWc184"><path id="efFznTbgkWc185" d="M21.14,90.21L19.14,89.66L18.76,87.53L21.15,87.53Z" fill="rgb(242,148,40)" stroke="none" stroke-width="1"/><path id="efFznTbgkWc186" d="M28.68,90.21L30.68,89.66L31.06,87.52L28.66,87.52Z" fill="rgb(242,148,40)" stroke="none" stroke-width="1"/></g><path id="efFznTbgkWc187" d="M26.45,95.18L24.45,94.63L24,92.5L26.49,92.5Z" fill="rgb(63,3,2)" stroke="none" stroke-width="1"/><path id="efFznTbgkWc188" d="M26.45,95.54L24.45,95L24.08,92.86L26.47,92.86Z" fill="rgb(242,148,40)" stroke="none" stroke-width="1"/><g id="efFznTbgkWc189"><path id="efFznTbgkWc190" d="M22,72.6C21.994296,72.388332,22.15853,72.210782,22.37,72.2L22.37,72.2C22.585179,72.156911,22.794895,72.295234,22.84,72.51C22.863543,72.613641,22.843768,72.722401,22.78525,72.811122C22.726732,72.899843,22.63454,72.960839,22.53,72.98L22.4,72.98C22.295799,72.985492,22.193925,72.947894,22.118275,72.876026C22.042625,72.804159,21.999855,72.704345,22,72.6Z" fill="rgb(249,108,2)" stroke="none" stroke-width="1"/><path id="efFznTbgkWc191" d="M23.78,70.31C23.78,70.018787,23.955422,69.756249,24.224468,69.644807C24.493513,69.533364,24.803198,69.594965,25.009117,69.800883C25.215035,70.006802,25.276636,70.316487,25.165193,70.585532C25.053751,70.854578,24.791213,71.03,24.5,71.03C24.102355,71.03,23.78,70.707645,23.78,70.31Z" fill="rgb(249,108,2)" stroke="none" stroke-width="1"/><circle id="efFznTbgkWc192" r="0.26" transform="matrix(1 0 0 1 24.88 72.3)" fill="rgb(249,108,2)" stroke="none" stroke-width="1"/></g><g id="efFznTbgkWc193"><path id="efFznTbgkWc194" d="M38,73.07C38.219243,73.105894,38.370012,73.309875,38.34,73.53C38.299404,73.745197,38.096858,73.890502,37.88,73.86C37.776005,73.845258,37.682352,73.789193,37.620238,73.704492C37.558124,73.619791,37.532801,73.513617,37.55,73.41C37.55284,73.351718,37.573817,73.295778,37.61,73.25C37.694027,73.119369,37.846078,73.049192,38,73.07Z" fill="rgb(249,108,2)" stroke="none" stroke-width="1"/><path id="efFznTbgkWc195" d="M36.16,73C36.055778,72.894772,36.055778,72.725228,36.16,72.62C36.26621,72.545821,36.410138,72.557534,36.502956,72.64791C36.595775,72.738286,36.611321,72.88185,36.54,72.99L36.54,72.99C36.492879,73.038888,36.4279,73.066506,36.36,73.066506C36.2921,73.066506,36.227121,73.038888,36.18,72.99Z" fill="rgb(249,108,2)" stroke="none" stroke-width="1"/></g><g id="efFznTbgkWc196"><path id="efFznTbgkWc197" d="M35.63,85.43C35.442187,85.545759,35.196111,85.487595,35.08,85.3C34.98841,85.141579,35.012892,84.941642,35.14,84.81C35.314407,84.683338,35.556385,84.709264,35.7,84.87C35.765293,84.950765,35.795675,85.054237,35.784412,85.157481C35.773149,85.260725,35.721171,85.355213,35.64,85.42L35.64,85.42Z" fill="rgb(249,108,2)" stroke="none" stroke-width="1"/><path id="efFznTbgkWc198" d="M37.16,84.31C37.286784,84.334745,37.37828,84.445824,37.37828,84.575C37.37828,84.704176,37.286784,84.815255,37.16,84.84C37.033216,84.864745,37.16,84.84,37.16,84.84C37.089186,84.837488,37.022466,84.806183,36.975273,84.753328C36.928081,84.700472,36.904505,84.630645,36.91,84.56C36.91537,84.425849,37.025742,84.319893,37.16,84.32Z" fill="rgb(249,108,2)" stroke="none" stroke-width="1"/></g><g id="efFznTbgkWc199"><path id="efFznTbgkWc200" d="M6.24,83.54C6.24,83.433913,6.282143,83.332172,6.357157,83.257157C6.432172,83.182143,6.533913,83.14,6.64,83.14L6.64,83.14C6.834118,83.170984,6.976952,83.338425,6.976952,83.535C6.976952,83.731575,6.834118,83.899016,6.64,83.93C6.422933,83.930068,6.245427,83.756999,6.24,83.54Z" fill="rgb(249,108,2)" stroke="none" stroke-width="1"/><circle id="efFznTbgkWc201" r="0.72" transform="matrix(1 0 0 1 8.74 81.28)" fill="rgb(249,108,2)" stroke="none" stroke-width="1"/><circle id="efFznTbgkWc202" r="0.26" transform="matrix(1 0 0 1 9.11 83.28)" fill="rgb(249,108,2)" stroke="none" stroke-width="1"/></g><path id="efFznTbgkWc203" d="M27.73,83.21C27.822,83.556313,27.616384,83.91176,27.270312,84.004662C26.924241,84.097563,26.568259,83.892873,26.474457,83.547045C26.380654,83.201216,26.584417,82.844702,26.93,82.75C27.277364,82.660447,27.632654,82.864739,27.73,83.21Z" fill="rgb(249,108,2)" stroke="none" stroke-width="1"/><path id="efFznTbgkWc204" d="M23.58,76.93C23.601546,76.993654,23.595417,77.063425,23.563105,77.122348C23.530792,77.181271,23.475256,77.223947,23.41,77.24L23.41,77.24C23.347747,77.270951,23.275691,77.275681,23.209926,77.253133C23.144161,77.230585,23.090166,77.182638,23.06,77.12C23.025438,77.059541,23.01766,76.987406,23.03854,76.92097C23.05942,76.854533,23.107065,76.799817,23.17,76.77C23.202735,76.761071,23.237265,76.761071,23.27,76.77C23.334965,76.748307,23.405985,76.754218,23.46647,76.78635C23.526955,76.818483,23.571609,76.874024,23.59,76.94Z" fill="rgb(249,108,2)" stroke="none" stroke-width="1"/><path id="efFznTbgkWc205" d="M20.3,84.76C20.339635,84.951748,20.227082,85.142222,20.04,85.2C19.863729,85.25633,19.673464,85.169846,19.6,85C19.568905,84.911206,19.575992,84.813496,19.619576,84.730119C19.663159,84.646742,19.739343,84.585151,19.83,84.56L19.83,84.56C20.014792,84.495732,20.218181,84.582281,20.3,84.76Z" fill="rgb(249,108,2)" stroke="none" stroke-width="1"/></g></g></g></g></g><clipPath id="efFznTbgkWc206"><polygon id="efFznTbgkWc207" points="6.91,75.26 13.14,76.45 18.04,75.27 21.35,75.64 28.37,76.45 32.17,74.83 36.13,74.83 40.7,76.97 44.25,76.97 49.12,84.5 45.4,98.23 24.27,99.95 3.15,95.63 2,80.6 6.91,75.26" fill="none" stroke="none" stroke-width="1"/></clipPath></g><g id="efFznTbgkWc208_to" transform="translate(25.565249,69.364748)"><g id="efFznTbgkWc208" transform="translate(-25.565249,-62.364748)"><g id="efFznTbgkWc209"><path id="efFznTbgkWc210" d="M28.57,58.32L28.45,58.55L28.33,58.81C28.24,58.98,28.17,59.16,28.09,59.34C27.939242,59.688755,27.809019,60.046032,27.7,60.41C27.478403,61.092889,27.350568,61.802708,27.32,62.52C27.311497,62.837491,27.328216,63.155156,27.37,63.47C27.419488,63.738426,27.500029,64.000184,27.61,64.25C27.709221,64.465366,27.840735,64.664324,28,64.84C28.152301,65.002227,28.319726,65.149561,28.5,65.28C29.58,66.08,28.18,65.63,27.37,66.72C26.56,67.81,24.22,67.29,24.02,66.72C23.825634,66.16428,23.701341,65.586487,23.65,65C23.616524,64.442076,23.643346,63.882169,23.73,63.33C23.817345,62.822115,23.951243,62.323345,24.13,61.84C24.465082,60.953438,24.912032,60.113306,25.46,59.34C25.710064,58.966089,25.983965,58.608681,26.28,58.27C26.42,58.1,26.57,57.93,26.72,57.77L26.95,57.52L27.2,57.27C27.36525,57.103282,27.59026,57.009496,27.825,57.009496C28.05974,57.009496,28.28475,57.103282,28.45,57.27L28.45,57.27C28.717758,57.531713,28.782733,57.937808,28.61,58.27Z" fill="rgb(116,136,12)" stroke="none" stroke-width="1"/><path id="efFznTbgkWc211" d="M23.61,65.25C24.835662,64.599322,26.304338,64.599322,27.53,65.25C27.88,65.15,30.02,64.25,31.37,66.08C31.37,66.08,31.55,67.72,25.07,67.72C20.07,67.72,19.76,66.45,19.76,66.45C20.024375,65.534577,20.813298,64.867936,21.76,64.76C23.36,64.64,23.61,65.25,23.61,65.25Z" fill="rgb(244,140,32)" stroke="none" stroke-width="1"/></g></g></g></g></svg>