<svg id="e6un4h06owh71" xmlns="http://www.w3.org/2000/svg" xmlns:xlink="http://www.w3.org/1999/xlink" viewBox="0 0 110.820000 100" shape-rendering="geometricPrecision" text-rendering="geometricPrecision"><style><![CDATA[#e6un4h06owh753_tr {animation: e6un4h06owh753_tr__tr 4500ms linear infinite normal forwards}@keyframes e6un4h06owh753_tr__tr { 0% {transform: translate(66.825000px,73.123718px) rotate(0deg)} 8.888889% {transform: translate(66.825000px,73.123718px) rotate(0deg);animation-timing-function: cubic-bezier(0.420000,0,1,1)} 22.222222% {transform: translate(66.825000px,73.123718px) rotate(-29.316729deg)} 31.111111% {transform: translate(66.825000px,73.123718px) rotate(0deg);animation-timing-function: cubic-bezier(0.420000,0,1,1)} 42.222222% {transform: translate(66.825000px,73.123718px) rotate(-29.316729deg);animation-timing-function: cubic-bezier(0.420000,0,1,1)} 51.111111% {transform: translate(66.825000px,73.123718px) rotate(0deg)} 100% {transform: translate(66.825000px,73.123718px) rotate(0deg)} }#e6un4h06owh7157_to {animation: e6un4h06owh7157_to__to 4500ms linear infinite normal forwards}@keyframes e6un4h06owh7157_to__to { 0% {transform: translate(35.890000px,51.679979px)} 22.222222% {transform: translate(35.890000px,51.679979px)} 31.111111% {transform: translate(35.890000px,52.679979px)} 66.888889% {transform: translate(35.890000px,52.679979px);animation-timing-function: cubic-bezier(0.420000,0,0.580000,1)} 75.555556% {transform: translate(35.890000px,49.004478px);animation-timing-function: cubic-bezier(0,0,0.580000,1)} 84.444444% {transform: translate(35.890000px,51.679979px)} 100% {transform: translate(35.890000px,51.679979px)} }#e6un4h06owh7157_tr {animation: e6un4h06owh7157_tr__tr 4500ms linear infinite normal forwards}@keyframes e6un4h06owh7157_tr__tr { 0% {transform: rotate(0deg)} 22.222222% {transform: rotate(0deg);animation-timing-function: cubic-bezier(0.420000,0,1,1)} 31.111111% {transform: rotate(7.937652deg)} 66.666667% {transform: rotate(7.937652deg);animation-timing-function: cubic-bezier(0.420000,0,0.580000,1)} 75.555556% {transform: rotate(-1.735748deg);animation-timing-function: cubic-bezier(0,0,0.580000,1)} 84.444444% {transform: rotate(0deg)} 100% {transform: rotate(0deg)} }#e6un4h06owh7248_to {animation: e6un4h06owh7248_to__to 4500ms linear infinite normal forwards}@keyframes e6un4h06owh7248_to__to { 0% {transform: translate(55px,73.351261px)} 8.888889% {transform: translate(55px,73.351261px);animation-timing-function: cubic-bezier(0.420000,0,1,1)} 22.222222% {transform: translate(55.367302px,78.675286px)} 31.111111% {transform: translate(55px,73.351261px);animation-timing-function: cubic-bezier(0.420000,0,1,1)} 42.222222% {transform: translate(55.367302px,78.675286px);animation-timing-function: cubic-bezier(0.420000,0,1,1)} 51.111111% {transform: translate(55px,73.351261px)} 100% {transform: translate(55px,73.351261px)} }#e6un4h06owh7248_tr {animation: e6un4h06owh7248_tr__tr 4500ms linear infinite normal forwards}@keyframes e6un4h06owh7248_tr__tr { 0% {transform: rotate(0deg)} 8.888889% {transform: rotate(0deg);animation-timing-function: cubic-bezier(0.420000,0,1,1)} 22.222222% {transform: rotate(-13.274260deg)} 31.111111% {transform: rotate(0deg);animation-timing-function: cubic-bezier(0.420000,0,1,1)} 42.222222% {transform: rotate(-13.274260deg);animation-timing-function: cubic-bezier(0.420000,0,1,1)} 51.111111% {transform: rotate(0deg)} 100% {transform: rotate(0deg)} }#e6un4h06owh7276_ts {animation: e6un4h06owh7276_ts__ts 4500ms linear infinite normal forwards}@keyframes e6un4h06owh7276_ts__ts { 0% {transform: translate(28.240000px,29.970079px) scale(0.013401,0.013401)} 26.666667% {transform: translate(28.240000px,29.970079px) scale(0.013401,0.013401);animation-timing-function: cubic-bezier(0.750000,0.005000,1,1)} 42.222222% {transform: translate(28.240000px,29.970079px) scale(0.700000,0.700000)} 53.333333% {transform: translate(28.240000px,29.970079px) scale(0.010000,0.010000)} 55.555556% {transform: translate(28.240000px,29.970079px) scale(0.010000,0.010000);animation-timing-function: cubic-bezier(0.665000,-0.010000,1,1)} 71.111111% {transform: translate(28.240000px,29.970079px) scale(0.700000,0.700000)} 100% {transform: translate(28.240000px,29.970079px) scale(0.700000,0.700000)} }#e6un4h06owh7276 {animation: e6un4h06owh7276_c_o 4500ms linear infinite normal forwards}@keyframes e6un4h06owh7276_c_o { 0% {opacity: 1} 33.333333% {opacity: 1} 42.222222% {opacity: 0} 53.333333% {opacity: 0} 55.555556% {opacity: 1} 64.444444% {opacity: 1} 71.111111% {opacity: 0} 100% {opacity: 0} }]]></style><defs><radialGradient id="e6un4h06owh7276-fill" cx="0" cy="0" r="0.500000" spreadMethod="pad" gradientUnits="objectBoundingBox" gradientTransform="matrix(1 0 0 1 0.50000000000000 0.50000000000000)"><stop id="e6un4h06owh7276-fill-0" offset="0%" stop-color="rgba(228,215,120,0.51)"/><stop id="e6un4h06owh7276-fill-1" offset="58%" stop-color="rgba(243,222,145,0.63)"/><stop id="e6un4h06owh7276-fill-2" offset="100%" stop-color="rgba(255,255,255,0)"/></radialGradient></defs><g id="e6un4h06owh72"><rect id="e6un4h06owh73" width="110" height="100" rx="0" ry="0" fill="none" stroke="none" stroke-width="1"/><g id="e6un4h06owh74"><g id="e6un4h06owh75"><rect id="e6un4h06owh76" width="2.270000" height="51.310000" rx="0" ry="0" transform="matrix(1 0 0 1 27.07000000000000 48.69000000000000)" fill="rgb(212,172,121)" stroke="none" stroke-width="1"/></g><g id="e6un4h06owh77"><rect id="e6un4h06owh78" width="25.200000" height="2.290000" rx="0" ry="0" transform="matrix(1 0 0 1 15.39000000000000 92.56000000000000)" fill="rgb(199,153,97)" stroke="none" stroke-width="1"/></g><g id="e6un4h06owh79"><path id="e6un4h06owh710" d="M25.440000,55.230000L15.720000,100L18,100L27.710000,55.230000Z" fill="rgb(212,172,121)" stroke="none" stroke-width="1"/></g><g id="e6un4h06owh711"><path id="e6un4h06owh712" d="M30.260000,55.220000L40,100L37.710000,100L28,55.220000Z" fill="rgb(212,172,121)" stroke="none" stroke-width="1"/></g><g id="e6un4h06owh713"><rect id="e6un4h06owh714" width="41.080000" height="30.140000" rx="0" ry="0" transform="matrix(1 0 0 1 7.67000000000000 51.80000000000000)" fill="rgb(234,201,151)" stroke="none" stroke-width="1"/></g><g id="e6un4h06owh715"><rect id="e6un4h06owh716" width="9.690000" height="1.670000" rx="0" ry="0" transform="matrix(1 0 0 1 23.25000000000000 80.27000000000000)" fill="rgb(222,186,133)" stroke="none" stroke-width="1"/></g><g id="e6un4h06owh717" style="isolation:isolate" opacity="0.1"><rect id="e6un4h06owh718" width="6.280000" height="7.890000" rx="0" ry="0" transform="matrix(1 0 0 1 40.05000000000000 71.48000000000000)" fill="rgb(29,29,27)" stroke="none" stroke-width="1"/></g><g id="e6un4h06owh719"><path id="e6un4h06owh720" d="M43.050000,79.370000L10.450000,79.370000L10.450000,53.830000L46.330000,53.830000L46.330000,71.930000Z" fill="rgb(255,255,255)" stroke="none" stroke-width="1"/></g><g id="e6un4h06owh721"><path id="e6un4h06owh722" d="M46.330000,71.920000L41.530000,76.810000C43.330000,76.810000,43.530000,78.190000,43.050000,79.370000Z" fill="rgb(237,237,237)" stroke="none" stroke-width="1"/></g></g><g id="e6un4h06owh723"><g id="e6un4h06owh724"><g id="e6un4h06owh725"><g id="e6un4h06owh726"><path id="e6un4h06owh727" d="M75.200000,91.130000L76.300000,91.130000C77.956854,91.130000,79.300000,92.473146,79.300000,94.130000L79.300000,98C79.300000,99.104569,78.404569,100,77.300000,100L74.200000,100C73.095431,100,72.200000,99.104569,72.200000,98L72.200000,94.130000C72.200000,92.473146,73.543146,91.130000,75.200000,91.130000Z" fill="rgb(76,84,90)" stroke="none" stroke-width="1"/></g><g id="e6un4h06owh728"><path id="e6un4h06owh729" d="M82.300000,91.130000L83.390000,91.130000C85.046854,91.130000,86.390000,92.473146,86.390000,94.130000L86.390000,98C86.390000,99.104569,85.494569,100,84.390000,100L81.300000,100C80.195431,100,79.300000,99.104569,79.300000,98L79.300000,94.130000C79.300000,92.473146,80.643146,91.130000,82.300000,91.130000Z" fill="rgb(76,84,90)" stroke="none" stroke-width="1"/></g><g id="e6un4h06owh730"><g id="e6un4h06owh731"><g id="e6un4h06owh732"><path id="e6un4h06owh733" d="M52.740000,29.700000C49.380000,36.600000,47.740000,48.430000,49.490000,57.100000C51.420000,66.540000,46.240000,69.250000,47.550000,75.590000C49.360000,81.140000,54.170000,85.120000,62.110000,85.590000C70.050000,86.060000,81.780000,84.780000,91.300000,87C100.820000,89.220000,108.680000,82.800000,109.400000,77.490000C110.120000,72.180000,107.330000,72.300000,106.400000,64.350000C105.980000,60.490000,106.930000,49.290000,107.230000,44.430000C107.521346,40.497757,106.780202,36.557630,105.080000,33C103.020000,28.400000,98.330000,19.500000,87.620000,16.380000C74.330000,11.850000,59,16.800000,52.740000,29.700000Z" fill="rgb(76,84,90)" stroke="none" stroke-width="1"/></g></g></g><g id="e6un4h06owh734" clip-path="url(#e6un4h06owh744)"><g id="e6un4h06owh735"><g id="e6un4h06owh736"><g id="e6un4h06owh737"><g id="e6un4h06owh738"><g id="e6un4h06owh739" opacity="0.2"><g id="e6un4h06owh740"><g id="e6un4h06owh741"><g id="e6un4h06owh742"><path id="e6un4h06owh743" d="M58.530000,48.300000C58.530000,48.300000,59.160000,62.440000,56.210000,69.570000C53.260000,76.700000,52.270000,82.630000,64.210000,87.360000C76.150000,92.090000,94.450000,90,97,88.860000C99.550000,87.720000,107,80.710000,101.320000,73.140000C95.640000,65.570000,98.320000,50.080000,98.320000,50.080000Z" fill="rgb(0,0,0)" stroke="none" stroke-width="1"/></g></g></g></g></g></g></g></g><clipPath id="e6un4h06owh744"><path id="e6un4h06owh745" d="M52.740000,29.700000C49.380000,36.600000,47.740000,48.430000,49.490000,57.100000C51.420000,66.540000,46.240000,69.250000,47.550000,75.590000C49.360000,81.140000,54.170000,85.120000,62.110000,85.590000C70.050000,86.060000,81.780000,84.780000,91.300000,87C100.820000,89.220000,108.680000,82.790000,109.400000,77.480000C110.120000,72.170000,107.330000,72.290000,106.400000,64.340000C105.690000,57.840000,106.980000,46.240000,107.220000,41.340000C107.460000,36.440000,101.960000,20.340000,87.850000,16.220000C74.610000,11.680000,59,16.800000,52.740000,29.700000Z" fill="none" stroke="none" stroke-width="1"/></clipPath></g><g id="e6un4h06owh746"><g id="e6un4h06owh747"><g id="e6un4h06owh748"><path id="e6un4h06owh749" d="M91.900000,77.740000L94.190000,76.500000L94.190000,76.500000L96.840000,81.500000C97.521811,82.746689,97.076471,84.309831,95.840000,85.010000L95.840000,85.010000C94.590334,85.692727,93.024072,85.247766,92.320000,84.010000L90.850000,81.220000C90.180196,79.957912,90.658977,78.391807,91.920000,77.720000Z" fill="rgb(253,223,188)" stroke="none" stroke-width="1"/></g></g><g id="e6un4h06owh750"><g id="e6un4h06owh751"><path id="e6un4h06owh752" d="M90.610000,67.500000C90.610000,67.500000,99.210000,78.630000,98.610000,79.860000C98.010000,81.090000,94.610000,81.520000,90.610000,85.260000C86.610000,89,87.610000,68.020000,88.610000,67.510000C89.234442,67.177914,89.982268,67.174175,90.610000,67.500000Z" fill="rgb(255,255,255)" stroke="none" stroke-width="1"/></g></g></g><g id="e6un4h06owh753_tr" transform="translate(66.825000,73.123718) rotate(0)"><g id="e6un4h06owh753" transform="translate(-66.825000,-73.123718)"><g id="e6un4h06owh754"><path id="e6un4h06owh755" d="M52.770000,71.660000C52.854761,70.951370,53.219692,70.306168,53.783341,69.868401C54.346990,69.430633,55.062438,69.236741,55.770000,69.330000L55.770000,69.330000L61.600000,70.050000L61.280000,72.700000C61.192670,73.407483,60.827077,74.051023,60.264082,74.488282C59.701087,74.925541,58.987086,75.120486,58.280000,75.030000L55.100000,74.640000C54.392517,74.552670,53.748977,74.187077,53.311718,73.624082C52.874459,73.061087,52.679514,72.347086,52.770000,71.640000Z" fill="rgb(253,223,188)" stroke="none" stroke-width="1"/></g><g id="e6un4h06owh756"><path id="e6un4h06owh757" d="M69.300000,71.420000C69.300000,71.420000,58.640000,66.830000,57.630000,67.730000C56.620000,68.630000,54.940000,74.730000,54.760000,76.280000C54.580000,77.830000,63.410000,79.280000,67.460000,79C68.180000,77.860000,69.300000,71.420000,69.300000,71.420000Z" fill="rgb(255,255,255)" stroke="none" stroke-width="1"/></g></g></g><g id="e6un4h06owh758"><g id="e6un4h06owh759"><g id="e6un4h06owh760"><path id="e6un4h06owh761" d="M69.890000,66.930000L87.570000,66.930000C89.176559,66.826759,90.567371,68.034804,90.690000,69.640000L92.770000,85.940000C92.770000,86.590000,88.770000,89.940000,79.840000,89.710000C70.910000,89.480000,64.730000,86.470000,64.690000,85.940000L66.760000,69.640000C66.811258,68.867537,67.168204,68.147338,67.751865,67.638745C68.335526,67.130153,69.097788,66.875094,69.870000,66.930000Z" fill="rgb(255,255,255)" stroke="none" stroke-width="1"/></g><g id="e6un4h06owh762"><path id="e6un4h06owh763" d="M66.770000,69.740000L70.620000,70.490000C70.620000,70.490000,69.830000,77.170000,70.620000,78.070000C70.620000,78.070000,85.170000,78.890000,86.300000,78.070000C87.430000,77.250000,87.010000,69.740000,87.010000,69.740000C87.010000,69.740000,88.110000,58.350000,90.110000,69.210000C92.110000,80.070000,94.660000,85.310000,93.530000,96.410000C86.940000,98.900000,71.610000,98.410000,64.670000,96.130000C64.040000,93.700000,64.420000,91.340000,64.670000,85.840000C64.920000,80.340000,66.770000,69.740000,66.770000,69.740000Z" fill="rgb(173,170,170)" stroke="none" stroke-width="1"/></g></g></g><g id="e6un4h06owh764"><g id="e6un4h06owh765"><g id="e6un4h06owh766"><g id="e6un4h06owh767"><path id="e6un4h06owh768" d="M78.200000,26.760000C91.644757,26.836985,102.504721,37.755024,102.510000,51.200000C102.510000,64.710000,91.640000,72.800000,78.200000,72.800000C64.760000,72.800000,53.820000,64.730000,53.820000,51.210000C53.819909,37.747230,64.707321,26.819576,78.170000,26.770000Z" fill="rgb(253,223,188)" stroke="none" stroke-width="1"/></g></g></g><g id="e6un4h06owh769" opacity="0.6"><g id="e6un4h06owh770"><g id="e6un4h06owh771"><path id="e6un4h06owh772" d="M78.100000,72.810000C75.142026,72.832119,72.196976,72.417655,69.360000,71.580000C70.535583,71.708698,71.717396,71.772128,72.900000,71.770000C79.159701,71.920754,85.275383,69.879835,90.190000,66C92.390593,64.160915,94.159147,61.859746,95.370000,59.260000C96.662838,56.436933,97.321610,53.364943,97.300000,50.260000C97.343608,39.591576,90.462195,30.127609,80.300000,26.880000C92.895406,28.017944,102.544403,38.573295,102.550000,51.220000C102.577691,54.343813,101.922405,57.435943,100.630000,60.280000C99.412721,62.892703,97.637770,65.206966,95.430000,67.060000C90.507328,70.951406,84.372515,72.986903,78.100000,72.810000Z" fill="rgb(255,213,163)" stroke="none" stroke-width="1"/></g></g></g><g id="e6un4h06owh773"><g id="e6un4h06owh774"><g id="e6un4h06owh775"><path id="e6un4h06owh776" d="M66.830000,53.780000L66.830000,53.780000C67.968707,53.790846,68.889154,54.711293,68.900000,55.850000L68.900000,57.930000C68.889154,59.068707,67.968707,59.989154,66.830000,60L66.830000,60C66.279271,60.002661,65.750186,59.785747,65.359820,59.397258C64.969454,59.008769,64.749994,58.480735,64.750000,57.930000L64.750000,55.850000C64.749994,55.299265,64.969454,54.771231,65.359820,54.382742C65.750186,53.994253,66.279271,53.777339,66.830000,53.780000Z" fill="rgb(76,84,90)" stroke="none" stroke-width="1"/></g></g></g><g id="e6un4h06owh777"><g id="e6un4h06owh778"><g id="e6un4h06owh779"><path id="e6un4h06owh780" d="M89.580000,53.780000L89.580000,53.780000C90.718707,53.790846,91.639154,54.711293,91.650000,55.850000L91.650000,57.930000C91.639154,59.068707,90.718707,59.989154,89.580000,60L89.580000,60C89.029271,60.002661,88.500186,59.785747,88.109820,59.397258C87.719454,59.008769,87.499994,58.480735,87.500000,57.930000L87.500000,55.850000C87.499994,55.299265,87.719454,54.771231,88.109820,54.382742C88.500186,53.994253,89.029271,53.777339,89.580000,53.780000Z" fill="rgb(76,84,90)" stroke="none" stroke-width="1"/></g></g></g><g id="e6un4h06owh781"><g id="e6un4h06owh782"><g id="e6un4h06owh783"><path id="e6un4h06owh784" d="M78,65.100000C77.115218,65.071199,76.246397,64.856549,75.450000,64.470000C75.026083,64.223734,74.862620,63.693022,75.074514,63.250921C75.286409,62.808820,75.802497,62.603810,76.260000,62.780000C76.805775,63.051296,77.401364,63.207851,78.010000,63.240000C78.558771,63.192891,79.092576,63.036489,79.580000,62.780000C80.013752,62.530284,80.567747,62.677718,80.820000,63.110000L80.820000,63.110000L80.820000,63.160000C80.942681,63.367724,80.976831,63.616005,80.914788,63.849137C80.852745,64.082269,80.699703,64.280733,80.490000,64.400000L80.430000,64.400000C79.681853,64.810455,78.851852,65.049550,78,65.100000Z" fill="rgb(76,84,90)" stroke="none" stroke-width="1"/></g></g></g><g id="e6un4h06owh785"><g id="e6un4h06owh786"><g id="e6un4h06owh787"><path id="e6un4h06owh788" d="M54.150000,46.880000C54.150000,46.880000,64.040000,44.050000,68.470000,38.880000C72.900000,33.710000,75.470000,36.400000,77.620000,37.600000C79.770000,38.800000,84.860000,43.430000,91.450000,46.410000C95.094384,48.168964,99.083463,49.097928,103.130000,49.130000C107.180000,49.130000,103.450000,35.300000,95.380000,30.210000C87.310000,25.120000,70.430000,20.760000,61.720000,30.210000C53.010000,39.660000,54.150000,46.880000,54.150000,46.880000Z" fill="rgb(76,84,90)" stroke="none" stroke-width="1"/></g></g></g></g><g id="e6un4h06owh789"><g id="e6un4h06owh790"><g id="e6un4h06owh791"><g id="e6un4h06owh792"><path id="e6un4h06owh793" d="M53.310000,51.630000C52.523923,51.380489,51.668074,51.687611,51.220000,52.380000C50.460000,53.610000,50.800000,57.030000,52.900000,58.940000C55,60.850000,56.900000,59.940000,56.900000,59.940000C56.900000,59.940000,54.900000,52.400000,54.370000,52.190000C53.985784,52.068791,53.626667,51.879069,53.310000,51.630000Z" fill="rgb(253,223,188)" stroke="none" stroke-width="1"/></g></g></g><g id="e6un4h06owh794"><g id="e6un4h06owh795"><g id="e6un4h06owh796"><path id="e6un4h06owh797" d="M103,52.260000C103.783441,51.988930,104.649831,52.301330,105.080000,53.010000C105.840000,54.250000,105.520000,57.670000,103.410000,59.570000C101.300000,61.470000,99.410000,60.570000,99.410000,60.570000C99.410000,60.570000,101.410000,53.040000,101.950000,52.830000C102.329457,52.700156,102.684399,52.507473,103,52.260000Z" fill="rgb(254,217,173)" stroke="none" stroke-width="1"/></g></g></g><g id="e6un4h06owh798"><g id="e6un4h06owh799"><g id="e6un4h06owh7100"><path id="e6un4h06owh7101" d="M54.080000,45.630000C54.080000,45.630000,52.320000,57.400000,57,66C61.680000,74.600000,65.400000,74.310000,65.400000,74.310000C65.400000,74.310000,53.330000,65.700000,57.720000,50.710000C62.110000,35.720000,55,43.770000,55,43.770000Z" fill="rgb(76,84,90)" stroke="none" stroke-width="1"/></g></g></g><g id="e6un4h06owh7102"><g id="e6un4h06owh7103"><g id="e6un4h06owh7104"><path id="e6un4h06owh7105" d="M102.310000,45.630000C102.310000,45.630000,104.060000,57.400000,99.310000,66C94.560000,74.600000,91,74.310000,91,74.310000C91,74.310000,103,65.710000,98.670000,50.710000C94.340000,35.710000,101.390000,43.780000,101.390000,43.780000Z" fill="rgb(76,84,90)" stroke="none" stroke-width="1"/></g></g></g></g></g></g><g id="e6un4h06owh7106" opacity="0.4"><rect id="e6un4h06owh7107" width="15" height="8" rx="1" ry="1" transform="matrix(1 0 0 1 71 87)" fill="rgb(0,0,0)" stroke="none" stroke-width="1"/></g></g><g id="e6un4h06owh7108" clip-path="url(#e6un4h06owh7123)"><g id="e6un4h06owh7109"><g id="e6un4h06owh7110"><g id="e6un4h06owh7111"><g id="e6un4h06owh7112"><path id="e6un4h06owh7113" d="M93.560000,10.600000C104.560000,15.050000,111.950000,24.370000,107.670000,32.280000C103.390000,40.190000,97.390000,28.630000,85.450000,26.740000C73.510000,24.850000,66,21.400000,68.570000,15.060000C72,6.490000,82.550000,6.150000,93.560000,10.600000Z" fill="rgb(155,123,109)" stroke="none" stroke-width="1"/></g><g id="e6un4h06owh7114" clip-path="url(#e6un4h06owh7119)"><g id="e6un4h06owh7115"><g id="e6un4h06owh7116" opacity="0.2"><g id="e6un4h06owh7117"><path id="e6un4h06owh7118" d="M68,9.770000C68,9.770000,70.780000,20,88.620000,22.430000C97.840000,23.700000,100.830000,31.850000,104.620000,31.370000C106.410000,31.140000,107.390000,29.950000,109.480000,26.030000C112.480000,20.440000,109.480000,38.630000,109.480000,38.630000L93.480000,38.230000L68.480000,26.680000L64.210000,15.280000Z" fill="rgb(0,0,0)" stroke="none" stroke-width="1"/></g></g></g><clipPath id="e6un4h06owh7119"><path id="e6un4h06owh7120" d="M93.560000,10.600000C104.560000,15.050000,111.950000,24.370000,107.670000,32.280000C103.390000,40.190000,97.390000,28.630000,85.450000,26.740000C73.510000,24.850000,66,21.400000,68.570000,15.060000C72,6.490000,82.550000,6.150000,93.560000,10.600000Z" fill="none" stroke="none" stroke-width="1"/></clipPath></g><g id="e6un4h06owh7121"><path id="e6un4h06owh7122" d="M102.500000,13C104.140000,13,105,13.900000,105,15C104.848534,16.235215,103.738337,17.123373,102.500000,17C101.120000,17,99.250000,16.410000,99.250000,15.310000C99.250000,14.210000,99.590000,13.050000,102.500000,13Z" fill="rgb(155,123,109)" stroke="none" stroke-width="1"/></g></g></g></g><clipPath id="e6un4h06owh7123"><rect id="e6un4h06owh7124" width="43" height="35" rx="0" ry="0" transform="matrix(1 0 0 1 67 4)" fill="none" stroke="none" stroke-width="1"/></clipPath></g><g id="e6un4h06owh7125" clip-path="url(#e6un4h06owh7155)"><g id="e6un4h06owh7126"><g id="e6un4h06owh7127"><g id="e6un4h06owh7128"><g id="e6un4h06owh7129"><path id="e6un4h06owh7130" d="M107.810000,78.920000C108.910000,75.280000,108.490000,71.040000,106.040000,68.130000C104.579304,66.501921,102.722588,65.279037,100.650000,64.580000C96.470000,63.040000,91.220000,63.170000,88.150000,66.410000C87.091614,67.722738,86.138646,69.117080,85.300000,70.580000C83.658182,72.977628,81.403113,74.890811,78.770000,76.120000C77.535052,76.555850,76.379777,77.190913,75.350000,78C73.858442,79.656838,73.489444,82.039622,74.410000,84.070000C75.343907,86.043526,76.826285,87.706428,78.680000,88.860000C82.920000,91.800000,89.270000,93.630000,94.440000,92.420000C100.390000,91.050000,106.080000,84.560000,107.810000,78.920000Z" fill="rgb(247,204,138)" stroke="none" stroke-width="1"/></g><g id="e6un4h06owh7131"><path id="e6un4h06owh7132" d="M80.850000,79.520000C80.039677,78.731883,78.788023,78.619234,77.850000,79.250000C76.100000,80.450000,76.260000,84.100000,78.850000,84.050000C80.850000,84,82.310000,81.100000,80.850000,79.520000Z" fill="rgb(255,255,255)" stroke="none" stroke-width="1"/></g><g id="e6un4h06owh7133" style="isolation:isolate" opacity="0.2"><path id="e6un4h06owh7134" d="M105.330000,73.170000C104.878502,72.856774,104.356126,72.660883,103.810000,72.600000C103.635069,72.564980,103.454931,72.564980,103.280000,72.600000C103.079349,72.669802,102.900199,72.790384,102.760000,72.950000C102.383316,73.286834,102.097818,73.713361,101.930000,74.190000C101.782646,74.781933,101.887673,75.408476,102.220000,75.920000C102.627583,76.565840,103.326903,76.969726,104.090000,77C104.866309,76.862033,105.510312,76.320918,105.780000,75.580000C106.108863,74.757258,105.933600,73.818631,105.330000,73.170000Z" fill="rgb(224,30,56)" stroke="none" stroke-width="1"/></g><g id="e6un4h06owh7135"><path id="e6un4h06owh7136" d="M105.450000,73.730000C105.004217,73.411332,104.484485,73.211700,103.940000,73.150000C103.761706,73.114957,103.578294,73.114957,103.400000,73.150000C103.201258,73.223572,103.022973,73.343571,102.880000,73.500000C102.504934,73.838238,102.219733,74.264322,102.050000,74.740000C101.901409,75.331884,102.006520,75.958925,102.340000,76.470000C102.746332,77.126309,103.449064,77.541220,104.220000,77.580000C104.994341,77.442644,105.635581,76.900644,105.900000,76.160000C106.242699,75.332173,106.066410,74.380214,105.450000,73.730000Z" fill="rgb(247,228,149)" stroke="none" stroke-width="1"/></g><g id="e6un4h06owh7137" style="isolation:isolate" opacity="0.2"><path id="e6un4h06owh7138" d="M103.610000,80.710000C103.460811,80.201279,103.094948,79.784196,102.610000,79.570000C102.123077,79.369964,101.576923,79.369964,101.090000,79.570000C100.320863,79.865595,99.791208,80.578293,99.730000,81.400000C99.702744,82.219430,100.178367,82.972500,100.930000,83.300000C101.468390,83.465148,102.050365,83.409299,102.547521,83.144774C103.044678,82.880250,103.416158,82.428789,103.580000,81.890000C103.708486,81.508642,103.718942,81.097394,103.610000,80.710000Z" fill="rgb(224,30,56)" stroke="none" stroke-width="1"/></g><g id="e6un4h06owh7139"><path id="e6un4h06owh7140" d="M103.630000,81.260000C103.474878,80.754565,103.110917,80.339649,102.630000,80.120000C102.140158,79.917215,101.589842,79.917215,101.100000,80.120000C100.330861,80.409973,99.800129,81.120217,99.740000,81.940000C99.712744,82.759430,100.188367,83.512500,100.940000,83.840000C101.479711,84.008223,102.064257,83.953918,102.563743,83.689153C103.063229,83.424388,103.436280,82.971094,103.600000,82.430000C103.715458,82.049863,103.725825,81.645555,103.630000,81.260000Z" fill="rgb(224,131,143)" stroke="none" stroke-width="1"/></g><g id="e6un4h06owh7141" style="isolation:isolate" opacity="0.2"><path id="e6un4h06owh7142" d="M92.320000,89.160000C92.610145,88.574692,92.560390,87.878127,92.190000,87.340000C91.823443,86.797567,91.214614,86.468874,90.560000,86.460000C89.861035,86.441996,89.199789,86.776376,88.800000,87.350000C88.391160,87.945883,88.360061,88.723366,88.720000,89.350000C89.066446,89.815479,89.584170,90.123633,90.158518,90.206219C90.732865,90.288805,91.316438,90.139007,91.780000,89.790000C91.996705,89.614474,92.179682,89.401001,92.320000,89.160000Z" fill="rgb(224,30,56)" stroke="none" stroke-width="1"/></g><g id="e6un4h06owh7143"><path id="e6un4h06owh7144" d="M92.170000,89.710000C92.448110,89.114085,92.383120,88.414489,92,87.880000C91.641559,87.348911,91.050363,87.021708,90.410000,87C89.707531,86.978589,89.041754,87.313359,88.640000,87.890000C88.231894,88.487044,88.204635,89.265884,88.570000,89.890000C89.294708,90.854449,90.662914,91.051184,91.630000,90.330000C91.845035,90.156672,92.027833,89.946794,92.170000,89.710000Z" fill="rgb(57,157,220)" stroke="none" stroke-width="1"/></g><g id="e6un4h06owh7145" style="isolation:isolate" opacity="0.2"><path id="e6un4h06owh7146" d="M86.050000,86.750000C85.586149,86.189827,84.854767,85.925610,84.140000,86.060000C83.427578,86.226986,82.881810,86.800239,82.750000,87.520000C82.692288,88.548001,83.463902,89.434914,84.490000,89.520000C84.668763,89.549838,84.851237,89.549838,85.030000,89.520000C85.955507,89.338254,86.564878,88.448661,86.400000,87.520000C86.350486,87.237816,86.230047,86.972851,86.050000,86.750000Z" fill="rgb(224,30,56)" stroke="none" stroke-width="1"/></g><g id="e6un4h06owh7147"><path id="e6un4h06owh7148" d="M86,87.200000C85.548807,86.628238,84.812942,86.361003,84.100000,86.510000C83.360411,86.661962,82.791452,87.254793,82.670000,88C82.606846,89.029857,83.381311,89.920046,84.410000,90C84.586092,90.020158,84.763908,90.020158,84.940000,90C85.869566,89.822946,86.484396,88.931888,86.320000,88C86.285606,87.709816,86.175221,87.433853,86,87.200000Z" fill="rgb(136,214,175)" stroke="none" stroke-width="1"/></g><g id="e6un4h06owh7149" style="isolation:isolate" opacity="0.2"><path id="e6un4h06owh7150" d="M98.530000,85.330000C98.066149,84.769827,97.334767,84.505610,96.620000,84.640000C95.906220,84.804609,95.359369,85.378999,95.230000,86.100000C95.185912,86.608121,95.349056,87.112492,95.682373,87.498536C96.015690,87.884581,96.490881,88.119526,97,88.150000C97.175373,88.180230,97.354627,88.180230,97.530000,88.150000C98.459566,87.972946,99.074396,87.081888,98.910000,86.150000C98.860123,85.847238,98.728759,85.563768,98.530000,85.330000Z" fill="rgb(224,30,56)" stroke="none" stroke-width="1"/></g><g id="e6un4h06owh7151"><path id="e6un4h06owh7152" d="M98.300000,85.860000C97.840298,85.299619,97.113386,85.031809,96.400000,85.160000C95.679419,85.322534,95.127212,85.902352,95,86.630000C94.958531,87.132664,95.118628,87.631190,95.445011,88.015722C95.771394,88.400254,96.237278,88.639234,96.740000,88.680000C96.915771,88.705163,97.094229,88.705163,97.270000,88.680000C98.202777,88.507888,98.820156,87.613135,98.650000,86.680000C98.609800,86.379999,98.488822,86.096564,98.300000,85.860000Z" fill="rgb(234,177,185)" stroke="none" stroke-width="1"/></g><g id="e6un4h06owh7153" style="isolation:isolate" opacity="0.09"><path id="e6un4h06owh7154" d="M98.530000,77.500000C99.160000,76.270000,99.590000,74.940000,100.160000,73.680000C100.499559,73.051480,100.748684,72.378169,100.900000,71.680000C101.054668,70.266237,100.323397,68.903052,99.060000,68.250000C97.787233,67.646104,96.290632,67.756260,95.120000,68.540000C94.460567,69.051010,93.848130,69.619941,93.290000,70.240000C92.361462,71.128189,91.276513,71.836796,90.090000,72.330000C89.214628,72.609617,88.370217,72.978209,87.570000,73.430000C86.868110,73.947252,86.285053,74.608732,85.860000,75.370000C84.510000,77.640000,83.530000,82.190000,86.330000,83.900000C88.770000,85.390000,92.980000,83.200000,94.950000,81.720000C96.442701,80.597483,97.665814,79.155713,98.530000,77.500000Z" fill="rgb(224,30,56)" stroke="none" stroke-width="1"/></g></g></g></g><clipPath id="e6un4h06owh7155"><rect id="e6un4h06owh7156" width="39" height="35" rx="0" ry="0" transform="matrix(1 0 0 1 71 61)" fill="none" stroke="none" stroke-width="1"/></clipPath></g><g id="e6un4h06owh7157_to" transform="translate(35.890000,51.679979)"><g id="e6un4h06owh7157_tr" transform="rotate(0)"><g id="e6un4h06owh7157" transform="translate(-35.890000,-51.679979)"><g id="e6un4h06owh7158"><g id="e6un4h06owh7159"><g id="e6un4h06owh7160"><g id="e6un4h06owh7161"><g id="e6un4h06owh7162"><g id="e6un4h06owh7163"><path id="e6un4h06owh7164" d="M19,30.900000L16.820000,39.660000C16.820000,39.660000,14.120000,50.540000,21.870000,51.750000C24.420000,52.140000,27.040000,51.750000,30.030000,51.750000C34.570000,51.750000,35.400000,52.580000,38.970000,51.570000L39.450000,51.420000C43.130000,50.220000,43.820000,46.590000,43.680000,40.420000C43.680000,38.550000,41.060000,30.850000,41.060000,30.850000Z" fill="rgb(163,216,242)" stroke="none" stroke-width="1"/></g></g><g id="e6un4h06owh7165"><path id="e6un4h06owh7166" d="M20.630000,49.500000C18.692793,49.642067,16.750762,49.298345,14.980000,48.500000C12.730000,47.220000,12.230000,45.380000,11.630000,44.380000C10.830000,43.240000,9.490000,41.960000,7.870000,42.480000C6.250000,43,5.740000,45.070000,7.500000,47.480000C9.260000,49.890000,15.410000,52.240000,21.170000,50.590000C26.930000,48.940000,20.630000,49.500000,20.630000,49.500000Z" fill="rgb(163,216,242)" stroke="none" stroke-width="1"/></g><g id="e6un4h06owh7167" clip-path="url(#e6un4h06owh7172)"><g id="e6un4h06owh7168"><g id="e6un4h06owh7169"><g id="e6un4h06owh7170"><path id="e6un4h06owh7171" d="M20.630000,49.500000C18.695575,49.651214,16.754519,49.307055,14.990000,48.500000C12.740000,47.220000,12.230000,45.390000,11.630000,44.390000C10.830000,43.250000,9.490000,41.960000,7.870000,42.480000C6.250000,43,5.750000,45.080000,7.500000,47.480000C9.250000,49.880000,15.420000,52.250000,21.170000,50.590000C26.920000,48.930000,20.630000,49.500000,20.630000,49.500000Z" fill="rgb(1,159,222)" stroke="none" stroke-width="1"/></g></g></g><clipPath id="e6un4h06owh7172"><path id="e6un4h06owh7173" d="M12.630000,43.270000C10.319397,43.547971,8.356373,45.090622,7.540000,47.270000C6.350000,50.910000,5,41.920000,5,41.920000L8.900000,39.590000Z" fill="none" stroke="none" stroke-width="1"/></clipPath></g></g><g id="e6un4h06owh7174"><g id="e6un4h06owh7175"><g id="e6un4h06owh7176"><path id="e6un4h06owh7177" d="M11.780000,23.940000C11.780000,23.940000,5.840000,13.850000,10.210000,11C14.580000,8.150000,21.090000,13.360000,21.520000,13.700000C21.520000,13.700000,28.340000,10.230000,35.040000,12.460000C35.400000,12.660000,41.310000,6.970000,45.900000,8.570000C50.490000,10.170000,45.900000,21.340000,45.900000,21.340000C45.900000,21.340000,46.730000,28.540000,49.450000,30.090000C49.650000,30.450000,47.230000,31.660000,46.450000,31.400000C47.250084,31.701315,48.082248,31.909356,48.930000,32.020000C49.777752,32.130644,39.640000,39.680000,29.560000,39.580000C19.480000,39.480000,13.460000,35.860000,12.410000,35.120000C13.099172,34.833716,13.767470,34.499567,14.410000,34.120000C14.610000,34.020000,10.960000,33.620000,9.410000,31.970000C8.910000,31.470000,13.240000,28.750000,12.680000,25.780000C12.300000,24.220000,11.780000,23.940000,11.780000,23.940000Z" fill="rgb(163,216,242)" stroke="none" stroke-width="1"/></g></g><g id="e6un4h06owh7178" opacity="0.7"><g id="e6un4h06owh7179"><path id="e6un4h06owh7180" d="M14.060000,20.580000C14.060000,20.580000,16.060000,16.670000,18.280000,15.820000C18.280000,15.640000,13.280000,12.560000,11.970000,13.940000C10.660000,15.320000,14.060000,20.580000,14.060000,20.580000Z" fill="rgb(255,255,255)" stroke="none" stroke-width="1"/></g></g><g id="e6un4h06owh7181" opacity="0.7"><g id="e6un4h06owh7182"><path id="e6un4h06owh7183" d="M38,14.740000C38,14.740000,42.200000,15.980000,43.400000,18.090000C43.540000,18.090000,45.720000,12.610000,44.140000,11.550000C42.560000,10.490000,38,14.740000,38,14.740000Z" fill="rgb(255,255,255)" stroke="none" stroke-width="1"/></g></g><g id="e6un4h06owh7184"><g id="e6un4h06owh7185"><circle id="e6un4h06owh7186" r="1.390000" transform="matrix(1 0 0 1 21.81000000000000 26.05000000000000)" fill="rgb(76,84,90)" stroke="none" stroke-width="1"/></g></g><g id="e6un4h06owh7187"><g id="e6un4h06owh7188"><circle id="e6un4h06owh7189" r="1.390000" transform="matrix(1 0 0 1 37.65000000000000 26.74000000000000)" fill="rgb(76,84,90)" stroke="none" stroke-width="1"/></g></g><g id="e6un4h06owh7190"><g id="e6un4h06owh7191"><g id="e6un4h06owh7192"><path id="e6un4h06owh7193" d="M9.080000,31.720000C8.889106,31.746414,8.709902,31.621880,8.668096,31.433756C8.626291,31.245632,8.735885,31.056921,8.920000,31C10.265779,30.378511,11.763610,30.163046,13.230000,30.380000C13.327928,30.392195,13.416556,30.444055,13.475159,30.523454C13.533763,30.602852,13.557204,30.702827,13.540000,30.800000C13.496011,30.993035,13.317426,31.124848,13.120000,31.110000C11.793204,30.913065,10.437776,31.107691,9.220000,31.670000C9.177154,31.679188,9.132846,31.679188,9.090000,31.670000Z" fill="rgb(112,112,112)" stroke="none" stroke-width="1"/></g></g><g id="e6un4h06owh7194"><g id="e6un4h06owh7195"><path id="e6un4h06owh7196" d="M50.590000,31.660000C50.540497,31.669966,50.489503,31.669966,50.440000,31.660000C49.220952,31.113798,47.868648,30.936504,46.550000,31.150000C46.344105,31.180652,46.150431,31.044200,46.110000,30.840000C46.080132,30.638542,46.218686,30.450824,46.420000,30.420000C47.880539,30.182546,49.378636,30.377194,50.730000,30.980000C50.916814,31.058284,51.005958,31.272228,50.930000,31.460000C50.868604,31.590265,50.733686,31.669629,50.590000,31.660000Z" fill="rgb(112,112,112)" stroke="none" stroke-width="1"/></g></g><g id="e6un4h06owh7197"><g id="e6un4h06owh7198"><path id="e6un4h06owh7199" d="M9.830000,34.540000C9.731041,34.542789,9.635301,34.504704,9.565299,34.434701C9.495296,34.364699,9.457211,34.268959,9.460000,34.170000C9.456831,34.053535,9.508703,33.942381,9.600000,33.870000C10.791288,32.986652,12.210498,32.462689,13.690000,32.360000C13.896517,32.342563,14.078919,32.493823,14.100000,32.700000C14.107365,32.903224,13.961077,33.079630,13.760000,33.110000C12.401097,33.188127,11.094451,33.660743,10,34.470000C9.951108,34.508966,9.892153,34.533241,9.830000,34.540000Z" fill="rgb(112,112,112)" stroke="none" stroke-width="1"/></g></g><g id="e6un4h06owh7200"><g id="e6un4h06owh7201"><path id="e6un4h06owh7202" d="M49.870000,34.540000C49.787875,34.541469,49.707382,34.516971,49.640000,34.470000C48.559601,33.669789,47.271611,33.197642,45.930000,33.110000C45.724932,33.084277,45.573226,32.906564,45.580000,32.700000C45.585159,32.604469,45.628132,32.514920,45.699430,32.451128C45.770728,32.387335,45.864485,32.354546,45.960000,32.360000L45.960000,32.360000C47.434059,32.473667,48.847105,32.996633,50.040000,33.870000C50.198458,33.996825,50.229280,34.225787,50.110000,34.390000C50.040824,34.486376,49.928607,34.542485,49.810000,34.540000Z" fill="rgb(112,112,112)" stroke="none" stroke-width="1"/></g></g></g></g></g><g id="e6un4h06owh7203"><g id="e6un4h06owh7204"><g id="e6un4h06owh7205"><path id="e6un4h06owh7206" d="M28.480000,13.340000C28.172026,13.342659,27.910380,13.115327,27.870000,12.810000C27.790000,12.180000,27.360000,10.260000,26.450000,9.760000C26.149136,9.596970,26.037244,9.221013,26.200000,8.920000L26.200000,8.920000C26.370073,8.627951,26.737911,8.518476,27.040000,8.670000C28.660000,9.570000,29.040000,12.390000,29.040000,12.670000C29.062668,12.832023,29.019303,12.996360,28.919645,13.126104C28.819987,13.255848,28.672389,13.340122,28.510000,13.360000Z" fill="rgb(128,75,51)" stroke="none" stroke-width="1"/></g></g><g id="e6un4h06owh7207"><path id="e6un4h06owh7208" d="M22.880000,7.930000C22.220000,8.870000,24.690000,10.870000,26.600000,10.250000C28.510000,9.630000,26.600000,7.500000,25.850000,7.160000C24.796640,6.765433,23.608970,7.073348,22.880000,7.930000Z" fill="rgb(108,206,157)" stroke="none" stroke-width="1"/></g><g id="e6un4h06owh7209"><g id="e6un4h06owh7210"><path id="e6un4h06owh7211" d="M31.740000,7.650000C32.490000,8.500000,30.320000,10.800000,28.340000,10.410000C26.360000,10.020000,27.950000,7.680000,28.720000,7.250000C29.704756,6.739993,30.903273,6.899795,31.720000,7.650000Z" fill="rgb(108,206,157)" stroke="none" stroke-width="1"/></g></g></g><g id="e6un4h06owh7212"><path id="e6un4h06owh7213" d="M29.390000,37.420000C31.543633,37.451592,33.596482,38.337538,35.096823,39.882890C36.597165,41.428241,37.422062,43.506373,37.390000,45.660000C37.390000,50.210000,33.810000,50.780000,29.390000,50.780000C24.970000,50.780000,21.390000,50.210000,21.390000,45.660000C21.328778,41.177455,24.907604,37.491265,29.390000,37.420000Z" fill="rgb(255,255,255)" stroke="none" stroke-width="1"/></g></g><g id="e6un4h06owh7214"><path id="e6un4h06owh7215" d="M28.350000,31.430000C27.852212,31.433933,27.370848,31.252085,27,30.920000C26.905344,30.826117,26.852101,30.698319,26.852101,30.565000C26.852101,30.431681,26.905344,30.303883,27,30.210000C27.197814,30.018217,27.512186,30.018217,27.710000,30.210000C27.909933,30.402010,28.180597,30.502415,28.457383,30.487248C28.734170,30.472082,28.992243,30.342705,29.170000,30.130000C29.264119,30.028219,29.392104,29.964226,29.530000,29.950000C29.666212,29.935171,29.802772,29.974701,29.910000,30.060000C30.134608,30.265968,30.432333,30.373432,30.736711,30.358401C31.041089,30.343370,31.326778,30.207096,31.530000,29.980000C31.623883,29.885344,31.751681,29.832101,31.885000,29.832101C32.018319,29.832101,32.146117,29.885344,32.240000,29.980000C32.431783,30.177814,32.431783,30.492186,32.240000,30.690000C31.853909,31.109103,31.319066,31.360372,30.750000,31.390000C30.325897,31.384576,29.913805,31.248376,29.570000,31C29.222193,31.274519,28.793071,31.425767,28.350000,31.430000Z" fill="rgb(76,84,90)" stroke="none" stroke-width="1"/></g></g><g id="e6un4h06owh7216"><g id="e6un4h06owh7217"><g id="e6un4h06owh7218"><g id="e6un4h06owh7219"><g id="e6un4h06owh7220"><g id="e6un4h06owh7221"><g id="e6un4h06owh7222" opacity="0.8"><g id="e6un4h06owh7223"><path id="e6un4h06owh7224" d="M24.540000,27.080000C23.115692,27.189705,21.897910,28.147030,21.455023,29.505169C21.012137,30.863307,21.431465,32.354491,22.517295,33.282747C23.603126,34.211004,25.141380,34.393320,26.414116,33.744604C27.686851,33.095888,28.443139,31.744039,28.330000,30.320000L28.330000,30.320000C28.175858,28.379872,26.480494,26.930537,24.540000,27.080000Z" fill="rgb(255,250,250)" stroke="none" stroke-width="1"/></g></g><g id="e6un4h06owh7225"><g id="e6un4h06owh7226" opacity="0.1"><path id="e6un4h06owh7227" d="M31.090000,23.160000L29.600000,23.290000L27.540000,21.660000L22.260000,22.110000L20.860000,24L17.670000,24.270000C17.568077,23.754909,17.124773,23.377893,16.600000,23.360000L14.340000,23.550000C13.817761,23.653585,13.438673,24.107658,13.430000,24.640000C11.826203,24.919271,10.701808,26.377946,10.840000,28L11.600000,37.150000C11.738122,38.889671,13.260321,40.188017,15,40.050000L32.390000,38.590000C33.219446,38.521323,33.987385,38.125128,34.524067,37.488991C35.060748,36.852855,35.321974,36.029166,35.250000,35.200000L34.490000,26C34.321059,24.284396,32.808270,23.020773,31.090000,23.160000ZM14.360000,36.160000C14.387614,36.485848,14.145848,36.772386,13.820000,36.800000C13.494152,36.827614,13.207614,36.585848,13.180000,36.260000L13.180000,36.260000L12.660000,30C12.642137,29.789213,12.738084,29.584908,12.911699,29.464045C13.085314,29.343182,13.310220,29.324122,13.501699,29.414045C13.693177,29.503968,13.822137,29.689213,13.840000,29.900000ZM17.160000,26.700000C17.173800,26.867206,17.120337,27.033009,17.011460,27.160657C16.902584,27.288305,16.747289,27.367253,16.580000,27.380000L14.980000,27.510000C14.635284,27.538913,14.331735,27.284468,14.300000,26.940000L14.300000,26.570000C14.286200,26.402794,14.339663,26.236991,14.448540,26.109343C14.557416,25.981695,14.712711,25.902747,14.880000,25.890000L16.480000,25.760000C16.824716,25.731087,17.128265,25.985532,17.160000,26.330000ZM26.420000,36.490000C23.681658,36.706661,21.281316,34.673697,21.044278,31.937043C20.807239,29.200390,22.822279,26.784982,25.557092,26.527578C28.291905,26.270175,30.722246,28.267179,31,31L31,31C31.119008,32.328758,30.702070,33.649975,29.841934,34.669743C28.981797,35.689511,27.749800,36.323256,26.420000,36.430000Z" fill="rgb(0,0,0)" stroke="none" stroke-width="1"/></g><g id="e6un4h06owh7228"><path id="e6un4h06owh7229" d="M30,22.270000L28.510000,22.400000L26.450000,20.770000L21.170000,21.210000L19.770000,23.130000L16.580000,23.400000C16.478077,22.884909,16.034773,22.507893,15.510000,22.490000L13.250000,22.680000C12.727761,22.783585,12.348673,23.237658,12.340000,23.770000C10.736203,24.049271,9.611808,25.507946,9.750000,27.130000L10.510000,36.280000C10.658485,38.011652,12.177509,39.298355,13.910000,39.160000L31.290000,37.700000C32.119446,37.631323,32.887385,37.235128,33.424067,36.598991C33.960748,35.962855,34.221974,35.139166,34.150000,34.310000L33.390000,25.150000C33.241446,23.422558,31.728742,22.137429,30,22.270000ZM13.270000,35.270000C13.297614,35.595848,13.055848,35.882386,12.730000,35.910000C12.404152,35.937614,12.117614,35.695848,12.090000,35.370000L12.090000,35.370000L11.570000,29.120000C11.552137,28.909213,11.648084,28.704908,11.821699,28.584045C11.995314,28.463182,12.220220,28.444122,12.411699,28.534045C12.603177,28.623968,12.732137,28.809213,12.750000,29.020000ZM16.070000,25.810000C16.083800,25.977206,16.030337,26.143009,15.921460,26.270657C15.812584,26.398305,15.657289,26.477253,15.490000,26.490000L13.890000,26.620000C13.714514,26.636801,13.540016,26.579306,13.408887,26.461480C13.277758,26.343655,13.201996,26.176277,13.200000,26L13.200000,25.630000C13.186200,25.462794,13.239663,25.296991,13.348540,25.169343C13.457416,25.041695,13.612711,24.962747,13.780000,24.950000L15.380000,24.820000C15.724716,24.791087,16.028265,25.045532,16.060000,25.390000ZM25.330000,35.600000C22.584784,35.819862,20.178637,33.778424,19.948345,31.034062C19.718053,28.289701,21.750333,25.875815,24.493799,25.635095C27.237265,25.394376,29.658857,27.417468,29.910000,30.160000L29.910000,30.160000C30.029008,31.488758,29.612070,32.809975,28.751934,33.829743C27.891797,34.849511,26.659800,35.483256,25.330000,35.590000Z" fill="rgb(82,100,108)" stroke="none" stroke-width="1"/></g></g></g></g></g><g id="e6un4h06owh7230"><path id="e6un4h06owh7231" d="M21.760000,22L26.120000,21.670000L27.120000,22.670000L21.360000,23.140000Z" fill="rgb(255,255,255)" stroke="none" stroke-width="1"/></g><g id="e6un4h06owh7232"><path id="e6un4h06owh7233" d="M30.310000,25.260000C30.207612,25.516966,29.921972,25.648800,29.660000,25.560000C29.535493,25.515131,29.434431,25.421805,29.379809,25.301259C29.325186,25.180712,29.321648,25.043196,29.370000,24.920000C29.469214,24.668207,29.750759,24.541058,30.005258,24.633111C30.259756,24.725163,30.394818,25.003000,30.310000,25.260000Z" fill="rgb(255,255,255)" stroke="none" stroke-width="1"/></g></g></g><g id="e6un4h06owh7234"><path id="e6un4h06owh7235" d="M24.480000,25C27.500500,24.680096,30.208487,26.869226,30.528634,29.889700C30.848780,32.910174,28.659869,35.618337,25.639420,35.938727C22.618972,36.259117,19.910633,34.070423,19.590000,31.050000C19.435994,29.599231,19.864703,28.146712,20.781790,27.012075C21.698877,25.877438,23.029194,25.153656,24.480000,25Z" fill="rgb(0,0,0)" stroke="none" stroke-width="1"/></g><g id="e6un4h06owh7236" style="isolation:isolate" opacity="0.9"><circle id="e6un4h06owh7237" r="4.500000" transform="matrix(1 0 0 1 25.06000000000000 30.51000000000000)" fill="rgb(255,255,255)" stroke="none" stroke-width="1"/></g><g id="e6un4h06owh7238"><path id="e6un4h06owh7239" d="M12.150000,27.350000L12.150000,27.350000C12.413918,27.322009,12.678139,27.400079,12.884462,27.567013C13.090785,27.733948,13.222286,27.976053,13.250000,28.240000L13.980000,35.240000C14.007991,35.503918,13.929921,35.768139,13.762987,35.974462C13.596052,36.180785,13.353947,36.312286,13.090000,36.340000L13.090000,36.340000C12.826082,36.367991,12.561861,36.289921,12.355538,36.122987C12.149215,35.956052,12.017714,35.713947,11.990000,35.450000L11.260000,28.450000C11.232009,28.186082,11.310079,27.921861,11.477013,27.715538C11.643948,27.509215,11.886053,27.377714,12.150000,27.350000Z" fill="rgb(255,255,255)" stroke="none" stroke-width="1"/></g><g id="e6un4h06owh7240" style="isolation:isolate" opacity="0.9"><rect id="e6un4h06owh7241" width="3" height="1.800000" rx="0.600000" ry="0.600000" transform="matrix(0.99448500000000 -0.10487600000000 0.10487600000000 0.99448500000000 12.88780374000000 24.85254417000000)" fill="rgb(82,100,108)" stroke="none" stroke-width="1"/></g></g><g id="e6un4h06owh7242"><g id="e6un4h06owh7243"><path id="e6un4h06owh7244" d="M35.820000,34.210000C31.500000,33.640000,30.130000,34.870000,30.290000,36.390000C30.450000,37.910000,35.930000,39.640000,35.930000,39.640000C35.930000,39.640000,38.230000,34.520000,35.820000,34.210000Z" fill="rgb(163,216,242)" stroke="none" stroke-width="1"/></g></g><g id="e6un4h06owh7245"><g id="e6un4h06owh7246"><path id="e6un4h06owh7247" d="M14.310000,38.740000C14.650000,34.400000,16.140000,33.320000,17.590000,33.740000C19.040000,34.160000,20.190000,37.570000,19.260000,39.160000C18.330000,40.750000,17.830000,41.100000,16.510000,40.780000C15.190000,40.460000,14.210000,39.920000,14.310000,38.740000Z" fill="rgb(163,216,242)" stroke="none" stroke-width="1"/></g></g></g></g></g><g id="e6un4h06owh7248_to" transform="translate(55,73.351261)"><g id="e6un4h06owh7248_tr" transform="rotate(0)"><g id="e6un4h06owh7248" transform="translate(-55,-73.351261)"><g id="e6un4h06owh7249"><path id="e6un4h06owh7250" d="M42.520000,56.210000C42.262298,55.306473,42.207659,54.357126,42.360000,53.430000C42.710000,50.890000,43.920000,48.540000,44.360000,46.020000C44.480000,45.320000,44.550000,44.610000,44.730000,43.930000C44.790147,43.419337,45.141359,42.990077,45.630000,42.830000C45.870986,42.805668,46.112612,42.869628,46.310000,43.010000C46.693401,43.253285,47.031741,43.561174,47.310000,43.920000C48.520751,45.338059,49.530253,46.916246,50.310000,48.610000C51.181166,50.361089,51.528396,52.326409,51.310000,54.270000C51.016182,56.032113,50.052287,57.612327,48.620000,58.680000C48.074787,59.186754,47.364030,59.478165,46.620000,59.500000C45.807096,59.379924,45.031428,59.079224,44.350000,58.620000C43.480657,58.051391,42.834250,57.200112,42.520000,56.210000Z" fill="rgb(74,74,74)" stroke="none" stroke-width="1"/></g><g id="e6un4h06owh7251"><path id="e6un4h06owh7252" d="M59.530000,88.090000C58.770000,88.360000,56.660000,85.270000,56.260000,84.790000C53.516777,81.469775,51.242220,77.788761,49.500000,73.850000C48.522479,71.632792,47.720027,69.342462,47.100000,67C46.370602,64.687440,46.168990,62.240764,46.510000,59.840000C46.510000,59.700000,46.560000,59.570000,46.590000,59.430000C46.680000,59.060000,46.870000,58.630000,47.250000,58.630000C47.396557,58.640014,47.537926,58.688286,47.660000,58.770000C48.460553,59.347381,49.106298,60.113346,49.540000,61C53.540000,68,56.260000,75.670000,59.020000,83.260000L59.380000,84.260000C59.830000,85.680000,60.380000,87.770000,59.530000,88.090000Z" fill="rgb(155,123,109)" stroke="none" stroke-width="1"/></g><g id="e6un4h06owh7253" style="isolation:isolate" opacity="0.2"><path id="e6un4h06owh7254" d="M59.530000,88.090000C58.770000,88.360000,56.660000,85.270000,56.260000,84.790000C53.516777,81.469775,51.242220,77.788761,49.500000,73.850000C48.522479,71.632792,47.720027,69.342462,47.100000,67C46.370602,64.687440,46.168990,62.240764,46.510000,59.840000L47,60.860000C49.300000,68.750000,52.410000,76.630000,57.900000,82.740000C58.400000,83.290000,58.900000,83.810000,59.430000,84.330000C59.830000,85.680000,60.380000,87.770000,59.530000,88.090000Z" fill="rgb(82,30,56)" stroke="none" stroke-width="1"/></g><g id="e6un4h06owh7255"><path id="e6un4h06owh7256" d="M45.720000,61.540000C45.730351,61.787755,45.838180,62.021385,46.020000,62.190000C46.958981,62.349221,47.921407,62.301441,48.840000,62.050000C49.291588,61.921305,49.659786,61.593609,49.840000,61.160000C49.865116,60.705896,49.790007,60.251828,49.620000,59.830000C49.436689,59.201894,49.153029,58.607559,48.780000,58.070000C47.836434,57.571088,46.674522,57.777101,45.960000,58.570000C45.430000,59.270000,45.610000,60.760000,45.720000,61.540000Z" fill="rgb(232,232,232)" stroke="none" stroke-width="1"/></g><g id="e6un4h06owh7257" clip-path="url(#e6un4h06owh7262)"><g id="e6un4h06owh7258"><g id="e6un4h06owh7259"><g id="e6un4h06owh7260"><path id="e6un4h06owh7261" d="M40.440000,54.600000C41.599147,54.982783,42.846776,55.007178,44.020000,54.670000C44.970000,54.310000,44.640000,54.130000,46.020000,52.820000C46.580000,52.310000,47.350000,54.820000,48.500000,53.950000C50.430000,52.490000,49.950000,54.950000,51.090000,55.350000C52.540000,55.900000,51.750000,45.920000,51.750000,45.920000L45.630000,40L41.770000,45.840000Z" fill="rgb(1,159,222)" stroke="none" stroke-width="1"/></g></g></g><clipPath id="e6un4h06owh7262"><path id="e6un4h06owh7263" d="M42.520000,56.210000C42.262298,55.306473,42.207659,54.357126,42.360000,53.430000C42.710000,50.890000,43.920000,48.540000,44.360000,46.020000C44.480000,45.320000,44.550000,44.610000,44.730000,43.930000C44.790147,43.419337,45.141359,42.990077,45.630000,42.830000C45.870986,42.805668,46.112612,42.869628,46.310000,43.010000C46.693401,43.253285,47.031741,43.561174,47.310000,43.920000C48.520751,45.338059,49.530253,46.916246,50.310000,48.610000C51.181166,50.361089,51.528396,52.326409,51.310000,54.270000C51.016182,56.032113,50.052287,57.612327,48.620000,58.680000C48.074787,59.186754,47.364030,59.478165,46.620000,59.500000C45.807096,59.379924,45.031428,59.079224,44.350000,58.620000C43.480657,58.051391,42.834250,57.200112,42.520000,56.210000Z" fill="none" stroke="none" stroke-width="1"/></clipPath></g></g></g></g><g id="e6un4h06owh7264"><path id="e6un4h06owh7265" d="M30.150000,64.380000C32.410000,64.380000,32.790000,65.600000,34.150000,67.380000C34.650000,68.020000,35.890000,69.520000,35.890000,70.750000C35.890000,72.820000,34.890000,73.920000,32.890000,75.150000C32.366649,75.438717,31.931242,75.863757,31.630000,76.380000C31.370418,77.058621,30.726375,77.513007,30,77.530000C29.470000,77.440000,30.580000,76,29.490000,76C27.843505,75.988725,26.253679,75.397409,25,74.330000C23.870000,73.430000,22.910000,72.530000,22.910000,70.730000C22.910000,69.670000,23.370000,68.430000,25,67.020000C26.630000,65.610000,27,64.380000,30.150000,64.380000Z" fill="rgb(1,159,222)" stroke="none" stroke-width="1"/></g><g id="e6un4h06owh7266"><path id="e6un4h06owh7267" d="M22.090000,61.310000C23.250000,61.140000,24.230000,62.390000,24.690000,63.310000C25.150000,64.230000,24.230000,64.380000,23.790000,65.060000C23.350000,65.740000,23.210000,66.010000,22.540000,66.060000C21.380000,66.220000,20.890000,65.450000,20.720000,64.250000C20.550000,63.050000,20.930000,61.470000,22.090000,61.310000Z" fill="rgb(1,159,222)" stroke="none" stroke-width="1"/></g><g id="e6un4h06owh7268"><path id="e6un4h06owh7269" d="M28.160000,58.130000C29.167390,57.920196,30.154999,58.563707,30.370000,59.570000C30.374843,59.663271,30.374843,59.756729,30.370000,59.850000C30.610919,61.049241,29.845250,62.220003,28.650000,62.480000C27.425707,62.519423,26.398802,61.563955,26.350000,60.340000C26.256516,59.853108,26.361286,59.349042,26.641046,58.939729C26.920806,58.530415,27.352402,58.249731,27.840000,58.160000Z" fill="rgb(1,159,222)" stroke="none" stroke-width="1"/></g><g id="e6un4h06owh7270"><path id="e6un4h06owh7271" d="M34.280000,59.490000C35.472353,59.631842,36.384275,60.620111,36.430000,61.820000C36.430000,62.930000,35.430000,63.510000,34.280000,63.510000C33.130000,63.510000,32.700000,62.610000,32.700000,61.510000C32.700000,60.410000,33.170000,59.490000,34.280000,59.490000Z" fill="rgb(1,159,222)" stroke="none" stroke-width="1"/></g><g id="e6un4h06owh7272"><path id="e6un4h06owh7273" d="M40.170000,65.770000C40.608638,66.892087,40.162642,68.166361,39.120000,68.770000C38.120000,69.290000,37.120000,68.630000,36.620000,67.650000C36.120000,66.670000,36.680000,65.840000,37.620000,65.320000C38.560000,64.800000,39.650000,64.790000,40.170000,65.770000Z" fill="rgb(1,159,222)" stroke="none" stroke-width="1"/></g><g id="e6un4h06owh7274"><path id="e6un4h06owh7275" d="M29.500000,78.240000C30.330000,78.240000,29.890000,79.180000,30.260000,79.950000C30.630000,80.720000,31.090000,80.950000,31,81.350000C30.929056,81.592561,30.802346,81.815160,30.630000,82L29.500000,82C28.670000,82,28.710000,81.610000,28.710000,80.780000C28.710000,79.950000,29,78.240000,29.500000,78.240000Z" fill="rgb(1,159,222)" stroke="none" stroke-width="1"/></g></g><g id="e6un4h06owh7276_ts" transform="translate(28.240000,29.970079) scale(0.013401,0.013401)"><polygon id="e6un4h06owh7276" points="50,14 57.460000,34.980000 77.580000,25.420000 68.020000,45.540000 89,53 68.020000,60.460000 77.580000,80.580000 57.460000,71.020000 50,92 42.540000,71.020000 22.420000,80.580000 31.980000,60.460000 11,53 31.980000,45.540000 22.420000,25.420000 42.540000,34.980000 50,14" transform="translate(-50,-53)" fill="url(#e6un4h06owh7276-fill)" stroke="none" stroke-width="1"/></g></svg>