<svg id="eqh0bcjg12ml1" xmlns="http://www.w3.org/2000/svg" xmlns:xlink="http://www.w3.org/1999/xlink" viewBox="0 0 110 100" shape-rendering="geometricPrecision" text-rendering="geometricPrecision"><style><![CDATA[#eqh0bcjg12ml7_to {animation: eqh0bcjg12ml7_to__to 3000ms linear infinite normal forwards}@keyframes eqh0bcjg12ml7_to__to { 0% {transform: translate(39.996258px,46px)} 30% {transform: translate(39.996258px,40px)} 66.666667% {transform: translate(39.996258px,46px)} 100% {transform: translate(39.996258px,46px)} }#eqh0bcjg12ml130_to {animation: eqh0bcjg12ml130_to__to 3000ms linear infinite normal forwards}@keyframes eqh0bcjg12ml130_to__to { 0% {transform: translate(89.735966px,85.746613px)} 10% {transform: translate(89.735966px,85.746613px)} 33.333333% {transform: translate(85.735966px,85.746613px)} 63.333333% {transform: translate(89.735966px,85.746613px)} 100% {transform: translate(89.735966px,85.746613px)} }#eqh0bcjg12ml140_to {animation: eqh0bcjg12ml140_to__to 3000ms linear infinite normal forwards}@keyframes eqh0bcjg12ml140_to__to { 0% {transform: translate(41.683624px,90.329716px)} 6.666667% {transform: translate(41.683624px,90.329716px)} 36.666667% {transform: translate(46.683624px,90.329716px)} 66.666667% {transform: translate(41.683624px,90.329716px)} 100% {transform: translate(41.683624px,90.329716px)} }#eqh0bcjg12ml166_tr {animation: eqh0bcjg12ml166_tr__tr 3000ms linear infinite normal forwards}@keyframes eqh0bcjg12ml166_tr__tr { 0% {transform: translate(25.240000px,38.090000px) rotate(0deg)} 13.333333% {transform: translate(25.240000px,38.090000px) rotate(0deg);animation-timing-function: cubic-bezier(0.420000,0,0.580000,1)} 33.333333% {transform: translate(25.240000px,38.090000px) rotate(9.889271deg);animation-timing-function: cubic-bezier(0.420000,0,0.580000,1)} 53.333333% {transform: translate(25.240000px,38.090000px) rotate(0deg)} 100% {transform: translate(25.240000px,38.090000px) rotate(0deg)} }#eqh0bcjg12ml169_tr {animation: eqh0bcjg12ml169_tr__tr 3000ms linear infinite normal forwards}@keyframes eqh0bcjg12ml169_tr__tr { 0% {transform: translate(18.340000px,39.090000px) rotate(0deg)} 13.333333% {transform: translate(18.340000px,39.090000px) rotate(0deg);animation-timing-function: cubic-bezier(0.420000,0,0.580000,1)} 30% {transform: translate(18.340000px,39.090000px) rotate(-4.259573deg);animation-timing-function: cubic-bezier(0.420000,0,0.580000,1)} 50% {transform: translate(18.340000px,39.090000px) rotate(0deg)} 100% {transform: translate(18.340000px,39.090000px) rotate(0deg)} }#eqh0bcjg12ml187_to {animation: eqh0bcjg12ml187_to__to 3000ms linear infinite normal forwards}@keyframes eqh0bcjg12ml187_to__to { 0% {transform: translate(22.006995px,65.381683px)} 16.666667% {transform: translate(22.006995px,63.611684px)} 26.666667% {transform: translate(22.006995px,63.811684px)} 36.666667% {transform: translate(22.006995px,63.611684px)} 46.666667% {transform: translate(22.006995px,63.811684px)} 56.666667% {transform: translate(22.006995px,63.611684px)} 66.666667% {transform: translate(22.006995px,65.381683px)} 100% {transform: translate(22.006995px,65.381683px)} }#eqh0bcjg12ml267_tr {animation: eqh0bcjg12ml267_tr__tr 3000ms linear infinite normal forwards}@keyframes eqh0bcjg12ml267_tr__tr { 0% {transform: translate(12.370000px,65.625483px) rotate(0deg)} 10% {transform: translate(12.370000px,65.625483px) rotate(-8.404198deg)} 20% {transform: translate(12.370000px,65.625483px) rotate(-7.087555deg)} 33.333333% {transform: translate(12.370000px,65.625483px) rotate(-8.404198deg)} 46.666667% {transform: translate(12.370000px,65.625483px) rotate(-7.087555deg)} 56.666667% {transform: translate(12.370000px,65.625483px) rotate(-8.404198deg)} 66.666667% {transform: translate(12.370000px,65.625483px) rotate(0deg)} 100% {transform: translate(12.370000px,65.625483px) rotate(0deg)} }#eqh0bcjg12ml269_tr {animation: eqh0bcjg12ml269_tr__tr 3000ms linear infinite normal forwards}@keyframes eqh0bcjg12ml269_tr__tr { 0% {transform: translate(31.356996px,64.912768px) rotate(0deg)} 10% {transform: translate(31.356996px,64.912768px) rotate(21deg)} 20% {transform: translate(31.356996px,64.912768px) rotate(17deg)} 33.333333% {transform: translate(31.356996px,64.912768px) rotate(21deg)} 46.666667% {transform: translate(31.356996px,64.912768px) rotate(17deg)} 56.666667% {transform: translate(31.356996px,64.912768px) rotate(21.549241deg)} 66.666667% {transform: translate(31.356996px,64.912768px) rotate(0deg)} 100% {transform: translate(31.356996px,64.912768px) rotate(0deg)} }]]></style><g id="eqh0bcjg12ml2"><rect id="eqh0bcjg12ml3" width="110" height="100" rx="0" ry="0" fill="none" stroke="none" stroke-width="1"/><path id="eqh0bcjg12ml4" d="M2.090000,94.910000L2.090000,93.910000C2.090000,91.700861,3.880861,89.910000,6.090000,89.910000L34.090000,91.420000C34.587660,92.158532,34.871448,93.020276,34.910000,93.910000C34.834367,94.918776,34.555439,95.901826,34.090000,96.800000L6.090000,98.910000C5.029134,98.910000,4.011718,98.488573,3.261573,97.738427C2.511427,96.988282,2.090000,95.970866,2.090000,94.910000Z" fill="rgb(191,127,67)" stroke="none" stroke-width="1"/><path id="eqh0bcjg12ml5" d="M6.090000,98.910000C3.880861,98.910000,2.090000,97.119139,2.090000,94.910000L2.090000,93.910000C2.080047,93.743482,2.080047,93.576518,2.090000,93.410000C2.343414,95.421916,4.062250,96.925897,6.090000,96.910000L34.090000,94.800000C34.388984,94.207820,34.620438,93.583901,34.780000,92.940000C34.865345,93.266515,34.909026,93.602517,34.910000,93.940000C34.834367,94.948776,34.555439,95.931826,34.090000,96.830000Z" opacity="0.2" fill="rgb(0,0,0)" stroke="none" stroke-width="1"/><path id="eqh0bcjg12ml6" d="M22,96.560000C25.810000,96.560000,29.170000,95.560000,29.170000,96.900000C29.211354,97.537504,29.076425,98.174090,28.780000,98.740000C28.020000,99.580000,25.480000,99.630000,22.420000,99.630000C20.020000,99.630000,17.090000,99.340000,15.520000,98.570000C14.900000,98.270000,14.940000,97.070000,14.940000,96.570000C15,95.180000,18.210000,96.560000,22,96.560000Z" fill="rgb(206,138,75)" stroke="none" stroke-width="1"/><g id="eqh0bcjg12ml7_to" transform="translate(39.996258,46)"><g id="eqh0bcjg12ml7" transform="translate(-39.996258,-46)"><circle id="eqh0bcjg12ml8" r="39" transform="matrix(1 0 0 1 40 46)" fill="rgb(255,222,132)" stroke="none" stroke-width="1"/><path id="eqh0bcjg12ml9" d="M40,85C26.742315,85.002512,14.391312,78.269796,7.209860,67.125606C0.028408,55.981416,-0.999844,41.952180,4.480000,29.880000C1.472194,49.128200,13.129906,67.643597,31.787297,73.250900C50.444689,78.858202,70.378191,69.837246,78.480000,52.120000C75.472959,71.045163,59.162561,84.981906,40,85Z" opacity="0.1" fill="rgb(0,0,0)" stroke="none" stroke-width="1"/></g></g><g id="eqh0bcjg12ml10"><g id="eqh0bcjg12ml11" mask="url(#eqh0bcjg12ml15)"><g id="eqh0bcjg12ml12"><path id="eqh0bcjg12ml13" d="M89,76.890000C94.511852,74.063236,99.762384,70.753627,104.690000,67C109.500000,59.320000,108.400000,50.330000,107.810000,49C107.220000,47.670000,102.370000,41.450000,100.010000,41.150000C100.760000,47.580000,99.860000,48.880000,99.850000,52.750000C100.953097,52.693460,102.055281,52.877726,103.080000,53.290000C104.414674,57.012000,103.353998,61.171591,100.400000,63.800000C95.270000,68.350000,87.640000,74.730000,87.640000,74.730000Z" transform="matrix(1 0 0 1 0.10745300000001 0)" fill="rgb(255,255,255)" stroke="none" stroke-width="1"/><path id="eqh0bcjg12ml14" d="M89,76.890000L89,76.890000L88.750000,76.500000C93.994987,73.765214,98.996536,70.586972,103.700000,67C105.785987,63.543791,107.013582,59.638120,107.280000,55.610000C107.529434,53.379886,107.370163,51.122980,106.810000,48.950000C106.330000,47.830000,102.600000,42.950000,100.050000,41.510000C100.050000,41.380000,100.050000,41.250000,100.050000,41.110000C102.460000,41.420000,107.300000,47.660000,107.850000,48.950000C108.410163,51.122980,108.569434,53.379886,108.320000,55.610000C108.037998,59.642275,106.793196,63.548141,104.690000,67C99.758455,70.747962,94.508436,74.057247,89,76.890000Z" opacity="0.1" fill="rgb(0,0,0)" stroke="none" stroke-width="1"/></g><mask id="eqh0bcjg12ml15" mask-type="alpha"><rect id="eqh0bcjg12ml16" width="27.322702" height="21.948727" rx="0" ry="0" transform="matrix(1 0 0 1 81.52000000256342 35.10127327107308)" fill="rgb(84,131,204)" stroke="none" stroke-width="1"/></mask></g><g id="eqh0bcjg12ml17" mask="url(#eqh0bcjg12ml21)"><g id="eqh0bcjg12ml18"><path id="eqh0bcjg12ml19" d="M54.300000,77.060000C54.300000,77.060000,44.620000,72.370000,37.900000,67C33.090000,59.320000,34.190000,50.330000,34.780000,49C35.370000,47.670000,40.600000,40.760000,43,40.460000C42.284057,44.068204,41.885865,47.732235,41.810000,51.410000L39.560000,53.230000C38.191431,56.964019,39.251131,61.155191,42.230000,63.790000C47.360000,68.350000,55.400000,75.310000,55.400000,75.310000Z" fill="rgb(255,255,255)" stroke="none" stroke-width="1"/><path id="eqh0bcjg12ml20" d="M54.300000,77.060000L54.300000,77.060000C54.200000,77.060000,44.510000,72.280000,37.900000,66.980000C35.806560,63.526475,34.575209,59.619763,34.310000,55.590000C34.056957,53.363819,34.212851,51.110137,34.770000,48.940000C36.244520,46.514775,38.029632,44.292630,40.080000,42.330000C38.427734,44.020353,36.981034,45.900056,35.770000,47.930000C35.213185,50.103595,35.057303,52.360493,35.310000,54.590000C35.568612,58.625849,36.796658,62.539816,38.890000,66C43.941478,69.795162,49.334658,73.112755,55,75.910000L54.310000,77.060000ZM40.410000,52.500000L40.410000,52.500000L40.510000,52.230000L41.770000,51.230000L41.770000,51.420000L40.420000,52.500000Z" opacity="0.1" fill="rgb(0,0,0)" stroke="none" stroke-width="1"/></g><mask id="eqh0bcjg12ml21" mask-type="alpha"><rect id="eqh0bcjg12ml22" width="46" height="23.460657" rx="0" ry="0" transform="matrix(1 0 0 1 26.52052846000015 38.61999999984981)" fill="rgb(84,131,204)" stroke="none" stroke-width="1"/></mask></g><g id="eqh0bcjg12ml23"><g id="eqh0bcjg12ml24"><g id="eqh0bcjg12ml25"><g id="eqh0bcjg12ml26"><g id="eqh0bcjg12ml27"><path id="eqh0bcjg12ml28" d="M45.740000,31.700000C42.380000,38.600000,40.740000,50.440000,42.490000,59.100000C44.420000,68.540000,39.240000,71.250000,40.550000,77.590000C42.360000,83.140000,47.170000,87.120000,55.110000,87.590000C63.050000,88.060000,74.780000,86.780000,84.300000,89C93.820000,91.220000,101.680000,84.790000,102.400000,79.480000C103.120000,74.170000,100.330000,74.300000,99.400000,66.340000C98.980000,62.480000,99.930000,51.280000,100.230000,46.420000C100.509117,42.502474,99.761143,38.579920,98.060000,35.040000C96,30.450000,91.330000,21.540000,80.620000,18.430000C67.330000,13.860000,52,18.800000,45.740000,31.700000Z" fill="rgb(142,100,94)" stroke="none" stroke-width="1"/></g></g><g id="eqh0bcjg12ml29" clip-path="url(#eqh0bcjg12ml38)"><g id="eqh0bcjg12ml30"><g id="eqh0bcjg12ml31"><g id="eqh0bcjg12ml32"><g id="eqh0bcjg12ml33"><g id="eqh0bcjg12ml34" opacity="0.2"><g id="eqh0bcjg12ml35"><g id="eqh0bcjg12ml36"><path id="eqh0bcjg12ml37" d="M51.530000,50.300000C51.530000,50.300000,52.160000,64.440000,49.210000,71.570000C46.260000,78.700000,45.270000,84.640000,57.210000,89.360000C69.150000,94.080000,87.450000,92,90,90.860000C92.550000,89.720000,100,82.710000,94.320000,75.150000C88.640000,67.590000,91.320000,52.080000,91.320000,52.080000Z" fill="rgb(0,0,0)" stroke="none" stroke-width="1"/></g></g></g></g></g></g></g><clipPath id="eqh0bcjg12ml38"><path id="eqh0bcjg12ml39" d="M45.740000,31.700000C42.380000,38.610000,40.740000,50.440000,42.490000,59.100000C44.420000,68.540000,39.240000,71.260000,40.550000,77.590000C42.360000,83.140000,47.170000,87.120000,55.110000,87.590000C63.050000,88.060000,74.780000,86.780000,84.300000,89C93.820000,91.220000,101.680000,84.790000,102.400000,79.480000C103.120000,74.170000,100.330000,74.300000,99.400000,66.340000C98.690000,59.840000,99.980000,48.240000,100.220000,43.340000C100.460000,38.440000,95,22.320000,80.870000,18.210000C67.610000,13.680000,52,18.800000,45.740000,31.700000Z" fill="none" stroke="none" stroke-width="1"/></clipPath></g></g><g id="eqh0bcjg12ml40"><g id="eqh0bcjg12ml41"><path id="eqh0bcjg12ml42" d="M84.900000,79.750000L87.190000,78.500000L87.190000,78.500000L89.840000,83.500000C90.527634,84.746031,90.081074,86.313458,88.840000,87.010000L88.840000,87.010000C87.590334,87.692727,86.024072,87.247766,85.320000,86.010000L83.850000,83.220000C83.180196,81.957912,83.658977,80.391807,84.920000,79.720000Z" fill="rgb(253,223,188)" stroke="none" stroke-width="1"/></g><g id="eqh0bcjg12ml43"><path id="eqh0bcjg12ml44" d="M83.610000,69.500000C83.610000,69.500000,92.210000,80.630000,91.610000,81.860000C91.010000,83.090000,87.610000,83.530000,83.610000,87.260000C79.610000,90.990000,80.610000,70.020000,81.610000,69.510000C82.234442,69.177914,82.982268,69.174175,83.610000,69.500000Z" fill="rgb(242,189,200)" stroke="none" stroke-width="1"/></g></g><g id="eqh0bcjg12ml45"><path id="eqh0bcjg12ml46" d="M58.770000,79.750000L56.470000,78.500000L56.470000,78.500000L53.830000,83.500000C53.142366,84.746031,53.588926,86.313458,54.830000,87.010000L54.830000,87.010000C56.076031,87.697634,57.643458,87.251074,58.340000,86.010000L59.820000,83.220000C60.478098,81.956812,60.001933,80.399264,58.750000,79.720000Z" fill="rgb(253,223,188)" stroke="none" stroke-width="1"/></g><g id="eqh0bcjg12ml47"><g id="eqh0bcjg12ml48"><path id="eqh0bcjg12ml49" d="M62.890000,68.930000L80.570000,68.930000C82.180177,68.826936,83.572559,70.040808,83.690000,71.650000L85.770000,87.940000C85.770000,88.600000,87.380000,88.880000,88.380000,91.210000C89.380000,93.540000,85.790000,93.210000,83.250000,93.930000C80.710000,94.650000,81.670000,97.270000,72.770000,97.090000C63.870000,96.910000,66.420000,97.240000,62,95.600000C57.580000,93.960000,55.280000,95.730000,55.070000,92.530000C54.890000,90.300000,57.700000,88.470000,57.670000,87.940000L59.730000,71.650000C59.842216,70.042331,61.231709,68.827083,62.840000,68.930000Z" fill="rgb(242,189,200)" stroke="none" stroke-width="1"/><path id="eqh0bcjg12ml50" d="M71.390000,87.210000C71.390000,87.210000,70.240000,94.330000,74.670000,96.650000C79.100000,98.970000,89.510000,94.070000,91.940000,96.650000C92.940000,97.650000,92.940000,94.520000,92.310000,93.650000C91.680000,92.780000,83.900000,93.450000,79.160000,95.190000C74.420000,96.930000,72.310000,91.600000,72.420000,87.190000C72.077054,87.156678,71.731394,87.163390,71.390000,87.210000Z" fill="rgb(204,211,243)" stroke="none" stroke-width="1"/><path id="eqh0bcjg12ml51" d="M70.620000,87C70.620000,87,59.240000,95.370000,63.620000,97.690000C68,100.010000,74.720000,96.130000,77.150000,98.690000C78.150000,99.690000,77.760000,97.910000,77.150000,97.070000C76.540000,96.230000,72.440000,95.340000,67.690000,97.070000C64.590000,98.200000,63.900000,95.570000,66.530000,92.270000C67.640000,90.870000,71.260000,88.530000,71.300000,87C71.270000,86.890000,70.620000,87,70.620000,87Z" fill="rgb(204,211,243)" stroke="none" stroke-width="1"/></g></g><g id="eqh0bcjg12ml52"><g id="eqh0bcjg12ml53"><path id="eqh0bcjg12ml54" d="M59.550000,69.550000C59.550000,69.550000,52.890000,77.880000,51.850000,81.770000C51.848802,82.571447,52.246095,83.321057,52.910000,83.770000C54.010000,84.770000,57.280000,85.600000,58.440000,92.620000C59.910000,101.620000,62.840000,70.080000,61.790000,69.560000C61.074808,69.256792,60.267870,69.253189,59.550000,69.550000Z" fill="rgb(242,189,200)" stroke="none" stroke-width="1"/></g></g></g></g><g id="eqh0bcjg12ml55"><g id="eqh0bcjg12ml56"><g id="eqh0bcjg12ml57"><path id="eqh0bcjg12ml58" d="M61.860000,70.270000C61.860000,70.270000,69.860000,77,71.660000,80.070000" fill="none" stroke="rgb(255,255,255)" stroke-width="3"/><path id="eqh0bcjg12ml59" d="M79.620000,71C79.620000,71,67.820000,82.600000,65.410000,86.390000" fill="none" stroke="rgb(255,255,255)" stroke-width="3"/><g id="eqh0bcjg12ml60"><g id="eqh0bcjg12ml61"><path id="eqh0bcjg12ml62" d="M71.200000,28.770000C84.647043,28.841528,95.510190,39.762766,95.510000,53.210000C95.510000,66.710000,84.640000,74.810000,71.200000,74.810000C57.760000,74.810000,46.820000,66.730000,46.820000,53.220000C46.819887,39.755594,57.705707,28.825069,71.170000,28.770000Z" fill="rgb(253,223,188)" stroke="none" stroke-width="1"/></g></g><g id="eqh0bcjg12ml63" opacity="0.6"><g id="eqh0bcjg12ml64"><path id="eqh0bcjg12ml65" d="M71.100000,74.810000C68.142026,74.832119,65.196976,74.417655,62.360000,73.580000C63.535583,73.708698,64.717396,73.772128,65.900000,73.770000C72.160462,73.925831,78.277824,71.884352,83.190000,68C85.390593,66.160915,87.159147,63.859746,88.370000,61.260000C89.662838,58.436933,90.321610,55.364943,90.300000,52.260000C90.340405,41.592610,83.460223,32.130338,73.300000,28.880000C85.877326,30.041873,95.501585,40.589125,95.510000,53.220000C95.537523,56.340576,94.882211,59.429412,93.590000,62.270000C92.370356,64.884121,90.595883,67.201173,88.390000,69.060000C83.478376,72.943244,77.359018,74.978311,71.100000,74.810000Z" fill="rgb(255,213,163)" stroke="none" stroke-width="1"/></g></g><g id="eqh0bcjg12ml66"><g id="eqh0bcjg12ml67"><path id="eqh0bcjg12ml68" d="M59.830000,55.780000L59.830000,55.780000C60.968707,55.790846,61.889154,56.711293,61.900000,57.850000L61.900000,59.930000C61.883877,61.066484,60.966484,61.983877,59.830000,62L59.830000,62C58.681248,62,57.750000,61.068752,57.750000,59.920000L57.750000,57.850000C57.749994,57.299265,57.969454,56.771231,58.359820,56.382742C58.750186,55.994253,59.279271,55.777339,59.830000,55.780000Z" fill="rgb(76,84,90)" stroke="none" stroke-width="1"/></g></g><g id="eqh0bcjg12ml69"><g id="eqh0bcjg12ml70"><path id="eqh0bcjg12ml71" d="M82.580000,55.780000L82.580000,55.780000C83.718707,55.790846,84.639154,56.711293,84.650000,57.850000L84.650000,59.930000C84.633877,61.066484,83.716484,61.983877,82.580000,62L82.580000,62C81.431248,62,80.500000,61.068752,80.500000,59.920000L80.500000,57.850000C80.499994,57.299265,80.719454,56.771231,81.109820,56.382742C81.500186,55.994253,82.029271,55.777339,82.580000,55.780000Z" fill="rgb(76,84,90)" stroke="none" stroke-width="1"/></g></g><g id="eqh0bcjg12ml72"><g id="eqh0bcjg12ml73"><path id="eqh0bcjg12ml74" d="M71,67.100000C70.115218,67.071199,69.246397,66.856549,68.450000,66.470000C68.026083,66.223734,67.862620,65.693022,68.074514,65.250921C68.286409,64.808820,68.802497,64.603810,69.260000,64.780000C69.803995,65.056009,70.400597,65.212830,71.010000,65.240000C71.558771,65.192891,72.092576,65.036489,72.580000,64.780000C73.013752,64.530284,73.567747,64.677718,73.820000,65.110000L73.820000,65.110000L73.820000,65.110000C73.942681,65.317724,73.976831,65.566005,73.914788,65.799137C73.852745,66.032269,73.699703,66.230733,73.490000,66.350000L73.430000,66.350000C72.685995,66.777923,71.855762,67.034168,71,67.100000Z" fill="rgb(76,84,90)" stroke="none" stroke-width="1"/></g></g><g id="eqh0bcjg12ml75"><g id="eqh0bcjg12ml76"><path id="eqh0bcjg12ml77" d="M47.150000,48.880000C47.150000,48.880000,57.040000,46.060000,61.470000,40.880000C65.900000,35.700000,68.470000,38.400000,70.620000,39.600000C72.770000,40.800000,77.860000,45.430000,84.450000,48.410000C88.096772,50.158601,92.085740,51.077293,96.130000,51.100000C100.180000,51.100000,96.450000,37.280000,88.380000,32.180000C80.310000,27.080000,63.430000,22.730000,54.720000,32.180000C46.010000,41.630000,47.150000,48.880000,47.150000,48.880000Z" fill="rgb(142,100,94)" stroke="none" stroke-width="1"/></g></g></g><g id="eqh0bcjg12ml78"><g id="eqh0bcjg12ml79"><g id="eqh0bcjg12ml80"><path id="eqh0bcjg12ml81" d="M46.310000,53.630000C45.523923,53.380489,44.668074,53.687611,44.220000,54.380000C43.460000,55.610000,43.800000,59.040000,45.900000,60.940000C48,62.840000,49.900000,61.940000,49.900000,61.940000C49.900000,61.940000,47.900000,54.400000,47.370000,54.190000C46.985784,54.068791,46.626667,53.879069,46.310000,53.630000Z" fill="rgb(253,223,188)" stroke="none" stroke-width="1"/></g></g><g id="eqh0bcjg12ml82"><g id="eqh0bcjg12ml83"><path id="eqh0bcjg12ml84" d="M96,54.270000C96.784541,53.984443,97.661750,54.289378,98.100000,55C98.860000,56.240000,98.540000,59.660000,96.430000,61.560000C94.320000,63.460000,92.430000,62.560000,92.430000,62.560000C92.430000,62.560000,94.430000,55.030000,94.970000,54.820000C95.341337,54.694774,95.689377,54.508927,96,54.270000Z" fill="rgb(254,217,173)" stroke="none" stroke-width="1"/></g></g><g id="eqh0bcjg12ml85"><g id="eqh0bcjg12ml86"><path id="eqh0bcjg12ml87" d="M47.080000,47.630000C47.080000,47.630000,45.320000,59.400000,50,68C54.680000,76.600000,58.400000,76.310000,58.400000,76.310000C58.400000,76.310000,46.330000,67.700000,50.720000,52.710000C55.110000,37.720000,48,45.770000,48,45.770000Z" fill="rgb(142,100,94)" stroke="none" stroke-width="1"/></g></g><g id="eqh0bcjg12ml88"><g id="eqh0bcjg12ml89"><path id="eqh0bcjg12ml90" d="M95.310000,47.630000C95.310000,47.630000,97.060000,59.400000,92.310000,68.010000C87.560000,76.620000,84,76.320000,84,76.320000C84,76.320000,96,67.710000,91.670000,52.720000C87.340000,37.730000,94.390000,45.780000,94.390000,45.780000Z" fill="rgb(142,100,94)" stroke="none" stroke-width="1"/></g></g></g></g><g id="eqh0bcjg12ml91"><g id="eqh0bcjg12ml92"><path id="eqh0bcjg12ml93" d="M90,38.120000C89.760085,37.000533,88.660597,36.285418,87.540000,36.520000L87.540000,36.520000L84,37.280000L83.260000,33.720000C83.011472,32.596101,81.898899,31.886472,80.775000,32.135000C79.651101,32.383528,78.941472,33.496101,79.190000,34.620000L80.340000,40.050000C80.614246,41.251109,81.789633,42.019971,83,41.790000L88.430000,40.640000C89.549467,40.400085,90.264582,39.300597,90.030000,38.180000L90.030000,38.180000Z" fill="rgb(242,189,200)" stroke="none" stroke-width="1"/></g><g id="eqh0bcjg12ml94"><circle id="eqh0bcjg12ml95" r="2.080000" transform="matrix(1 0 0 1 79.44000000000000 45.04000000000000)" fill="rgb(242,189,200)" stroke="none" stroke-width="1"/></g></g><g id="eqh0bcjg12ml96"><g id="eqh0bcjg12ml97"><ellipse id="eqh0bcjg12ml98" rx="8" ry="13.500000" transform="matrix(0.45399000000000 -0.89100700000000 0.89100700000000 0.45399000000000 55.49557800000002 18.99492150000001)" fill="none" stroke="none" stroke-width="1"/><ellipse id="eqh0bcjg12ml99" rx="6" ry="11.500000" transform="matrix(0.45399000000000 -0.89100700000000 0.89100700000000 0.45399000000000 55.49557800000002 18.99492150000001)" fill="none" stroke="rgb(142,100,94)" stroke-width="4"/></g><g id="eqh0bcjg12ml100"><ellipse id="eqh0bcjg12ml101" rx="13.500000" ry="8" transform="matrix(0.89100700000000 -0.45399000000000 0.45399000000000 0.89100700000000 77.50087250000001 17.00289400000000)" fill="none" stroke="none" stroke-width="1"/><ellipse id="eqh0bcjg12ml102" rx="11.500000" ry="6" transform="matrix(0.89100700000000 -0.45399000000000 0.45399000000000 0.89100700000000 77.50087250000001 17.00289400000000)" fill="none" stroke="rgb(142,100,94)" stroke-width="4"/></g><path id="eqh0bcjg12ml103" d="M70.470000,10.940000C71.470000,11.130000,72.150000,17.750000,68.470000,19.570000C64.790000,21.390000,65,16.410000,65.690000,14.760000C66.380000,13.110000,69.570000,10.770000,70.470000,10.940000Z" fill="rgb(252,170,154)" stroke="none" stroke-width="1"/><path id="eqh0bcjg12ml104" d="M76.330000,14.780000C77.140000,15.360000,74.970000,21.650000,70.870000,21.780000C66.770000,21.910000,69.070000,17.450000,70.380000,16.240000C71.690000,15.030000,75.590000,14.240000,76.330000,14.780000Z" fill="rgb(252,170,154)" stroke="none" stroke-width="1"/><path id="eqh0bcjg12ml105" d="M79,21C79.470000,21.870000,74.770000,26.580000,71,24.880000C67.230000,23.180000,71.280000,20.190000,73,19.680000C74.720000,19.170000,78.550000,20.150000,79,21Z" fill="rgb(252,170,154)" stroke="none" stroke-width="1"/><path id="eqh0bcjg12ml106" d="M76.290000,30.250000C75.870000,31.160000,69.290000,30.250000,68.390000,26.250000C67.490000,22.250000,72.300000,23.650000,73.730000,24.710000C75.160000,25.770000,76.670000,29.420000,76.290000,30.250000Z" fill="rgb(252,170,154)" stroke="none" stroke-width="1"/><path id="eqh0bcjg12ml107" d="M66.460000,33.690000C67.460000,33.980000,71.140000,28.470000,68.760000,25.130000C66.380000,21.790000,64.210000,26.300000,64,28.070000C63.790000,29.840000,65.590000,33.420000,66.460000,33.690000Z" fill="rgb(252,170,154)" stroke="none" stroke-width="1"/><path id="eqh0bcjg12ml108" d="M60.370000,32.390000C61.130000,33.030000,66.710000,29.390000,65.830000,25.390000C64.950000,21.390000,61.190000,24.680000,60.330000,26.250000C59.470000,27.820000,59.670000,31.800000,60.370000,32.390000Z" fill="rgb(252,170,154)" stroke="none" stroke-width="1"/><path id="eqh0bcjg12ml109" d="M54.400000,26C54.400000,27,60.860000,28.720000,63.240000,25.380000C65.620000,22.040000,60.660000,21.460000,58.920000,21.870000C57.180000,22.280000,54.370000,25.090000,54.400000,26Z" fill="rgb(252,170,154)" stroke="none" stroke-width="1"/><path id="eqh0bcjg12ml110" d="M54.240000,22C54.140000,23,60.240000,25.600000,63.080000,22.620000C65.920000,19.640000,61.080000,18.380000,59.300000,18.550000C57.520000,18.720000,54.340000,21.080000,54.240000,22Z" fill="rgb(252,170,154)" stroke="none" stroke-width="1"/><path id="eqh0bcjg12ml111" d="M57.590000,13.380000C56.830000,14.020000,59.420000,20.140000,63.520000,19.960000C67.620000,19.780000,65.020000,15.510000,63.630000,14.400000C62.240000,13.290000,58.300000,12.790000,57.590000,13.380000Z" fill="rgb(252,170,154)" stroke="none" stroke-width="1"/><circle id="eqh0bcjg12ml112" r="4.500000" transform="matrix(1 0 0 1 66.50000000000000 22.50000000000000)" fill="rgb(255,221,110)" stroke="none" stroke-width="1"/></g></g><path id="eqh0bcjg12ml113" d="M68.270000,74.550000C68.270000,74.550000,70.430000,76.490000,71.270000,77.550000C71.470000,77.800000,73.510000,75.260000,74.270000,74.550000C74.190000,74.450000,68.270000,74.550000,68.270000,74.550000Z" fill="rgb(254,216,172)" stroke="none" stroke-width="1"/><path id="eqh0bcjg12ml114" d="M58.290000,87.140000C58.290000,87.140000,68.860000,85.140000,85.010000,87.360000" fill="none" stroke="rgb(204,211,243)" stroke-width="2.400000" stroke-linecap="round"/><path id="eqh0bcjg12ml115" d="M73.320000,84.660000C73.670000,84.430000,78.160000,82.330000,79.020000,84.030000C79.880000,85.730000,78.550000,88.800000,77.870000,88.720000C77.190000,88.640000,73.070000,88.020000,72.710000,87.290000C72.514048,86.366259,72.737426,85.403171,73.320000,84.660000Z" fill="rgb(204,211,243)" stroke="none" stroke-width="1"/><path id="eqh0bcjg12ml116" d="M70.580000,84.660000C70.230000,84.430000,65.740000,82.330000,64.890000,84.030000C64.040000,85.730000,65.350000,88.800000,66.030000,88.720000C66.710000,88.640000,70.830000,88.020000,71.190000,87.290000C71.391702,86.366213,71.167758,85.400680,70.580000,84.660000Z" fill="rgb(204,211,243)" stroke="none" stroke-width="1"/><rect id="eqh0bcjg12ml117" width="4" height="4" rx="1" ry="1" transform="matrix(1 0 0 1 70 84)" fill="rgb(199,206,240)" stroke="none" stroke-width="1"/><g id="eqh0bcjg12ml118" mask="url(#eqh0bcjg12ml122)"><g id="eqh0bcjg12ml119"><path id="eqh0bcjg12ml120" d="M89,76.890000C94.511852,74.063236,99.762384,70.753627,104.690000,67C109.500000,59.320000,108.400000,50.330000,107.810000,49C107.220000,47.670000,102.370000,41.450000,100.010000,41.150000C100.760000,47.580000,99.860000,48.880000,99.850000,52.750000C100.953097,52.693460,102.055281,52.877726,103.080000,53.290000C104.414674,57.012000,103.353998,61.171591,100.400000,63.800000C95.270000,68.350000,87.640000,74.730000,87.640000,74.730000Z" transform="matrix(1 0 0 1 0.10745300000001 0)" fill="rgb(255,255,255)" stroke="none" stroke-width="1"/><path id="eqh0bcjg12ml121" d="M89,76.890000L89,76.890000L88.750000,76.500000C93.994987,73.765214,98.996536,70.586972,103.700000,67C105.785987,63.543791,107.013582,59.638120,107.280000,55.610000C107.529434,53.379886,107.370163,51.122980,106.810000,48.950000C106.330000,47.830000,102.600000,42.950000,100.050000,41.510000C100.050000,41.380000,100.050000,41.250000,100.050000,41.110000C102.460000,41.420000,107.300000,47.660000,107.850000,48.950000C108.410163,51.122980,108.569434,53.379886,108.320000,55.610000C108.037998,59.642275,106.793196,63.548141,104.690000,67C99.758455,70.747962,94.508436,74.057247,89,76.890000Z" opacity="0.1" fill="rgb(0,0,0)" stroke="none" stroke-width="1"/></g><mask id="eqh0bcjg12ml122" mask-type="alpha"><rect id="eqh0bcjg12ml123" width="27.322702" height="21.948727" rx="0" ry="0" transform="matrix(1 0 0 1 81.52000000256342 57.10127327107308)" fill="rgb(84,131,204)" stroke="none" stroke-width="1"/></mask></g><g id="eqh0bcjg12ml124" mask="url(#eqh0bcjg12ml128)"><g id="eqh0bcjg12ml125"><path id="eqh0bcjg12ml126" d="M54.300000,77.060000C54.300000,77.060000,44.620000,72.370000,37.900000,67C33.090000,59.320000,34.190000,50.330000,34.780000,49C35.370000,47.670000,40.600000,40.760000,43,40.460000C42.284057,44.068204,41.885865,47.732235,41.810000,51.410000L39.560000,53.230000C38.191431,56.964019,39.251131,61.155191,42.230000,63.790000C47.360000,68.350000,55.400000,75.310000,55.400000,75.310000Z" fill="rgb(255,255,255)" stroke="none" stroke-width="1"/><path id="eqh0bcjg12ml127" d="M54.300000,77.060000L54.300000,77.060000C54.200000,77.060000,44.510000,72.280000,37.900000,66.980000C35.806560,63.526475,34.575209,59.619763,34.310000,55.590000C34.056957,53.363819,34.212851,51.110137,34.770000,48.940000C36.244520,46.514775,38.029632,44.292630,40.080000,42.330000C38.427734,44.020353,36.981034,45.900056,35.770000,47.930000C35.213185,50.103595,35.057303,52.360493,35.310000,54.590000C35.568612,58.625849,36.796658,62.539816,38.890000,66C43.941478,69.795162,49.334658,73.112755,55,75.910000L54.310000,77.060000ZM40.410000,52.500000L40.410000,52.500000L40.510000,52.230000L41.770000,51.230000L41.770000,51.420000L40.420000,52.500000Z" opacity="0.1" fill="rgb(0,0,0)" stroke="none" stroke-width="1"/></g><mask id="eqh0bcjg12ml128" mask-type="alpha"><rect id="eqh0bcjg12ml129" width="46" height="16.751623" rx="0" ry="0" transform="matrix(1 0 0 1 26.52052846000015 61.32903435931809)" fill="rgb(84,131,204)" stroke="none" stroke-width="1"/></mask></g></g><g id="eqh0bcjg12ml130_to" transform="translate(89.735966,85.746613)"><g id="eqh0bcjg12ml130" transform="translate(-89.735966,-85.746613)"><path id="eqh0bcjg12ml131" d="M78.170000,98.430000L101.580000,98.430000C105.410247,98.463262,108.758329,95.852753,109.660000,92.130000C110.509216,88.407907,108.630610,84.600600,105.160000,83.010000C104.977478,78.467361,101.868180,74.568593,97.480000,73.380000C93.075985,72.141249,88.371388,73.836672,85.770000,77.600000L85.180000,77.600000C82.029060,77.601762,79.150839,79.387577,77.750000,82.210000C73.254402,82.210000,69.610000,85.854402,69.610000,90.350000C69.610000,94.845598,73.254402,98.490000,77.750000,98.490000L78.110000,98.490000Z" fill="rgb(240,242,255)" stroke="none" stroke-width="1"/><g id="eqh0bcjg12ml132" clip-path="url(#eqh0bcjg12ml138)"><g id="eqh0bcjg12ml133"><g id="eqh0bcjg12ml134"><g id="eqh0bcjg12ml135"><g id="eqh0bcjg12ml136"><path id="eqh0bcjg12ml137" style="isolation:isolate" d="M78.170000,98.450000L101.580000,98.450000C105.415717,98.489609,108.768889,95.870980,109.660000,92.140000C110.506363,88.415607,108.629313,84.607280,105.160000,83.010000C104.970975,78.464333,101.859993,74.564480,97.470000,73.370000C93.066666,72.131621,88.363353,73.832049,85.770000,77.600000L85.190000,77.600000C82.034797,77.596546,79.152561,79.388730,77.760000,82.220000C73.258879,82.330457,69.699543,86.068879,69.810000,90.570000C69.920457,95.071121,73.658879,98.630457,78.160000,98.520000Z" opacity="0.3" fill="rgb(163,216,242)" stroke="none" stroke-width="1"/></g></g></g></g><clipPath id="eqh0bcjg12ml138"><path id="eqh0bcjg12ml139" d="M98.220000,72C98.220000,72,114.740000,92.920000,76.220000,99.920000C76.400000,100.100000,104.620000,99.920000,104.620000,99.920000L112,92.350000L108.260000,82.810000Z" fill="none" stroke="none" stroke-width="1"/></clipPath></g></g></g><g id="eqh0bcjg12ml140_to" transform="translate(41.683624,90.329716)"><g id="eqh0bcjg12ml140" transform="translate(-46.683624,-90.329716)"><path id="eqh0bcjg12ml141" d="M54.300000,98.810000L38.630000,98.810000C36.065706,98.839530,33.821313,97.092970,33.220000,94.600000C32.650113,92.112895,33.902221,89.566941,36.220000,88.500000C36.355957,85.462716,38.436944,82.860473,41.370000,82.060000C44.314423,81.230910,47.460349,82.363925,49.200000,84.880000L49.600000,84.880000C51.716475,84.873336,53.653862,86.066767,54.600000,87.960000C56.600975,87.874229,58.487775,88.892873,59.513846,90.612883C60.539917,92.332893,60.539917,94.477107,59.513846,96.197117C58.487775,97.917127,56.600975,98.935771,54.600000,98.850000L54.360000,98.850000Z" fill="rgb(240,242,255)" stroke="none" stroke-width="1"/><g id="eqh0bcjg12ml142" clip-path="url(#eqh0bcjg12ml148)"><g id="eqh0bcjg12ml143"><g id="eqh0bcjg12ml144"><g id="eqh0bcjg12ml145"><g id="eqh0bcjg12ml146"><path id="eqh0bcjg12ml147" style="isolation:isolate" d="M54.300000,98.830000L38.630000,98.830000C36.065269,98.851010,33.823947,97.102696,33.220000,94.610000C32.650113,92.122895,33.902221,89.576941,36.220000,88.510000C36.351715,85.468960,38.433557,82.861606,41.370000,82.060000C44.316940,81.223291,47.468975,82.362533,49.200000,84.890000L49.600000,84.890000C51.719147,84.873805,53.661172,86.070093,54.600000,87.970000C56.547097,87.996795,58.331995,89.060319,59.282339,90.759952C60.232682,92.459585,60.204092,94.537114,59.207339,96.209952C58.210585,97.882790,56.397097,98.896795,54.450000,98.870000L54.330000,98.870000Z" opacity="0.3" fill="rgb(163,216,242)" stroke="none" stroke-width="1"/></g></g></g></g><clipPath id="eqh0bcjg12ml148"><path id="eqh0bcjg12ml149" d="M40.870000,81.140000C40.870000,81.140000,29.870000,95.140000,55.630000,99.810000C55.510000,99.930000,36.630000,99.810000,36.630000,99.810000L31.630000,94.740000L34.130000,88.360000Z" fill="none" stroke="none" stroke-width="1"/></clipPath></g></g></g><path id="eqh0bcjg12ml150" d="M9.240000,79.800000C9.050000,79.130000,9.240000,74.680000,12.450000,73.800000C15.660000,72.920000,29.500000,72.480000,32.350000,74.730000C35.200000,76.980000,34.850000,78.900000,34.720000,79.800000C34.590000,80.700000,32.240000,93.460000,31.920000,94.210000C31.600000,94.960000,29.800000,97.940000,25.060000,97.920000C21.950193,98.005017,18.842138,97.695891,15.810000,97C13.877089,96.569115,12.328023,95.127144,11.760000,93.230000C10.880000,90.660000,9.420000,80.470000,9.240000,79.800000Z" fill="rgb(213,144,80)" stroke="none" stroke-width="1"/><ellipse id="eqh0bcjg12ml151" rx="10" ry="1.500000" transform="matrix(1 0 0 1 22 76.50000000000000)" opacity="0.3" fill="rgb(0,0,0)" stroke="none" stroke-width="1"/><g id="eqh0bcjg12ml152"><g id="eqh0bcjg12ml153"><g id="eqh0bcjg12ml154"><g id="eqh0bcjg12ml155"><circle id="eqh0bcjg12ml156" r="3" transform="matrix(1 0 0 1 35.20000000000000 74.09000000000000)" fill="rgb(255,255,255)" stroke="none" stroke-width="1"/><path id="eqh0bcjg12ml157" d="M35.360000,77.080000C34.450700,77.126319,33.569568,76.757186,32.964799,76.076578C32.360030,75.395970,32.097075,74.477545,32.250000,73.580000C32.501436,75.015282,33.747861,76.062337,35.205000,76.062337C36.662139,76.062337,37.908564,75.015282,38.160000,73.580000C38.169786,73.696461,38.169786,73.813539,38.160000,73.930000C38.245046,75.583895,36.973838,76.993861,35.320000,77.080000Z" opacity="0.1" fill="rgb(0,0,0)" stroke="none" stroke-width="1"/><g id="eqh0bcjg12ml158"><path id="eqh0bcjg12ml159" d="M12.580000,57L11.080000,64.370000C11.080000,64.370000,9.370000,76.690000,16.140000,77.340000C18.360000,77.550000,20.540000,76.630000,23.140000,76.500000C27.290000,76.280000,28.420000,77.700000,31.550000,76.500000C34.680000,75.300000,34.760000,68.890000,34.380000,63.820000C34.290000,62.310000,31.680000,56,31.680000,56Z" fill="rgb(255,255,255)" stroke="none" stroke-width="1"/><path id="eqh0bcjg12ml160" d="M16.810000,77.380000L16.810000,77.380000Q16.480000,77.380000,16.150000,77.380000C14.543307,77.237859,13.119166,76.288432,12.370000,74.860000C12.923988,75.147149,13.528554,75.323764,14.150000,75.380000C14.370000,75.380000,14.580000,75.380000,14.810000,75.380000C15.882987,75.354916,16.951146,75.227674,18,75C19.044475,74.771981,20.103794,74.618263,21.170000,74.540000L22.040000,74.540000C23.009116,74.541264,23.976220,74.628270,24.930000,74.800000L25.200000,74.800000C25.858546,74.934279,26.528012,75.007920,27.200000,75.020000C28.021258,75.013292,28.834464,74.857428,29.600000,74.560000C31,74.030000,31.920000,72.390000,32.330000,69.680000C32.644895,67.091098,32.675076,64.475479,32.420000,61.880000C31.988026,59.904288,31.365099,57.975224,30.560000,56.120000L31.690000,56L31.690000,56C31.950000,56.640000,34.290000,62.350000,34.370000,63.800000C34.630148,66.395257,34.599962,69.011436,34.280000,71.600000C33.880000,74.310000,32.960000,75.950000,31.550000,76.480000C30.784464,76.777428,29.971258,76.933292,29.150000,76.940000C28.478425,76.921679,27.809499,76.848097,27.150000,76.720000L27.150000,76.720000L26.900000,76.720000C25.942275,76.554853,24.971844,76.474542,24,76.480000L23.130000,76.480000C22.075695,76.579196,21.029744,76.752965,20,77C18.951146,77.227674,17.882987,77.354916,16.810000,77.380000Z" opacity="0.1" fill="rgb(0,0,0)" stroke="none" stroke-width="1"/></g></g><path id="eqh0bcjg12ml161" d="M20.800000,37.240000C29.900000,36.760000,37.800000,44.480000,38.170000,51.650000C38.540000,58.820000,31.470000,65,22.370000,65.490000C13.270000,65.980000,5.590000,60.550000,5.220000,53.380000C4.850000,46.210000,11.710000,37.720000,20.800000,37.240000Z" fill="rgb(255,255,255)" stroke="none" stroke-width="1"/><g id="eqh0bcjg12ml162"><g id="eqh0bcjg12ml163"><path id="eqh0bcjg12ml164" d="M7.240000,51.530000C7.240000,51.530000,14.510000,42.330000,14.880000,42.590000C14.880000,42.590000,20.390000,39.410000,26.050000,40.970000C26.350000,41.120000,35.450000,47.870000,35.450000,47.870000C35.450000,47.870000,37,56.370000,36.300000,56.190000C36.970000,56.410000,31.020000,63.360000,22.660000,63.720000C14.300000,64.080000,8.620000,55.480000,8,53C7.690000,51.740000,7.240000,51.530000,7.240000,51.530000Z" fill="rgb(255,255,255)" stroke="none" stroke-width="1"/></g></g></g><path id="eqh0bcjg12ml165" d="M22.450000,62C26.120000,61.810000,29.300000,65.390000,29.540000,70C29.780000,74.610000,26.830000,75.340000,23.160000,75.530000C19.490000,75.720000,16.470000,75.310000,16.230000,70.700000C15.990000,66.090000,18.780000,62.150000,22.450000,62Z" fill="rgb(250,222,228)" stroke="none" stroke-width="1"/><g id="eqh0bcjg12ml166_tr" transform="translate(25.240000,38.090000) rotate(0)"><g id="eqh0bcjg12ml166" transform="translate(-25.240000,-38.090000)"><path id="eqh0bcjg12ml167" d="M23.240000,37.790000C24.379160,34.708222,24.271535,31.303674,22.940000,28.300000C20.700000,23.300000,21.680000,19.300000,24.060000,18.710000C26.440000,18.120000,28.820000,19.110000,29.990000,22.880000C31.160000,26.650000,30.110000,33.760000,27.610000,39.090000C26.081830,38.949233,24.596629,38.507411,23.240000,37.790000Z" fill="rgb(255,255,255)" stroke="none" stroke-width="1"/><path id="eqh0bcjg12ml168" style="isolation:isolate" d="M24,37.580000C24,37.580000,25.160000,31.520000,23.680000,28.240000C22.200000,24.960000,22.740000,22.410000,24.290000,22C25.840000,21.590000,27.120000,22.850000,27.890000,25.330000C28.660000,27.810000,27.990000,34.590000,26.350000,38.090000C25.541934,38.066252,24.745217,37.893348,24,37.580000Z" opacity="0.6" fill="rgb(247,201,210)" stroke="none" stroke-width="1"/></g></g><g id="eqh0bcjg12ml169_tr" transform="translate(18.340000,39.090000) rotate(0)"><g id="eqh0bcjg12ml169" transform="translate(-18.340000,-39.090000)"><path id="eqh0bcjg12ml170" d="M15.330000,39.300000C15.330000,39.300000,14.900000,36.460000,10,34.600000C5.100000,32.740000,4.630000,29.360000,5.850000,27.510000C7.070000,25.660000,10.460000,25.510000,11.850000,26.510000C13.240000,27.510000,18.850000,30.730000,18.780000,38.510000C17.672975,38.934598,16.511482,39.200563,15.330000,39.300000Z" fill="rgb(255,255,255)" stroke="none" stroke-width="1"/><path id="eqh0bcjg12ml171" style="isolation:isolate" d="M16,38.620000C14.577266,36.625201,12.661593,35.033401,10.440000,34C7.180000,32.720000,7,31.390000,7.850000,30.150000C8.700000,28.910000,11.330000,29.490000,12.250000,30.150000C13.170000,30.810000,15.320000,31.290000,18.250000,37.980000C16.420000,38.540000,16,38.620000,16,38.620000Z" opacity="0.6" fill="rgb(247,201,210)" stroke="none" stroke-width="1"/></g></g><path id="eqh0bcjg12ml172" d="M32.410000,62.200000L32.410000,62.200000C35.376648,58.963380,36.617872,54.503894,35.750000,50.200000C35.404913,48.453419,34.747734,46.783369,33.810000,45.270000C32.881966,43.757306,31.713271,42.406214,30.350000,41.270000C27.572342,38.948197,24.154678,37.525332,20.550000,37.190000L20.810000,37.190000L21.610000,37.190000C23.751204,37.197354,25.869347,37.632542,27.840000,38.470000C29.755865,39.266527,31.518752,40.389902,33.050000,41.790000C34.512089,43.119240,35.736364,44.688476,36.670000,46.430000C37.541379,48.031646,38.059666,49.801324,38.190000,51.620000C38.291273,53.672533,37.798224,55.710701,36.770000,57.490000C35.692888,59.370497,34.201899,60.981175,32.410000,62.200000Z" opacity="0.1" fill="rgb(0,0,0)" stroke="none" stroke-width="1"/></g><g id="eqh0bcjg12ml173"><g id="eqh0bcjg12ml174"><path id="eqh0bcjg12ml175" d="M5.290000,57.100000C5.167063,57.111153,5.049225,57.048306,4.990000,56.940000C4.952022,56.865884,4.945461,56.779605,4.971796,56.700599C4.998132,56.621593,5.055148,56.556506,5.130000,56.520000C6.221744,55.951128,7.454027,55.708143,8.680000,55.820000C8.761405,55.822531,8.838282,55.858050,8.892973,55.918399C8.947664,55.978748,8.975469,56.058740,8.970000,56.140000C8.967469,56.221405,8.931950,56.298282,8.871601,56.352973C8.811252,56.407664,8.731260,56.435469,8.650000,56.430000L8.650000,56.430000C7.538661,56.330774,6.421996,56.549252,5.430000,57.060000C5.393985,57.069774,5.356015,57.069774,5.320000,57.060000Z" fill="rgb(112,112,112)" stroke="none" stroke-width="1"/></g><g id="eqh0bcjg12ml176"><path id="eqh0bcjg12ml177" d="M39.740000,55.250000L39.610000,55.250000C38.572839,54.857704,37.444958,54.770944,36.360000,55C36.283095,55.024902,36.199394,55.017714,36.127861,54.980065C36.056327,54.942415,36.003014,54.877491,35.980000,54.800000C35.955224,54.720433,35.963528,54.634241,36.003037,54.560866C36.042546,54.487492,36.109934,54.433114,36.190000,54.410000L36.190000,54.410000C37.391695,54.151248,38.642765,54.248554,39.790000,54.690000C39.928958,54.724451,40.019546,54.858175,40,55C39.963245,55.128442,39.843498,55.215155,39.710000,55.210000Z" fill="rgb(112,112,112)" stroke="none" stroke-width="1"/></g><g id="eqh0bcjg12ml178"><path id="eqh0bcjg12ml179" d="M6,59.420000C5.916086,59.425463,5.833553,59.396602,5.771331,59.340036C5.709108,59.283470,5.672535,59.204053,5.670000,59.120000C5.661050,59.020418,5.702298,58.922921,5.780000,58.860000C6.729361,58.071279,7.885086,57.571505,9.110000,57.420000C9.190935,57.402245,9.275610,57.417630,9.345127,57.462721C9.414643,57.507813,9.463214,57.578858,9.480000,57.660000C9.510710,57.830704,9.399835,57.994799,9.230000,58.030000L9.230000,58.030000C8.126324,58.167771,7.085237,58.618909,6.230000,59.330000C6.169110,59.390564,6.085824,59.423154,6,59.420000Z" fill="rgb(112,112,112)" stroke="none" stroke-width="1"/></g><g id="eqh0bcjg12ml180"><path id="eqh0bcjg12ml181" d="M39.270000,57.670000C39.202497,57.679961,39.133856,57.661897,39.080000,57.620000C38.144317,56.998357,37.052910,56.651878,35.930000,56.620000C35.847768,56.617390,35.769947,56.582199,35.713677,56.522178C35.657407,56.462157,35.627305,56.382229,35.630000,56.300000C35.630000,56.134315,35.764315,56,35.930000,56L35.930000,56C37.156743,56.030288,38.349670,56.408280,39.370000,57.090000C39.439094,57.134972,39.487429,57.205613,39.504318,57.286306C39.521207,57.366998,39.505259,57.451094,39.460000,57.520000C39.402743,57.597782,39.315890,57.648447,39.220000,57.660000Z" fill="rgb(112,112,112)" stroke="none" stroke-width="1"/></g></g><path id="eqh0bcjg12ml182" d="M21.270000,44.520000C27.060000,44.220000,31.930000,48.330000,32.150000,52.460000C32.370000,56.590000,27.850000,60.200000,22.060000,60.460000C16.270000,60.720000,11.400000,57.700000,11.180000,53.560000C10.960000,49.420000,15.480000,44.830000,21.270000,44.520000Z" fill="rgb(163,216,242)" stroke="none" stroke-width="1"/><g id="eqh0bcjg12ml183"><circle id="eqh0bcjg12ml184" r="1.150000" transform="matrix(1 0 0 1 14.85000000000000 52.39000000000000)" fill="rgb(76,84,90)" stroke="none" stroke-width="1"/></g><g id="eqh0bcjg12ml185"><circle id="eqh0bcjg12ml186" r="1.150000" transform="matrix(1 0 0 1 28.73000000000000 51.66000000000000)" fill="rgb(76,84,90)" stroke="none" stroke-width="1"/></g><g id="eqh0bcjg12ml187_to" transform="translate(22.006995,65.381683)"><g id="eqh0bcjg12ml187" transform="translate(-22.006995,-64.381683)"><path id="eqh0bcjg12ml188" d="M29.710000,64L29.710000,64C30.170000,63.820000,30.330000,63,30.070000,62.200000C29.810000,61.400000,29.180000,60.800000,28.700000,60.960000L28.700000,60.960000L28.700000,60.960000C29.080000,60.610000,28.910000,59.810000,28.320000,59.150000C27.730000,58.490000,26.950000,58.240000,26.570000,58.580000L26.570000,58.580000C26.780000,58.120000,26.290000,57.450000,25.490000,57.090000C24.690000,56.730000,23.860000,56.810000,23.650000,57.280000L23.650000,57.280000C23.650000,56.770000,22.940000,56.360000,22.050000,56.360000C21.160000,56.360000,20.500000,56.750000,20.450000,57.230000C20.220000,56.810000,19.450000,56.730000,18.640000,57.080000C17.830000,57.430000,17.390000,58.030000,17.520000,58.490000L17.470000,58.490000C17.070000,58.220000,16.330000,58.490000,15.770000,59.100000C15.210000,59.710000,15.030000,60.420000,15.290000,60.800000L15.230000,60.900000C14.770000,60.900000,14.230000,61.390000,13.980000,62.160000C13.709197,62.725327,13.791135,63.396434,14.190000,63.880000C14.190000,63.930000,14.190000,63.980000,14.190000,64.040000C13.690540,64.420501,13.459801,65.057967,13.600000,65.670000C13.597154,66.282763,13.926219,66.849061,14.460000,67.150000L14.520000,67.350000C14.259916,67.903546,14.321201,68.554702,14.680000,69.050000C14.930167,69.570243,15.427243,69.927987,16,70L16.150000,70.170000C16.285801,71.281610,17.273639,72.088638,18.390000,72L18.590000,72L18.810000,72.100000C19.054121,72.650763,19.571502,73.031190,20.170000,73.100000C20.752485,73.290496,21.392487,73.148700,21.840000,72.730000L22,72.730000C22.443305,73.156225,23.085920,73.302449,23.670000,73.110000C24.430000,72.950000,25,72.500000,25.050000,72.110000L25.200000,72.040000C25.822456,72.299908,26.540942,72.144236,27,71.650000C27.660000,71.170000,28,70.500000,27.810000,70.070000L27.880000,69.990000C28.330000,70.130000,28.960000,69.730000,29.370000,68.990000C29.780000,68.250000,29.810000,67.480000,29.440000,67.190000L29.440000,67.120000C29.920000,67.120000,30.360000,66.460000,30.440000,65.630000C30.520000,64.800000,30.200000,64,29.710000,64Z" fill="rgb(204,99,0)" stroke="none" stroke-width="1"/><path id="eqh0bcjg12ml189" d="M29.780000,63.190000L29.780000,63.190000C30.240000,63.020000,30.400000,62.190000,30.140000,61.390000C29.880000,60.590000,29.250000,60,28.770000,60.160000L28.770000,60.160000L28.770000,60.160000C29.150000,59.820000,28.980000,59.010000,28.390000,58.360000C27.800000,57.710000,27.010000,57.440000,26.640000,57.790000L26.640000,57.790000C26.850000,57.320000,26.360000,56.660000,25.560000,56.300000C24.760000,55.940000,23.930000,56.020000,23.720000,56.490000L23.720000,56.490000C23.720000,55.980000,23.010000,55.570000,22.120000,55.570000C21.230000,55.570000,20.570000,55.960000,20.520000,56.440000C20.290000,56.020000,19.520000,55.940000,18.710000,56.280000C17.900000,56.620000,17.460000,57.280000,17.590000,57.700000L17.530000,57.700000C17.130000,57.430000,16.400000,57.700000,15.830000,58.310000C15.260000,58.920000,15,59.570000,15.280000,60L15.220000,60.100000C14.760000,60.100000,14.220000,60.590000,13.970000,61.350000C13.732999,61.897019,13.813533,62.529786,14.180000,63C14.184274,63.053248,14.184274,63.106752,14.180000,63.160000C13.686355,63.544469,13.460171,64.180123,13.600000,64.790000C13.592822,65.403911,13.923076,65.972256,14.460000,66.270000L14.520000,66.470000C14.259916,67.023546,14.321201,67.674702,14.680000,68.170000C14.924121,68.720763,15.441502,69.101190,16.040000,69.170000L16.190000,69.340000C16.315951,70.482074,17.336364,71.310881,18.480000,71.200000L18.680000,71.200000L18.900000,71.300000C19.137360,71.856158,19.658368,72.239252,20.260000,72.300000C20.840296,72.499949,21.483619,72.361268,21.930000,71.940000L22.130000,71.940000C22.575462,72.362209,23.215712,72.507894,23.800000,72.320000C24.560000,72.160000,25.130000,71.710000,25.180000,71.260000L25.330000,71.200000C25.902192,71.419962,26.549649,71.295898,27,70.880000C27.660000,70.400000,28,69.730000,27.810000,69.300000L27.880000,69.220000C28.330000,69.360000,28.960000,68.960000,29.370000,68.220000C29.780000,67.480000,29.810000,66.720000,29.440000,66.420000L29.440000,66.360000C29.920000,66.360000,30.360000,65.700000,30.440000,64.870000C30.520000,64.040000,30.270000,63.270000,29.780000,63.190000Z" fill="rgb(246,183,101)" stroke="none" stroke-width="1"/><path id="eqh0bcjg12ml190" d="M29.780000,63.190000L29.780000,63.190000C30.240000,63.020000,30.400000,62.190000,30.140000,61.390000C29.880000,60.590000,29.250000,60,28.770000,60.160000L28.770000,60.160000L28.770000,60.160000C29.150000,59.820000,28.980000,59.010000,28.390000,58.360000C27.800000,57.710000,27.010000,57.440000,26.640000,57.790000L26.640000,57.790000C26.850000,57.320000,26.360000,56.660000,25.560000,56.300000C24.760000,55.940000,23.930000,56.020000,23.720000,56.490000L23.720000,56.490000C23.720000,55.980000,23.010000,55.570000,22.120000,55.570000C21.230000,55.570000,20.570000,55.960000,20.520000,56.440000C20.290000,56.020000,19.520000,55.940000,18.710000,56.280000C17.900000,56.620000,17.460000,57.280000,17.590000,57.700000L17.530000,57.700000C17.130000,57.430000,16.400000,57.700000,15.830000,58.310000C15.260000,58.920000,15,59.570000,15.280000,60L15.220000,60.100000C14.760000,60.100000,14.220000,60.590000,13.970000,61.350000C13.732999,61.897019,13.813533,62.529786,14.180000,63C14.184274,63.053248,14.184274,63.106752,14.180000,63.160000C13.686355,63.544469,13.460171,64.180123,13.600000,64.790000C13.592822,65.403911,13.923076,65.972256,14.460000,66.270000L14.520000,66.470000C14.259916,67.023546,14.321201,67.674702,14.680000,68.170000C14.924121,68.720763,15.441502,69.101190,16.040000,69.170000L16.190000,69.340000C16.315951,70.482074,17.336364,71.310881,18.480000,71.200000L18.680000,71.200000L18.900000,71.300000C19.137360,71.856158,19.658368,72.239252,20.260000,72.300000C20.840296,72.499949,21.483619,72.361268,21.930000,71.940000L22.130000,71.940000C22.575462,72.362209,23.215712,72.507894,23.800000,72.320000C24.560000,72.160000,25.130000,71.710000,25.180000,71.260000L25.330000,71.200000C25.902192,71.419962,26.549649,71.295898,27,70.880000C27.660000,70.400000,28,69.730000,27.810000,69.300000L27.880000,69.220000C28.330000,69.360000,28.960000,68.960000,29.370000,68.220000C29.780000,67.480000,29.810000,66.720000,29.440000,66.420000L29.440000,66.360000C29.920000,66.360000,30.360000,65.700000,30.440000,64.870000C30.520000,64.040000,30.270000,63.270000,29.780000,63.190000ZM22,71.520000C18.980895,71.524044,16.257009,69.707958,15.099779,66.919441C13.942549,64.130924,14.580159,60.919821,16.714990,58.784990C18.849821,56.650159,22.060924,56.012549,24.849441,57.169779C27.637958,58.327009,29.454044,61.050895,29.450000,64.070000C29.444491,68.182237,26.112237,71.514491,22,71.520000L22,71.520000Z" fill="rgb(224,131,26)" stroke="none" stroke-width="1"/><g id="eqh0bcjg12ml191"><path id="eqh0bcjg12ml192" d="M22,69.540000C19.782638,69.539996,17.783801,68.203753,16.936190,66.154789C16.088580,64.105825,16.559261,61.747997,18.128604,60.181518C19.697948,58.615038,22.056632,58.148664,24.104044,59.000016C26.151456,59.851367,27.484046,61.852641,27.480000,64.070000L27.480000,64.070000C27.474484,67.092614,25.022619,69.540005,22,69.540000ZM22,58.890000C19.139165,58.890000,16.820000,61.209165,16.820000,64.070000C16.820000,66.930835,19.139165,69.250000,22,69.250000C24.860835,69.250000,27.180000,66.930835,27.180000,64.070000L27.180000,64.070000C27.180000,62.696179,26.634252,61.378625,25.662813,60.407187C24.691375,59.435748,23.373821,58.890000,22,58.890000Z" fill="rgb(229,144,46)" stroke="none" stroke-width="1"/></g><g id="eqh0bcjg12ml193"><path id="eqh0bcjg12ml194" d="M22,71.760000C18.884731,71.759997,16.076401,69.882869,14.885176,67.004348C13.693951,64.125827,14.354565,60.813137,16.558823,58.611741C18.763082,56.410345,22.076628,55.754037,24.953598,56.949002C27.830568,58.143967,29.704046,60.954734,29.700000,64.070000L29.700000,64.070000C29.688988,68.316403,26.246413,71.754507,22,71.760000ZM22,56.850000C18.012504,56.850000,14.780000,60.082504,14.780000,64.070000C14.780000,68.057496,18.012504,71.290000,22,71.290000C25.987496,71.290000,29.220000,68.057496,29.220000,64.070000C29.220000,62.155137,28.459324,60.318702,27.105311,58.964689C25.751298,57.610676,23.914863,56.850000,22,56.850000Z" fill="rgb(234,140,34)" stroke="none" stroke-width="1"/></g><path id="eqh0bcjg12ml195" d="M28.450000,63.470000C28.455403,62.976804,28.200885,62.517152,27.780000,62.260000C27.991304,61.813161,27.949422,61.287723,27.670000,60.880000C27.467502,60.426509,27.042792,60.111768,26.550000,60.050000C26.567334,59.553780,26.314825,59.087019,25.890000,58.830000C25.605886,58.599644,25.255395,58.466458,24.890000,58.450000C24.768450,58.446684,24.648040,58.474207,24.540000,58.530000C24.349839,58.071779,23.931372,57.748418,23.440000,57.680000C23.280340,57.665256,23.119660,57.665256,22.960000,57.680000C22.643288,57.649696,22.329145,57.759281,22.100000,57.980000C21.851335,57.733966,21.509021,57.606508,21.160000,57.630000C21.030186,57.620160,20.899814,57.620160,20.770000,57.630000C20.273439,57.671302,19.837705,57.977080,19.630000,58.430000C19.507078,58.364867,19.368973,58.333794,19.230000,58.340000C18.869022,58.344281,18.518778,58.463364,18.230000,58.680000C17.795999,58.920966,17.522053,59.373738,17.510000,59.870000L17.460000,59.870000C16.991737,59.938008,16.585470,60.228731,16.370000,60.650000C16.093742,61.045781,16.040835,61.555953,16.230000,62C15.462072,62.523560,15.261034,63.568960,15.780000,64.340000L15.910000,64.510000C15.602109,64.901938,15.529482,65.429441,15.720000,65.890000C15.833312,66.356516,16.176206,66.733323,16.630000,66.890000C16.580481,67.052988,16.580481,67.227012,16.630000,67.390000C16.699494,67.699070,16.847607,67.984962,17.060000,68.220000C17.316886,68.567650,17.709640,68.789484,18.140000,68.830000L18.320000,68.830000C18.321263,69.001495,18.381263,69.167378,18.490000,69.300000C18.680470,69.554326,18.931379,69.757115,19.220000,69.890000C19.470629,70.008058,19.743052,70.072759,20.020000,70.080000C20.226961,70.090268,20.431329,70.030368,20.600000,69.910000C20.881890,70.321626,21.362759,70.550611,21.860000,70.510000L21.860000,70.510000C22.333964,70.567693,22.803777,70.374463,23.100000,70C23.283959,70.138334,23.510007,70.208974,23.740000,70.200000C23.998156,70.197102,24.253137,70.142706,24.490000,70.040000C24.957522,69.895381,25.314549,69.515565,25.430000,69.040000C25.499663,69.049718,25.570337,69.049718,25.640000,69.040000C26.058779,68.999706,26.445760,68.799049,26.720000,68.480000C27.090487,68.153510,27.258282,67.653939,27.160000,67.170000C28.023873,66.818840,28.440056,65.834321,28.090000,64.970000C28.060610,64.904668,28.027213,64.841214,27.990000,64.780000C28.369632,64.459119,28.545674,63.957782,28.450000,63.470000ZM28.220000,63.470000C28.302137,63.876443,28.161074,64.295819,27.850000,64.570000C27.850000,64.400000,27.850000,64.230000,27.850000,64.050000C27.852040,63.508990,27.777981,62.970382,27.630000,62.450000C27.910000,62.520000,28.150000,62.950000,28.200000,63.450000ZM22,69.730000C19.710744,69.730000,17.646902,68.350985,16.770842,66.235988C15.894781,64.120991,16.379027,61.686524,17.997776,60.067776C19.616524,58.449027,22.050991,57.964781,24.165988,58.840842C26.280985,59.716902,27.660000,61.780744,27.660000,64.070000L27.660000,64.070000C27.654496,67.193649,25.123649,69.724496,22,69.730000ZM26.610000,60.290000C26.999063,60.367748,27.326733,60.628394,27.490000,60.990000C27.741498,61.329863,27.780175,61.782387,27.590000,62.160000C27.373088,61.484118,27.034157,60.853707,26.590000,60.300000L26.660000,60.300000ZM25.750000,59C26.180000,59.320000,26.410000,59.780000,26.300000,60C25.813360,59.465146,25.229719,59.027415,24.580000,58.710000C24.668200,58.641810,24.778996,58.609643,24.890000,58.620000C25.203760,58.639045,25.504039,58.754269,25.750000,58.950000ZM23,57.860000C23.139612,57.845259,23.280388,57.845259,23.420000,57.860000C23.950000,57.990000,24.350000,58.310000,24.350000,58.600000C23.686115,58.310271,22.973832,58.147463,22.250000,58.120000C22.428994,57.893159,22.713082,57.775736,23,57.810000ZM20.850000,57.860000C20.966443,57.849772,21.083557,57.849772,21.200000,57.860000C21.508533,57.820306,21.814451,57.950321,22,58.200000C21.274690,58.201212,20.555885,58.336836,19.880000,58.600000C19.880000,58.300000,20.310000,57.990000,20.880000,57.890000ZM18.440000,58.860000C18.681750,58.681683,18.970108,58.577458,19.270000,58.560000C19.397024,58.558380,19.520693,58.600780,19.620000,58.680000C18.940862,58.966472,18.323019,59.380630,17.800000,59.900000C17.690000,59.630000,17.940000,59.180000,18.400000,58.900000ZM16.640000,60.760000C16.817661,60.411528,17.145986,60.164361,17.530000,60.090000L17.640000,60.090000C17.157577,60.628002,16.774924,61.247696,16.510000,61.920000C16.310000,61.720000,16.360000,61.210000,16.640000,60.740000ZM15.780000,63.230000C15.840000,62.700000,16.120000,62.230000,16.410000,62.230000C16.213270,62.823325,16.115300,63.444928,16.120000,64.070000L16.120000,64.350000C15.860000,64.230000,15.710000,63.760000,15.780000,63.230000ZM15.990000,65.830000C15.818453,65.444361,15.880462,64.994799,16.150000,64.670000C16.224004,65.368154,16.427478,66.046401,16.750000,66.670000C16.460000,66.670000,16.140000,66.290000,15.990000,65.790000ZM17.250000,68.130000C17.062230,67.923697,16.931285,67.672145,16.870000,67.400000C16.825792,67.273758,16.825792,67.136242,16.870000,67.010000C17.225747,67.627840,17.689815,68.176592,18.240000,68.630000L18.110000,68.630000C17.755730,68.588764,17.432173,68.409010,17.210000,68.130000ZM19.330000,69.710000C19.077671,69.595710,18.857734,69.420448,18.690000,69.200000C18.612297,69.099149,18.566973,68.977122,18.560000,68.850000C19.136482,69.260012,19.779182,69.567832,20.460000,69.760000C20.334957,69.848733,20.182921,69.891162,20.030000,69.880000C19.774233,69.875106,19.522260,69.817220,19.290000,69.710000ZM21.870000,70.310000C21.481853,70.327603,21.109205,70.156185,20.870000,69.850000C21.561996,69.986579,22.272288,70.003490,22.970000,69.900000C22.703785,70.200079,22.308852,70.352836,21.910000,70.310000ZM24.440000,69.820000C24.231903,69.911354,24.007264,69.959005,23.780000,69.960000C23.608696,69.969610,23.439277,69.920196,23.300000,69.820000C23.977781,69.664032,24.621575,69.386184,25.200000,69C25.089441,69.391195,24.788346,69.699817,24.400000,69.820000ZM26.580000,68.330000C26.353633,68.600701,26.030911,68.772819,25.680000,68.810000C25.633783,68.819162,25.586217,68.819162,25.540000,68.810000C26.109158,68.387948,26.597053,67.866171,26.980000,67.270000C27.043330,67.675043,26.891891,68.083928,26.580000,68.350000ZM27.930000,66.090000C27.770000,66.560000,27.450000,66.920000,27.160000,66.940000C27.506650,66.319467,27.740281,65.642275,27.850000,64.940000C28.080743,65.281327,28.111260,65.720012,27.930000,66.090000Z" fill="rgb(229,144,46)" stroke="none" stroke-width="1"/><g id="eqh0bcjg12ml196"><g id="eqh0bcjg12ml197"><path id="eqh0bcjg12ml198" d="M22,65.370000C21.246072,65.358993,20.642753,64.740834,20.650064,63.986861C20.657376,63.232888,21.272569,62.626546,22.026570,62.630162C22.780570,62.633777,23.389920,63.245991,23.390000,64C23.392793,64.367684,23.246587,64.720832,22.984711,64.978940C22.722834,65.237049,22.367605,65.378122,22,65.370000ZM22,63C21.447715,63,21,63.447715,21,64C21,64.552285,21.447715,65,22,65C22.552285,65,23,64.552285,23,64L23,64C23,63.447715,22.552285,63,22,63Z" fill="rgb(229,144,46)" stroke="none" stroke-width="1"/></g><g id="eqh0bcjg12ml199"><g id="eqh0bcjg12ml200"><path id="eqh0bcjg12ml201" d="M20.850000,63.500000C20.814656,63.513930,20.775344,63.513930,20.740000,63.500000C20.058935,63.012028,19.612959,62.261484,19.510000,61.430000C19.467701,61.063660,19.501750,60.692529,19.610000,60.340000C19.634389,60.253363,19.722078,60.200749,19.810000,60.220000C21.017232,60.547192,21.913767,61.561692,22.090000,62.800000C22.108766,62.879357,22.071840,62.961416,22,63C21.954825,63.008700,21.908053,62.998719,21.870364,62.972337C21.832676,62.945955,21.807288,62.905424,21.800000,62.860000L21.800000,62.860000C21.668558,61.826019,20.951632,60.961031,19.960000,60.640000C19.782591,61.616936,20.188388,62.608017,21,63.180000C21.067309,63.249742,21.067309,63.360258,21,63.430000C20.961269,63.466645,20.912555,63.491002,20.860000,63.500000Z" fill="rgb(229,144,46)" stroke="none" stroke-width="1"/></g><g id="eqh0bcjg12ml202"><path id="eqh0bcjg12ml203" d="M21.370000,63C21.370000,63,21.220000,61.330000,20.050000,60.870000C20.078768,61.764564,20.581708,62.576127,21.370000,63Z" fill="rgb(229,144,46)" stroke="none" stroke-width="1"/></g><g id="eqh0bcjg12ml204"><path id="eqh0bcjg12ml205" d="M23.050000,63.500000C22.950589,63.500000,22.870000,63.419411,22.870000,63.320000C22.869184,63.264728,22.895293,63.212510,22.940000,63.180000C23.752772,62.583213,24.143386,61.567617,23.940000,60.580000C22.949691,60.908853,22.234807,61.775261,22.100000,62.810000C22.115939,62.889034,22.074171,62.968393,22,63C21.952984,62.997565,21.909083,62.975742,21.878757,62.939731C21.848432,62.903719,21.834398,62.856745,21.840000,62.810000L21.840000,62.810000C22.021176,61.573981,22.915647,60.561817,24.120000,60.230000C24.210450,60.210005,24.301306,60.261923,24.330000,60.350000C24.635141,61.540422,24.183406,62.796563,23.190000,63.520000C23.142643,63.533982,23.091548,63.526682,23.050000,63.500000Z" fill="rgb(229,144,46)" stroke="none" stroke-width="1"/></g><g id="eqh0bcjg12ml206"><path id="eqh0bcjg12ml207" d="M22.520000,63C22.520000,63,22.670000,61.330000,23.840000,60.870000C23.815347,61.765802,23.311232,62.579261,22.520000,63Z" fill="rgb(229,144,46)" stroke="none" stroke-width="1"/></g><g id="eqh0bcjg12ml208"><path id="eqh0bcjg12ml209" d="M24.340000,65C23.935424,64.991709,23.535672,64.910404,23.160000,64.760000C23.081956,64.721075,23.043044,64.631802,23.067652,64.548133C23.092260,64.464464,23.173309,64.410473,23.260000,64.420000L23.260000,64.420000C24.192898,64.829206,25.279437,64.648770,26.030000,63.960000C25.232029,63.290972,24.123790,63.132098,23.170000,63.550000C23.124916,63.565990,23.075322,63.563377,23.032169,63.542739C22.989015,63.522100,22.955851,63.485133,22.940000,63.440000C22.914329,63.359906,22.947546,63.272713,23.020000,63.230000C24.168707,62.737506,25.500114,62.973154,26.410000,63.830000C26.471115,63.898328,26.471115,64.001672,26.410000,64.070000C25.868387,64.639080,25.125154,64.972997,24.340000,65Z" fill="rgb(229,144,46)" stroke="none" stroke-width="1"/></g><g id="eqh0bcjg12ml210"><path id="eqh0bcjg12ml211" d="M23.210000,64C23.992717,63.589243,24.927283,63.589243,25.710000,64C24.937619,64.450749,23.982381,64.450749,23.210000,64Z" fill="rgb(229,144,46)" stroke="none" stroke-width="1"/></g><g id="eqh0bcjg12ml212"><path id="eqh0bcjg12ml213" d="M19.730000,65C18.950712,64.981225,18.203228,64.687191,17.620000,64.170000C17.560266,64.104968,17.560266,64.005032,17.620000,63.940000C18.440862,63.022765,19.748765,62.718787,20.890000,63.180000C20.933992,63.199629,20.968280,63.236072,20.985195,63.281177C21.002109,63.326282,21.000238,63.376285,20.980000,63.420000C20.943598,63.499578,20.852731,63.538521,20.770000,63.510000C19.830400,63.116617,18.747628,63.308155,18,64C18.808335,64.662211,19.926208,64.798537,20.870000,64.350000C20.925867,64.303784,21.004009,64.295600,21.068240,64.329236C21.132471,64.362873,21.170250,64.431764,21.164082,64.504007C21.157914,64.576249,21.109003,64.637738,21.040000,64.660000L21.040000,64.660000C20.632900,64.866314,20.186051,64.982290,19.730000,65Z" fill="rgb(229,144,46)" stroke="none" stroke-width="1"/></g><g id="eqh0bcjg12ml214"><path id="eqh0bcjg12ml215" d="M20.850000,63.910000C20.064613,64.324265,19.125387,64.324265,18.340000,63.910000C19.116040,63.459559,20.073960,63.459559,20.850000,63.910000Z" fill="rgb(229,144,46)" stroke="none" stroke-width="1"/></g><g id="eqh0bcjg12ml216"><path id="eqh0bcjg12ml217" d="M20.090000,67.840000C20.013611,67.840125,19.945463,67.792020,19.920000,67.720000C19.549815,66.527877,19.918504,65.229622,20.860000,64.410000C20.929742,64.342691,21.040258,64.342691,21.110000,64.410000C21.169734,64.475032,21.169734,64.574968,21.110000,64.640000C20.320634,65.321081,19.980551,66.387703,20.230000,67.400000C21.180615,67.025334,21.817395,66.121264,21.850000,65.100000C21.881290,65.044744,21.936960,65.007631,22,65C22.085448,65.018359,22.147350,65.092642,22.150000,65.180000C22.091547,66.411833,21.268031,67.475208,20.090000,67.840000Z" fill="rgb(229,144,46)" stroke="none" stroke-width="1"/></g><g id="eqh0bcjg12ml218"><path id="eqh0bcjg12ml219" d="M21.470000,64.880000C21.470000,64.880000,20.140000,65.880000,20.390000,67.140000C21.127021,66.632957,21.538467,65.771967,21.470000,64.880000Z" fill="rgb(229,144,46)" stroke="none" stroke-width="1"/></g><g id="eqh0bcjg12ml220"><path id="eqh0bcjg12ml221" d="M24.280000,67.760000L24.280000,67.760000C23.070976,67.458651,22.155843,66.468893,21.950000,65.240000C21.944390,65.192204,21.958154,65.144152,21.988217,65.106573C22.018279,65.068995,22.062138,65.045019,22.110000,65.040000C22.199359,65.032843,22.280365,65.092531,22.300000,65.180000C22.459674,66.211220,23.193226,67.061209,24.190000,67.370000C24.353564,66.348209,23.883410,65.328885,23,64.790000C22.918095,64.734905,22.892022,64.626267,22.940000,64.540000C22.995095,64.458095,23.103733,64.432022,23.190000,64.480000L23.190000,64.480000C23.869793,64.944197,24.328982,65.667330,24.460000,66.480000C24.507159,66.844448,24.483389,67.214578,24.390000,67.570000C24.397337,67.650252,24.353250,67.726403,24.280000,67.760000Z" fill="rgb(229,144,46)" stroke="none" stroke-width="1"/></g><g id="eqh0bcjg12ml222"><path id="eqh0bcjg12ml223" d="M22.620000,65C22.620000,65,22.810000,66.670000,23.990000,67.100000C23.944807,66.204371,23.421504,65.402226,22.620000,65Z" fill="rgb(229,144,46)" stroke="none" stroke-width="1"/></g></g><g id="eqh0bcjg12ml224"><g id="eqh0bcjg12ml225"><path id="eqh0bcjg12ml226" d="M22.270000,61C22.179685,60.758821,22.058690,60.530275,21.910000,60.320000L21.910000,60.320000C21.767833,60.532607,21.650406,60.760751,21.560000,61C21.560000,61.170000,21.650000,61.340000,21.910000,61.540000L21.910000,61.540000C22.180000,61.330000,22.290000,61.160000,22.270000,61Z" fill="rgb(229,144,46)" stroke="none" stroke-width="1"/></g><g id="eqh0bcjg12ml227"><path id="eqh0bcjg12ml228" d="M21.510000,59.520000L21.510000,60C21.510000,60,21.510000,60.280000,21.340000,60.280000C21.257233,60.275687,21.189638,60.212317,21.180000,60.130000L21.180000,60.130000C21.276085,60.050345,21.335679,59.935066,21.345107,59.810614C21.354535,59.686162,21.312988,59.563221,21.230000,59.470000C21.047002,59.289552,20.752998,59.289552,20.570000,59.470000C20.470186,59.559245,20.412184,59.686124,20.410000,59.820000L20.410000,59.820000C20.404365,59.856450,20.404365,59.893550,20.410000,59.930000C20.459338,60.318377,20.770431,60.621175,21.160000,60.660000C21.501408,60.721421,21.829599,60.499670,21.900000,60.160000L21.900000,60.160000L21.900000,59.220000C21.540000,59.090000,21.510000,59.520000,21.510000,59.520000Z" fill="rgb(229,144,46)" stroke="none" stroke-width="1"/></g><g id="eqh0bcjg12ml229"><path id="eqh0bcjg12ml230" d="M22.380000,59.520000L22.380000,60C22.380000,60,22.380000,60.280000,22.550000,60.280000C22.632767,60.275687,22.700362,60.212317,22.710000,60.130000L22.710000,60.130000C22.613915,60.050345,22.554321,59.935066,22.544893,59.810614C22.535465,59.686162,22.577012,59.563221,22.660000,59.470000C22.842998,59.289552,23.137002,59.289552,23.320000,59.470000C23.419814,59.559245,23.477816,59.686124,23.480000,59.820000L23.480000,59.820000C23.485635,59.856450,23.485635,59.893550,23.480000,59.930000C23.430662,60.318377,23.119569,60.621175,22.730000,60.660000C22.388592,60.721421,22.060401,60.499670,21.990000,60.160000L21.990000,60.160000L21.990000,59.220000C22.350000,59.090000,22.380000,59.520000,22.380000,59.520000Z" fill="rgb(229,144,46)" stroke="none" stroke-width="1"/></g></g><g id="eqh0bcjg12ml231"><g id="eqh0bcjg12ml232"><path id="eqh0bcjg12ml233" d="M22.410000,67.080000C22.319544,67.316075,22.202098,67.540901,22.060000,67.750000L22.060000,67.750000C21.911007,67.543502,21.789959,67.318218,21.700000,67.080000C21.700000,66.900000,21.790000,66.740000,22.060000,66.530000L22.060000,66.530000C22.320000,66.740000,22.430000,66.900000,22.410000,67.080000Z" fill="rgb(229,144,46)" stroke="none" stroke-width="1"/></g><g id="eqh0bcjg12ml234"><path id="eqh0bcjg12ml235" d="M21.650000,68.550000L21.650000,68.110000C21.650000,68.110000,21.650000,67.820000,21.480000,67.830000C21.395397,67.829835,21.325288,67.895562,21.320000,67.980000L21.320000,67.980000C21.415495,68.057845,21.474897,68.171440,21.484346,68.294281C21.493796,68.417122,21.452466,68.538465,21.370000,68.630000C21.187002,68.810448,20.892998,68.810448,20.710000,68.630000C20.606954,68.543173,20.548241,68.414738,20.550000,68.280000L20.550000,68.280000C20.546111,68.243436,20.546111,68.206564,20.550000,68.170000C20.596464,67.781931,20.910359,67.480593,21.300000,67.450000C21.641408,67.388579,21.969599,67.610330,22.040000,67.950000L22.040000,67.950000L22.040000,68.890000C21.680000,69,21.650000,68.550000,21.650000,68.550000Z" fill="rgb(229,144,46)" stroke="none" stroke-width="1"/></g><g id="eqh0bcjg12ml236"><path id="eqh0bcjg12ml237" d="M22.520000,68.550000L22.520000,68.110000C22.520000,68.110000,22.520000,67.820000,22.690000,67.830000C22.729782,67.830000,22.767936,67.845804,22.796066,67.873934C22.824196,67.902064,22.840000,67.940218,22.840000,67.980000L22.840000,67.980000C22.660717,68.159579,22.660717,68.450421,22.840000,68.630000C23.022998,68.810448,23.317002,68.810448,23.500000,68.630000C23.603046,68.543173,23.661759,68.414738,23.660000,68.280000L23.660000,68.280000C23.663889,68.243436,23.663889,68.206564,23.660000,68.170000C23.612765,67.778469,23.293511,67.476017,22.900000,67.450000C22.562088,67.394534,22.240385,67.614878,22.170000,67.950000L22.170000,67.950000L22.170000,68.890000C22.490000,69,22.520000,68.550000,22.520000,68.550000Z" fill="rgb(229,144,46)" stroke="none" stroke-width="1"/></g></g><g id="eqh0bcjg12ml238"><g id="eqh0bcjg12ml239"><path id="eqh0bcjg12ml240" d="M24.890000,62.680000C25.039801,62.471980,25.157763,62.242796,25.240000,62L25.240000,62C24.983312,61.998834,24.727650,62.032474,24.480000,62.100000C24.330000,62.180000,24.260000,62.370000,24.240000,62.700000L24.240000,62.700000C24.570000,62.800000,24.770000,62.790000,24.890000,62.680000Z" fill="rgb(229,144,46)" stroke="none" stroke-width="1"/></g><g id="eqh0bcjg12ml241"><path id="eqh0bcjg12ml242" d="M25.650000,61.200000L25.290000,61.460000C25.290000,61.460000,25.060000,61.610000,24.970000,61.460000C24.912829,61.401673,24.912829,61.308327,24.970000,61.250000L24.970000,61.250000C25.207395,61.276933,25.427223,61.121480,25.480946,60.888680C25.534669,60.655880,25.405191,60.419818,25.180000,60.340000C25.050903,60.310971,24.915573,60.340232,24.810000,60.420000L24.810000,60.420000L24.720000,60.490000C24.455606,60.754115,24.394733,61.159936,24.570000,61.490000C24.715005,61.803284,25.085128,61.941523,25.400000,61.800000L25.400000,61.800000L26.160000,61.260000C26,61,25.650000,61.200000,25.650000,61.200000Z" fill="rgb(229,144,46)" stroke="none" stroke-width="1"/></g><g id="eqh0bcjg12ml243"><path id="eqh0bcjg12ml244" d="M26.160000,61.920000L25.800000,62.170000C25.800000,62.170000,25.580000,62.350000,25.670000,62.470000C25.716520,62.538491,25.807607,62.560178,25.880000,62.520000L25.880000,62.520000C25.892563,62.397702,25.953558,62.285522,26.049376,62.208492C26.145194,62.131462,26.267859,62.095993,26.390000,62.110000C26.578265,62.135929,26.732389,62.272684,26.780538,62.456526C26.828687,62.640368,26.761385,62.835114,26.610000,62.950000L26.610000,62.950000L26.510000,62.950000C26.169703,63.116451,25.760101,63.034530,25.510000,62.750000C25.269964,62.501887,25.269964,62.108113,25.510000,61.860000L25.510000,61.860000L26.280000,61.320000C26.490000,61.640000,26.160000,61.920000,26.160000,61.920000Z" fill="rgb(229,144,46)" stroke="none" stroke-width="1"/></g></g><g id="eqh0bcjg12ml245"><g id="eqh0bcjg12ml246"><path id="eqh0bcjg12ml247" d="M19.130000,62.780000C18.959735,62.586051,18.815208,62.370941,18.700000,62.140000L18.700000,62.140000C18.952445,62.109999,19.207555,62.109999,19.460000,62.140000C19.620000,62.210000,19.720000,62.380000,19.780000,62.710000L19.780000,62.710000C19.470000,62.840000,19.270000,62.870000,19.130000,62.780000Z" fill="rgb(229,144,46)" stroke="none" stroke-width="1"/></g><g id="eqh0bcjg12ml248"><path id="eqh0bcjg12ml249" d="M18.180000,61.410000L18.570000,61.620000C18.570000,61.620000,18.830000,61.740000,18.900000,61.620000C18.938314,61.545111,18.912094,61.453344,18.840000,61.410000L18.840000,61.410000C18.611838,61.461053,18.380843,61.336635,18.297923,61.118029C18.215004,60.899423,18.305376,60.653107,18.510000,60.540000C18.630747,60.485236,18.769253,60.485236,18.890000,60.540000L18.890000,60.540000C18.926631,60.553905,18.960493,60.574222,18.990000,60.600000C19.306085,60.826571,19.422471,61.242233,19.270000,61.600000C19.221651,61.758291,19.112020,61.890680,18.965516,61.967689C18.819012,62.044697,18.647799,62.059932,18.490000,62.010000L18.490000,62.010000L17.660000,61.570000C17.790000,61.240000,18.180000,61.410000,18.180000,61.410000Z" fill="rgb(229,144,46)" stroke="none" stroke-width="1"/></g><g id="eqh0bcjg12ml250"><path id="eqh0bcjg12ml251" d="M17.780000,62.180000L18.170000,62.390000C18.170000,62.390000,18.410000,62.530000,18.340000,62.670000C18.300550,62.740460,18.214779,62.770480,18.140000,62.740000L18.140000,62.740000C18.080549,62.489756,17.830990,62.333782,17.580000,62.390000C17.329756,62.449451,17.173782,62.699010,17.230000,62.950000C17.263375,63.082229,17.350346,63.194567,17.470000,63.260000L17.470000,63.260000L17.570000,63.260000C17.939467,63.398523,18.355547,63.261217,18.570000,62.930000C18.676742,62.800312,18.727276,62.633368,18.710377,62.466254C18.693478,62.299140,18.610544,62.145693,18.480000,62.040000L18.480000,62.040000L17.650000,61.600000C17.410000,62,17.780000,62.180000,17.780000,62.180000Z" fill="rgb(229,144,46)" stroke="none" stroke-width="1"/></g></g><g id="eqh0bcjg12ml252"><g id="eqh0bcjg12ml253"><path id="eqh0bcjg12ml254" d="M19.620000,65.740000C19.371145,65.800106,19.116010,65.830319,18.860000,65.830000L18.860000,65.830000C18.950315,65.588821,19.071310,65.360275,19.220000,65.150000C19.350000,65.040000,19.550000,65.040000,19.870000,65.150000L19.870000,65.150000C19.840000,65.480000,19.770000,65.660000,19.620000,65.740000Z" fill="rgb(229,144,46)" stroke="none" stroke-width="1"/></g><g id="eqh0bcjg12ml255"><path id="eqh0bcjg12ml256" d="M18,65.940000L18.360000,65.690000C18.360000,65.690000,18.590000,65.520000,18.500000,65.400000C18.453480,65.331509,18.362393,65.309822,18.290000,65.350000L18.290000,65.350000C18.277576,65.474265,18.215161,65.588137,18.117093,65.665460C18.019025,65.742782,17.893734,65.776909,17.770000,65.760000C17.517737,65.723780,17.340301,65.493113,17.370000,65.240000C17.389825,65.107670,17.461863,64.988807,17.570000,64.910000L17.570000,64.910000L17.670000,64.910000C18.013788,64.740640,18.429033,64.831994,18.670000,65.130000C18.789793,65.245026,18.857507,65.403923,18.857507,65.570000C18.857507,65.736077,18.789793,65.894974,18.670000,66.010000L18.670000,66.010000L17.900000,66.540000C17.630000,66.220000,18,65.940000,18,65.940000Z" fill="rgb(229,144,46)" stroke="none" stroke-width="1"/></g><g id="eqh0bcjg12ml257"><path id="eqh0bcjg12ml258" d="M18.460000,66.670000L18.830000,66.420000C18.830000,66.420000,19.070000,66.270000,19.150000,66.420000C19.207171,66.478327,19.207171,66.571673,19.150000,66.630000L19.150000,66.630000C19.030602,66.599915,18.904127,66.618954,18.798877,66.682856C18.693627,66.746758,18.618389,66.850187,18.590000,66.970000C18.556734,67.088126,18.573155,67.214715,18.635459,67.320444C18.697764,67.426173,18.800547,67.501869,18.920000,67.530000C19.050845,67.562220,19.189225,67.536729,19.300000,67.460000L19.300000,67.460000C19.331042,67.442199,19.358235,67.418404,19.380000,67.390000C19.660769,67.135906,19.731031,66.722600,19.550000,66.390000C19.499377,66.217977,19.376755,66.076297,19.213774,66.001518C19.050794,65.926739,18.863419,65.926185,18.700000,66L18.700000,66L17.930000,66.530000C18.090000,66.880000,18.460000,66.670000,18.460000,66.670000Z" fill="rgb(229,144,46)" stroke="none" stroke-width="1"/></g></g><g id="eqh0bcjg12ml259"><g id="eqh0bcjg12ml260"><path id="eqh0bcjg12ml261" d="M24.580000,65.820000C24.832445,65.850001,25.087555,65.850001,25.340000,65.820000L25.340000,65.820000C25.230870,65.587934,25.089470,65.372468,24.920000,65.180000C24.780000,65.080000,24.580000,65.100000,24.270000,65.180000L24.270000,65.180000C24.330000,65.570000,24.420000,65.750000,24.580000,65.820000Z" fill="rgb(229,144,46)" stroke="none" stroke-width="1"/></g><g id="eqh0bcjg12ml262"><path id="eqh0bcjg12ml263" d="M26.240000,65.850000L25.860000,65.640000C25.860000,65.640000,25.610000,65.490000,25.690000,65.360000C25.725965,65.285516,25.815436,65.254201,25.890000,65.290000L25.890000,65.290000C25.969818,65.515191,26.205880,65.644669,26.438680,65.590946C26.671480,65.537223,26.826933,65.317395,26.800000,65.080000C26.772386,64.950484,26.687906,64.840293,26.570000,64.780000L26.570000,64.780000L26.470000,64.780000C26.103123,64.631301,25.682392,64.765935,25.470000,65.100000C25.252001,65.365998,25.287608,65.757674,25.550000,65.980000L25.550000,65.980000L26.370000,66.430000C26.610000,66.090000,26.240000,65.850000,26.240000,65.850000Z" fill="rgb(229,144,46)" stroke="none" stroke-width="1"/></g><g id="eqh0bcjg12ml264"><path id="eqh0bcjg12ml265" d="M25.820000,66.620000L25.440000,66.400000C25.440000,66.400000,25.180000,66.280000,25.110000,66.400000C25.089156,66.433983,25.083789,66.475241,25.095244,66.513427C25.106700,66.551612,25.133892,66.583102,25.170000,66.600000L25.170000,66.600000C25.409984,66.519144,25.670882,66.642960,25.760000,66.880000C25.804773,66.996562,25.800236,67.126318,25.747433,67.239469C25.694629,67.352619,25.598095,67.439443,25.480000,67.480000C25.358269,67.530009,25.221731,67.530009,25.100000,67.480000L25.100000,67.480000L25,67.400000C24.687530,67.170611,24.575446,66.755486,24.730000,66.400000C24.780299,66.241202,24.892379,66.109324,25.040989,66.034078C25.189599,65.958833,25.362235,65.946551,25.520000,66L25.520000,66L26.340000,66.450000C26.220000,66.790000,25.820000,66.620000,25.820000,66.620000Z" fill="rgb(229,144,46)" stroke="none" stroke-width="1"/></g></g></g></g></g><g id="eqh0bcjg12ml266"><g id="eqh0bcjg12ml267_tr" transform="translate(12.370000,65.625483) rotate(0)"><path id="eqh0bcjg12ml267" d="M12.740000,66.890000C14.235399,67.895744,16.239768,67.666916,17.470000,66.350000C17.940000,65.730000,17.360000,63.920000,14.870000,63.750000C12.380000,63.580000,11.380000,65,12.740000,66.890000Z" transform="translate(-12.370000,-65.625483)" fill="rgb(255,255,255)" stroke="none" stroke-width="1"/></g></g><g id="eqh0bcjg12ml268"><g id="eqh0bcjg12ml269_tr" transform="translate(31.356996,64.912768) rotate(0)"><path id="eqh0bcjg12ml269" d="M30.840000,66.710000C29.151581,67.358563,27.238613,66.767732,26.210000,65.280000C25.920000,64.570000,27.050000,62.790000,29.500000,63.280000C31.950000,63.770000,31.490000,64.210000,30.840000,66.710000Z" transform="translate(-31.356996,-64.912768)" fill="rgb(255,255,255)" stroke="none" stroke-width="1"/></g></g><path id="eqh0bcjg12ml270" d="M19.510000,55C20.146338,55.565395,21.119564,55.511823,21.690000,54.880000L21.690000,54.880000C22.363084,55.473952,23.386401,55.425222,24,54.770000" fill="none" stroke="rgb(76,84,90)" stroke-width="1" stroke-linecap="round" stroke-linejoin="round"/></g><path id="eqh0bcjg12ml271" style="isolation:isolate" d="M10.540000,79.050000C10.540000,79.050000,11.920000,95.740000,16.890000,96.360000C18.076225,96.554731,19.281666,96.605098,20.480000,96.510000C18.800000,93.880000,16.930000,88.240000,17.290000,80.510000C11.850000,80.240000,10.540000,79.050000,10.540000,79.050000Z" opacity="0.1" fill="rgb(0,0,0)" stroke="none" stroke-width="1"/></g></svg>