<svg id="ebCzAjyaEIq1" xmlns="http://www.w3.org/2000/svg" xmlns:xlink="http://www.w3.org/1999/xlink" viewBox="0 0 110 100" shape-rendering="geometricPrecision" text-rendering="geometricPrecision"><style><![CDATA[#ebCzAjyaEIq4_to {animation: ebCzAjyaEIq4_to__to 5500ms linear infinite normal forwards}@keyframes ebCzAjyaEIq4_to__to { 0% {transform: translate(28.47696px,120.5px)} 7.272727% {transform: translate(28.47696px,120.5px);animation-timing-function: cubic-bezier(0.785,0.135,0.15,0.86)} 12.727273% {transform: translate(28.47696px,118.5px);animation-timing-function: cubic-bezier(0.785,0.135,0.15,0.86)} 16.363636% {transform: translate(28.47696px,120.5px);animation-timing-function: cubic-bezier(0.785,0.135,0.15,0.86)} 20% {transform: translate(28.47696px,118.5px);animation-timing-function: cubic-bezier(0.785,0.135,0.15,0.86)} 25.454545% {transform: translate(28.47696px,120.5px);animation-timing-function: cubic-bezier(0.785,0.135,0.15,0.86)} 29.090909% {transform: translate(28.47696px,118.5px);animation-timing-function: cubic-bezier(0.785,0.135,0.15,0.86)} 32.727273% {transform: translate(28.47696px,120.5px);animation-timing-function: cubic-bezier(0.785,0.135,0.15,0.86)} 36.363636% {transform: translate(28.47696px,118.5px);animation-timing-function: cubic-bezier(0.785,0.135,0.15,0.86)} 40% {transform: translate(28.47696px,120.5px);animation-timing-function: cubic-bezier(0.785,0.135,0.15,0.86)} 45.454545% {transform: translate(28.47696px,118.5px);animation-timing-function: cubic-bezier(0.785,0.135,0.15,0.86)} 49.090909% {transform: translate(28.47696px,120.5px);animation-timing-function: cubic-bezier(0.785,0.135,0.15,0.86)} 52.727273% {transform: translate(28.47696px,118.5px);animation-timing-function: cubic-bezier(0.785,0.135,0.15,0.86)} 54.545455% {transform: translate(28.47696px,120.5px);animation-timing-function: cubic-bezier(0.785,0.135,0.15,0.86)} 58.181818% {transform: translate(28.47696px,118.5px);animation-timing-function: cubic-bezier(0.785,0.135,0.15,0.86)} 60% {transform: translate(28.47696px,120.5px);animation-timing-function: cubic-bezier(0.785,0.135,0.15,0.86)} 63.636364% {transform: translate(28.47696px,118.5px);animation-timing-function: cubic-bezier(0.785,0.135,0.15,0.86)} 65.454545% {transform: translate(28.47696px,120.5px)} 100% {transform: translate(28.47696px,120.5px)}} #ebCzAjyaEIq7_to {animation: ebCzAjyaEIq7_to__to 5500ms linear infinite normal forwards}@keyframes ebCzAjyaEIq7_to__to { 0% {transform: translate(21.977489px,97.443172px)} 7.272727% {transform: translate(21.977489px,97.443172px)} 12.727273% {transform: translate(21.977489px,95.443172px)} 16.363636% {transform: translate(21.977489px,97.443172px)} 21.818182% {transform: translate(21.977489px,95.443172px)} 25.454545% {transform: translate(21.977489px,97.443172px)} 29.090909% {transform: translate(21.977489px,95.443172px)} 32.727273% {transform: translate(21.977489px,97.443172px)} 38.181818% {transform: translate(21.977489px,95.443172px)} 40% {transform: translate(21.977489px,97.443172px)} 45.454545% {transform: translate(21.977489px,95.443172px)} 47.272727% {transform: translate(21.977489px,97.443172px)} 50.909091% {transform: translate(21.977489px,95.443172px)} 54.545455% {transform: translate(21.977489px,97.443172px)} 58.181818% {transform: translate(21.977489px,95.443172px)} 60% {transform: translate(21.977489px,97.443172px)} 63.636364% {transform: translate(21.977489px,95.443172px)} 65.454545% {transform: translate(21.977489px,97.443172px)} 100% {transform: translate(21.977489px,97.443172px)}} #ebCzAjyaEIq7_tr {animation: ebCzAjyaEIq7_tr__tr 5500ms linear infinite normal forwards}@keyframes ebCzAjyaEIq7_tr__tr { 0% {transform: rotate(0deg)} 7.272727% {transform: rotate(0deg)} 10.909091% {transform: rotate(-23.552088deg)} 16.363636% {transform: rotate(0deg)} 20% {transform: rotate(-23.552088deg)} 23.636364% {transform: rotate(0deg)} 29.090909% {transform: rotate(-23.552088deg)} 32.727273% {transform: rotate(0deg)} 36.363636% {transform: rotate(-23.552088deg)} 41.818182% {transform: rotate(0deg)} 45.454545% {transform: rotate(-23.552088deg)} 49.090909% {transform: rotate(0deg)} 52.727273% {transform: rotate(-23.552088deg)} 56.363636% {transform: rotate(0deg)} 58.181818% {transform: rotate(-23.552088deg)} 61.818182% {transform: rotate(0deg)} 63.636364% {transform: rotate(-23.552088deg)} 65.454545% {transform: rotate(0deg)} 100% {transform: rotate(0deg)}} #ebCzAjyaEIq10_to {animation: ebCzAjyaEIq10_to__to 5500ms linear infinite normal forwards}@keyframes ebCzAjyaEIq10_to__to { 0% {transform: translate(24.038359px,75.03603px)} 7.272727% {transform: translate(24.038359px,75.03603px)} 12.727273% {transform: translate(25.038359px,73.03603px)} 14.545455% {transform: translate(28.038359px,74.03603px)} 20% {transform: translate(24.609788px,73.03603px)} 23.818182% {transform: translate(20.361788px,74.20403px)} 25.454545% {transform: translate(19.541217px,74.27603px)} 34.545455% {transform: translate(23.790567px,73.67603px)} 38.181818% {transform: translate(26.819719px,73.953677px)} 40% {transform: translate(25.067628px,73.592501px)} 43.636364% {transform: translate(19.563447px,71.870148px)} 49.090909% {transform: translate(21.307175px,73.786618px)} 52.727273% {transform: translate(22.914105px,73.286488px)} 56.363636% {transform: translate(24.521035px,72.786357px)} 60% {transform: translate(24.994631px,73.752893px)} 61.818182% {transform: translate(25.231429px,72.736161px)} 65.454545% {transform: translate(24.038359px,75.03603px)} 100% {transform: translate(24.038359px,75.03603px)}} #ebCzAjyaEIq10_tr {animation: ebCzAjyaEIq10_tr__tr 5500ms linear infinite normal forwards}@keyframes ebCzAjyaEIq10_tr__tr { 0% {transform: rotate(0deg)} 7.272727% {transform: rotate(0deg)} 14.545455% {transform: rotate(-37.763778deg)} 23.818182% {transform: rotate(17.65897deg)} 30.909091% {transform: rotate(-25.420533deg)} 40% {transform: rotate(26.060069deg)} 45.454545% {transform: rotate(-25.420533deg)} 52.727273% {transform: rotate(-68.471639deg)} 60% {transform: rotate(-21.545828deg)} 65.454545% {transform: rotate(0deg)} 100% {transform: rotate(0deg)}} #ebCzAjyaEIq13_tr {animation: ebCzAjyaEIq13_tr__tr 5500ms linear infinite normal forwards}@keyframes ebCzAjyaEIq13_tr__tr { 0% {transform: translate(22.824023px,65.572296px) rotate(0deg)} 7.272727% {transform: translate(22.824023px,65.572296px) rotate(0deg);animation-timing-function: cubic-bezier(0.645,0.045,0.355,1)} 12.727273% {transform: translate(22.824023px,65.572296px) rotate(8.188839deg);animation-timing-function: cubic-bezier(0.645,0.045,0.355,1)} 18.181818% {transform: translate(22.824023px,65.572296px) rotate(-6deg);animation-timing-function: cubic-bezier(0.645,0.045,0.355,1)} 23.636364% {transform: translate(22.824023px,65.572296px) rotate(12deg);animation-timing-function: cubic-bezier(0.645,0.045,0.355,1)} 29.090909% {transform: translate(22.824023px,65.572296px) rotate(-6deg);animation-timing-function: cubic-bezier(0.645,0.045,0.355,1)} 32.727273% {transform: translate(22.824023px,65.572296px) rotate(16deg);animation-timing-function: cubic-bezier(0.645,0.045,0.355,1)} 38.181818% {transform: translate(22.824023px,65.572296px) rotate(-6deg);animation-timing-function: cubic-bezier(0.645,0.045,0.355,1)} 41.818182% {transform: translate(22.824023px,65.572296px) rotate(8.188839deg);animation-timing-function: cubic-bezier(0.645,0.045,0.355,1)} 45.454545% {transform: translate(22.824023px,65.572296px) rotate(-6deg);animation-timing-function: cubic-bezier(0.645,0.045,0.355,1)} 49.090909% {transform: translate(22.824023px,65.572296px) rotate(12deg);animation-timing-function: cubic-bezier(0.645,0.045,0.355,1)} 52.727273% {transform: translate(22.824023px,65.572296px) rotate(-6deg);animation-timing-function: cubic-bezier(0.645,0.045,0.355,1)} 58.181818% {transform: translate(22.824023px,65.572296px) rotate(10deg);animation-timing-function: cubic-bezier(0.645,0.045,0.355,1)} 61.818182% {transform: translate(22.824023px,65.572296px) rotate(-6deg);animation-timing-function: cubic-bezier(0.645,0.045,0.355,1)} 65.454545% {transform: translate(22.824023px,65.572296px) rotate(0deg)} 100% {transform: translate(22.824023px,65.572296px) rotate(0deg)}} #ebCzAjyaEIq53_tr {animation: ebCzAjyaEIq53_tr__tr 5500ms linear infinite normal forwards}@keyframes ebCzAjyaEIq53_tr__tr { 0% {transform: translate(33.034965px,51.045772px) rotate(0deg)} 7.272727% {transform: translate(33.034965px,51.045772px) rotate(0deg);animation-timing-function: cubic-bezier(0.42,0,0.58,1)} 12.727273% {transform: translate(33.034965px,51.045772px) rotate(5.427473deg);animation-timing-function: cubic-bezier(0.42,0,0.58,1)} 18.181818% {transform: translate(33.034965px,51.045772px) rotate(-35.246937deg);animation-timing-function: cubic-bezier(0.42,0,0.58,1)} 23.636364% {transform: translate(33.034965px,51.045772px) rotate(-18.21622deg);animation-timing-function: cubic-bezier(0.42,0,0.58,1)} 29.090909% {transform: translate(33.034965px,51.045772px) rotate(-32.469168deg);animation-timing-function: cubic-bezier(0.42,0,0.58,1)} 34.545455% {transform: translate(33.034965px,51.045772px) rotate(-5.224219deg);animation-timing-function: cubic-bezier(0.42,0,0.58,1)} 38.181818% {transform: translate(33.034965px,51.045772px) rotate(-20.515099deg);animation-timing-function: cubic-bezier(0.42,0,0.58,1)} 41.818182% {transform: translate(33.034965px,51.045772px) rotate(2.838734deg);animation-timing-function: cubic-bezier(0.42,0,0.58,1)} 45.454545% {transform: translate(33.034965px,51.045772px) rotate(-8.442423deg);animation-timing-function: cubic-bezier(0.42,0,0.58,1)} 49.090909% {transform: translate(33.034965px,51.045772px) rotate(-17.632933deg);animation-timing-function: cubic-bezier(0.42,0,0.58,1)} 52.727273% {transform: translate(33.034965px,51.045772px) rotate(-23.940266deg);animation-timing-function: cubic-bezier(0.42,0,0.58,1)} 58.181818% {transform: translate(33.034965px,51.045772px) rotate(-6.533176deg);animation-timing-function: cubic-bezier(0.42,0,0.58,1)} 61.818182% {transform: translate(33.034965px,51.045772px) rotate(-13.812502deg);animation-timing-function: cubic-bezier(0.42,0,0.58,1)} 65.454545% {transform: translate(33.034965px,51.045772px) rotate(0deg)} 100% {transform: translate(33.034965px,51.045772px) rotate(0deg)}} #ebCzAjyaEIq56_tr {animation: ebCzAjyaEIq56_tr__tr 5500ms linear infinite normal forwards}@keyframes ebCzAjyaEIq56_tr__tr { 0% {transform: translate(12.069059px,52.215805px) rotate(0deg)} 7.272727% {transform: translate(12.069059px,52.215805px) rotate(0deg);animation-timing-function: cubic-bezier(0.42,0,0.58,1)} 12.727273% {transform: translate(12.069059px,52.215805px) rotate(29.464746deg);animation-timing-function: cubic-bezier(0.42,0,0.58,1)} 18.181818% {transform: translate(12.069059px,52.215805px) rotate(0.799414deg);animation-timing-function: cubic-bezier(0.42,0,0.58,1)} 23.636364% {transform: translate(12.069059px,52.215805px) rotate(23.27471deg);animation-timing-function: cubic-bezier(0.42,0,0.58,1)} 29.090909% {transform: translate(12.069059px,52.215805px) rotate(-9.252235deg);animation-timing-function: cubic-bezier(0.42,0,0.58,1)} 34.545455% {transform: translate(12.069059px,52.215805px) rotate(28.881378deg);animation-timing-function: cubic-bezier(0.42,0,0.58,1)} 38.181818% {transform: translate(12.069059px,52.215805px) rotate(14.767831deg);animation-timing-function: cubic-bezier(0.42,0,0.58,1)} 41.818182% {transform: translate(12.069059px,52.215805px) rotate(29.557964deg);animation-timing-function: cubic-bezier(0.42,0,0.58,1)} 45.454545% {transform: translate(12.069059px,52.215805px) rotate(19.552862deg);animation-timing-function: cubic-bezier(0.42,0,0.58,1)} 49.090909% {transform: translate(12.069059px,52.215805px) rotate(27.720866deg);animation-timing-function: cubic-bezier(0.42,0,0.58,1)} 52.727273% {transform: translate(12.069059px,52.215805px) rotate(10.66712deg);animation-timing-function: cubic-bezier(0.42,0,0.58,1)} 58.181818% {transform: translate(12.069059px,52.215805px) rotate(27.504739deg);animation-timing-function: cubic-bezier(0.42,0,0.58,1)} 61.818182% {transform: translate(12.069059px,52.215805px) rotate(9.763695deg);animation-timing-function: cubic-bezier(0.42,0,0.58,1)} 65.454545% {transform: translate(12.069059px,52.215805px) rotate(0deg)} 100% {transform: translate(12.069059px,52.215805px) rotate(0deg)}} #ebCzAjyaEIq92_tr {animation: ebCzAjyaEIq92_tr__tr 5500ms linear infinite normal forwards}@keyframes ebCzAjyaEIq92_tr__tr { 0% {transform: translate(64.33px,94.5px) rotate(-16.035654deg);animation-timing-function: cubic-bezier(0.42,0,0.58,1)} 7.272727% {transform: translate(64.33px,94.5px) rotate(43.309827deg)} 60% {transform: translate(64.33px,94.5px) rotate(43.309827deg);animation-timing-function: cubic-bezier(0,0,0.58,1)} 65.454545% {transform: translate(64.33px,94.5px) rotate(-16.035654deg)} 100% {transform: translate(64.33px,94.5px) rotate(-16.035654deg)}} #ebCzAjyaEIq106_to {animation: ebCzAjyaEIq106_to__to 5500ms linear infinite normal forwards}@keyframes ebCzAjyaEIq106_to__to { 0% {transform: translate(61.795px,79.890049px)} 61.818182% {transform: translate(61.795px,79.890049px);animation-timing-function: cubic-bezier(0.42,0,0.58,1)} 70.909091% {transform: translate(60.795px,78.890049px)} 92.727273% {transform: translate(60.795px,78.890049px)} 100% {transform: translate(61.795px,79.890049px)}} #ebCzAjyaEIq110_to {animation: ebCzAjyaEIq110_to__to 5500ms linear infinite normal forwards}@keyframes ebCzAjyaEIq110_to__to { 0% {transform: translate(84.545002px,79.890049px)} 61.818182% {transform: translate(84.545002px,79.890049px);animation-timing-function: cubic-bezier(0.42,0,0.58,1)} 70.909091% {transform: translate(82.545002px,78.890049px)} 92.727273% {transform: translate(82.545002px,78.890049px)} 100% {transform: translate(84.545002px,79.890049px)}} #ebCzAjyaEIq123_to {animation: ebCzAjyaEIq123_to__to 5500ms linear infinite normal forwards}@keyframes ebCzAjyaEIq123_to__to { 0% {transform: translate(73.505829px,87.22747px)} 61.818182% {transform: translate(73.505829px,87.22747px);animation-timing-function: cubic-bezier(0.42,0,0.58,1)} 70.909091% {transform: translate(71.505829px,87.22747px)} 92.727273% {transform: translate(71.505829px,87.22747px)} 100% {transform: translate(73.505829px,87.22747px)}} #ebCzAjyaEIq150_to {animation: ebCzAjyaEIq150_to__to 5500ms linear infinite normal forwards}@keyframes ebCzAjyaEIq150_to__to { 0% {transform: translate(56.15897px,107.107153px);animation-timing-function: cubic-bezier(0.42,0,0.58,1)} 7.272727% {transform: translate(49.15897px,94.107153px)} 60% {transform: translate(49.15897px,94.107153px);animation-timing-function: cubic-bezier(0,0,0.58,1)} 65.454545% {transform: translate(56.15897px,107.107153px)} 100% {transform: translate(56.15897px,107.107153px)}} #ebCzAjyaEIq150_tr {animation: ebCzAjyaEIq150_tr__tr 5500ms linear infinite normal forwards}@keyframes ebCzAjyaEIq150_tr__tr { 0% {transform: rotate(-22.698826deg);animation-timing-function: cubic-bezier(0.42,0,0.58,1)} 7.272727% {transform: rotate(35.331045deg)} 60% {transform: rotate(35.331045deg);animation-timing-function: cubic-bezier(0,0,0.58,1)} 65.454545% {transform: rotate(-22.698826deg)} 100% {transform: rotate(-22.698826deg)}} #ebCzAjyaEIq152_tr {animation: ebCzAjyaEIq152_tr__tr 5500ms linear infinite normal forwards}@keyframes ebCzAjyaEIq152_tr__tr { 0% {transform: translate(48.82px,89.187537px) rotate(0deg);animation-timing-function: cubic-bezier(0.42,0,0.58,1)} 7.272727% {transform: translate(48.82px,89.187537px) rotate(28.826448deg)} 60% {transform: translate(48.82px,89.187537px) rotate(28.826448deg);animation-timing-function: cubic-bezier(0,0,0.58,1)} 65.454545% {transform: translate(48.82px,89.187537px) rotate(0deg)} 100% {transform: translate(48.82px,89.187537px) rotate(0deg)}} #ebCzAjyaEIq175_to {animation: ebCzAjyaEIq175_to__to 5500ms linear infinite normal forwards}@keyframes ebCzAjyaEIq175_to__to { 0% {transform: translate(0px,23px)} 5.454545% {transform: translate(0px,23px)} 12.727273% {transform: translate(0px,21px)} 56.363636% {transform: translate(0px,21px)} 60% {transform: translate(0px,23px)} 100% {transform: translate(0px,23px)}} #ebCzAjyaEIq175 {animation: ebCzAjyaEIq175_c_o 5500ms linear infinite normal forwards}@keyframes ebCzAjyaEIq175_c_o { 0% {opacity: 0} 5.454545% {opacity: 0} 12.727273% {opacity: 1} 56.363636% {opacity: 1} 60% {opacity: 0} 100% {opacity: 0}} #ebCzAjyaEIq176_to {animation: ebCzAjyaEIq176_to__to 5500ms linear infinite normal forwards}@keyframes ebCzAjyaEIq176_to__to { 0% {transform: translate(88.422794px,37.895756px)} 12.727273% {transform: translate(88.422794px,37.895756px)} 16.363636% {transform: translate(88.422794px,36.895756px)} 100% {transform: translate(88.422794px,36.895756px)}} #ebCzAjyaEIq176 {animation: ebCzAjyaEIq176_c_o 5500ms linear infinite normal forwards}@keyframes ebCzAjyaEIq176_c_o { 0% {opacity: 0} 12.727273% {opacity: 0} 16.363636% {opacity: 1} 25.454545% {opacity: 1} 29.090909% {opacity: 0} 100% {opacity: 0}} #ebCzAjyaEIq179 {animation: ebCzAjyaEIq179_c_o 5500ms linear infinite normal forwards}@keyframes ebCzAjyaEIq179_c_o { 0% {opacity: 0} 27.272727% {opacity: 0} 30.909091% {opacity: 1} 40% {opacity: 1} 43.636364% {opacity: 0} 100% {opacity: 0}} #ebCzAjyaEIq182 {animation: ebCzAjyaEIq182_c_o 5500ms linear infinite normal forwards}@keyframes ebCzAjyaEIq182_c_o { 0% {opacity: 0} 41.818182% {opacity: 0} 45.454545% {opacity: 1} 54.545455% {opacity: 1} 58.181818% {opacity: 0} 100% {opacity: 0}}]]></style><defs><filter id="ebCzAjyaEIq175-filter" x="-400%" width="600%" y="-400%" height="600%"><feGaussianBlur id="ebCzAjyaEIq175-filter-drop-shadow-0-blur" in="SourceAlpha" stdDeviation="2,4"/><feOffset id="ebCzAjyaEIq175-filter-drop-shadow-0-offset" dx="0" dy="0" result="tmp"/><feFlood id="ebCzAjyaEIq175-filter-drop-shadow-0-flood" flood-color="rgba(0,0,0,0.2)"/><feComposite id="ebCzAjyaEIq175-filter-drop-shadow-0-composite" operator="in" in2="tmp"/><feMerge id="ebCzAjyaEIq175-filter-drop-shadow-0-merge"><feMergeNode id="ebCzAjyaEIq175-filter-drop-shadow-0-merge-node-1"/><feMergeNode id="ebCzAjyaEIq175-filter-drop-shadow-0-merge-node-2" in="SourceGraphic"/></feMerge></filter></defs><g id="ebCzAjyaEIq2" transform="matrix(1 0 0 1 0 -23)"><rect id="ebCzAjyaEIq3" style="isolation:isolate" width="109.97" height="100" rx="0" ry="0" transform="matrix(1 0 0 1 0 23)" opacity="0" fill="rgb(255,255,255)" stroke="none" stroke-width="1"/><g id="ebCzAjyaEIq4_to" transform="translate(28.47696,120.5)"><g id="ebCzAjyaEIq4" transform="rotate(0.522289) translate(-28.476952,-120.5)"><path id="ebCzAjyaEIq5" d="M16,86L16,98L28,98L28,86L16,86M14,82L30,82C31.104569,82,32,82.895431,32,84L32,100C32,101.104569,31.104569,102,30,102L14,102C12.895431,102,12,101.104569,12,100L12,84C12,82.895431,12.895431,82,14,82Z" transform="matrix(1 0 0 1 0 21)" fill="rgb(255,91,115)" stroke="none" stroke-width="1"/><path id="ebCzAjyaEIq6" d="M30,102L14,102C13.241056,101.999597,12.54773,101.569658,12.21,100.89C12.413,100.958047,12.625907,100.991841,12.84,100.99L29,100.99C30.104569,100.99,31,100.094569,31,98.99L31,82.83C30.998712,82.64058,30.971801,82.452204,30.92,82.27C31.555032,82.538349,31.976473,83.150998,32,83.84L32,100C32,101.104569,31.104569,102,30,102ZM16,98L15.4,98L15.4,85.57L28.06,85.57L28.06,98L28,98L28,86L16,86L16,98Z" transform="matrix(1 0 0 1 0 21)" opacity="0.2" fill="rgb(0,0,0)" stroke="none" stroke-width="1"/></g></g><g id="ebCzAjyaEIq7_to" transform="translate(21.977489,97.443172)"><g id="ebCzAjyaEIq7_tr" transform="rotate(0)"><g id="ebCzAjyaEIq7" transform="translate(-20.977485,-96.443171)"><path id="ebCzAjyaEIq8" d="M22.59,68.41L16.05,75.41L25.7,77.47L22.59,68.4M24,61.73C24.33986,61.804882,24.616348,62.05107,24.73,62.38L31.2,81.19C31.316622,81.531604,31.240096,81.909544,30.999771,82.178873C30.759447,82.448202,30.392629,82.567112,30.04,82.49L10,78.23C9.466819,78.110376,9.128387,77.584915,9.24,77.05C9.274771,76.871121,9.35776,76.705144,9.48,76.57L23.07,62C23.312841,61.75589,23.66419,61.653885,24,61.73Z" transform="matrix(1 0 0 1 0 21)" fill="rgb(255,91,115)" stroke="none" stroke-width="1"/><path id="ebCzAjyaEIq9" d="M30.05,82.49L10,78.23C9.462758,78.114978,9.11893,77.588073,9.23,77.05L28.23,81.05C28.489966,81.106319,28.761657,81.056744,28.98498,80.912242C29.208302,80.767739,29.364851,80.540217,29.42,80.28C29.467669,80.106549,29.467669,79.923451,29.42,79.75L23.25,61.75C23.479309,61.615626,23.752677,61.578065,24.00973,61.645611C24.266783,61.713158,24.486372,61.880256,24.62,62.11C24.655976,62.166821,24.686129,62.227126,24.71,62.29L31.17,81.1C31.286622,81.441604,31.210096,81.819544,30.969771,82.088873C30.729447,82.358202,30.362629,82.477112,30.01,82.4ZM16.05,75.42L15.4,75.28L22.4,67.87L22.59,68.55L22.54,68.41L16.01,75.41Z" transform="matrix(1 0 0 1 0 21)" opacity="0.2" fill="rgb(0,0,0)" stroke="none" stroke-width="1"/></g></g></g><g id="ebCzAjyaEIq10_to" transform="translate(24.038359,75.03603)"><g id="ebCzAjyaEIq10_tr" transform="rotate(0)"><g id="ebCzAjyaEIq10" transform="scale(0.9,0.9) translate(-24.038359,-74.03603)"><path id="ebCzAjyaEIq11" d="M24,46C20.134007,46,17,49.134007,17,53C17,56.865993,20.134007,60,24,60C27.865993,60,31,56.865993,31,53C31,49.134007,27.865993,46,24,46M24,42C30.075132,42,35,46.924868,35,53C35,59.075132,30.075132,64,24,64C17.924868,64,13,59.075132,13,53C13,46.924868,17.924868,42,24,42Z" transform="matrix(1 0 0 1 0 21)" fill="rgb(255,91,115)" stroke="none" stroke-width="1"/><path id="ebCzAjyaEIq12" d="M31.27,44.75C34.262836,47.336887,35.636133,51.331579,34.866597,55.211896C34.097061,59.092214,31.30322,62.260488,27.549667,63.509446C23.796115,64.758404,19.660996,63.895674,16.72,61.25C16.36638,60.93759,16.03241,60.60362,15.72,60.25C20.070093,64.092601,26.657238,63.894086,30.768041,59.796502C34.878843,55.698918,35.098571,49.112446,31.27,44.75ZM23,45C25.102441,45.002415,27.092459,45.949693,28.42,47.58C25.634901,45.347498,21.616071,45.568132,19.092101,48.092101C16.568132,50.616071,16.347498,54.634901,18.58,57.42C16.289996,55.548348,15.423403,52.439419,16.415013,49.65304C17.406623,46.866661,20.042436,45.00416,23,45Z" transform="matrix(1 0 0 1 0 21)" opacity="0.2" fill="rgb(0,0,0)" stroke="none" stroke-width="1"/></g></g></g><g id="ebCzAjyaEIq13_tr" transform="translate(22.824023,65.572296) rotate(0)"><g id="ebCzAjyaEIq13" transform="translate(-22.824023,-64.572295)"><g id="ebCzAjyaEIq14"><g id="ebCzAjyaEIq15"><g id="ebCzAjyaEIq16"><g id="ebCzAjyaEIq17"><path id="ebCzAjyaEIq18" d="M12.88,24.16L11,32.26C11,32.26,8.69,42.31,15.85,43.31C18.34983,43.440071,20.855611,43.399978,23.35,43.19C27.76,43.11,28.85,44.19,32.22,43.04C35.59,41.89,36,38.22,35.74,32.57C35.74,30.85,33.17,23.81,33.17,23.81Z" transform="matrix(1 0 0 1 0 21)" fill="rgb(221,61,122)" stroke="none" stroke-width="1"/></g><g id="ebCzAjyaEIq19"><g id="ebCzAjyaEIq20"><path id="ebCzAjyaEIq21" d="M17.05,41.17C15.171915,41.341466,13.280828,41.038892,11.55,40.29C10.046395,39.370231,8.881495,37.98779,8.23,36.35C7.43,35.25,6.11,34,4.54,34.56C2.97,35.12,2.54,37.12,4.25,39.34C5.96,41.56,12.03,43.84,17.59,42.15C23.15,40.46,17.05,41.17,17.05,41.17Z" transform="matrix(1 0 0 1 0 21)" fill="rgb(221,61,122)" stroke="none" stroke-width="1"/><g id="ebCzAjyaEIq22" clip-path="url(#ebCzAjyaEIq28)"><g id="ebCzAjyaEIq23"><g id="ebCzAjyaEIq24"><g id="ebCzAjyaEIq25"><g id="ebCzAjyaEIq26"><path id="ebCzAjyaEIq27" d="M17.05,41.17C15.171531,41.353374,13.277477,41.050325,11.55,40.29C10.051094,39.364772,8.887672,37.984084,8.23,36.35C7.43,35.27,6.11,34,4.54,34.56C2.97,35.12,2.54,37.13,4.27,39.34C6,41.55,12.03,43.83,17.59,42.14C23.15,40.45,17.05,41.17,17.05,41.17Z" transform="matrix(1 0 0 1 0 21)" fill="rgb(0,0,0)" stroke="none" stroke-width="1"/></g></g></g></g><clipPath id="ebCzAjyaEIq28" transform="matrix(1 0 0 1 0 21)"><path id="ebCzAjyaEIq29" d="M9.18,35.25C6.932726,35.564512,5.049468,37.108166,4.3,39.25C3.17,42.85,1.75,34.1,1.75,34.1L5.5,31.74Z" fill="none" stroke="none" stroke-width="1"/></clipPath></g></g></g><path id="ebCzAjyaEIq30" d="M22.76,31.86L22.76,41.57L23.76,41.57C23.76,37.18,23.76,31.86,23.76,31.86Z" transform="matrix(1 0 0 1 0 21)" fill="rgb(0,0,0)" stroke="none" stroke-width="1"/></g><g id="ebCzAjyaEIq31"><g id="ebCzAjyaEIq32"><path id="ebCzAjyaEIq33" d="M6.41,17.64C6.41,17.64,0.94,8.36,5,5.71C9.06,3.06,15,7.89,15.41,8.21C15.41,8.21,21.69,5.02,27.85,7.07C28.19,7.25,33.62,2.02,37.85,3.5C42.08,4.98,37.85,15.25,37.85,15.25C37.85,15.25,38.62,21.88,41.12,23.31C41.3,23.63,39.12,24.75,38.33,24.51C39.059947,24.780834,39.818049,24.968682,40.59,25.07C41.36,25.17,32.04,32.07,22.77,32.07C13.5,32.07,7.91,28.64,6.89,27.92C7.511443,27.676634,8.113222,27.385774,8.69,27.05C8.87,26.96,5.51,26.6,4.17,25.05C3.72,24.6,7.69,22.05,7.17,19.39C6.89,17.9,6.41,17.64,6.41,17.64Z" transform="matrix(1 0 0 1 0 21)" fill="rgb(221,61,122)" stroke="none" stroke-width="1"/></g><g id="ebCzAjyaEIq34"><g id="ebCzAjyaEIq35"><path id="ebCzAjyaEIq36" d="M3.92,24.8C3.784389,24.80859,3.657376,24.733176,3.6,24.61C3.541113,24.435763,3.611957,24.244067,3.77,24.15C5.02275,23.586055,6.410545,23.391763,7.77,23.59C7.855235,23.613298,7.927566,23.669806,7.970797,23.74687C8.014028,23.823934,8.024548,23.915116,8,24L8,24L8,24C7.953484,24.175752,7.791703,24.296051,7.61,24.29C6.389202,24.106871,5.141496,24.284122,4.02,24.8C3.977225,24.809838,3.932775,24.809838,3.89,24.8Z" transform="matrix(1 0 0 1 0 21)" fill="rgb(0,0,0)" stroke="none" stroke-width="1"/></g><g id="ebCzAjyaEIq37"><path id="ebCzAjyaEIq38" d="M42.13,24.74C42.087225,24.749838,42.042775,24.749838,42,24.74C40.870871,24.250408,39.626091,24.090909,38.41,24.28C38.318467,24.297536,38.223721,24.277841,38.146759,24.225282C38.069797,24.172722,38.016975,24.091638,38,24C37.962617,23.829014,38.069541,23.659717,38.24,23.62L38.24,23.62C39.594494,23.39397,40.985555,23.57133,42.24,24.13C42.409604,24.203378,42.489545,24.398788,42.42,24.57C42.365115,24.678708,42.251666,24.745213,42.13,24.74Z" transform="matrix(1 0 0 1 0 21)" fill="rgb(0,0,0)" stroke="none" stroke-width="1"/></g><g id="ebCzAjyaEIq39"><path id="ebCzAjyaEIq40" d="M4.61,27.4C4.519068,27.405521,4.429898,27.373207,4.363615,27.310711C4.297332,27.248216,4.259833,27.161099,4.26,27.07L4.26,27.07C4.26,26.959835,4.311868,26.856099,4.4,26.79C5.496336,25.972818,6.805587,25.490096,8.17,25.4C8.259212,25.38879,8.349135,25.414468,8.418976,25.471096C8.488817,25.527724,8.532528,25.610397,8.54,25.7L8.54,25.7C8.547502,25.886792,8.414493,26.049836,8.23,26.08C7.00283,26.174007,5.825823,26.60673,4.83,27.33C4.769515,27.382776,4.689861,27.408121,4.61,27.4Z" transform="matrix(1 0 0 1 0 21)" fill="rgb(0,0,0)" stroke="none" stroke-width="1"/></g><g id="ebCzAjyaEIq41"><path id="ebCzAjyaEIq42" d="M41.46,27.4C41.387181,27.400883,41.316375,27.376101,41.26,27.33C40.271102,26.600845,39.095541,26.167378,37.87,26.08C37.682052,26.050755,37.542615,25.890192,37.54,25.7C37.560419,25.522468,37.711302,25.38883,37.89,25.39L37.89,25.39C39.247607,25.483321,40.549558,25.965911,41.64,26.78C41.787109,26.891654,41.818188,27.100323,41.71,27.25C41.646038,27.335375,41.546632,27.386919,41.44,27.39Z" transform="matrix(1 0 0 1 0 21)" fill="rgb(0,0,0)" stroke="none" stroke-width="1"/></g></g></g><g id="ebCzAjyaEIq43"><path id="ebCzAjyaEIq44" style="isolation:isolate" d="M8.62,14.55C8.62,14.55,10.42,10.95,12.5,10.17C12.5,10,7.98,7.17,6.69,8.44C5.4,9.71,8.62,14.55,8.62,14.55Z" transform="matrix(1 0 0 1 0 21)" opacity="0.2" fill="rgb(0,0,0)" stroke="none" stroke-width="1"/></g><g id="ebCzAjyaEIq45" opacity="0.2"><path id="ebCzAjyaEIq46" d="M30.68,9.23C30.68,9.23,34.55,10.37,35.68,12.31C35.83,12.31,37.83,7.31,36.36,6.31C34.89,5.31,30.68,9.23,30.68,9.23Z" transform="matrix(1 0 0 1 0 21)" fill="rgb(0,0,0)" stroke="none" stroke-width="1"/></g></g><g id="ebCzAjyaEIq47"><g id="ebCzAjyaEIq48"><path id="ebCzAjyaEIq49" d="M21.78,7.89C21.497078,7.884493,21.257908,7.67889,21.21,7.4C21.15,6.82,20.75,5.05,19.91,4.6C19.638352,4.446751,19.540317,4.10363,19.69,3.83L19.69,3.83C19.847211,3.557783,20.190245,3.456633,20.47,3.6C22,4.43,22.31,7,22.35,7.25C22.392068,7.560811,22.179431,7.848757,21.87,7.9L21.78,7.9Z" transform="matrix(1 0 0 1 0 21)" fill="rgb(128,75,51)" stroke="none" stroke-width="1"/></g><path id="ebCzAjyaEIq50" d="M16.63,2.91C16,3.77,18.3,5.61,20,5C21.7,4.39,20,2.46,19.31,2.16C18.347516,1.832106,17.282483,2.130157,16.63,2.91Z" transform="matrix(1 0 0 1 0 21)" fill="rgb(108,206,157)" stroke="none" stroke-width="1"/><g id="ebCzAjyaEIq51"><path id="ebCzAjyaEIq52" d="M24.78,2.64C25.46,3.43,23.47,5.55,21.64,5.18C19.81,4.81,21.29,2.67,22,2.28C22.910018,1.802613,24.0216,1.946559,24.78,2.64Z" transform="matrix(1 0 0 1 0 21)" fill="rgb(108,206,157)" stroke="none" stroke-width="1"/></g></g></g><g id="ebCzAjyaEIq53_tr" transform="translate(33.034965,51.045772) rotate(0)"><g id="ebCzAjyaEIq53" transform="translate(-33.034958,-51.045772)"><path id="ebCzAjyaEIq54" d="M38,32.35C38.628986,32.926833,38.873589,33.812061,38.63,34.63C38.430516,35.315857,37.783017,35.772427,37.07,35.73C36.45,35.73,35.91,35.58,36.22,34.45C36.45,33.52,37.37,32.19,38,32.35Z" transform="matrix(1 0 0 1 0 21)" fill="rgb(9,24,41)" stroke="none" stroke-width="1"/><path id="ebCzAjyaEIq55" d="M36.6,30.1C37.370158,30.795186,37.954505,31.671706,38.3,32.65C38.140404,33.818662,37.409221,34.831068,36.35,35.35C34.98,36.15,32.19,33.47,32.19,33.47C32.19,33.47,33.12,29.47,34.83,28.86C35.476625,29.185957,36.07278,29.603602,36.6,30.1Z" transform="matrix(1 0 0 1 0 21)" fill="rgb(221,61,122)" stroke="none" stroke-width="1"/></g></g><g id="ebCzAjyaEIq56_tr" transform="translate(12.069059,52.215805) rotate(0)"><g id="ebCzAjyaEIq56" transform="translate(-13.069059,-52.215805)"><path id="ebCzAjyaEIq57" d="M8.9,32.65C8.266716,33.224195,8.021369,34.112118,8.27,34.93C8.476821,35.602366,9.117982,36.044974,9.82,36C10.45,36,10.98,35.85,10.68,34.72C10.43,33.82,9.5,32.49,8.9,32.65Z" transform="matrix(1 0 0 1 0 21)" fill="rgb(9,24,41)" stroke="none" stroke-width="1"/><path id="ebCzAjyaEIq58" d="M10.27,30.4C9.497856,31.111493,8.916751,32.005501,8.58,33C8.736172,34.170029,9.468404,35.183889,10.53,35.7C11.9,36.5,14.69,33.82,14.69,33.82C14.69,33.82,13.75,29.82,12.04,29.21C11.397848,29.522975,10.802179,29.923452,10.27,30.4Z" transform="matrix(1 0 0 1 0 21)" fill="rgb(221,61,122)" stroke="none" stroke-width="1"/></g></g><path id="ebCzAjyaEIq59" d="" transform="matrix(1 0 0 1 0 21)" fill="none" stroke="rgb(112,112,112)" stroke-width="1"/><path id="ebCzAjyaEIq60" d="M35.62,38.2C35.601575,38.510817,35.52704,38.815733,35.4,39.1C35.23,39.35,24.93,42.2,11.04,38.9C10.74,37.65,10.82,37.72,10.82,37.72C15.00579,38.923519,19.326405,39.595466,23.68,39.72C27.711579,39.775626,31.730946,39.263947,35.62,38.2Z" transform="matrix(1 0 0 1 0 21)" fill="rgb(0,0,0)" stroke="none" stroke-width="1"/><g id="ebCzAjyaEIq61"><path id="ebCzAjyaEIq62" d="M22.65,31.15C17.85,31,12.29,30,11.14,27.28C10.369092,25.415868,10.638989,23.283301,11.85,21.67C12.459297,20.718257,12.832956,19.634988,12.94,18.51C13.18,16.69,12.83,10.21,22.67,9.91C22.79,9.91,22.65,24.88,22.65,31.15Z" transform="matrix(1 0 0 1 0 21)" fill="rgb(9,24,41)" stroke="none" stroke-width="1"/></g><g id="ebCzAjyaEIq63"><path id="ebCzAjyaEIq64" d="M22.54,31.15C27.34,31,32.9,30,34.05,27.28C34.810698,25.414514,34.54146,23.287156,33.34,21.67C32.727523,20.719001,32.350445,19.635758,32.24,18.51C32.01,16.69,32.36,10.21,22.52,9.91C22.4,9.91,22.54,24.88,22.54,31.15Z" transform="matrix(1 0 0 1 0 21)" fill="rgb(9,24,41)" stroke="none" stroke-width="1"/></g><path id="ebCzAjyaEIq65" d="M14.15,23.32C14.15,23.32,20.55,26.64,30.91,23.32" transform="matrix(1 0 0 1 0 21)" fill="none" stroke="rgb(0,0,0)" stroke-width="0.5" stroke-linecap="round"/><g id="ebCzAjyaEIq66"><path id="ebCzAjyaEIq67" d="M21.61,12.65C21.746997,12.41809,21.971755,12.251252,22.233393,12.187254C22.495031,12.123256,22.771424,12.167511,23,12.31C23.142952,12.392694,23.263198,12.509505,23.35,12.65L28.08,20.53C28.361576,21.004978,28.204893,21.618281,27.73,21.9C27.576647,21.995098,27.40042,22.046929,27.22,22.05L17.74,22.05C17.187715,22.05,16.74,21.602285,16.74,21.05C16.740053,20.870517,16.788411,20.694356,16.88,20.54Z" transform="matrix(1 0 0 1 0 21)" fill="none" stroke="none" stroke-width="1"/><path id="ebCzAjyaEIq68" d="M22.47,15.11L19.47,20.05L25.39,20.05L22.39,15.11M22.39,12.16C22.743067,12.160062,23.069936,12.346301,23.25,12.65L27.98,20.53C28.168492,20.839607,28.174687,21.226974,27.996194,21.542452C27.8177,21.857929,27.482466,22.052118,27.12,22.05L17.74,22.05C17.377534,22.052118,17.0423,21.857929,16.863806,21.542452C16.685313,21.226974,16.691508,20.839607,16.88,20.53L21.61,12.65C21.790064,12.346301,22.116933,12.160062,22.47,12.16Z" transform="matrix(1 0 0 1 0 21)" fill="rgb(255,255,255)" stroke="none" stroke-width="1"/></g></g></g><path id="ebCzAjyaEIq69" d="M52.23,70.28C52.23,70.28,55.12,73.83,53.91,77.16C52.7,80.49,47.54,80.91,47.39,83.61C47.24,86.31,40.47,78,43.9,73.09C47.33,68.18,48.17,68.89,48.17,68.89Z" transform="matrix(1 0 0 1 0 21)" fill="rgb(76,84,90)" stroke="none" stroke-width="1"/><path id="ebCzAjyaEIq70" d="M96.07,70.58C96.07,70.58,93.84,74.58,95.61,77.64C97.38,80.7,102.54,80.22,103.16,82.86C103.78,85.5,108.99,76.09,104.76,71.86C100.53,67.63,99.82,68.47,99.82,68.47Z" transform="matrix(1 0 0 1 0 21)" fill="rgb(76,84,90)" stroke="none" stroke-width="1"/><g id="ebCzAjyaEIq71"><path id="ebCzAjyaEIq72" d="M69.68,97L72.08,97C73.460712,97,74.58,98.119288,74.58,99.5L74.58,99.5C74.58,100.880712,73.460712,102,72.08,102L69.68,102C68.299288,102,67.18,100.880712,67.18,99.5L67.18,99.5C67.18,98.119288,68.299288,97,69.68,97Z" transform="matrix(1 0 0 1 0 21)" fill="rgb(0,0,0)" stroke="none" stroke-width="1"/></g><g id="ebCzAjyaEIq73"><path id="ebCzAjyaEIq74" d="M76.88,97L79.28,97C80.660712,97,81.78,98.119288,81.78,99.5L81.78,99.5C81.78,100.880712,80.660712,102,79.28,102L76.88,102C75.499288,102,74.38,100.880712,74.38,99.5L74.38,99.5C74.38,98.119288,75.499288,97,76.88,97Z" transform="matrix(1 0 0 1 0 21)" fill="rgb(0,0,0)" stroke="none" stroke-width="1"/></g><g id="ebCzAjyaEIq75"><rect id="ebCzAjyaEIq76" width="6" height="9" rx="2" ry="2" transform="matrix(1 0 0 1 67.98 112)" fill="rgb(255,255,255)" stroke="none" stroke-width="1"/></g><g id="ebCzAjyaEIq77"><rect id="ebCzAjyaEIq78" width="6" height="9" rx="2" ry="2" transform="matrix(1 0 0 1 74.98 112)" fill="rgb(255,255,255)" stroke="none" stroke-width="1"/></g><path id="ebCzAjyaEIq79" d="M47.71,31.7C44.35,38.6,42.71,50.43,44.46,59.1C46.39,68.54,61.31,75.17,71.83,75.1C79.374613,74.87054,86.820614,73.320418,93.83,70.52C97.62,69,101.55,66,101.2,63C100.78,59.14,102.2,52.8,102.52,47.94C102.706379,43.493845,101.860977,39.064898,100.05,35C98,30.4,93.3,21.5,82.59,18.38C69.3,13.85,54,18.8,47.71,31.7Z" transform="matrix(1 0 0 1 0 21)" fill="rgb(76,84,90)" stroke="none" stroke-width="1"/><g id="ebCzAjyaEIq80"><g id="ebCzAjyaEIq81"><g id="ebCzAjyaEIq82"><path id="ebCzAjyaEIq83" d="M86.87,79.74L89.16,78.5L89.16,78.5L91.81,83.5C92.497634,84.746031,92.051074,86.313458,90.81,87.01L90.81,87.01C89.560334,87.692727,87.994072,87.247766,87.29,86.01L85.82,83.22C85.150196,81.957912,85.628977,80.391807,86.89,79.72Z" transform="matrix(1 0 0 1 0 21)" fill="rgb(253,223,188)" stroke="none" stroke-width="1"/></g></g><g id="ebCzAjyaEIq84"><g id="ebCzAjyaEIq85"><path id="ebCzAjyaEIq86" d="M88.22,72.38C89.44,73.28,93.96,81.96,93.36,83.19C92.76,84.42,90,83.88,86,87.62C82,91.36,83.7,72.23,84.7,71.72C86.55,71.33,86.98,71.49,88.2,72.38Z" transform="matrix(1 0 0 1 0 21)" fill="rgb(255,221,80)" stroke="none" stroke-width="1"/></g></g></g><path id="ebCzAjyaEIq87" d="M62.41,72.49L65.6,72.49C65.6,72.49,72.26,73.57,73.05,74.49L82,71.74C82,71.74,83.1,60.35,85.1,71.21C86.185418,76.470216,86.478656,81.863106,85.97,87.21C85.68,89.71,63.53,90.46,63.51,87.79C63.51,86.79,62.9,85.27,62.97,83.79C62.9892,80.015947,62.802255,76.243662,62.41,72.49Z" transform="matrix(1 0 0 1 0 21)" fill="rgb(255,221,80)" stroke="none" stroke-width="1"/><path id="ebCzAjyaEIq88" d="M73.48,73C75.41,73,76.98,73.67,76.98,74.5C76.98,75.33,75.41,76,73.48,76C71.55,76,70,75.33,70,74.5C70,73.67,71.55,73,73.48,73Z" transform="matrix(1 0 0 1 0 21)" fill="rgb(254,213,163)" stroke="none" stroke-width="1"/><rect id="ebCzAjyaEIq89" width="6" height="3" rx="1" ry="1" transform="matrix(0.866025 -0.5 0.5 0.866025 94.40957 90.232671)" fill="rgb(128,75,47)" stroke="none" stroke-width="1"/><rect id="ebCzAjyaEIq90" width="3" height="6" rx="1" ry="1" transform="matrix(0.5 -0.866025 0.866025 0.5 47.304348 89.829772)" fill="rgb(128,75,47)" stroke="none" stroke-width="1"/><path id="ebCzAjyaEIq91" d="M52,68C56.71,76.6,60.4,76.31,60.4,76.31C60.4,76.31,57.588755,74.309602,55.167991,70.558538" transform="matrix(1 0 0 1 0 21)" fill="rgb(76,84,90)" stroke="none" stroke-width="1"/><g id="ebCzAjyaEIq92_tr" transform="translate(64.33,94.5) rotate(-16.035654)"><g id="ebCzAjyaEIq92" transform="translate(-64.329998,-94.499998)"><g id="ebCzAjyaEIq93"><path id="ebCzAjyaEIq94" d="M50.76,81.05C50.489408,80.393719,50.491302,79.656697,50.765264,79.001815C51.039226,78.346934,51.5627,77.828109,52.22,77.56L52.22,77.56L57.67,75.36L58.67,77.84C59.218298,79.215143,58.552399,80.774867,57.18,81.33L57.18,81.33L54.18,82.53C52.81075,83.040404,51.285008,82.359825,50.75,81L50.75,81Z" transform="matrix(1 0 0 1 0 21)" fill="rgb(253,223,188)" stroke="none" stroke-width="1"/></g><g id="ebCzAjyaEIq95"><path id="ebCzAjyaEIq96" d="M63.36,72.12C63.36,72.12,53.23,75.33,53.15,76.68C53.07,78.03,55.2,83.22,56.15,84.44C57.1,85.66,65.23,81.56,67.9,78.5C67.62,77.18,63.36,72.12,63.36,72.12Z" transform="matrix(1 0 0 1 0 21)" fill="rgb(255,221,80)" stroke="none" stroke-width="1"/></g></g></g><g id="ebCzAjyaEIq97"><g id="ebCzAjyaEIq98"><g id="ebCzAjyaEIq99"><g id="ebCzAjyaEIq100"><path id="ebCzAjyaEIq101" d="M73.17,28.76C86.612473,28.842433,97.469261,39.757279,97.48,53.2C97.48,66.71,86.61,74.8,73.17,74.8C59.73,74.8,48.79,66.73,48.79,53.21C48.789909,39.74723,59.677321,28.819576,73.14,28.77Z" transform="matrix(1 0 0 1 0 21)" fill="rgb(253,223,188)" stroke="none" stroke-width="1"/></g></g></g><g id="ebCzAjyaEIq102"><g id="ebCzAjyaEIq103"><g id="ebCzAjyaEIq104"><path id="ebCzAjyaEIq105" d="M73.07,74.81C70.112026,74.832119,67.166976,74.417655,64.33,73.58C65.505609,73.708372,66.687404,73.771802,67.87,73.77C74.129574,73.91991,80.244978,71.879084,85.16,68C87.360593,66.160915,89.129147,63.859746,90.34,61.26C91.631604,58.436524,92.290316,55.36481,92.27,52.26C92.310405,41.59261,85.430223,32.130338,75.27,28.88C87.863157,30.02248,97.509683,40.575129,97.52,53.22C97.547691,56.343813,96.892405,59.435943,95.6,62.28C94.382721,64.892703,92.60777,67.206966,90.4,69.06C85.477739,72.952168,79.342641,74.987761,73.07,74.81Z" transform="matrix(1 0 0 1 0 21)" fill="rgb(255,213,163)" stroke="none" stroke-width="1"/></g></g></g><g id="ebCzAjyaEIq106_to" transform="translate(61.795,79.890049)"><g id="ebCzAjyaEIq106" transform="translate(-61.795,-79.890049)"><g id="ebCzAjyaEIq107"><g id="ebCzAjyaEIq108"><path id="ebCzAjyaEIq109" d="M61.8,55.78L61.8,55.78C62.938707,55.790846,63.859154,56.711293,63.87,57.85L63.87,59.93C63.859154,61.068707,62.938707,61.989154,61.8,62L61.8,62C61.250197,62.005338,60.721075,61.790662,60.330414,61.403757C59.939752,61.016852,59.719974,60.489829,59.72,59.94L59.72,59.94L59.72,57.85C59.72,57.301002,59.938089,56.774489,60.326289,56.386289C60.714489,55.998089,61.241002,55.78,61.79,55.78Z" transform="matrix(1 0 0 1 0 21)" fill="rgb(76,84,90)" stroke="none" stroke-width="1"/></g></g></g></g><g id="ebCzAjyaEIq110_to" transform="translate(84.545002,79.890049)"><g id="ebCzAjyaEIq110" transform="translate(-84.545002,-79.890049)"><g id="ebCzAjyaEIq111"><g id="ebCzAjyaEIq112"><path id="ebCzAjyaEIq113" d="M84.55,55.78L84.55,55.78C85.688707,55.790846,86.609154,56.711293,86.62,57.85L86.62,59.93C86.609154,61.068707,85.688707,61.989154,84.55,62L84.55,62C84.000197,62.005338,83.471075,61.790662,83.080414,61.403757C82.689752,61.016852,82.469974,60.489829,82.47,59.94L82.47,59.94L82.47,57.85C82.47,56.706771,83.396771,55.78,84.54,55.78Z" transform="matrix(1 0 0 1 0 21)" fill="rgb(76,84,90)" stroke="none" stroke-width="1"/></g></g></g></g><g id="ebCzAjyaEIq114"><g id="ebCzAjyaEIq115"><g id="ebCzAjyaEIq116"><path id="ebCzAjyaEIq117" d="M49.17,47.29C49.17,47.29,55,49.81,64.64,48.88C74.28,47.95,76.1,46.07,84.17,48.88C88.643315,50.449545,93.360022,51.211396,98.1,51.13C102.15,51.13,98.42,37.3,90.35,32.21C82.28,27.12,65.4,22.76,56.69,32.21C47.98,41.66,49.17,47.29,49.17,47.29Z" transform="matrix(1 0 0 1 0 21)" fill="rgb(76,84,90)" stroke="none" stroke-width="1"/></g></g></g><g id="ebCzAjyaEIq118" opacity="0.1"><path id="ebCzAjyaEIq119" d="M62.8,30.3C58.999632,35.757676,57.23058,42.373931,57.8,49L59.24,49C59.24,49,58.07,42.06,62.8,30.3Z" transform="matrix(1 0 0 1 0 21)" fill="rgb(0,0,0)" stroke="none" stroke-width="1"/><path id="ebCzAjyaEIq120" d="M71.48,30.21C70.26,32.49,66.1,37.64,67.09,48.59C68.46,48.47,68.17,48.42,68.17,48.42C68.17,48.42,67,38.72,71.48,30.21Z" transform="matrix(1 0 0 1 0 21)" fill="rgb(0,0,0)" stroke="none" stroke-width="1"/><path id="ebCzAjyaEIq121" d="M78,30.22C79.21,32.5,83.41,37.39,82.42,48.33C81.66,48.14,81.15,47.96,81.15,47.96C81.801699,41.867664,80.709298,35.715542,78,30.22Z" transform="matrix(1 0 0 1 0 21)" fill="rgb(0,0,0)" stroke="none" stroke-width="1"/><path id="ebCzAjyaEIq122" d="M85.4,33.37C87.14,36.89,89.46,39.15,88.47,50.1C87.86,50,88.33,50.03,87.35,49.82C88.74,38.8,86.94,37.92,85.4,33.37Z" transform="matrix(1 0 0 1 0 21)" fill="rgb(0,0,0)" stroke="none" stroke-width="1"/></g><g id="ebCzAjyaEIq123_to" transform="translate(73.505829,87.22747)"><g id="ebCzAjyaEIq123" transform="translate(-73.505829,-87.22747)"><g id="ebCzAjyaEIq124"><g id="ebCzAjyaEIq125"><path id="ebCzAjyaEIq126" d="M73.52,67.45C72.646049,67.412513,71.788774,67.198195,71,66.82C70.783169,66.694651,70.625327,66.487954,70.561495,66.245769C70.497663,66.003584,70.533121,65.745939,70.66,65.53C70.890648,65.129388,71.380529,64.958995,71.81,65.13C72.357494,65.39669,72.952132,65.552995,73.56,65.59C74.108138,65.53954,74.641301,65.383327,75.13,65.13C75.337724,65.007319,75.586005,64.973169,75.819137,65.035212C76.052269,65.097255,76.250733,65.250297,76.37,65.46L76.37,65.46L76.37,65.51C76.486319,65.721715,76.512647,65.971303,76.443061,66.202628C76.373476,66.433953,76.213819,66.627595,76,66.74L76,66.74C75.237376,67.160472,74.389598,67.403183,73.52,67.45Z" transform="matrix(1 0 0 1 0 21)" fill="rgb(76,84,90)" stroke="none" stroke-width="1"/></g></g></g></g></g><g id="ebCzAjyaEIq127"><g id="ebCzAjyaEIq128"><g id="ebCzAjyaEIq129"><g id="ebCzAjyaEIq130"><path id="ebCzAjyaEIq131" d="M48.28,53.63C47.493923,53.380489,46.638074,53.687611,46.19,54.38C45.43,55.61,45.77,59.03,47.87,60.94C48.881186,62.046938,50.456864,62.440858,51.87,61.94C53.283136,61.439142,49.87,54.4,49.34,54.19C48.954265,54.072452,48.594499,53.882388,48.28,53.63Z" transform="matrix(1 0 0 1 0 21)" fill="rgb(253,223,188)" stroke="none" stroke-width="1"/></g></g></g><g id="ebCzAjyaEIq132"><g id="ebCzAjyaEIq133"><g id="ebCzAjyaEIq134"><path id="ebCzAjyaEIq135" d="M98,54.26C98.783441,53.98893,99.649831,54.30133,100.08,55.01C100.84,56.25,100.52,59.67,98.41,61.57C97.395986,62.672188,95.823395,63.065336,94.41,62.57C92.996605,62.074664,96.41,55.04,96.95,54.83C97.329534,54.70033,97.684503,54.507632,98,54.26Z" transform="matrix(1 0 0 1 0 21)" fill="rgb(254,217,173)" stroke="none" stroke-width="1"/></g></g></g><g id="ebCzAjyaEIq136"><g id="ebCzAjyaEIq137"><g id="ebCzAjyaEIq138"/></g></g><path id="ebCzAjyaEIq139" d="M49.05,47.63C49.05,47.63,47.579042,57.46703,50.925396,65.725933C51.239439,66.500999,53.600349,67.769067,53.188449,66.734918C51.712838,63.030131,51.048137,58.316272,52.69,52.71C57.08,37.72,50,45.77,50,45.77Z" transform="matrix(1 0 0 1 0 21)" fill="rgb(76,84,90)" stroke="none" stroke-width="1"/><g id="ebCzAjyaEIq140"><g id="ebCzAjyaEIq141"><g id="ebCzAjyaEIq142"><path id="ebCzAjyaEIq143" d="M97.28,47.63C97.28,47.63,99,59.4,94.28,68C89.56,76.6,86,76.31,86,76.31C86,76.31,98,67.71,93.67,52.71C89.34,37.71,96.39,45.78,96.39,45.78Z" transform="matrix(1 0 0 1 0 21)" fill="rgb(76,84,90)" stroke="none" stroke-width="1"/></g></g></g></g><path id="ebCzAjyaEIq144" d="M63.65,73L65.79,73L66.48,77.16C66.554462,77.967883,66.90806,78.724584,67.48,79.3C68.132107,79.674037,68.860164,79.896214,69.61,79.95L78.53,80.18C79.252349,80.157249,79.964286,80.001301,80.63,79.72C81.24,79.32,81.44,79.19,81.86,77.47C82.168473,75.996246,82.372315,74.502519,82.47,73L84.81,72.12C85.207745,74.72677,85.368402,77.364226,85.29,80C85.29,81.61,85.41,83.08,85.29,84.69C87.29,87.14,87.18,91.28,86.77,92.82C86.11,94.32,85.29,94.08,85.29,94.08L63,94.08C63,94.08,62.43,94.08,61.75,93.36C61.07,92.64,60.22,88,63,84.16C62.89,83.34,63,84.62,63,80.65C63.011627,78.086716,63.228992,75.5285,63.65,73Z" transform="matrix(1 0 0 1 0 21)" fill="rgb(235,136,75)" stroke="none" stroke-width="1"/><g id="ebCzAjyaEIq145"><path id="ebCzAjyaEIq146" d="M68.47,85.78C66.82,87.91,66.4,90.26,66.3,94C67.66,93.88,66.68,94,66.91,94C66.859383,91.181893,67.390442,88.383622,68.47,85.78Z" transform="matrix(1 0 0 1 0 21)" opacity="0.1" fill="rgb(255,255,255)" stroke="none" stroke-width="1"/><path id="ebCzAjyaEIq147" d="M72.49,87C71.32,88.29,71.05,90.25,70.94,94C72.31,93.88,71.32,94,71.55,94C71.65,89.79,71.91,88.68,72.49,87Z" transform="matrix(1 0 0 1 0 21)" opacity="0.1" fill="rgb(255,255,255)" stroke="none" stroke-width="1"/><path id="ebCzAjyaEIq148" d="M77.19,87.36C78.02,89.11,78.44,90.26,78.55,94.04C77.18,93.92,78.07,94.04,77.85,94.04C77.86,90.78,78.06,90.93,77.19,87.36Z" transform="matrix(1 0 0 1 0 21)" opacity="0.1" fill="rgb(255,255,255)" stroke="none" stroke-width="1"/><path id="ebCzAjyaEIq149" d="M79.89,85.78C81.54,87.91,81.96,90.26,82.07,94.05C80.7,93.92,81.68,94.05,81.45,94.05C81.51104,91.214821,80.979713,88.398108,79.89,85.78Z" transform="matrix(1 0 0 1 0 21)" opacity="0.1" fill="rgb(255,255,255)" stroke="none" stroke-width="1"/></g><g id="ebCzAjyaEIq150_to" transform="translate(56.15897,107.107153)"><g id="ebCzAjyaEIq150_tr" transform="rotate(-22.698826)"><g id="ebCzAjyaEIq150" transform="translate(-52.15896,-104.107153)"><path id="ebCzAjyaEIq151" d="M44.23,44C44.23,44,47.92,68.21,50.34,77.65C50.89,80.19,51.25,84.36,51.52,84.36C52.68,84.36,52.77,83.49,52.77,83.49L46,51.6L48.13,46.52L45.77,50.62Z" transform="matrix(1 0 0 1 0 21)" fill="rgb(78,57,23)" stroke="none" stroke-width="1"/><g id="ebCzAjyaEIq152_tr" transform="translate(48.82,89.187537) rotate(0)"><g id="ebCzAjyaEIq152" transform="translate(-48.819998,-89.187526)"><path id="ebCzAjyaEIq153" d="M43.53,63.16C43.53,63.16,40.53,66.78,40.76,67.6C40.99,68.42,42.16,72.12,43.99,73.26C46.11,74.57,49.64,74.47,50.3,74.05C50.96,73.63,53.3,69.25,53.3,69.25Z" transform="matrix(1 0 0 1 0 21)" fill="rgb(232,148,148)" stroke="none" stroke-width="1"/><g id="ebCzAjyaEIq154"><path id="ebCzAjyaEIq155" d="M42,69.38L38.72,74.64C38.461539,75.081844,38.03734,75.402187,37.541633,75.529869C37.045925,75.657551,36.519755,75.582001,36.08,75.32C36.002161,75.276951,35.928509,75.226733,35.86,75.17C34.964909,74.585751,34.687428,73.400951,35.23,72.48C35.249931,72.44441,35.273382,72.410909,35.3,72.38" transform="matrix(1 0 0 1 0 21)" fill="none" stroke="rgb(225,90,90)" stroke-width="1.6" stroke-linecap="round" stroke-linejoin="round"/><path id="ebCzAjyaEIq156" d="M43.31,71.86L38.17,80.09C37.82866,80.855498,36.975317,81.252303,36.17,81.02C35.376606,80.756511,34.746911,80.145228,34.46,79.36" transform="matrix(1 0 0 1 0 21)" fill="none" stroke="rgb(225,90,90)" stroke-width="1.6" stroke-linecap="round" stroke-linejoin="round"/><path id="ebCzAjyaEIq157" d="M45.59,73.5L40.59,81.58C40.040965,82.234509,40.066714,83.195821,40.65,83.82C41.235956,84.413748,42.060483,84.708222,42.89,84.62" transform="matrix(1 0 0 1 0 21)" fill="none" stroke="rgb(225,90,90)" stroke-width="1.6" stroke-linecap="round" stroke-linejoin="round"/><path id="ebCzAjyaEIq158" d="M48.19,74.08L45.28,78.75C44.997324,79.174829,44.896395,79.695105,44.999718,80.194814C45.103041,80.694523,45.402025,81.132111,45.83,81.41C45.90058,81.463315,45.977921,81.507029,46.06,81.54C46.978071,82.092915,48.168802,81.823898,48.76,80.93L48.82,80.82" transform="matrix(1 0 0 1 0 21)" fill="none" stroke="rgb(225,90,90)" stroke-width="1.6" stroke-linecap="round" stroke-linejoin="round"/></g><g id="ebCzAjyaEIq159" clip-path="url(#ebCzAjyaEIq163)"><g id="ebCzAjyaEIq160"><g id="ebCzAjyaEIq161"><path id="ebCzAjyaEIq162" d="M43.54,63.16C43.54,63.16,40.54,66.79,40.77,67.61C41,68.43,42.17,72.13,44,73.26C46.12,74.57,49.65,74.48,50.31,74.05C50.97,73.62,53.31,69.26,53.31,69.26Z" transform="matrix(1 0 0 1 0 21)" fill="rgb(225,90,90)" stroke="none" stroke-width="1"/></g></g><clipPath id="ebCzAjyaEIq163" transform="matrix(1 0 0 1 0 21)"><path id="ebCzAjyaEIq164" d="M45,63.36L42.38,67.55C42.38,67.55,43.19,70.81,44.89,71.84C46.847032,72.888656,49.012455,73.489783,51.23,73.6L48.79,77.51L37.45,70.42L42.75,61.94Z" fill="none" stroke="none" stroke-width="1"/></clipPath></g><path id="ebCzAjyaEIq165" d="M64.55,38.41C64.55,38.41,53.34,39.41,50.68,42.8C48.02,46.19,49,49.11,53.21,50.08C57.42,51.05,64.55,38.41,64.55,38.41Z" transform="matrix(1 0 0 1 0 21)" fill="rgb(232,148,148)" stroke="none" stroke-width="1"/><path id="ebCzAjyaEIq166" d="M66.54,39.65C66.54,39.65,70.61,50.15,68.69,54C66.77,57.85,63.78,58.36,61,55C58.22,51.64,66.54,39.65,66.54,39.65Z" transform="matrix(1 0 0 1 0 21)" fill="rgb(232,148,148)" stroke="none" stroke-width="1"/><path id="ebCzAjyaEIq167" d="M65.84,38.19C65.84,38.19,60.84,37.67,54.61,44.49C48.38,51.31,45.53,55.56,45.05,57.11C44.612992,58.565666,43.900037,59.923674,42.95,61.11C42.192601,61.724958,41.900857,62.748059,42.22,63.67C42.7,64.67,45.9,65.74,48.43,67.55C50.96,69.36,52.8,71.1,53.62,70.79C54.205579,70.58233,54.712235,70.197971,55.07,69.69C55.50783,68.487437,56.188639,67.387931,57.07,66.46C58.74,64.67,63.74,56.61,65.13,51.46C66.17062,47.582662,66.628965,43.572148,66.49,39.56C66.33,38,65.84,38.19,65.84,38.19Z" transform="matrix(1 0 0 1 0 21)" fill="rgb(244,225,225)" stroke="none" stroke-width="1"/><g id="ebCzAjyaEIq168" clip-path="url(#ebCzAjyaEIq172)"><g id="ebCzAjyaEIq169"><g id="ebCzAjyaEIq170"><path id="ebCzAjyaEIq171" d="M65.84,38.19C65.84,38.19,60.84,37.67,54.61,44.49C48.38,51.31,45.53,55.56,45.05,57.11C44.612992,58.565666,43.900037,59.923674,42.95,61.11C42.192601,61.724958,41.900857,62.748059,42.22,63.67C42.7,64.67,45.9,65.74,48.43,67.55C50.96,69.36,52.8,71.1,53.62,70.79C54.205579,70.58233,54.712235,70.197971,55.07,69.69C55.50783,68.487437,56.188639,67.387931,57.07,66.46C58.74,64.67,63.74,56.61,65.13,51.46C66.17062,47.582662,66.628965,43.572148,66.49,39.56C66.33,38,65.84,38.19,65.84,38.19Z" transform="matrix(1 0 0 1 0 21)" fill="rgb(239,183,183)" stroke="none" stroke-width="1"/></g></g><clipPath id="ebCzAjyaEIq172" transform="matrix(1 0 0 1 0 21)"><path id="ebCzAjyaEIq173" d="M66.1,37.8C66.1,37.8,54.77,47.47,51.55,54.28C48.33,61.09,51.55,65.4,57.84,66.43C59.07,66.63,54.12,72.43,54.12,72.43L40.12,63.71L48.9,48.88L62.62,37.13Z" fill="none" stroke="none" stroke-width="1"/></clipPath></g></g></g><path id="ebCzAjyaEIq174" d="M51.75,84.34L51.52,84.34C51.224275,83.467945,51.049318,82.559512,51,81.64C50.82,80.31,50.6,78.81,50.35,77.64C49.82,75.57,49.19,72.72,48.46,69.17L49.46,68.86L52.77,83.48C52.675666,83.97152,52.250393,84.330084,51.75,84.34Z" transform="matrix(1 0 0 1 0 21)" fill="rgb(78,57,23)" stroke="none" stroke-width="1"/></g></g></g><g id="ebCzAjyaEIq175_to" transform="translate(0,23)"><path id="ebCzAjyaEIq175" d="M77,4L99,4C100.656854,4,102,5.343146,102,7L102,25C102,26.656854,100.656854,28,99,28L91.78,28L88.69,32L85.52,28L77,28C75.343146,28,74,26.656854,74,25L74,7C74,5.343146,75.343146,4,77,4Z" transform="translate(0,0)" opacity="0" filter="url(#ebCzAjyaEIq175-filter)" fill="rgb(255,255,255)" stroke="none" stroke-width="1"/></g><g id="ebCzAjyaEIq176_to" transform="translate(88.422794,37.895756)"><g id="ebCzAjyaEIq176" style="isolation:isolate" transform="translate(-88.422794,-36.895756)" opacity="0"><g id="ebCzAjyaEIq177" style="isolation:isolate"><path id="ebCzAjyaEIq178" d="M91,14.94C91.493744,15.088564,91.921119,15.402914,92.21,15.83C92.556174,16.758581,92.689451,17.753036,92.6,18.74C92.634851,19.632508,92.506063,20.523859,92.22,21.37C91.961263,21.990787,91.484759,22.49574,90.88,22.79C89.249083,23.470213,87.40869,23.44123,85.8,22.71C85.225373,22.416526,84.774842,21.926972,84.53,21.33C84.283591,20.397754,84.182402,19.433086,84.23,18.47L84.23,17.35L87.78,17.35L87.78,19.66C87.74988,20.053418,87.78708,20.44909,87.89,20.83C87.96,21,88.12,21.08,88.38,21.08C88.608124,21.104438,88.82607,20.97932,88.92,20.77C89.041717,20.229002,89.085493,19.673385,89.05,19.12L89.05,18.12C89.072992,17.715151,89.011699,17.309937,88.87,16.93C88.764136,16.694129,88.564863,16.512972,88.32,16.43C87.887046,16.332386,87.443678,16.288721,87,16.3L87,14.24C87.522121,14.26765,88.045683,14.234089,88.56,14.14C88.762466,14.077181,88.922435,13.920932,88.99,13.72C89.091603,13.396861,89.135606,13.058376,89.12,12.72L89.12,11.93C89.150995,11.589459,89.099545,11.24646,88.97,10.93C88.861519,10.774328,88.679296,10.687013,88.49,10.7C88.285928,10.67752,88.087229,10.774921,87.98,10.95C87.856354,11.285616,87.801928,11.642789,87.82,12L87.82,13.17L84.27,13.17L84.27,12C84.138507,10.988884,84.481801,9.973766,85.2,9.25C86.095259,8.690539,87.148342,8.437799,88.2,8.53Q90.73,8.53,91.65,9.53C92.285043,10.304833,92.606214,11.289757,92.55,12.29C92.573933,12.881057,92.450206,13.468762,92.19,14C91.88038,14.410073,91.470622,14.733747,91,14.94Z" transform="matrix(1 0 0 1 0 21)" fill="rgb(76,84,90)" stroke="none" stroke-width="1"/></g></g></g><g id="ebCzAjyaEIq179" style="isolation:isolate" transform="matrix(1 0 0 1 24 3)" opacity="0"><g id="ebCzAjyaEIq180" style="isolation:isolate"><path id="ebCzAjyaEIq181" d="M68.08,17.79L68.08,20.22L60.26,20.22L60.26,18.22Q63.74,12.53,64.39,11.22C64.755095,10.574143,64.979982,9.858595,65.05,9.12C65.070093,8.816662,65.000541,8.514112,64.85,8.25C64.704001,8.064557,64.481019,7.956314,64.245,7.956314C64.008981,7.956314,63.785999,8.064557,63.64,8.25C63.47288,8.647778,63.40427,9.080024,63.44,9.51L63.44,10.86L60.26,10.86L60.26,10.34C60.246185,9.710687,60.289698,9.081422,60.39,8.46C60.48361,7.955883,60.692366,7.480192,61,7.07C61.32571,6.63259,61.760054,6.287873,62.26,6.07C62.84583,5.827611,63.476268,5.711747,64.11,5.73C65.269599,5.630741,66.421938,5.989725,67.32,6.73C68.039516,7.424346,68.431829,8.390597,68.4,9.39C68.383734,10.294501,68.172242,11.184811,67.78,12C66.704733,14.001608,65.502267,15.932233,64.18,17.78Z" transform="matrix(1 0 0 1 0 21)" fill="rgb(76,84,90)" stroke="none" stroke-width="1"/></g></g><g id="ebCzAjyaEIq182" style="isolation:isolate" transform="matrix(1 0 0 1 30 4)" opacity="0"><g id="ebCzAjyaEIq183" style="isolation:isolate"><path id="ebCzAjyaEIq184" d="M60.67,4.22L60.67,18.45L57.12,18.45L57.12,10.82C57.141675,10.152276,57.114938,9.483859,57.04,8.82C56.984406,8.594399,56.824737,8.408737,56.61,8.32C56.087749,8.168062,55.54194,8.11382,55,8.16L54.65,8.16L54.65,6.5C56.186273,6.23813,57.57547,5.428061,58.56,4.22Z" transform="matrix(1 0 0 1 0 21)" fill="rgb(76,84,90)" stroke="none" stroke-width="1"/></g></g></g></svg>