<svg id="ey2tdo47u5ka1" xmlns="http://www.w3.org/2000/svg" xmlns:xlink="http://www.w3.org/1999/xlink" viewBox="0 0 110 100" shape-rendering="geometricPrecision" text-rendering="geometricPrecision"><style><![CDATA[#ey2tdo47u5ka21_tr {animation: ey2tdo47u5ka21_tr__tr 3000ms linear infinite normal forwards}@keyframes ey2tdo47u5ka21_tr__tr { 0% {transform: translate(76.240000px,85.307990px) rotate(0deg)} 3.333333% {transform: translate(76.240000px,85.307990px) rotate(0deg);animation-timing-function: cubic-bezier(0,0,0.580000,1)} 23.333333% {transform: translate(76.240000px,85.307990px) rotate(-3deg)} 40% {transform: translate(76.240000px,85.307990px) rotate(2deg)} 66.666667% {transform: translate(76.240000px,85.307990px) rotate(0deg)} 100% {transform: translate(76.240000px,85.307990px) rotate(0deg)} }#ey2tdo47u5ka29_to {animation: ey2tdo47u5ka29_to__to 3000ms linear infinite normal forwards}@keyframes ey2tdo47u5ka29_to__to { 0% {transform: translate(55.837631px,81.200841px)} 6.666667% {transform: translate(55.837631px,81.200841px);animation-timing-function: cubic-bezier(0,0,0.580000,1)} 20% {transform: translate(52.763162px,73.311388px);animation-timing-function: cubic-bezier(0,0,0.580000,1)} 33.333333% {transform: translate(55.837631px,81.200841px);animation-timing-function: cubic-bezier(0,0,0.580000,1)} 46.666667% {transform: translate(52.763162px,73.311388px);animation-timing-function: cubic-bezier(0,0,0.580000,1)} 66.666667% {transform: translate(55.837631px,81.200841px)} 100% {transform: translate(55.837631px,81.200841px)} }#ey2tdo47u5ka29_tr {animation: ey2tdo47u5ka29_tr__tr 3000ms linear infinite normal forwards}@keyframes ey2tdo47u5ka29_tr__tr { 0% {transform: rotate(-17.568962deg)} 6.666667% {transform: rotate(-17.568962deg);animation-timing-function: cubic-bezier(0,0,0.580000,1)} 20% {transform: rotate(2.492008deg);animation-timing-function: cubic-bezier(0,0,0.580000,1)} 33.333333% {transform: rotate(-17.568962deg);animation-timing-function: cubic-bezier(0,0,0.580000,1)} 46.666667% {transform: rotate(2.492008deg);animation-timing-function: cubic-bezier(0,0,0.580000,1)} 66.666667% {transform: rotate(-17.568962deg)} 100% {transform: rotate(-17.568962deg)} }#ey2tdo47u5ka30_to {animation: ey2tdo47u5ka30_to__to 3000ms linear infinite normal forwards}@keyframes ey2tdo47u5ka30_to__to { 0% {transform: translate(66.890027px,72.874052px)} 6.666667% {transform: translate(66.890027px,72.874052px);animation-timing-function: cubic-bezier(0,0,0.580000,1)} 20% {transform: translate(66.890027px,73.874052px);animation-timing-function: cubic-bezier(0,0,0.580000,1)} 33.333333% {transform: translate(66.890027px,72.874052px);animation-timing-function: cubic-bezier(0,0,0.580000,1)} 46.666667% {transform: translate(66.890027px,73.874052px);animation-timing-function: cubic-bezier(0,0,0.580000,1)} 66.666667% {transform: translate(66.890027px,72.874052px)} 100% {transform: translate(66.890027px,72.874052px)} }#ey2tdo47u5ka30_tr {animation: ey2tdo47u5ka30_tr__tr 3000ms linear infinite normal forwards}@keyframes ey2tdo47u5ka30_tr__tr { 0% {transform: rotate(-38.547728deg)} 6.666667% {transform: rotate(-38.547728deg);animation-timing-function: cubic-bezier(0,0,0.580000,1)} 20% {transform: rotate(0deg);animation-timing-function: cubic-bezier(0,0,0.580000,1)} 33.333333% {transform: rotate(-38.547728deg);animation-timing-function: cubic-bezier(0,0,0.580000,1)} 46.666667% {transform: rotate(0deg);animation-timing-function: cubic-bezier(0,0,0.580000,1)} 66.666667% {transform: rotate(-38.547728deg)} 100% {transform: rotate(-38.547728deg)} }#ey2tdo47u5ka39_tr {animation: ey2tdo47u5ka39_tr__tr 3000ms linear infinite normal forwards}@keyframes ey2tdo47u5ka39_tr__tr { 0% {transform: translate(76.300000px,72.707370px) rotate(0deg)} 3.333333% {transform: translate(76.300000px,72.707370px) rotate(0deg);animation-timing-function: cubic-bezier(0,0,0.580000,1)} 23.333333% {transform: translate(76.300000px,72.707370px) rotate(-3deg)} 40% {transform: translate(76.300000px,72.707370px) rotate(2deg)} 66.666667% {transform: translate(76.300000px,72.707370px) rotate(0deg)} 100% {transform: translate(76.300000px,72.707370px) rotate(0deg)} }#ey2tdo47u5ka67_tr {animation: ey2tdo47u5ka67_tr__tr 3000ms linear infinite normal forwards}@keyframes ey2tdo47u5ka67_tr__tr { 0% {transform: translate(19.200000px,86.913677px) rotate(0deg)} 3.333333% {transform: translate(19.200000px,86.913677px) rotate(0deg);animation-timing-function: cubic-bezier(0,0,0.580000,1)} 16.666667% {transform: translate(19.200000px,86.913677px) rotate(14.273454deg)} 33.333333% {transform: translate(19.200000px,86.913677px) rotate(-20.030375deg)} 50% {transform: translate(19.200000px,86.913677px) rotate(14.273454deg);animation-timing-function: cubic-bezier(0.420000,0,1,1)} 66.666667% {transform: translate(19.200000px,86.913677px) rotate(0deg)} 100% {transform: translate(19.200000px,86.913677px) rotate(0deg)} }#ey2tdo47u5ka113_to {animation: ey2tdo47u5ka113_to__to 3000ms linear infinite normal forwards}@keyframes ey2tdo47u5ka113_to__to { 0% {transform: translate(26.999928px,75.042202px)} 6.666667% {transform: translate(26.999928px,75.042202px)} 20% {transform: translate(26.999928px,72.042202px)} 50% {transform: translate(26.999928px,72.042202px)} 63.333333% {transform: translate(26.999928px,75.042202px)} 100% {transform: translate(26.999928px,75.042202px)} }#ey2tdo47u5ka117_to {animation: ey2tdo47u5ka117_to__to 3000ms linear infinite normal forwards}@keyframes ey2tdo47u5ka117_to__to { 0% {transform: translate(17.927989px,79.008146px)} 6.666667% {transform: translate(17.927989px,79.008146px)} 20% {transform: translate(17.927989px,78.008146px)} 50% {transform: translate(17.927989px,78.008146px)} 63.333333% {transform: translate(17.927989px,79.008146px)} 100% {transform: translate(17.927989px,79.008146px)} }#ey2tdo47u5ka117_tr {animation: ey2tdo47u5ka117_tr__tr 3000ms linear infinite normal forwards}@keyframes ey2tdo47u5ka117_tr__tr { 0% {transform: rotate(0deg)} 6.666667% {transform: rotate(0deg)} 20% {transform: rotate(-21.622033deg)} 50% {transform: rotate(-21.622033deg)} 63.333333% {transform: rotate(0deg)} 100% {transform: rotate(0deg)} }#ey2tdo47u5ka119_to {animation: ey2tdo47u5ka119_to__to 3000ms linear infinite normal forwards}@keyframes ey2tdo47u5ka119_to__to { 0% {transform: translate(36.370028px,79.107990px)} 6.666667% {transform: translate(36.370028px,79.107990px)} 20% {transform: translate(36.370028px,78.107990px)} 50% {transform: translate(36.370028px,78.107990px)} 63.333333% {transform: translate(36.370028px,79.107990px)} 100% {transform: translate(36.370028px,79.107990px)} }#ey2tdo47u5ka119_tr {animation: ey2tdo47u5ka119_tr__tr 3000ms linear infinite normal forwards}@keyframes ey2tdo47u5ka119_tr__tr { 0% {transform: rotate(0deg)} 6.666667% {transform: rotate(0deg)} 20% {transform: rotate(17.234394deg)} 50% {transform: rotate(17.234394deg)} 63.333333% {transform: rotate(0deg)} 100% {transform: rotate(0deg)} }]]></style><g id="ey2tdo47u5ka2"><rect id="ey2tdo47u5ka3" width="110" height="100" rx="0" ry="0" fill="none" stroke="none" stroke-width="1"/><g id="ey2tdo47u5ka4"><rect id="ey2tdo47u5ka5" width="5" height="9" rx="1" ry="1" transform="matrix(1 0 0 1 18 91)" fill="rgb(168,109,82)" stroke="none" stroke-width="1"/><rect id="ey2tdo47u5ka6" width="5" height="9" rx="1" ry="1" transform="matrix(1 0 0 1 31 91)" fill="rgb(168,109,82)" stroke="none" stroke-width="1"/><path id="ey2tdo47u5ka7" d="M35,100L32,100C31.447715,100,31,99.552285,31,99L34,99C34.552285,99,35,98.552285,35,98L35,91C35.552285,91,36,91.447715,36,92L36,99C36,99.552285,35.552285,100,35,100Z" opacity="0.1" fill="rgb(0,0,0)" stroke="none" stroke-width="1"/><path id="ey2tdo47u5ka8" d="M22,100L19,100C18.447715,100,18,99.552285,18,99L21,99C21.552285,99,22,98.552285,22,98L22,91C22.552285,91,23,91.447715,23,92L23,99C23,99.552285,22.552285,100,22,100Z" opacity="0.1" fill="rgb(0,0,0)" stroke="none" stroke-width="1"/><path id="ey2tdo47u5ka9" d="M16,87L38,87L38,91C38,91.552285,37.552285,92,37,92L17,92C16.447715,92,16,91.552285,16,91L16,87Z" fill="rgb(168,109,82)" stroke="none" stroke-width="1"/><ellipse id="ey2tdo47u5ka10" rx="11" ry="2" transform="matrix(1 0 0 1 27 87)" fill="rgb(147,90,64)" stroke="none" stroke-width="1"/></g><rect id="ey2tdo47u5ka11" width="90" height="60" rx="4" ry="4" transform="matrix(1 0 0 1 4 10)" fill="rgb(203,156,99)" stroke="none" stroke-width="1"/><rect id="ey2tdo47u5ka12" width="80" height="50" rx="0" ry="0" transform="matrix(1 0 0 1 9 15)" fill="rgb(63,111,87)" stroke="none" stroke-width="1"/><rect id="ey2tdo47u5ka13" width="98" height="5" rx="2" ry="2" transform="matrix(1 0 0 1 0 65)" fill="rgb(203,156,99)" stroke="none" stroke-width="1"/><g id="ey2tdo47u5ka14"><path id="ey2tdo47u5ka15" d="M41.160000,26.380000L16,26.380000C15.171573,26.380000,14.500000,25.708427,14.500000,24.880000C14.500000,24.051573,15.171573,23.380000,16,23.380000L41.160000,23.380000C41.988427,23.380000,42.660000,24.051573,42.660000,24.880000C42.660000,25.708427,41.988427,26.380000,41.160000,26.380000Z" fill="rgb(216,216,216)" stroke="none" stroke-width="1"/></g><g id="ey2tdo47u5ka16"><path id="ey2tdo47u5ka17" d="M29,33.380000L16,33.380000C15.171573,33.380000,14.500000,32.708427,14.500000,31.880000C14.500000,31.051573,15.171573,30.380000,16,30.380000L29,30.380000C29.828427,30.380000,30.500000,31.051573,30.500000,31.880000C30.500000,32.708427,29.828427,33.380000,29,33.380000Z" fill="rgb(216,216,216)" stroke="none" stroke-width="1"/></g><g id="ey2tdo47u5ka18"><path id="ey2tdo47u5ka19" d="M74.450000,88.180000L75.550000,88.180000C77.206854,88.180000,78.550000,89.523146,78.550000,91.180000L78.550000,98C78.550000,99.104569,77.654569,100,76.550000,100L73.450000,100C72.345431,100,71.450000,99.104569,71.450000,98L71.450000,91.180000C71.450000,89.523146,72.793146,88.180000,74.450000,88.180000Z" fill="rgb(253,223,188)" stroke="none" stroke-width="1"/><path id="ey2tdo47u5ka20" d="M81.550000,88.180000L82.640000,88.180000C84.296854,88.180000,85.640000,89.523146,85.640000,91.180000L85.640000,98C85.640000,99.104569,84.744569,100,83.640000,100L80.550000,100C79.445431,100,78.550000,99.104569,78.550000,98L78.550000,91.180000C78.550000,89.523146,79.893146,88.180000,81.550000,88.180000Z" fill="rgb(253,223,188)" stroke="none" stroke-width="1"/><g id="ey2tdo47u5ka21_tr" transform="translate(76.240000,85.307990) rotate(0)"><g id="ey2tdo47u5ka21" transform="translate(-76.240000,-85.307990)"><path id="ey2tdo47u5ka22" d="M50.670000,29.430000C47.190000,36.540000,45.470000,48.650000,47.320000,57.640000C49.320000,67.340000,43.940000,70.120000,45.320000,76.640000C47.210000,82.360000,52.170000,86.470000,60.320000,86.930000C68.470000,87.390000,80.620000,86.140000,90.460000,88.430000C100.300000,90.720000,108.400000,84.090000,109.200000,78.630000C110,73.170000,107,73.320000,106.110000,65.100000C105.680000,61.100000,106.660000,49.610000,106.980000,44.560000C107.235857,40.549419,106.454061,36.540563,104.710000,32.920000C102.620000,28.190000,97.710000,19,86.710000,15.790000C73,11.070000,57.150000,16.150000,50.670000,29.430000Z" fill="rgb(76,84,90)" stroke="none" stroke-width="1"/><g id="ey2tdo47u5ka23" clip-path="url(#ey2tdo47u5ka27)"><g id="ey2tdo47u5ka24"><g id="ey2tdo47u5ka25" opacity="0.2"><path id="ey2tdo47u5ka26" d="M56.630000,48.530000C56.630000,48.530000,57.280000,63.080000,54.230000,70.430000C51.180000,77.780000,50.170000,83.930000,62.480000,88.810000C74.790000,93.690000,93.730000,91.510000,96.320000,90.360000C98.910000,89.210000,106.640000,82.050000,100.800000,74.180000C94.960000,66.310000,97.650000,50.460000,97.650000,50.460000Z" fill="rgb(0,0,0)" stroke="none" stroke-width="1"/></g></g><clipPath id="ey2tdo47u5ka27"><path id="ey2tdo47u5ka28" d="M50.670000,29.430000C47.190000,36.540000,45.470000,48.650000,47.320000,57.630000C49.320000,67.330000,43.940000,70.120000,45.320000,76.630000C47.210000,82.350000,52.170000,86.450000,60.320000,86.910000C68.470000,87.370000,80.620000,86.120000,90.460000,88.410000C100.300000,90.700000,108.400000,84.070000,109.200000,78.610000C110,73.150000,107,73.300000,106.110000,65.080000C105.380000,58.390000,106.710000,46.490000,106.950000,41.390000C107.190000,36.290000,101.500000,19.830000,86.950000,15.590000C73.250000,10.890000,57.150000,16.150000,50.670000,29.430000Z" fill="none" stroke="none" stroke-width="1"/></clipPath></g></g></g><g id="ey2tdo47u5ka29_to" transform="translate(55.837631,81.200841)"><g id="ey2tdo47u5ka29_tr" transform="rotate(-17.568962)"><path id="ey2tdo47u5ka29" d="M44.550000,52L45.670000,51.640000L55.200000,77.140000C54.271268,77.539575,53.307025,77.850945,52.320000,78.070000C51.790000,78.130000,51.630000,77.540000,51.630000,77.540000Z" transform="translate(-52.868480,-76.400000)" fill="rgb(168,109,82)" stroke="none" stroke-width="1"/></g></g><g id="ey2tdo47u5ka30_to" transform="translate(66.890027,72.874052)"><g id="ey2tdo47u5ka30_tr" transform="rotate(-38.547728)"><g id="ey2tdo47u5ka30" transform="translate(-66.890027,-74.874052)"><path id="ey2tdo47u5ka31" d="M52.880000,73.200000C52.991953,72.489495,53.386868,71.854613,53.974698,71.440118C54.562529,71.025622,55.293161,70.866849,56,71L56,71L61.790000,72L61.330000,74.630000C61.208092,75.329568,60.812530,75.951756,60.230784,76.358977C59.649039,76.766199,58.929039,76.924905,58.230000,76.800000L55.080000,76.240000C54.381227,76.120471,53.759076,75.726953,53.351654,75.146799C52.944232,74.566646,52.785251,73.847860,52.910000,73.150000Z" fill="rgb(253,223,188)" stroke="none" stroke-width="1"/><path id="ey2tdo47u5ka32" d="M69.400000,73.830000C69.400000,73.830000,59,68.680000,57.940000,69.530000C56.880000,70.380000,54.940000,76.360000,54.620000,77.920000C54.300000,79.480000,67.260000,81.070000,67.540000,79.920000C67.820000,78.770000,69.400000,73.830000,69.400000,73.830000Z" fill="rgb(37,42,62)" stroke="none" stroke-width="1"/></g></g></g><path id="ey2tdo47u5ka33" d="M92.350000,86.880000L92.350000,86.880000C91.649705,86.992272,90.933515,86.821306,90.359443,86.404822C89.785370,85.988338,89.400592,85.360562,89.290000,84.660000L89.290000,84.660000L88.370000,78.850000L88.370000,78.850000L91,78.430000C92.460423,78.202334,93.829457,79.200029,94.060000,80.660000L94.560000,83.830000C94.757783,85.267019,93.772066,86.599070,92.340000,86.830000Z" fill="rgb(253,223,188)" stroke="none" stroke-width="1"/><path id="ey2tdo47u5ka34" d="M84,71.680000C84,71.680000,85.160000,83.230000,86.430000,83.680000C87.700000,84.130000,93.840000,82.680000,95.300000,82.050000C96.760000,81.420000,91.300000,69.660000,90.140000,70.050000C88.980000,70.440000,84,71.680000,84,71.680000Z" fill="rgb(37,42,62)" stroke="none" stroke-width="1"/><path id="ey2tdo47u5ka35" d="M66.770000,88.070000L89.290000,88.070000C89.279702,90.058911,89.095669,92.043121,88.740000,94C88.230000,96,86.200000,96.090000,85.550000,96.090000L70.810000,96.090000C69.465030,96.156211,68.181906,95.520327,67.420000,94.410000C66.110000,92.710000,65.590000,89.290000,65.590000,89.290000C65.590000,88.977045,65.714321,88.676907,65.935614,88.455614C66.156907,88.234321,66.457045,88.110000,66.770000,88.110000Z" fill="rgb(133,151,168)" stroke="none" stroke-width="1"/><path id="ey2tdo47u5ka36" d="M68.370000,68.820000L86.550000,68.820000C87.349361,68.762420,88.138529,69.027073,88.741552,69.554953C89.344575,70.082832,89.711314,70.830048,89.760000,71.630000L91.890000,88.470000C91.838690,89.266309,91.472248,90.009365,90.871722,90.534825C90.271196,91.060286,89.486073,91.324849,88.690000,91.270000L66.230000,91.270000C65.433927,91.324849,64.648804,91.060286,64.048278,90.534825C63.447752,90.009365,63.081310,89.266309,63.030000,88.470000L65.170000,71.630000C65.218760,70.831908,65.584102,70.086302,66.184916,69.558712C66.785730,69.031122,67.572299,68.765206,68.370000,68.820000Z" fill="rgb(255,255,255)" stroke="none" stroke-width="1"/><path id="ey2tdo47u5ka37" d="M65,71.100000C65,71.100000,62.400000,88.470000,63,90.580000C63.600000,92.690000,72.530000,91.380000,72.530000,91.380000C72.530000,91.380000,70.690000,81.250000,71.530000,73.120000C71.620000,73,65,71.100000,65,71.100000Z" fill="rgb(37,42,62)" stroke="none" stroke-width="1"/><path id="ey2tdo47u5ka38" d="M90.090000,70.780000C90.090000,70.780000,93.210000,88.470000,92.590000,90.580000C91.970000,92.690000,83.060000,91.380000,83.060000,91.380000C83.060000,91.380000,84.900000,81.250000,84.060000,73.120000C84,73,90.090000,70.780000,90.090000,70.780000Z" fill="rgb(37,42,62)" stroke="none" stroke-width="1"/><g id="ey2tdo47u5ka39_tr" transform="translate(76.300000,72.707370) rotate(0)"><g id="ey2tdo47u5ka39" transform="translate(-76.300000,-72.707370)"><path id="ey2tdo47u5ka40" d="M76.930000,26.410000C83.604580,26.409999,90.005640,29.062150,94.724343,33.782729C99.443046,38.503307,102.092653,44.905421,102.090000,51.580000C102.090000,65.480000,90.830000,73.810000,76.930000,73.810000C63.030000,73.810000,51.760000,65.480000,51.760000,51.580000C51.760000,37.678993,63.028993,26.410000,76.930000,26.410000Z" fill="rgb(253,223,188)" stroke="none" stroke-width="1"/><path id="ey2tdo47u5ka41" d="M76.930000,73.810000C73.884061,73.828690,70.851832,73.400809,67.930000,72.540000C69.141820,72.676665,70.360503,72.743442,71.580000,72.740000C78.520000,72.740000,84.840000,70.640000,89.370000,66.840000C91.667928,64.937049,93.512679,62.545705,94.770000,59.840000C96.113695,56.914595,96.796538,53.729131,96.770000,50.510000C96.770000,45.100745,95.015553,39.837404,91.770000,35.510000C88.614767,31.265921,84.207989,28.118222,79.170000,26.510000C92.137054,27.688984,102.066606,38.559459,102.070000,51.580000C102.097852,54.799265,101.414948,57.985012,100.070000,60.910000C98.802208,63.609328,96.959102,65.998540,94.670000,67.910000C90.180000,71.710000,83.860000,73.810000,76.930000,73.810000Z" fill="rgb(255,213,163)" stroke="none" stroke-width="1"/><path id="ey2tdo47u5ka42" d="M65,51.920000L65,51.920000C65.501259,51.920000,65.981988,52.119124,66.336432,52.473568C66.690876,52.828012,66.890000,53.308741,66.890000,53.810000L66.890000,55.940000C66.892678,56.442075,66.694413,56.924362,66.339387,57.279387C65.984362,57.634413,65.502075,57.832678,65,57.830000L65,57.830000C64.498741,57.830000,64.018012,57.630876,63.663568,57.276432C63.309124,56.921988,63.110000,56.441259,63.110000,55.940000L63.110000,53.810000C63.110000,53.308741,63.309124,52.828012,63.663568,52.473568C64.018012,52.119124,64.498741,51.920000,65,51.920000Z" fill="rgb(76,84,90)" stroke="none" stroke-width="1"/><path id="ey2tdo47u5ka43" d="M86.270000,51.920000L86.270000,51.920000C87.315448,51.919986,88.164498,52.764566,88.170000,53.810000L88.170000,55.940000C88.170007,56.442997,87.969510,56.925247,87.612901,57.279980C87.256291,57.634712,86.772990,57.832661,86.270000,57.830000L86.270000,57.830000C85.768741,57.830000,85.288012,57.630876,84.933568,57.276432C84.579124,56.921988,84.380000,56.441259,84.380000,55.940000L84.380000,53.810000C84.380000,53.308741,84.579124,52.828012,84.933568,52.473568C85.288012,52.119124,85.768741,51.920000,86.270000,51.920000Z" fill="rgb(76,84,90)" stroke="none" stroke-width="1"/><path id="ey2tdo47u5ka44" d="M73.400000,63.180000C74.077146,63.502708,74.810979,63.689564,75.560000,63.730000C76.297654,63.698950,77.020286,63.511475,77.680000,63.180000" fill="none" stroke="rgb(76,84,90)" stroke-width="1.600000" stroke-linecap="round"/><path id="ey2tdo47u5ka45" d="M52.100000,47.110000C52.100000,47.110000,62.290000,44.200000,66.900000,38.840000C71.510000,33.480000,74.170000,36.290000,76.330000,37.550000C78.490000,38.810000,83.780000,43.550000,90.640000,46.620000C94.410510,48.419007,98.532341,49.361531,102.710000,49.380000C106.887659,49.398469,103.060000,35.190000,94.710000,29.920000C86.360000,24.650000,68.910000,20.200000,59.900000,29.920000C50.890000,39.640000,52.100000,47.110000,52.100000,47.110000Z" fill="rgb(76,84,90)" stroke="none" stroke-width="1"/><g id="ey2tdo47u5ka46"><path id="ey2tdo47u5ka47" d="M94.430000,37.090000C94.329153,36.605284,94.039218,36.180775,93.624408,35.910492C93.209598,35.640209,92.704148,35.546457,92.220000,35.650000L92.220000,35.650000L89.020000,36.330000L88.360000,33.140000C88.111401,32.154428,87.124469,31.544923,86.131916,31.763988C85.139362,31.983053,84.500664,32.951349,84.690000,33.950000L85.690000,38.840000C85.943581,39.941834,87.034344,40.636360,88.140000,40.400000L93.030000,39.400000C93.514716,39.299153,93.939225,39.009218,94.209508,38.594408C94.479791,38.179598,94.573543,37.674148,94.470000,37.190000L94.470000,37.190000Z" fill="rgb(255,255,255)" stroke="none" stroke-width="1"/></g><g id="ey2tdo47u5ka48"><circle id="ey2tdo47u5ka49" r="1.870000" transform="matrix(1 0 0 1 84.94000000000000 43.32000000000000)" fill="rgb(255,255,255)" stroke="none" stroke-width="1"/></g><path id="ey2tdo47u5ka50" d="M84.940000,45.200000C83.901705,45.200000,83.060000,44.358295,83.060000,43.320000C83.060322,43.119939,83.090660,42.921058,83.150000,42.730000L83.150000,42.830000C83.161934,43.745350,83.831443,44.519041,84.735589,44.662320C85.639734,44.805600,86.515646,44.276813,86.810000,43.410000C86.762123,44.409134,85.940271,45.195826,84.940000,45.200000Z" opacity="0.1" fill="rgb(0,0,0)" stroke="none" stroke-width="1"/><g id="ey2tdo47u5ka51"><path id="ey2tdo47u5ka52" d="M52.290000,49.290000C51.514192,49.020573,50.655172,49.323512,50.220000,50.020000C49.470000,51.240000,49.800000,54.590000,51.870000,56.460000C53.940000,58.330000,55.740000,57.460000,55.740000,57.460000C55.740000,57.460000,53.800000,50.070000,53.260000,49.860000C52.906423,49.726925,52.578322,49.534123,52.290000,49.290000Z" fill="rgb(253,223,188)" stroke="none" stroke-width="1"/><path id="ey2tdo47u5ka53" d="M103,50.400000C103.772895,50.127947,104.630867,50.431985,105.060000,51.130000C105.810000,52.350000,105.480000,55.700000,103.410000,57.570000C101.340000,59.440000,99.540000,58.570000,99.540000,58.570000C99.540000,58.570000,101.480000,51.180000,102.020000,50.970000C102.376023,50.835675,102.707212,50.643045,103,50.400000Z" fill="rgb(254,217,173)" stroke="none" stroke-width="1"/><path id="ey2tdo47u5ka54" d="M52.140000,45.360000C52.140000,45.360000,50.430000,56.930000,55.030000,65.360000C59.630000,73.790000,63.260000,73.530000,63.260000,73.530000C63.260000,73.530000,51.470000,65.060000,55.740000,50.370000C60.010000,35.680000,53,43.540000,53,43.540000Z" fill="rgb(76,84,90)" stroke="none" stroke-width="1"/><path id="ey2tdo47u5ka55" d="M102.840000,45.360000C102.840000,45.360000,104.540000,56.930000,99.950000,65.360000C95.360000,73.790000,91.720000,73.530000,91.720000,73.530000C91.720000,73.530000,103.510000,65.060000,99.240000,50.370000C94.970000,35.680000,101.940000,43.550000,101.940000,43.550000Z" fill="rgb(76,84,90)" stroke="none" stroke-width="1"/></g></g></g><path id="ey2tdo47u5ka56" d="M72.700000,73.080000C72.700000,73.080000,75.250000,77.250000,76.240000,79.420000C76.480000,79.960000,78.900000,74.480000,79.780000,73.080000C79.700000,72.850000,72.700000,73.080000,72.700000,73.080000Z" fill="rgb(254,216,172)" stroke="none" stroke-width="1"/><path id="ey2tdo47u5ka57" d="M71.680000,74.390000C70.220000,74.590000,69.240000,76.550000,69.240000,76.550000L72.580000,76.170000L72.580000,78.170000L76.280000,79.480000C76.280000,79.480000,76.080000,73.790000,71.680000,74.390000Z" opacity="0.2" fill="rgb(0,0,0)" stroke="none" stroke-width="1"/><path id="ey2tdo47u5ka58" d="M80.940000,74.390000C82.390000,74.590000,83.370000,76.550000,83.370000,76.550000L80,76.160000L80,78.160000L76.300000,79.470000C76.300000,79.470000,76.530000,73.790000,80.940000,74.390000Z" opacity="0.2" fill="rgb(0,0,0)" stroke="none" stroke-width="1"/><path id="ey2tdo47u5ka59" d="M81.520000,73.210000C82.960000,73.410000,84.120000,76.090000,84.120000,76.090000L80.430000,75.700000L80.430000,77.760000L76.250000,79.460000C76.250000,79.460000,77.170000,72.610000,81.520000,73.210000Z" fill="rgb(255,255,255)" stroke="none" stroke-width="1"/><path id="ey2tdo47u5ka60" d="M71.670000,73.210000C70.220000,73.410000,69.050000,76.100000,69.050000,76.100000L72.780000,75.710000L72.780000,77.770000L76.240000,79.460000C76.240000,79.460000,76.080000,72.610000,71.670000,73.210000Z" fill="rgb(255,255,255)" stroke="none" stroke-width="1"/></g><rect id="ey2tdo47u5ka61" width="14" height="5" rx="1" ry="1" transform="matrix(1 0 0 1 15 60)" fill="rgb(255,255,255)" stroke="none" stroke-width="1"/><g id="ey2tdo47u5ka62"><g id="ey2tdo47u5ka63"><g id="ey2tdo47u5ka64"><g id="ey2tdo47u5ka65"><path id="ey2tdo47u5ka66" d="M18.370000,71.100000L16.600000,78.230000C16.600000,78.230000,14.400000,87.080000,20.710000,88.070000C22.917455,88.219992,25.132545,88.219992,27.340000,88.070000C31.240000,88.070000,32.180000,89.070000,35.180000,88.070000C38.180000,87.070000,38.570000,83.870000,38.450000,78.880000C38.450000,77.360000,36.310000,71.100000,36.310000,71.100000Z" fill="rgb(163,216,242)" stroke="none" stroke-width="1"/></g><g id="ey2tdo47u5ka67_tr" transform="translate(19.200000,86.913677) rotate(0)"><g id="ey2tdo47u5ka67" transform="scale(1.054918,1.054918) translate(-17.237898,-86.913677)"><path id="ey2tdo47u5ka68" d="M19.700000,86.230000C18.126304,86.348753,16.547993,86.070228,15.110000,85.420000C13.865243,84.623927,12.908435,83.449822,12.380000,82.070000C11.730000,81.140000,10.640000,80.070000,9.320000,80.520000C8,80.970000,7.590000,82.630000,9.010000,84.520000C10.430000,86.410000,15.460000,88.400000,20.140000,87.060000C24.820000,85.720000,19.700000,86.230000,19.700000,86.230000Z" fill="rgb(163,216,242)" stroke="none" stroke-width="1"/><g id="ey2tdo47u5ka69" clip-path="url(#ey2tdo47u5ka73)"><g id="ey2tdo47u5ka70"><g id="ey2tdo47u5ka71"><path id="ey2tdo47u5ka72" d="M19.700000,86.230000C18.126070,86.353549,16.546572,86.074814,15.110000,85.420000C13.865716,84.623396,12.909050,83.449465,12.380000,82.070000C11.730000,81.150000,10.640000,80.070000,9.320000,80.520000C8,80.970000,7.590000,82.640000,9.020000,84.520000C10.450000,86.400000,15.460000,88.390000,20.140000,87.050000C24.820000,85.710000,19.700000,86.230000,19.700000,86.230000Z" fill="rgb(1,159,222)" stroke="none" stroke-width="1"/></g></g><clipPath id="ey2tdo47u5ka73"><path id="ey2tdo47u5ka74" d="M13.190000,81.160000C11.310224,81.390032,9.714464,82.646597,9.050000,84.420000C8.050000,87.420000,6.990000,80.070000,6.990000,80.070000L10.160000,78.170000Z" fill="none" stroke="none" stroke-width="1"/></clipPath></g></g></g></g><g id="ey2tdo47u5ka75"><g id="ey2tdo47u5ka76"><path id="ey2tdo47u5ka77" d="M12.500000,65.430000C12.500000,65.430000,7.670000,57.230000,11.220000,54.890000C14.770000,52.550000,20.070000,56.810000,20.420000,57.090000C20.420000,57.090000,25.970000,54.270000,31.420000,56.090000C31.720000,56.250000,36.520000,51.620000,40.260000,52.930000C44,54.240000,40.260000,63.320000,40.260000,63.320000C40.260000,63.320000,40.940000,69.180000,43.150000,70.440000C43.310000,70.730000,41.350000,71.720000,40.680000,71.500000C41.324857,71.744186,41.996097,71.911996,42.680000,72C43.363903,72.088004,35.120000,78.230000,26.930000,78.150000C18.740000,78.070000,13.830000,75.150000,12.930000,74.520000C13.477855,74.301967,14.009239,74.044630,14.520000,73.750000C14.680000,73.670000,11.710000,73.350000,10.520000,72C10.120000,71.600000,13.630000,69.380000,13.180000,67C12.930000,65.660000,12.500000,65.430000,12.500000,65.430000Z" fill="rgb(163,216,242)" stroke="none" stroke-width="1"/></g><g id="ey2tdo47u5ka78"><path id="ey2tdo47u5ka79" d="M14.360000,62.700000C14.360000,62.700000,15.950000,59.520000,17.790000,58.830000C17.790000,58.680000,13.790000,56.180000,12.650000,57.300000C11.510000,58.420000,14.360000,62.700000,14.360000,62.700000Z" opacity="0.2" fill="rgb(0,0,0)" stroke="none" stroke-width="1"/></g><g id="ey2tdo47u5ka80" opacity="0.2"><path id="ey2tdo47u5ka81" d="M33.860000,58C33.860000,58,37.280000,59,38.260000,60.720000C38.390000,60.720000,40.160000,56.270000,38.860000,55.400000C37.560000,54.530000,33.860000,58,33.860000,58Z" fill="rgb(0,0,0)" stroke="none" stroke-width="1"/></g><g id="ey2tdo47u5ka82"><circle id="ey2tdo47u5ka83" r="1.130000" transform="matrix(1 0 0 1 19.99000000000000 67.70999999999999)" fill="rgb(76,84,90)" stroke="none" stroke-width="1"/></g><g id="ey2tdo47u5ka84"><circle id="ey2tdo47u5ka85" r="1.130000" transform="matrix(1 0 0 1 33.55000000000000 67.70999999999999)" fill="rgb(76,84,90)" stroke="none" stroke-width="1"/></g><g id="ey2tdo47u5ka86"><g id="ey2tdo47u5ka87"><path id="ey2tdo47u5ka88" d="M10.300000,71.760000C10.180535,71.766517,10.069330,71.699000,10.020000,71.590000C9.965309,71.437925,10.028799,71.268616,10.170000,71.190000C11.268486,70.692388,12.486259,70.518916,13.680000,70.690000C13.759283,70.699715,13.831049,70.741701,13.878367,70.806054C13.925685,70.870406,13.944365,70.951426,13.930000,71.030000L13.930000,71.030000C13.891725,71.184381,13.748772,71.289494,13.590000,71.280000C12.512046,71.121774,11.411333,71.278027,10.420000,71.730000C10.380506,71.739001,10.339494,71.739001,10.300000,71.730000Z" fill="rgb(112,112,112)" stroke="none" stroke-width="1"/></g><g id="ey2tdo47u5ka89"><path id="ey2tdo47u5ka90" d="M44.080000,71.710000C44.040645,71.720161,43.999355,71.720161,43.960000,71.710000C42.964672,71.271606,41.864112,71.129262,40.790000,71.300000C40.625094,71.324319,40.470479,71.213879,40.440000,71.050000C40.422385,70.971047,40.439778,70.888334,40.487699,70.823161C40.535620,70.757989,40.609386,70.716726,40.690000,70.710000L40.690000,70.710000C41.878882,70.516412,43.098404,70.672761,44.200000,71.160000C44.347116,71.228155,44.416862,71.398162,44.360000,71.550000C44.309833,71.657123,44.197760,71.721165,44.080000,71.710000Z" fill="rgb(112,112,112)" stroke="none" stroke-width="1"/></g><g id="ey2tdo47u5ka91"><path id="ey2tdo47u5ka92" d="M10.910000,74.060000C10.830423,74.062697,10.753038,74.033648,10.694892,73.979254C10.636746,73.924859,10.602608,73.849580,10.600000,73.770000C10.600768,73.670649,10.649108,73.577686,10.730000,73.520000C11.698335,72.797774,12.854688,72.370653,14.060000,72.290000C14.139647,72.281633,14.219332,72.305458,14.281315,72.356171C14.343297,72.406884,14.382430,72.480274,14.390000,72.560000C14.396479,72.726006,14.274845,72.869360,14.110000,72.890000C13.026069,72.973061,11.986952,73.357534,11.110000,74C11.054078,74.046012,10.982015,74.067631,10.910000,74.060000Z" fill="rgb(112,112,112)" stroke="none" stroke-width="1"/></g><g id="ey2tdo47u5ka93"><path id="ey2tdo47u5ka94" d="M43.490000,74.060000C43.425089,74.060000,43.361929,74.038947,43.310000,74C42.434074,73.355629,41.394393,72.970947,40.310000,72.890000C40.143520,72.869675,40.018764,72.727711,40.020000,72.560000C40.035496,72.400604,40.169854,72.279248,40.330000,72.280000L40.330000,72.280000C41.528146,72.365536,42.676746,72.792357,43.640000,73.510000C43.743303,73.587477,43.785439,73.722366,43.744605,73.844868C43.703771,73.967371,43.589129,74.050000,43.460000,74.050000Z" fill="rgb(112,112,112)" stroke="none" stroke-width="1"/></g></g></g></g><g id="ey2tdo47u5ka95"><g id="ey2tdo47u5ka96"><path id="ey2tdo47u5ka97" d="M26.090000,56.810000C25.840616,56.808196,25.629114,56.626304,25.590000,56.380000C25.530000,55.870000,25.180000,54.300000,24.440000,53.900000C24.323066,53.836582,24.236224,53.729181,24.198689,53.601562C24.161154,53.473943,24.176021,53.336628,24.240000,53.220000L24.240000,53.220000C24.379583,52.979636,24.683512,52.891541,24.930000,53.020000C26.250000,53.750000,26.560000,56.020000,26.590000,56.250000C26.626178,56.522060,26.440565,56.773962,26.170000,56.820000L26.090000,56.820000Z" fill="rgb(128,75,51)" stroke="none" stroke-width="1"/></g><path id="ey2tdo47u5ka98" d="M21.540000,52.410000C21,53.170000,23.010000,54.800000,24.540000,54.290000C26.070000,53.780000,24.540000,52.050000,23.930000,51.780000C23.080028,51.468411,22.125930,51.719909,21.540000,52.410000Z" fill="rgb(108,206,157)" stroke="none" stroke-width="1"/><g id="ey2tdo47u5ka99"><path id="ey2tdo47u5ka100" d="M28.740000,52.170000C29.340000,52.870000,27.580000,54.740000,25.970000,54.420000C24.360000,54.100000,25.660000,52.200000,26.280000,51.850000C27.086147,51.431239,28.067814,51.558935,28.740000,52.170000Z" fill="rgb(108,206,157)" stroke="none" stroke-width="1"/></g></g><path id="ey2tdo47u5ka101" d="M26.830000,76.400000C30.478388,76.454846,33.394506,79.451471,33.350000,83.100000C33.350000,86.800000,30.430000,87.270000,26.830000,87.270000C23.230000,87.270000,20.310000,86.810000,20.310000,83.100000C20.265494,79.451471,23.181612,76.454846,26.830000,76.400000Z" fill="rgb(255,255,255)" stroke="none" stroke-width="1"/></g><g id="ey2tdo47u5ka102"><g id="ey2tdo47u5ka103" opacity="0.4"><rect id="ey2tdo47u5ka104" width="12" height="9" rx="2" ry="2" transform="matrix(1 0 0 1 28 63)" fill="rgb(255,255,255)" stroke="none" stroke-width="1"/></g><path id="ey2tdo47u5ka105" d="M38,72L30,72C28.895431,72,28,71.104569,28,70L28,65C28,63.895431,28.895431,63,30,63L38,63C39.104569,63,40,63.895431,40,65L40,70C40,71.104569,39.104569,72,38,72ZM30,63.800000C29.681740,63.800000,29.376516,63.926428,29.151472,64.151472C28.926428,64.376516,28.800000,64.681740,28.800000,65L28.800000,70C28.800000,70.318260,28.926428,70.623484,29.151472,70.848528C29.376516,71.073572,29.681740,71.200000,30,71.200000L38,71.200000C38.318260,71.200000,38.623484,71.073572,38.848528,70.848528C39.073572,70.623484,39.200000,70.318260,39.200000,70L39.200000,65C39.200000,64.681740,39.073572,64.376516,38.848528,64.151472C38.623484,63.926428,38.318260,63.800000,38,63.800000Z" fill="rgb(0,0,0)" stroke="none" stroke-width="1"/></g><g id="ey2tdo47u5ka106"><g id="ey2tdo47u5ka107" opacity="0.4"><rect id="ey2tdo47u5ka108" width="12" height="9" rx="2" ry="2" transform="matrix(1 0 0 1 13.20000000000000 63)" fill="rgb(255,255,255)" stroke="none" stroke-width="1"/></g><path id="ey2tdo47u5ka109" d="M23.200000,72L15.200000,72C14.095431,72,13.200000,71.104569,13.200000,70L13.200000,65C13.200000,63.895431,14.095431,63,15.200000,63L23.200000,63C24.304569,63,25.200000,63.895431,25.200000,65L25.200000,70C25.200000,71.104569,24.304569,72,23.200000,72ZM15.200000,63.800000C14.881740,63.800000,14.576516,63.926428,14.351472,64.151472C14.126428,64.376516,14,64.681740,14,65L14,70C14,70.318260,14.126428,70.623484,14.351472,70.848528C14.576516,71.073572,14.881740,71.200000,15.200000,71.200000L23.200000,71.200000C23.518260,71.200000,23.823484,71.073572,24.048528,70.848528C24.273572,70.623484,24.400000,70.318260,24.400000,70L24.400000,65C24.400000,64.681740,24.273572,64.376516,24.048528,64.151472C23.823484,63.926428,23.518260,63.800000,23.200000,63.800000Z" fill="rgb(0,0,0)" stroke="none" stroke-width="1"/></g><g id="ey2tdo47u5ka110"><path id="ey2tdo47u5ka111" d="M25.680000,66.300000C26.006352,66.212607,26.342195,66.165589,26.680000,66.160000C27.017909,66.164237,27.353919,66.211279,27.680000,66.300000C27.350291,66.237081,27.015639,66.203616,26.680000,66.200000C26.344457,66.205309,26.009950,66.238760,25.680000,66.300000Z" fill="rgb(29,29,27)" stroke="none" stroke-width="1"/><path id="ey2tdo47u5ka112" d="M26.660000,65.660000C27.225272,65.679194,27.783189,65.794159,28.310000,66L28.310000,67C27.778529,66.816395,27.222086,66.715224,26.660000,66.700000C26.094709,66.715761,25.535050,66.816904,25,67L25,66C25.529960,65.793049,26.091353,65.678065,26.660000,65.660000Z" fill="rgb(29,29,27)" stroke="none" stroke-width="1"/></g><g id="ey2tdo47u5ka113_to" transform="translate(26.999928,75.042202)"><g id="ey2tdo47u5ka113" transform="translate(-26.999928,-75.042202)"><path id="ey2tdo47u5ka114" d="M18.200000,69.210000C18.394004,69.109997,18.612818,69.068318,18.830000,69.090000L27,70L27,81L18.680000,80.080000C18.680000,80.080000,18.180000,79.950000,18.100000,79.760000C18.037656,79.606989,18.000509,79.444890,17.990000,79.280000L17.990000,69.720000C17.986058,69.528199,18.062146,69.343415,18.200000,69.210000Z" fill="rgb(253,91,115)" stroke="none" stroke-width="1"/><path id="ey2tdo47u5ka115" d="M35.790000,69.210000C35.595276,69.112102,35.377078,69.070541,35.160000,69.090000L27,70L27,81L35.320000,80.080000C35.320000,80.080000,35.810000,79.950000,35.900000,79.760000C35.961217,79.606635,35.998323,79.444718,36.010000,79.280000L36.010000,69.720000C36.006731,69.527653,35.927668,69.344371,35.790000,69.210000Z" fill="rgb(253,91,115)" stroke="none" stroke-width="1"/><rect id="ey2tdo47u5ka116" width="4" height="11.500000" rx="1" ry="1" transform="matrix(1 0 0 1 25 69.50000000000000)" fill="rgb(242,79,103)" stroke="none" stroke-width="1"/></g></g><g id="ey2tdo47u5ka117_to" transform="translate(17.927989,79.008146)"><g id="ey2tdo47u5ka117_tr" transform="rotate(0)"><g id="ey2tdo47u5ka117" transform="translate(-16.927989,-79.008146)"><path id="ey2tdo47u5ka118" d="M18.390000,81.090000C21.870000,80.500000,22.630000,79.230000,22.150000,78.090000C21.670000,76.950000,17,76.910000,17,76.910000C17,76.910000,16.450000,81.410000,18.390000,81.090000Z" fill="rgb(163,216,242)" stroke="none" stroke-width="1"/></g></g></g><g id="ey2tdo47u5ka119_to" transform="translate(36.370028,79.107990)"><g id="ey2tdo47u5ka119_tr" transform="rotate(0)"><g id="ey2tdo47u5ka119" transform="translate(-36.370028,-79.107990)"><path id="ey2tdo47u5ka120" d="M34.510000,81.160000C31.130000,80.160000,30.400000,78.920000,31.140000,77.730000C31.880000,76.540000,36.370000,77.180000,36.370000,77.180000C36.370000,77.180000,36.400000,81.720000,34.510000,81.160000Z" fill="rgb(163,216,242)" stroke="none" stroke-width="1"/></g></g></g></g></svg>