<svg id="ecqcj8n116u51" xmlns="http://www.w3.org/2000/svg" xmlns:xlink="http://www.w3.org/1999/xlink" viewBox="0 0 110 100" shape-rendering="geometricPrecision" text-rendering="geometricPrecision"><style><![CDATA[#ecqcj8n116u55_to {animation: ecqcj8n116u55_to__to 3000ms linear infinite normal forwards}@keyframes ecqcj8n116u55_to__to { 0% {transform: translate(15.712288px,54.630000px)} 6.666667% {transform: translate(15.712288px,54.630000px);animation-timing-function: cubic-bezier(0.420000,0,1,1)} 20% {transform: translate(15.712288px,42.630000px)} 46.666667% {transform: translate(15.712288px,42.630000px);animation-timing-function: cubic-bezier(0,0,0.580000,1)} 63.333333% {transform: translate(15.712288px,54.630000px)} 100% {transform: translate(15.712288px,54.630000px)} }#ecqcj8n116u55_tr {animation: ecqcj8n116u55_tr__tr 3000ms linear infinite normal forwards}@keyframes ecqcj8n116u55_tr__tr { 0% {transform: rotate(0deg)} 10% {transform: rotate(-21.352401deg)} 20% {transform: rotate(0deg)} 30% {transform: rotate(-21.352401deg)} 40% {transform: rotate(1.071724deg)} 50% {transform: rotate(-21.352401deg)} 63.333333% {transform: rotate(0deg)} 100% {transform: rotate(0deg)} }#ecqcj8n116u522_to {animation: ecqcj8n116u522_to__to 3000ms linear infinite normal forwards}@keyframes ecqcj8n116u522_to__to { 0% {transform: translate(36.967063px,52.555384px)} 6.666667% {transform: translate(36.967063px,52.555384px);animation-timing-function: cubic-bezier(0.420000,0,1,1)} 20% {transform: translate(36.967063px,45.555384px)} 46.666667% {transform: translate(36.967063px,45.555384px);animation-timing-function: cubic-bezier(0,0,0.580000,1)} 63.333333% {transform: translate(36.967063px,52.555384px)} 100% {transform: translate(36.967063px,52.555384px)} }#ecqcj8n116u522_tr {animation: ecqcj8n116u522_tr__tr 3000ms linear infinite normal forwards}@keyframes ecqcj8n116u522_tr__tr { 0% {transform: rotate(0deg)} 10% {transform: rotate(30.269014deg)} 20% {transform: rotate(0deg)} 30% {transform: rotate(30.269014deg)} 40% {transform: rotate(-17.789659deg)} 50% {transform: rotate(30.269014deg)} 63.333333% {transform: rotate(0deg)} 100% {transform: rotate(0deg)} }#ecqcj8n116u542_to {animation: ecqcj8n116u542_to__to 3000ms linear infinite normal forwards}@keyframes ecqcj8n116u542_to__to { 0% {transform: translate(27.499755px,51.478533px)} 6.666667% {transform: translate(27.499755px,51.478533px);animation-timing-function: cubic-bezier(0.420000,0,1,1)} 20% {transform: translate(27.499755px,44.478533px)} 46.666667% {transform: translate(27.499755px,44.478533px);animation-timing-function: cubic-bezier(0,0,0.580000,1)} 63.333333% {transform: translate(27.499755px,51.478533px)} 100% {transform: translate(27.499755px,51.478533px)} }#ecqcj8n116u542_tr {animation: ecqcj8n116u542_tr__tr 3000ms linear infinite normal forwards}@keyframes ecqcj8n116u542_tr__tr { 0% {transform: rotate(0deg)} 6.666667% {transform: rotate(0deg);animation-timing-function: cubic-bezier(0.420000,0,1,1)} 20% {transform: rotate(17.789330deg)} 46.666667% {transform: rotate(17.789330deg);animation-timing-function: cubic-bezier(0,0,0.580000,1)} 63.333333% {transform: rotate(0deg)} 100% {transform: rotate(0deg)} }#ecqcj8n116u5105_to {animation: ecqcj8n116u5105_to__to 3000ms linear infinite normal forwards}@keyframes ecqcj8n116u5105_to__to { 0% {transform: translate(22.220064px,64.194126px)} 6.666667% {transform: translate(22.220064px,64.194126px);animation-timing-function: cubic-bezier(0.420000,0,1,1)} 20% {transform: translate(23.136618px,67.050685px)} 46.666667% {transform: translate(23.136618px,67.050685px)} 60% {transform: translate(22.220064px,64.194126px)} 100% {transform: translate(22.220064px,64.194126px)} }#ecqcj8n116u5105_tr {animation: ecqcj8n116u5105_tr__tr 3000ms linear infinite normal forwards}@keyframes ecqcj8n116u5105_tr__tr { 0% {transform: rotate(0deg)} 6.666667% {transform: rotate(0deg);animation-timing-function: cubic-bezier(0.420000,0,1,1)} 20% {transform: rotate(-28.468817deg)} 33.333333% {transform: rotate(-12.264400deg)} 50% {transform: rotate(-28.468817deg)} 60% {transform: rotate(0deg)} 100% {transform: rotate(0deg)} }#ecqcj8n116u5189_to {animation: ecqcj8n116u5189_to__to 3000ms linear infinite normal forwards}@keyframes ecqcj8n116u5189_to__to { 0% {transform: translate(53.840002px,73.649996px)} 6.666667% {transform: translate(53.840002px,73.649996px);animation-timing-function: cubic-bezier(0.420000,0,1,1)} 20% {transform: translate(53.840002px,65.649996px);animation-timing-function: cubic-bezier(0.420000,0,0.580000,1)} 46.666667% {transform: translate(53.840002px,66.649996px);animation-timing-function: cubic-bezier(0,0,0.580000,1)} 63.333333% {transform: translate(53.840002px,73.649996px)} 100% {transform: translate(53.840002px,73.649996px)} }#ecqcj8n116u5198_to {animation: ecqcj8n116u5198_to__to 3000ms linear infinite normal forwards}@keyframes ecqcj8n116u5198_to__to { 0% {transform: translate(85.293556px,63.305816px)} 6.666667% {transform: translate(85.293556px,63.305816px);animation-timing-function: cubic-bezier(0.420000,0,1,1)} 20% {transform: translate(84.293556px,63.305816px);animation-timing-function: cubic-bezier(0.420000,0,0.580000,1)} 46.666667% {transform: translate(84.293556px,63.305816px);animation-timing-function: cubic-bezier(0,0,0.580000,1)} 63.333333% {transform: translate(85.293556px,63.305816px)} 100% {transform: translate(85.293556px,63.305816px)} }#ecqcj8n116u5198_tr {animation: ecqcj8n116u5198_tr__tr 3000ms linear infinite normal forwards}@keyframes ecqcj8n116u5198_tr__tr { 0% {transform: rotate(0deg)} 6.666667% {transform: rotate(0deg);animation-timing-function: cubic-bezier(0.420000,0,1,1)} 20% {transform: rotate(40.402418deg);animation-timing-function: cubic-bezier(0.420000,0,0.580000,1)} 46.666667% {transform: rotate(40.402418deg);animation-timing-function: cubic-bezier(0,0,0.580000,1)} 63.333333% {transform: rotate(0deg)} 100% {transform: rotate(0deg)} }#ecqcj8n116u5200_to {animation: ecqcj8n116u5200_to__to 3000ms linear infinite normal forwards}@keyframes ecqcj8n116u5200_to__to { 0% {transform: translate(20.580000px,56.611693px)} 6.666667% {transform: translate(20.580000px,56.611693px);animation-timing-function: cubic-bezier(0.420000,0,1,1)} 20% {transform: translate(22.580000px,47.611693px);animation-timing-function: cubic-bezier(0.420000,0,0.580000,1)} 46.666667% {transform: translate(22.580000px,47.611693px);animation-timing-function: cubic-bezier(0,0,0.580000,1)} 63.333333% {transform: translate(20.580000px,56.611693px)} 100% {transform: translate(20.580000px,56.611693px)} }#ecqcj8n116u5200_tr {animation: ecqcj8n116u5200_tr__tr 3000ms linear infinite normal forwards}@keyframes ecqcj8n116u5200_tr__tr { 0% {transform: rotate(0deg)} 6.666667% {transform: rotate(0deg);animation-timing-function: cubic-bezier(0.420000,0,1,1)} 20% {transform: rotate(16deg);animation-timing-function: cubic-bezier(0.420000,0,0.580000,1)} 46.666667% {transform: rotate(16deg);animation-timing-function: cubic-bezier(0,0,0.580000,1)} 63.333333% {transform: rotate(0deg)} 100% {transform: rotate(0deg)} }#ecqcj8n116u5203_to {animation: ecqcj8n116u5203_to__to 3000ms linear infinite normal forwards}@keyframes ecqcj8n116u5203_to__to { 0% {transform: translate(20.634316px,88.010296px)} 30% {transform: translate(30.634316px,88.010296px)} 56.666667% {transform: translate(20.634316px,88.010296px)} 100% {transform: translate(20.634316px,88.010296px)} }#ecqcj8n116u5215_to {animation: ecqcj8n116u5215_to__to 3000ms linear infinite normal forwards}@keyframes ecqcj8n116u5215_to__to { 0% {transform: translate(82.382912px,82.914635px)} 3.333333% {transform: translate(82.382912px,82.914635px)} 33.333333% {transform: translate(76.382912px,82.914635px)} 60% {transform: translate(82.382912px,82.914635px)} 100% {transform: translate(82.382912px,82.914635px)} }]]></style><g id="ecqcj8n116u52"><rect id="ecqcj8n116u53" width="110" height="100" rx="0" ry="0" fill="none" stroke="none" stroke-width="1"/><g id="ecqcj8n116u54"><g id="ecqcj8n116u55_to" transform="translate(15.712288,54.630000)"><g id="ecqcj8n116u55_tr" transform="rotate(0)"><g id="ecqcj8n116u55" transform="translate(-15.712288,-54.630000)"><g id="ecqcj8n116u56"><path id="ecqcj8n116u57" d="M12.930000,57.790000C11.780000,57.710000,0.580000,55.410000,1,57.870000C1.330000,59.510000,4.440000,60.640000,5.860000,61.030000C5.470000,61.810000,3.860000,63.360000,4.740000,64.400000C5.620000,65.440000,7.740000,63.400000,8.450000,62.810000C8.540000,63.890000,8.610000,65.810000,10.170000,65.690000C11.350000,65.560000,12.260000,64.210000,12.630000,63.210000C12.700000,64.070000,13.080000,65.720000,14.200000,65.690000C15.320000,65.660000,16.020000,63.910000,16.200000,63.030000C16.580000,60.960000,14.390000,58.390000,12.530000,57.720000" transform="matrix(1 0 0 1 -0.39000000000000 -3.24000000000000)" fill="rgb(216,234,251)" stroke="none" stroke-width="1"/></g><g id="ecqcj8n116u58"><path id="ecqcj8n116u59" d="M15.070000,61.740000C14.920000,62.670000,14.530000,64.090000,15.890000,64.250000C17.500000,64.460000,17.890000,61.250000,18.010000,60.250000C18.220000,58.580000,18.100000,56.330000,16.380000,55.480000C14.300000,54.480000,12.380000,55.380000,10.430000,56.180000C8.964474,56.728632,7.320273,56.491053,6.070000,55.550000C5.280000,54.890000,5.380000,53.550000,4.630000,52.930000C3.880000,52.310000,2.880000,52.930000,2.540000,53.760000C2.041267,55.787418,2.781671,57.918528,4.430000,59.200000C5.339357,59.792859,6.416956,60.073667,7.500000,60C6.640000,60,2.790000,61.590000,4.240000,62.830000C5.320000,63.690000,7.920000,61.710000,8.710000,61.040000C8.370000,61.840000,6.970000,63.310000,8.310000,63.900000C9.650000,64.490000,11.400000,62.470000,12.080000,61.520000C12.080000,62.520000,11.290000,66.170000,13.500000,64.610000C14.280644,63.909978,14.790357,62.957806,14.940000,61.920000" transform="matrix(1 0 0 1 -0.39000000000000 -3.24000000000000)" fill="rgb(240,242,255)" stroke="none" stroke-width="1"/></g><g id="ecqcj8n116u510"><path id="ecqcj8n116u511" d="M14.700000,58.460000C14.450000,58.580000,13.260000,59.400000,13.450000,59.910000C13.640000,60.420000,14.200000,59.980000,14.450000,59.270000C14.540000,59.570000,14.610000,60.990000,15.160000,60.270000C15.440000,59.850000,14.880000,58.870000,14.650000,58.500000" transform="matrix(1 0 0 1 -0.39000000000000 -3.24000000000000)" fill="rgb(234,228,220)" stroke="none" stroke-width="1"/></g><g id="ecqcj8n116u512"><path id="ecqcj8n116u513" d="M11.940000,57.690000C11.670000,57.620000,10.240000,57.490000,10.060000,58.010000C9.880000,58.530000,10.590000,58.540000,11.270000,58.170000C11.150000,58.470000,10.270000,59.600000,11.200000,59.380000C11.690000,59.240000,11.880000,58.120000,11.940000,57.690000" transform="matrix(1 0 0 1 -0.39000000000000 -3.24000000000000)" fill="rgb(234,228,220)" stroke="none" stroke-width="1"/></g><g id="ecqcj8n116u514"><path id="ecqcj8n116u515" d="M7.500000,57.670000C7.170000,57.670000,5.600000,57.740000,5.870000,58.280000C6.210000,59.050000,7.300000,57.950000,7.500000,57.670000" transform="matrix(1 0 0 1 -0.39000000000000 -3.24000000000000)" fill="rgb(216,234,251)" stroke="none" stroke-width="1"/></g><g id="ecqcj8n116u516"><path id="ecqcj8n116u517" d="M2.920000,61.330000C2.600000,61.260000,1.040000,61.120000,1.220000,61.700000C1.440000,62.510000,2.680000,61.580000,2.920000,61.330000" transform="matrix(1 0 0 1 -0.39000000000000 -3.24000000000000)" fill="rgb(216,234,251)" stroke="none" stroke-width="1"/></g><g id="ecqcj8n116u518"><path id="ecqcj8n116u519" d="M7.750000,65C7.470000,65.180000,6.290000,66.220000,6.830000,66.480000C7.570000,66.880000,7.760000,65.340000,7.750000,65" transform="matrix(1 0 0 1 -0.39000000000000 -3.24000000000000)" fill="rgb(216,234,251)" stroke="none" stroke-width="1"/></g><g id="ecqcj8n116u520"><path id="ecqcj8n116u521" d="M12.460000,66C12.250000,66.260000,11.460000,67.610000,12.050000,67.690000C12.870000,67.850000,12.580000,66.330000,12.460000,66" transform="matrix(1 0 0 1 -0.39000000000000 -3.24000000000000)" fill="rgb(216,234,251)" stroke="none" stroke-width="1"/></g></g></g></g><g id="ecqcj8n116u522_to" transform="translate(36.967063,52.555384)"><g id="ecqcj8n116u522_tr" transform="rotate(0)"><g id="ecqcj8n116u522" transform="translate(-36.967063,-52.555384)"><g id="ecqcj8n116u523"><path id="ecqcj8n116u524" d="M38.340000,52.690000C39.060000,51.900000,45.020000,43.170000,46.340000,45.100000C47.180000,46.400000,45.840000,49.100000,45.130000,50.320000C45.900000,50.600000,47.970000,50.580000,48.050000,51.850000C48.130000,53.120000,45.460000,53.120000,44.560000,53.170000C45.190000,53.950000,46.380000,55.270000,45.270000,56.170000C44.390000,56.850000,42.930000,56.540000,42.040000,56.110000C42.540000,56.730000,43.350000,58.110000,42.590000,58.760000C41.830000,59.410000,40.230000,58.760000,39.590000,58.250000C38.020000,57.130000,37.820000,54,38.590000,52.370000" transform="matrix(1 0 0 1 -0.39000000000000 -3.24000000000000)" fill="rgb(216,234,251)" stroke="none" stroke-width="1"/></g><g id="ecqcj8n116u525"><path id="ecqcj8n116u526" d="M39.450000,56.690000C40.150000,57.220000,41.320000,57.920000,40.520000,58.890000C39.580000,60.060000,37.280000,58.210000,36.520000,57.590000C35.310000,56.590000,33.950000,55.040000,34.520000,53.370000C35.280000,51.370000,37.100000,50.750000,38.930000,50.010000C40.260691,49.436035,41.199144,48.213776,41.410000,46.780000C41.520000,45.780000,40.570000,45,40.690000,44.110000C40.810000,43.220000,41.890000,43.010000,42.620000,43.320000C44.258162,44.348350,45.136248,46.245642,44.860000,48.160000C44.627612,49.130794,44.083091,49.998514,43.310000,50.630000C43.890000,50.100000,47.460000,48.630000,47.310000,50.420000C47.150000,51.690000,44.150000,52.040000,43.190000,52.110000C43.930000,52.420000,45.810000,52.500000,45.290000,53.750000C44.770000,55,42.290000,54.750000,41.290000,54.590000C41.900000,55.230000,44.800000,57.180000,42.290000,57.590000C41.322901,57.618905,40.375723,57.311426,39.610000,56.720000" transform="matrix(1 0 0 1 -0.39000000000000 -3.24000000000000)" fill="rgb(240,242,255)" stroke="none" stroke-width="1"/></g><g id="ecqcj8n116u527"><path id="ecqcj8n116u528" d="M37.590000,54.280000C37.840000,54.190000,39.150000,53.970000,39.350000,54.440000C39.550000,54.910000,38.900000,54.970000,38.240000,54.680000C38.380000,54.940000,39.240000,55.930000,38.400000,55.780000C37.940000,55.690000,37.680000,54.670000,37.590000,54.270000" transform="matrix(1 0 0 1 -0.39000000000000 -3.24000000000000)" fill="rgb(234,228,220)" stroke="none" stroke-width="1"/></g><g id="ecqcj8n116u529"><path id="ecqcj8n116u530" d="M38.930000,52C39.060000,51.780000,39.930000,50.770000,40.390000,51C40.850000,51.230000,40.390000,51.680000,39.690000,51.880000C39.950000,52,41.250000,52.210000,40.510000,52.640000C40.090000,52.850000,39.240000,52.230000,38.930000,51.990000" transform="matrix(1 0 0 1 -0.39000000000000 -3.24000000000000)" fill="rgb(234,228,220)" stroke="none" stroke-width="1"/></g><g id="ecqcj8n116u531"><path id="ecqcj8n116u532" d="M41.880000,49.110000C42.080000,48.890000,43.180000,47.940000,43.360000,48.470000C43.620000,49.200000,42.190000,49.170000,41.880000,49.110000" transform="matrix(1 0 0 1 -0.39000000000000 -3.24000000000000)" fill="rgb(216,234,251)" stroke="none" stroke-width="1"/></g><g id="ecqcj8n116u533"><path id="ecqcj8n116u534" d="M47.270000,48.610000C47.430000,48.360000,48.390000,47.260000,48.630000,47.770000C49,48.440000,47.630000,48.620000,47.270000,48.610000" transform="matrix(1 0 0 1 -0.39000000000000 -3.24000000000000)" fill="rgb(216,234,251)" stroke="none" stroke-width="1"/></g><g id="ecqcj8n116u535"><path id="ecqcj8n116u536" d="M46.430000,54.160000C46.720000,54.100000,48.180000,54.030000,47.990000,54.560000C47.760000,55.300000,46.640000,54.400000,46.430000,54.160000" transform="matrix(1 0 0 1 -0.39000000000000 -3.24000000000000)" fill="rgb(221,215,206)" stroke="none" stroke-width="1"/></g><g id="ecqcj8n116u537"><path id="ecqcj8n116u538" d="M44,57.870000C44.300000,57.870000,45.700000,58.290000,45.360000,58.730000C44.910000,59.360000,44.120000,58.160000,44,57.870000" transform="matrix(1 0 0 1 -0.39000000000000 -3.24000000000000)" fill="rgb(221,215,206)" stroke="none" stroke-width="1"/></g></g></g></g></g><g id="ecqcj8n116u539"><g id="ecqcj8n116u540"><path id="ecqcj8n116u541" d="M77.480000,89.420000L77.480000,89.420000C76.674296,88.925100,76.131582,88.096361,76,87.160000C75.852886,86.122083,76.060797,85.064908,76.590000,84.160000L77.120000,83.260000C77.512158,82.553511,78.137943,82.005507,78.890000,81.710000C79.546214,81.462946,80.277978,81.517828,80.890000,81.860000L82.350000,82.700000C82.963359,83.072412,83.377906,83.699735,83.480000,84.410000C83.598893,85.202394,83.439895,86.011516,83.030000,86.700000L83.030000,86.700000L82.520000,87.590000C81.390000,89.530000,79.120000,90.360000,77.480000,89.420000Z" transform="matrix(1 0 0 1 -0.39000000000000 -3.24000000000000)" fill="rgb(253,91,115)" stroke="none" stroke-width="1"/></g></g><g id="ecqcj8n116u542_to" transform="translate(27.499755,51.478533)"><g id="ecqcj8n116u542_tr" transform="rotate(0)"><g id="ecqcj8n116u542" transform="translate(-27.499755,-51.478533)"><g id="ecqcj8n116u543"><g id="ecqcj8n116u544"><g id="ecqcj8n116u545"><g id="ecqcj8n116u546"><g id="ecqcj8n116u547"><g id="ecqcj8n116u548"><path id="ecqcj8n116u549" d="M19.640000,55L19.310000,62.520000C19.310000,62.520000,19.550000,74.900000,26.310000,74.520000C28.530000,74.370000,30.540000,73.130000,33.080000,72.590000C37.140000,71.730000,38.470000,72.960000,41.390000,71.310000C44.310000,69.660000,43.390000,63.310000,42.190000,58.360000C41.900000,56.760000,38.340000,51,38.340000,51Z" transform="matrix(1 0 0 1 -0.39000000000000 -3.24000000000000)" fill="rgb(163,216,242)" stroke="none" stroke-width="1"/></g></g><g id="ecqcj8n116u550"><g id="ecqcj8n116u551"><path id="ecqcj8n116u552" d="M33.340000,67.810000C33.182282,69.417378,33.436969,71.038429,34.080000,72.520000C34.868257,73.804815,36.050190,74.800865,37.450000,75.360000C38.380000,76.050000,39.450000,77.170000,38.980000,78.510000C38.510000,79.850000,36.790000,80.240000,34.840000,78.750000C32.890000,77.260000,31,72.100000,32.460000,67.350000C33.920000,62.600000,33.340000,67.810000,33.340000,67.810000Z" transform="matrix(1 0 0 1 -0.39000000000000 -3.24000000000000)" fill="rgb(163,216,242)" stroke="none" stroke-width="1"/></g><g id="ecqcj8n116u553" clip-path="url(#ecqcj8n116u559)"><g id="ecqcj8n116u554"><g id="ecqcj8n116u555"><g id="ecqcj8n116u556"><g id="ecqcj8n116u557"><path id="ecqcj8n116u558" d="M33.340000,67.810000C33.182282,69.417378,33.436969,71.038429,34.080000,72.520000C34.868257,73.804815,36.050190,74.800865,37.450000,75.360000C38.380000,76.050000,39.450000,77.170000,38.980000,78.510000C38.510000,79.850000,36.790000,80.240000,34.840000,78.750000C32.890000,77.260000,31,72.100000,32.460000,67.350000C33.920000,62.600000,33.340000,67.810000,33.340000,67.810000Z" transform="matrix(1 0 0 1 -0.39000000000000 -3.24000000000000)" fill="rgb(1,159,222)" stroke="none" stroke-width="1"/></g></g></g></g><clipPath id="ecqcj8n116u559" transform="matrix(1 0 0 1 -0.39000000000000 -3.24000000000000)"><path id="ecqcj8n116u560" d="M38.400000,74.550000C38.131890,76.464805,36.821604,78.071832,35,78.720000C32,79.650000,39.420000,80.910000,39.420000,80.910000L41.420000,77.700000Z" fill="none" stroke="none" stroke-width="1"/></clipPath></g></g></g><g id="ecqcj8n116u561"><g id="ecqcj8n116u562"><g id="ecqcj8n116u563"><path id="ecqcj8n116u564" d="M13.510000,50.350000C13.510000,50.350000,6.940000,43.180000,10,40.080000C13.060000,36.980000,19.250000,40.130000,19.660000,40.330000C19.660000,40.330000,24.600000,36.330000,30.430000,36.980000C30.760000,37.080000,34.580000,31.430000,38.590000,31.980000C42.600000,32.530000,40.800000,42.360000,40.800000,42.360000C40.800000,42.360000,42.720000,48.070000,45.190000,48.850000C45.420000,49.110000,43.660000,50.520000,42.940000,50.450000C43.641296,50.558338,44.353085,50.581841,45.060000,50.520000C45.766915,50.458159,38.840000,58.310000,30.640000,60C22.440000,61.690000,16.900000,59.770000,15.910000,59.350000C16.417589,59.013558,16.898965,58.639154,17.350000,58.230000C17.490000,58.120000,14.450000,58.430000,12.940000,57.350000C12.450000,57.030000,15.490000,54.070000,14.530000,51.750000C14,50.490000,13.510000,50.350000,13.510000,50.350000Z" transform="matrix(1 0 0 1 -0.39000000000000 -3.24000000000000)" fill="rgb(163,216,242)" stroke="none" stroke-width="1"/></g></g><g id="ecqcj8n116u565" opacity="0.7"><g id="ecqcj8n116u566"><path id="ecqcj8n116u567" d="M14.780000,47.230000C14.780000,47.230000,15.700000,43.710000,17.370000,42.630000C17.370000,42.480000,12.770000,40.840000,11.920000,42.190000C11.070000,43.540000,14.780000,47.230000,14.780000,47.230000Z" transform="matrix(1 0 0 1 -0.39000000000000 -3.24000000000000)" fill="rgb(255,255,255)" stroke="none" stroke-width="1"/></g></g><g id="ecqcj8n116u568" opacity="0.7"><g id="ecqcj8n116u569"><path id="ecqcj8n116u570" d="M33.260000,38.340000C33.260000,38.340000,36.890000,38.620000,38.260000,40.120000C38.380000,40.120000,39.200000,35.270000,37.730000,34.680000C36.260000,34.090000,33.260000,38.340000,33.260000,38.340000Z" transform="matrix(1 0 0 1 -0.39000000000000 -3.24000000000000)" fill="rgb(255,255,255)" stroke="none" stroke-width="1"/></g></g><g id="ecqcj8n116u571"><g id="ecqcj8n116u572"><g id="ecqcj8n116u573"><path id="ecqcj8n116u574" d="M29.340000,50.310000L28.880000,50.400000C28.640512,50.399637,28.402004,50.369404,28.170000,50.310000C27.495883,50.935832,26.489652,51.041751,25.700000,50.570000C25.408660,50.403799,25.302319,50.036039,25.460000,49.740000C25.602089,49.469146,25.925176,49.348527,26.210000,49.460000L26.300000,49.460000L26.300000,49.460000C26.696199,49.690327,27.202533,49.582136,27.470000,49.210000C27.602101,49.058112,27.799718,48.979811,28,49C28.088784,49.011886,28.174013,49.042568,28.250000,49.090000C28.360000,49.090000,29.150000,49.380000,29.440000,48.910000C29.580037,48.613909,29.931653,48.484834,30.230000,48.620000C30.515388,48.759450,30.639154,49.099807,30.510000,49.390000L30.510000,49.390000L30.510000,49.390000C30.269474,49.840738,29.833716,50.154632,29.330000,50.240000Z" transform="matrix(1 0 0 1 -0.39000000000000 -3.24000000000000)" fill="rgb(76,84,90)" stroke="none" stroke-width="1"/></g></g></g><g id="ecqcj8n116u575"><g id="ecqcj8n116u576"><circle id="ecqcj8n116u577" r="1.150000" transform="matrix(1 0 0 1 19.43000000000000 45.01000000000000)" fill="rgb(76,84,90)" stroke="none" stroke-width="1"/></g></g><g id="ecqcj8n116u578"><g id="ecqcj8n116u579"><circle id="ecqcj8n116u580" r="1.150000" transform="matrix(1 0 0 1 33.99000000000000 41.91000000000000)" fill="rgb(76,84,90)" stroke="none" stroke-width="1"/></g></g><g id="ecqcj8n116u581"><g id="ecqcj8n116u582"><g id="ecqcj8n116u583"><path id="ecqcj8n116u584" d="M12.660000,57.140000C12.541085,57.167341,12.416971,57.124677,12.340000,57.030000C12.243567,56.889800,12.269549,56.699261,12.400000,56.590000C13.388202,55.852559,14.569458,55.418274,15.800000,55.340000C15.954542,55.343855,16.082623,55.460980,16.100248,55.614562C16.117872,55.768143,16.019651,55.911237,15.870000,55.950000L15.870000,55.950000C14.756568,56.025180,13.687869,56.417268,12.790000,57.080000C12.763000,57.109040,12.728329,57.129842,12.690000,57.140000Z" transform="matrix(1 0 0 1 -0.39000000000000 -3.24000000000000)" fill="rgb(112,112,112)" stroke="none" stroke-width="1"/></g></g><g id="ecqcj8n116u585"><g id="ecqcj8n116u586"><path id="ecqcj8n116u587" d="M46.380000,49.910000C46.340645,49.920161,46.299355,49.920161,46.260000,49.910000C45.168249,49.687669,44.035362,49.788447,43,50.200000C42.847992,50.272426,42.665965,50.210271,42.590000,50.060000C42.518142,49.902474,42.584610,49.716366,42.740000,49.640000L42.740000,49.640000C43.886550,49.197487,45.136021,49.093365,46.340000,49.340000C46.498043,49.365661,46.608081,49.510911,46.590000,49.670000C46.577256,49.804252,46.473650,49.912003,46.340000,49.930000Z" transform="matrix(1 0 0 1 -0.39000000000000 -3.24000000000000)" fill="rgb(112,112,112)" stroke="none" stroke-width="1"/></g></g><g id="ecqcj8n116u588"><g id="ecqcj8n116u589"><path id="ecqcj8n116u590" d="M13.750000,59.310000C13.582427,59.341328,13.419716,59.235785,13.380000,59.070000C13.351934,58.970859,13.378581,58.864270,13.450000,58.790000C14.262755,57.861004,15.324649,57.184307,16.510000,56.840000C16.672703,56.785955,16.849092,56.869740,16.910000,57.030000C16.964045,57.192703,16.880260,57.369092,16.720000,57.430000L16.720000,57.430000C15.642969,57.737188,14.675395,58.344089,13.930000,59.180000C13.892450,59.248062,13.826417,59.295753,13.750000,59.310000Z" transform="matrix(1 0 0 1 -0.39000000000000 -3.24000000000000)" fill="rgb(112,112,112)" stroke="none" stroke-width="1"/></g></g><g id="ecqcj8n116u591"><g id="ecqcj8n116u592"><path id="ecqcj8n116u593" d="M46.300000,52.380000C46.239135,52.405005,46.170865,52.405005,46.110000,52.380000C45.089306,51.919368,43.958299,51.759779,42.850000,51.920000C42.676535,51.937603,42.520904,51.813098,42.500000,51.640000C42.476060,51.477302,42.587564,51.325656,42.750000,51.300000L42.750000,51.300000C43.970397,51.136762,45.212050,51.324050,46.330000,51.840000C46.484074,51.912316,46.551031,52.095329,46.480000,52.250000C46.436401,52.337228,46.355406,52.399815,46.260000,52.420000Z" transform="matrix(1 0 0 1 -0.39000000000000 -3.24000000000000)" fill="rgb(112,112,112)" stroke="none" stroke-width="1"/></g></g></g></g></g><g id="ecqcj8n116u594"><g id="ecqcj8n116u595"><g id="ecqcj8n116u596"><path id="ecqcj8n116u597" d="M25.250000,38.850000C24.998906,38.900281,24.748582,38.760270,24.660000,38.520000C24.490000,38.020000,23.810000,36.520000,22.980000,36.280000C22.708174,36.197994,22.552378,35.913110,22.630000,35.640000L22.630000,35.640000C22.716226,35.372192,22.999816,35.221535,23.270000,35.300000C24.750000,35.750000,25.550000,37.970000,25.620000,38.170000C25.667996,38.298547,25.662167,38.441012,25.603832,38.565209C25.545497,38.689407,25.439577,38.784858,25.310000,38.830000Z" transform="matrix(1 0 0 1 -0.39000000000000 -3.24000000000000)" fill="rgb(128,75,51)" stroke="none" stroke-width="1"/></g></g><g id="ecqcj8n116u598"><path id="ecqcj8n116u599" d="M19.770000,35.420000C19.390000,36.300000,21.770000,37.500000,23.190000,36.660000C24.610000,35.820000,22.710000,34.420000,22.030000,34.290000C21.109562,34.142602,20.197252,34.596748,19.760000,35.420000Z" transform="matrix(1 0 0 1 -0.39000000000000 -3.24000000000000)" fill="rgb(108,206,157)" stroke="none" stroke-width="1"/></g><g id="ecqcj8n116u5100"><g id="ecqcj8n116u5101"><path id="ecqcj8n116u5102" d="M26.920000,33.650000C27.670000,34.220000,26.310000,36.470000,24.630000,36.490000C22.950000,36.510000,23.840000,34.340000,24.390000,33.860000C25.103981,33.263920,26.113848,33.176105,26.920000,33.640000Z" transform="matrix(1 0 0 1 -0.39000000000000 -3.24000000000000)" fill="rgb(108,206,157)" stroke="none" stroke-width="1"/></g></g></g><g id="ecqcj8n116u5103"><path id="ecqcj8n116u5104" d="M30.160000,58.270000C33.750000,57.500000,37.450000,60.540000,38.410000,65.050000C39.370000,69.560000,36.570000,70.740000,33,71.510000C29.430000,72.280000,26.360000,72.330000,25.400000,67.820000C24.440000,63.310000,26.560000,59,30.160000,58.270000Z" transform="matrix(1 0 0 1 -0.39000000000000 -3.24000000000000)" fill="rgb(255,255,255)" stroke="none" stroke-width="1"/></g><g id="ecqcj8n116u5105_to" transform="translate(22.220064,64.194126)"><g id="ecqcj8n116u5105_tr" transform="rotate(0)"><g id="ecqcj8n116u5105" transform="translate(-22.220064,-64.194126)"><g id="ecqcj8n116u5106"><path id="ecqcj8n116u5107" d="M24,67.220000C23.090958,68.550014,22.530483,70.087022,22.370000,71.690000C22.435878,73.196596,22.986536,74.641635,23.940000,75.810000C24.430000,76.810000,24.800000,78.360000,23.750000,79.310000C22.700000,80.260000,21,79.760000,20,77.510000C19,75.260000,19.860000,69.830000,23.440000,66.380000C27.020000,62.930000,24,67.220000,24,67.220000Z" transform="matrix(1 0 0 1 -0.39000000000000 -3.24000000000000)" fill="rgb(163,216,242)" stroke="none" stroke-width="1"/></g><g id="ecqcj8n116u5108" clip-path="url(#ecqcj8n116u5114)"><g id="ecqcj8n116u5109"><g id="ecqcj8n116u5110"><g id="ecqcj8n116u5111"><g id="ecqcj8n116u5112"><path id="ecqcj8n116u5113" d="M24,67.220000C23.090958,68.550014,22.530483,70.087022,22.370000,71.690000C22.435878,73.196596,22.986536,74.641635,23.940000,75.810000C24.430000,76.810000,24.800000,78.360000,23.750000,79.310000C22.700000,80.260000,21,79.760000,20,77.510000C19,75.260000,19.860000,69.830000,23.440000,66.380000C27.020000,62.930000,24,67.220000,24,67.220000Z" transform="matrix(1 0 0 1 -0.39000000000000 -3.24000000000000)" fill="rgb(1,159,222)" stroke="none" stroke-width="1"/></g></g></g></g><clipPath id="ecqcj8n116u5114" transform="matrix(1 0 0 1 -0.39000000000000 -3.24000000000000)"><path id="ecqcj8n116u5115" d="M25.150000,75.560000C23.989512,77.110576,22.059716,77.882494,20.150000,77.560000C17.040000,76.900000,22.940000,81.560000,22.940000,81.560000L26.230000,79.720000Z" fill="none" stroke="none" stroke-width="1"/></clipPath></g></g></g></g></g><g id="ecqcj8n116u5116" transform="matrix(0.99971180638645 -0.02400633607064 0.02400633607064 0.99971180638645 -0.71082014031876 0.55755571997895)"><ellipse id="ecqcj8n116u5117" rx="8.700000" ry="2.610000" transform="matrix(0.99000000000000 -0.10000000000000 0.10000000000000 0.99000000000000 22.60560000000000 29.88420000000000)" fill="none" stroke="none" stroke-width="1"/><path id="ecqcj8n116u5118" d="M20.160000,36C17.680000,36,14.740000,35.670000,14.580000,34.140000C14.320000,31.620000,22.080000,30.730000,22.970000,30.640000C24.913791,30.419926,26.876209,30.419926,28.820000,30.640000C30.820000,30.890000,31.820000,31.460000,31.890000,32.360000C32.160000,34.880000,24.400000,35.770000,23.510000,35.860000C22.396369,35.962538,21.278303,36.009263,20.160000,36ZM16.030000,34C16.610000,34.420000,19.290000,34.870000,23.360000,34.450000C27.430000,34.030000,29.970000,33.020000,30.440000,32.450000C29.870000,32.030000,27.190000,31.570000,23.110000,32L23.110000,32C19,32.410000,16.510000,33.410000,16,33.940000Z" transform="matrix(1 0 0 1 -0.39000000000000 -3.24000000000000)" fill="rgb(255,208,101)" stroke="none" stroke-width="1"/></g></g></g></g></g><g id="ecqcj8n116u5119"><g id="ecqcj8n116u5120"><g id="ecqcj8n116u5121"><g id="ecqcj8n116u5122"><g id="ecqcj8n116u5123"><path id="ecqcj8n116u5124" d="M57.320000,15.820000C52.810000,22.040000,49.140000,33.410000,49.320000,42.240000C49.570000,51.880000,43.990000,53.650000,44.180000,60.120000C45,65.900000,49.090000,70.660000,56.840000,72.470000C64.590000,74.280000,76.350000,75.130000,85.330000,79C94.310000,82.870000,103.180000,77.880000,104.810000,72.780000C106.440000,67.680000,103.680000,67.310000,104.170000,59.310000C104.420000,55.440000,107.310000,44.580000,108.450000,39.840000C109.407450,36.028720,109.352295,32.033397,108.290000,28.250000C107.060000,23.340000,104,13.750000,94,8.820000C81.690000,2,65.750000,4.210000,57.320000,15.820000Z" transform="matrix(1 0 0 1 -0.39000000000000 -3.24000000000000)" fill="rgb(76,84,90)" stroke="none" stroke-width="1"/></g></g></g><g id="ecqcj8n116u5125" clip-path="url(#ecqcj8n116u5135)"><g id="ecqcj8n116u5126"><g id="ecqcj8n116u5127"><g id="ecqcj8n116u5128"><g id="ecqcj8n116u5129"><g id="ecqcj8n116u5130" opacity="0.2"><g id="ecqcj8n116u5131"><g id="ecqcj8n116u5132"><g id="ecqcj8n116u5133"><path id="ecqcj8n116u5134" d="M59.790000,35.150000C59.790000,35.150000,57.950000,49.150000,53.790000,55.700000C49.630000,62.250000,47.640000,67.880000,58.560000,74.610000C69.480000,81.340000,87.910000,82.440000,90.560000,81.790000C93.210000,81.140000,101.790000,75.500000,97.560000,67.060000C93.330000,58.620000,98.560000,43.810000,98.560000,43.810000Z" transform="matrix(1 0 0 1 -0.39000000000000 -3.24000000000000)" fill="rgb(0,0,0)" stroke="none" stroke-width="1"/></g></g></g></g></g></g></g></g><clipPath id="ecqcj8n116u5135" transform="matrix(1 0 0 1 -0.39000000000000 -3.24000000000000)"><path id="ecqcj8n116u5136" d="M57.320000,15.820000C52.810000,22.040000,49.140000,33.410000,49.320000,42.250000C49.570000,51.880000,43.990000,53.650000,44.180000,60.120000C45,65.900000,49.090000,70.670000,56.840000,72.470000C64.590000,74.270000,76.350000,75.130000,85.330000,79C94.310000,82.870000,103.180000,77.880000,104.810000,72.780000C106.440000,67.680000,103.680000,67.310000,104.170000,59.310000C104.600000,52.790000,107.890000,41.590000,108.980000,36.780000C110.070000,31.970000,107.450000,15.150000,94.270000,8.650000C82,1.880000,65.750000,4.210000,57.320000,15.820000Z" fill="none" stroke="none" stroke-width="1"/></clipPath></g><g id="ecqcj8n116u5137"><g id="ecqcj8n116u5138"><g id="ecqcj8n116u5139"><path id="ecqcj8n116u5140" d="M67.740000,55.480000L85.160000,58.550000C86.742787,58.762850,87.881363,60.178377,87.750000,61.770000C88.161077,64.015125,88.298746,66.301772,88.160000,68.580000C87.970000,72.680000,85.660000,78.740000,85.660000,78.740000C85.250000,80.290000,84.990000,80.740000,61.900000,76.510000C60.300993,76.331679,59.142330,74.901175,59.300000,73.300000L64.170000,57.610000C64.356728,56.855309,64.835740,56.205770,65.501567,55.804398C66.167394,55.403027,66.965443,55.282732,67.720000,55.470000L67.720000,55.470000Z" transform="matrix(1 0 0 1 -0.39000000000000 -3.24000000000000)" fill="rgb(210,202,235)" stroke="none" stroke-width="1"/></g></g></g><g id="ecqcj8n116u5141"><g id="ecqcj8n116u5142"><ellipse id="ecqcj8n116u5143" rx="3.110000" ry="6.750000" transform="matrix(0.17399200000000 -0.98474700000000 0.98474700000000 0.17399200000000 75.29575625999996 57.86525823999995)" fill="rgb(255,255,255)" stroke="none" stroke-width="1"/></g></g><g id="ecqcj8n116u5144"><g id="ecqcj8n116u5145"><path id="ecqcj8n116u5146" d="M80.060000,63.280000C80.060000,63.280000,79.370000,65.280000,78.580000,65.690000C77.790000,66.100000,80.440000,67.060000,81.280000,66.980000C82.120000,66.900000,81.680000,63.250000,81.680000,63.250000Z" transform="matrix(1 0 0 1 -0.39000000000000 -3.24000000000000)" fill="rgb(255,255,255)" stroke="none" stroke-width="1"/></g></g><g id="ecqcj8n116u5147"><g id="ecqcj8n116u5148"><g id="ecqcj8n116u5149"><g id="ecqcj8n116u5150"><path id="ecqcj8n116u5151" d="M82.910000,17.360000C96.138976,19.773544,104.935841,32.417083,102.600000,45.660000C100.250000,59,88.140000,65.050000,74.900000,62.710000C61.660000,60.370000,52.290000,50.520000,54.640000,37.200000C56.982443,23.938606,69.611028,15.070871,82.880000,17.370000Z" transform="matrix(1 0 0 1 -0.39000000000000 -3.24000000000000)" fill="rgb(253,223,188)" stroke="none" stroke-width="1"/></g></g></g><g id="ecqcj8n116u5152" opacity="0.6"><g id="ecqcj8n116u5153"><g id="ecqcj8n116u5154"><path id="ecqcj8n116u5155" d="M74.800000,62.700000C71.883190,62.214960,69.053153,61.305306,66.400000,60C67.534299,60.330347,68.686073,60.597425,69.850000,60.800000C75.973266,62.043634,82.338535,61.113598,87.850000,58.170000C90.340305,56.742225,92.484672,54.782246,94.130000,52.430000C95.898232,49.856071,97.085661,46.928445,97.610000,43.850000C99.506472,33.334986,94.355547,22.806365,84.890000,17.850000C97.106173,21.138891,104.790503,33.209928,102.600000,45.670000C102.081315,48.751477,100.897161,51.682856,99.130000,54.260000C97.474241,56.610328,95.323873,58.569552,92.830000,60C87.321556,62.983426,80.940747,63.938955,74.800000,62.700000Z" transform="matrix(1 0 0 1 -0.39000000000000 -3.24000000000000)" fill="rgb(255,213,163)" stroke="none" stroke-width="1"/></g></g></g><g id="ecqcj8n116u5156"><g id="ecqcj8n116u5157"><g id="ecqcj8n116u5158"><path id="ecqcj8n116u5159" d="M66,40L66,40C67.120798,40.207978,67.868214,41.275714,67.680000,42.400000L67.320000,44.400000C67.116937,45.523953,66.045568,46.273911,64.920000,46.080000L64.920000,46.080000C64.376930,45.987237,63.893243,45.681809,63.576044,45.231348C63.258844,44.780887,63.134304,44.222561,63.230000,43.680000L63.590000,41.680000C63.792931,40.551440,64.870921,39.799978,66,40Z" transform="matrix(1 0 0 1 -0.39000000000000 -3.24000000000000)" fill="rgb(76,84,90)" stroke="none" stroke-width="1"/></g></g></g><g id="ecqcj8n116u5160"><g id="ecqcj8n116u5161"><g id="ecqcj8n116u5162"><path id="ecqcj8n116u5163" d="M87.420000,43L87.420000,43C88.540798,43.207978,89.288214,44.275714,89.100000,45.400000L88.740000,47.400000C88.532022,48.520798,87.464286,49.268214,86.340000,49.080000L86.340000,49.080000C85.796930,48.987237,85.313243,48.681809,84.996044,48.231348C84.678844,47.780887,84.554304,47.222561,84.650000,46.680000L85.010000,44.680000C85.212931,43.551440,86.290921,42.799978,87.420000,43Z" transform="matrix(1 0 0 1 -0.39000000000000 -3.24000000000000)" fill="rgb(76,84,90)" stroke="none" stroke-width="1"/></g></g></g><g id="ecqcj8n116u5164"><g id="ecqcj8n116u5165"><g id="ecqcj8n116u5166"><path id="ecqcj8n116u5167" d="M75.070000,52.090000C74.204625,51.901541,73.389670,51.529866,72.680000,51C72.257866,50.698777,72.159423,50.112594,72.460000,49.690000C72.604349,49.489506,72.822541,49.354685,73.066431,49.315288C73.310321,49.275890,73.559865,49.335153,73.760000,49.480000C74.248577,49.841304,74.807134,50.096742,75.400000,50.230000C75.937386,50.285204,76.480368,50.237693,77,50.090000C77.469407,49.914317,77.992504,50.151275,78.170000,50.620000L78.170000,50.620000L78.170000,50.620000C78.338793,51.091985,78.098679,51.612232,77.630000,51.790000L77.570000,51.790000C76.768615,52.071544,75.915244,52.173948,75.070000,52.090000Z" transform="matrix(1 0 0 1 -0.39000000000000 -3.24000000000000)" fill="rgb(76,84,90)" stroke="none" stroke-width="1"/></g></g></g><g id="ecqcj8n116u5168"><g id="ecqcj8n116u5169"><g id="ecqcj8n116u5170"><path id="ecqcj8n116u5171" d="M55.720000,33C55.720000,33,66,31.930000,71.220000,27.570000C76.440000,23.210000,78.580000,26.350000,80.460000,27.910000C82.340000,29.470000,86.580000,34.910000,92.550000,38.990000C95.821918,41.356478,99.579364,42.965348,103.550000,43.700000C107.550000,44.430000,106.270000,30.140000,99.210000,23.700000C92.150000,17.260000,76.310000,10.060000,66.080000,17.860000C55.850000,25.660000,55.720000,33,55.720000,33Z" transform="matrix(1 0 0 1 -0.39000000000000 -3.24000000000000)" fill="rgb(76,84,90)" stroke="none" stroke-width="1"/></g></g></g></g><g id="ecqcj8n116u5172"><g id="ecqcj8n116u5173"><g id="ecqcj8n116u5174"><g id="ecqcj8n116u5175"><path id="ecqcj8n116u5176" d="M54.060000,37.520000C53.331501,37.135989,52.435606,37.292154,51.880000,37.900000C50.880000,38.980000,50.650000,42.410000,52.390000,44.650000C54.130000,46.890000,56.100000,46.360000,56.100000,46.360000C56.100000,46.360000,55.470000,38.590000,54.960000,38.290000C54.616271,38.089355,54.311421,37.828538,54.060000,37.520000Z" transform="matrix(1 0 0 1 -0.39000000000000 -3.24000000000000)" fill="rgb(253,223,188)" stroke="none" stroke-width="1"/></g></g></g><g id="ecqcj8n116u5177"><g id="ecqcj8n116u5178"><g id="ecqcj8n116u5179"><path id="ecqcj8n116u5180" d="M102.920000,46.800000C103.736654,46.666829,104.535795,47.120508,104.840000,47.890000C105.380000,49.250000,104.460000,52.560000,102.050000,54.070000C99.640000,55.580000,98,54.400000,98,54.400000C98,54.400000,101.260000,47.330000,101.840000,47.220000C102.220420,47.139579,102.585197,46.997721,102.920000,46.800000Z" transform="matrix(1 0 0 1 -0.39000000000000 -3.24000000000000)" fill="rgb(254,217,173)" stroke="none" stroke-width="1"/></g></g></g><g id="ecqcj8n116u5181"><g id="ecqcj8n116u5182"><g id="ecqcj8n116u5183"><path id="ecqcj8n116u5184" d="M55.870000,31.750000C55.870000,31.750000,52.090000,43,55.230000,52.330000C58.370000,61.660000,62.050000,62,62.050000,62C62.050000,62,51.670000,51.400000,58.600000,37.400000C65.530000,23.400000,57.130000,30.090000,57.130000,30.090000Z" transform="matrix(1 0 0 1 -0.39000000000000 -3.24000000000000)" fill="rgb(76,84,90)" stroke="none" stroke-width="1"/></g></g></g><g id="ecqcj8n116u5185"><g id="ecqcj8n116u5186"><g id="ecqcj8n116u5187"><path id="ecqcj8n116u5188" d="M103.370000,40.140000C103.370000,40.140000,103.050000,52,96.930000,59.700000C90.810000,67.400000,87.220000,66.420000,87.220000,66.420000C87.220000,66.420000,100.580000,60,98.880000,44.510000C97.180000,29.020000,102.760000,38.150000,102.760000,38.150000Z" transform="matrix(1 0 0 1 -0.39000000000000 -3.24000000000000)" fill="rgb(76,84,90)" stroke="none" stroke-width="1"/></g></g></g></g></g></g><g id="ecqcj8n116u5189_to" transform="translate(53.840002,73.649996)"><g id="ecqcj8n116u5189" transform="translate(-53.840002,-73.649996)"><g id="ecqcj8n116u5190"><g id="ecqcj8n116u5191"><g id="ecqcj8n116u5192"><path id="ecqcj8n116u5193" d="M85.680000,68.710000L85.680000,68.560000C85.680000,59.160000,78.880000,50.560000,68.680000,50.560000C60.550000,50.560000,55.840000,56.400000,54.230000,61.870000L54.230000,61.870000C52.620000,56.400000,47.910000,50.560000,39.780000,50.560000C29.550000,50.560000,22.780000,59.180000,22.780000,68.560000L22.780000,68.710000C22.730000,70.760000,22.780000,86.240000,54.270000,103.220000L54.270000,103.220000C85.680000,86.240000,85.730000,70.760000,85.680000,68.710000Z" transform="matrix(1 0 0 1 -0.39000000000000 -3.24000000000000)" fill="rgb(235,68,93)" stroke="none" stroke-width="1"/></g><g id="ecqcj8n116u5194" opacity="0.1"><path id="ecqcj8n116u5195" d="M44.840000,97.570000C47.845374,99.707929,51.038453,101.568885,54.380000,103.130000C88.690000,82.740000,85.600000,69.260000,85.550000,67.130000C85.659988,65.611990,85.659988,64.088010,85.550000,62.570000C75.630000,87.910000,57.740000,94,44.840000,97.570000Z" transform="matrix(1 0 0 1 -0.39000000000000 -3.24000000000000)" fill="rgb(255,255,255)" stroke="none" stroke-width="1"/></g><g id="ecqcj8n116u5196" opacity="0.2"><path id="ecqcj8n116u5197" d="M25.450000,70.710000C25.450000,70.710000,25.230000,52.780000,43.850000,52.570000C43.850000,52.570000,31.170000,55.640000,25.450000,70.710000Z" transform="matrix(1 0 0 1 -0.39000000000000 -3.24000000000000)" fill="rgb(255,255,255)" stroke="none" stroke-width="1"/></g></g></g></g></g><g id="ecqcj8n116u5198_to" transform="translate(85.293556,63.305816)"><g id="ecqcj8n116u5198_tr" transform="rotate(0)"><g id="ecqcj8n116u5198" transform="translate(-85.293556,-63.305816)"><path id="ecqcj8n116u5199" d="M86.560000,66.470000C86.560000,66.470000,86.560000,68.800000,83.560000,70.140000C80.560000,71.480000,75.070000,71.410000,75.070000,71.410000C73.453517,71.637866,71.951538,70.531378,71.690000,68.920000L71.690000,68.920000C71.468468,67.303788,72.579012,65.806775,74.190000,65.550000L85.420000,63.240000C87.040000,63.020000,86.590000,66.470000,86.590000,66.470000Z" transform="matrix(1 0 0 1 -0.39000000000000 -3.24000000000000)" fill="rgb(253,223,188)" stroke="none" stroke-width="1"/></g></g></g><g id="ecqcj8n116u5200_to" transform="translate(20.580000,56.611693)"><g id="ecqcj8n116u5200_tr" transform="rotate(0)"><g id="ecqcj8n116u5200" transform="translate(-20.580000,-56.611693)"><g id="ecqcj8n116u5201"><path id="ecqcj8n116u5202" d="M20.420000,61.260000C22.970000,63.920000,25.890000,63.970000,26.720000,63.260000C27.550000,62.550000,27.270000,59.520000,23.830000,58.540000C20.390000,57.560000,19.100000,58.120000,20.420000,61.260000Z" transform="matrix(1 0 0 1 -0.39000000000000 -3.24000000000000)" fill="rgb(163,216,242)" stroke="none" stroke-width="1"/></g></g></g></g><g id="ecqcj8n116u5203_to" transform="translate(20.634316,88.010296)"><g id="ecqcj8n116u5203" transform="translate(-25.634316,-88.010296)"><g id="ecqcj8n116u5204"><path id="ecqcj8n116u5205" d="M35.480000,101.790000L16.480000,101.790000C13.312109,101.836525,10.544653,99.657735,9.846370,96.567411C9.148088,93.477088,10.709877,90.320071,13.590000,89C13.715345,85.270878,16.233710,82.049132,19.822235,81.027098C23.410760,80.005065,27.248683,81.416501,29.320000,84.520000L29.800000,84.520000C32.364479,84.546108,34.691214,86.027462,35.800000,88.340000C39.516876,88.431127,42.456127,91.518124,42.365000,95.235000C42.273873,98.951876,39.186876,101.891127,35.470000,101.800000Z" transform="matrix(1 0 0 1 -0.39000000000000 -3.24000000000000)" fill="rgb(240,242,255)" stroke="none" stroke-width="1"/></g><g id="ecqcj8n116u5206" clip-path="url(#ecqcj8n116u5213)"><g id="ecqcj8n116u5207"><g id="ecqcj8n116u5208"><g id="ecqcj8n116u5209"><g id="ecqcj8n116u5210"><g id="ecqcj8n116u5211" style="isolation:isolate" opacity="0.3"><path id="ecqcj8n116u5212" d="M35.480000,101.790000L16.480000,101.790000C13.312109,101.836525,10.544653,99.657735,9.846370,96.567411C9.148088,93.477088,10.709877,90.320071,13.590000,89C13.719420,85.272665,16.239227,82.054702,19.826769,81.035229C23.414310,80.015756,27.249808,81.427729,29.320000,84.530000L29.790000,84.530000C32.353619,84.549505,34.682070,86.028071,35.790000,88.340000C39.506876,88.431127,42.446127,91.518124,42.355000,95.235000C42.263873,98.951876,39.176876,101.891127,35.460000,101.800000Z" transform="matrix(1 0 0 1 -0.39000000000000 -3.24000000000000)" fill="rgb(163,216,242)" stroke="none" stroke-width="1"/></g></g></g></g></g><clipPath id="ecqcj8n116u5213" transform="matrix(1 0 0 1 -0.39000000000000 -3.24000000000000)"><path id="ecqcj8n116u5214" d="M19.220000,80C19.220000,80,5.820000,97.220000,37.090000,103C36.950000,103.140000,14.090000,103,14.090000,103L8,96.750000L11,88.870000Z" fill="none" stroke="none" stroke-width="1"/></clipPath></g></g></g><g id="ecqcj8n116u5215_to" transform="translate(82.382912,82.914635)"><g id="ecqcj8n116u5215" transform="translate(-82.382912,-82.914635)"><g id="ecqcj8n116u5216"><path id="ecqcj8n116u5217" d="M68.280000,102.470000L97.750000,102.470000C102.618156,102.488431,106.847702,99.127409,107.929395,94.380913C109.011087,89.634417,106.655449,84.772679,102.260000,82.680000C102.077878,76.886060,98.174845,71.872883,92.602461,70.275558C87.030077,68.678233,81.063922,70.862403,77.840000,75.680000L77.110000,75.680000C73.114168,75.699467,69.479969,77.998020,67.750000,81.600000C63.969280,81.620419,60.494434,83.681375,58.663526,86.989250C56.832619,90.297126,56.931222,94.335983,58.921366,97.550573C60.911510,100.765163,64.482787,102.654097,68.260000,102.490000Z" transform="matrix(1 0 0 1 -0.39000000000000 -3.24000000000000)" fill="rgb(240,242,255)" stroke="none" stroke-width="1"/></g><g id="ecqcj8n116u5218" clip-path="url(#ecqcj8n116u5225)"><g id="ecqcj8n116u5219"><g id="ecqcj8n116u5220"><g id="ecqcj8n116u5221"><g id="ecqcj8n116u5222"><g id="ecqcj8n116u5223" style="isolation:isolate" opacity="0.3"><path id="ecqcj8n116u5224" d="M68.280000,102.470000L97.750000,102.470000C102.618156,102.488431,106.847702,99.127409,107.929395,94.380913C109.011087,89.634417,106.655449,84.772679,102.260000,82.680000C102.053405,76.896789,98.141710,71.906327,92.575236,70.324372C87.008762,68.742418,81.057171,70.929800,77.840000,75.740000L77.110000,75.740000C73.111363,75.749851,69.472483,78.051365,67.750000,81.660000C62.061409,81.907135,57.617705,86.662938,57.756674,92.355198C57.895642,98.047459,62.566126,102.580752,68.260000,102.550000Z" transform="matrix(1 0 0 1 -0.39000000000000 -3.24000000000000)" fill="rgb(163,216,242)" stroke="none" stroke-width="1"/></g></g></g></g></g><clipPath id="ecqcj8n116u5225" transform="matrix(1 0 0 1 -0.39000000000000 -3.24000000000000)"><path id="ecqcj8n116u5226" d="M93.520000,68.560000C93.520000,68.560000,114.320000,95.380000,65.770000,104.350000C66,104.580000,101.520000,104.350000,101.520000,104.350000L110.870000,94.640000L106.160000,82.420000Z" fill="none" stroke="none" stroke-width="1"/></clipPath></g></g></g><g id="ecqcj8n116u5227"><g id="ecqcj8n116u5228"><path id="ecqcj8n116u5229" d="M90.530000,13.680000C91.330000,12.810000,96.810000,17.930000,96.330000,22.810000C95.850000,27.690000,90.930000,24.320000,89.690000,22.590000C88.450000,20.860000,89.780000,14.480000,90.530000,13.680000Z" transform="matrix(1 0 0 1 -0.39000000000000 -3.24000000000000)" fill="rgb(248,220,142)" stroke="none" stroke-width="1"/></g><g id="ecqcj8n116u5230"><path id="ecqcj8n116u5231" d="M98.860000,17.420000C100.010000,17.090000,104.340000,23.750000,101.430000,27.690000C98.520000,31.630000,96.020000,26.210000,95.840000,24.090000C95.660000,21.970000,97.810000,17.730000,98.860000,17.420000Z" transform="matrix(1 0 0 1 -0.39000000000000 -3.24000000000000)" fill="rgb(248,220,142)" stroke="none" stroke-width="1"/></g><g id="ecqcj8n116u5232"><path id="ecqcj8n116u5233" d="M108.570000,26.460000C108.450000,25.460000,101.870000,24.300000,99.780000,27.850000C97.690000,31.400000,102.710000,31.550000,104.410000,30.990000C106.110000,30.430000,108.680000,27.380000,108.570000,26.460000Z" transform="matrix(1 0 0 1 -0.39000000000000 -3.24000000000000)" fill="rgb(248,220,142)" stroke="none" stroke-width="1"/></g><g id="ecqcj8n116u5234"><path id="ecqcj8n116u5235" d="M104.090000,42.090000C105.280000,42.180000,108.090000,34.760000,104.460000,31.520000C100.830000,28.280000,99.460000,34.090000,99.750000,36.200000C100.040000,38.310000,103,42,104.090000,42.090000Z" transform="matrix(1 0 0 1 -0.39000000000000 -3.24000000000000)" fill="rgb(248,220,142)" stroke="none" stroke-width="1"/></g><g id="ecqcj8n116u5236"><path id="ecqcj8n116u5237" d="M85.110000,23.810000C84.900000,22.640000,92,19,95.590000,22.330000C99.180000,25.660000,93.590000,27.560000,91.420000,27.510000C89.250000,27.460000,85.300000,24.880000,85.110000,23.810000Z" transform="matrix(1 0 0 1 -0.39000000000000 -3.24000000000000)" fill="rgb(248,220,142)" stroke="none" stroke-width="1"/></g><g id="ecqcj8n116u5238"><path id="ecqcj8n116u5239" d="M73.320000,22.940000C72.710000,21.940000,78.020000,16.010000,82.580000,17.810000C87.140000,19.610000,82.580000,23.420000,80.580000,24.140000C78.580000,24.860000,73.890000,23.880000,73.320000,22.940000Z" transform="matrix(1 0 0 1 -0.39000000000000 -3.24000000000000)" fill="rgb(248,220,142)" stroke="none" stroke-width="1"/></g><g id="ecqcj8n116u5240"><path id="ecqcj8n116u5241" d="M76.480000,10.440000C77.650000,10.230000,81.270000,17.310000,77.960000,20.920000C74.650000,24.530000,72.730000,18.920000,72.780000,16.750000C72.830000,14.580000,75.410000,10.630000,76.480000,10.440000Z" transform="matrix(1 0 0 1 -0.39000000000000 -3.24000000000000)" fill="rgb(248,220,142)" stroke="none" stroke-width="1"/></g><g id="ecqcj8n116u5242"><path id="ecqcj8n116u5243" d="M45.460000,22.100000C44.920000,21.040000,51.280000,14.210000,55.710000,16.320000C60.140000,18.430000,56.100000,21.520000,54.060000,22.100000C52.020000,22.680000,46,23.070000,45.460000,22.100000Z" transform="matrix(1 0 0 1 -0.39000000000000 -3.24000000000000)" fill="rgb(248,220,142)" stroke="none" stroke-width="1"/></g><g id="ecqcj8n116u5244"><path id="ecqcj8n116u5245" d="M50.240000,11.730000C50.430000,10.550000,58.650000,11.200000,60.990000,15.510000C63.330000,19.820000,58.260000,19.940000,56.270000,19.210000C54.280000,18.480000,50.070000,12.810000,50.240000,11.730000Z" transform="matrix(1 0 0 1 -0.39000000000000 -3.24000000000000)" fill="rgb(248,220,142)" stroke="none" stroke-width="1"/></g><g id="ecqcj8n116u5246"><path id="ecqcj8n116u5247" d="M67.770000,8.080000C68.370000,8.430000,68.170000,8.510000,69.770000,10.380000C71.370000,12.250000,73.770000,13.380000,74.320000,15.560000C75.460000,20.330000,70.590000,20.010000,68.850000,18.790000C67.110000,17.570000,66.660000,8.390000,67.770000,8.080000Z" transform="matrix(1 0 0 1 -0.39000000000000 -3.24000000000000)" fill="rgb(248,220,142)" stroke="none" stroke-width="1"/></g><g id="ecqcj8n116u5248"><path id="ecqcj8n116u5249" d="M63.310000,25.280000C62.310000,24.690000,65.830000,17.280000,70.690000,16.600000C75.550000,15.920000,73.860000,20.740000,72.450000,22.340000C71.040000,23.940000,64.260000,25.830000,63.310000,25.280000Z" transform="matrix(1 0 0 1 -0.39000000000000 -3.24000000000000)" fill="rgb(248,220,142)" stroke="none" stroke-width="1"/></g><g id="ecqcj8n116u5250"><path id="ecqcj8n116u5251" d="M59.450000,11.500000C59.640000,10.330000,66.650000,13.030000,68.980000,17.340000C71.310000,21.650000,65.090000,20,63.100000,19.260000C61.110000,18.520000,59.290000,12.580000,59.450000,11.500000Z" transform="matrix(1 0 0 1 -0.39000000000000 -3.24000000000000)" fill="rgb(248,220,142)" stroke="none" stroke-width="1"/></g><g id="ecqcj8n116u5252"><path id="ecqcj8n116u5253" d="M79.240000,13.730000C79.430000,12.550000,87.650000,13.200000,90,17.500000C92.350000,21.800000,87.260000,21.940000,85.270000,21.210000C83.280000,20.480000,79.070000,14.810000,79.240000,13.730000Z" transform="matrix(1 0 0 1 -0.39000000000000 -3.24000000000000)" fill="rgb(248,220,142)" stroke="none" stroke-width="1"/></g><g id="ecqcj8n116u5254"><path id="ecqcj8n116u5255" d="M54.890000,23.590000C53.890000,22.870000,57.490000,17.200000,62.390000,17.160000C67.290000,17.120000,67.050000,20.160000,65.470000,21.610000C63.890000,23.060000,55.760000,24.240000,54.890000,23.590000Z" transform="matrix(1 0 0 1 -0.39000000000000 -3.24000000000000)" fill="rgb(248,220,142)" stroke="none" stroke-width="1"/></g><g id="ecqcj8n116u5256"><path id="ecqcj8n116u5257" d="M108,43.080000C107.653102,43.078602,107.359554,42.823344,107.310000,42.480000C107.050000,40.730000,97.830000,20.240000,81.200000,21.140000C64.350000,22.020000,52.330000,17.970000,52.200000,17.930000C51.942834,17.866885,51.743295,17.664061,51.684387,17.405899C51.625479,17.147737,51.717287,16.878433,51.921621,16.710012C52.125955,16.541592,52.407833,16.502888,52.650000,16.610000C52.770000,16.610000,64.560000,20.610000,81.110000,19.740000C98.230000,18.840000,108.180000,38.880000,108.680000,42.280000C108.708678,42.461794,108.663541,42.647511,108.554624,42.795863C108.445707,42.944215,108.282037,43.042908,108.100000,43.070000Z" transform="matrix(1 0 0 1 -0.39000000000000 -3.24000000000000)" fill="rgb(248,220,142)" stroke="none" stroke-width="1"/></g></g></g></svg>