<svg id="webflow-logo" xmlns="http://www.w3.org/2000/svg" viewBox="0 0 30 30"><defs><style>.cls-1{fill:#fff;}</style></defs><g id="Group_13098" data-name="Group 13098"><path id="Path_31904" data-name="Path 31904" d="M30,15A15,15,0,1,1,15,0,15,15,0,0,1,30,15Z"/></g><path id="Path_31905" data-name="Path 31905" class="cls-1" d="M19.61,13.05s-1.31,4.1-1.41,4.45c0-.35-1-7.72-1-7.72-2.23,0-3.42,1.58-4,3.27,0,0-1.59,4.12-1.72,4.47,0-.33-.24-4.43-.24-4.43A3.65,3.65,0,0,0,7.65,9.78L9.49,21a4.49,4.49,0,0,0,4.25-3.27s1.4-3.63,1.47-3.8c0,.16,1,7.08,1,7.08a4.5,4.5,0,0,0,4.29-3.11l3.27-8.08C21.45,9.78,20.23,11.36,19.61,13.05Z"/></svg>