<svg id="Layer_1" data-name="Layer 1" xmlns="http://www.w3.org/2000/svg" xmlns:xlink="http://www.w3.org/1999/xlink" viewBox="0 0 200 200"><defs><style>.cls-1{fill:#fff;fill-opacity:0;}.cls-2{fill:#fed0a5;}.cls-3{fill:#f1ad8a;}.cls-11,.cls-3,.cls-4,.cls-9{isolation:isolate;}.cls-3,.cls-4{opacity:1;}.cls-4{fill:#7d5947;}.cls-5{fill:#272727;}.cls-6{fill:url(#linear-gradient);}.cls-7{fill:url(#linear-gradient-2);}.cls-8{fill:url(#radial-gradient);}.cls-11,.cls-9{opacity:1;}.cls-9{fill:url(#radial-gradient-2);}.cls-10{fill:url(#radial-gradient-3);}.cls-11{fill:url(#radial-gradient-4);}.cls-12{fill:url(#linear-gradient-3);}.cls-13{fill:url(#linear-gradient-4);}</style><linearGradient id="linear-gradient" x1="-741.93" y1="795.51" x2="-741.27" y2="795.51" gradientTransform="matrix(14, 0, 0, -120, 10430, 95538)" gradientUnits="userSpaceOnUse"><stop offset="0" stop-color="#070707"/><stop offset="1" stop-color="#292929"/></linearGradient><linearGradient id="linear-gradient-2" x1="-739.1" y1="807.51" x2="-738.1" y2="807.51" gradientTransform="matrix(0, 10, 114, 0, -91956, 7408)" gradientUnits="userSpaceOnUse"><stop offset="0" stop-opacity="0.5"/><stop offset="0.22" stop-color="#3f3f3f" stop-opacity="0.16"/><stop offset="0.43" stop-color="#d5d5d5" stop-opacity="0.12"/><stop offset="1" stop-color="#8d8d8d" stop-opacity="0"/></linearGradient><radialGradient id="radial-gradient" cx="-767.44" cy="802.86" r="0.76" gradientTransform="matrix(24.21, 20.92, 20.92, -24.21, 1904.67, 35557)" gradientUnits="userSpaceOnUse"><stop offset="0" stop-color="#fff"/><stop offset="0.4" stop-color="#fff"/><stop offset="1" stop-color="#9f9f9f"/></radialGradient><radialGradient id="radial-gradient-2" cx="-715.47" cy="796.83" r="0.46" gradientTransform="matrix(9.92, 6.75, 6.75, -9.92, 1844.89, 12793.79)" gradientUnits="userSpaceOnUse"><stop offset="0" stop-color="#585858"/><stop offset="0.41"/><stop offset="1"/></radialGradient><radialGradient id="radial-gradient-3" cx="-805.08" cy="770.22" r="0.76" gradientTransform="translate(-3305.76 35567.26) rotate(139.18) scale(32.01)" gradientUnits="userSpaceOnUse"><stop offset="0" stop-color="#fff"/><stop offset="0.4" stop-color="#fff"/><stop offset="1" stop-color="#989898"/></radialGradient><radialGradient id="radial-gradient-4" cx="-825.42" cy="721.95" r="0.46" gradientTransform="translate(-3244.5 12790.24) rotate(145.8) scale(12)" xlink:href="#radial-gradient-2"/><linearGradient id="linear-gradient-3" x1="-789.93" y1="795.7" x2="-789.06" y2="795.39" gradientTransform="matrix(89.33, 0, 0, -121.42, 70672.89, 96731.22)" gradientUnits="userSpaceOnUse"><stop offset="0" stop-color="#e3a382"/><stop offset="1" stop-color="#e6a988"/></linearGradient><linearGradient id="linear-gradient-4" x1="-789.12" y1="795.62" x2="-790.01" y2="795.51" gradientTransform="matrix(89.33, 0, 0, -121.42, 70583.56, 96731.22)" gradientUnits="userSpaceOnUse"><stop offset="0" stop-color="#745342"/><stop offset="1" stop-color="#745342"/></linearGradient></defs><g id="Group_14541" data-name="Group 14541"><rect id="Rectangle_12617" data-name="Rectangle 12617" class="cls-1" width="200" height="200"/><path id="Path_33416" data-name="Path 33416" class="cls-2" d="M11.1,73.64,100.7,89.4l89.4-15.76L100.7,56.33Z"/><path id="Path_33417" data-name="Path 33417" class="cls-3" d="M22.41,73.54l78.28,13.77V58.42Z"/><path id="Path_33418" data-name="Path 33418" class="cls-4" d="M179,73.54,100.69,87.31V58.42Z"/><g id="Group_14540" data-name="Group 14540"><g id="Group_14539" data-name="Group 14539"><rect id="Rectangle_12621" data-name="Rectangle 12621" class="cls-5" x="43" y="17" width="114" height="120" rx="9"/><path id="Rectangle_12622" data-name="Rectangle 12622" class="cls-6" d="M52,17h5V137H52a9,9,0,0,1-9-9V26A9,9,0,0,1,52,17Z"/><path id="Rectangle_12623" data-name="Rectangle 12623" class="cls-7" d="M157,26v1H43V26a9,9,0,0,1,9-9h96A9,9,0,0,1,157,26Z"/></g><g id="Group_14538" data-name="Group 14538"><circle id="Ellipse_3412" data-name="Ellipse 3412" class="cls-8" cx="125" cy="67" r="16"/><circle id="Ellipse_3414" data-name="Ellipse 3414" class="cls-9" cx="123" cy="61" r="6"/></g><g id="Group_14537" data-name="Group 14537"><circle id="Ellipse_3416" data-name="Ellipse 3416" class="cls-10" cx="75" cy="67" r="16"/><circle id="Ellipse_3415" data-name="Ellipse 3415" class="cls-11" cx="77" cy="61" r="6"/></g></g><path id="Path_33414" data-name="Path 33414" class="cls-12" d="M100.42,195.06l89.33-14.87V73.64l-89.33,15.6Z"/><path id="Path_33415" data-name="Path 33415" class="cls-13" d="M100.42,195.06,11.1,180.19V73.64l89.32,15.6Z"/><path id="Path_33422" data-name="Path 33422" class="cls-2" d="M100.42,89.4l56.67-10.05v-2l-56.67,10L40.91,76.8v2Z"/></g></svg>