<svg id="eBwbITDyC4P1" xmlns="http://www.w3.org/2000/svg" xmlns:xlink="http://www.w3.org/1999/xlink" viewBox="0 0 200 240" shape-rendering="geometricPrecision" text-rendering="geometricPrecision"><style><![CDATA[#eBwbITDyC4P17_to {animation: eBwbITDyC4P17_to__to 3000ms linear 1 normal forwards}@keyframes eBwbITDyC4P17_to__to { 0% {offset-distance: 0%} 53.333333% {offset-distance: 0%} 70% {offset-distance: 0%} 83.333333% {offset-distance: 43.663243%} 100% {offset-distance: 100%}} #eBwbITDyC4P17_ts {animation: eBwbITDyC4P17_ts__ts 3000ms linear 1 normal forwards}@keyframes eBwbITDyC4P17_ts__ts { 0% {transform: scale(0,0)} 53.333333% {transform: scale(0,0);animation-timing-function: cubic-bezier(0.42,0,0.58,1)} 63.333333% {transform: scale(1.4,1.2)} 70% {transform: scale(1,1)} 100% {transform: scale(1,1)}} #eBwbITDyC4P20_to {animation: eBwbITDyC4P20_to__to 3000ms linear 1 normal forwards}@keyframes eBwbITDyC4P20_to__to { 0% {offset-distance: 0%} 53.333333% {offset-distance: 0%} 70% {offset-distance: 0%} 83.333333% {offset-distance: 37.240332%} 100% {offset-distance: 100%}} #eBwbITDyC4P20_ts {animation: eBwbITDyC4P20_ts__ts 3000ms linear 1 normal forwards}@keyframes eBwbITDyC4P20_ts__ts { 0% {transform: scale(0,0)} 53.333333% {transform: scale(0,0);animation-timing-function: cubic-bezier(0.42,0,0.58,1)} 63.333333% {transform: scale(1.4,1.4)} 70% {transform: scale(1,1)} 100% {transform: scale(1,1)}} #eBwbITDyC4P27_to {animation: eBwbITDyC4P27_to__to 3000ms linear 1 normal forwards}@keyframes eBwbITDyC4P27_to__to { 0% {transform: translate(93.90501px,124.290003px)} 16.666667% {transform: translate(93.90501px,124.290003px);animation-timing-function: cubic-bezier(0,0,0.37,1.005)} 30% {transform: translate(93.90501px,84.290003px);animation-timing-function: cubic-bezier(0.52,0,1,1)} 53.333333% {transform: translate(93.90501px,185.290003px)} 100% {transform: translate(93.90501px,185.290003px)}} #eBwbITDyC4P27_tr {animation: eBwbITDyC4P27_tr__tr 3000ms linear 1 normal forwards}@keyframes eBwbITDyC4P27_tr__tr { 0% {transform: rotate(0deg);animation-timing-function: cubic-bezier(0.42,0,0.58,1)} 16.666667% {transform: rotate(0deg);animation-timing-function: cubic-bezier(0,0,0.445,1.005)} 30% {transform: rotate(-7.72deg);animation-timing-function: cubic-bezier(0.42,0,0.58,1)} 56.666667% {transform: rotate(-7.72deg);animation-timing-function: cubic-bezier(0.42,0,0.58,1)} 83.333333% {transform: rotate(2deg)} 90% {transform: rotate(0deg)} 100% {transform: rotate(0deg)}} #eBwbITDyC4P42_to {animation: eBwbITDyC4P42_to__to 3000ms linear 1 normal forwards}@keyframes eBwbITDyC4P42_to__to { 0% {transform: translate(112.599998px,69.709999px)} 10% {transform: translate(112.599998px,71.709999px)} 16.666667% {transform: translate(112.599998px,71.709999px)} 30% {transform: translate(113.40599px,65.764383px)} 56.666667% {transform: translate(112.599998px,69.709999px)} 100% {transform: translate(112.599998px,69.709999px)}} #eBwbITDyC4P46_to {animation: eBwbITDyC4P46_to__to 3000ms linear 1 normal forwards}@keyframes eBwbITDyC4P46_to__to { 0% {transform: translate(89.599998px,70.150002px)} 10% {transform: translate(89.599998px,72.150002px)} 16.666667% {transform: translate(89.599998px,72.150002px)} 30% {transform: translate(88.289786px,66.926658px)} 56.666667% {transform: translate(89.599998px,70.150002px)} 100% {transform: translate(89.599998px,70.150002px)}} #eBwbITDyC4P53_tr {animation: eBwbITDyC4P53_tr__tr 3000ms linear 1 normal forwards}@keyframes eBwbITDyC4P53_tr__tr { 0% {transform: translate(109.870934px,114.758041px) rotate(0deg)} 3.333333% {transform: translate(109.870934px,114.758041px) rotate(0deg);animation-timing-function: cubic-bezier(0.42,0,0.58,1)} 13.333333% {transform: translate(109.870934px,114.758041px) rotate(-8.6deg);animation-timing-function: cubic-bezier(0.42,0,0.58,1)} 20% {transform: translate(109.870934px,114.758041px) rotate(0deg);animation-timing-function: cubic-bezier(0.42,0,0.58,1)} 30% {transform: translate(109.870934px,114.758041px) rotate(-21deg);animation-timing-function: cubic-bezier(0.42,0,0.58,1)} 43.333333% {transform: translate(109.870934px,114.758041px) rotate(4.2deg);animation-timing-function: cubic-bezier(0.42,0,0.58,1)} 53.333333% {transform: translate(109.870934px,114.758041px) rotate(0deg)} 100% {transform: translate(109.870934px,114.758041px) rotate(0deg)}} #eBwbITDyC4P63_to {animation: eBwbITDyC4P63_to__to 3000ms linear 1 normal forwards}@keyframes eBwbITDyC4P63_to__to { 0% {transform: translate(112.599998px,69.709999px)} 53.333333% {transform: translate(112.599998px,69.709999px)} 70% {transform: translate(112.599998px,71.709999px)} 100% {transform: translate(112.599998px,71.709999px)}} #eBwbITDyC4P67_to {animation: eBwbITDyC4P67_to__to 3000ms linear 1 normal forwards}@keyframes eBwbITDyC4P67_to__to { 0% {transform: translate(89.599998px,70.150002px)} 53.333333% {transform: translate(89.599998px,70.150002px)} 70% {transform: translate(89.599998px,72.150002px)} 100% {transform: translate(89.599998px,72.150002px)}}]]></style><defs><radialGradient id="eBwbITDyC4P19-fill" cx="0" cy="0" r="0.86" spreadMethod="pad" gradientUnits="userSpaceOnUse" gradientTransform="matrix(-3.13 3.9 3.9 3.13 0.8302 -0.8485)"><stop id="eBwbITDyC4P19-fill-0" offset="0%" stop-color="#404040"/><stop id="eBwbITDyC4P19-fill-1" offset="100%" stop-color="#000"/></radialGradient><radialGradient id="eBwbITDyC4P22-fill" cx="0" cy="0" r="0.86" spreadMethod="pad" gradientUnits="userSpaceOnUse" gradientTransform="matrix(0.02 5 5 -0.02 0.773 1.1112)"><stop id="eBwbITDyC4P22-fill-0" offset="0%" stop-color="#404040"/><stop id="eBwbITDyC4P22-fill-1" offset="100%" stop-color="#000"/></radialGradient><linearGradient id="eBwbITDyC4P31-fill" x1="90.1627" y1="117.0166" x2="96.2093" y2="117.0166" spreadMethod="pad" gradientUnits="userSpaceOnUse" gradientTransform="translate(0 0)"><stop id="eBwbITDyC4P31-fill-0" offset="0%" stop-color="rgba(89,89,89,0.86)"/><stop id="eBwbITDyC4P31-fill-1" offset="8%" stop-color="rgba(44,45,44,0.62)"/><stop id="eBwbITDyC4P31-fill-2" offset="14%" stop-color="rgba(44,45,44,0.73)"/><stop id="eBwbITDyC4P31-fill-3" offset="44%" stop-color="rgba(61,61,61,0.47)"/><stop id="eBwbITDyC4P31-fill-4" offset="100%" stop-color="rgba(91,92,91,0)"/></linearGradient><linearGradient id="eBwbITDyC4P35-fill" x1="105.7761" y1="116.18" x2="111.761" y2="116.34" spreadMethod="pad" gradientUnits="userSpaceOnUse" gradientTransform="translate(0 0)"><stop id="eBwbITDyC4P35-fill-0" offset="0%" stop-color="rgba(89,89,89,0.86)"/><stop id="eBwbITDyC4P35-fill-1" offset="8%" stop-color="rgba(44,45,44,0.62)"/><stop id="eBwbITDyC4P35-fill-2" offset="14%" stop-color="rgba(44,45,44,0.73)"/><stop id="eBwbITDyC4P35-fill-3" offset="44%" stop-color="rgba(61,61,61,0.47)"/><stop id="eBwbITDyC4P35-fill-4" offset="100%" stop-color="rgba(91,92,91,0)"/></linearGradient><linearGradient id="eBwbITDyC4P38-fill" x1="70.6961" y1="81.68" x2="74.7337" y2="81.68" spreadMethod="pad" gradientUnits="userSpaceOnUse" gradientTransform="translate(0 0)"><stop id="eBwbITDyC4P38-fill-0" offset="0%" stop-color="#070707"/><stop id="eBwbITDyC4P38-fill-1" offset="100%" stop-color="rgba(41,41,41,0.8)"/></linearGradient><linearGradient id="eBwbITDyC4P39-fill" x1="101.963953" y1="45.077003" x2="101.963953" y2="48.038502" spreadMethod="pad" gradientUnits="userSpaceOnUse" gradientTransform="translate(0 0)"><stop id="eBwbITDyC4P39-fill-0" offset="0%" stop-color="rgba(0,0,0,0.5)"/><stop id="eBwbITDyC4P39-fill-1" offset="22%" stop-color="rgba(63,63,63,0.16)"/><stop id="eBwbITDyC4P39-fill-2" offset="43%" stop-color="rgba(213,213,213,0.12)"/><stop id="eBwbITDyC4P39-fill-3" offset="100%" stop-color="rgba(141,141,141,0)"/></linearGradient><radialGradient id="eBwbITDyC4P41-fill" cx="0" cy="0" r="0.76" spreadMethod="pad" gradientUnits="userSpaceOnUse" gradientTransform="matrix(11.52 9.61 -9.61 11.52 -0.65 -2.5)"><stop id="eBwbITDyC4P41-fill-0" offset="0%" stop-color="#fff"/><stop id="eBwbITDyC4P41-fill-1" offset="40%" stop-color="#fff"/><stop id="eBwbITDyC4P41-fill-2" offset="100%" stop-color="#808080"/></radialGradient><radialGradient id="eBwbITDyC4P43-fill" cx="0" cy="0" r="0.700317" spreadMethod="pad" gradientUnits="userSpaceOnUse" gradientTransform="matrix(3.725841 3.334387 -3.731408 4.169472 -0.637513 -0.767148)"><stop id="eBwbITDyC4P43-fill-0" offset="0%" stop-color="#3e3e3e"/><stop id="eBwbITDyC4P43-fill-1" offset="41%" stop-color="#000"/><stop id="eBwbITDyC4P43-fill-2" offset="100%" stop-color="#000"/></radialGradient><radialGradient id="eBwbITDyC4P45-fill" cx="0" cy="0" r="0.76" spreadMethod="pad" gradientUnits="userSpaceOnUse" gradientTransform="matrix(-11.18 10.01 10.01 11.18 0 -2.5)"><stop id="eBwbITDyC4P45-fill-0" offset="0%" stop-color="#fff"/><stop id="eBwbITDyC4P45-fill-1" offset="40%" stop-color="#fff"/><stop id="eBwbITDyC4P45-fill-2" offset="100%" stop-color="#5a5a5a"/></radialGradient><radialGradient id="eBwbITDyC4P47-fill" cx="0" cy="0" r="0.663992" spreadMethod="pad" gradientUnits="userSpaceOnUse" gradientTransform="matrix(-5.001602 0.080444 0.080444 5.001602 0.603802 -0.540003)"><stop id="eBwbITDyC4P47-fill-0" offset="0%" stop-color="#353535"/><stop id="eBwbITDyC4P47-fill-1" offset="50.0369%" stop-color="#000"/><stop id="eBwbITDyC4P47-fill-2" offset="100%" stop-color="#000"/></radialGradient><linearGradient id="eBwbITDyC4P52-fill" x1="90.1627" y1="117.0166" x2="96.2093" y2="117.0166" spreadMethod="pad" gradientUnits="userSpaceOnUse" gradientTransform="translate(0 0)"><stop id="eBwbITDyC4P52-fill-0" offset="0%" stop-color="rgba(89,89,89,0.86)"/><stop id="eBwbITDyC4P52-fill-1" offset="8%" stop-color="rgba(44,45,44,0.62)"/><stop id="eBwbITDyC4P52-fill-2" offset="14%" stop-color="rgba(44,45,44,0.73)"/><stop id="eBwbITDyC4P52-fill-3" offset="44%" stop-color="rgba(61,61,61,0.47)"/><stop id="eBwbITDyC4P52-fill-4" offset="100%" stop-color="rgba(91,92,91,0)"/></linearGradient><linearGradient id="eBwbITDyC4P56-fill" x1="105.7761" y1="116.18" x2="111.761" y2="116.34" spreadMethod="pad" gradientUnits="userSpaceOnUse" gradientTransform="translate(0 0)"><stop id="eBwbITDyC4P56-fill-0" offset="0%" stop-color="rgba(89,89,89,0.86)"/><stop id="eBwbITDyC4P56-fill-1" offset="8%" stop-color="rgba(44,45,44,0.62)"/><stop id="eBwbITDyC4P56-fill-2" offset="14%" stop-color="rgba(44,45,44,0.73)"/><stop id="eBwbITDyC4P56-fill-3" offset="44%" stop-color="rgba(61,61,61,0.47)"/><stop id="eBwbITDyC4P56-fill-4" offset="100%" stop-color="rgba(91,92,91,0)"/></linearGradient><linearGradient id="eBwbITDyC4P59-fill" x1="70.6961" y1="81.68" x2="74.7337" y2="81.68" spreadMethod="pad" gradientUnits="userSpaceOnUse" gradientTransform="translate(0 0)"><stop id="eBwbITDyC4P59-fill-0" offset="0%" stop-color="#070707"/><stop id="eBwbITDyC4P59-fill-1" offset="100%" stop-color="#292929"/></linearGradient><linearGradient id="eBwbITDyC4P60-fill" x1="101.36" y1="43.2287" x2="101.92" y2="48.2522" spreadMethod="pad" gradientUnits="userSpaceOnUse" gradientTransform="translate(0 0)"><stop id="eBwbITDyC4P60-fill-0" offset="0%" stop-color="rgba(0,0,0,0.5)"/><stop id="eBwbITDyC4P60-fill-1" offset="22%" stop-color="rgba(63,63,63,0.16)"/><stop id="eBwbITDyC4P60-fill-2" offset="43%" stop-color="rgba(213,213,213,0.12)"/><stop id="eBwbITDyC4P60-fill-3" offset="100%" stop-color="rgba(141,141,141,0)"/></linearGradient><radialGradient id="eBwbITDyC4P62-fill" cx="0" cy="0" r="0.76" spreadMethod="pad" gradientUnits="userSpaceOnUse" gradientTransform="matrix(11.52 9.61 -9.61 11.52 -0.65 -2.5)"><stop id="eBwbITDyC4P62-fill-0" offset="0%" stop-color="#fff"/><stop id="eBwbITDyC4P62-fill-1" offset="40%" stop-color="#fff"/><stop id="eBwbITDyC4P62-fill-2" offset="100%" stop-color="#808080"/></radialGradient><radialGradient id="eBwbITDyC4P64-fill" cx="0" cy="0" r="0.46" spreadMethod="pad" gradientUnits="userSpaceOnUse" gradientTransform="matrix(4.18191 2.74074 -2.74074 4.18191 3.013962 4.701204)"><stop id="eBwbITDyC4P64-fill-0" offset="0%" stop-color="#585858"/><stop id="eBwbITDyC4P64-fill-1" offset="41%" stop-color="#000"/><stop id="eBwbITDyC4P64-fill-2" offset="100%" stop-color="#000"/></radialGradient><radialGradient id="eBwbITDyC4P66-fill" cx="0" cy="0" r="0.76" spreadMethod="pad" gradientUnits="userSpaceOnUse" gradientTransform="matrix(-11.18 10.01 10.01 11.18 0 -2.5)"><stop id="eBwbITDyC4P66-fill-0" offset="0%" stop-color="#fff"/><stop id="eBwbITDyC4P66-fill-1" offset="40%" stop-color="#fff"/><stop id="eBwbITDyC4P66-fill-2" offset="100%" stop-color="#5a5a5a"/></radialGradient><radialGradient id="eBwbITDyC4P68-fill" cx="0" cy="0" r="0.46" spreadMethod="pad" gradientUnits="userSpaceOnUse" gradientTransform="matrix(-4.09 2.88 2.88 4.09 6.3048 6.7689)"><stop id="eBwbITDyC4P68-fill-0" offset="0%" stop-color="#585858"/><stop id="eBwbITDyC4P68-fill-1" offset="41%" stop-color="#000"/><stop id="eBwbITDyC4P68-fill-2" offset="100%" stop-color="#000"/></radialGradient><linearGradient id="eBwbITDyC4P69-fill" x1="111.04" y1="154.784" x2="149.32" y2="173.322" spreadMethod="pad" gradientUnits="userSpaceOnUse" gradientTransform="translate(0 0)"><stop id="eBwbITDyC4P69-fill-0" offset="0%" stop-color="#e3a382"/><stop id="eBwbITDyC4P69-fill-1" offset="100%" stop-color="#e6a988"/></linearGradient><linearGradient id="eBwbITDyC4P70-fill" x1="102.24" y1="157.176" x2="63.08" y2="163.754" spreadMethod="pad" gradientUnits="userSpaceOnUse" gradientTransform="translate(0 0)"><stop id="eBwbITDyC4P70-fill-0" offset="0%" stop-color="#745342"/><stop id="eBwbITDyC4P70-fill-1" offset="100%" stop-color="#745342"/></linearGradient></defs><rect width="200" height="240" rx="0" ry="0" opacity="0" fill="#ffa4a4"/><g><g style="isolation:isolate"><path d="M31.4,207.2v16.8h-3.19l-8.38-10.2v10.2h-3.83v-16.8h3.22l8.35,10.2v-10.2Z" fill="#fff"/><path d="M34.81,215.6c0-5,3.89-8.69,9.19-8.69s9.19,3.67,9.19,8.69-3.91,8.69-9.19,8.69-9.19-3.7-9.19-8.69Zm14.45,0c-.076829-2.885543-2.464738-5.170064-5.350855-5.119182s-5.192016,2.418154-5.167085,5.304612s2.371374,5.213547,5.25794,5.21457c1.431088.03829,2.813075-.523156,3.811988-1.548656s1.523872-2.421755,1.448012-3.851344Z" fill="#fff"/><path d="M55.54,215.6c0-5.06,3.89-8.69,9.12-8.69c2.643032-.105298,5.190131.998935,6.92,3l-2.5,2.3c-1.029844-1.273067-2.582563-2.008953-4.22-2-2.971292,0-5.38,2.408708-5.38,5.38s2.408708,5.38,5.38,5.38c1.638414.013369,3.192955-.72338,4.22-2l2.5,2.31c-1.731605,2.010354-4.28924,3.115959-6.94,3-5.21.01-9.1-3.62-9.1-8.68Z" fill="#fff"/><path d="M85.38,224l-3.24-4.68h-3.58v4.68h-3.89v-16.8h7.27c4.49,0,7.3,2.33,7.3,6.09.097084,2.326753-1.292285,4.458993-3.46,5.31l3.77,5.4Zm-3.65-13.63h-3.17v5.85h3.17c2.37,0,3.57-1.1,3.57-2.93s-1.2-2.92-3.57-2.92Z" fill="#fff"/><path d="M105.8,220.88v3.12h-13v-16.8h12.7v3.12h-8.84v3.68h7.8v3h-7.8v3.89Z" fill="#fff"/><path d="M120.44,220.4h-7.8l-1.49,3.6h-4l7.49-16.8h3.84L126,224h-4.08Zm-1.22-3l-2.67-6.4-2.66,6.44Z" fill="#fff"/><path d="M130.88,210.37h-5.38v-3.17h14.64v3.17h-5.37v13.63h-3.89Z" fill="#fff"/><path d="M142.71,207.2h3.89v16.8h-3.89Z" fill="#fff"/><path d="M167.12,207.2L159.85,224h-3.85l-7.25-16.8h4.25l5.11,12l5.19-12Z" fill="#fff"/><path d="M167.74,215.6c0-5,3.89-8.69,9.2-8.69s9.19,3.67,9.19,8.69-3.91,8.69-9.19,8.69-9.2-3.7-9.2-8.69Zm14.45,0c-.065948-2.889776-2.451346-5.184888-5.341516-5.13934s-5.202062,2.414687-5.176916,5.305106s2.377907,5.218977,5.268432,5.214234c1.426607.038103,2.80438-.520943,3.801087-1.542331s1.521892-2.41242,1.448913-3.837669Z" fill="#fff"/></g><circle r="6.95" transform="translate(43.56 215.5)" fill="#fff"/><circle r="6.95" transform="translate(177.56 215.5)" fill="#fff"/><g id="eBwbITDyC4P17_to" style="offset-path:path('M43.5,215.449997L43.5,215.449997C45.278121,215.696507,46.894915,216.813301,47.5,218.449997C50.055422,216.327342,46.173877,214.387416,46.5,212.449997');offset-rotate:0deg"><g id="eBwbITDyC4P17_ts" transform="scale(0,0)"><g transform="translate(-46.5,-213.449997)"><g><circle r="2.5" transform="translate(46.5 213.45)" fill="url(#eBwbITDyC4P19-fill)"/></g></g></g></g><g id="eBwbITDyC4P20_to" style="offset-path:path('M177.5,215.449997L177.5,215.449997C175.807905,216.215347,175.242397,216.257547,173.424342,218.19014C169.781188,214.572712,173.914127,212.075422,175.5,212.45');offset-rotate:0deg"><g id="eBwbITDyC4P20_ts" transform="scale(0,0)"><g transform="translate(-174.5,-213.45)"><g><circle r="2.5" transform="translate(174.5 213.45)" fill="url(#eBwbITDyC4P22-fill)"/></g></g></g></g></g><g><path d="M58.24,131l44.11,7.75l44-7.75-44-8.53Z" fill="#fed0a5"/><path d="M63.8,131l38.54,6.77v-14.29Z" fill="#f1ad8a"/><path d="M140.88,131l-38.54,6.75v-14.27Z" fill="#7d5947"/><g id="eBwbITDyC4P27_to" transform="translate(93.90501,124.290003)"><g id="eBwbITDyC4P27_tr" transform="rotate(0)"><g transform="translate(-93.905,-124.29)"><g><g><path d="M93.81,108.57v0c1.656854,0,3,1.343146,3,3l.17,10c.005547,1.652974-1.327054,2.998989-2.98,3.01v0c-1.633703.000327-2.967326-1.306624-3-2.94v-.06l-.17-10c0-1.656854,1.343146-3,3-3Z" fill="#595959"/><path d="M93.81,108.57v0c1.656854,0,3,1.343146,3,3l.17,10c.005547,1.652974-1.327054,2.998989-2.98,3.01v0c-1.633703.000327-2.967326-1.306624-3-2.94v-.06l-.17-10c0-1.656854,1.343146-3,3-3Z" fill="url(#eBwbITDyC4P31-fill)"/></g><g><g><path d="M109.81,108.29v0c1.656854,0,3,1.343146,3,3l.17,10c0,1.656854-1.343146,3-3,3v0c-1.656854,0-3-1.343146-3-3l-.17-10c0-1.656854,1.343146-3,3-3Z" fill="#595959"/><path d="M109.81,108.29v0c1.656854,0,3,1.343146,3,3l.17,10c0,1.656854-1.343146,3-3,3v0c-1.656854,0-3-1.343146-3-3l-.17-10c0-1.656854,1.343146-3,3-3Z" fill="url(#eBwbITDyC4P35-fill)"/></g></g><g><rect width="56" height="72" rx="3" ry="3" transform="matrix(.999848-.017452 0.017452 0.999848 72.711674 45.923152)" fill="#272727"/><path d="M75.71,45.87h3v0l1.26,72h-2.97c-1.633703.000327-2.967326-1.306624-3-2.94L72.76,49c-.021503-.795729.274124-1.567381.82179-2.145056s1.302466-.914007,2.09821-.934944Z" fill="url(#eBwbITDyC4P38-fill)"/><path d="M128.79,50v0l-56,1v0c-.029497-1.326174-.125331-3.186674.79179-4.145056s2.772022-.936089,4.09821-.964944v0l46-.8c1.329572-.029467,3.047039-.088274,4.005998.833152s1.08039,2.74716,1.104002,4.076848Z" fill="url(#eBwbITDyC4P39-fill)"/></g><g><circle r="7.5" transform="translate(113.63 69.71)" fill="url(#eBwbITDyC4P41-fill)"/><g id="eBwbITDyC4P42_to" transform="translate(112.599998,69.709999)"><g transform="translate(-112.599998,-69.709999)"><circle r="2.5" transform="translate(112.6 69.71)" fill="url(#eBwbITDyC4P43-fill)"/></g></g></g><g><circle r="7.5" transform="translate(88.64 70.15)" fill="url(#eBwbITDyC4P45-fill)"/><g id="eBwbITDyC4P46_to" transform="translate(89.599998,70.150002)"><g transform="translate(-89.599998,-70.150002)"><circle r="2.5" transform="translate(89.6 70.15)" fill="url(#eBwbITDyC4P47-fill)"/></g></g></g></g></g></g></g><path d="M102.21,190.75l44-7.32v-52.43l-44,7.68Z" fill="url(#eBwbITDyC4P69-fill)"/><path d="M102.21,190.75l-44-7.32v-52.43l44,7.68Z" fill="url(#eBwbITDyC4P70-fill)"/><path d="M102.21,138.73l41.6-7.31-2.88-.5-38.72,6.81L63.87,131l-.88.86Z" fill="#fed0a5"/></g></svg>