<svg id="eVa0QkcSxZY1" xmlns="http://www.w3.org/2000/svg" xmlns:xlink="http://www.w3.org/1999/xlink" viewBox="0 0 200 240" shape-rendering="geometricPrecision" text-rendering="geometricPrecision"><style><![CDATA[#eVa0QkcSxZY24_to {animation: eVa0QkcSxZY24_to__to 3200ms linear 1 normal forwards}@keyframes eVa0QkcSxZY24_to__to { 0% {transform: translate(93.90501px,124.290003px)} 6.25% {transform: translate(93.90501px,124.290003px)} 21.875% {transform: translate(93.90501px,124.290003px);animation-timing-function: cubic-bezier(0,0,0.37,1.005)} 34.375% {transform: translate(93.90501px,84.290003px);animation-timing-function: cubic-bezier(0.52,0,1,1)} 56.25% {transform: translate(93.90501px,185.290003px)} 100% {transform: translate(93.90501px,185.290003px)}} #eVa0QkcSxZY24_tr {animation: eVa0QkcSxZY24_tr__tr 3200ms linear 1 normal forwards}@keyframes eVa0QkcSxZY24_tr__tr { 0% {transform: rotate(0deg)} 6.25% {transform: rotate(0deg);animation-timing-function: cubic-bezier(0.42,0,0.58,1)} 21.875% {transform: rotate(0deg);animation-timing-function: cubic-bezier(0,0,0.445,1.005)} 34.375% {transform: rotate(-7.72deg);animation-timing-function: cubic-bezier(0.42,0,0.58,1)} 59.375% {transform: rotate(-7.72deg);animation-timing-function: cubic-bezier(0.42,0,0.58,1)} 84.375% {transform: rotate(2deg)} 90.625% {transform: rotate(0deg)} 100% {transform: rotate(0deg)}} #eVa0QkcSxZY39_to {animation: eVa0QkcSxZY39_to__to 3200ms linear 1 normal forwards}@keyframes eVa0QkcSxZY39_to__to { 0% {transform: translate(112.599998px,69.709999px)} 6.25% {transform: translate(112.599998px,69.709999px)} 15.625% {transform: translate(112.599998px,71.709999px)} 21.875% {transform: translate(112.599998px,71.709999px)} 34.375% {transform: translate(113.40599px,65.764383px)} 59.375% {transform: translate(112.599998px,69.709999px)} 100% {transform: translate(112.599998px,69.709999px)}} #eVa0QkcSxZY43_to {animation: eVa0QkcSxZY43_to__to 3200ms linear 1 normal forwards}@keyframes eVa0QkcSxZY43_to__to { 0% {transform: translate(89.599998px,70.150002px)} 6.25% {transform: translate(89.599998px,70.150002px)} 15.625% {transform: translate(89.599998px,72.150002px)} 21.875% {transform: translate(89.599998px,72.150002px)} 34.375% {transform: translate(88.289786px,66.926658px)} 59.375% {transform: translate(89.599998px,70.150002px)} 100% {transform: translate(89.599998px,70.150002px)}} #eVa0QkcSxZY50_tr {animation: eVa0QkcSxZY50_tr__tr 3200ms linear 1 normal forwards}@keyframes eVa0QkcSxZY50_tr__tr { 0% {transform: translate(109.870934px,114.758041px) rotate(0deg)} 3.125% {transform: translate(109.870934px,114.758041px) rotate(0deg);animation-timing-function: cubic-bezier(0.42,0,0.58,1)} 12.5% {transform: translate(109.870934px,114.758041px) rotate(-8.6deg);animation-timing-function: cubic-bezier(0.42,0,0.58,1)} 18.75% {transform: translate(109.870934px,114.758041px) rotate(0deg);animation-timing-function: cubic-bezier(0.42,0,0.58,1)} 28.125% {transform: translate(109.870934px,114.758041px) rotate(-21deg);animation-timing-function: cubic-bezier(0.42,0,0.58,1)} 40.625% {transform: translate(109.870934px,114.758041px) rotate(4.2deg);animation-timing-function: cubic-bezier(0.42,0,0.58,1)} 50% {transform: translate(109.870934px,114.758041px) rotate(0deg)} 100% {transform: translate(109.870934px,114.758041px) rotate(0deg)}} #eVa0QkcSxZY60_to {animation: eVa0QkcSxZY60_to__to 3200ms linear 1 normal forwards}@keyframes eVa0QkcSxZY60_to__to { 0% {transform: translate(112.599998px,69.709999px)} 50% {transform: translate(112.599998px,69.709999px)} 65.625% {transform: translate(112.599998px,71.709999px)} 100% {transform: translate(112.599998px,71.709999px)}} #eVa0QkcSxZY64_to {animation: eVa0QkcSxZY64_to__to 3200ms linear 1 normal forwards}@keyframes eVa0QkcSxZY64_to__to { 0% {transform: translate(89.599998px,70.150002px)} 50% {transform: translate(89.599998px,70.150002px)} 65.625% {transform: translate(89.599998px,72.150002px)} 100% {transform: translate(89.599998px,72.150002px)}} #eVa0QkcSxZY70_to {animation: eVa0QkcSxZY70_to__to 3200ms linear 1 normal forwards}@keyframes eVa0QkcSxZY70_to__to { 0% {offset-distance: 0%} 56.25% {offset-distance: 0%} 71.875% {offset-distance: 0%} 84.375% {offset-distance: 37.240332%} 100% {offset-distance: 100%}} #eVa0QkcSxZY70_ts {animation: eVa0QkcSxZY70_ts__ts 3200ms linear 1 normal forwards}@keyframes eVa0QkcSxZY70_ts__ts { 0% {transform: scale(0,0)} 56.25% {transform: scale(0,0);animation-timing-function: cubic-bezier(0.42,0,0.58,1)} 65.625% {transform: scale(1.4,1.4)} 71.875% {transform: scale(1,1)} 100% {transform: scale(1,1)}} #eVa0QkcSxZY74_to {animation: eVa0QkcSxZY74_to__to 3200ms linear 1 normal forwards}@keyframes eVa0QkcSxZY74_to__to { 0% {offset-distance: 0%} 56.25% {offset-distance: 0%} 71.875% {offset-distance: 0%} 84.375% {offset-distance: 43.663243%} 100% {offset-distance: 100%}} #eVa0QkcSxZY74_ts {animation: eVa0QkcSxZY74_ts__ts 3200ms linear 1 normal forwards}@keyframes eVa0QkcSxZY74_ts__ts { 0% {transform: scale(0,0)} 56.25% {transform: scale(0,0);animation-timing-function: cubic-bezier(0.42,0,0.58,1)} 65.625% {transform: scale(1.4,1.2)} 71.875% {transform: scale(1,1)} 100% {transform: scale(1,1)}}]]></style><defs><radialGradient id="eVa0QkcSxZY16-fill" cx="0" cy="0" r="0.859" spreadMethod="pad" gradientUnits="userSpaceOnUse" gradientTransform="matrix(-2.504 3.12 3.12 2.504 0.66674 -0.681081)"><stop id="eVa0QkcSxZY16-fill-0" offset="0%" stop-color="#404040"/><stop id="eVa0QkcSxZY16-fill-1" offset="100%" stop-color="#000"/></radialGradient><radialGradient id="eVa0QkcSxZY19-fill" cx="0" cy="0" r="0.859" spreadMethod="pad" gradientUnits="userSpaceOnUse" gradientTransform="matrix(-2.504 3.12 3.12 2.504 0.666812 -0.680801)"><stop id="eVa0QkcSxZY19-fill-0" offset="0%" stop-color="#404040"/><stop id="eVa0QkcSxZY19-fill-1" offset="100%" stop-color="#000"/></radialGradient><linearGradient id="eVa0QkcSxZY28-fill" x1="90.1627" y1="117.0166" x2="96.2093" y2="117.0166" spreadMethod="pad" gradientUnits="userSpaceOnUse" gradientTransform="translate(0 0)"><stop id="eVa0QkcSxZY28-fill-0" offset="0%" stop-color="rgba(89,89,89,0.86)"/><stop id="eVa0QkcSxZY28-fill-1" offset="8%" stop-color="rgba(44,45,44,0.62)"/><stop id="eVa0QkcSxZY28-fill-2" offset="14%" stop-color="rgba(44,45,44,0.73)"/><stop id="eVa0QkcSxZY28-fill-3" offset="44%" stop-color="rgba(61,61,61,0.47)"/><stop id="eVa0QkcSxZY28-fill-4" offset="100%" stop-color="rgba(91,92,91,0)"/></linearGradient><linearGradient id="eVa0QkcSxZY32-fill" x1="105.7761" y1="116.18" x2="111.761" y2="116.34" spreadMethod="pad" gradientUnits="userSpaceOnUse" gradientTransform="translate(0 0)"><stop id="eVa0QkcSxZY32-fill-0" offset="0%" stop-color="rgba(89,89,89,0.86)"/><stop id="eVa0QkcSxZY32-fill-1" offset="8%" stop-color="rgba(44,45,44,0.62)"/><stop id="eVa0QkcSxZY32-fill-2" offset="14%" stop-color="rgba(44,45,44,0.73)"/><stop id="eVa0QkcSxZY32-fill-3" offset="44%" stop-color="rgba(61,61,61,0.47)"/><stop id="eVa0QkcSxZY32-fill-4" offset="100%" stop-color="rgba(91,92,91,0)"/></linearGradient><linearGradient id="eVa0QkcSxZY35-fill" x1="70.6961" y1="81.68" x2="74.7337" y2="81.68" spreadMethod="pad" gradientUnits="userSpaceOnUse" gradientTransform="translate(0 0)"><stop id="eVa0QkcSxZY35-fill-0" offset="0%" stop-color="#070707"/><stop id="eVa0QkcSxZY35-fill-1" offset="100%" stop-color="rgba(41,41,41,0.8)"/></linearGradient><linearGradient id="eVa0QkcSxZY36-fill" x1="101.963953" y1="45.077003" x2="101.963953" y2="48.038502" spreadMethod="pad" gradientUnits="userSpaceOnUse" gradientTransform="translate(0 0)"><stop id="eVa0QkcSxZY36-fill-0" offset="0%" stop-color="rgba(0,0,0,0.5)"/><stop id="eVa0QkcSxZY36-fill-1" offset="22%" stop-color="rgba(63,63,63,0.16)"/><stop id="eVa0QkcSxZY36-fill-2" offset="43%" stop-color="rgba(213,213,213,0.12)"/><stop id="eVa0QkcSxZY36-fill-3" offset="100%" stop-color="rgba(141,141,141,0)"/></linearGradient><radialGradient id="eVa0QkcSxZY38-fill" cx="0" cy="0" r="0.76" spreadMethod="pad" gradientUnits="userSpaceOnUse" gradientTransform="matrix(11.52 9.61 -9.61 11.52 -0.65 -2.5)"><stop id="eVa0QkcSxZY38-fill-0" offset="0%" stop-color="#fff"/><stop id="eVa0QkcSxZY38-fill-1" offset="40%" stop-color="#fff"/><stop id="eVa0QkcSxZY38-fill-2" offset="100%" stop-color="#808080"/></radialGradient><radialGradient id="eVa0QkcSxZY40-fill" cx="0" cy="0" r="0.700317" spreadMethod="pad" gradientUnits="userSpaceOnUse" gradientTransform="matrix(3.725841 3.334387 -3.731408 4.169472 -0.637513 -0.767148)"><stop id="eVa0QkcSxZY40-fill-0" offset="0%" stop-color="#3e3e3e"/><stop id="eVa0QkcSxZY40-fill-1" offset="41%" stop-color="#000"/><stop id="eVa0QkcSxZY40-fill-2" offset="100%" stop-color="#000"/></radialGradient><radialGradient id="eVa0QkcSxZY42-fill" cx="0" cy="0" r="0.76" spreadMethod="pad" gradientUnits="userSpaceOnUse" gradientTransform="matrix(-11.18 10.01 10.01 11.18 0 -2.5)"><stop id="eVa0QkcSxZY42-fill-0" offset="0%" stop-color="#fff"/><stop id="eVa0QkcSxZY42-fill-1" offset="40%" stop-color="#fff"/><stop id="eVa0QkcSxZY42-fill-2" offset="100%" stop-color="#5a5a5a"/></radialGradient><radialGradient id="eVa0QkcSxZY44-fill" cx="0" cy="0" r="0.663992" spreadMethod="pad" gradientUnits="userSpaceOnUse" gradientTransform="matrix(-5.001602 0.080444 0.080444 5.001602 0.603802 -0.540003)"><stop id="eVa0QkcSxZY44-fill-0" offset="0%" stop-color="#353535"/><stop id="eVa0QkcSxZY44-fill-1" offset="50.0369%" stop-color="#000"/><stop id="eVa0QkcSxZY44-fill-2" offset="100%" stop-color="#000"/></radialGradient><linearGradient id="eVa0QkcSxZY49-fill" x1="90.1627" y1="117.0166" x2="96.2093" y2="117.0166" spreadMethod="pad" gradientUnits="userSpaceOnUse" gradientTransform="translate(0 0)"><stop id="eVa0QkcSxZY49-fill-0" offset="0%" stop-color="rgba(89,89,89,0.86)"/><stop id="eVa0QkcSxZY49-fill-1" offset="8%" stop-color="rgba(44,45,44,0.62)"/><stop id="eVa0QkcSxZY49-fill-2" offset="14%" stop-color="rgba(44,45,44,0.73)"/><stop id="eVa0QkcSxZY49-fill-3" offset="44%" stop-color="rgba(61,61,61,0.47)"/><stop id="eVa0QkcSxZY49-fill-4" offset="100%" stop-color="rgba(91,92,91,0)"/></linearGradient><linearGradient id="eVa0QkcSxZY53-fill" x1="105.7761" y1="116.18" x2="111.761" y2="116.34" spreadMethod="pad" gradientUnits="userSpaceOnUse" gradientTransform="translate(0 0)"><stop id="eVa0QkcSxZY53-fill-0" offset="0%" stop-color="rgba(89,89,89,0.86)"/><stop id="eVa0QkcSxZY53-fill-1" offset="8%" stop-color="rgba(44,45,44,0.62)"/><stop id="eVa0QkcSxZY53-fill-2" offset="14%" stop-color="rgba(44,45,44,0.73)"/><stop id="eVa0QkcSxZY53-fill-3" offset="44%" stop-color="rgba(61,61,61,0.47)"/><stop id="eVa0QkcSxZY53-fill-4" offset="100%" stop-color="rgba(91,92,91,0)"/></linearGradient><linearGradient id="eVa0QkcSxZY56-fill" x1="70.6961" y1="81.68" x2="74.7337" y2="81.68" spreadMethod="pad" gradientUnits="userSpaceOnUse" gradientTransform="translate(0 0)"><stop id="eVa0QkcSxZY56-fill-0" offset="0%" stop-color="#070707"/><stop id="eVa0QkcSxZY56-fill-1" offset="100%" stop-color="#292929"/></linearGradient><linearGradient id="eVa0QkcSxZY57-fill" x1="101.36" y1="43.2287" x2="101.92" y2="48.2522" spreadMethod="pad" gradientUnits="userSpaceOnUse" gradientTransform="translate(0 0)"><stop id="eVa0QkcSxZY57-fill-0" offset="0%" stop-color="rgba(0,0,0,0.5)"/><stop id="eVa0QkcSxZY57-fill-1" offset="22%" stop-color="rgba(63,63,63,0.16)"/><stop id="eVa0QkcSxZY57-fill-2" offset="43%" stop-color="rgba(213,213,213,0.12)"/><stop id="eVa0QkcSxZY57-fill-3" offset="100%" stop-color="rgba(141,141,141,0)"/></linearGradient><radialGradient id="eVa0QkcSxZY59-fill" cx="0" cy="0" r="0.76" spreadMethod="pad" gradientUnits="userSpaceOnUse" gradientTransform="matrix(11.52 9.61 -9.61 11.52 -0.65 -2.5)"><stop id="eVa0QkcSxZY59-fill-0" offset="0%" stop-color="#fff"/><stop id="eVa0QkcSxZY59-fill-1" offset="40%" stop-color="#fff"/><stop id="eVa0QkcSxZY59-fill-2" offset="100%" stop-color="#808080"/></radialGradient><radialGradient id="eVa0QkcSxZY61-fill" cx="0" cy="0" r="0.46" spreadMethod="pad" gradientUnits="userSpaceOnUse" gradientTransform="matrix(4.18191 2.74074 -2.74074 4.18191 3.013962 4.701204)"><stop id="eVa0QkcSxZY61-fill-0" offset="0%" stop-color="#585858"/><stop id="eVa0QkcSxZY61-fill-1" offset="41%" stop-color="#000"/><stop id="eVa0QkcSxZY61-fill-2" offset="100%" stop-color="#000"/></radialGradient><radialGradient id="eVa0QkcSxZY63-fill" cx="0" cy="0" r="0.76" spreadMethod="pad" gradientUnits="userSpaceOnUse" gradientTransform="matrix(-11.18 10.01 10.01 11.18 0 -2.5)"><stop id="eVa0QkcSxZY63-fill-0" offset="0%" stop-color="#fff"/><stop id="eVa0QkcSxZY63-fill-1" offset="40%" stop-color="#fff"/><stop id="eVa0QkcSxZY63-fill-2" offset="100%" stop-color="#5a5a5a"/></radialGradient><radialGradient id="eVa0QkcSxZY65-fill" cx="0" cy="0" r="0.46" spreadMethod="pad" gradientUnits="userSpaceOnUse" gradientTransform="matrix(-4.09 2.88 2.88 4.09 6.3048 6.7689)"><stop id="eVa0QkcSxZY65-fill-0" offset="0%" stop-color="#585858"/><stop id="eVa0QkcSxZY65-fill-1" offset="41%" stop-color="#000"/><stop id="eVa0QkcSxZY65-fill-2" offset="100%" stop-color="#000"/></radialGradient><linearGradient id="eVa0QkcSxZY66-fill" x1="111.04" y1="154.784" x2="149.32" y2="173.322" spreadMethod="pad" gradientUnits="userSpaceOnUse" gradientTransform="translate(0 0)"><stop id="eVa0QkcSxZY66-fill-0" offset="0%" stop-color="#e3a382"/><stop id="eVa0QkcSxZY66-fill-1" offset="100%" stop-color="#e6a988"/></linearGradient><linearGradient id="eVa0QkcSxZY67-fill" x1="102.24" y1="157.176" x2="63.08" y2="163.754" spreadMethod="pad" gradientUnits="userSpaceOnUse" gradientTransform="translate(0 0)"><stop id="eVa0QkcSxZY67-fill-0" offset="0%" stop-color="#745342"/><stop id="eVa0QkcSxZY67-fill-1" offset="100%" stop-color="#745342"/></linearGradient><radialGradient id="eVa0QkcSxZY72-fill" cx="0" cy="0" r="0.86" spreadMethod="pad" gradientUnits="userSpaceOnUse" gradientTransform="matrix(0.02 5 5 -0.02 0.773 1.1112)"><stop id="eVa0QkcSxZY72-fill-0" offset="0%" stop-color="#404040"/><stop id="eVa0QkcSxZY72-fill-1" offset="100%" stop-color="#000"/></radialGradient><radialGradient id="eVa0QkcSxZY76-fill" cx="0" cy="0" r="0.86" spreadMethod="pad" gradientUnits="userSpaceOnUse" gradientTransform="matrix(-3.13 3.9 3.9 3.13 0.8302 -0.8485)"><stop id="eVa0QkcSxZY76-fill-0" offset="0%" stop-color="#404040"/><stop id="eVa0QkcSxZY76-fill-1" offset="100%" stop-color="#000"/></radialGradient></defs><rect width="200" height="240" rx="0" ry="0" fill="#9a2525" fill-opacity="0"/><g transform="translate(2454 1210)"><g transform="translate(558-17)"><g transform="translate(-55 292)"><g><path d="M-2897.2,-1271.5c0-3.9,3-6.6,7.1-6.6s7.1,2.8,7.1,6.6c0,3.9-3,6.6-7.1,6.6-4.1.1-7.1-2.7-7.1-6.6Zm10.4,0c0-2.2-1.4-3.6-3.3-3.6s-3.3,1.3-3.3,3.6c0,2.2,1.4,3.6,3.3,3.6s3.3-1.3,3.3-3.6Z" fill="#fff"/><path d="M-2866.9,-1272.4v7.4h-3.7v-6.8c0-2.1-1-3-2.6-3-1.8,0-3.1,1.1-3.1,3.5v6.4h-3.7v-17.8h3.7v6.2c1-1,2.4-1.5,4.1-1.5c3-.1,5.3,1.7,5.3,5.6Z" fill="#fff"/><path d="M-2847.3,-1269.6c0,2.9-2.3,4.6-6.7,4.6h-8.7v-16.8h8.2c4.2,0,6.4,1.8,6.4,4.4c0,1.7-.9,3-2.2,3.7c1.8.6,3,2,3,4.1Zm-11.6-9.3v4h3.9c1.9,0,2.9-.7,2.9-2s-1-2-2.9-2h-3.9Zm7.7,8.9c0-1.4-1.1-2.1-3.1-2.1h-4.5v4.2h4.5c2,0,3.1-.7,3.1-2.1Z" fill="#fff"/><path d="M-2845.1,-1271.5c0-3.9,3-6.6,7.1-6.6s7.1,2.8,7.1,6.6c0,3.9-3,6.6-7.1,6.6-4.1.1-7.1-2.7-7.1-6.6Zm10.4,0c0-2.2-1.4-3.6-3.3-3.6s-3.3,1.3-3.3,3.6c0,2.2,1.4,3.6,3.3,3.6s3.3-1.3,3.3-3.6Z" fill="#fff"/><path d="M-2820.2,-1265l-2.8-4-2.9,4h-4.1l5-6.5-4.8-6.4h4.2l2.7,3.8l2.8-3.8h4l-4.8,6.3l5,6.6h-4.3Z" fill="#fff"/></g></g><circle r="4.2" transform="translate(-2945.4-979.4)" fill="#fff"/><circle r="4.2" transform="translate(-2893.4-979.4)" fill="#fff"/></g></g><g transform="translate(-2.280003 2.152081)"><path d="M58.24,131l44.11,7.75l44-7.75-44-8.53Z" fill="#fed0a5"/><path d="M63.8,131l38.54,6.77v-14.29Z" fill="#f1ad8a"/><path d="M140.88,131l-38.54,6.75v-14.27Z" fill="#7d5947"/><g id="eVa0QkcSxZY24_to" transform="translate(93.90501,124.290003)"><g id="eVa0QkcSxZY24_tr" transform="rotate(0)"><g transform="translate(-93.905,-124.29)"><g><g><path d="M93.81,108.57v0c1.656854,0,3,1.343146,3,3l.17,10c.005547,1.652974-1.327054,2.998989-2.98,3.01v0c-1.633703.000327-2.967326-1.306624-3-2.94v-.06l-.17-10c0-1.656854,1.343146-3,3-3Z" fill="#595959"/><path d="M93.81,108.57v0c1.656854,0,3,1.343146,3,3l.17,10c.005547,1.652974-1.327054,2.998989-2.98,3.01v0c-1.633703.000327-2.967326-1.306624-3-2.94v-.06l-.17-10c0-1.656854,1.343146-3,3-3Z" fill="url(#eVa0QkcSxZY28-fill)"/></g><g><g><path d="M109.81,108.29v0c1.656854,0,3,1.343146,3,3l.17,10c0,1.656854-1.343146,3-3,3v0c-1.656854,0-3-1.343146-3-3l-.17-10c0-1.656854,1.343146-3,3-3Z" fill="#595959"/><path d="M109.81,108.29v0c1.656854,0,3,1.343146,3,3l.17,10c0,1.656854-1.343146,3-3,3v0c-1.656854,0-3-1.343146-3-3l-.17-10c0-1.656854,1.343146-3,3-3Z" fill="url(#eVa0QkcSxZY32-fill)"/></g></g><g><rect width="56" height="72" rx="3" ry="3" transform="matrix(.999848-.017452 0.017452 0.999848 72.711674 45.923152)" fill="#272727"/><path d="M75.71,45.87h3v0l1.26,72h-2.97c-1.633703.000327-2.967326-1.306624-3-2.94L72.76,49c-.021503-.795729.274124-1.567381.82179-2.145056s1.302466-.914007,2.09821-.934944Z" fill="url(#eVa0QkcSxZY35-fill)"/><path d="M128.79,50v0l-56,1v0c-.029497-1.326174-.125331-3.186674.79179-4.145056s2.772022-.936089,4.09821-.964944v0l46-.8c1.329572-.029467,3.047039-.088274,4.005998.833152s1.08039,2.74716,1.104002,4.076848Z" fill="url(#eVa0QkcSxZY36-fill)"/></g><g><circle r="7.5" transform="translate(113.63 69.71)" fill="url(#eVa0QkcSxZY38-fill)"/><g id="eVa0QkcSxZY39_to" transform="translate(112.599998,69.709999)"><g transform="translate(-112.599998,-69.709999)"><circle r="2.5" transform="translate(112.6 69.71)" fill="url(#eVa0QkcSxZY40-fill)"/></g></g></g><g><circle r="7.5" transform="translate(88.64 70.15)" fill="url(#eVa0QkcSxZY42-fill)"/><g id="eVa0QkcSxZY43_to" transform="translate(89.599998,70.150002)"><g transform="translate(-89.599998,-70.150002)"><circle r="2.5" transform="translate(89.6 70.15)" fill="url(#eVa0QkcSxZY44-fill)"/></g></g></g></g></g></g></g><path d="M102.21,190.75l44-7.32v-52.43l-44,7.68Z" fill="url(#eVa0QkcSxZY66-fill)"/><path d="M102.21,190.75l-44-7.32v-52.43l44,7.68Z" fill="url(#eVa0QkcSxZY67-fill)"/><path d="M102.21,138.73l41.6-7.31-2.88-.5-38.72,6.81L63.87,131l-.88.86Z" fill="#fed0a5"/></g><g transform="matrix(.9 0 0 0.9-40.15 19.795003)"><g id="eVa0QkcSxZY70_to" style="offset-path:path('M177.5,215.449997L177.5,215.449997C175.807905,216.215347,175.242397,216.257547,173.424342,218.19014C169.781188,214.572712,173.914127,212.075422,175.5,212.45');offset-rotate:0deg"><g id="eVa0QkcSxZY70_ts" transform="scale(0,0)"><g transform="translate(-174.5,-213.45)"><g><circle r="2.5" transform="translate(174.5 213.45)" fill="url(#eVa0QkcSxZY72-fill)"/></g></g></g></g></g><g transform="matrix(.9 0 0 0.9 27.021916 20.053425)"><g id="eVa0QkcSxZY74_to" style="offset-path:path('M43.5,215.449997L43.5,215.449997C45.278121,215.696507,46.894915,216.813301,47.5,218.449997C50.055422,216.327342,46.173877,214.387416,46.5,212.449997');offset-rotate:0deg"><g id="eVa0QkcSxZY74_ts" transform="scale(0,0)"><g transform="translate(-46.5,-213.449997)"><g><circle r="2.5" transform="translate(46.5 213.45)" fill="url(#eVa0QkcSxZY76-fill)"/></g></g></g></g></g></svg>