<svg id="eyGbj8Uh9qE1" xmlns="http://www.w3.org/2000/svg" xmlns:xlink="http://www.w3.org/1999/xlink" viewBox="0 0 200 240" shape-rendering="geometricPrecision" text-rendering="geometricPrecision"><style><![CDATA[#eyGbj8Uh9qE17_to {animation: eyGbj8Uh9qE17_to__to 5500ms linear 1 normal forwards}@keyframes eyGbj8Uh9qE17_to__to { 0% {offset-distance: 0%} 63.636364% {offset-distance: 0%} 72.727273% {offset-distance: 0%} 80% {offset-distance: 43.663243%} 89.090909% {offset-distance: 100%} 100% {offset-distance: 100%}} #eyGbj8Uh9qE17_ts {animation: eyGbj8Uh9qE17_ts__ts 5500ms linear 1 normal forwards}@keyframes eyGbj8Uh9qE17_ts__ts { 0% {transform: scale(0,0)} 63.636364% {transform: scale(0,0);animation-timing-function: cubic-bezier(0.42,0,0.58,1)} 69.090909% {transform: scale(1.4,1.2)} 72.727273% {transform: scale(1,1)} 100% {transform: scale(1,1)}} #eyGbj8Uh9qE20_to {animation: eyGbj8Uh9qE20_to__to 5500ms linear 1 normal forwards}@keyframes eyGbj8Uh9qE20_to__to { 0% {offset-distance: 0%} 63.636364% {offset-distance: 0%} 72.727273% {offset-distance: 0%} 80% {offset-distance: 37.240332%} 89.090909% {offset-distance: 100%} 100% {offset-distance: 100%}} #eyGbj8Uh9qE20_ts {animation: eyGbj8Uh9qE20_ts__ts 5500ms linear 1 normal forwards}@keyframes eyGbj8Uh9qE20_ts__ts { 0% {transform: scale(0,0)} 63.636364% {transform: scale(0,0);animation-timing-function: cubic-bezier(0.42,0,0.58,1)} 69.090909% {transform: scale(1.4,1.4)} 72.727273% {transform: scale(1,1)} 100% {transform: scale(1,1)}} #eyGbj8Uh9qE27_to {animation: eyGbj8Uh9qE27_to__to 5500ms linear 1 normal forwards}@keyframes eyGbj8Uh9qE27_to__to { 0% {transform: translate(93.90501px,124.290003px)} 41.818182% {transform: translate(93.90501px,124.290003px);animation-timing-function: cubic-bezier(0,0,0.37,1.005)} 50.909091% {transform: translate(93.90501px,84.290003px);animation-timing-function: cubic-bezier(0.52,0,1,1)} 63.636364% {transform: translate(93.90501px,185.290003px)} 100% {transform: translate(93.90501px,185.290003px)}} #eyGbj8Uh9qE27_tr {animation: eyGbj8Uh9qE27_tr__tr 5500ms linear 1 normal forwards}@keyframes eyGbj8Uh9qE27_tr__tr { 0% {transform: rotate(0deg);animation-timing-function: cubic-bezier(0.42,0,0.58,1)} 5.454545% {transform: rotate(-9deg);animation-timing-function: cubic-bezier(0.42,0,0.58,1)} 9.090909% {transform: rotate(-1.5deg);animation-timing-function: cubic-bezier(0.42,0,0.58,1)} 14.545455% {transform: rotate(-28deg);animation-timing-function: cubic-bezier(0.42,0,0.58,1)} 23.636364% {transform: rotate(1.8deg);animation-timing-function: cubic-bezier(0.42,0,0.58,1)} 29.090909% {transform: rotate(0deg);animation-timing-function: cubic-bezier(0.42,0,0.58,1)} 41.818182% {transform: rotate(0deg);animation-timing-function: cubic-bezier(0,0,0.445,1.005)} 50.909091% {transform: rotate(-7.72deg);animation-timing-function: cubic-bezier(0.42,0,0.58,1)} 65.454545% {transform: rotate(-7.72deg);animation-timing-function: cubic-bezier(0.42,0,0.58,1)} 80% {transform: rotate(2deg)} 83.636364% {transform: rotate(0deg)} 100% {transform: rotate(0deg)}} #eyGbj8Uh9qE32_tr {animation: eyGbj8Uh9qE32_tr__tr 5500ms linear 1 normal forwards}@keyframes eyGbj8Uh9qE32_tr__tr { 0% {transform: translate(109.870934px,114.758041px) rotate(0deg)} 1.818182% {transform: translate(109.870934px,114.758041px) rotate(0deg);animation-timing-function: cubic-bezier(0.42,0,0.58,1)} 7.272727% {transform: translate(109.870934px,114.758041px) rotate(-8.6deg);animation-timing-function: cubic-bezier(0.42,0,0.58,1)} 10.909091% {transform: translate(109.870934px,114.758041px) rotate(0deg);animation-timing-function: cubic-bezier(0.42,0,0.58,1)} 16.363636% {transform: translate(109.870934px,114.758041px) rotate(-21deg);animation-timing-function: cubic-bezier(0.42,0,0.58,1)} 23.636364% {transform: translate(109.870934px,114.758041px) rotate(4.2deg);animation-timing-function: cubic-bezier(0.42,0,0.58,1)} 29.090909% {transform: translate(109.870934px,114.758041px) rotate(0deg)} 100% {transform: translate(109.870934px,114.758041px) rotate(0deg)}} #eyGbj8Uh9qE42_to {animation: eyGbj8Uh9qE42_to__to 5500ms linear 1 normal forwards}@keyframes eyGbj8Uh9qE42_to__to { 0% {transform: translate(112.599998px,69.709999px)} 29.090909% {transform: translate(112.599998px,69.709999px)} 38.181818% {transform: translate(112.599998px,71.709999px)} 41.818182% {transform: translate(112.599998px,71.709999px)} 50.909091% {transform: translate(113.40599px,65.764383px)} 65.454545% {transform: translate(112.599998px,69.709999px)} 100% {transform: translate(112.599998px,69.709999px)}} #eyGbj8Uh9qE46_to {animation: eyGbj8Uh9qE46_to__to 5500ms linear 1 normal forwards}@keyframes eyGbj8Uh9qE46_to__to { 0% {transform: translate(89.599998px,70.150002px)} 29.090909% {transform: translate(89.599998px,70.150002px)} 38.181818% {transform: translate(89.599998px,72.150002px)} 41.818182% {transform: translate(89.599998px,72.150002px)} 50.909091% {transform: translate(88.289786px,66.926658px)} 65.454545% {transform: translate(89.599998px,70.150002px)} 100% {transform: translate(89.599998px,70.150002px)}} #eyGbj8Uh9qE48 {animation: eyGbj8Uh9qE48_c_o 5500ms linear 1 normal forwards}@keyframes eyGbj8Uh9qE48_c_o { 0% {opacity: 0} 38.181818% {opacity: 0} 40% {opacity: 1} 100% {opacity: 1}} #eyGbj8Uh9qE53_tr {animation: eyGbj8Uh9qE53_tr__tr 5500ms linear 1 normal forwards}@keyframes eyGbj8Uh9qE53_tr__tr { 0% {transform: translate(109.870934px,114.758041px) rotate(0deg)} 1.818182% {transform: translate(109.870934px,114.758041px) rotate(0deg);animation-timing-function: cubic-bezier(0.42,0,0.58,1)} 7.272727% {transform: translate(109.870934px,114.758041px) rotate(-8.6deg);animation-timing-function: cubic-bezier(0.42,0,0.58,1)} 10.909091% {transform: translate(109.870934px,114.758041px) rotate(0deg);animation-timing-function: cubic-bezier(0.42,0,0.58,1)} 16.363636% {transform: translate(109.870934px,114.758041px) rotate(-21deg);animation-timing-function: cubic-bezier(0.42,0,0.58,1)} 23.636364% {transform: translate(109.870934px,114.758041px) rotate(4.2deg);animation-timing-function: cubic-bezier(0.42,0,0.58,1)} 29.090909% {transform: translate(109.870934px,114.758041px) rotate(0deg)} 100% {transform: translate(109.870934px,114.758041px) rotate(0deg)}} #eyGbj8Uh9qE63_to {animation: eyGbj8Uh9qE63_to__to 5500ms linear 1 normal forwards}@keyframes eyGbj8Uh9qE63_to__to { 0% {transform: translate(112.599998px,69.709999px)} 29.090909% {transform: translate(112.599998px,69.709999px)} 38.181818% {transform: translate(112.599998px,71.709999px)} 100% {transform: translate(112.599998px,71.709999px)}} #eyGbj8Uh9qE67_to {animation: eyGbj8Uh9qE67_to__to 5500ms linear 1 normal forwards}@keyframes eyGbj8Uh9qE67_to__to { 0% {transform: translate(89.599998px,70.150002px)} 29.090909% {transform: translate(89.599998px,70.150002px)} 38.181818% {transform: translate(89.599998px,72.150002px)} 100% {transform: translate(89.599998px,72.150002px)}}]]></style><defs><radialGradient id="eyGbj8Uh9qE19-fill" cx="0" cy="0" r="0.86" spreadMethod="pad" gradientUnits="userSpaceOnUse" gradientTransform="matrix(-3.13 3.9 3.9 3.13 0.8302 -0.8485)"><stop id="eyGbj8Uh9qE19-fill-0" offset="0%" stop-color="rgb(64,64,64)"/><stop id="eyGbj8Uh9qE19-fill-1" offset="100%" stop-color="rgb(0,0,0)"/></radialGradient><radialGradient id="eyGbj8Uh9qE22-fill" cx="0" cy="0" r="0.86" spreadMethod="pad" gradientUnits="userSpaceOnUse" gradientTransform="matrix(0.02 5 5 -0.02 0.773 1.1112)"><stop id="eyGbj8Uh9qE22-fill-0" offset="0%" stop-color="rgb(64,64,64)"/><stop id="eyGbj8Uh9qE22-fill-1" offset="100%" stop-color="rgb(0,0,0)"/></radialGradient><linearGradient id="eyGbj8Uh9qE31-fill" x1="90.1627" y1="117.0166" x2="96.2093" y2="117.0166" spreadMethod="pad" gradientUnits="userSpaceOnUse" gradientTransform="matrix(1 0 0 1 0 0)"><stop id="eyGbj8Uh9qE31-fill-0" offset="0%" stop-color="rgba(89,89,89,0.86)"/><stop id="eyGbj8Uh9qE31-fill-1" offset="8%" stop-color="rgba(44,45,44,0.62)"/><stop id="eyGbj8Uh9qE31-fill-2" offset="14%" stop-color="rgba(44,45,44,0.73)"/><stop id="eyGbj8Uh9qE31-fill-3" offset="44%" stop-color="rgba(61,61,61,0.47)"/><stop id="eyGbj8Uh9qE31-fill-4" offset="100%" stop-color="rgba(91,92,91,0)"/></linearGradient><linearGradient id="eyGbj8Uh9qE35-fill" x1="105.7761" y1="116.18" x2="111.761" y2="116.34" spreadMethod="pad" gradientUnits="userSpaceOnUse" gradientTransform="matrix(1 0 0 1 0 0)"><stop id="eyGbj8Uh9qE35-fill-0" offset="0%" stop-color="rgba(89,89,89,0.86)"/><stop id="eyGbj8Uh9qE35-fill-1" offset="8%" stop-color="rgba(44,45,44,0.62)"/><stop id="eyGbj8Uh9qE35-fill-2" offset="14%" stop-color="rgba(44,45,44,0.73)"/><stop id="eyGbj8Uh9qE35-fill-3" offset="44%" stop-color="rgba(61,61,61,0.47)"/><stop id="eyGbj8Uh9qE35-fill-4" offset="100%" stop-color="rgba(91,92,91,0)"/></linearGradient><linearGradient id="eyGbj8Uh9qE38-fill" x1="70.6961" y1="81.68" x2="74.7337" y2="81.68" spreadMethod="pad" gradientUnits="userSpaceOnUse" gradientTransform="matrix(1 0 0 1 0 0)"><stop id="eyGbj8Uh9qE38-fill-0" offset="0%" stop-color="rgb(7,7,7)"/><stop id="eyGbj8Uh9qE38-fill-1" offset="100%" stop-color="rgba(41,41,41,0.8)"/></linearGradient><linearGradient id="eyGbj8Uh9qE39-fill" x1="101.963953" y1="45.077003" x2="101.963953" y2="48.038502" spreadMethod="pad" gradientUnits="userSpaceOnUse" gradientTransform="matrix(1 0 0 1 0 0)"><stop id="eyGbj8Uh9qE39-fill-0" offset="0%" stop-color="rgba(0,0,0,0.5)"/><stop id="eyGbj8Uh9qE39-fill-1" offset="22%" stop-color="rgba(63,63,63,0.16)"/><stop id="eyGbj8Uh9qE39-fill-2" offset="43%" stop-color="rgba(213,213,213,0.12)"/><stop id="eyGbj8Uh9qE39-fill-3" offset="100%" stop-color="rgba(141,141,141,0)"/></linearGradient><radialGradient id="eyGbj8Uh9qE41-fill" cx="0" cy="0" r="0.76" spreadMethod="pad" gradientUnits="userSpaceOnUse" gradientTransform="matrix(11.52 9.61 -9.61 11.52 -0.65 -2.5)"><stop id="eyGbj8Uh9qE41-fill-0" offset="0%" stop-color="rgb(255,255,255)"/><stop id="eyGbj8Uh9qE41-fill-1" offset="40%" stop-color="rgb(255,255,255)"/><stop id="eyGbj8Uh9qE41-fill-2" offset="100%" stop-color="rgb(128,128,128)"/></radialGradient><radialGradient id="eyGbj8Uh9qE43-fill" cx="0" cy="0" r="0.700317" spreadMethod="pad" gradientUnits="userSpaceOnUse" gradientTransform="matrix(3.725841 3.334387 -3.731408 4.169472 -0.637513 -0.767148)"><stop id="eyGbj8Uh9qE43-fill-0" offset="0%" stop-color="rgb(62,62,62)"/><stop id="eyGbj8Uh9qE43-fill-1" offset="41%" stop-color="rgb(0,0,0)"/><stop id="eyGbj8Uh9qE43-fill-2" offset="100%" stop-color="rgb(0,0,0)"/></radialGradient><radialGradient id="eyGbj8Uh9qE45-fill" cx="0" cy="0" r="0.76" spreadMethod="pad" gradientUnits="userSpaceOnUse" gradientTransform="matrix(-11.18 10.01 10.01 11.18 0 -2.5)"><stop id="eyGbj8Uh9qE45-fill-0" offset="0%" stop-color="rgb(255,255,255)"/><stop id="eyGbj8Uh9qE45-fill-1" offset="40%" stop-color="rgb(255,255,255)"/><stop id="eyGbj8Uh9qE45-fill-2" offset="100%" stop-color="rgb(90,90,90)"/></radialGradient><radialGradient id="eyGbj8Uh9qE47-fill" cx="0" cy="0" r="0.663992" spreadMethod="pad" gradientUnits="userSpaceOnUse" gradientTransform="matrix(-5.001602 0.080444 0.080444 5.001602 0.603802 -0.540003)"><stop id="eyGbj8Uh9qE47-fill-0" offset="0%" stop-color="rgb(53,53,53)"/><stop id="eyGbj8Uh9qE47-fill-1" offset="50.0369%" stop-color="rgb(0,0,0)"/><stop id="eyGbj8Uh9qE47-fill-2" offset="100%" stop-color="rgb(0,0,0)"/></radialGradient><linearGradient id="eyGbj8Uh9qE52-fill" x1="90.1627" y1="117.0166" x2="96.2093" y2="117.0166" spreadMethod="pad" gradientUnits="userSpaceOnUse" gradientTransform="matrix(1 0 0 1 0 0)"><stop id="eyGbj8Uh9qE52-fill-0" offset="0%" stop-color="rgba(89,89,89,0.86)"/><stop id="eyGbj8Uh9qE52-fill-1" offset="8%" stop-color="rgba(44,45,44,0.62)"/><stop id="eyGbj8Uh9qE52-fill-2" offset="14%" stop-color="rgba(44,45,44,0.73)"/><stop id="eyGbj8Uh9qE52-fill-3" offset="44%" stop-color="rgba(61,61,61,0.47)"/><stop id="eyGbj8Uh9qE52-fill-4" offset="100%" stop-color="rgba(91,92,91,0)"/></linearGradient><linearGradient id="eyGbj8Uh9qE56-fill" x1="105.7761" y1="116.18" x2="111.761" y2="116.34" spreadMethod="pad" gradientUnits="userSpaceOnUse" gradientTransform="matrix(1 0 0 1 0 0)"><stop id="eyGbj8Uh9qE56-fill-0" offset="0%" stop-color="rgba(89,89,89,0.86)"/><stop id="eyGbj8Uh9qE56-fill-1" offset="8%" stop-color="rgba(44,45,44,0.62)"/><stop id="eyGbj8Uh9qE56-fill-2" offset="14%" stop-color="rgba(44,45,44,0.73)"/><stop id="eyGbj8Uh9qE56-fill-3" offset="44%" stop-color="rgba(61,61,61,0.47)"/><stop id="eyGbj8Uh9qE56-fill-4" offset="100%" stop-color="rgba(91,92,91,0)"/></linearGradient><linearGradient id="eyGbj8Uh9qE59-fill" x1="70.6961" y1="81.68" x2="74.7337" y2="81.68" spreadMethod="pad" gradientUnits="userSpaceOnUse" gradientTransform="matrix(1 0 0 1 0 0)"><stop id="eyGbj8Uh9qE59-fill-0" offset="0%" stop-color="rgb(7,7,7)"/><stop id="eyGbj8Uh9qE59-fill-1" offset="100%" stop-color="rgb(41,41,41)"/></linearGradient><linearGradient id="eyGbj8Uh9qE60-fill" x1="101.36" y1="43.2287" x2="101.92" y2="48.2522" spreadMethod="pad" gradientUnits="userSpaceOnUse" gradientTransform="matrix(1 0 0 1 0 0)"><stop id="eyGbj8Uh9qE60-fill-0" offset="0%" stop-color="rgba(0,0,0,0.5)"/><stop id="eyGbj8Uh9qE60-fill-1" offset="22%" stop-color="rgba(63,63,63,0.16)"/><stop id="eyGbj8Uh9qE60-fill-2" offset="43%" stop-color="rgba(213,213,213,0.12)"/><stop id="eyGbj8Uh9qE60-fill-3" offset="100%" stop-color="rgba(141,141,141,0)"/></linearGradient><radialGradient id="eyGbj8Uh9qE62-fill" cx="0" cy="0" r="0.76" spreadMethod="pad" gradientUnits="userSpaceOnUse" gradientTransform="matrix(11.52 9.61 -9.61 11.52 -0.65 -2.5)"><stop id="eyGbj8Uh9qE62-fill-0" offset="0%" stop-color="rgb(255,255,255)"/><stop id="eyGbj8Uh9qE62-fill-1" offset="40%" stop-color="rgb(255,255,255)"/><stop id="eyGbj8Uh9qE62-fill-2" offset="100%" stop-color="rgb(128,128,128)"/></radialGradient><radialGradient id="eyGbj8Uh9qE64-fill" cx="0" cy="0" r="0.46" spreadMethod="pad" gradientUnits="userSpaceOnUse" gradientTransform="matrix(4.18191 2.74074 -2.74074 4.18191 3.013962 4.701204)"><stop id="eyGbj8Uh9qE64-fill-0" offset="0%" stop-color="rgb(88,88,88)"/><stop id="eyGbj8Uh9qE64-fill-1" offset="41%" stop-color="rgb(0,0,0)"/><stop id="eyGbj8Uh9qE64-fill-2" offset="100%" stop-color="rgb(0,0,0)"/></radialGradient><radialGradient id="eyGbj8Uh9qE66-fill" cx="0" cy="0" r="0.76" spreadMethod="pad" gradientUnits="userSpaceOnUse" gradientTransform="matrix(-11.18 10.01 10.01 11.18 0 -2.5)"><stop id="eyGbj8Uh9qE66-fill-0" offset="0%" stop-color="rgb(255,255,255)"/><stop id="eyGbj8Uh9qE66-fill-1" offset="40%" stop-color="rgb(255,255,255)"/><stop id="eyGbj8Uh9qE66-fill-2" offset="100%" stop-color="rgb(90,90,90)"/></radialGradient><radialGradient id="eyGbj8Uh9qE68-fill" cx="0" cy="0" r="0.46" spreadMethod="pad" gradientUnits="userSpaceOnUse" gradientTransform="matrix(-4.09 2.88 2.88 4.09 6.3048 6.7689)"><stop id="eyGbj8Uh9qE68-fill-0" offset="0%" stop-color="rgb(88,88,88)"/><stop id="eyGbj8Uh9qE68-fill-1" offset="41%" stop-color="rgb(0,0,0)"/><stop id="eyGbj8Uh9qE68-fill-2" offset="100%" stop-color="rgb(0,0,0)"/></radialGradient><linearGradient id="eyGbj8Uh9qE69-fill" x1="111.04" y1="154.784" x2="149.32" y2="173.322" spreadMethod="pad" gradientUnits="userSpaceOnUse" gradientTransform="matrix(1 0 0 1 0 0)"><stop id="eyGbj8Uh9qE69-fill-0" offset="0%" stop-color="rgb(227,163,130)"/><stop id="eyGbj8Uh9qE69-fill-1" offset="100%" stop-color="rgb(230,169,136)"/></linearGradient><linearGradient id="eyGbj8Uh9qE70-fill" x1="102.24" y1="157.176" x2="63.08" y2="163.754" spreadMethod="pad" gradientUnits="userSpaceOnUse" gradientTransform="matrix(1 0 0 1 0 0)"><stop id="eyGbj8Uh9qE70-fill-0" offset="0%" stop-color="rgb(116,83,66)"/><stop id="eyGbj8Uh9qE70-fill-1" offset="100%" stop-color="rgb(116,83,66)"/></linearGradient></defs><rect id="eyGbj8Uh9qE2" width="200" height="240" rx="0" ry="0" opacity="0" fill="rgb(255,164,164)" stroke="none" stroke-width="1"/><g id="eyGbj8Uh9qE3"><g id="eyGbj8Uh9qE4" style="isolation:isolate"><path id="eyGbj8Uh9qE5" d="M31.4,207.2L31.4,224L28.21,224L19.83,213.8L19.83,224L16,224L16,207.2L19.22,207.2L27.57,217.4L27.57,207.2Z" fill="rgb(255,255,255)" stroke="none" stroke-width="1"/><path id="eyGbj8Uh9qE6" d="M34.81,215.6C34.81,210.6,38.7,206.91,44,206.91C49.3,206.91,53.19,210.58,53.19,215.6C53.19,220.62,49.28,224.29,44,224.29C38.72,224.29,34.81,220.59,34.81,215.6ZM49.26,215.6C49.183171,212.714457,46.795262,210.429936,43.909145,210.480818C41.023028,210.531699,38.717129,212.898972,38.74206,215.78543C38.76699,218.671888,41.113434,220.998977,44,221C45.431088,221.03829,46.813075,220.476844,47.811988,219.451344C48.810901,218.425844,49.33586,217.029589,49.26,215.6Z" fill="rgb(255,255,255)" stroke="none" stroke-width="1"/><path id="eyGbj8Uh9qE7" d="M55.54,215.6C55.54,210.54,59.43,206.91,64.66,206.91C67.303032,206.804702,69.850131,207.908935,71.58,209.91L69.08,212.21C68.050156,210.936933,66.497437,210.201047,64.86,210.21C61.888708,210.21,59.48,212.618708,59.48,215.59C59.48,218.561292,61.888708,220.97,64.86,220.97C66.498414,220.983369,68.052955,220.24662,69.08,218.97L71.58,221.28C69.848395,223.290354,67.29076,224.395959,64.64,224.28C59.43,224.29,55.54,220.66,55.54,215.6Z" fill="rgb(255,255,255)" stroke="none" stroke-width="1"/><path id="eyGbj8Uh9qE8" d="M85.38,224L82.14,219.32L78.56,219.32L78.56,224L74.67,224L74.67,207.2L81.94,207.2C86.43,207.2,89.24,209.53,89.24,213.29C89.337084,215.616753,87.947715,217.748993,85.78,218.6L89.55,224ZM81.73,210.37L78.56,210.37L78.56,216.22L81.73,216.22C84.1,216.22,85.3,215.12,85.3,213.29C85.3,211.46,84.1,210.37,81.73,210.37Z" fill="rgb(255,255,255)" stroke="none" stroke-width="1"/><path id="eyGbj8Uh9qE9" d="M105.8,220.88L105.8,224L92.8,224L92.8,207.2L105.5,207.2L105.5,210.32L96.66,210.32L96.66,214L104.46,214L104.46,217L96.66,217L96.66,220.89Z" fill="rgb(255,255,255)" stroke="none" stroke-width="1"/><path id="eyGbj8Uh9qE10" d="M120.44,220.4L112.64,220.4L111.15,224L107.15,224L114.64,207.2L118.48,207.2L126,224L121.92,224ZM119.22,217.4L116.55,211L113.89,217.44Z" fill="rgb(255,255,255)" stroke="none" stroke-width="1"/><path id="eyGbj8Uh9qE11" d="M130.88,210.37L125.5,210.37L125.5,207.2L140.14,207.2L140.14,210.37L134.77,210.37L134.77,224L130.88,224Z" fill="rgb(255,255,255)" stroke="none" stroke-width="1"/><path id="eyGbj8Uh9qE12" d="M142.71,207.2L146.6,207.2L146.6,224L142.71,224Z" fill="rgb(255,255,255)" stroke="none" stroke-width="1"/><path id="eyGbj8Uh9qE13" d="M167.12,207.2L159.85,224L156,224L148.75,207.2L153,207.2L158.11,219.2L163.3,207.2Z" fill="rgb(255,255,255)" stroke="none" stroke-width="1"/><path id="eyGbj8Uh9qE14" d="M167.74,215.6C167.74,210.6,171.63,206.91,176.94,206.91C182.25,206.91,186.13,210.58,186.13,215.6C186.13,220.62,182.22,224.29,176.94,224.29C171.66,224.29,167.74,220.59,167.74,215.6ZM182.19,215.6C182.124052,212.710224,179.738654,210.415112,176.848484,210.46066C173.958314,210.506208,171.646422,212.875347,171.671568,215.765766C171.696714,218.656185,174.049475,220.984743,176.94,220.98C178.366607,221.018103,179.74438,220.459057,180.741087,219.437669C181.737795,218.416281,182.262979,217.025249,182.19,215.6Z" fill="rgb(255,255,255)" stroke="none" stroke-width="1"/></g><circle id="eyGbj8Uh9qE15" r="6.95" transform="matrix(1 0 0 1 43.56 215.5)" fill="rgb(255,255,255)" stroke="none" stroke-width="1"/><circle id="eyGbj8Uh9qE16" r="6.95" transform="matrix(1 0 0 1 177.56 215.5)" fill="rgb(255,255,255)" stroke="none" stroke-width="1"/><g id="eyGbj8Uh9qE17_to" style="offset-path:path('M43.5,215.449997L43.5,215.449997C45.278121,215.696507,46.894915,216.813301,47.5,218.449997C50.055422,216.327342,46.173877,214.387416,46.5,212.449997');offset-rotate:0deg"><g id="eyGbj8Uh9qE17_ts" transform="scale(0,0)"><g id="eyGbj8Uh9qE17" transform="translate(-46.5,-213.449997)"><g id="eyGbj8Uh9qE18"><circle id="eyGbj8Uh9qE19" r="2.5" transform="matrix(1 0 0 1 46.5 213.45)" fill="url(#eyGbj8Uh9qE19-fill)" stroke="none" stroke-width="1"/></g></g></g></g><g id="eyGbj8Uh9qE20_to" style="offset-path:path('M177.5,215.449997L177.5,215.449997C175.807905,216.215347,175.242397,216.257547,173.424342,218.19014C169.781188,214.572712,173.914127,212.075422,175.5,212.45');offset-rotate:0deg"><g id="eyGbj8Uh9qE20_ts" transform="scale(0,0)"><g id="eyGbj8Uh9qE20" transform="translate(-174.5,-213.45)"><g id="eyGbj8Uh9qE21"><circle id="eyGbj8Uh9qE22" r="2.5" transform="matrix(1 0 0 1 174.5 213.45)" fill="url(#eyGbj8Uh9qE22-fill)" stroke="none" stroke-width="1"/></g></g></g></g></g><g id="eyGbj8Uh9qE23"><path id="eyGbj8Uh9qE24" d="M58.24,131L102.35,138.75L146.35,131L102.35,122.47Z" fill="rgb(254,208,165)" stroke="none" stroke-width="1"/><path id="eyGbj8Uh9qE25" d="M63.8,131L102.34,137.77L102.34,123.48Z" fill="rgb(241,173,138)" stroke="none" stroke-width="1"/><path id="eyGbj8Uh9qE26" d="M140.88,131L102.34,137.75L102.34,123.48Z" fill="rgb(125,89,71)" stroke="none" stroke-width="1"/><g id="eyGbj8Uh9qE27_to" transform="translate(93.90501,124.290003)"><g id="eyGbj8Uh9qE27_tr" transform="rotate(0)"><g id="eyGbj8Uh9qE27" transform="translate(-93.905,-124.29)"><g id="eyGbj8Uh9qE28"><g id="eyGbj8Uh9qE29"><path id="eyGbj8Uh9qE30" d="M93.81,108.57L93.81,108.57C95.466854,108.57,96.81,109.913146,96.81,111.57L96.98,121.57C96.985547,123.222974,95.652946,124.568989,94,124.58L94,124.58C92.366297,124.580327,91.032674,123.273376,91,121.64L91,121.58L90.83,111.58C90.83,109.923146,92.173146,108.58,93.83,108.58Z" fill="rgb(89,89,89)" stroke="none" stroke-width="1"/><path id="eyGbj8Uh9qE31" d="M93.81,108.57L93.81,108.57C95.466854,108.57,96.81,109.913146,96.81,111.57L96.98,121.57C96.985547,123.222974,95.652946,124.568989,94,124.58L94,124.58C92.366297,124.580327,91.032674,123.273376,91,121.64L91,121.58L90.83,111.58C90.83,109.923146,92.173146,108.58,93.83,108.58Z" fill="url(#eyGbj8Uh9qE31-fill)" stroke="none" stroke-width="1"/></g><g id="eyGbj8Uh9qE32_tr" transform="translate(109.870934,114.758041) rotate(0)"><g id="eyGbj8Uh9qE32" transform="translate(-109.870934,-114.758041)"><g id="eyGbj8Uh9qE33"><path id="eyGbj8Uh9qE34" d="M109.81,108.29L109.81,108.29C111.466854,108.29,112.81,109.633146,112.81,111.29L112.98,121.29C112.98,122.946854,111.636854,124.29,109.98,124.29L109.98,124.29C108.323146,124.29,106.98,122.946854,106.98,121.29L106.81,111.29C106.81,109.633146,108.153146,108.29,109.81,108.29Z" fill="rgb(89,89,89)" stroke="none" stroke-width="1"/><path id="eyGbj8Uh9qE35" d="M109.81,108.29L109.81,108.29C111.466854,108.29,112.81,109.633146,112.81,111.29L112.98,121.29C112.98,122.946854,111.636854,124.29,109.98,124.29L109.98,124.29C108.323146,124.29,106.98,122.946854,106.98,121.29L106.81,111.29C106.81,109.633146,108.153146,108.29,109.81,108.29Z" fill="url(#eyGbj8Uh9qE35-fill)" stroke="none" stroke-width="1"/></g></g></g><g id="eyGbj8Uh9qE36"><rect id="eyGbj8Uh9qE37" width="56" height="72" rx="3" ry="3" transform="matrix(0.999848 -0.017452 0.017452 0.999848 72.711674 45.923152)" fill="rgb(39,39,39)" stroke="none" stroke-width="1"/><path id="eyGbj8Uh9qE38" d="M75.71,45.87L78.71,45.87L78.71,45.87L79.97,117.87L77,117.87C75.366297,117.870327,74.032674,116.563376,74,114.93L72.76,49C72.738497,48.204271,73.034124,47.432619,73.58179,46.854944C74.129456,46.277269,74.884256,45.940937,75.68,45.92Z" fill="url(#eyGbj8Uh9qE38-fill)" stroke="none" stroke-width="1"/><path id="eyGbj8Uh9qE39" d="M128.79,50L128.79,50L72.79,51L72.79,51C72.760503,49.673826,72.664669,47.813326,73.58179,46.854944C74.498911,45.896562,76.353812,45.918855,77.68,45.89L77.68,45.89L123.68,45.09C125.009572,45.060533,126.727039,45.001726,127.685998,45.923152C128.644957,46.844578,128.766388,48.670312,128.79,50Z" fill="url(#eyGbj8Uh9qE39-fill)" stroke="none" stroke-width="1"/></g><g id="eyGbj8Uh9qE40"><circle id="eyGbj8Uh9qE41" r="7.5" transform="matrix(1 0 0 1 113.63 69.71)" fill="url(#eyGbj8Uh9qE41-fill)" stroke="none" stroke-width="1"/><g id="eyGbj8Uh9qE42_to" transform="translate(112.599998,69.709999)"><g id="eyGbj8Uh9qE42" transform="translate(-112.599998,-69.709999)"><circle id="eyGbj8Uh9qE43" r="2.5" transform="matrix(1 0 0 1 112.6 69.71)" fill="url(#eyGbj8Uh9qE43-fill)" stroke="none" stroke-width="1"/></g></g></g><g id="eyGbj8Uh9qE44"><circle id="eyGbj8Uh9qE45" r="7.5" transform="matrix(1 0 0 1 88.64 70.15)" fill="url(#eyGbj8Uh9qE45-fill)" stroke="none" stroke-width="1"/><g id="eyGbj8Uh9qE46_to" transform="translate(89.599998,70.150002)"><g id="eyGbj8Uh9qE46" transform="translate(-89.599998,-70.150002)"><circle id="eyGbj8Uh9qE47" r="2.5" transform="matrix(1 0 0 1 89.6 70.15)" fill="url(#eyGbj8Uh9qE47-fill)" stroke="none" stroke-width="1"/></g></g></g></g></g></g></g><path id="eyGbj8Uh9qE69" d="M102.21,190.75L146.21,183.43L146.21,131L102.21,138.68Z" fill="url(#eyGbj8Uh9qE69-fill)" stroke="none" stroke-width="1"/><path id="eyGbj8Uh9qE70" d="M102.21,190.75L58.21,183.43L58.21,131L102.21,138.68Z" fill="url(#eyGbj8Uh9qE70-fill)" stroke="none" stroke-width="1"/><path id="eyGbj8Uh9qE71" d="M102.21,138.73L143.81,131.42L140.93,130.92L102.21,137.73L63.87,131L62.99,131.86Z" fill="rgb(254,208,165)" stroke="none" stroke-width="1"/></g></svg>