<?xml version="1.0" encoding="utf-8"?>
<!-- Generator: Adobe Illustrator 26.1.0, SVG Export Plug-In . SVG Version: 6.00 Build 0)  -->
<svg version="1.1" id="Layer_1" xmlns="http://www.w3.org/2000/svg" xmlns:xlink="http://www.w3.org/1999/xlink" x="0px" y="0px"
	 viewBox="0 0 200 240" style="enable-background:new 0 0 200 240;" xml:space="preserve">
<style type="text/css">
	.st0{fill:#FFFFFF;fill-opacity:0;}
	.st1{fill:#FED0A5;}
	.st2{opacity:0.998;fill:#F1AD8A;enable-background:new    ;}
	.st3{opacity:0.998;fill:#7D5947;enable-background:new    ;}
	.st4{fill:#595959;}
	.st5{fill:url(#Rectangle_12704_00000090975039910740598940000013766595600517299382_);}
	.st6{fill:url(#Rectangle_12704-2_00000120530859551147066980000006423760440813788290_);}
	.st7{fill:#272727;}
	.st8{fill:url(#Rectangle_12622_00000014594081240838959130000011443574032807588228_);}
	.st9{fill:url(#Rectangle_12623_00000025408020632852785580000017615517821505865913_);}
	.st10{fill:url(#Ellipse_3412_00000181804730121896146190000016663678867213880990_);}
	.st11{opacity:0.996;fill:url(#Ellipse_3414_00000067224812520079922510000015531775525421353354_);enable-background:new    ;}
	.st12{fill:url(#Ellipse_3416_00000033340880988583940080000015894942129253329855_);}
	.st13{opacity:0.996;fill:url(#Ellipse_3415_00000088133724299406639250000000815454108832716200_);enable-background:new    ;}
	.st14{fill:url(#Path_33414_00000015322644517557241900000010767294393378049440_);}
	.st15{fill:url(#Path_33415_00000155118005715674655450000012271157979340442781_);}
	.st16{enable-background:new    ;}
	.st17{fill:#FFFFFF;}
	.st18{fill:url(#ecFDlxhXEAY52_00000122702432969106455030000013865017356604734857_);}
	.st19{fill:url(#ecFDlxhXEAY52-2_00000132046191169124139600000008650176160439910316_);}
</style>
<g id="Group_14616" transform="translate(2454 1197)">
	<rect id="Rectangle_12725" x="-2454" y="-1197" class="st0" width="200" height="240"/>
	<g id="Group_14595">
		<g id="Group_14577" transform="translate(-1413.457 802.543)">
			<rect id="Rectangle_12617" x="-990.5" y="-1925.5" class="st0" width="100" height="100"/>
			<path id="Path_33416" class="st1" d="M-984.3-1888.5l44.1,7.8l44-7.8l-44-8.5L-984.3-1888.5z"/>
			<path id="Path_33417" class="st2" d="M-978.7-1888.6l38.5,6.8v-14.2L-978.7-1888.6z"/>
			<path id="Path_33418" class="st3" d="M-901.7-1888.6l-38.5,6.8v-14.2L-901.7-1888.6z"/>
			<g id="Group_14540" transform="translate(-970.044 -1974.063) rotate(-1)">
				<g id="Group_14591" transform="translate(1055.221 1133.501)">
					<path id="Rectangle_12703" class="st4" d="M-1035-1071L-1035-1071c1.7,0,3,1.3,3,3v10c0,1.7-1.3,3-3,3l0,0c-1.7,0-3-1.3-3-3
						v-10C-1038-1069.7-1036.7-1071-1035-1071z"/>
					
						<linearGradient id="Rectangle_12704_00000079457084633915632570000011538761888920994483_" gradientUnits="userSpaceOnUse" x1="-1200.2212" y1="-883.5013" x2="-1199.2212" y2="-883.5033" gradientTransform="matrix(5.9991 0.2792 0.1047 -15.9976 6254.7339 -14861.7471)">
						<stop  offset="0" style="stop-color:#595959;stop-opacity:0.859"/>
						<stop  offset="7.900000e-02" style="stop-color:#2C2D2C;stop-opacity:0.616"/>
						<stop  offset="0.143" style="stop-color:#2C2D2C;stop-opacity:0.725"/>
						<stop  offset="0.443" style="stop-color:#3D3D3D;stop-opacity:0.475"/>
						<stop  offset="1" style="stop-color:#5B5C5B;stop-opacity:0"/>
					</linearGradient>
					<path id="Rectangle_12704" style="fill:url(#Rectangle_12704_00000079457084633915632570000011538761888920994483_);" d="
						M-1035-1071L-1035-1071c1.7,0,3,1.3,3,3v10c0,1.7-1.3,3-3,3l0,0c-1.7,0-3-1.3-3-3v-10C-1038-1069.7-1036.7-1071-1035-1071z"/>
				</g>
				<g id="Group_14592" transform="translate(1071.221 1133.501)">
					<path id="Rectangle_12703-2" class="st4" d="M-1035-1071L-1035-1071c1.7,0,3,1.3,3,3v10c0,1.7-1.3,3-3,3l0,0c-1.7,0-3-1.3-3-3
						v-10C-1038-1069.7-1036.7-1071-1035-1071z"/>
					
						<linearGradient id="Rectangle_12704-2_00000118376079938539621080000015046635919178396072_" gradientUnits="userSpaceOnUse" x1="-1216.2212" y1="-883.5013" x2="-1215.2212" y2="-883.5033" gradientTransform="matrix(5.9991 0.2792 0.1047 -15.9976 6350.7192 -14857.2793)">
						<stop  offset="0" style="stop-color:#595959;stop-opacity:0.859"/>
						<stop  offset="7.900000e-02" style="stop-color:#2C2D2C;stop-opacity:0.616"/>
						<stop  offset="0.143" style="stop-color:#2C2D2C;stop-opacity:0.725"/>
						<stop  offset="0.443" style="stop-color:#3D3D3D;stop-opacity:0.475"/>
						<stop  offset="1" style="stop-color:#5B5C5B;stop-opacity:0"/>
					</linearGradient>
					<path id="Rectangle_12704-2" style="fill:url(#Rectangle_12704-2_00000118376079938539621080000015046635919178396072_);" d="
						M-1035-1071L-1035-1071c1.7,0,3,1.3,3,3v10c0,1.7-1.3,3-3,3l0,0c-1.7,0-3-1.3-3-3v-10C-1038-1069.7-1036.7-1071-1035-1071z"/>
				</g>
				<g id="Group_14539" transform="translate(0 0)">
					<path id="Rectangle_12621" class="st7" d="M3.2-0.5l50,0c1.7,0,3,1.3,3,3l0,66c0,1.7-1.3,3-3,3l-50,0c-1.7,0-3-1.3-3-3l0-66
						C0.2,0.8,1.6-0.5,3.2-0.5z"/>
					
						<linearGradient id="Rectangle_12622_00000109720986725949076670000003562299559500197305_" gradientUnits="userSpaceOnUse" x1="-145.0346" y1="251.9663" x2="-144.3726" y2="251.9653" gradientTransform="matrix(5.9991 1.2565 0.1047 -71.989 843.9155 18356.4727)">
						<stop  offset="0" style="stop-color:#070707"/>
						<stop  offset="1" style="stop-color:#292929"/>
					</linearGradient>
					<path id="Rectangle_12622" style="fill:url(#Rectangle_12622_00000109720986725949076670000003562299559500197305_);" d="
						M3.2-0.5l3,0l0,0l0,72l0,0h-3c-1.7,0-3-1.3-3-3l0-66C0.2,0.8,1.6-0.5,3.2-0.5z"/>
					
						<linearGradient id="Rectangle_12623_00000023960281700726788600000005129437270170980747_" gradientUnits="userSpaceOnUse" x1="-150.8616" y1="253.9143" x2="-149.8607" y2="253.9133" gradientTransform="matrix(-0.9773 4.9992 55.9915 8.723698e-02 -14336.1992 731.5414)">
						<stop  offset="0" style="stop-color:#000000;stop-opacity:0.502"/>
						<stop  offset="0.222" style="stop-color:#3F3F3F;stop-opacity:0.157"/>
						<stop  offset="0.433" style="stop-color:#D5D5D5;stop-opacity:0.122"/>
						<stop  offset="1" style="stop-color:#8D8D8D;stop-opacity:0"/>
					</linearGradient>
					<path id="Rectangle_12623" style="fill:url(#Rectangle_12623_00000023960281700726788600000005129437270170980747_);" d="
						M56.2,4.5L56.2,4.5L56.2,4.5l-56,0l0,0l0,0c0-2.8,2.2-5,5-5l46,0C54-0.5,56.2,1.7,56.2,4.5z"/>
				</g>
				<g id="Group_14538" transform="translate(33.201 16.6)">
					
						<radialGradient id="Ellipse_3412_00000152265001342576459810000014085254391908888207_" cx="-185.7684" cy="237.5796" r="0.76" gradientTransform="matrix(11.1762 10.0046 10.0046 -11.1762 -294.3125 4518.2896)" gradientUnits="userSpaceOnUse">
						<stop  offset="0" style="stop-color:#FFFFFF"/>
						<stop  offset="0.404" style="stop-color:#FFFFFF"/>
						<stop  offset="1" style="stop-color:#9F9F9F"/>
					</radialGradient>
					
						<circle id="Ellipse_3412" style="fill:url(#Ellipse_3412_00000152265001342576459810000014085254391908888207_);" cx="7.5" cy="7.4" r="7.5"/>
					
						<radialGradient id="Ellipse_3414_00000110452408950136163890000016562573011044080548_" cx="-173.4486" cy="238.8563" r="0.464" gradientTransform="matrix(4.085 2.8832 2.8832 -4.085 25.8583 1482.3568)" gradientUnits="userSpaceOnUse">
						<stop  offset="0" style="stop-color:#585858"/>
						<stop  offset="0.409" style="stop-color:#000000"/>
						<stop  offset="1" style="stop-color:#000000"/>
					</radialGradient>
					
						<circle id="Ellipse_3414" style="opacity:0.996;fill:url(#Ellipse_3414_00000110452408950136163890000016562573011044080548_);enable-background:new    ;" cx="6.5" cy="7.4" r="2.5"/>
				</g>
				<g id="Group_14537" transform="translate(8.3 16.6)">
					
						<radialGradient id="Ellipse_3416_00000111910908034416688300000012977944622492660919_" cx="-168.9934" cy="230.1763" r="0.76" gradientTransform="matrix(-11.1821 10.0067 -10.0067 -11.1821 422.1439 4269.4214)" gradientUnits="userSpaceOnUse">
						<stop  offset="0" style="stop-color:#FFFFFF"/>
						<stop  offset="0.404" style="stop-color:#FFFFFF"/>
						<stop  offset="1" style="stop-color:#989898"/>
					</radialGradient>
					
						<circle id="Ellipse_3416" style="fill:url(#Ellipse_3416_00000111910908034416688300000012977944622492660919_);" cx="7.4" cy="7.4" r="7.5"/>
					
						<radialGradient id="Ellipse_3415_00000025410636467405925780000011540103415198879678_" cx="-175.5836" cy="219.645" r="0.464" gradientTransform="matrix(-4.0853 2.8817 -2.8817 -4.0853 -75.4922 1409.8866)" gradientUnits="userSpaceOnUse">
						<stop  offset="0" style="stop-color:#585858"/>
						<stop  offset="0.409" style="stop-color:#000000"/>
						<stop  offset="1" style="stop-color:#000000"/>
					</radialGradient>
					
						<circle id="Ellipse_3415" style="opacity:0.996;fill:url(#Ellipse_3415_00000025410636467405925780000011540103415198879678_);enable-background:new    ;" cx="8.4" cy="7.4" r="2.5"/>
				</g>
			</g>
			
				<linearGradient id="Path_33414_00000096753988324470027350000013923297116471198116_" gradientUnits="userSpaceOnUse" x1="-1122.5117" y1="-1719.5607" x2="-1121.6378" y2="-1719.8716" gradientTransform="matrix(43.974 0 0 -59.7731 48426.3164 -104650.1172)">
				<stop  offset="0" style="stop-color:#E3A382"/>
				<stop  offset="1" style="stop-color:#E6A988"/>
			</linearGradient>
			<path id="Path_33414" style="fill:url(#Path_33414_00000096753988324470027350000013923297116471198116_);" d="M-940.3-1828.7
				l44-7.3v-52.5l-44,7.7V-1828.7z"/>
			
				<linearGradient id="Path_33415_00000147217180603597476600000012776555686465689246_" gradientUnits="userSpaceOnUse" x1="-1121.6956" y1="-1719.6396" x2="-1122.5886" y2="-1719.7537" gradientTransform="matrix(43.974 0 0 -59.7731 48382.3438 -104650.1172)">
				<stop  offset="0" style="stop-color:#745342"/>
				<stop  offset="1" style="stop-color:#745342"/>
			</linearGradient>
			<path id="Path_33415" style="fill:url(#Path_33415_00000147217180603597476600000012776555686465689246_);" d="M-940.3-1828.7
				l-44-7.3v-52.5l44,7.7V-1828.7z"/>
			<path id="Path_33422" class="st1" d="M-940.3-1880.8l41.6-7.3l-2.9-0.5l-38.7,6.8l-38.3-6.8l-0.9,0.9L-940.3-1880.8z"/>
		</g>
		<g id="Group_14615" transform="translate(558 -17)">
			<g id="Group_14612" transform="translate(-55 292)">
				<g class="st16">
					<path class="st17" d="M-2897.2-1271.5c0-3.9,3-6.6,7.1-6.6c4.1,0,7.1,2.8,7.1,6.6c0,3.9-3,6.6-7.1,6.6
						C-2894.2-1264.8-2897.2-1267.6-2897.2-1271.5z M-2886.8-1271.5c0-2.2-1.4-3.6-3.3-3.6s-3.3,1.3-3.3,3.6c0,2.2,1.4,3.6,3.3,3.6
						S-2886.8-1269.2-2886.8-1271.5z"/>
					<path class="st17" d="M-2866.9-1272.4v7.4h-3.7v-6.8c0-2.1-1-3-2.6-3c-1.8,0-3.1,1.1-3.1,3.5v6.4h-3.7v-17.8h3.7v6.2
						c1-1,2.4-1.5,4.1-1.5C-2869.2-1278.1-2866.9-1276.3-2866.9-1272.4z"/>
					<path class="st17" d="M-2847.3-1269.6c0,2.9-2.3,4.6-6.7,4.6h-8.7v-16.8h8.2c4.2,0,6.4,1.8,6.4,4.4c0,1.7-0.9,3-2.2,3.7
						C-2848.5-1273.1-2847.3-1271.7-2847.3-1269.6z M-2858.9-1278.9v4h3.9c1.9,0,2.9-0.7,2.9-2s-1-2-2.9-2H-2858.9z M-2851.2-1270
						c0-1.4-1.1-2.1-3.1-2.1h-4.5v4.2h4.5C-2852.3-1267.9-2851.2-1268.6-2851.2-1270z"/>
					<path class="st17" d="M-2845.1-1271.5c0-3.9,3-6.6,7.1-6.6c4.1,0,7.1,2.8,7.1,6.6c0,3.9-3,6.6-7.1,6.6
						C-2842.1-1264.8-2845.1-1267.6-2845.1-1271.5z M-2834.7-1271.5c0-2.2-1.4-3.6-3.3-3.6s-3.3,1.3-3.3,3.6c0,2.2,1.4,3.6,3.3,3.6
						S-2834.7-1269.2-2834.7-1271.5z"/>
					<path class="st17" d="M-2820.2-1265l-2.8-4l-2.9,4h-4.1l5-6.5l-4.8-6.4h4.2l2.7,3.8l2.8-3.8h4l-4.8,6.3l5,6.6H-2820.2z"/>
				</g>
			</g>
			<circle id="c2" class="st17" cx="-2945.4" cy="-979.4" r="4.2"/>
			<circle id="c1" class="st17" cx="-2893.4" cy="-979.4" r="4.2"/>
			<g id="ecFDlxhXEAY52_to" transform="translate(-2945.27 -983.375)">
				<g id="ecFDlxhXEAY52_ts" transform="translate(0 0)">
					
						<radialGradient id="ecFDlxhXEAY52_00000031887785086923377380000018161249666800360381_" cx="-155.6035" cy="106.5223" r="0.859" gradientTransform="matrix(-2.504 3.12 3.12 2.504 -719.3138 220.0705)" gradientUnits="userSpaceOnUse">
						<stop  offset="0" style="stop-color:#404040"/>
						<stop  offset="1" style="stop-color:#000000"/>
					</radialGradient>
					
						<circle id="ecFDlxhXEAY52" style="fill:url(#ecFDlxhXEAY52_00000031887785086923377380000018161249666800360381_);" cx="2" cy="2" r="2"/>
				</g>
			</g>
			<g id="ecFDlxhXEAY52_to-2" transform="translate(-2893.177 -984.11)">
				<g id="ecFDlxhXEAY52_ts-2" transform="translate(0 0)">
					
						<radialGradient id="ecFDlxhXEAY52-2_00000031167226849371514970000008015027057836866191_" cx="-207.6965" cy="107.2573" r="0.859" gradientTransform="matrix(-2.504 3.12 3.12 2.504 -852.0479 380.7603)" gradientUnits="userSpaceOnUse">
						<stop  offset="0" style="stop-color:#404040"/>
						<stop  offset="1" style="stop-color:#000000"/>
					</radialGradient>
					
						<circle id="ecFDlxhXEAY52-2" style="fill:url(#ecFDlxhXEAY52-2_00000031167226849371514970000008015027057836866191_);" cx="2" cy="2" r="2"/>
				</g>
			</g>
		</g>
	</g>
</g>
</svg>
