<svg xmlns="http://www.w3.org/2000/svg" width="80" height="110" viewBox="0 0 80 110">
  <g id="up-arrow" transform="translate(-32.307)">
    <g id="Group_10939" data-name="Group 10939" transform="translate(32.307)">
      <path id="Path_33360" data-name="Path 33360" d="M111.746,46.528,73.6.669a1.693,1.693,0,0,0-2.7,0L32.864,46.528a2.641,2.641,0,0,0-.412,2.5,1.938,1.938,0,0,0,1.762,1.411H55.187v57.272A2.126,2.126,0,0,0,57.094,110H87.6a2.126,2.126,0,0,0,1.907-2.291V50.436H110.4a1.943,1.943,0,0,0,1.762-1.416A2.623,2.623,0,0,0,111.746,46.528Z" transform="translate(-32.307)" fill="#ffac81"/>
    </g>
  </g>
</svg>
